G04*
G04 #@! TF.GenerationSoftware,Altium Limited,Altium Designer,19.1.5 (86)*
G04*
G04 Layer_Color=65535*
%FSLAX25Y25*%
%MOIN*%
G70*
G01*
G75*
%ADD10C,0.00787*%
%ADD11C,0.00500*%
%ADD12C,0.01000*%
%ADD13C,0.00984*%
%ADD14C,0.00600*%
%ADD15C,0.00602*%
%ADD16C,0.00800*%
%ADD17C,0.00559*%
%ADD18C,0.00394*%
%ADD19C,0.00642*%
G36*
X237763Y130795D02*
X237868D01*
Y130690D01*
X237552D01*
Y130585D01*
Y130480D01*
X237763D01*
Y130375D01*
X237868D01*
Y130270D01*
X237973D01*
Y130165D01*
X237868D01*
Y130060D01*
Y129954D01*
X237342D01*
Y130060D01*
Y130165D01*
X237447D01*
Y130060D01*
X237658D01*
Y130165D01*
X237763D01*
Y130270D01*
X237552D01*
Y130375D01*
X237342D01*
Y130480D01*
Y130585D01*
Y130690D01*
Y130795D01*
X237552D01*
Y130900D01*
X237763D01*
Y130795D01*
D02*
G37*
G36*
X239759D02*
X239969D01*
Y130690D01*
X239549D01*
Y130585D01*
Y130480D01*
X239864D01*
Y130375D01*
X239654D01*
Y130270D01*
X239549D01*
Y130165D01*
Y130060D01*
X239969D01*
Y129954D01*
X239444D01*
Y130060D01*
Y130165D01*
Y130270D01*
Y130375D01*
Y130480D01*
Y130585D01*
Y130690D01*
Y130795D01*
Y130900D01*
X239759D01*
Y130795D01*
D02*
G37*
G36*
X239129D02*
X239234D01*
Y130690D01*
Y130585D01*
Y130480D01*
Y130375D01*
X239024D01*
Y130270D01*
X238813D01*
Y130165D01*
Y130060D01*
Y129954D01*
X238603D01*
Y130060D01*
Y130165D01*
Y130270D01*
Y130375D01*
Y130480D01*
Y130585D01*
Y130690D01*
Y130795D01*
Y130900D01*
X239129D01*
Y130795D01*
D02*
G37*
G36*
X234085Y130165D02*
Y130060D01*
Y129954D01*
X233980D01*
Y130060D01*
X233769D01*
Y129954D01*
Y129849D01*
X233875D01*
Y129954D01*
X233980D01*
Y129849D01*
X234085D01*
Y129744D01*
X234190D01*
Y129639D01*
Y129534D01*
X234085D01*
Y129429D01*
X233980D01*
Y129324D01*
X233559D01*
Y129429D01*
Y129534D01*
Y129639D01*
Y129744D01*
Y129849D01*
Y129954D01*
Y130060D01*
Y130165D01*
X233769D01*
Y130270D01*
X234085D01*
Y130165D01*
D02*
G37*
G36*
X244593Y129954D02*
X244698D01*
Y129849D01*
X244593D01*
Y129954D01*
X244383D01*
Y129849D01*
Y129744D01*
Y129639D01*
X244698D01*
Y129534D01*
X244383D01*
Y129429D01*
Y129324D01*
Y129219D01*
X244698D01*
Y129114D01*
X244383D01*
Y129219D01*
X244173D01*
Y129324D01*
Y129429D01*
Y129534D01*
Y129639D01*
Y129744D01*
Y129849D01*
Y129954D01*
Y130060D01*
X244593D01*
Y129954D01*
D02*
G37*
G36*
X241546Y130585D02*
X241231D01*
Y130480D01*
Y130375D01*
Y130270D01*
X241546D01*
Y130165D01*
X241231D01*
Y130060D01*
Y129954D01*
Y129849D01*
X241020D01*
Y129954D01*
Y130060D01*
Y130165D01*
Y130270D01*
Y130375D01*
Y130480D01*
Y130585D01*
Y130690D01*
X241546D01*
Y130585D01*
D02*
G37*
G36*
X240600Y130690D02*
X240705D01*
Y130585D01*
X240810D01*
Y130480D01*
Y130375D01*
X240705D01*
Y130270D01*
Y130165D01*
Y130060D01*
X240810D01*
Y129954D01*
Y129849D01*
X240600D01*
Y129954D01*
Y130060D01*
X240495D01*
Y130165D01*
Y130270D01*
X240285D01*
Y130165D01*
Y130060D01*
Y129954D01*
X240180D01*
Y130060D01*
Y130165D01*
Y130270D01*
Y130375D01*
Y130480D01*
Y130585D01*
Y130690D01*
Y130795D01*
X240600D01*
Y130690D01*
D02*
G37*
G36*
X237027D02*
Y130585D01*
Y130480D01*
Y130375D01*
X237132D01*
Y130270D01*
Y130165D01*
Y130060D01*
Y129954D01*
Y129849D01*
X237027D01*
Y129954D01*
X236922D01*
Y130060D01*
X236712D01*
Y129954D01*
X236607D01*
Y129849D01*
X236502D01*
Y129954D01*
Y130060D01*
Y130165D01*
Y130270D01*
X236607D01*
Y130375D01*
Y130480D01*
Y130585D01*
Y130690D01*
X236712D01*
Y130795D01*
X237027D01*
Y130690D01*
D02*
G37*
G36*
X236502Y130585D02*
X236186D01*
Y130480D01*
Y130375D01*
Y130270D01*
Y130165D01*
Y130060D01*
Y129954D01*
Y129849D01*
Y129744D01*
X236081D01*
Y129849D01*
Y129954D01*
Y130060D01*
Y130165D01*
Y130270D01*
Y130375D01*
Y130480D01*
X235871D01*
Y130585D01*
Y130690D01*
X236502D01*
Y130585D01*
D02*
G37*
G36*
X235661Y130480D02*
Y130375D01*
Y130270D01*
Y130165D01*
X235556D01*
Y130060D01*
Y129954D01*
X235661D01*
Y129849D01*
X235766D01*
Y129744D01*
X235451D01*
Y129849D01*
Y129954D01*
X235346D01*
Y130060D01*
X235241D01*
Y129954D01*
Y129849D01*
Y129744D01*
Y129639D01*
X235031D01*
Y129744D01*
Y129849D01*
Y129954D01*
Y130060D01*
Y130165D01*
Y130270D01*
Y130375D01*
Y130480D01*
X235136D01*
Y130585D01*
X235661D01*
Y130480D01*
D02*
G37*
G36*
X241756Y130585D02*
X241861D01*
Y130480D01*
Y130375D01*
Y130270D01*
Y130165D01*
X241966D01*
Y130060D01*
Y129954D01*
X242071D01*
Y130060D01*
Y130165D01*
Y130270D01*
Y130375D01*
Y130480D01*
X242176D01*
Y130585D01*
X242281D01*
Y130480D01*
Y130375D01*
Y130270D01*
Y130165D01*
X242176D01*
Y130060D01*
Y129954D01*
Y129849D01*
X242071D01*
Y129744D01*
Y129639D01*
X241966D01*
Y129744D01*
X241861D01*
Y129849D01*
Y129954D01*
X241756D01*
Y130060D01*
Y130165D01*
Y130270D01*
Y130375D01*
X241651D01*
Y130480D01*
Y130585D01*
Y130690D01*
X241756D01*
Y130585D01*
D02*
G37*
G36*
X242702Y130375D02*
Y130270D01*
X242807D01*
Y130165D01*
Y130060D01*
X242912D01*
Y129954D01*
Y129849D01*
Y129744D01*
X243017D01*
Y129849D01*
Y129954D01*
Y130060D01*
Y130165D01*
Y130270D01*
Y130375D01*
X243122D01*
Y130270D01*
Y130165D01*
Y130060D01*
Y129954D01*
Y129849D01*
Y129744D01*
Y129639D01*
Y129534D01*
X242912D01*
Y129639D01*
Y129744D01*
X242807D01*
Y129849D01*
Y129954D01*
X242702D01*
Y130060D01*
Y130165D01*
Y130270D01*
X242597D01*
Y130165D01*
Y130060D01*
Y129954D01*
Y129849D01*
Y129744D01*
Y129639D01*
X242492D01*
Y129744D01*
Y129849D01*
Y129954D01*
Y130060D01*
Y130165D01*
Y130270D01*
Y130375D01*
Y130480D01*
X242702D01*
Y130375D01*
D02*
G37*
G36*
X234820D02*
X234715D01*
Y130270D01*
X234505D01*
Y130165D01*
Y130060D01*
X234820D01*
Y129954D01*
X234505D01*
Y129849D01*
Y129744D01*
Y129639D01*
X234820D01*
Y129534D01*
X234505D01*
Y129429D01*
X234400D01*
Y129534D01*
X234295D01*
Y129639D01*
Y129744D01*
Y129849D01*
Y129954D01*
Y130060D01*
Y130165D01*
Y130270D01*
Y130375D01*
X234610D01*
Y130480D01*
X234820D01*
Y130375D01*
D02*
G37*
G36*
X243753Y130165D02*
X243858D01*
Y130060D01*
X243963D01*
Y129954D01*
X244068D01*
Y129849D01*
Y129744D01*
Y129639D01*
Y129534D01*
X243963D01*
Y129429D01*
Y129324D01*
X243542D01*
Y129429D01*
X243332D01*
Y129534D01*
Y129639D01*
Y129744D01*
Y129849D01*
Y129954D01*
Y130060D01*
Y130165D01*
Y130270D01*
X243753D01*
Y130165D01*
D02*
G37*
G36*
X233349Y129954D02*
Y129849D01*
Y129744D01*
Y129639D01*
Y129534D01*
Y129429D01*
Y129324D01*
Y129219D01*
X233139D01*
Y129324D01*
Y129429D01*
Y129534D01*
Y129639D01*
Y129744D01*
Y129849D01*
Y129954D01*
Y130060D01*
X233349D01*
Y129954D01*
D02*
G37*
G36*
X232719Y129744D02*
Y129639D01*
Y129534D01*
Y129429D01*
Y129324D01*
Y129219D01*
X232929D01*
Y129114D01*
X232824D01*
Y129009D01*
X232508D01*
Y129114D01*
Y129219D01*
Y129324D01*
Y129429D01*
Y129534D01*
Y129639D01*
Y129744D01*
Y129849D01*
X232719D01*
Y129744D01*
D02*
G37*
G36*
X245854Y129219D02*
X245959D01*
Y129114D01*
Y129009D01*
Y128903D01*
X245749D01*
Y129009D01*
X245644D01*
Y129114D01*
Y129219D01*
X245749D01*
Y129324D01*
X245854D01*
Y129219D01*
D02*
G37*
G36*
X245013Y129849D02*
X245329D01*
Y129744D01*
X245434D01*
Y129639D01*
X245224D01*
Y129534D01*
Y129429D01*
Y129324D01*
Y129219D01*
Y129114D01*
Y129009D01*
Y128903D01*
X245119D01*
Y129009D01*
X245013D01*
Y129114D01*
Y129219D01*
Y129324D01*
Y129429D01*
Y129534D01*
Y129639D01*
Y129744D01*
X244908D01*
Y129849D01*
X244803D01*
Y129954D01*
X245013D01*
Y129849D01*
D02*
G37*
G36*
X231878Y129219D02*
X231983D01*
Y129114D01*
Y129009D01*
X231878D01*
Y128903D01*
X231668D01*
Y129009D01*
Y129114D01*
Y129219D01*
X231773D01*
Y129324D01*
X231878D01*
Y129219D01*
D02*
G37*
G36*
X277590Y126382D02*
Y126276D01*
Y126171D01*
Y126066D01*
Y125961D01*
Y125856D01*
Y125751D01*
Y125646D01*
Y125541D01*
X277169D01*
Y125646D01*
Y125751D01*
X277064D01*
Y125856D01*
Y125961D01*
Y126066D01*
Y126171D01*
X275383D01*
Y126066D01*
Y125961D01*
Y125856D01*
Y125751D01*
Y125646D01*
Y125541D01*
Y125436D01*
Y125331D01*
Y125226D01*
Y125120D01*
Y125015D01*
Y124910D01*
Y124805D01*
Y124700D01*
Y124595D01*
X276539D01*
Y124700D01*
Y124805D01*
X276644D01*
Y124910D01*
Y125015D01*
Y125120D01*
X277064D01*
Y125015D01*
Y124910D01*
Y124805D01*
Y124700D01*
Y124595D01*
Y124490D01*
Y124385D01*
Y124280D01*
Y124175D01*
Y124070D01*
Y123965D01*
Y123860D01*
Y123754D01*
X276644D01*
Y123860D01*
Y123965D01*
Y124070D01*
X276539D01*
Y124175D01*
Y124280D01*
X275383D01*
Y124175D01*
Y124070D01*
Y123965D01*
Y123860D01*
Y123754D01*
Y123649D01*
Y123544D01*
Y123439D01*
Y123334D01*
Y123229D01*
Y123124D01*
Y123019D01*
Y122914D01*
Y122809D01*
Y122704D01*
Y122599D01*
Y122493D01*
X277274D01*
Y122599D01*
Y122704D01*
X277379D01*
Y122809D01*
Y122914D01*
Y123019D01*
Y123124D01*
Y123229D01*
X277484D01*
Y123334D01*
X277800D01*
Y123229D01*
X277905D01*
Y123124D01*
Y123019D01*
Y122914D01*
Y122809D01*
Y122704D01*
Y122599D01*
Y122493D01*
Y122388D01*
Y122283D01*
Y122178D01*
X274122D01*
Y122283D01*
Y122388D01*
Y122493D01*
X274647D01*
Y122599D01*
Y122704D01*
Y122809D01*
Y122914D01*
Y123019D01*
Y123124D01*
Y123229D01*
Y123334D01*
Y123439D01*
Y123544D01*
Y123649D01*
Y123754D01*
Y123860D01*
Y123965D01*
Y124070D01*
Y124175D01*
Y124280D01*
Y124385D01*
Y124490D01*
Y124595D01*
Y124700D01*
Y124805D01*
Y124910D01*
Y125015D01*
Y125120D01*
Y125226D01*
Y125331D01*
Y125436D01*
Y125541D01*
Y125646D01*
Y125751D01*
Y125856D01*
Y125961D01*
Y126066D01*
Y126171D01*
X274227D01*
Y126276D01*
X274122D01*
Y126382D01*
Y126487D01*
X277590D01*
Y126382D01*
D02*
G37*
G36*
X308379D02*
Y126276D01*
Y126171D01*
Y126066D01*
Y125961D01*
Y125856D01*
Y125751D01*
Y125646D01*
Y125541D01*
Y125436D01*
X307959D01*
Y125541D01*
Y125646D01*
Y125751D01*
Y125856D01*
X307854D01*
Y125961D01*
Y126066D01*
Y126171D01*
X306698D01*
Y126066D01*
Y125961D01*
Y125856D01*
Y125751D01*
Y125646D01*
Y125541D01*
Y125436D01*
Y125331D01*
Y125226D01*
Y125120D01*
Y125015D01*
Y124910D01*
Y124805D01*
Y124700D01*
Y124595D01*
Y124490D01*
Y124385D01*
Y124280D01*
Y124175D01*
Y124070D01*
Y123965D01*
Y123860D01*
Y123754D01*
Y123649D01*
Y123544D01*
Y123439D01*
Y123334D01*
Y123229D01*
Y123124D01*
Y123019D01*
Y122914D01*
Y122809D01*
Y122704D01*
Y122599D01*
X306803D01*
Y122493D01*
X307328D01*
Y122388D01*
Y122283D01*
Y122178D01*
X305437D01*
Y122283D01*
Y122388D01*
Y122493D01*
X305962D01*
Y122599D01*
Y122704D01*
Y122809D01*
Y122914D01*
Y123019D01*
Y123124D01*
Y123229D01*
Y123334D01*
Y123439D01*
Y123544D01*
Y123649D01*
Y123754D01*
Y123860D01*
Y123965D01*
Y124070D01*
Y124175D01*
Y124280D01*
Y124385D01*
Y124490D01*
Y124595D01*
Y124700D01*
Y124805D01*
Y124910D01*
Y125015D01*
Y125120D01*
Y125226D01*
Y125331D01*
Y125436D01*
Y125541D01*
Y125646D01*
Y125751D01*
Y125856D01*
Y125961D01*
Y126066D01*
Y126171D01*
X304911D01*
Y126066D01*
Y125961D01*
X304806D01*
Y125856D01*
Y125751D01*
Y125646D01*
Y125541D01*
Y125436D01*
X304386D01*
Y125541D01*
X304281D01*
Y125646D01*
Y125751D01*
Y125856D01*
Y125961D01*
Y126066D01*
Y126171D01*
Y126276D01*
Y126382D01*
Y126487D01*
X308379D01*
Y126382D01*
D02*
G37*
G36*
X298186D02*
Y126276D01*
Y126171D01*
Y126066D01*
Y125961D01*
Y125856D01*
Y125751D01*
Y125646D01*
Y125541D01*
Y125436D01*
X297766D01*
Y125541D01*
X297661D01*
Y125646D01*
Y125751D01*
Y125856D01*
Y125961D01*
Y126066D01*
X297556D01*
Y126171D01*
X296505D01*
Y126066D01*
Y125961D01*
Y125856D01*
Y125751D01*
Y125646D01*
Y125541D01*
Y125436D01*
Y125331D01*
Y125226D01*
Y125120D01*
Y125015D01*
Y124910D01*
Y124805D01*
Y124700D01*
Y124595D01*
Y124490D01*
Y124385D01*
Y124280D01*
Y124175D01*
Y124070D01*
Y123965D01*
Y123860D01*
Y123754D01*
Y123649D01*
Y123544D01*
Y123439D01*
Y123334D01*
Y123229D01*
Y123124D01*
Y123019D01*
Y122914D01*
Y122809D01*
Y122704D01*
Y122599D01*
Y122493D01*
X297030D01*
Y122388D01*
Y122283D01*
Y122178D01*
X295139D01*
Y122283D01*
Y122388D01*
Y122493D01*
X295664D01*
Y122599D01*
X295769D01*
Y122704D01*
Y122809D01*
Y122914D01*
Y123019D01*
Y123124D01*
Y123229D01*
Y123334D01*
Y123439D01*
Y123544D01*
Y123649D01*
Y123754D01*
Y123860D01*
Y123965D01*
Y124070D01*
Y124175D01*
Y124280D01*
Y124385D01*
Y124490D01*
Y124595D01*
Y124700D01*
Y124805D01*
Y124910D01*
Y125015D01*
Y125120D01*
Y125226D01*
Y125331D01*
Y125436D01*
Y125541D01*
Y125646D01*
Y125751D01*
Y125856D01*
Y125961D01*
Y126066D01*
Y126171D01*
X294613D01*
Y126066D01*
Y125961D01*
Y125856D01*
Y125751D01*
X294508D01*
Y125646D01*
Y125541D01*
Y125436D01*
X294088D01*
Y125541D01*
Y125646D01*
Y125751D01*
Y125856D01*
Y125961D01*
Y126066D01*
Y126171D01*
Y126276D01*
Y126382D01*
Y126487D01*
X298186D01*
Y126382D01*
D02*
G37*
G36*
X288098Y126487D02*
X288518D01*
Y126382D01*
X288623D01*
Y126276D01*
Y126171D01*
Y126066D01*
Y125961D01*
Y125856D01*
Y125751D01*
Y125646D01*
Y125541D01*
Y125436D01*
Y125331D01*
X288098D01*
Y125436D01*
Y125541D01*
Y125646D01*
Y125751D01*
Y125856D01*
Y125961D01*
X287993D01*
Y126066D01*
X287888D01*
Y126171D01*
X287468D01*
Y126276D01*
X287257D01*
Y126171D01*
X286837D01*
Y126066D01*
X286627D01*
Y125961D01*
X286522D01*
Y125856D01*
Y125751D01*
X286417D01*
Y125646D01*
Y125541D01*
Y125436D01*
Y125331D01*
Y125226D01*
X286522D01*
Y125120D01*
X286627D01*
Y125015D01*
X286732D01*
Y124910D01*
X286942D01*
Y124805D01*
X287152D01*
Y124700D01*
X287468D01*
Y124595D01*
X287783D01*
Y124490D01*
X287993D01*
Y124385D01*
X288203D01*
Y124280D01*
X288413D01*
Y124175D01*
X288518D01*
Y124070D01*
X288623D01*
Y123965D01*
Y123860D01*
X288728D01*
Y123754D01*
Y123649D01*
Y123544D01*
X288834D01*
Y123439D01*
Y123334D01*
X288728D01*
Y123229D01*
Y123124D01*
Y123019D01*
Y122914D01*
X288623D01*
Y122809D01*
Y122704D01*
X288518D01*
Y122599D01*
X288413D01*
Y122493D01*
X288203D01*
Y122388D01*
X288098D01*
Y122283D01*
X287783D01*
Y122178D01*
X287362D01*
Y122073D01*
X286207D01*
Y122178D01*
X285786D01*
Y122283D01*
X285576D01*
Y122388D01*
Y122493D01*
Y122599D01*
Y122704D01*
Y122809D01*
Y122914D01*
Y123019D01*
Y123124D01*
Y123229D01*
Y123334D01*
Y123439D01*
Y123544D01*
X285996D01*
Y123439D01*
X286101D01*
Y123334D01*
Y123229D01*
Y123124D01*
Y123019D01*
Y122914D01*
Y122809D01*
Y122704D01*
X286207D01*
Y122599D01*
X286417D01*
Y122493D01*
X287468D01*
Y122599D01*
X287678D01*
Y122704D01*
X287888D01*
Y122809D01*
Y122914D01*
X287993D01*
Y123019D01*
Y123124D01*
Y123229D01*
Y123334D01*
Y123439D01*
Y123544D01*
X287888D01*
Y123649D01*
X287783D01*
Y123754D01*
X287573D01*
Y123860D01*
X287362D01*
Y123965D01*
X287152D01*
Y124070D01*
X286942D01*
Y124175D01*
X286627D01*
Y124280D01*
X286417D01*
Y124385D01*
X286207D01*
Y124490D01*
X285996D01*
Y124595D01*
X285891D01*
Y124700D01*
X285786D01*
Y124805D01*
Y124910D01*
X285681D01*
Y125015D01*
Y125120D01*
Y125226D01*
Y125331D01*
Y125436D01*
Y125541D01*
Y125646D01*
Y125751D01*
Y125856D01*
X285786D01*
Y125961D01*
X285891D01*
Y126066D01*
Y126171D01*
X285996D01*
Y126276D01*
X286207D01*
Y126382D01*
X286417D01*
Y126487D01*
X286732D01*
Y126592D01*
X288098D01*
Y126487D01*
D02*
G37*
G36*
X315210Y124175D02*
Y124070D01*
Y123965D01*
Y123860D01*
X314895D01*
Y123965D01*
Y124070D01*
X314789D01*
Y124175D01*
X314159D01*
Y124070D01*
Y123965D01*
Y123860D01*
Y123754D01*
Y123649D01*
Y123544D01*
Y123439D01*
Y123334D01*
X314579D01*
Y123439D01*
Y123544D01*
Y123649D01*
X314895D01*
Y123544D01*
Y123439D01*
Y123334D01*
Y123229D01*
Y123124D01*
Y123019D01*
Y122914D01*
X314579D01*
Y123019D01*
Y123124D01*
Y123229D01*
X314159D01*
Y123124D01*
Y123019D01*
Y122914D01*
Y122809D01*
Y122704D01*
Y122599D01*
Y122493D01*
Y122388D01*
X315000D01*
Y122493D01*
Y122599D01*
Y122704D01*
X315315D01*
Y122599D01*
Y122493D01*
Y122388D01*
Y122283D01*
Y122178D01*
X313318D01*
Y122283D01*
X313423D01*
Y122388D01*
X313528D01*
Y122493D01*
X313633D01*
Y122599D01*
Y122704D01*
Y122809D01*
Y122914D01*
Y123019D01*
Y123124D01*
Y123229D01*
Y123334D01*
Y123439D01*
Y123544D01*
Y123649D01*
Y123754D01*
Y123860D01*
Y123965D01*
Y124070D01*
X313528D01*
Y124175D01*
X313318D01*
Y124280D01*
X315210D01*
Y124175D01*
D02*
G37*
G36*
X263193Y126382D02*
Y126276D01*
X263088D01*
Y126171D01*
X262668D01*
Y126066D01*
Y125961D01*
Y125856D01*
Y125751D01*
Y125646D01*
Y125541D01*
Y125436D01*
Y125331D01*
Y125226D01*
Y125120D01*
Y125015D01*
Y124910D01*
Y124805D01*
Y124700D01*
Y124595D01*
Y124490D01*
Y124385D01*
Y124280D01*
Y124175D01*
Y124070D01*
Y123965D01*
Y123860D01*
Y123754D01*
Y123649D01*
Y123544D01*
Y123439D01*
Y123334D01*
Y123229D01*
Y123124D01*
Y123019D01*
Y122914D01*
Y122809D01*
Y122704D01*
Y122599D01*
Y122493D01*
X262773D01*
Y122388D01*
X262878D01*
Y122283D01*
Y122178D01*
X262142D01*
Y122283D01*
X262037D01*
Y122388D01*
X261932D01*
Y122493D01*
X261827D01*
Y122599D01*
Y122704D01*
X261722D01*
Y122809D01*
X261617D01*
Y122914D01*
X261512D01*
Y123019D01*
Y123124D01*
X261407D01*
Y123229D01*
X261301D01*
Y123334D01*
X261196D01*
Y123439D01*
Y123544D01*
X261091D01*
Y123649D01*
X260986D01*
Y123754D01*
X260881D01*
Y123860D01*
Y123965D01*
X260776D01*
Y124070D01*
X260671D01*
Y124175D01*
Y124280D01*
X260566D01*
Y124385D01*
X260461D01*
Y124490D01*
X260356D01*
Y124595D01*
Y124700D01*
X260251D01*
Y124805D01*
X260146D01*
Y124910D01*
X260040D01*
Y125015D01*
Y125120D01*
X259935D01*
Y125226D01*
X259830D01*
Y125331D01*
X259725D01*
Y125436D01*
Y125541D01*
X259515D01*
Y125436D01*
Y125331D01*
Y125226D01*
Y125120D01*
Y125015D01*
Y124910D01*
Y124805D01*
Y124700D01*
Y124595D01*
Y124490D01*
Y124385D01*
Y124280D01*
Y124175D01*
Y124070D01*
Y123965D01*
Y123860D01*
Y123754D01*
Y123649D01*
Y123544D01*
Y123439D01*
Y123334D01*
Y123229D01*
Y123124D01*
Y123019D01*
Y122914D01*
Y122809D01*
Y122704D01*
Y122599D01*
X259620D01*
Y122493D01*
X260040D01*
Y122388D01*
X260146D01*
Y122283D01*
Y122178D01*
X258569D01*
Y122283D01*
Y122388D01*
Y122493D01*
X258990D01*
Y122599D01*
X259095D01*
Y122704D01*
Y122809D01*
Y122914D01*
Y123019D01*
Y123124D01*
Y123229D01*
Y123334D01*
Y123439D01*
Y123544D01*
Y123649D01*
Y123754D01*
Y123860D01*
Y123965D01*
Y124070D01*
Y124175D01*
Y124280D01*
Y124385D01*
Y124490D01*
Y124595D01*
Y124700D01*
Y124805D01*
Y124910D01*
Y125015D01*
Y125120D01*
Y125226D01*
Y125331D01*
Y125436D01*
Y125541D01*
Y125646D01*
Y125751D01*
Y125856D01*
Y125961D01*
Y126066D01*
Y126171D01*
X258674D01*
Y126276D01*
X258569D01*
Y126382D01*
Y126487D01*
X259935D01*
Y126382D01*
Y126276D01*
X260040D01*
Y126171D01*
Y126066D01*
X260146D01*
Y125961D01*
X260251D01*
Y125856D01*
X260356D01*
Y125751D01*
Y125646D01*
X260461D01*
Y125541D01*
X260566D01*
Y125436D01*
Y125331D01*
X260671D01*
Y125226D01*
X260776D01*
Y125120D01*
X260881D01*
Y125015D01*
Y124910D01*
X260986D01*
Y124805D01*
X261091D01*
Y124700D01*
X261196D01*
Y124595D01*
Y124490D01*
X261301D01*
Y124385D01*
X261407D01*
Y124280D01*
X261512D01*
Y124175D01*
Y124070D01*
X261617D01*
Y123965D01*
X261722D01*
Y123860D01*
Y123754D01*
X261827D01*
Y123649D01*
X261932D01*
Y123544D01*
X262037D01*
Y123439D01*
Y123334D01*
X262247D01*
Y123439D01*
Y123544D01*
Y123649D01*
Y123754D01*
Y123860D01*
Y123965D01*
Y124070D01*
Y124175D01*
Y124280D01*
Y124385D01*
Y124490D01*
Y124595D01*
Y124700D01*
Y124805D01*
Y124910D01*
Y125015D01*
Y125120D01*
Y125226D01*
Y125331D01*
Y125436D01*
Y125541D01*
Y125646D01*
Y125751D01*
Y125856D01*
Y125961D01*
Y126066D01*
X262142D01*
Y126171D01*
X261722D01*
Y126276D01*
X261617D01*
Y126382D01*
Y126487D01*
X263193D01*
Y126382D01*
D02*
G37*
G36*
X272861D02*
Y126276D01*
X272756D01*
Y126171D01*
X272441D01*
Y126066D01*
X272335D01*
Y125961D01*
Y125856D01*
X272230D01*
Y125751D01*
Y125646D01*
Y125541D01*
X272125D01*
Y125436D01*
Y125331D01*
X272020D01*
Y125226D01*
Y125120D01*
Y125015D01*
X271915D01*
Y124910D01*
Y124805D01*
X271810D01*
Y124700D01*
Y124595D01*
Y124490D01*
X271705D01*
Y124385D01*
Y124280D01*
X271600D01*
Y124175D01*
Y124070D01*
Y123965D01*
X271495D01*
Y123860D01*
Y123754D01*
X271390D01*
Y123649D01*
Y123544D01*
X271285D01*
Y123439D01*
Y123334D01*
Y123229D01*
X271180D01*
Y123124D01*
Y123019D01*
X271074D01*
Y122914D01*
Y122809D01*
Y122704D01*
X270969D01*
Y122599D01*
Y122493D01*
X270864D01*
Y122388D01*
Y122283D01*
Y122178D01*
X270129D01*
Y122283D01*
Y122388D01*
X270023D01*
Y122493D01*
Y122599D01*
Y122704D01*
X269918D01*
Y122809D01*
Y122914D01*
X269813D01*
Y123019D01*
Y123124D01*
Y123229D01*
X269708D01*
Y123334D01*
Y123439D01*
X269603D01*
Y123544D01*
Y123649D01*
X269498D01*
Y123754D01*
Y123860D01*
Y123965D01*
X269393D01*
Y124070D01*
Y124175D01*
X269288D01*
Y124280D01*
Y124385D01*
Y124490D01*
X269183D01*
Y124595D01*
Y124700D01*
X269078D01*
Y124805D01*
Y124910D01*
Y125015D01*
X268973D01*
Y125120D01*
Y125226D01*
X268868D01*
Y125331D01*
Y125436D01*
X268762D01*
Y125541D01*
Y125646D01*
Y125751D01*
X268657D01*
Y125856D01*
Y125961D01*
X268552D01*
Y126066D01*
Y126171D01*
X268132D01*
Y126276D01*
X268027D01*
Y126382D01*
Y126487D01*
X269813D01*
Y126382D01*
Y126276D01*
X269708D01*
Y126171D01*
X269393D01*
Y126066D01*
Y125961D01*
Y125856D01*
X269498D01*
Y125751D01*
Y125646D01*
X269603D01*
Y125541D01*
Y125436D01*
Y125331D01*
X269708D01*
Y125226D01*
Y125120D01*
X269813D01*
Y125015D01*
Y124910D01*
X269918D01*
Y124805D01*
Y124700D01*
Y124595D01*
X270023D01*
Y124490D01*
Y124385D01*
X270129D01*
Y124280D01*
Y124175D01*
X270234D01*
Y124070D01*
Y123965D01*
Y123860D01*
X270339D01*
Y123754D01*
Y123649D01*
X270444D01*
Y123544D01*
Y123439D01*
Y123334D01*
X270549D01*
Y123229D01*
Y123124D01*
X270654D01*
Y123019D01*
X270759D01*
Y123124D01*
Y123229D01*
X270864D01*
Y123334D01*
Y123439D01*
X270969D01*
Y123544D01*
Y123649D01*
Y123754D01*
X271074D01*
Y123860D01*
Y123965D01*
X271180D01*
Y124070D01*
Y124175D01*
Y124280D01*
X271285D01*
Y124385D01*
Y124490D01*
X271390D01*
Y124595D01*
Y124700D01*
Y124805D01*
X271495D01*
Y124910D01*
Y125015D01*
X271600D01*
Y125120D01*
Y125226D01*
Y125331D01*
X271705D01*
Y125436D01*
Y125541D01*
X271810D01*
Y125646D01*
Y125751D01*
Y125856D01*
X271915D01*
Y125961D01*
Y126066D01*
Y126171D01*
X271600D01*
Y126276D01*
X271495D01*
Y126382D01*
Y126487D01*
X272861D01*
Y126382D01*
D02*
G37*
G36*
X311532Y124175D02*
X311847D01*
Y124070D01*
X311952D01*
Y123965D01*
X312057D01*
Y123860D01*
X312162D01*
Y123754D01*
X312267D01*
Y123649D01*
Y123544D01*
Y123439D01*
Y123334D01*
Y123229D01*
Y123124D01*
Y123019D01*
Y122914D01*
Y122809D01*
X312162D01*
Y122704D01*
Y122599D01*
X312057D01*
Y122493D01*
X311952D01*
Y122388D01*
X311742D01*
Y122283D01*
X311532D01*
Y122178D01*
X309851D01*
Y122283D01*
X309956D01*
Y122388D01*
X310166D01*
Y122493D01*
Y122599D01*
Y122704D01*
Y122809D01*
Y122914D01*
Y123019D01*
Y123124D01*
Y123229D01*
Y123334D01*
Y123439D01*
Y123544D01*
Y123649D01*
Y123754D01*
Y123860D01*
Y123965D01*
Y124070D01*
X310061D01*
Y124175D01*
X309851D01*
Y124280D01*
X311532D01*
Y124175D01*
D02*
G37*
G36*
X301654Y126487D02*
Y126382D01*
Y126276D01*
X301759D01*
Y126171D01*
Y126066D01*
X301864D01*
Y125961D01*
Y125856D01*
Y125751D01*
X301969D01*
Y125646D01*
Y125541D01*
X302074D01*
Y125436D01*
Y125331D01*
X302179D01*
Y125226D01*
Y125120D01*
Y125015D01*
X302284D01*
Y124910D01*
Y124805D01*
X302390D01*
Y124700D01*
Y124595D01*
X302495D01*
Y124490D01*
Y124385D01*
Y124280D01*
X302600D01*
Y124175D01*
Y124070D01*
X302705D01*
Y123965D01*
Y123860D01*
Y123754D01*
X302810D01*
Y123649D01*
Y123544D01*
X302915D01*
Y123439D01*
Y123334D01*
X303020D01*
Y123229D01*
Y123124D01*
Y123019D01*
X303125D01*
Y122914D01*
Y122809D01*
X303230D01*
Y122704D01*
Y122599D01*
X303335D01*
Y122493D01*
X303650D01*
Y122388D01*
X303756D01*
Y122283D01*
Y122178D01*
X301969D01*
Y122283D01*
Y122388D01*
Y122493D01*
X302495D01*
Y122599D01*
Y122704D01*
X302390D01*
Y122809D01*
Y122914D01*
X302284D01*
Y123019D01*
Y123124D01*
Y123229D01*
X302179D01*
Y123334D01*
Y123439D01*
X302074D01*
Y123544D01*
Y123649D01*
X301969D01*
Y123754D01*
Y123860D01*
X300288D01*
Y123754D01*
Y123649D01*
X300183D01*
Y123544D01*
Y123439D01*
X300078D01*
Y123334D01*
Y123229D01*
Y123124D01*
X299973D01*
Y123019D01*
Y122914D01*
X299868D01*
Y122809D01*
Y122704D01*
Y122599D01*
X299762D01*
Y122493D01*
X300288D01*
Y122388D01*
Y122283D01*
Y122178D01*
X298922D01*
Y122283D01*
Y122388D01*
Y122493D01*
X299342D01*
Y122599D01*
X299447D01*
Y122704D01*
Y122809D01*
Y122914D01*
X299552D01*
Y123019D01*
Y123124D01*
X299657D01*
Y123229D01*
Y123334D01*
Y123439D01*
X299762D01*
Y123544D01*
Y123649D01*
X299868D01*
Y123754D01*
Y123860D01*
Y123965D01*
X299973D01*
Y124070D01*
Y124175D01*
X300078D01*
Y124280D01*
Y124385D01*
X300183D01*
Y124490D01*
Y124595D01*
Y124700D01*
X300288D01*
Y124805D01*
Y124910D01*
X300393D01*
Y125015D01*
Y125120D01*
Y125226D01*
X300498D01*
Y125331D01*
Y125436D01*
X300603D01*
Y125541D01*
Y125646D01*
Y125751D01*
X300708D01*
Y125856D01*
Y125961D01*
X300813D01*
Y126066D01*
Y126171D01*
X300918D01*
Y126276D01*
Y126382D01*
Y126487D01*
X301023D01*
Y126592D01*
X301654D01*
Y126487D01*
D02*
G37*
G36*
X292512Y126382D02*
Y126276D01*
X292407D01*
Y126171D01*
X291986D01*
Y126066D01*
Y125961D01*
Y125856D01*
Y125751D01*
Y125646D01*
Y125541D01*
Y125436D01*
Y125331D01*
Y125226D01*
Y125120D01*
Y125015D01*
Y124910D01*
Y124805D01*
Y124700D01*
Y124595D01*
Y124490D01*
Y124385D01*
Y124280D01*
Y124175D01*
Y124070D01*
Y123965D01*
Y123860D01*
Y123754D01*
Y123649D01*
Y123544D01*
Y123439D01*
Y123334D01*
Y123229D01*
Y123124D01*
Y123019D01*
Y122914D01*
Y122809D01*
Y122704D01*
Y122599D01*
Y122493D01*
X292512D01*
Y122388D01*
Y122283D01*
Y122178D01*
X290620D01*
Y122283D01*
Y122388D01*
X290725D01*
Y122493D01*
X291251D01*
Y122599D01*
Y122704D01*
Y122809D01*
Y122914D01*
Y123019D01*
Y123124D01*
Y123229D01*
Y123334D01*
Y123439D01*
Y123544D01*
Y123649D01*
Y123754D01*
Y123860D01*
Y123965D01*
Y124070D01*
Y124175D01*
Y124280D01*
Y124385D01*
Y124490D01*
Y124595D01*
Y124700D01*
Y124805D01*
Y124910D01*
Y125015D01*
Y125120D01*
Y125226D01*
Y125331D01*
Y125436D01*
Y125541D01*
Y125646D01*
Y125751D01*
Y125856D01*
Y125961D01*
Y126066D01*
Y126171D01*
X290830D01*
Y126276D01*
X290620D01*
Y126382D01*
Y126487D01*
X292512D01*
Y126382D01*
D02*
G37*
G36*
X266871D02*
Y126276D01*
X266661D01*
Y126171D01*
X266241D01*
Y126066D01*
Y125961D01*
Y125856D01*
Y125751D01*
Y125646D01*
Y125541D01*
Y125436D01*
Y125331D01*
Y125226D01*
Y125120D01*
Y125015D01*
Y124910D01*
Y124805D01*
Y124700D01*
Y124595D01*
Y124490D01*
Y124385D01*
Y124280D01*
Y124175D01*
Y124070D01*
Y123965D01*
Y123860D01*
Y123754D01*
Y123649D01*
Y123544D01*
Y123439D01*
Y123334D01*
Y123229D01*
Y123124D01*
Y123019D01*
Y122914D01*
Y122809D01*
Y122704D01*
Y122599D01*
X266346D01*
Y122493D01*
X266766D01*
Y122388D01*
X266871D01*
Y122283D01*
Y122178D01*
X264980D01*
Y122283D01*
Y122388D01*
Y122493D01*
X265505D01*
Y122599D01*
Y122704D01*
Y122809D01*
Y122914D01*
Y123019D01*
Y123124D01*
Y123229D01*
Y123334D01*
Y123439D01*
Y123544D01*
Y123649D01*
Y123754D01*
Y123860D01*
Y123965D01*
Y124070D01*
Y124175D01*
Y124280D01*
Y124385D01*
Y124490D01*
Y124595D01*
Y124700D01*
Y124805D01*
Y124910D01*
Y125015D01*
Y125120D01*
Y125226D01*
Y125331D01*
Y125436D01*
Y125541D01*
Y125646D01*
Y125751D01*
Y125856D01*
Y125961D01*
Y126066D01*
Y126171D01*
X265085D01*
Y126276D01*
X264980D01*
Y126382D01*
Y126487D01*
X266871D01*
Y126382D01*
D02*
G37*
G36*
X282318D02*
X282634D01*
Y126276D01*
X282844D01*
Y126171D01*
X282949D01*
Y126066D01*
X283054D01*
Y125961D01*
X283159D01*
Y125856D01*
Y125751D01*
Y125646D01*
X283264D01*
Y125541D01*
Y125436D01*
Y125331D01*
Y125226D01*
Y125120D01*
X283159D01*
Y125015D01*
Y124910D01*
Y124805D01*
X283054D01*
Y124700D01*
X282949D01*
Y124595D01*
X282844D01*
Y124490D01*
X282634D01*
Y124385D01*
X282318D01*
Y124280D01*
Y124175D01*
X282529D01*
Y124070D01*
X282634D01*
Y123965D01*
X282739D01*
Y123860D01*
X282844D01*
Y123754D01*
Y123649D01*
X282949D01*
Y123544D01*
Y123439D01*
Y123334D01*
X283054D01*
Y123229D01*
Y123124D01*
Y123019D01*
X283159D01*
Y122914D01*
Y122809D01*
X283264D01*
Y122704D01*
Y122599D01*
X283474D01*
Y122493D01*
X284105D01*
Y122388D01*
Y122283D01*
Y122178D01*
X283790D01*
Y122073D01*
X283159D01*
Y122178D01*
X282844D01*
Y122283D01*
X282739D01*
Y122388D01*
X282634D01*
Y122493D01*
X282529D01*
Y122599D01*
Y122704D01*
X282423D01*
Y122809D01*
Y122914D01*
X282318D01*
Y123019D01*
Y123124D01*
Y123229D01*
X282213D01*
Y123334D01*
Y123439D01*
Y123544D01*
X282108D01*
Y123649D01*
Y123754D01*
X282003D01*
Y123860D01*
X281898D01*
Y123965D01*
X281793D01*
Y124070D01*
X280847D01*
Y123965D01*
Y123860D01*
Y123754D01*
Y123649D01*
Y123544D01*
Y123439D01*
Y123334D01*
Y123229D01*
Y123124D01*
Y123019D01*
Y122914D01*
Y122809D01*
Y122704D01*
Y122599D01*
X280952D01*
Y122493D01*
X281373D01*
Y122388D01*
Y122283D01*
Y122178D01*
X279586D01*
Y122283D01*
Y122388D01*
Y122493D01*
X280112D01*
Y122599D01*
Y122704D01*
Y122809D01*
Y122914D01*
Y123019D01*
Y123124D01*
Y123229D01*
Y123334D01*
Y123439D01*
Y123544D01*
Y123649D01*
Y123754D01*
Y123860D01*
Y123965D01*
Y124070D01*
Y124175D01*
Y124280D01*
Y124385D01*
Y124490D01*
Y124595D01*
Y124700D01*
Y124805D01*
Y124910D01*
Y125015D01*
Y125120D01*
Y125226D01*
Y125331D01*
Y125436D01*
Y125541D01*
Y125646D01*
Y125751D01*
Y125856D01*
Y125961D01*
Y126066D01*
Y126171D01*
X279796D01*
Y126276D01*
X279586D01*
Y126382D01*
Y126487D01*
X282318D01*
Y126382D01*
D02*
G37*
G36*
X256888Y127537D02*
Y127432D01*
Y127327D01*
Y127222D01*
X256468D01*
Y127117D01*
X256363D01*
Y127012D01*
Y126907D01*
Y126802D01*
Y126697D01*
Y126592D01*
Y126487D01*
Y126382D01*
Y126276D01*
Y126171D01*
Y126066D01*
Y125961D01*
Y125856D01*
Y125751D01*
Y125646D01*
Y125541D01*
Y125436D01*
Y125331D01*
Y125226D01*
Y125120D01*
Y125015D01*
Y124910D01*
Y124805D01*
Y124700D01*
Y124595D01*
Y124490D01*
Y124385D01*
Y124280D01*
Y124175D01*
Y124070D01*
Y123965D01*
Y123860D01*
Y123754D01*
Y123649D01*
Y123544D01*
Y123439D01*
Y123334D01*
Y123229D01*
X256258D01*
Y123124D01*
Y123019D01*
Y122914D01*
Y122809D01*
Y122704D01*
Y122599D01*
Y122493D01*
Y122388D01*
X256152D01*
Y122283D01*
Y122178D01*
X256047D01*
Y122073D01*
Y121968D01*
X255942D01*
Y121863D01*
Y121758D01*
X255837D01*
Y121653D01*
X255627D01*
Y121548D01*
X255522D01*
Y121443D01*
X255312D01*
Y121337D01*
X255102D01*
Y121232D01*
X254681D01*
Y121127D01*
X253105D01*
Y121232D01*
X252790D01*
Y121337D01*
X252474D01*
Y121443D01*
X252264D01*
Y121548D01*
X252159D01*
Y121653D01*
X252054D01*
Y121758D01*
X251949D01*
Y121863D01*
X251844D01*
Y121968D01*
X251739D01*
Y122073D01*
Y122178D01*
Y122283D01*
X251634D01*
Y122388D01*
Y122493D01*
Y122599D01*
X251529D01*
Y122704D01*
Y122809D01*
Y122914D01*
Y123019D01*
Y123124D01*
Y123229D01*
Y123334D01*
Y123439D01*
Y123544D01*
Y123649D01*
Y123754D01*
Y123860D01*
Y123965D01*
Y124070D01*
Y124175D01*
Y124280D01*
Y124385D01*
Y124490D01*
Y124595D01*
Y124700D01*
Y124805D01*
Y124910D01*
Y125015D01*
Y125120D01*
Y125226D01*
Y125331D01*
Y125436D01*
Y125541D01*
Y125646D01*
Y125751D01*
Y125856D01*
Y125961D01*
Y126066D01*
Y126171D01*
Y126276D01*
Y126382D01*
Y126487D01*
Y126592D01*
Y126697D01*
Y126802D01*
Y126907D01*
Y127012D01*
Y127117D01*
X251424D01*
Y127222D01*
X251003D01*
Y127327D01*
Y127432D01*
X250898D01*
Y127537D01*
X251003D01*
Y127643D01*
X253105D01*
Y127537D01*
Y127432D01*
Y127327D01*
Y127222D01*
X252474D01*
Y127117D01*
X252369D01*
Y127012D01*
Y126907D01*
Y126802D01*
Y126697D01*
Y126592D01*
Y126487D01*
Y126382D01*
Y126276D01*
Y126171D01*
Y126066D01*
Y125961D01*
Y125856D01*
Y125751D01*
Y125646D01*
Y125541D01*
Y125436D01*
Y125331D01*
Y125226D01*
Y125120D01*
Y125015D01*
Y124910D01*
Y124805D01*
Y124700D01*
Y124595D01*
Y124490D01*
Y124385D01*
Y124280D01*
Y124175D01*
Y124070D01*
Y123965D01*
Y123860D01*
Y123754D01*
Y123649D01*
Y123544D01*
Y123439D01*
Y123334D01*
Y123229D01*
Y123124D01*
Y123019D01*
Y122914D01*
X252474D01*
Y122809D01*
Y122704D01*
Y122599D01*
X252580D01*
Y122493D01*
Y122388D01*
Y122283D01*
X252685D01*
Y122178D01*
X252790D01*
Y122073D01*
X252895D01*
Y121968D01*
X253000D01*
Y121863D01*
X253210D01*
Y121758D01*
X253630D01*
Y121653D01*
X254576D01*
Y121758D01*
X254996D01*
Y121863D01*
X255207D01*
Y121968D01*
X255312D01*
Y122073D01*
X255417D01*
Y122178D01*
X255522D01*
Y122283D01*
Y122388D01*
X255627D01*
Y122493D01*
Y122599D01*
X255732D01*
Y122704D01*
Y122809D01*
Y122914D01*
Y123019D01*
X255837D01*
Y123124D01*
Y123229D01*
Y123334D01*
Y123439D01*
Y123544D01*
Y123649D01*
Y123754D01*
Y123860D01*
Y123965D01*
Y124070D01*
Y124175D01*
Y124280D01*
Y124385D01*
Y124490D01*
Y124595D01*
Y124700D01*
Y124805D01*
Y124910D01*
Y125015D01*
Y125120D01*
Y125226D01*
Y125331D01*
Y125436D01*
Y125541D01*
Y125646D01*
Y125751D01*
Y125856D01*
Y125961D01*
Y126066D01*
Y126171D01*
Y126276D01*
Y126382D01*
Y126487D01*
Y126592D01*
Y126697D01*
Y126802D01*
Y126907D01*
Y127012D01*
X255732D01*
Y127117D01*
X255627D01*
Y127222D01*
X255102D01*
Y127327D01*
Y127432D01*
Y127537D01*
Y127643D01*
X256888D01*
Y127537D01*
D02*
G37*
G36*
X284735Y118710D02*
Y118605D01*
Y118500D01*
Y118395D01*
Y118290D01*
Y118185D01*
Y118080D01*
Y117975D01*
Y117870D01*
Y117765D01*
Y117659D01*
Y117554D01*
Y117449D01*
X284210D01*
Y117554D01*
Y117659D01*
X284105D01*
Y117765D01*
Y117870D01*
Y117975D01*
Y118080D01*
Y118185D01*
Y118290D01*
X284000D01*
Y118395D01*
X281688D01*
Y118290D01*
X281583D01*
Y118185D01*
Y118080D01*
Y117975D01*
Y117870D01*
Y117765D01*
Y117659D01*
Y117554D01*
Y117449D01*
Y117344D01*
Y117239D01*
Y117134D01*
Y117029D01*
Y116924D01*
Y116819D01*
Y116714D01*
Y116609D01*
Y116504D01*
Y116399D01*
Y116293D01*
Y116188D01*
Y116083D01*
Y115978D01*
X281688D01*
Y115873D01*
X283264D01*
Y115978D01*
X283369D01*
Y116083D01*
X283474D01*
Y116188D01*
Y116293D01*
Y116399D01*
Y116504D01*
Y116609D01*
Y116714D01*
X283895D01*
Y116609D01*
Y116504D01*
Y116399D01*
Y116293D01*
Y116188D01*
Y116083D01*
Y115978D01*
Y115873D01*
Y115768D01*
Y115663D01*
Y115558D01*
Y115453D01*
Y115348D01*
Y115243D01*
Y115138D01*
Y115032D01*
Y114927D01*
Y114822D01*
Y114717D01*
Y114612D01*
X283474D01*
Y114717D01*
Y114822D01*
Y114927D01*
Y115032D01*
Y115138D01*
Y115243D01*
X283369D01*
Y115348D01*
Y115453D01*
X281688D01*
Y115348D01*
X281583D01*
Y115243D01*
Y115138D01*
Y115032D01*
Y114927D01*
Y114822D01*
Y114717D01*
Y114612D01*
Y114507D01*
Y114402D01*
Y114297D01*
Y114192D01*
Y114087D01*
Y113982D01*
Y113876D01*
Y113771D01*
Y113666D01*
Y113561D01*
Y113456D01*
Y113351D01*
Y113246D01*
Y113141D01*
Y113036D01*
Y112931D01*
Y112826D01*
Y112721D01*
X284315D01*
Y112826D01*
X284420D01*
Y112931D01*
Y113036D01*
Y113141D01*
X284525D01*
Y113246D01*
Y113351D01*
Y113456D01*
Y113561D01*
Y113666D01*
Y113771D01*
X284630D01*
Y113876D01*
X285051D01*
Y113771D01*
Y113666D01*
Y113561D01*
Y113456D01*
Y113351D01*
Y113246D01*
Y113141D01*
Y113036D01*
Y112931D01*
Y112826D01*
Y112721D01*
Y112616D01*
Y112510D01*
Y112405D01*
Y112300D01*
X280007D01*
Y112405D01*
Y112510D01*
Y112616D01*
X280427D01*
Y112721D01*
X280742D01*
Y112826D01*
Y112931D01*
Y113036D01*
Y113141D01*
Y113246D01*
Y113351D01*
Y113456D01*
Y113561D01*
Y113666D01*
Y113771D01*
Y113876D01*
Y113982D01*
Y114087D01*
Y114192D01*
Y114297D01*
Y114402D01*
Y114507D01*
Y114612D01*
Y114717D01*
Y114822D01*
Y114927D01*
Y115032D01*
Y115138D01*
Y115243D01*
Y115348D01*
Y115453D01*
Y115558D01*
Y115663D01*
Y115768D01*
Y115873D01*
Y115978D01*
Y116083D01*
Y116188D01*
Y116293D01*
Y116399D01*
Y116504D01*
Y116609D01*
Y116714D01*
Y116819D01*
Y116924D01*
Y117029D01*
Y117134D01*
Y117239D01*
Y117344D01*
Y117449D01*
Y117554D01*
Y117659D01*
Y117765D01*
Y117870D01*
Y117975D01*
Y118080D01*
Y118185D01*
Y118290D01*
X280637D01*
Y118395D01*
X280112D01*
Y118500D01*
X280007D01*
Y118605D01*
Y118710D01*
Y118816D01*
X284735D01*
Y118710D01*
D02*
G37*
G36*
X276854Y118816D02*
X277379D01*
Y118710D01*
X277695D01*
Y118605D01*
X277905D01*
Y118500D01*
Y118395D01*
Y118290D01*
Y118185D01*
Y118080D01*
Y117975D01*
Y117870D01*
Y117765D01*
Y117659D01*
Y117554D01*
Y117449D01*
Y117344D01*
Y117239D01*
Y117134D01*
X277379D01*
Y117239D01*
Y117344D01*
Y117449D01*
X277274D01*
Y117554D01*
Y117659D01*
Y117765D01*
Y117870D01*
Y117975D01*
X277169D01*
Y118080D01*
Y118185D01*
X276959D01*
Y118290D01*
X276749D01*
Y118395D01*
X275278D01*
Y118290D01*
X274962D01*
Y118185D01*
X274752D01*
Y118080D01*
X274542D01*
Y117975D01*
X274437D01*
Y117870D01*
X274332D01*
Y117765D01*
X274227D01*
Y117659D01*
X274122D01*
Y117554D01*
Y117449D01*
X274017D01*
Y117344D01*
X273912D01*
Y117239D01*
Y117134D01*
X273807D01*
Y117029D01*
Y116924D01*
Y116819D01*
X273702D01*
Y116714D01*
Y116609D01*
Y116504D01*
X273596D01*
Y116399D01*
Y116293D01*
Y116188D01*
Y116083D01*
Y115978D01*
Y115873D01*
Y115768D01*
Y115663D01*
Y115558D01*
Y115453D01*
Y115348D01*
Y115243D01*
Y115138D01*
Y115032D01*
Y114927D01*
Y114822D01*
Y114717D01*
X273702D01*
Y114612D01*
Y114507D01*
Y114402D01*
Y114297D01*
X273807D01*
Y114192D01*
Y114087D01*
X273912D01*
Y113982D01*
Y113876D01*
X274017D01*
Y113771D01*
Y113666D01*
X274122D01*
Y113561D01*
X274227D01*
Y113456D01*
Y113351D01*
X274332D01*
Y113246D01*
X274437D01*
Y113141D01*
X274647D01*
Y113036D01*
X274752D01*
Y112931D01*
X274962D01*
Y112826D01*
X275278D01*
Y112721D01*
X275698D01*
Y112616D01*
X276539D01*
Y112721D01*
X276959D01*
Y112826D01*
X277064D01*
Y112931D01*
X277169D01*
Y113036D01*
Y113141D01*
Y113246D01*
X277274D01*
Y113351D01*
Y113456D01*
Y113561D01*
Y113666D01*
X277379D01*
Y113771D01*
Y113876D01*
Y113982D01*
X277905D01*
Y113876D01*
Y113771D01*
Y113666D01*
Y113561D01*
Y113456D01*
Y113351D01*
Y113246D01*
Y113141D01*
Y113036D01*
Y112931D01*
Y112826D01*
Y112721D01*
Y112616D01*
Y112510D01*
X277800D01*
Y112405D01*
X277484D01*
Y112300D01*
X276959D01*
Y112195D01*
X275068D01*
Y112300D01*
X274647D01*
Y112405D01*
X274437D01*
Y112510D01*
X274227D01*
Y112616D01*
X274017D01*
Y112721D01*
X273912D01*
Y112826D01*
X273807D01*
Y112931D01*
X273702D01*
Y113036D01*
X273596D01*
Y113141D01*
X273491D01*
Y113246D01*
X273386D01*
Y113351D01*
X273281D01*
Y113456D01*
X273176D01*
Y113561D01*
Y113666D01*
X273071D01*
Y113771D01*
X272966D01*
Y113876D01*
Y113982D01*
X272861D01*
Y114087D01*
Y114192D01*
Y114297D01*
X272756D01*
Y114402D01*
Y114507D01*
Y114612D01*
X272651D01*
Y114717D01*
Y114822D01*
Y114927D01*
Y115032D01*
Y115138D01*
Y115243D01*
X272546D01*
Y115348D01*
Y115453D01*
Y115558D01*
Y115663D01*
Y115768D01*
Y115873D01*
Y115978D01*
X272651D01*
Y116083D01*
Y116188D01*
Y116293D01*
Y116399D01*
Y116504D01*
Y116609D01*
X272756D01*
Y116714D01*
Y116819D01*
Y116924D01*
X272861D01*
Y117029D01*
Y117134D01*
X272966D01*
Y117239D01*
Y117344D01*
X273071D01*
Y117449D01*
Y117554D01*
X273176D01*
Y117659D01*
X273281D01*
Y117765D01*
X273386D01*
Y117870D01*
Y117975D01*
X273491D01*
Y118080D01*
X273596D01*
Y118185D01*
X273807D01*
Y118290D01*
X273912D01*
Y118395D01*
X274122D01*
Y118500D01*
X274227D01*
Y118605D01*
X274542D01*
Y118710D01*
X274752D01*
Y118816D01*
X275173D01*
Y118921D01*
X276854D01*
Y118816D01*
D02*
G37*
G36*
X307854Y118710D02*
Y118605D01*
Y118500D01*
X307749D01*
Y118395D01*
X307223D01*
Y118290D01*
X307118D01*
Y118185D01*
X307013D01*
Y118080D01*
Y117975D01*
Y117870D01*
Y117765D01*
Y117659D01*
Y117554D01*
Y117449D01*
Y117344D01*
Y117239D01*
Y117134D01*
Y117029D01*
Y116924D01*
Y116819D01*
Y116714D01*
Y116609D01*
Y116504D01*
Y116399D01*
Y116293D01*
Y116188D01*
Y116083D01*
Y115978D01*
Y115873D01*
Y115768D01*
Y115663D01*
Y115558D01*
Y115453D01*
Y115348D01*
Y115243D01*
Y115138D01*
Y115032D01*
Y114927D01*
Y114822D01*
Y114717D01*
Y114612D01*
Y114507D01*
Y114402D01*
Y114297D01*
Y114192D01*
Y114087D01*
Y113982D01*
Y113876D01*
Y113771D01*
Y113666D01*
Y113561D01*
Y113456D01*
Y113351D01*
Y113246D01*
Y113141D01*
Y113036D01*
Y112931D01*
Y112826D01*
Y112721D01*
Y112616D01*
Y112510D01*
Y112405D01*
Y112300D01*
X306383D01*
Y112405D01*
X306278D01*
Y112510D01*
X306172D01*
Y112616D01*
Y112721D01*
X306067D01*
Y112826D01*
X305962D01*
Y112931D01*
Y113036D01*
X305857D01*
Y113141D01*
X305752D01*
Y113246D01*
Y113351D01*
X305647D01*
Y113456D01*
X305542D01*
Y113561D01*
Y113666D01*
X305437D01*
Y113771D01*
X305332D01*
Y113876D01*
Y113982D01*
X305227D01*
Y114087D01*
X305122D01*
Y114192D01*
Y114297D01*
X305017D01*
Y114402D01*
X304911D01*
Y114507D01*
Y114612D01*
X304806D01*
Y114717D01*
X304701D01*
Y114822D01*
Y114927D01*
X304596D01*
Y115032D01*
X304491D01*
Y115138D01*
Y115243D01*
X304386D01*
Y115348D01*
X304281D01*
Y115453D01*
Y115558D01*
X304176D01*
Y115663D01*
X304071D01*
Y115768D01*
Y115873D01*
X303966D01*
Y115978D01*
X303861D01*
Y116083D01*
Y116188D01*
X303756D01*
Y116293D01*
X303650D01*
Y116399D01*
Y116504D01*
X303545D01*
Y116609D01*
X303440D01*
Y116714D01*
Y116819D01*
X303335D01*
Y116924D01*
X303230D01*
Y117029D01*
Y117134D01*
X303125D01*
Y117239D01*
X303020D01*
Y117344D01*
Y117449D01*
X302915D01*
Y117554D01*
X302810D01*
Y117659D01*
Y117765D01*
X302705D01*
Y117659D01*
Y117554D01*
Y117449D01*
Y117344D01*
Y117239D01*
Y117134D01*
Y117029D01*
Y116924D01*
Y116819D01*
Y116714D01*
Y116609D01*
Y116504D01*
Y116399D01*
Y116293D01*
Y116188D01*
Y116083D01*
Y115978D01*
Y115873D01*
Y115768D01*
Y115663D01*
Y115558D01*
Y115453D01*
Y115348D01*
Y115243D01*
Y115138D01*
Y115032D01*
Y114927D01*
Y114822D01*
Y114717D01*
Y114612D01*
Y114507D01*
Y114402D01*
Y114297D01*
Y114192D01*
Y114087D01*
Y113982D01*
Y113876D01*
Y113771D01*
Y113666D01*
Y113561D01*
Y113456D01*
Y113351D01*
Y113246D01*
Y113141D01*
Y113036D01*
Y112931D01*
Y112826D01*
X302810D01*
Y112721D01*
X303230D01*
Y112616D01*
X303440D01*
Y112510D01*
Y112405D01*
Y112300D01*
X301339D01*
Y112405D01*
Y112510D01*
Y112616D01*
X301654D01*
Y112721D01*
X301969D01*
Y112826D01*
X302074D01*
Y112931D01*
X302179D01*
Y113036D01*
Y113141D01*
Y113246D01*
Y113351D01*
Y113456D01*
Y113561D01*
Y113666D01*
Y113771D01*
Y113876D01*
Y113982D01*
Y114087D01*
Y114192D01*
Y114297D01*
Y114402D01*
Y114507D01*
Y114612D01*
Y114717D01*
Y114822D01*
Y114927D01*
Y115032D01*
Y115138D01*
Y115243D01*
Y115348D01*
Y115453D01*
Y115558D01*
Y115663D01*
Y115768D01*
Y115873D01*
Y115978D01*
Y116083D01*
Y116188D01*
Y116293D01*
Y116399D01*
Y116504D01*
Y116609D01*
Y116714D01*
Y116819D01*
Y116924D01*
Y117029D01*
Y117134D01*
Y117239D01*
Y117344D01*
Y117449D01*
Y117554D01*
Y117659D01*
Y117765D01*
Y117870D01*
Y117975D01*
Y118080D01*
Y118185D01*
Y118290D01*
X302074D01*
Y118395D01*
X301339D01*
Y118500D01*
Y118605D01*
Y118710D01*
Y118816D01*
X303125D01*
Y118710D01*
Y118605D01*
X303230D01*
Y118500D01*
Y118395D01*
X303335D01*
Y118290D01*
X303440D01*
Y118185D01*
Y118080D01*
X303545D01*
Y117975D01*
X303650D01*
Y117870D01*
Y117765D01*
X303756D01*
Y117659D01*
X303861D01*
Y117554D01*
Y117449D01*
X303966D01*
Y117344D01*
X304071D01*
Y117239D01*
Y117134D01*
X304176D01*
Y117029D01*
X304281D01*
Y116924D01*
Y116819D01*
X304386D01*
Y116714D01*
X304491D01*
Y116609D01*
Y116504D01*
X304596D01*
Y116399D01*
X304701D01*
Y116293D01*
Y116188D01*
X304806D01*
Y116083D01*
X304911D01*
Y115978D01*
Y115873D01*
X305017D01*
Y115768D01*
X305122D01*
Y115663D01*
Y115558D01*
X305227D01*
Y115453D01*
X305332D01*
Y115348D01*
Y115243D01*
X305437D01*
Y115138D01*
X305542D01*
Y115032D01*
Y114927D01*
X305647D01*
Y114822D01*
X305752D01*
Y114717D01*
Y114612D01*
X305857D01*
Y114507D01*
X305962D01*
Y114402D01*
Y114297D01*
X306067D01*
Y114192D01*
X306172D01*
Y114087D01*
Y113982D01*
X306278D01*
Y113876D01*
X306383D01*
Y113771D01*
Y113666D01*
X306593D01*
Y113771D01*
Y113876D01*
Y113982D01*
Y114087D01*
Y114192D01*
Y114297D01*
Y114402D01*
Y114507D01*
Y114612D01*
Y114717D01*
Y114822D01*
Y114927D01*
Y115032D01*
Y115138D01*
Y115243D01*
Y115348D01*
Y115453D01*
Y115558D01*
Y115663D01*
Y115768D01*
Y115873D01*
Y115978D01*
Y116083D01*
Y116188D01*
Y116293D01*
Y116399D01*
Y116504D01*
Y116609D01*
Y116714D01*
Y116819D01*
Y116924D01*
Y117029D01*
Y117134D01*
Y117239D01*
Y117344D01*
Y117449D01*
Y117554D01*
Y117659D01*
Y117765D01*
Y117870D01*
Y117975D01*
Y118080D01*
Y118185D01*
X306488D01*
Y118290D01*
X306383D01*
Y118395D01*
X305857D01*
Y118500D01*
X305752D01*
Y118605D01*
Y118710D01*
Y118816D01*
X307854D01*
Y118710D01*
D02*
G37*
G36*
X312793Y118816D02*
Y118710D01*
X312898D01*
Y118605D01*
Y118500D01*
X313003D01*
Y118395D01*
Y118290D01*
Y118185D01*
X313108D01*
Y118080D01*
Y117975D01*
Y117870D01*
X313213D01*
Y117765D01*
Y117659D01*
X313318D01*
Y117554D01*
Y117449D01*
Y117344D01*
X313423D01*
Y117239D01*
Y117134D01*
Y117029D01*
X313528D01*
Y116924D01*
Y116819D01*
X313633D01*
Y116714D01*
Y116609D01*
Y116504D01*
X313739D01*
Y116399D01*
Y116293D01*
X313844D01*
Y116188D01*
Y116083D01*
Y115978D01*
X313949D01*
Y115873D01*
Y115768D01*
Y115663D01*
X314054D01*
Y115558D01*
Y115453D01*
X314159D01*
Y115348D01*
Y115243D01*
Y115138D01*
X314264D01*
Y115032D01*
Y114927D01*
X314369D01*
Y114822D01*
Y114717D01*
Y114612D01*
X314474D01*
Y114507D01*
Y114402D01*
Y114297D01*
X314579D01*
Y114192D01*
Y114087D01*
X314684D01*
Y113982D01*
Y113876D01*
Y113771D01*
X314789D01*
Y113666D01*
Y113561D01*
X314895D01*
Y113456D01*
Y113351D01*
Y113246D01*
X315000D01*
Y113141D01*
Y113036D01*
Y112931D01*
X315105D01*
Y112826D01*
Y112721D01*
X315630D01*
Y112616D01*
X315735D01*
Y112510D01*
Y112405D01*
Y112300D01*
X313528D01*
Y112405D01*
Y112510D01*
Y112616D01*
X313949D01*
Y112721D01*
X314159D01*
Y112826D01*
Y112931D01*
Y113036D01*
X314054D01*
Y113141D01*
Y113246D01*
Y113351D01*
X313949D01*
Y113456D01*
Y113561D01*
Y113666D01*
X313844D01*
Y113771D01*
Y113876D01*
X313739D01*
Y113982D01*
Y114087D01*
Y114192D01*
X313633D01*
Y114297D01*
Y114402D01*
Y114507D01*
X313528D01*
Y114612D01*
Y114717D01*
X311111D01*
Y114612D01*
Y114507D01*
X311006D01*
Y114402D01*
Y114297D01*
Y114192D01*
X310901D01*
Y114087D01*
Y113982D01*
Y113876D01*
X310796D01*
Y113771D01*
Y113666D01*
X310691D01*
Y113561D01*
Y113456D01*
Y113351D01*
X310586D01*
Y113246D01*
Y113141D01*
Y113036D01*
X310481D01*
Y112931D01*
Y112826D01*
Y112721D01*
X310796D01*
Y112616D01*
X311217D01*
Y112510D01*
Y112405D01*
Y112300D01*
X309325D01*
Y112405D01*
Y112510D01*
Y112616D01*
X309430D01*
Y112721D01*
X309851D01*
Y112826D01*
Y112931D01*
X309956D01*
Y113036D01*
Y113141D01*
X310061D01*
Y113246D01*
Y113351D01*
Y113456D01*
X310166D01*
Y113561D01*
Y113666D01*
Y113771D01*
X310271D01*
Y113876D01*
Y113982D01*
X310376D01*
Y114087D01*
Y114192D01*
Y114297D01*
X310481D01*
Y114402D01*
Y114507D01*
Y114612D01*
X310586D01*
Y114717D01*
Y114822D01*
X310691D01*
Y114927D01*
Y115032D01*
Y115138D01*
X310796D01*
Y115243D01*
Y115348D01*
Y115453D01*
X310901D01*
Y115558D01*
Y115663D01*
X311006D01*
Y115768D01*
Y115873D01*
Y115978D01*
X311111D01*
Y116083D01*
Y116188D01*
Y116293D01*
X311217D01*
Y116399D01*
Y116504D01*
X311322D01*
Y116609D01*
Y116714D01*
Y116819D01*
X311427D01*
Y116924D01*
Y117029D01*
Y117134D01*
X311532D01*
Y117239D01*
Y117344D01*
X311637D01*
Y117449D01*
Y117554D01*
Y117659D01*
X311742D01*
Y117765D01*
Y117870D01*
Y117975D01*
X311847D01*
Y118080D01*
Y118185D01*
Y118290D01*
X311952D01*
Y118395D01*
Y118500D01*
X312057D01*
Y118605D01*
Y118710D01*
Y118816D01*
X312162D01*
Y118921D01*
X312793D01*
Y118816D01*
D02*
G37*
G36*
X289464Y118710D02*
Y118605D01*
Y118500D01*
Y118395D01*
X288834D01*
Y118290D01*
Y118185D01*
X288728D01*
Y118080D01*
Y117975D01*
Y117870D01*
Y117765D01*
Y117659D01*
Y117554D01*
Y117449D01*
Y117344D01*
Y117239D01*
Y117134D01*
Y117029D01*
Y116924D01*
Y116819D01*
Y116714D01*
Y116609D01*
Y116504D01*
Y116399D01*
Y116293D01*
Y116188D01*
Y116083D01*
Y115978D01*
Y115873D01*
Y115768D01*
Y115663D01*
Y115558D01*
Y115453D01*
Y115348D01*
Y115243D01*
Y115138D01*
Y115032D01*
Y114927D01*
Y114822D01*
Y114717D01*
Y114612D01*
Y114507D01*
Y114402D01*
Y114297D01*
Y114192D01*
Y114087D01*
Y113982D01*
Y113876D01*
Y113771D01*
Y113666D01*
Y113561D01*
Y113456D01*
Y113351D01*
Y113246D01*
Y113141D01*
Y113036D01*
Y112931D01*
Y112826D01*
Y112721D01*
X291040D01*
Y112826D01*
X291145D01*
Y112931D01*
Y113036D01*
Y113141D01*
Y113246D01*
X291251D01*
Y113351D01*
Y113456D01*
Y113561D01*
Y113666D01*
Y113771D01*
Y113876D01*
Y113982D01*
X291776D01*
Y113876D01*
Y113771D01*
Y113666D01*
Y113561D01*
Y113456D01*
Y113351D01*
Y113246D01*
Y113141D01*
Y113036D01*
Y112931D01*
Y112826D01*
Y112721D01*
Y112616D01*
Y112510D01*
Y112405D01*
Y112300D01*
X287152D01*
Y112405D01*
Y112510D01*
Y112616D01*
X287468D01*
Y112721D01*
X287888D01*
Y112826D01*
Y112931D01*
Y113036D01*
Y113141D01*
Y113246D01*
Y113351D01*
Y113456D01*
Y113561D01*
Y113666D01*
Y113771D01*
Y113876D01*
Y113982D01*
Y114087D01*
Y114192D01*
Y114297D01*
Y114402D01*
Y114507D01*
Y114612D01*
Y114717D01*
Y114822D01*
Y114927D01*
Y115032D01*
Y115138D01*
Y115243D01*
Y115348D01*
Y115453D01*
Y115558D01*
Y115663D01*
Y115768D01*
Y115873D01*
Y115978D01*
Y116083D01*
Y116188D01*
Y116293D01*
Y116399D01*
Y116504D01*
Y116609D01*
Y116714D01*
Y116819D01*
Y116924D01*
Y117029D01*
Y117134D01*
Y117239D01*
Y117344D01*
Y117449D01*
Y117554D01*
Y117659D01*
Y117765D01*
Y117870D01*
Y117975D01*
Y118080D01*
Y118185D01*
Y118290D01*
X287783D01*
Y118395D01*
X287152D01*
Y118500D01*
Y118605D01*
Y118710D01*
Y118816D01*
X289464D01*
Y118710D01*
D02*
G37*
G36*
X260776Y118816D02*
Y118710D01*
Y118605D01*
X260881D01*
Y118500D01*
Y118395D01*
X260986D01*
Y118290D01*
Y118185D01*
Y118080D01*
X261091D01*
Y117975D01*
Y117870D01*
X261196D01*
Y117765D01*
Y117659D01*
Y117554D01*
X261301D01*
Y117449D01*
Y117344D01*
Y117239D01*
X261407D01*
Y117134D01*
Y117029D01*
X261512D01*
Y116924D01*
Y116819D01*
Y116714D01*
X261617D01*
Y116609D01*
Y116504D01*
X261722D01*
Y116399D01*
Y116293D01*
Y116188D01*
X261827D01*
Y116083D01*
Y115978D01*
Y115873D01*
X261932D01*
Y115768D01*
Y115663D01*
X262037D01*
Y115558D01*
Y115453D01*
Y115348D01*
X262142D01*
Y115243D01*
Y115138D01*
X262247D01*
Y115032D01*
Y114927D01*
Y114822D01*
X262352D01*
Y114717D01*
Y114612D01*
Y114507D01*
X262457D01*
Y114402D01*
Y114297D01*
X262563D01*
Y114192D01*
Y114087D01*
Y113982D01*
X262668D01*
Y113876D01*
Y113771D01*
X262773D01*
Y113666D01*
Y113561D01*
Y113456D01*
X262878D01*
Y113351D01*
Y113246D01*
Y113141D01*
X262983D01*
Y113036D01*
Y112931D01*
X263088D01*
Y112826D01*
Y112721D01*
X263508D01*
Y112616D01*
X263719D01*
Y112510D01*
Y112405D01*
Y112300D01*
X261512D01*
Y112405D01*
Y112510D01*
Y112616D01*
X261827D01*
Y112721D01*
X262142D01*
Y112826D01*
Y112931D01*
Y113036D01*
X262037D01*
Y113141D01*
Y113246D01*
X261932D01*
Y113351D01*
Y113456D01*
Y113561D01*
X261827D01*
Y113666D01*
Y113771D01*
Y113876D01*
X261722D01*
Y113982D01*
Y114087D01*
X261617D01*
Y114192D01*
Y114297D01*
Y114402D01*
X261512D01*
Y114507D01*
Y114612D01*
Y114717D01*
X259095D01*
Y114612D01*
Y114507D01*
X258990D01*
Y114402D01*
Y114297D01*
X258885D01*
Y114192D01*
Y114087D01*
Y113982D01*
X258780D01*
Y113876D01*
Y113771D01*
Y113666D01*
X258674D01*
Y113561D01*
Y113456D01*
X258569D01*
Y113351D01*
Y113246D01*
Y113141D01*
X258464D01*
Y113036D01*
Y112931D01*
Y112826D01*
Y112721D01*
X258780D01*
Y112616D01*
X259095D01*
Y112510D01*
Y112405D01*
Y112300D01*
X257203D01*
Y112405D01*
Y112510D01*
Y112616D01*
X257413D01*
Y112721D01*
X257834D01*
Y112826D01*
Y112931D01*
X257939D01*
Y113036D01*
Y113141D01*
Y113246D01*
X258044D01*
Y113351D01*
Y113456D01*
Y113561D01*
X258149D01*
Y113666D01*
Y113771D01*
X258254D01*
Y113876D01*
Y113982D01*
Y114087D01*
X258359D01*
Y114192D01*
Y114297D01*
Y114402D01*
X258464D01*
Y114507D01*
Y114612D01*
X258569D01*
Y114717D01*
Y114822D01*
Y114927D01*
X258674D01*
Y115032D01*
Y115138D01*
Y115243D01*
X258780D01*
Y115348D01*
Y115453D01*
X258885D01*
Y115558D01*
Y115663D01*
Y115768D01*
X258990D01*
Y115873D01*
Y115978D01*
Y116083D01*
X259095D01*
Y116188D01*
Y116293D01*
X259200D01*
Y116399D01*
Y116504D01*
Y116609D01*
X259305D01*
Y116714D01*
Y116819D01*
Y116924D01*
X259410D01*
Y117029D01*
Y117134D01*
X259515D01*
Y117239D01*
Y117344D01*
Y117449D01*
X259620D01*
Y117554D01*
Y117659D01*
Y117765D01*
X259725D01*
Y117870D01*
Y117975D01*
X259830D01*
Y118080D01*
Y118185D01*
Y118290D01*
X259935D01*
Y118395D01*
Y118500D01*
Y118605D01*
X260040D01*
Y118710D01*
Y118816D01*
X260146D01*
Y118921D01*
X260776D01*
Y118816D01*
D02*
G37*
G36*
X254051Y118710D02*
X254471D01*
Y118605D01*
X254786D01*
Y118500D01*
X254891D01*
Y118395D01*
X255102D01*
Y118290D01*
X255207D01*
Y118185D01*
X255312D01*
Y118080D01*
Y117975D01*
X255417D01*
Y117870D01*
Y117765D01*
Y117659D01*
X255522D01*
Y117554D01*
Y117449D01*
Y117344D01*
Y117239D01*
Y117134D01*
Y117029D01*
Y116924D01*
Y116819D01*
X255417D01*
Y116714D01*
Y116609D01*
X255312D01*
Y116504D01*
Y116399D01*
X255207D01*
Y116293D01*
X255102D01*
Y116188D01*
X254996D01*
Y116083D01*
X254786D01*
Y115978D01*
X254576D01*
Y115873D01*
X254261D01*
Y115768D01*
X254366D01*
Y115663D01*
X254891D01*
Y115558D01*
X255102D01*
Y115453D01*
X255312D01*
Y115348D01*
X255522D01*
Y115243D01*
X255627D01*
Y115138D01*
Y115032D01*
X255732D01*
Y114927D01*
X255837D01*
Y114822D01*
Y114717D01*
Y114612D01*
X255942D01*
Y114507D01*
Y114402D01*
Y114297D01*
Y114192D01*
Y114087D01*
Y113982D01*
Y113876D01*
Y113771D01*
X255837D01*
Y113666D01*
Y113561D01*
Y113456D01*
Y113351D01*
X255732D01*
Y113246D01*
X255627D01*
Y113141D01*
Y113036D01*
X255522D01*
Y112931D01*
X255417D01*
Y112826D01*
X255312D01*
Y112721D01*
X255102D01*
Y112616D01*
X254996D01*
Y112510D01*
X254681D01*
Y112405D01*
X254261D01*
Y112300D01*
X250793D01*
Y112405D01*
Y112510D01*
Y112616D01*
X251108D01*
Y112721D01*
X251424D01*
Y112826D01*
X251529D01*
Y112931D01*
Y113036D01*
Y113141D01*
Y113246D01*
Y113351D01*
Y113456D01*
Y113561D01*
Y113666D01*
Y113771D01*
Y113876D01*
Y113982D01*
Y114087D01*
Y114192D01*
Y114297D01*
Y114402D01*
Y114507D01*
Y114612D01*
Y114717D01*
Y114822D01*
Y114927D01*
Y115032D01*
Y115138D01*
Y115243D01*
Y115348D01*
Y115453D01*
Y115558D01*
Y115663D01*
Y115768D01*
Y115873D01*
Y115978D01*
Y116083D01*
Y116188D01*
Y116293D01*
Y116399D01*
Y116504D01*
Y116609D01*
Y116714D01*
Y116819D01*
Y116924D01*
Y117029D01*
Y117134D01*
Y117239D01*
Y117344D01*
Y117449D01*
Y117554D01*
Y117659D01*
Y117765D01*
Y117870D01*
Y117975D01*
Y118080D01*
Y118185D01*
Y118290D01*
X251424D01*
Y118395D01*
X250793D01*
Y118500D01*
Y118605D01*
Y118710D01*
Y118816D01*
X254051D01*
Y118710D01*
D02*
G37*
G36*
X268447D02*
X268973D01*
Y118605D01*
X269183D01*
Y118500D01*
X269393D01*
Y118395D01*
X269498D01*
Y118290D01*
X269603D01*
Y118185D01*
X269708D01*
Y118080D01*
X269813D01*
Y117975D01*
X269918D01*
Y117870D01*
Y117765D01*
Y117659D01*
X270023D01*
Y117554D01*
Y117449D01*
Y117344D01*
Y117239D01*
Y117134D01*
Y117029D01*
Y116924D01*
Y116819D01*
Y116714D01*
Y116609D01*
Y116504D01*
X269918D01*
Y116399D01*
Y116293D01*
X269813D01*
Y116188D01*
X269708D01*
Y116083D01*
Y115978D01*
X269498D01*
Y115873D01*
X269393D01*
Y115768D01*
X269183D01*
Y115663D01*
X268973D01*
Y115558D01*
X268657D01*
Y115453D01*
X268552D01*
Y115348D01*
X268868D01*
Y115243D01*
X269078D01*
Y115138D01*
X269183D01*
Y115032D01*
X269288D01*
Y114927D01*
X269393D01*
Y114822D01*
X269498D01*
Y114717D01*
Y114612D01*
X269603D01*
Y114507D01*
Y114402D01*
X269708D01*
Y114297D01*
Y114192D01*
Y114087D01*
Y113982D01*
X269813D01*
Y113876D01*
Y113771D01*
Y113666D01*
Y113561D01*
X269918D01*
Y113456D01*
Y113351D01*
Y113246D01*
X270023D01*
Y113141D01*
Y113036D01*
X270129D01*
Y112931D01*
X270234D01*
Y112826D01*
X270339D01*
Y112721D01*
X270654D01*
Y112616D01*
X271285D01*
Y112510D01*
Y112405D01*
Y112300D01*
X271180D01*
Y112195D01*
X269918D01*
Y112300D01*
X269708D01*
Y112405D01*
X269603D01*
Y112510D01*
X269498D01*
Y112616D01*
X269393D01*
Y112721D01*
X269288D01*
Y112826D01*
Y112931D01*
X269183D01*
Y113036D01*
Y113141D01*
Y113246D01*
X269078D01*
Y113351D01*
Y113456D01*
Y113561D01*
X268973D01*
Y113666D01*
Y113771D01*
Y113876D01*
X268868D01*
Y113982D01*
Y114087D01*
Y114192D01*
Y114297D01*
X268762D01*
Y114402D01*
Y114507D01*
X268657D01*
Y114612D01*
Y114717D01*
X268552D01*
Y114822D01*
X268447D01*
Y114927D01*
X268342D01*
Y115032D01*
X268132D01*
Y115138D01*
X267712D01*
Y115243D01*
X266871D01*
Y115138D01*
X266766D01*
Y115032D01*
Y114927D01*
Y114822D01*
Y114717D01*
Y114612D01*
Y114507D01*
Y114402D01*
Y114297D01*
Y114192D01*
Y114087D01*
Y113982D01*
Y113876D01*
Y113771D01*
Y113666D01*
Y113561D01*
Y113456D01*
Y113351D01*
Y113246D01*
Y113141D01*
Y113036D01*
Y112931D01*
Y112826D01*
X266871D01*
Y112721D01*
X267186D01*
Y112616D01*
X267501D01*
Y112510D01*
Y112405D01*
Y112300D01*
X265190D01*
Y112405D01*
Y112510D01*
Y112616D01*
X265505D01*
Y112721D01*
X265820D01*
Y112826D01*
X265925D01*
Y112931D01*
Y113036D01*
Y113141D01*
Y113246D01*
Y113351D01*
Y113456D01*
Y113561D01*
Y113666D01*
Y113771D01*
Y113876D01*
Y113982D01*
Y114087D01*
Y114192D01*
Y114297D01*
Y114402D01*
Y114507D01*
Y114612D01*
Y114717D01*
Y114822D01*
Y114927D01*
Y115032D01*
Y115138D01*
Y115243D01*
Y115348D01*
Y115453D01*
Y115558D01*
Y115663D01*
Y115768D01*
Y115873D01*
Y115978D01*
Y116083D01*
Y116188D01*
Y116293D01*
Y116399D01*
Y116504D01*
Y116609D01*
Y116714D01*
Y116819D01*
Y116924D01*
Y117029D01*
Y117134D01*
Y117239D01*
Y117344D01*
Y117449D01*
Y117554D01*
Y117659D01*
Y117765D01*
Y117870D01*
Y117975D01*
Y118080D01*
Y118185D01*
Y118290D01*
X265820D01*
Y118395D01*
X265295D01*
Y118500D01*
X265190D01*
Y118605D01*
Y118710D01*
Y118816D01*
X268447D01*
Y118710D01*
D02*
G37*
G36*
X296610Y118921D02*
X297240D01*
Y118816D01*
X297556D01*
Y118710D01*
X297766D01*
Y118605D01*
X297976D01*
Y118500D01*
X298081D01*
Y118395D01*
X298291D01*
Y118290D01*
X298396D01*
Y118185D01*
X298501D01*
Y118080D01*
X298606D01*
Y117975D01*
X298711D01*
Y117870D01*
X298817D01*
Y117765D01*
Y117659D01*
X298922D01*
Y117554D01*
X299027D01*
Y117449D01*
Y117344D01*
X299132D01*
Y117239D01*
Y117134D01*
X299237D01*
Y117029D01*
Y116924D01*
Y116819D01*
X299342D01*
Y116714D01*
Y116609D01*
Y116504D01*
Y116399D01*
X299447D01*
Y116293D01*
Y116188D01*
Y116083D01*
Y115978D01*
Y115873D01*
Y115768D01*
Y115663D01*
Y115558D01*
Y115453D01*
Y115348D01*
Y115243D01*
Y115138D01*
Y115032D01*
Y114927D01*
Y114822D01*
Y114717D01*
Y114612D01*
X299342D01*
Y114507D01*
Y114402D01*
Y114297D01*
X299237D01*
Y114192D01*
Y114087D01*
Y113982D01*
X299132D01*
Y113876D01*
Y113771D01*
X299027D01*
Y113666D01*
Y113561D01*
X298922D01*
Y113456D01*
Y113351D01*
X298817D01*
Y113246D01*
X298711D01*
Y113141D01*
X298606D01*
Y113036D01*
X298501D01*
Y112931D01*
X298396D01*
Y112826D01*
X298291D01*
Y112721D01*
X298186D01*
Y112616D01*
X297976D01*
Y112510D01*
X297766D01*
Y112405D01*
X297556D01*
Y112300D01*
X297345D01*
Y112195D01*
X296820D01*
Y112090D01*
X295874D01*
Y112195D01*
X295349D01*
Y112300D01*
X295034D01*
Y112405D01*
X294823D01*
Y112510D01*
X294718D01*
Y112616D01*
X294508D01*
Y112721D01*
X294403D01*
Y112826D01*
X294298D01*
Y112931D01*
X294193D01*
Y113036D01*
X294088D01*
Y113141D01*
X293983D01*
Y113246D01*
X293878D01*
Y113351D01*
X293773D01*
Y113456D01*
Y113561D01*
X293668D01*
Y113666D01*
X293562D01*
Y113771D01*
Y113876D01*
X293457D01*
Y113982D01*
Y114087D01*
Y114192D01*
X293352D01*
Y114297D01*
Y114402D01*
Y114507D01*
X293247D01*
Y114612D01*
Y114717D01*
Y114822D01*
Y114927D01*
Y115032D01*
Y115138D01*
X293142D01*
Y115243D01*
Y115348D01*
Y115453D01*
Y115558D01*
Y115663D01*
Y115768D01*
Y115873D01*
X293247D01*
Y115978D01*
Y116083D01*
Y116188D01*
Y116293D01*
Y116399D01*
Y116504D01*
Y116609D01*
X293352D01*
Y116714D01*
Y116819D01*
Y116924D01*
X293457D01*
Y117029D01*
Y117134D01*
X293562D01*
Y117239D01*
Y117344D01*
X293668D01*
Y117449D01*
Y117554D01*
X293773D01*
Y117659D01*
Y117765D01*
X293878D01*
Y117870D01*
X293983D01*
Y117975D01*
X294088D01*
Y118080D01*
X294193D01*
Y118185D01*
X294298D01*
Y118290D01*
X294403D01*
Y118395D01*
X294613D01*
Y118500D01*
X294718D01*
Y118605D01*
X294929D01*
Y118710D01*
X295139D01*
Y118816D01*
X295454D01*
Y118921D01*
X296189D01*
Y119026D01*
X296610D01*
Y118921D01*
D02*
G37*
G36*
X239969Y129114D02*
X240915D01*
Y129009D01*
X241651D01*
Y128903D01*
X242281D01*
Y128798D01*
X242807D01*
Y128693D01*
X243227D01*
Y128588D01*
X243647D01*
Y128483D01*
X244068D01*
Y128378D01*
X244488D01*
Y128273D01*
X244803D01*
Y128168D01*
X245224D01*
Y128063D01*
X245539D01*
Y127958D01*
X245749D01*
Y127853D01*
X245854D01*
Y127748D01*
Y127643D01*
X245959D01*
Y127537D01*
Y127432D01*
Y127327D01*
Y127222D01*
Y127117D01*
Y127012D01*
Y126907D01*
Y126802D01*
Y126697D01*
Y126592D01*
Y126487D01*
Y126382D01*
Y126276D01*
Y126171D01*
Y126066D01*
Y125961D01*
Y125856D01*
Y125751D01*
Y125646D01*
Y125541D01*
Y125436D01*
Y125331D01*
Y125226D01*
Y125120D01*
Y125015D01*
Y124910D01*
Y124805D01*
Y124700D01*
Y124595D01*
Y124490D01*
Y124385D01*
Y124280D01*
Y124175D01*
Y124070D01*
Y123965D01*
Y123860D01*
Y123754D01*
Y123649D01*
Y123544D01*
Y123439D01*
Y123334D01*
Y123229D01*
Y123124D01*
Y123019D01*
Y122914D01*
Y122809D01*
Y122704D01*
Y122599D01*
Y122493D01*
Y122388D01*
Y122283D01*
Y122178D01*
Y122073D01*
Y121968D01*
Y121863D01*
Y121758D01*
Y121653D01*
Y121548D01*
Y121443D01*
Y121337D01*
Y121232D01*
Y121127D01*
Y121022D01*
Y120917D01*
Y120812D01*
Y120707D01*
Y120602D01*
Y120497D01*
Y120392D01*
Y120287D01*
Y120182D01*
Y120077D01*
Y119971D01*
Y119866D01*
Y119761D01*
Y119656D01*
Y119551D01*
Y119446D01*
Y119341D01*
Y119236D01*
Y119131D01*
Y119026D01*
Y118921D01*
Y118816D01*
Y118710D01*
Y118605D01*
Y118500D01*
Y118395D01*
Y118290D01*
Y118185D01*
Y118080D01*
Y117975D01*
Y117870D01*
Y117765D01*
Y117659D01*
Y117554D01*
Y117449D01*
Y117344D01*
Y117239D01*
Y117134D01*
Y117029D01*
Y116924D01*
Y116819D01*
Y116714D01*
Y116609D01*
Y116504D01*
Y116399D01*
Y116293D01*
Y116188D01*
Y116083D01*
Y115978D01*
Y115873D01*
Y115768D01*
Y115663D01*
Y115558D01*
Y115453D01*
Y115348D01*
Y115243D01*
Y115138D01*
Y115032D01*
Y114927D01*
Y114822D01*
Y114717D01*
Y114612D01*
Y114507D01*
Y114402D01*
Y114297D01*
Y114192D01*
Y114087D01*
Y113982D01*
Y113876D01*
Y113771D01*
Y113666D01*
Y113561D01*
Y113456D01*
Y113351D01*
Y113246D01*
Y113141D01*
Y113036D01*
Y112931D01*
Y112826D01*
Y112721D01*
Y112616D01*
Y112510D01*
Y112405D01*
Y112300D01*
X245854D01*
Y112195D01*
Y112090D01*
X245749D01*
Y111985D01*
X245644D01*
Y111880D01*
X245539D01*
Y111775D01*
X245329D01*
Y111670D01*
X245224D01*
Y111565D01*
X245013D01*
Y111460D01*
X244803D01*
Y111354D01*
X244593D01*
Y111249D01*
X244383D01*
Y111144D01*
X244173D01*
Y111039D01*
X243858D01*
Y110934D01*
X243647D01*
Y110829D01*
X243332D01*
Y110724D01*
X243122D01*
Y110619D01*
X242807D01*
Y110514D01*
X242492D01*
Y110409D01*
X242176D01*
Y110304D01*
X241756D01*
Y110199D01*
X241336D01*
Y110093D01*
X240810D01*
Y109988D01*
X240285D01*
Y109883D01*
X239024D01*
Y109778D01*
X238603D01*
Y109883D01*
X237342D01*
Y109988D01*
X236817D01*
Y110093D01*
X236292D01*
Y110199D01*
X235871D01*
Y110304D01*
X235451D01*
Y110409D01*
X235136D01*
Y110514D01*
X234820D01*
Y110619D01*
X234505D01*
Y110724D01*
X234295D01*
Y110829D01*
X233980D01*
Y110934D01*
X233769D01*
Y111039D01*
X233454D01*
Y111144D01*
X233244D01*
Y111249D01*
X233034D01*
Y111354D01*
X232824D01*
Y111460D01*
X232613D01*
Y111565D01*
X232403D01*
Y111670D01*
X232298D01*
Y111775D01*
X232088D01*
Y111880D01*
X231983D01*
Y111985D01*
X231878D01*
Y112090D01*
X231773D01*
Y112195D01*
Y112300D01*
X231668D01*
Y112405D01*
Y112510D01*
Y112616D01*
Y112721D01*
Y112826D01*
Y112931D01*
Y113036D01*
Y113141D01*
Y113246D01*
Y113351D01*
Y113456D01*
Y113561D01*
Y113666D01*
Y113771D01*
Y113876D01*
Y113982D01*
Y114087D01*
Y114192D01*
Y114297D01*
Y114402D01*
Y114507D01*
Y114612D01*
Y114717D01*
Y114822D01*
Y114927D01*
Y115032D01*
Y115138D01*
Y115243D01*
Y115348D01*
Y115453D01*
Y115558D01*
Y115663D01*
Y115768D01*
Y115873D01*
Y115978D01*
Y116083D01*
Y116188D01*
Y116293D01*
Y116399D01*
Y116504D01*
Y116609D01*
Y116714D01*
Y116819D01*
Y116924D01*
Y117029D01*
Y117134D01*
Y117239D01*
Y117344D01*
Y117449D01*
Y117554D01*
Y117659D01*
Y117765D01*
Y117870D01*
Y117975D01*
Y118080D01*
Y118185D01*
Y118290D01*
Y118395D01*
Y118500D01*
Y118605D01*
Y118710D01*
Y118816D01*
Y118921D01*
Y119026D01*
Y119131D01*
Y119236D01*
Y119341D01*
Y119446D01*
Y119551D01*
Y119656D01*
Y119761D01*
Y119866D01*
Y119971D01*
Y120077D01*
Y120182D01*
Y120287D01*
Y120392D01*
Y120497D01*
Y120602D01*
Y120707D01*
Y120812D01*
Y120917D01*
Y121022D01*
Y121127D01*
Y121232D01*
Y121337D01*
Y121443D01*
Y121548D01*
Y121653D01*
Y121758D01*
Y121863D01*
Y121968D01*
Y122073D01*
Y122178D01*
Y122283D01*
Y122388D01*
Y122493D01*
Y122599D01*
Y122704D01*
Y122809D01*
Y122914D01*
Y123019D01*
Y123124D01*
Y123229D01*
Y123334D01*
Y123439D01*
Y123544D01*
Y123649D01*
Y123754D01*
Y123860D01*
Y123965D01*
Y124070D01*
Y124175D01*
Y124280D01*
Y124385D01*
Y124490D01*
Y124595D01*
Y124700D01*
Y124805D01*
Y124910D01*
Y125015D01*
Y125120D01*
Y125226D01*
Y125331D01*
Y125436D01*
Y125541D01*
Y125646D01*
Y125751D01*
Y125856D01*
Y125961D01*
Y126066D01*
Y126171D01*
Y126276D01*
Y126382D01*
Y126487D01*
Y126592D01*
Y126697D01*
Y126802D01*
Y126907D01*
Y127012D01*
Y127117D01*
Y127222D01*
Y127327D01*
Y127432D01*
Y127537D01*
Y127643D01*
X231773D01*
Y127748D01*
Y127853D01*
X231878D01*
Y127958D01*
X231983D01*
Y128063D01*
X232298D01*
Y128168D01*
X232613D01*
Y128273D01*
X233034D01*
Y128378D01*
X233349D01*
Y128483D01*
X233769D01*
Y128588D01*
X234190D01*
Y128693D01*
X234610D01*
Y128798D01*
X235136D01*
Y128903D01*
X235766D01*
Y129009D01*
X236502D01*
Y129114D01*
X237552D01*
Y129219D01*
X239969D01*
Y129114D01*
D02*
G37*
G36*
X243963Y109568D02*
Y109463D01*
Y109358D01*
X243647D01*
Y109463D01*
Y109568D01*
X243753D01*
Y109673D01*
X243963D01*
Y109568D01*
D02*
G37*
G36*
X233875D02*
X233980D01*
Y109463D01*
Y109358D01*
X233664D01*
Y109463D01*
Y109568D01*
Y109673D01*
X233875D01*
Y109568D01*
D02*
G37*
G36*
X237658Y109043D02*
Y108938D01*
Y108833D01*
Y108727D01*
Y108622D01*
Y108517D01*
Y108412D01*
Y108307D01*
Y108202D01*
X237447D01*
Y108307D01*
Y108412D01*
X237342D01*
Y108517D01*
Y108622D01*
X237237D01*
Y108727D01*
Y108833D01*
X237132D01*
Y108727D01*
Y108622D01*
Y108517D01*
Y108412D01*
Y108307D01*
X237027D01*
Y108412D01*
Y108517D01*
Y108622D01*
Y108727D01*
Y108833D01*
Y108938D01*
Y109043D01*
Y109148D01*
X237237D01*
Y109043D01*
X237342D01*
Y108938D01*
Y108833D01*
X237447D01*
Y108938D01*
Y109043D01*
X237552D01*
Y109148D01*
X237658D01*
Y109043D01*
D02*
G37*
G36*
X242702Y109568D02*
X242597D01*
Y109463D01*
X242386D01*
Y109358D01*
Y109253D01*
X242702D01*
Y109148D01*
X242492D01*
Y109043D01*
X242386D01*
Y108938D01*
Y108833D01*
X242597D01*
Y108938D01*
X242702D01*
Y108833D01*
Y108727D01*
X242386D01*
Y108622D01*
X242176D01*
Y108727D01*
Y108833D01*
Y108938D01*
Y109043D01*
Y109148D01*
Y109253D01*
Y109358D01*
Y109463D01*
Y109568D01*
X242492D01*
Y109673D01*
X242702D01*
Y109568D01*
D02*
G37*
G36*
X241125Y109148D02*
Y109043D01*
Y108938D01*
Y108833D01*
X241020D01*
Y108727D01*
Y108622D01*
Y108517D01*
Y108412D01*
X240915D01*
Y108307D01*
X240705D01*
Y108412D01*
Y108517D01*
Y108622D01*
X240600D01*
Y108727D01*
Y108833D01*
Y108938D01*
X240495D01*
Y109043D01*
Y109148D01*
X240600D01*
Y109253D01*
X240705D01*
Y109148D01*
Y109043D01*
Y108938D01*
X240810D01*
Y108833D01*
Y108727D01*
Y108622D01*
X240915D01*
Y108727D01*
Y108833D01*
Y108938D01*
Y109043D01*
X241020D01*
Y109148D01*
Y109253D01*
X241125D01*
Y109148D01*
D02*
G37*
G36*
X235241Y109568D02*
X235451D01*
Y109463D01*
Y109358D01*
X235556D01*
Y109253D01*
Y109148D01*
Y109043D01*
Y108938D01*
Y108833D01*
Y108727D01*
X235346D01*
Y108622D01*
X235241D01*
Y108727D01*
X235031D01*
Y108833D01*
X234925D01*
Y108938D01*
Y109043D01*
Y109148D01*
Y109253D01*
Y109358D01*
Y109463D01*
Y109568D01*
X235031D01*
Y109673D01*
X235241D01*
Y109568D01*
D02*
G37*
G36*
X241966Y109358D02*
Y109253D01*
X241651D01*
Y109148D01*
X241546D01*
Y109043D01*
Y108938D01*
Y108833D01*
Y108727D01*
X241651D01*
Y108622D01*
X241756D01*
Y108727D01*
X241861D01*
Y108833D01*
X241966D01*
Y108727D01*
Y108622D01*
X241861D01*
Y108517D01*
X241441D01*
Y108622D01*
X241336D01*
Y108727D01*
Y108833D01*
Y108938D01*
Y109043D01*
Y109148D01*
X241441D01*
Y109253D01*
Y109358D01*
X241651D01*
Y109463D01*
X241966D01*
Y109358D01*
D02*
G37*
G36*
X236081D02*
X236186D01*
Y109253D01*
Y109148D01*
Y109043D01*
Y108938D01*
Y108833D01*
Y108727D01*
X236292D01*
Y108833D01*
Y108938D01*
Y109043D01*
X236397D01*
Y109148D01*
Y109253D01*
Y109358D01*
X236502D01*
Y109253D01*
X236712D01*
Y109148D01*
Y109043D01*
Y108938D01*
Y108833D01*
Y108727D01*
Y108622D01*
Y108517D01*
Y108412D01*
Y108307D01*
X236607D01*
Y108412D01*
X236502D01*
Y108517D01*
Y108622D01*
Y108727D01*
Y108833D01*
Y108938D01*
X236397D01*
Y108833D01*
Y108727D01*
Y108622D01*
Y108517D01*
X236292D01*
Y108412D01*
X236186D01*
Y108517D01*
Y108622D01*
Y108727D01*
X236081D01*
Y108833D01*
Y108938D01*
Y109043D01*
X235976D01*
Y108938D01*
Y108833D01*
Y108727D01*
Y108622D01*
Y108517D01*
X235871D01*
Y108622D01*
Y108727D01*
Y108833D01*
Y108938D01*
Y109043D01*
Y109148D01*
Y109253D01*
Y109358D01*
Y109463D01*
X236081D01*
Y109358D01*
D02*
G37*
G36*
X240180Y109043D02*
Y108938D01*
Y108833D01*
Y108727D01*
Y108622D01*
Y108517D01*
Y108412D01*
X240390D01*
Y108307D01*
Y108202D01*
X239969D01*
Y108307D01*
Y108412D01*
Y108517D01*
Y108622D01*
Y108727D01*
Y108833D01*
Y108938D01*
Y109043D01*
Y109148D01*
X240180D01*
Y109043D01*
D02*
G37*
G36*
X238183Y108938D02*
Y108833D01*
Y108727D01*
Y108622D01*
Y108517D01*
Y108412D01*
Y108307D01*
Y108202D01*
X237973D01*
Y108307D01*
Y108412D01*
Y108517D01*
Y108622D01*
Y108727D01*
Y108833D01*
Y108938D01*
Y109043D01*
X238183D01*
Y108938D01*
D02*
G37*
G36*
X239024D02*
Y108833D01*
Y108727D01*
Y108622D01*
X239129D01*
Y108517D01*
Y108412D01*
Y108307D01*
Y108202D01*
Y108097D01*
X239024D01*
Y108202D01*
X238919D01*
Y108307D01*
X238708D01*
Y108202D01*
X238603D01*
Y108097D01*
X238498D01*
Y108202D01*
Y108307D01*
Y108412D01*
Y108517D01*
X238603D01*
Y108622D01*
Y108727D01*
Y108833D01*
Y108938D01*
X238708D01*
Y109043D01*
X239024D01*
Y108938D01*
D02*
G37*
%LPC*%
G36*
X238919Y130795D02*
X238813D01*
Y130690D01*
Y130585D01*
Y130480D01*
Y130375D01*
X238919D01*
Y130480D01*
X239024D01*
Y130585D01*
Y130690D01*
X238919D01*
Y130795D01*
D02*
G37*
G36*
X233980Y129744D02*
X233769D01*
Y129639D01*
Y129534D01*
Y129429D01*
X233875D01*
Y129534D01*
X233980D01*
Y129639D01*
Y129744D01*
D02*
G37*
G36*
X240495Y130690D02*
X240285D01*
Y130585D01*
Y130480D01*
Y130375D01*
X240600D01*
Y130480D01*
Y130585D01*
X240495D01*
Y130690D01*
D02*
G37*
G36*
X236922Y130480D02*
X236712D01*
Y130375D01*
Y130270D01*
Y130165D01*
X236922D01*
Y130270D01*
Y130375D01*
Y130480D01*
D02*
G37*
G36*
X235451D02*
X235241D01*
Y130375D01*
Y130270D01*
Y130165D01*
X235451D01*
Y130270D01*
X235556D01*
Y130375D01*
X235451D01*
Y130480D01*
D02*
G37*
G36*
X243647Y130165D02*
X243542D01*
Y130060D01*
Y129954D01*
Y129849D01*
Y129744D01*
Y129639D01*
Y129534D01*
X243647D01*
Y129429D01*
X243753D01*
Y129534D01*
X243858D01*
Y129639D01*
Y129744D01*
Y129849D01*
Y129954D01*
X243753D01*
Y130060D01*
X243647D01*
Y130165D01*
D02*
G37*
G36*
X311006Y124175D02*
X310691D01*
Y124070D01*
Y123965D01*
Y123860D01*
Y123754D01*
Y123649D01*
Y123544D01*
Y123439D01*
Y123334D01*
Y123229D01*
Y123124D01*
Y123019D01*
Y122914D01*
Y122809D01*
Y122704D01*
Y122599D01*
Y122493D01*
Y122388D01*
X311322D01*
Y122493D01*
X311427D01*
Y122599D01*
X311532D01*
Y122704D01*
X311637D01*
Y122809D01*
Y122914D01*
Y123019D01*
X311742D01*
Y123124D01*
Y123229D01*
Y123334D01*
Y123439D01*
Y123544D01*
X311637D01*
Y123649D01*
Y123754D01*
X311532D01*
Y123860D01*
Y123965D01*
X311322D01*
Y124070D01*
X311006D01*
Y124175D01*
D02*
G37*
G36*
X301234Y125751D02*
X301129D01*
Y125646D01*
X301023D01*
Y125541D01*
Y125436D01*
X300918D01*
Y125331D01*
Y125226D01*
X300813D01*
Y125120D01*
Y125015D01*
Y124910D01*
X300708D01*
Y124805D01*
Y124700D01*
X300603D01*
Y124595D01*
Y124490D01*
X300498D01*
Y124385D01*
Y124280D01*
Y124175D01*
X301759D01*
Y124280D01*
Y124385D01*
Y124490D01*
X301654D01*
Y124595D01*
Y124700D01*
X301549D01*
Y124805D01*
Y124910D01*
Y125015D01*
X301444D01*
Y125120D01*
Y125226D01*
X301339D01*
Y125331D01*
Y125436D01*
X301234D01*
Y125541D01*
Y125646D01*
Y125751D01*
D02*
G37*
G36*
X281793Y126171D02*
X280847D01*
Y126066D01*
Y125961D01*
Y125856D01*
Y125751D01*
Y125646D01*
Y125541D01*
Y125436D01*
Y125331D01*
Y125226D01*
Y125120D01*
Y125015D01*
Y124910D01*
Y124805D01*
Y124700D01*
Y124595D01*
Y124490D01*
X280952D01*
Y124385D01*
X281583D01*
Y124490D01*
X282003D01*
Y124595D01*
X282108D01*
Y124700D01*
X282213D01*
Y124805D01*
X282318D01*
Y124910D01*
Y125015D01*
X282423D01*
Y125120D01*
Y125226D01*
Y125331D01*
Y125436D01*
Y125541D01*
Y125646D01*
X282318D01*
Y125751D01*
Y125856D01*
X282213D01*
Y125961D01*
X282108D01*
Y126066D01*
X281793D01*
Y126171D01*
D02*
G37*
G36*
X312372Y117870D02*
X312267D01*
Y117765D01*
Y117659D01*
X312162D01*
Y117554D01*
Y117449D01*
X312057D01*
Y117344D01*
Y117239D01*
Y117134D01*
X311952D01*
Y117029D01*
Y116924D01*
Y116819D01*
X311847D01*
Y116714D01*
Y116609D01*
Y116504D01*
X311742D01*
Y116399D01*
Y116293D01*
Y116188D01*
X311637D01*
Y116083D01*
Y115978D01*
X311532D01*
Y115873D01*
Y115768D01*
Y115663D01*
X311427D01*
Y115558D01*
Y115453D01*
Y115348D01*
X311322D01*
Y115243D01*
Y115138D01*
X313318D01*
Y115243D01*
Y115348D01*
X313213D01*
Y115453D01*
Y115558D01*
X313108D01*
Y115663D01*
Y115768D01*
Y115873D01*
X313003D01*
Y115978D01*
Y116083D01*
Y116188D01*
X312898D01*
Y116293D01*
Y116399D01*
X312793D01*
Y116504D01*
Y116609D01*
Y116714D01*
X312688D01*
Y116819D01*
Y116924D01*
Y117029D01*
X312583D01*
Y117134D01*
Y117239D01*
Y117344D01*
X312478D01*
Y117449D01*
Y117554D01*
X312372D01*
Y117659D01*
Y117765D01*
Y117870D01*
D02*
G37*
G36*
X260356Y117765D02*
X260146D01*
Y117659D01*
Y117554D01*
Y117449D01*
X260040D01*
Y117344D01*
Y117239D01*
Y117134D01*
X259935D01*
Y117029D01*
Y116924D01*
X259830D01*
Y116819D01*
Y116714D01*
Y116609D01*
X259725D01*
Y116504D01*
Y116399D01*
Y116293D01*
X259620D01*
Y116188D01*
Y116083D01*
Y115978D01*
X259515D01*
Y115873D01*
Y115768D01*
Y115663D01*
X259410D01*
Y115558D01*
Y115453D01*
X259305D01*
Y115348D01*
Y115243D01*
Y115138D01*
X261196D01*
Y115243D01*
Y115348D01*
Y115453D01*
Y115558D01*
X261091D01*
Y115663D01*
Y115768D01*
X260986D01*
Y115873D01*
Y115978D01*
Y116083D01*
X260881D01*
Y116188D01*
Y116293D01*
Y116399D01*
X260776D01*
Y116504D01*
Y116609D01*
Y116714D01*
X260671D01*
Y116819D01*
Y116924D01*
X260566D01*
Y117029D01*
Y117134D01*
Y117239D01*
X260461D01*
Y117344D01*
Y117449D01*
Y117554D01*
X260356D01*
Y117659D01*
Y117765D01*
D02*
G37*
G36*
X253735Y118395D02*
X252369D01*
Y118290D01*
Y118185D01*
Y118080D01*
Y117975D01*
Y117870D01*
Y117765D01*
Y117659D01*
Y117554D01*
Y117449D01*
Y117344D01*
Y117239D01*
Y117134D01*
Y117029D01*
Y116924D01*
Y116819D01*
Y116714D01*
Y116609D01*
Y116504D01*
Y116399D01*
Y116293D01*
Y116188D01*
Y116083D01*
Y115978D01*
Y115873D01*
X253630D01*
Y115978D01*
X253946D01*
Y116083D01*
X254051D01*
Y116188D01*
X254261D01*
Y116293D01*
X254366D01*
Y116399D01*
Y116504D01*
X254471D01*
Y116609D01*
Y116714D01*
X254576D01*
Y116819D01*
Y116924D01*
Y117029D01*
Y117134D01*
Y117239D01*
Y117344D01*
Y117449D01*
Y117554D01*
X254471D01*
Y117659D01*
Y117765D01*
Y117870D01*
X254366D01*
Y117975D01*
X254261D01*
Y118080D01*
X254156D01*
Y118185D01*
X253946D01*
Y118290D01*
X253735D01*
Y118395D01*
D02*
G37*
G36*
X253841Y115453D02*
X252685D01*
Y115348D01*
X252369D01*
Y115243D01*
Y115138D01*
Y115032D01*
Y114927D01*
Y114822D01*
Y114717D01*
Y114612D01*
Y114507D01*
Y114402D01*
Y114297D01*
Y114192D01*
Y114087D01*
Y113982D01*
Y113876D01*
Y113771D01*
Y113666D01*
Y113561D01*
Y113456D01*
Y113351D01*
Y113246D01*
Y113141D01*
Y113036D01*
Y112931D01*
Y112826D01*
Y112721D01*
X253946D01*
Y112826D01*
X254261D01*
Y112931D01*
X254471D01*
Y113036D01*
X254576D01*
Y113141D01*
X254681D01*
Y113246D01*
X254786D01*
Y113351D01*
X254891D01*
Y113456D01*
Y113561D01*
Y113666D01*
X254996D01*
Y113771D01*
Y113876D01*
Y113982D01*
Y114087D01*
Y114192D01*
Y114297D01*
Y114402D01*
Y114507D01*
X254891D01*
Y114612D01*
Y114717D01*
Y114822D01*
X254786D01*
Y114927D01*
X254681D01*
Y115032D01*
X254576D01*
Y115138D01*
X254471D01*
Y115243D01*
X254261D01*
Y115348D01*
X253841D01*
Y115453D01*
D02*
G37*
G36*
X268027Y118395D02*
X266766D01*
Y118290D01*
Y118185D01*
Y118080D01*
Y117975D01*
Y117870D01*
Y117765D01*
Y117659D01*
Y117554D01*
Y117449D01*
Y117344D01*
Y117239D01*
Y117134D01*
Y117029D01*
Y116924D01*
Y116819D01*
Y116714D01*
Y116609D01*
Y116504D01*
Y116399D01*
Y116293D01*
Y116188D01*
Y116083D01*
Y115978D01*
Y115873D01*
Y115768D01*
Y115663D01*
X268237D01*
Y115768D01*
X268447D01*
Y115873D01*
X268657D01*
Y115978D01*
X268762D01*
Y116083D01*
X268868D01*
Y116188D01*
X268973D01*
Y116293D01*
Y116399D01*
Y116504D01*
X269078D01*
Y116609D01*
Y116714D01*
Y116819D01*
Y116924D01*
Y117029D01*
Y117134D01*
Y117239D01*
Y117344D01*
Y117449D01*
Y117554D01*
X268973D01*
Y117659D01*
Y117765D01*
X268868D01*
Y117870D01*
Y117975D01*
X268762D01*
Y118080D01*
X268552D01*
Y118185D01*
X268342D01*
Y118290D01*
X268027D01*
Y118395D01*
D02*
G37*
G36*
X296715Y118500D02*
X295874D01*
Y118395D01*
X295559D01*
Y118290D01*
X295349D01*
Y118185D01*
X295244D01*
Y118080D01*
X295034D01*
Y117975D01*
X294929D01*
Y117870D01*
X294823D01*
Y117765D01*
Y117659D01*
X294718D01*
Y117554D01*
X294613D01*
Y117449D01*
Y117344D01*
X294508D01*
Y117239D01*
Y117134D01*
X294403D01*
Y117029D01*
Y116924D01*
Y116819D01*
X294298D01*
Y116714D01*
Y116609D01*
Y116504D01*
Y116399D01*
X294193D01*
Y116293D01*
Y116188D01*
Y116083D01*
Y115978D01*
Y115873D01*
Y115768D01*
Y115663D01*
Y115558D01*
Y115453D01*
Y115348D01*
Y115243D01*
Y115138D01*
Y115032D01*
Y114927D01*
Y114822D01*
Y114717D01*
X294298D01*
Y114612D01*
Y114507D01*
Y114402D01*
Y114297D01*
X294403D01*
Y114192D01*
Y114087D01*
Y113982D01*
X294508D01*
Y113876D01*
Y113771D01*
X294613D01*
Y113666D01*
Y113561D01*
X294718D01*
Y113456D01*
X294823D01*
Y113351D01*
Y113246D01*
X294929D01*
Y113141D01*
X295034D01*
Y113036D01*
X295139D01*
Y112931D01*
X295349D01*
Y112826D01*
X295559D01*
Y112721D01*
X295769D01*
Y112616D01*
X296820D01*
Y112721D01*
X297135D01*
Y112826D01*
X297345D01*
Y112931D01*
X297450D01*
Y113036D01*
X297661D01*
Y113141D01*
X297766D01*
Y113246D01*
X297871D01*
Y113351D01*
Y113456D01*
X297976D01*
Y113561D01*
X298081D01*
Y113666D01*
Y113771D01*
X298186D01*
Y113876D01*
Y113982D01*
X298291D01*
Y114087D01*
Y114192D01*
Y114297D01*
Y114402D01*
X298396D01*
Y114507D01*
Y114612D01*
Y114717D01*
Y114822D01*
Y114927D01*
X298501D01*
Y115032D01*
Y115138D01*
Y115243D01*
Y115348D01*
Y115453D01*
Y115558D01*
Y115663D01*
Y115768D01*
Y115873D01*
Y115978D01*
Y116083D01*
Y116188D01*
X298396D01*
Y116293D01*
Y116399D01*
Y116504D01*
Y116609D01*
Y116714D01*
X298291D01*
Y116819D01*
Y116924D01*
Y117029D01*
X298186D01*
Y117134D01*
Y117239D01*
Y117344D01*
X298081D01*
Y117449D01*
Y117554D01*
X297976D01*
Y117659D01*
X297871D01*
Y117765D01*
X297766D01*
Y117870D01*
X297661D01*
Y117975D01*
X297556D01*
Y118080D01*
X297450D01*
Y118185D01*
X297345D01*
Y118290D01*
X297135D01*
Y118395D01*
X296715D01*
Y118500D01*
D02*
G37*
G36*
X240285Y128798D02*
X237237D01*
Y128693D01*
X236292D01*
Y128588D01*
X235556D01*
Y128483D01*
X235031D01*
Y128378D01*
X234505D01*
Y128273D01*
X234085D01*
Y128168D01*
X233664D01*
Y128063D01*
X233349D01*
Y127958D01*
X232929D01*
Y127853D01*
X232613D01*
Y127748D01*
X232298D01*
Y127643D01*
X232193D01*
Y127537D01*
X232088D01*
Y127432D01*
Y127327D01*
Y127222D01*
Y127117D01*
Y127012D01*
Y126907D01*
Y126802D01*
Y126697D01*
Y126592D01*
Y126487D01*
Y126382D01*
Y126276D01*
Y126171D01*
Y126066D01*
Y125961D01*
Y125856D01*
Y125751D01*
Y125646D01*
Y125541D01*
Y125436D01*
Y125331D01*
Y125226D01*
Y125120D01*
Y125015D01*
Y124910D01*
Y124805D01*
Y124700D01*
Y124595D01*
Y124490D01*
Y124385D01*
Y124280D01*
Y124175D01*
Y124070D01*
Y123965D01*
Y123860D01*
Y123754D01*
Y123649D01*
Y123544D01*
Y123439D01*
Y123334D01*
Y123229D01*
Y123124D01*
Y123019D01*
Y122914D01*
Y122809D01*
Y122704D01*
Y122599D01*
Y122493D01*
Y122388D01*
X245539D01*
Y122493D01*
Y122599D01*
Y122704D01*
Y122809D01*
Y122914D01*
Y123019D01*
Y123124D01*
Y123229D01*
Y123334D01*
Y123439D01*
Y123544D01*
Y123649D01*
Y123754D01*
Y123860D01*
Y123965D01*
Y124070D01*
Y124175D01*
Y124280D01*
Y124385D01*
Y124490D01*
Y124595D01*
Y124700D01*
Y124805D01*
Y124910D01*
Y125015D01*
Y125120D01*
Y125226D01*
Y125331D01*
Y125436D01*
Y125541D01*
Y125646D01*
Y125751D01*
Y125856D01*
Y125961D01*
Y126066D01*
Y126171D01*
Y126276D01*
Y126382D01*
Y126487D01*
Y126592D01*
Y126697D01*
Y126802D01*
Y126907D01*
Y127012D01*
Y127117D01*
Y127222D01*
Y127327D01*
Y127432D01*
Y127537D01*
X245434D01*
Y127643D01*
X245224D01*
Y127748D01*
X244908D01*
Y127853D01*
X244488D01*
Y127958D01*
X244173D01*
Y128063D01*
X243753D01*
Y128168D01*
X243332D01*
Y128273D01*
X242912D01*
Y128378D01*
X242386D01*
Y128483D01*
X241861D01*
Y128588D01*
X241125D01*
Y128693D01*
X240285D01*
Y128798D01*
D02*
G37*
G36*
X245539Y121968D02*
X239024D01*
Y121863D01*
Y121758D01*
Y121653D01*
Y121548D01*
Y121443D01*
Y121337D01*
Y121232D01*
Y121127D01*
Y121022D01*
Y120917D01*
Y120812D01*
Y120707D01*
Y120602D01*
Y120497D01*
Y120392D01*
Y120287D01*
Y120182D01*
Y120077D01*
Y119971D01*
Y119866D01*
Y119761D01*
Y119656D01*
Y119551D01*
Y119446D01*
Y119341D01*
Y119236D01*
Y119131D01*
Y119026D01*
Y118921D01*
Y118816D01*
Y118710D01*
Y118605D01*
Y118500D01*
Y118395D01*
Y118290D01*
Y118185D01*
Y118080D01*
Y117975D01*
Y117870D01*
Y117765D01*
Y117659D01*
Y117554D01*
Y117449D01*
Y117344D01*
Y117239D01*
Y117134D01*
Y117029D01*
Y116924D01*
Y116819D01*
Y116714D01*
X245539D01*
Y116819D01*
Y116924D01*
Y117029D01*
Y117134D01*
Y117239D01*
Y117344D01*
Y117449D01*
Y117554D01*
Y117659D01*
Y117765D01*
Y117870D01*
Y117975D01*
Y118080D01*
Y118185D01*
Y118290D01*
Y118395D01*
Y118500D01*
Y118605D01*
Y118710D01*
Y118816D01*
Y118921D01*
Y119026D01*
Y119131D01*
Y119236D01*
Y119341D01*
Y119446D01*
Y119551D01*
Y119656D01*
Y119761D01*
Y119866D01*
Y119971D01*
Y120077D01*
Y120182D01*
Y120287D01*
Y120392D01*
Y120497D01*
Y120602D01*
Y120707D01*
Y120812D01*
Y120917D01*
Y121022D01*
Y121127D01*
Y121232D01*
Y121337D01*
Y121443D01*
Y121548D01*
Y121653D01*
Y121758D01*
Y121863D01*
Y121968D01*
D02*
G37*
G36*
X238603D02*
X232088D01*
Y121863D01*
Y121758D01*
Y121653D01*
Y121548D01*
Y121443D01*
Y121337D01*
Y121232D01*
Y121127D01*
Y121022D01*
Y120917D01*
Y120812D01*
Y120707D01*
Y120602D01*
Y120497D01*
Y120392D01*
Y120287D01*
Y120182D01*
Y120077D01*
Y119971D01*
Y119866D01*
Y119761D01*
Y119656D01*
Y119551D01*
Y119446D01*
Y119341D01*
Y119236D01*
Y119131D01*
Y119026D01*
Y118921D01*
Y118816D01*
Y118710D01*
Y118605D01*
Y118500D01*
Y118395D01*
Y118290D01*
Y118185D01*
Y118080D01*
Y117975D01*
Y117870D01*
Y117765D01*
Y117659D01*
Y117554D01*
Y117449D01*
Y117344D01*
Y117239D01*
Y117134D01*
Y117029D01*
Y116924D01*
Y116819D01*
Y116714D01*
X238603D01*
Y116819D01*
Y116924D01*
Y117029D01*
Y117134D01*
Y117239D01*
Y117344D01*
Y117449D01*
Y117554D01*
Y117659D01*
Y117765D01*
Y117870D01*
Y117975D01*
Y118080D01*
Y118185D01*
Y118290D01*
Y118395D01*
Y118500D01*
Y118605D01*
Y118710D01*
Y118816D01*
Y118921D01*
Y119026D01*
Y119131D01*
Y119236D01*
Y119341D01*
Y119446D01*
Y119551D01*
Y119656D01*
Y119761D01*
Y119866D01*
Y119971D01*
Y120077D01*
Y120182D01*
Y120287D01*
Y120392D01*
Y120497D01*
Y120602D01*
Y120707D01*
Y120812D01*
Y120917D01*
Y121022D01*
Y121127D01*
Y121232D01*
Y121337D01*
Y121443D01*
Y121548D01*
Y121653D01*
Y121758D01*
Y121863D01*
Y121968D01*
D02*
G37*
G36*
X245539Y116293D02*
X239024D01*
Y116188D01*
Y116083D01*
Y115978D01*
Y115873D01*
Y115768D01*
Y115663D01*
Y115558D01*
Y115453D01*
Y115348D01*
Y115243D01*
Y115138D01*
Y115032D01*
Y114927D01*
Y114822D01*
Y114717D01*
Y114612D01*
Y114507D01*
Y114402D01*
Y114297D01*
Y114192D01*
Y114087D01*
Y113982D01*
Y113876D01*
Y113771D01*
Y113666D01*
Y113561D01*
Y113456D01*
Y113351D01*
Y113246D01*
Y113141D01*
Y113036D01*
Y112931D01*
Y112826D01*
Y112721D01*
Y112616D01*
Y112510D01*
Y112405D01*
Y112300D01*
Y112195D01*
Y112090D01*
Y111985D01*
Y111880D01*
Y111775D01*
Y111670D01*
Y111565D01*
Y111460D01*
Y111354D01*
Y111249D01*
Y111144D01*
Y111039D01*
Y110934D01*
Y110829D01*
Y110724D01*
Y110619D01*
Y110514D01*
Y110409D01*
Y110304D01*
Y110199D01*
X239549D01*
Y110304D01*
X240390D01*
Y110409D01*
X240915D01*
Y110514D01*
X241441D01*
Y110619D01*
X241861D01*
Y110724D01*
X242176D01*
Y110829D01*
X242492D01*
Y110934D01*
X242807D01*
Y111039D01*
X243122D01*
Y111144D01*
X243437D01*
Y111249D01*
X243647D01*
Y111354D01*
X243858D01*
Y111460D01*
X244068D01*
Y111565D01*
X244383D01*
Y111670D01*
X244593D01*
Y111775D01*
X244698D01*
Y111880D01*
X244908D01*
Y111985D01*
X245119D01*
Y112090D01*
X245329D01*
Y112195D01*
X245434D01*
Y112300D01*
X245539D01*
Y112405D01*
Y112510D01*
Y112616D01*
Y112721D01*
Y112826D01*
Y112931D01*
Y113036D01*
Y113141D01*
Y113246D01*
Y113351D01*
Y113456D01*
Y113561D01*
Y113666D01*
Y113771D01*
Y113876D01*
Y113982D01*
Y114087D01*
Y114192D01*
Y114297D01*
Y114402D01*
Y114507D01*
Y114612D01*
Y114717D01*
Y114822D01*
Y114927D01*
Y115032D01*
Y115138D01*
Y115243D01*
Y115348D01*
Y115453D01*
Y115558D01*
Y115663D01*
Y115768D01*
Y115873D01*
Y115978D01*
Y116083D01*
Y116188D01*
Y116293D01*
D02*
G37*
G36*
X238603D02*
X232088D01*
Y116188D01*
Y116083D01*
Y115978D01*
Y115873D01*
Y115768D01*
Y115663D01*
Y115558D01*
Y115453D01*
Y115348D01*
Y115243D01*
Y115138D01*
Y115032D01*
Y114927D01*
Y114822D01*
Y114717D01*
Y114612D01*
Y114507D01*
Y114402D01*
Y114297D01*
Y114192D01*
Y114087D01*
Y113982D01*
Y113876D01*
Y113771D01*
Y113666D01*
Y113561D01*
Y113456D01*
Y113351D01*
Y113246D01*
Y113141D01*
Y113036D01*
Y112931D01*
Y112826D01*
Y112721D01*
Y112616D01*
Y112510D01*
Y112405D01*
Y112300D01*
X232193D01*
Y112195D01*
X232298D01*
Y112090D01*
X232508D01*
Y111985D01*
X232719D01*
Y111880D01*
X232929D01*
Y111775D01*
X233034D01*
Y111670D01*
X233244D01*
Y111565D01*
X233559D01*
Y111460D01*
X233769D01*
Y111354D01*
X233980D01*
Y111249D01*
X234190D01*
Y111144D01*
X234505D01*
Y111039D01*
X234820D01*
Y110934D01*
X235136D01*
Y110829D01*
X235451D01*
Y110724D01*
X235766D01*
Y110619D01*
X236186D01*
Y110514D01*
X236712D01*
Y110409D01*
X237237D01*
Y110304D01*
X238078D01*
Y110199D01*
X238603D01*
Y110304D01*
Y110409D01*
Y110514D01*
Y110619D01*
Y110724D01*
Y110829D01*
Y110934D01*
Y111039D01*
Y111144D01*
Y111249D01*
Y111354D01*
Y111460D01*
Y111565D01*
Y111670D01*
Y111775D01*
Y111880D01*
Y111985D01*
Y112090D01*
Y112195D01*
Y112300D01*
Y112405D01*
Y112510D01*
Y112616D01*
Y112721D01*
Y112826D01*
Y112931D01*
Y113036D01*
Y113141D01*
Y113246D01*
Y113351D01*
Y113456D01*
Y113561D01*
Y113666D01*
Y113771D01*
Y113876D01*
Y113982D01*
Y114087D01*
Y114192D01*
Y114297D01*
Y114402D01*
Y114507D01*
Y114612D01*
Y114717D01*
Y114822D01*
Y114927D01*
Y115032D01*
Y115138D01*
Y115243D01*
Y115348D01*
Y115453D01*
Y115558D01*
Y115663D01*
Y115768D01*
Y115873D01*
Y115978D01*
Y116083D01*
Y116188D01*
Y116293D01*
D02*
G37*
%LPD*%
G36*
X238919Y128063D02*
Y127958D01*
Y127853D01*
Y127748D01*
Y127643D01*
Y127537D01*
Y127432D01*
X238708D01*
Y127537D01*
Y127643D01*
Y127748D01*
Y127853D01*
Y127958D01*
Y128063D01*
Y128168D01*
X238919D01*
Y128063D01*
D02*
G37*
G36*
X239864D02*
X239759D01*
Y127958D01*
Y127853D01*
Y127748D01*
X239654D01*
Y127643D01*
Y127537D01*
X239549D01*
Y127432D01*
Y127327D01*
X239339D01*
Y127432D01*
Y127537D01*
Y127643D01*
Y127748D01*
X239444D01*
Y127853D01*
Y127958D01*
Y128063D01*
Y128168D01*
X239864D01*
Y128063D01*
D02*
G37*
G36*
X238183D02*
Y127958D01*
Y127853D01*
Y127748D01*
X238288D01*
Y127643D01*
Y127537D01*
Y127432D01*
Y127327D01*
X238078D01*
Y127432D01*
Y127537D01*
X237973D01*
Y127643D01*
Y127748D01*
Y127853D01*
X237868D01*
Y127958D01*
Y128063D01*
X237763D01*
Y128168D01*
X238183D01*
Y128063D01*
D02*
G37*
G36*
X240705D02*
X240810D01*
Y127958D01*
Y127853D01*
X240705D01*
Y127748D01*
X240600D01*
Y127643D01*
X240495D01*
Y127537D01*
X240390D01*
Y127432D01*
Y127327D01*
X240285D01*
Y127222D01*
X240180D01*
Y127117D01*
X240074D01*
Y127012D01*
X239864D01*
Y127117D01*
Y127222D01*
X239969D01*
Y127327D01*
Y127432D01*
X240074D01*
Y127537D01*
X240180D01*
Y127643D01*
Y127748D01*
X240285D01*
Y127853D01*
X240390D01*
Y127958D01*
Y128063D01*
X240495D01*
Y128168D01*
X240705D01*
Y128063D01*
D02*
G37*
G36*
X237132D02*
X237237D01*
Y127958D01*
X237342D01*
Y127853D01*
Y127748D01*
X237447D01*
Y127643D01*
Y127537D01*
X237552D01*
Y127432D01*
X237658D01*
Y127327D01*
Y127222D01*
X237763D01*
Y127117D01*
Y127012D01*
X237552D01*
Y127117D01*
X237447D01*
Y127222D01*
X237342D01*
Y127327D01*
X237237D01*
Y127432D01*
Y127537D01*
X237132D01*
Y127643D01*
X237027D01*
Y127748D01*
X236922D01*
Y127853D01*
X236817D01*
Y127958D01*
Y128063D01*
X236922D01*
Y128168D01*
X237132D01*
Y128063D01*
D02*
G37*
G36*
X242176Y127853D02*
X242386D01*
Y127748D01*
X242176D01*
Y127643D01*
X242071D01*
Y127537D01*
X241861D01*
Y127432D01*
X241756D01*
Y127327D01*
X241546D01*
Y127222D01*
X241441D01*
Y127117D01*
X241231D01*
Y127012D01*
X241020D01*
Y126907D01*
X240915D01*
Y126802D01*
X240705D01*
Y126697D01*
X240600D01*
Y126592D01*
X240285D01*
Y126697D01*
Y126802D01*
X240390D01*
Y126907D01*
X240600D01*
Y127012D01*
X240705D01*
Y127117D01*
X240810D01*
Y127222D01*
X240915D01*
Y127327D01*
X241125D01*
Y127432D01*
X241231D01*
Y127537D01*
X241336D01*
Y127643D01*
X241441D01*
Y127748D01*
X241546D01*
Y127853D01*
X241756D01*
Y127958D01*
X242176D01*
Y127853D01*
D02*
G37*
G36*
X235871D02*
X236081D01*
Y127748D01*
X236186D01*
Y127643D01*
X236292D01*
Y127537D01*
X236397D01*
Y127432D01*
X236607D01*
Y127327D01*
X236712D01*
Y127222D01*
X236817D01*
Y127117D01*
X236922D01*
Y127012D01*
X237027D01*
Y126907D01*
X237237D01*
Y126802D01*
X237342D01*
Y126697D01*
Y126592D01*
X237027D01*
Y126697D01*
X236922D01*
Y126802D01*
X236712D01*
Y126907D01*
X236607D01*
Y127012D01*
X236397D01*
Y127117D01*
X236292D01*
Y127222D01*
X236081D01*
Y127327D01*
X235871D01*
Y127432D01*
X235766D01*
Y127537D01*
X235556D01*
Y127643D01*
X235451D01*
Y127748D01*
X235241D01*
Y127853D01*
X235451D01*
Y127958D01*
X235871D01*
Y127853D01*
D02*
G37*
G36*
X243963Y127432D02*
X244383D01*
Y127327D01*
X244698D01*
Y127222D01*
X244908D01*
Y127117D01*
X244488D01*
Y127012D01*
X244173D01*
Y126907D01*
X243753D01*
Y126802D01*
X243332D01*
Y126697D01*
X243017D01*
Y126592D01*
X242597D01*
Y126487D01*
X242176D01*
Y126382D01*
X241861D01*
Y126276D01*
X241441D01*
Y126171D01*
X241125D01*
Y126066D01*
X240600D01*
Y126171D01*
Y126276D01*
X240810D01*
Y126382D01*
X241125D01*
Y126487D01*
X241441D01*
Y126592D01*
X241651D01*
Y126697D01*
X241966D01*
Y126802D01*
X242176D01*
Y126907D01*
X242492D01*
Y127012D01*
X242807D01*
Y127117D01*
X243017D01*
Y127222D01*
X243332D01*
Y127327D01*
X243542D01*
Y127432D01*
X243858D01*
Y127537D01*
X243963D01*
Y127432D01*
D02*
G37*
G36*
X233769D02*
X234085D01*
Y127327D01*
X234295D01*
Y127222D01*
X234610D01*
Y127117D01*
X234820D01*
Y127012D01*
X235136D01*
Y126907D01*
X235451D01*
Y126802D01*
X235661D01*
Y126697D01*
X235976D01*
Y126592D01*
X236186D01*
Y126487D01*
X236502D01*
Y126382D01*
X236817D01*
Y126276D01*
X237027D01*
Y126171D01*
Y126066D01*
X236502D01*
Y126171D01*
X236186D01*
Y126276D01*
X235766D01*
Y126382D01*
X235451D01*
Y126487D01*
X235031D01*
Y126592D01*
X234610D01*
Y126697D01*
X234295D01*
Y126802D01*
X233875D01*
Y126907D01*
X233454D01*
Y127012D01*
X233139D01*
Y127117D01*
X232824D01*
Y127222D01*
X232929D01*
Y127327D01*
X233349D01*
Y127432D01*
X233664D01*
Y127537D01*
X233769D01*
Y127432D01*
D02*
G37*
G36*
X244908Y125751D02*
Y125646D01*
Y125541D01*
Y125436D01*
Y125331D01*
Y125226D01*
X243332D01*
Y125331D01*
X241336D01*
Y125436D01*
X240705D01*
Y125541D01*
Y125646D01*
X241546D01*
Y125751D01*
X243542D01*
Y125856D01*
X244908D01*
Y125751D01*
D02*
G37*
G36*
X234085D02*
X236081D01*
Y125646D01*
X236922D01*
Y125541D01*
Y125436D01*
X236292D01*
Y125331D01*
X234295D01*
Y125226D01*
X232719D01*
Y125331D01*
Y125436D01*
Y125541D01*
Y125646D01*
Y125751D01*
Y125856D01*
X234085D01*
Y125751D01*
D02*
G37*
G36*
X239129Y126697D02*
X239444D01*
Y126592D01*
X239549D01*
Y126487D01*
X239759D01*
Y126382D01*
Y126276D01*
X239864D01*
Y126171D01*
X239969D01*
Y126066D01*
Y125961D01*
X240074D01*
Y125856D01*
Y125751D01*
Y125646D01*
Y125541D01*
Y125436D01*
Y125331D01*
Y125226D01*
Y125120D01*
X239969D01*
Y125015D01*
Y124910D01*
X239864D01*
Y124805D01*
Y124700D01*
X239759D01*
Y124595D01*
X239654D01*
Y124490D01*
X239444D01*
Y124385D01*
X239234D01*
Y124280D01*
X238393D01*
Y124385D01*
X238183D01*
Y124490D01*
X237973D01*
Y124595D01*
X237868D01*
Y124700D01*
X237763D01*
Y124805D01*
Y124910D01*
X237658D01*
Y125015D01*
Y125120D01*
X237552D01*
Y125226D01*
Y125331D01*
Y125436D01*
Y125541D01*
Y125646D01*
Y125751D01*
Y125856D01*
X237658D01*
Y125961D01*
Y126066D01*
Y126171D01*
X237763D01*
Y126276D01*
X237868D01*
Y126382D01*
X237973D01*
Y126487D01*
X238078D01*
Y126592D01*
X238183D01*
Y126697D01*
X238498D01*
Y126802D01*
X239129D01*
Y126697D01*
D02*
G37*
G36*
X241020Y124910D02*
X241441D01*
Y124805D01*
X241756D01*
Y124700D01*
X242176D01*
Y124595D01*
X242492D01*
Y124490D01*
X242912D01*
Y124385D01*
X243332D01*
Y124280D01*
X243647D01*
Y124175D01*
X244068D01*
Y124070D01*
X244383D01*
Y123965D01*
X244803D01*
Y123860D01*
X244908D01*
Y123754D01*
Y123649D01*
Y123544D01*
Y123439D01*
Y123334D01*
Y123229D01*
X244593D01*
Y123334D01*
X244383D01*
Y123439D01*
X244068D01*
Y123544D01*
X243753D01*
Y123649D01*
X243542D01*
Y123754D01*
X243227D01*
Y123860D01*
X243017D01*
Y123965D01*
X242702D01*
Y124070D01*
X242386D01*
Y124175D01*
X242176D01*
Y124280D01*
X241861D01*
Y124385D01*
X241651D01*
Y124490D01*
X241336D01*
Y124595D01*
X241020D01*
Y124700D01*
X240810D01*
Y124805D01*
X240600D01*
Y124910D01*
Y125015D01*
X241020D01*
Y124910D01*
D02*
G37*
G36*
X237027D02*
Y124805D01*
X236817D01*
Y124700D01*
X236607D01*
Y124595D01*
X236292D01*
Y124490D01*
X235976D01*
Y124385D01*
X235766D01*
Y124280D01*
X235451D01*
Y124175D01*
X235241D01*
Y124070D01*
X234925D01*
Y123965D01*
X234610D01*
Y123860D01*
X234400D01*
Y123754D01*
X234085D01*
Y123649D01*
X233875D01*
Y123544D01*
X233559D01*
Y123439D01*
X233244D01*
Y123334D01*
X233034D01*
Y123229D01*
X232719D01*
Y123334D01*
Y123439D01*
Y123544D01*
Y123649D01*
Y123754D01*
Y123860D01*
X232824D01*
Y123965D01*
X233244D01*
Y124070D01*
X233559D01*
Y124175D01*
X233980D01*
Y124280D01*
X234295D01*
Y124385D01*
X234715D01*
Y124490D01*
X235136D01*
Y124595D01*
X235451D01*
Y124700D01*
X235871D01*
Y124805D01*
X236292D01*
Y124910D01*
X236607D01*
Y125015D01*
X237027D01*
Y124910D01*
D02*
G37*
G36*
X240495Y124385D02*
X240705D01*
Y124280D01*
X240915D01*
Y124175D01*
X241020D01*
Y124070D01*
X241231D01*
Y123965D01*
X241336D01*
Y123860D01*
X241546D01*
Y123754D01*
X241651D01*
Y123649D01*
X241861D01*
Y123544D01*
X241966D01*
Y123439D01*
X242176D01*
Y123334D01*
X242281D01*
Y123229D01*
X242492D01*
Y123124D01*
X242702D01*
Y123019D01*
X242597D01*
Y122914D01*
X242071D01*
Y123019D01*
X241861D01*
Y123124D01*
X241651D01*
Y123229D01*
X241546D01*
Y123334D01*
X241441D01*
Y123439D01*
X241336D01*
Y123544D01*
X241125D01*
Y123649D01*
X241020D01*
Y123754D01*
X240915D01*
Y123860D01*
X240810D01*
Y123965D01*
X240705D01*
Y124070D01*
X240495D01*
Y124175D01*
X240390D01*
Y124280D01*
X240285D01*
Y124385D01*
Y124490D01*
X240495D01*
Y124385D01*
D02*
G37*
G36*
X240074Y123965D02*
X240180D01*
Y123860D01*
X240285D01*
Y123754D01*
Y123649D01*
X240390D01*
Y123544D01*
X240495D01*
Y123439D01*
X240600D01*
Y123334D01*
X240705D01*
Y123229D01*
Y123124D01*
X240810D01*
Y123019D01*
Y122914D01*
X240600D01*
Y123019D01*
X240390D01*
Y123124D01*
X240285D01*
Y123229D01*
Y123334D01*
X240180D01*
Y123439D01*
X240074D01*
Y123544D01*
Y123649D01*
X239969D01*
Y123754D01*
X239864D01*
Y123860D01*
Y123965D01*
Y124070D01*
X240074D01*
Y123965D01*
D02*
G37*
G36*
X239549Y123649D02*
Y123544D01*
X239654D01*
Y123439D01*
Y123334D01*
Y123229D01*
X239759D01*
Y123124D01*
Y123019D01*
X239654D01*
Y122914D01*
X239549D01*
Y123019D01*
X239444D01*
Y123124D01*
Y123229D01*
Y123334D01*
X239339D01*
Y123439D01*
Y123544D01*
Y123649D01*
Y123754D01*
X239549D01*
Y123649D01*
D02*
G37*
G36*
X238919Y123544D02*
Y123439D01*
Y123334D01*
Y123229D01*
Y123124D01*
Y123019D01*
Y122914D01*
X238813D01*
Y123019D01*
X238708D01*
Y123124D01*
Y123229D01*
Y123334D01*
Y123439D01*
Y123544D01*
Y123649D01*
X238919D01*
Y123544D01*
D02*
G37*
G36*
X238288Y123649D02*
Y123544D01*
Y123439D01*
Y123334D01*
X238183D01*
Y123229D01*
Y123124D01*
Y123019D01*
X238078D01*
Y122914D01*
X237868D01*
Y123019D01*
Y123124D01*
Y123229D01*
X237973D01*
Y123334D01*
Y123439D01*
Y123544D01*
X238078D01*
Y123649D01*
Y123754D01*
X238288D01*
Y123649D01*
D02*
G37*
G36*
X237763Y123965D02*
Y123860D01*
Y123754D01*
X237658D01*
Y123649D01*
X237552D01*
Y123544D01*
Y123439D01*
X237447D01*
Y123334D01*
X237342D01*
Y123229D01*
Y123124D01*
X237237D01*
Y123019D01*
X237027D01*
Y122914D01*
X236817D01*
Y123019D01*
Y123124D01*
X236922D01*
Y123229D01*
Y123334D01*
X237027D01*
Y123439D01*
X237132D01*
Y123544D01*
X237237D01*
Y123649D01*
X237342D01*
Y123754D01*
Y123860D01*
X237447D01*
Y123965D01*
X237552D01*
Y124070D01*
X237763D01*
Y123965D01*
D02*
G37*
G36*
X237342Y124385D02*
Y124280D01*
X237237D01*
Y124175D01*
X237132D01*
Y124070D01*
X236922D01*
Y123965D01*
X236817D01*
Y123860D01*
X236712D01*
Y123754D01*
X236607D01*
Y123649D01*
X236502D01*
Y123544D01*
X236292D01*
Y123439D01*
X236186D01*
Y123334D01*
X236081D01*
Y123229D01*
X235976D01*
Y123124D01*
X235766D01*
Y123019D01*
X235556D01*
Y122914D01*
X235031D01*
Y123019D01*
X234925D01*
Y123124D01*
X235136D01*
Y123229D01*
X235346D01*
Y123334D01*
X235451D01*
Y123439D01*
X235661D01*
Y123544D01*
X235766D01*
Y123649D01*
X235976D01*
Y123754D01*
X236081D01*
Y123860D01*
X236292D01*
Y123965D01*
X236397D01*
Y124070D01*
X236607D01*
Y124175D01*
X236817D01*
Y124280D01*
X236922D01*
Y124385D01*
X237132D01*
Y124490D01*
X237342D01*
Y124385D01*
D02*
G37*
%LPC*%
G36*
X239234Y126382D02*
X238393D01*
Y126276D01*
X238288D01*
Y126171D01*
X238183D01*
Y126066D01*
X238078D01*
Y125961D01*
X237973D01*
Y125856D01*
Y125751D01*
Y125646D01*
Y125541D01*
Y125436D01*
Y125331D01*
Y125226D01*
Y125120D01*
X238078D01*
Y125015D01*
Y124910D01*
X238183D01*
Y124805D01*
X238393D01*
Y124700D01*
X238603D01*
Y124595D01*
X239024D01*
Y124700D01*
X239234D01*
Y124805D01*
X239444D01*
Y124910D01*
X239549D01*
Y125015D01*
Y125120D01*
X239654D01*
Y125226D01*
Y125331D01*
X239759D01*
Y125436D01*
Y125541D01*
Y125646D01*
X239654D01*
Y125751D01*
Y125856D01*
Y125961D01*
X239549D01*
Y126066D01*
X239444D01*
Y126171D01*
X239339D01*
Y126276D01*
X239234D01*
Y126382D01*
D02*
G37*
%LPD*%
G36*
X244698Y121232D02*
Y121127D01*
Y121022D01*
Y120917D01*
Y120812D01*
Y120707D01*
Y120602D01*
Y120497D01*
Y120392D01*
Y120287D01*
Y120182D01*
Y120077D01*
Y119971D01*
Y119866D01*
Y119761D01*
Y119656D01*
Y119551D01*
Y119446D01*
Y119341D01*
Y119236D01*
Y119131D01*
Y119026D01*
Y118921D01*
Y118816D01*
Y118710D01*
Y118605D01*
Y118500D01*
Y118395D01*
Y118290D01*
Y118185D01*
Y118080D01*
Y117975D01*
Y117870D01*
Y117765D01*
Y117659D01*
Y117554D01*
Y117449D01*
Y117344D01*
X244173D01*
Y117449D01*
Y117554D01*
Y117659D01*
Y117765D01*
Y117870D01*
Y117975D01*
Y118080D01*
Y118185D01*
Y118290D01*
Y118395D01*
Y118500D01*
Y118605D01*
Y118710D01*
Y118816D01*
Y118921D01*
Y119026D01*
Y119131D01*
Y119236D01*
Y119341D01*
Y119446D01*
Y119551D01*
Y119656D01*
Y119761D01*
Y119866D01*
Y119971D01*
Y120077D01*
Y120182D01*
Y120287D01*
Y120392D01*
Y120497D01*
Y120602D01*
Y120707D01*
Y120812D01*
Y120917D01*
Y121022D01*
Y121127D01*
Y121232D01*
Y121337D01*
X244698D01*
Y121232D01*
D02*
G37*
G36*
X243227D02*
Y121127D01*
Y121022D01*
Y120917D01*
Y120812D01*
Y120707D01*
Y120602D01*
Y120497D01*
Y120392D01*
Y120287D01*
Y120182D01*
Y120077D01*
Y119971D01*
Y119866D01*
Y119761D01*
Y119656D01*
Y119551D01*
Y119446D01*
Y119341D01*
Y119236D01*
Y119131D01*
Y119026D01*
Y118921D01*
Y118816D01*
Y118710D01*
Y118605D01*
Y118500D01*
Y118395D01*
Y118290D01*
Y118185D01*
Y118080D01*
Y117975D01*
Y117870D01*
Y117765D01*
Y117659D01*
Y117554D01*
Y117449D01*
Y117344D01*
X242702D01*
Y117449D01*
Y117554D01*
Y117659D01*
Y117765D01*
Y117870D01*
Y117975D01*
Y118080D01*
Y118185D01*
Y118290D01*
Y118395D01*
Y118500D01*
Y118605D01*
Y118710D01*
Y118816D01*
Y118921D01*
Y119026D01*
Y119131D01*
Y119236D01*
Y119341D01*
Y119446D01*
Y119551D01*
Y119656D01*
Y119761D01*
Y119866D01*
Y119971D01*
Y120077D01*
Y120182D01*
Y120287D01*
Y120392D01*
Y120497D01*
Y120602D01*
Y120707D01*
Y120812D01*
Y120917D01*
Y121022D01*
Y121127D01*
Y121232D01*
Y121337D01*
X243227D01*
Y121232D01*
D02*
G37*
G36*
X241861D02*
Y121127D01*
Y121022D01*
Y120917D01*
Y120812D01*
Y120707D01*
Y120602D01*
Y120497D01*
Y120392D01*
Y120287D01*
Y120182D01*
Y120077D01*
Y119971D01*
Y119866D01*
Y119761D01*
Y119656D01*
Y119551D01*
Y119446D01*
Y119341D01*
Y119236D01*
Y119131D01*
Y119026D01*
Y118921D01*
Y118816D01*
Y118710D01*
Y118605D01*
Y118500D01*
Y118395D01*
Y118290D01*
Y118185D01*
Y118080D01*
Y117975D01*
Y117870D01*
Y117765D01*
Y117659D01*
Y117554D01*
Y117449D01*
Y117344D01*
X241336D01*
Y117449D01*
Y117554D01*
Y117659D01*
Y117765D01*
Y117870D01*
Y117975D01*
Y118080D01*
Y118185D01*
Y118290D01*
Y118395D01*
Y118500D01*
Y118605D01*
Y118710D01*
Y118816D01*
Y118921D01*
Y119026D01*
Y119131D01*
Y119236D01*
Y119341D01*
Y119446D01*
Y119551D01*
Y119656D01*
Y119761D01*
Y119866D01*
Y119971D01*
Y120077D01*
Y120182D01*
Y120287D01*
Y120392D01*
Y120497D01*
Y120602D01*
Y120707D01*
Y120812D01*
Y120917D01*
Y121022D01*
Y121127D01*
Y121232D01*
Y121337D01*
X241861D01*
Y121232D01*
D02*
G37*
G36*
X240390D02*
Y121127D01*
Y121022D01*
Y120917D01*
Y120812D01*
Y120707D01*
Y120602D01*
Y120497D01*
Y120392D01*
Y120287D01*
Y120182D01*
Y120077D01*
Y119971D01*
Y119866D01*
Y119761D01*
Y119656D01*
Y119551D01*
Y119446D01*
Y119341D01*
Y119236D01*
Y119131D01*
Y119026D01*
Y118921D01*
Y118816D01*
Y118710D01*
Y118605D01*
Y118500D01*
Y118395D01*
Y118290D01*
Y118185D01*
Y118080D01*
Y117975D01*
Y117870D01*
Y117765D01*
Y117659D01*
Y117554D01*
Y117449D01*
Y117344D01*
X239864D01*
Y117449D01*
Y117554D01*
Y117659D01*
Y117765D01*
Y117870D01*
Y117975D01*
Y118080D01*
Y118185D01*
Y118290D01*
Y118395D01*
Y118500D01*
Y118605D01*
Y118710D01*
Y118816D01*
Y118921D01*
Y119026D01*
Y119131D01*
Y119236D01*
Y119341D01*
Y119446D01*
Y119551D01*
Y119656D01*
Y119761D01*
Y119866D01*
Y119971D01*
Y120077D01*
Y120182D01*
Y120287D01*
Y120392D01*
Y120497D01*
Y120602D01*
Y120707D01*
Y120812D01*
Y120917D01*
Y121022D01*
Y121127D01*
Y121232D01*
Y121337D01*
X240390D01*
Y121232D01*
D02*
G37*
G36*
X235661D02*
Y121127D01*
Y121022D01*
Y120917D01*
Y120812D01*
Y120707D01*
Y120602D01*
Y120497D01*
Y120392D01*
Y120287D01*
Y120182D01*
Y120077D01*
Y119971D01*
Y119866D01*
Y119761D01*
Y119656D01*
X237973D01*
Y119551D01*
Y119446D01*
Y119341D01*
Y119236D01*
Y119131D01*
X235766D01*
Y119026D01*
X235661D01*
Y118921D01*
Y118816D01*
Y118710D01*
Y118605D01*
Y118500D01*
Y118395D01*
Y118290D01*
Y118185D01*
Y118080D01*
Y117975D01*
Y117870D01*
Y117765D01*
Y117659D01*
Y117554D01*
Y117449D01*
Y117344D01*
X235136D01*
Y117449D01*
X235031D01*
Y117554D01*
Y117659D01*
Y117765D01*
Y117870D01*
Y117975D01*
Y118080D01*
Y118185D01*
Y118290D01*
Y118395D01*
Y118500D01*
Y118605D01*
Y118710D01*
Y118816D01*
Y118921D01*
Y119026D01*
Y119131D01*
X232719D01*
Y119236D01*
Y119341D01*
Y119446D01*
Y119551D01*
Y119656D01*
X235031D01*
Y119761D01*
Y119866D01*
Y119971D01*
Y120077D01*
Y120182D01*
Y120287D01*
Y120392D01*
Y120497D01*
Y120602D01*
Y120707D01*
Y120812D01*
Y120917D01*
Y121022D01*
Y121127D01*
Y121232D01*
Y121337D01*
X235661D01*
Y121232D01*
D02*
G37*
G36*
X242492Y115663D02*
X242597D01*
Y115558D01*
Y115453D01*
Y115348D01*
Y115243D01*
Y115138D01*
Y115032D01*
Y114927D01*
Y114822D01*
Y114717D01*
Y114612D01*
Y114507D01*
Y114402D01*
Y114297D01*
Y114192D01*
Y114087D01*
Y113982D01*
Y113876D01*
X244908D01*
Y113771D01*
Y113666D01*
Y113561D01*
Y113456D01*
Y113351D01*
X242597D01*
Y113246D01*
Y113141D01*
Y113036D01*
Y112931D01*
Y112826D01*
Y112721D01*
Y112616D01*
Y112510D01*
Y112405D01*
Y112300D01*
Y112195D01*
Y112090D01*
Y111985D01*
Y111880D01*
Y111775D01*
Y111670D01*
Y111565D01*
X242492D01*
Y111460D01*
X242176D01*
Y111354D01*
X241966D01*
Y111460D01*
Y111565D01*
Y111670D01*
Y111775D01*
Y111880D01*
Y111985D01*
Y112090D01*
Y112195D01*
Y112300D01*
Y112405D01*
Y112510D01*
Y112616D01*
Y112721D01*
Y112826D01*
Y112931D01*
Y113036D01*
Y113141D01*
Y113246D01*
Y113351D01*
X239654D01*
Y113456D01*
Y113561D01*
Y113666D01*
Y113771D01*
Y113876D01*
X241966D01*
Y113982D01*
Y114087D01*
Y114192D01*
Y114297D01*
Y114402D01*
Y114507D01*
Y114612D01*
Y114717D01*
Y114822D01*
Y114927D01*
Y115032D01*
Y115138D01*
Y115243D01*
Y115348D01*
Y115453D01*
Y115558D01*
Y115663D01*
Y115768D01*
X242492D01*
Y115663D01*
D02*
G37*
G36*
X233454D02*
Y115558D01*
Y115453D01*
Y115348D01*
Y115243D01*
Y115138D01*
Y115032D01*
Y114927D01*
Y114822D01*
Y114717D01*
Y114612D01*
Y114507D01*
Y114402D01*
Y114297D01*
Y114192D01*
Y114087D01*
Y113982D01*
Y113876D01*
Y113771D01*
Y113666D01*
Y113561D01*
Y113456D01*
Y113351D01*
Y113246D01*
Y113141D01*
Y113036D01*
Y112931D01*
Y112826D01*
Y112721D01*
Y112616D01*
Y112510D01*
Y112405D01*
Y112300D01*
Y112195D01*
X233349D01*
Y112300D01*
X233244D01*
Y112405D01*
X233034D01*
Y112510D01*
X232929D01*
Y112616D01*
Y112721D01*
Y112826D01*
Y112931D01*
Y113036D01*
Y113141D01*
Y113246D01*
Y113351D01*
Y113456D01*
Y113561D01*
Y113666D01*
Y113771D01*
Y113876D01*
Y113982D01*
Y114087D01*
Y114192D01*
Y114297D01*
Y114402D01*
Y114507D01*
Y114612D01*
Y114717D01*
Y114822D01*
Y114927D01*
Y115032D01*
Y115138D01*
Y115243D01*
Y115348D01*
Y115453D01*
Y115558D01*
Y115663D01*
Y115768D01*
X233454D01*
Y115663D01*
D02*
G37*
G36*
X234925D02*
Y115558D01*
Y115453D01*
Y115348D01*
Y115243D01*
Y115138D01*
Y115032D01*
Y114927D01*
Y114822D01*
Y114717D01*
Y114612D01*
Y114507D01*
Y114402D01*
Y114297D01*
Y114192D01*
Y114087D01*
Y113982D01*
Y113876D01*
Y113771D01*
Y113666D01*
Y113561D01*
Y113456D01*
Y113351D01*
Y113246D01*
Y113141D01*
Y113036D01*
Y112931D01*
Y112826D01*
Y112721D01*
Y112616D01*
Y112510D01*
Y112405D01*
Y112300D01*
Y112195D01*
Y112090D01*
Y111985D01*
Y111880D01*
Y111775D01*
Y111670D01*
X234610D01*
Y111775D01*
X234400D01*
Y111880D01*
Y111985D01*
Y112090D01*
Y112195D01*
Y112300D01*
Y112405D01*
Y112510D01*
Y112616D01*
Y112721D01*
Y112826D01*
Y112931D01*
Y113036D01*
Y113141D01*
Y113246D01*
Y113351D01*
Y113456D01*
Y113561D01*
Y113666D01*
Y113771D01*
Y113876D01*
Y113982D01*
Y114087D01*
Y114192D01*
Y114297D01*
Y114402D01*
Y114507D01*
Y114612D01*
Y114717D01*
Y114822D01*
Y114927D01*
Y115032D01*
Y115138D01*
Y115243D01*
Y115348D01*
Y115453D01*
Y115558D01*
Y115663D01*
Y115768D01*
X234925D01*
Y115663D01*
D02*
G37*
G36*
X236292D02*
Y115558D01*
Y115453D01*
Y115348D01*
Y115243D01*
Y115138D01*
Y115032D01*
Y114927D01*
Y114822D01*
Y114717D01*
Y114612D01*
Y114507D01*
Y114402D01*
Y114297D01*
Y114192D01*
Y114087D01*
Y113982D01*
Y113876D01*
Y113771D01*
Y113666D01*
Y113561D01*
Y113456D01*
Y113351D01*
Y113246D01*
Y113141D01*
Y113036D01*
Y112931D01*
Y112826D01*
Y112721D01*
Y112616D01*
Y112510D01*
Y112405D01*
Y112300D01*
Y112195D01*
Y112090D01*
Y111985D01*
Y111880D01*
Y111775D01*
Y111670D01*
Y111565D01*
Y111460D01*
Y111354D01*
Y111249D01*
Y111144D01*
X236186D01*
Y111249D01*
X235766D01*
Y111354D01*
Y111460D01*
Y111565D01*
Y111670D01*
Y111775D01*
Y111880D01*
Y111985D01*
Y112090D01*
Y112195D01*
Y112300D01*
Y112405D01*
Y112510D01*
Y112616D01*
Y112721D01*
Y112826D01*
Y112931D01*
Y113036D01*
Y113141D01*
Y113246D01*
Y113351D01*
Y113456D01*
Y113561D01*
Y113666D01*
Y113771D01*
Y113876D01*
Y113982D01*
Y114087D01*
Y114192D01*
Y114297D01*
Y114402D01*
Y114507D01*
Y114612D01*
Y114717D01*
Y114822D01*
Y114927D01*
Y115032D01*
Y115138D01*
Y115243D01*
Y115348D01*
Y115453D01*
Y115558D01*
Y115663D01*
Y115768D01*
X236292D01*
Y115663D01*
D02*
G37*
G36*
X237763D02*
Y115558D01*
Y115453D01*
Y115348D01*
Y115243D01*
Y115138D01*
Y115032D01*
Y114927D01*
Y114822D01*
Y114717D01*
Y114612D01*
Y114507D01*
Y114402D01*
Y114297D01*
Y114192D01*
Y114087D01*
Y113982D01*
Y113876D01*
Y113771D01*
Y113666D01*
Y113561D01*
Y113456D01*
Y113351D01*
Y113246D01*
Y113141D01*
Y113036D01*
Y112931D01*
Y112826D01*
Y112721D01*
Y112616D01*
Y112510D01*
Y112405D01*
Y112300D01*
Y112195D01*
Y112090D01*
Y111985D01*
Y111880D01*
Y111775D01*
Y111670D01*
Y111565D01*
Y111460D01*
Y111354D01*
Y111249D01*
Y111144D01*
Y111039D01*
Y110934D01*
X237237D01*
Y111039D01*
Y111144D01*
Y111249D01*
Y111354D01*
Y111460D01*
Y111565D01*
Y111670D01*
Y111775D01*
Y111880D01*
Y111985D01*
Y112090D01*
Y112195D01*
Y112300D01*
Y112405D01*
Y112510D01*
Y112616D01*
Y112721D01*
Y112826D01*
Y112931D01*
Y113036D01*
Y113141D01*
Y113246D01*
Y113351D01*
Y113456D01*
Y113561D01*
Y113666D01*
Y113771D01*
Y113876D01*
Y113982D01*
Y114087D01*
Y114192D01*
Y114297D01*
Y114402D01*
Y114507D01*
Y114612D01*
Y114717D01*
Y114822D01*
Y114927D01*
Y115032D01*
Y115138D01*
Y115243D01*
Y115348D01*
Y115453D01*
Y115558D01*
Y115663D01*
Y115768D01*
X237763D01*
Y115663D01*
D02*
G37*
%LPC*%
G36*
X235346Y109463D02*
X235136D01*
Y109358D01*
Y109253D01*
Y109148D01*
Y109043D01*
Y108938D01*
Y108833D01*
X235346D01*
Y108938D01*
Y109043D01*
Y109148D01*
Y109253D01*
Y109358D01*
Y109463D01*
D02*
G37*
G36*
X238919Y108727D02*
X238813D01*
Y108622D01*
X238708D01*
Y108517D01*
Y108412D01*
X238919D01*
Y108517D01*
Y108622D01*
Y108727D01*
D02*
G37*
%LPD*%
D10*
X345965Y244587D02*
G03*
X345965Y244587I-394J0D01*
G01*
X346043Y179035D02*
G03*
X346043Y179035I-394J0D01*
G01*
X156610Y418500D02*
G03*
X156610Y418500I-394J0D01*
G01*
X346136Y154193D02*
G03*
X346136Y154193I-394J0D01*
G01*
X347972Y219350D02*
G03*
X347972Y219350I-394J0D01*
G01*
X523130Y192657D02*
G03*
X523130Y192657I-394J0D01*
G01*
X153335Y418500D02*
G03*
X153335Y418500I-394J0D01*
G01*
X172343Y473557D02*
G03*
X172343Y473557I-394J0D01*
G01*
X270472Y496654D02*
G03*
X270472Y496654I-394J0D01*
G01*
X495768Y135236D02*
G03*
X495768Y135236I-394J0D01*
G01*
X350108Y319264D02*
G03*
X350108Y319264I-394J0D01*
G01*
X349921Y283043D02*
G03*
X349921Y283043I-394J0D01*
G01*
X540374Y386831D02*
G03*
X540374Y386831I-394J0D01*
G01*
X409685Y385614D02*
G03*
X409685Y385614I-394J0D01*
G01*
X626063Y341260D02*
G03*
X626063Y341260I-394J0D01*
G01*
X626653Y265374D02*
G03*
X626653Y265374I-394J0D01*
G01*
X300979Y383004D02*
G03*
X300979Y383004I-394J0D01*
G01*
X408169Y369193D02*
G03*
X408169Y369193I-394J0D01*
G01*
X528150Y410925D02*
G03*
X528150Y410925I-394J0D01*
G01*
X592323Y413091D02*
G03*
X592323Y413091I-394J0D01*
G01*
X536122Y370965D02*
G03*
X536122Y370965I-394J0D01*
G01*
X432185Y369587D02*
G03*
X432185Y369587I-394J0D01*
G01*
X461811Y411024D02*
G03*
X461811Y411024I-394J0D01*
G01*
X394488Y411909D02*
G03*
X394488Y411909I-394J0D01*
G01*
X558071Y371260D02*
G03*
X558071Y371260I-394J0D01*
G01*
X327433Y119291D02*
G03*
X327433Y119291I-394J0D01*
G01*
X373890Y119685D02*
G03*
X373890Y119685I-394J0D01*
G01*
X118405Y256213D02*
G03*
X118405Y256213I-394J0D01*
G01*
X185728Y122736D02*
G03*
X185728Y122736I-394J0D01*
G01*
X163189Y177854D02*
G03*
X163189Y177854I-394J0D01*
G01*
X306508Y428146D02*
G03*
X306508Y428146I-394J0D01*
G01*
X345394Y441295D02*
G03*
X345394Y441295I-394J0D01*
G01*
X154626Y200886D02*
G03*
X154626Y200886I-394J0D01*
G01*
X156398Y367126D02*
G03*
X156398Y367126I-394J0D01*
G01*
X294587Y471457D02*
G03*
X294587Y471457I-394J0D01*
G01*
X684646Y232961D02*
G03*
X684646Y232961I-394J0D01*
G01*
X684252Y185874D02*
G03*
X684252Y185874I-394J0D01*
G01*
X684646Y430756D02*
G03*
X684646Y430756I-394J0D01*
G01*
X684252Y139654D02*
G03*
X684252Y139654I-394J0D01*
G01*
X684547Y234697D02*
G03*
X684547Y234697I-394J0D01*
G01*
X684646Y310307D02*
G03*
X684646Y310307I-394J0D01*
G01*
X276476Y260531D02*
X281988D01*
X276575Y189567D02*
X282087D01*
X598091Y108425D02*
Y128425D01*
X528091Y108425D02*
Y128425D01*
X598091D01*
X528091Y108425D02*
X598091D01*
X507598Y104193D02*
Y134193D01*
Y104193D02*
X517598D01*
Y134193D01*
X507598D02*
X517598D01*
X497736Y112402D02*
Y136811D01*
X480413Y137205D02*
X489862D01*
X480413Y112008D02*
X489862D01*
X472539Y112402D02*
Y136811D01*
X270571Y228937D02*
X276083D01*
X271949Y293024D02*
X277461D01*
X641929Y206102D02*
Y218307D01*
X643898Y206102D02*
Y218307D01*
X641929D02*
X643898D01*
X641929Y206102D02*
X643898D01*
X642323Y166339D02*
Y178543D01*
X644291Y166339D02*
Y178543D01*
X642323D02*
X644291D01*
X642323Y166339D02*
X644291D01*
X641929Y116732D02*
Y128937D01*
X643898Y116732D02*
Y128937D01*
X641929D02*
X643898D01*
X641929Y116732D02*
X643898D01*
X281451Y370583D02*
X293656D01*
X281451Y372551D02*
X293656D01*
X281451Y370583D02*
Y372551D01*
X293656Y370583D02*
Y372551D01*
X174961Y330465D02*
Y333358D01*
X148465D02*
X174961D01*
X148465Y330465D02*
Y333358D01*
X208622Y330465D02*
Y333358D01*
X182126D02*
X208622D01*
X182126Y330465D02*
Y333358D01*
X174961Y266193D02*
Y269087D01*
X148465D02*
X174961D01*
X148465Y266193D02*
Y269087D01*
X208622Y266142D02*
Y269035D01*
X182126D02*
X208622D01*
X182126Y266142D02*
Y269035D01*
X281978Y328850D02*
X287490D01*
X291240Y293024D02*
X296752D01*
X278334Y164108D02*
X283846D01*
X354919Y163320D02*
X360431D01*
X345437Y163321D02*
X350949D01*
X358169Y293024D02*
X363681D01*
X289469Y229035D02*
X294980D01*
X281791Y293024D02*
X287303D01*
X347342Y229035D02*
X352854D01*
X291427Y328850D02*
X296939D01*
X349902Y328457D02*
X355413D01*
X287783Y164108D02*
X293295D01*
X359350Y328457D02*
X364862D01*
X348721Y293024D02*
X354232D01*
X280020Y229035D02*
X285531D01*
X356791D02*
X362303D01*
X667913Y457087D02*
X673425D01*
X590551D02*
X596063D01*
X509842D02*
X515354D01*
X428740D02*
X434252D01*
X250000Y364567D02*
X255512D01*
X453228Y112815D02*
Y132815D01*
X443228D02*
X453228D01*
X443228Y112815D02*
Y132815D01*
Y112815D02*
X453228D01*
X455039Y112913D02*
Y132913D01*
Y112913D02*
X465039D01*
Y132913D01*
X455039D02*
X465039D01*
X168110Y363779D02*
X173622D01*
X343504Y456693D02*
X349016D01*
X207142Y489169D02*
X212653D01*
X207142Y447831D02*
Y489169D01*
Y447831D02*
X212653D01*
X252555Y424386D02*
Y436590D01*
X250587Y424386D02*
Y436590D01*
Y424386D02*
X252555D01*
X250587Y436590D02*
X252555D01*
X267967Y164173D02*
X273478D01*
X272342Y328850D02*
X277854D01*
X306024Y497224D02*
X326024D01*
X306024Y487224D02*
Y497224D01*
Y487224D02*
X326024D01*
Y497224D01*
X240864Y377410D02*
Y389614D01*
X238895Y377410D02*
Y389614D01*
Y377410D02*
X240864D01*
X238895Y389614D02*
X240864D01*
D11*
X153264Y418500D02*
G03*
X153264Y418500I-24606J0D01*
G01*
X205106D02*
G03*
X205106Y418500I-24606J0D01*
G01*
X181791Y486352D02*
G03*
X181791Y486352I-9843J0D01*
G01*
X279921Y483858D02*
G03*
X279921Y483858I-9843J0D01*
G01*
X430413Y369193D02*
G03*
X430413Y369193I-9843J0D01*
G01*
X558366Y370965D02*
G03*
X558366Y370965I-9843J0D01*
G01*
X454429Y369587D02*
G03*
X454429Y369587I-9843J0D01*
G01*
X580315Y371260D02*
G03*
X580315Y371260I-9843J0D01*
G01*
X209941Y150295D02*
G03*
X209941Y150295I-24606J0D01*
G01*
X159843Y177854D02*
G03*
X159843Y177854I-24606J0D01*
G01*
X354842Y428500D02*
G03*
X354842Y428500I-9843J0D01*
G01*
X206398Y200886D02*
G03*
X206398Y200886I-24606J0D01*
G01*
X153051Y367126D02*
G03*
X153051Y367126I-24606J0D01*
G01*
X304035Y484252D02*
G03*
X304035Y484252I-9843J0D01*
G01*
X349016Y247047D02*
X352362D01*
X284350D02*
X288784D01*
X352362D02*
Y274803D01*
X284350D02*
X352362D01*
X284350Y247047D02*
Y274803D01*
X269488Y258760D02*
Y259941D01*
X273031Y258760D02*
Y259941D01*
X356201Y259350D02*
Y260531D01*
X359744Y259350D02*
Y260531D01*
X270177Y188189D02*
Y189370D01*
X273721Y188189D02*
Y189370D01*
X356594Y193602D02*
Y194783D01*
X360138Y193602D02*
Y194783D01*
X349095Y181496D02*
X352441D01*
X284429D02*
X288862D01*
X352441D02*
Y209252D01*
X284429D02*
X352441D01*
X284429Y181496D02*
Y209252D01*
X254232Y336331D02*
X255413D01*
X254232Y332787D02*
X255413D01*
X304384Y174409D02*
X334305D01*
X304384Y153346D02*
X334305D01*
X306221Y239567D02*
X336142D01*
X306221Y218504D02*
X336142D01*
X517815Y202264D02*
X520925D01*
X561949D02*
X565059D01*
X517815Y249508D02*
X520925D01*
X561949D02*
X565059D01*
X517815Y202264D02*
Y205374D01*
X565059Y202264D02*
Y205374D01*
X517815Y246398D02*
Y249508D01*
X565059Y246398D02*
Y249508D01*
X564961Y138189D02*
Y139370D01*
X568504Y138189D02*
Y139370D01*
X577658Y138189D02*
Y139370D01*
X574114Y138189D02*
Y139370D01*
X529528Y138287D02*
Y139469D01*
X525984Y138287D02*
Y139469D01*
X501181Y126181D02*
Y127362D01*
X504724Y126181D02*
Y127362D01*
X520768Y142028D02*
Y143209D01*
X517224Y142028D02*
Y143209D01*
X196358Y495866D02*
X197539D01*
X196358Y492323D02*
X197539D01*
X491437Y154035D02*
X492618D01*
X491437Y157579D02*
X492618D01*
X509842Y141831D02*
Y143012D01*
X513386Y141831D02*
Y143012D01*
X502067Y141732D02*
Y142913D01*
X505610Y141732D02*
Y142913D01*
X556102Y138287D02*
Y139469D01*
X559646Y138287D02*
Y139469D01*
X296018Y386331D02*
Y387512D01*
X292475Y386331D02*
Y387512D01*
X242323Y160827D02*
X259646D01*
X242323Y150197D02*
X259646D01*
X244980Y228642D02*
X262303D01*
X244980Y218012D02*
X262303D01*
X103209Y102795D02*
Y152165D01*
Y102795D02*
X158602D01*
Y152165D01*
X103209D02*
X158602D01*
X103193Y447157D02*
Y496528D01*
Y447157D02*
X158587D01*
Y496528D01*
X103193D02*
X158587D01*
X429232Y308760D02*
X430413D01*
X429232Y305217D02*
X430413D01*
X246654Y290760D02*
X263976D01*
X246654Y280130D02*
X263976D01*
X308356Y318417D02*
X338278D01*
X308356Y339480D02*
X338278D01*
X308169Y282197D02*
X338090D01*
X308169Y303260D02*
X338090D01*
X539508Y395472D02*
Y410827D01*
X579390Y395472D02*
Y410827D01*
X408819Y394256D02*
Y409610D01*
X448701Y394256D02*
Y409610D01*
X616536Y130807D02*
Y131988D01*
X612992Y130807D02*
Y131988D01*
X660236Y120177D02*
X661417D01*
X660236Y116634D02*
X661417D01*
X653543Y128937D02*
Y130118D01*
X657087Y128937D02*
Y130118D01*
X624705Y349508D02*
Y361516D01*
X636713Y349508D02*
Y361516D01*
X625295Y273622D02*
Y285630D01*
X637303Y273622D02*
Y285630D01*
X310782Y361232D02*
X340703D01*
X310782Y385051D02*
X340703D01*
X615158Y374902D02*
Y376083D01*
X611614Y374902D02*
Y376083D01*
X626870Y333366D02*
Y334547D01*
X623327Y333366D02*
Y334547D01*
X651772Y379823D02*
X652953D01*
X651772Y376279D02*
X652953D01*
X628346Y370669D02*
X629528D01*
X628346Y374213D02*
X629528D01*
X628150Y378150D02*
X629331D01*
X628150Y381693D02*
X629331D01*
X617126Y353937D02*
Y355118D01*
X620669Y353937D02*
Y355118D01*
X652953Y317421D02*
X654134D01*
X652953Y320965D02*
X654134D01*
X633071Y320866D02*
X634252D01*
X633071Y317323D02*
X634252D01*
X634842Y244685D02*
X636024D01*
X634842Y248228D02*
X636024D01*
X620472Y301181D02*
Y302362D01*
X624016Y301181D02*
Y302362D01*
X649902Y296063D02*
X651083D01*
X649902Y292520D02*
X651083D01*
X623228Y259449D02*
X624409D01*
X623228Y262992D02*
X624409D01*
X618898Y278740D02*
Y279921D01*
X622441Y278740D02*
Y279921D01*
X633268Y304528D02*
X634449D01*
X633268Y308071D02*
X634449D01*
X633268Y296528D02*
X634449D01*
X633268Y300071D02*
X634449D01*
X661909Y275689D02*
Y276870D01*
X658366Y275689D02*
Y276870D01*
X636713Y257087D02*
Y258268D01*
X633169Y257087D02*
Y258268D01*
X649397Y242524D02*
X650578D01*
X649397Y246068D02*
X650578D01*
X607008Y424961D02*
Y458701D01*
X659016Y424961D02*
Y458701D01*
X607008Y471299D02*
Y481653D01*
X659016Y471299D02*
Y481653D01*
X602008Y486654D02*
X607008D01*
X602008Y481653D02*
Y486654D01*
Y481653D02*
X607008D01*
X659016D02*
X664016D01*
Y486654D01*
X659016D02*
X664016D01*
X607008Y495945D02*
X659016D01*
X607008Y486654D02*
Y495945D01*
Y481653D02*
Y486654D01*
Y424961D02*
X659016D01*
Y481653D02*
Y486654D01*
Y495945D01*
X526693Y424567D02*
Y458307D01*
X578701Y424567D02*
Y458307D01*
X526693Y470905D02*
Y481260D01*
X578701Y470905D02*
Y481260D01*
X521693Y486260D02*
X526693D01*
X521693Y481260D02*
Y486260D01*
Y481260D02*
X526693D01*
X578701D02*
X583701D01*
Y486260D01*
X578701D02*
X583701D01*
X526693Y495551D02*
X578701D01*
X526693Y486260D02*
Y495551D01*
Y481260D02*
Y486260D01*
Y424567D02*
X578701D01*
Y481260D02*
Y486260D01*
Y495551D01*
X445984Y424567D02*
Y458307D01*
X497992Y424567D02*
Y458307D01*
X445984Y470905D02*
Y481260D01*
X497992Y470905D02*
Y481260D01*
X440984Y486260D02*
X445984D01*
X440984Y481260D02*
Y486260D01*
Y481260D02*
X445984D01*
X497992D02*
X502992D01*
Y486260D01*
X497992D02*
X502992D01*
X445984Y495551D02*
X497992D01*
X445984Y486260D02*
Y495551D01*
Y481260D02*
Y486260D01*
Y424567D02*
X497992D01*
Y481260D02*
Y486260D01*
Y495551D01*
X364882Y424961D02*
Y458701D01*
X416890Y424961D02*
Y458701D01*
X364882Y471299D02*
Y481653D01*
X416890Y471299D02*
Y481653D01*
X359882Y486654D02*
X364882D01*
X359882Y481653D02*
Y486654D01*
Y481653D02*
X364882D01*
X416890D02*
X421890D01*
Y486654D01*
X416890D02*
X421890D01*
X364882Y495945D02*
X416890D01*
X364882Y486654D02*
Y495945D01*
Y481653D02*
Y486654D01*
Y424961D02*
X416890D01*
Y481653D02*
Y486654D01*
Y495945D01*
X668602Y439567D02*
Y440748D01*
X672146Y439567D02*
Y440748D01*
X591535Y437205D02*
Y438386D01*
X595079Y437205D02*
Y438386D01*
X510827Y437205D02*
Y438386D01*
X514370Y437205D02*
Y438386D01*
X429331Y437598D02*
Y438779D01*
X432874Y437598D02*
Y438779D01*
X660630Y175000D02*
X661811D01*
X660630Y171457D02*
X661811D01*
X658071Y182480D02*
X659252D01*
X658071Y178937D02*
X659252D01*
X667913Y161713D02*
Y162894D01*
X664370Y161713D02*
Y162894D01*
X643898Y225394D02*
X645079D01*
X643898Y221850D02*
X645079D01*
X528580Y186064D02*
X541180D01*
X528580D02*
Y191964D01*
X541180D01*
Y186064D02*
Y191964D01*
X430709Y224606D02*
X431890D01*
X430709Y228150D02*
X431890D01*
X429035Y290354D02*
X430217D01*
X429035Y293898D02*
X430217D01*
X430905Y239862D02*
X432087D01*
X430905Y243406D02*
X432087D01*
X430905Y247441D02*
X432087D01*
X430905Y250984D02*
X432087D01*
X429035Y297736D02*
X430217D01*
X429035Y301279D02*
X430217D01*
X429232Y312894D02*
X430413D01*
X429232Y316437D02*
X430413D01*
X430709Y232087D02*
X431890D01*
X430709Y235630D02*
X431890D01*
X607283Y389567D02*
X608465D01*
X607283Y393110D02*
X608465D01*
X529724Y383760D02*
Y384941D01*
X533268Y383760D02*
Y384941D01*
X519390Y383760D02*
Y384941D01*
X515846Y383760D02*
Y384941D01*
X517874Y397933D02*
Y404232D01*
X530158Y397933D02*
Y404232D01*
X592028Y386417D02*
Y387598D01*
X588484Y386417D02*
Y387598D01*
X582047Y400098D02*
Y406398D01*
X594331Y400098D02*
Y406398D01*
X560532Y383366D02*
X561713D01*
X560532Y386910D02*
X561713D01*
X545965D02*
X547146D01*
X545965Y383366D02*
X547146D01*
X540158Y177165D02*
Y178346D01*
X536614Y177165D02*
Y178346D01*
X532776Y177165D02*
Y178346D01*
X529232Y177165D02*
Y178346D01*
X537115Y414748D02*
Y415929D01*
X533572Y414748D02*
Y415929D01*
X474508Y388681D02*
Y389862D01*
X470965Y388681D02*
Y389862D01*
X391043Y384941D02*
Y386122D01*
X387500Y384941D02*
Y386122D01*
X461024Y384449D02*
Y385630D01*
X457480Y384449D02*
Y385630D01*
X399213Y385039D02*
Y386221D01*
X402756Y385039D02*
Y386221D01*
X407185Y410236D02*
Y411417D01*
X403642Y410236D02*
Y411417D01*
X430905Y382185D02*
X432087D01*
X430905Y385728D02*
X432087D01*
X416240Y382185D02*
X417421D01*
X416240Y385728D02*
X417421D01*
X451535Y398031D02*
Y404331D01*
X463819Y398031D02*
Y404331D01*
X384213Y398917D02*
Y405217D01*
X396496Y398917D02*
Y405217D01*
X293262Y355622D02*
Y356803D01*
X289719Y355622D02*
Y356803D01*
X609941Y167815D02*
Y168996D01*
X613484Y167815D02*
Y168996D01*
X620965Y164370D02*
Y165551D01*
X624508Y164370D02*
Y165551D01*
X627953Y152165D02*
X629134D01*
X627953Y155709D02*
X629134D01*
X664075Y219094D02*
Y220276D01*
X660532Y219094D02*
Y220276D01*
X642815Y163189D02*
X643996D01*
X642815Y159646D02*
X643996D01*
X642717Y155709D02*
X643898D01*
X642717Y152165D02*
X643898D01*
X652165Y159547D02*
Y160728D01*
X655709Y159547D02*
Y160728D01*
X643209Y195079D02*
X644390D01*
X643209Y191535D02*
X644390D01*
X614468Y196555D02*
Y197736D01*
X618012Y196555D02*
Y197736D01*
X643209Y202559D02*
X644390D01*
X643209Y199016D02*
X644390D01*
X660532Y204528D02*
Y205709D01*
X664075Y204528D02*
Y205709D01*
X627362Y191634D02*
X628543D01*
X627362Y195177D02*
X628543D01*
X629429Y204035D02*
Y205217D01*
X632972Y204035D02*
Y205217D01*
X653150Y200098D02*
Y201279D01*
X656693Y200098D02*
Y201279D01*
X639764Y136319D02*
X640945D01*
X639764Y132776D02*
X640945D01*
X639567Y143701D02*
X640748D01*
X639567Y140157D02*
X640748D01*
X648130Y112894D02*
X649311D01*
X648130Y109350D02*
X649311D01*
X630807Y138386D02*
Y139567D01*
X627264Y138386D02*
Y139567D01*
X629429Y122539D02*
Y123721D01*
X632972Y122539D02*
Y123721D01*
X617421Y140551D02*
X618602D01*
X617421Y144095D02*
X618602D01*
X638976Y333071D02*
Y334252D01*
X635433Y333071D02*
Y334252D01*
X649084Y266824D02*
X650265D01*
X649084Y270368D02*
X650265D01*
X649016Y273917D02*
X650197D01*
X649016Y277461D02*
X650197D01*
X329134Y106496D02*
Y132087D01*
Y106496D02*
X371161D01*
Y132087D01*
X329134D02*
X371161D01*
X375590Y106890D02*
Y132480D01*
Y106890D02*
X417618D01*
Y132480D01*
X375590D02*
X417618D01*
X651772Y361319D02*
X652953D01*
X651772Y364862D02*
X652953D01*
X651378Y346358D02*
X652559D01*
X651378Y349902D02*
X652559D01*
X651575Y353839D02*
X652756D01*
X651575Y357382D02*
X652756D01*
X649902Y285039D02*
X651083D01*
X649902Y288583D02*
X651083D01*
X651772Y368799D02*
X652953D01*
X651772Y372342D02*
X652953D01*
X105217Y258307D02*
X130807D01*
Y310213D01*
X105217D02*
X130807D01*
X105217Y258307D02*
Y310213D01*
X539862Y138091D02*
Y139272D01*
X536319Y138091D02*
Y139272D01*
X163976Y278839D02*
Y280020D01*
X160433Y278839D02*
Y280020D01*
X354065Y366161D02*
Y367342D01*
X350522Y366161D02*
Y367342D01*
X354286Y380819D02*
Y382000D01*
X350743Y380819D02*
Y382000D01*
X304668Y389799D02*
X305849D01*
X304668Y393342D02*
X305849D01*
X282632Y383968D02*
X283814D01*
X282632Y387512D02*
X283814D01*
X282239Y355622D02*
Y356803D01*
X285782Y355622D02*
Y356803D01*
X361766Y366252D02*
Y367433D01*
X358223Y366252D02*
Y367433D01*
X301870Y359154D02*
X303051D01*
X301870Y355610D02*
X303051D01*
X272002Y361921D02*
X273183D01*
X272002Y358378D02*
X273183D01*
X259941Y366142D02*
Y367323D01*
X263484Y366142D02*
Y367323D01*
X267050Y370642D02*
Y371823D01*
X270593Y370642D02*
Y371823D01*
X274550Y370642D02*
Y371823D01*
X278093Y370642D02*
Y371823D01*
X605709Y321260D02*
Y322441D01*
X602165Y321260D02*
Y322441D01*
X598228Y321260D02*
Y322441D01*
X594685Y321260D02*
Y322441D01*
X613189Y321457D02*
Y322638D01*
X609646Y321457D02*
Y322638D01*
X602953Y308858D02*
X604134D01*
X602953Y312402D02*
X604134D01*
X306232Y464280D02*
X306902D01*
X306232Y439787D02*
Y464280D01*
Y439787D02*
X332768D01*
Y464280D01*
X332098D02*
X332768D01*
X298728Y431410D02*
Y432590D01*
X302272Y431410D02*
Y432590D01*
X323909Y419228D02*
X325091D01*
X323909Y422772D02*
X325091D01*
X512598Y192913D02*
X513779D01*
X512598Y196457D02*
X513779D01*
X498425Y192815D02*
X499606D01*
X498425Y196358D02*
X499606D01*
X516732Y185925D02*
X517913D01*
X516732Y189469D02*
X517913D01*
X514961Y259941D02*
Y261122D01*
X518504Y259941D02*
Y261122D01*
X575689Y195866D02*
X576870D01*
X575689Y192323D02*
X576870D01*
X575689Y202854D02*
X576870D01*
X575689Y199311D02*
X576870D01*
X493602Y282480D02*
Y283661D01*
X497146Y282480D02*
Y283661D01*
X501083Y275492D02*
Y276673D01*
X504626Y275492D02*
Y276673D01*
X486221Y275787D02*
Y276969D01*
X489764Y275787D02*
Y276969D01*
X254228Y456410D02*
Y457590D01*
X257772Y456410D02*
Y457590D01*
X267126Y452559D02*
X268307D01*
X267126Y449016D02*
X268307D01*
X287803Y463410D02*
Y464591D01*
X291347Y463410D02*
Y464591D01*
X282347Y463410D02*
Y464591D01*
X278803Y463410D02*
Y464591D01*
X273453Y463410D02*
Y464591D01*
X269910Y463410D02*
Y464591D01*
X316406Y483272D02*
X317587D01*
X316406Y479728D02*
X317587D01*
X258910Y466228D02*
X260090D01*
X258910Y469772D02*
X260090D01*
X284417Y430138D02*
Y431319D01*
X287961Y430138D02*
Y431319D01*
X280791Y410457D02*
X281972D01*
X280791Y414000D02*
X281972D01*
X280791Y417957D02*
X281972D01*
X280791Y421500D02*
X281972D01*
X280461Y430324D02*
Y431505D01*
X276917Y430324D02*
Y431505D01*
X272961Y430324D02*
Y431505D01*
X269417Y430324D02*
Y431505D01*
X252165Y418307D02*
X253346D01*
X252165Y421850D02*
X253346D01*
X265461Y415638D02*
Y416819D01*
X261917Y415638D02*
Y416819D01*
X265461Y430138D02*
Y431319D01*
X261917Y430138D02*
Y431319D01*
X234449Y417520D02*
X235630D01*
X234449Y421063D02*
X235630D01*
X241929Y430118D02*
Y431299D01*
X238386Y430118D02*
Y431299D01*
X229626Y430118D02*
Y431299D01*
X226083Y430118D02*
Y431299D01*
X255413Y295768D02*
X256594D01*
X255413Y299311D02*
X256594D01*
X253051Y232677D02*
X254232D01*
X253051Y236221D02*
X254232D01*
X250984Y168012D02*
X252165D01*
X250984Y171555D02*
X252165D01*
X197343Y343012D02*
Y344193D01*
X193799Y343012D02*
Y344193D01*
X163484Y342913D02*
Y344094D01*
X159941Y342913D02*
Y344094D01*
X193602Y279724D02*
X193602Y278543D01*
X197146D02*
X197146Y279724D01*
X246260Y315366D02*
X263583D01*
X246260Y325996D02*
X263583D01*
X253740Y487598D02*
Y488779D01*
X257283Y487598D02*
Y488779D01*
X178445Y463386D02*
Y464567D01*
X181988Y463386D02*
Y464567D01*
X254265Y383673D02*
Y384854D01*
X250722Y383673D02*
Y384854D01*
X230315Y383169D02*
Y384350D01*
X226772Y383169D02*
Y384350D01*
X261319Y383760D02*
Y384941D01*
X257776Y383760D02*
Y384941D01*
X671457Y230866D02*
X697047D01*
X671457Y188839D02*
Y230866D01*
Y188839D02*
X697047D01*
Y230866D01*
X671063Y183780D02*
X696654D01*
X671063Y141752D02*
Y183780D01*
Y141752D02*
X696654D01*
Y183780D01*
X671457Y428661D02*
X697047D01*
X671457Y386634D02*
Y428661D01*
Y386634D02*
X697047D01*
Y428661D01*
X696654Y105748D02*
Y137559D01*
X671063Y105748D02*
X696654D01*
X671063D02*
Y137559D01*
X696654D01*
X671358Y236791D02*
Y308248D01*
X696949D01*
Y236791D02*
Y308248D01*
X671358Y236791D02*
X696949D01*
X671457Y312402D02*
Y383858D01*
X697047D01*
Y312402D02*
Y383858D01*
X671457Y312402D02*
X697047D01*
X241339Y392224D02*
X242520D01*
X241339Y395768D02*
X242520D01*
X436614Y431496D02*
X434646D01*
Y432480D01*
X434974Y432808D01*
X435630D01*
X435958Y432480D01*
Y431496D01*
Y432152D02*
X436614Y432808D01*
X434974Y433464D02*
X434646Y433792D01*
Y434448D01*
X434974Y434776D01*
X435302D01*
X435630Y434448D01*
X435958Y434776D01*
X436286D01*
X436614Y434448D01*
Y433792D01*
X436286Y433464D01*
X435958D01*
X435630Y433792D01*
X435302Y433464D01*
X434974D01*
X435630Y433792D02*
Y434448D01*
X434974Y435432D02*
X434646Y435760D01*
Y436416D01*
X434974Y436744D01*
X435302D01*
X435630Y436416D01*
X435958Y436744D01*
X436286D01*
X436614Y436416D01*
Y435760D01*
X436286Y435432D01*
X435958D01*
X435630Y435760D01*
X435302Y435432D01*
X434974D01*
X435630Y435760D02*
Y436416D01*
D12*
X260433Y162205D02*
G03*
X260433Y162205I-394J0D01*
G01*
X263090Y230020D02*
G03*
X263090Y230020I-394J0D01*
G01*
X264764Y292138D02*
G03*
X264764Y292138I-394J0D01*
G01*
X656774Y261620D02*
G03*
X656774Y261620I-394J0D01*
G01*
X654331Y338189D02*
G03*
X654331Y338189I-394J0D01*
G01*
X666142Y465748D02*
G03*
X666142Y465748I-197J0D01*
G01*
X588779D02*
G03*
X588779Y465748I-197J0D01*
G01*
X508071D02*
G03*
X508071Y465748I-197J0D01*
G01*
X426968D02*
G03*
X426968Y465748I-197J0D01*
G01*
X351181Y448032D02*
G03*
X351181Y448032I-197J0D01*
G01*
X264370Y327374D02*
G03*
X264370Y327374I-394J0D01*
G01*
D13*
X648130Y205020D02*
G03*
X648130Y205020I-492J0D01*
G01*
X648524Y165256D02*
G03*
X648524Y165256I-492J0D01*
G01*
X648130Y115650D02*
G03*
X648130Y115650I-492J0D01*
G01*
X295231Y376291D02*
G03*
X295231Y376291I-492J0D01*
G01*
X191492Y482732D02*
G03*
X191492Y482732I-492J0D01*
G01*
X247339Y437673D02*
G03*
X247339Y437673I-492J0D01*
G01*
X235647Y390697D02*
G03*
X235647Y390697I-492J0D01*
G01*
D14*
X655587Y258096D02*
G03*
X655587Y255696I0J-1200D01*
G01*
X653144Y334665D02*
G03*
X653144Y332265I0J-1200D01*
G01*
X655587Y258096D02*
Y258596D01*
Y255696D02*
Y258096D01*
Y255196D02*
Y255696D01*
X653144Y334665D02*
Y335165D01*
Y332265D02*
Y334665D01*
Y331765D02*
Y332265D01*
D15*
X387500Y138089D02*
Y134810D01*
X388156Y134153D01*
X389468D01*
X390124Y134810D01*
Y138089D01*
X391436Y134153D02*
Y136777D01*
X392748Y138089D01*
X394060Y136777D01*
Y134153D01*
Y136121D01*
X391436D01*
X395372Y134153D02*
Y138089D01*
X397339D01*
X397995Y137433D01*
Y136121D01*
X397339Y135466D01*
X395372D01*
X396683D02*
X397995Y134153D01*
X399307Y138089D02*
X401931D01*
X400619D01*
Y134153D01*
X344193Y138188D02*
X345505D01*
X344849D01*
Y134252D01*
X344193D01*
X345505D01*
X350097D02*
X347473D01*
X350097Y136876D01*
Y137532D01*
X349441Y138188D01*
X348129D01*
X347473Y137532D01*
X354032D02*
X353376Y138188D01*
X352064D01*
X351408Y137532D01*
Y134908D01*
X352064Y134252D01*
X353376D01*
X354032Y134908D01*
X525557Y120965D02*
X522933D01*
X525557Y123588D01*
Y124244D01*
X524901Y124900D01*
X523589D01*
X522933Y124244D01*
X599803Y120669D02*
X601115D01*
X600459D01*
Y124605D01*
X599803Y123949D01*
X605051Y120669D02*
Y124605D01*
X603083Y122637D01*
X605707D01*
X352888Y484253D02*
X355512D01*
Y486221D01*
X354200Y485565D01*
X353544D01*
X352888Y486221D01*
Y487533D01*
X353544Y488189D01*
X354856D01*
X355512Y487533D01*
X351576Y484253D02*
Y486877D01*
X350264Y488189D01*
X348952Y486877D01*
Y484253D01*
X341737D02*
X343049D01*
X343705Y484909D01*
Y487533D01*
X343049Y488189D01*
X341737D01*
X341081Y487533D01*
Y484909D01*
X341737Y484253D01*
X339769D02*
Y488189D01*
Y486877D01*
X337145Y484253D01*
X339113Y486221D01*
X337145Y488189D01*
X586482Y134152D02*
X585170D01*
X585826D01*
Y130872D01*
X585170Y130217D01*
X584514D01*
X583858Y130872D01*
X587794Y134152D02*
X590418D01*
X589106D01*
Y130217D01*
X591730D02*
Y132840D01*
X593042Y134152D01*
X594354Y132840D01*
Y130217D01*
Y132184D01*
X591730D01*
X598289Y133496D02*
X597633Y134152D01*
X596321D01*
X595666Y133496D01*
Y130872D01*
X596321Y130217D01*
X597633D01*
X598289Y130872D01*
Y132184D01*
X596977D01*
X502429Y105281D02*
X501773Y104625D01*
Y103313D01*
X502429Y102657D01*
X503085D01*
X503741Y103313D01*
Y104625D01*
X504397Y105281D01*
X505053D01*
X505709Y104625D01*
Y103313D01*
X505053Y102657D01*
X501773Y106593D02*
X505709D01*
Y108561D01*
X505053Y109217D01*
X504397D01*
X503741Y108561D01*
Y106593D01*
Y108561D01*
X503085Y109217D01*
X502429D01*
X501773Y108561D01*
Y106593D01*
Y110529D02*
X505709D01*
X504397Y111841D01*
X505709Y113153D01*
X501773D01*
X434929Y104724D02*
X430993D01*
Y106692D01*
X431649Y107348D01*
X432961D01*
X433617Y106692D01*
Y104724D01*
X434929Y110628D02*
X430993D01*
X432961Y108660D01*
Y111284D01*
X432305Y112596D02*
Y113252D01*
X432961D01*
Y112596D01*
X432305D01*
X434273D02*
Y113252D01*
X434929D01*
Y112596D01*
X434273D01*
X434929Y119811D02*
X430993D01*
Y121779D01*
X431649Y122435D01*
X432961D01*
X433617Y121779D01*
Y119811D01*
X430993Y123747D02*
X434929D01*
X433617Y125059D01*
X434929Y126371D01*
X430993D01*
Y134242D02*
Y131619D01*
X432961D01*
Y132931D01*
Y131619D01*
X434929D01*
Y135554D02*
X430993D01*
Y137522D01*
X431649Y138178D01*
X432961D01*
X433617Y137522D01*
Y135554D01*
Y136866D02*
X434929Y138178D01*
X430993Y141458D02*
Y140146D01*
X431649Y139490D01*
X434273D01*
X434929Y140146D01*
Y141458D01*
X434273Y142114D01*
X431649D01*
X430993Y141458D01*
X434929Y143426D02*
X430993D01*
X432305Y144738D01*
X430993Y146050D01*
X434929D01*
Y151297D02*
X430993D01*
Y153265D01*
X431649Y153921D01*
X432961D01*
X433617Y153265D01*
Y151297D01*
X431649Y157857D02*
X430993Y157201D01*
Y155889D01*
X431649Y155233D01*
X434273D01*
X434929Y155889D01*
Y157201D01*
X434273Y157857D01*
X430993Y159169D02*
X434929D01*
Y161137D01*
X434273Y161793D01*
X433617D01*
X432961Y161137D01*
Y159169D01*
Y161137D01*
X432305Y161793D01*
X431649D01*
X430993Y161137D01*
Y159169D01*
X440638Y104626D02*
X436702D01*
Y106594D01*
X437358Y107250D01*
X438670D01*
X439326Y106594D01*
Y104626D01*
X440638Y111186D02*
Y108562D01*
X438014Y111186D01*
X437358D01*
X436702Y110530D01*
Y109218D01*
X437358Y108562D01*
X438014Y112497D02*
Y113153D01*
X438670D01*
Y112497D01*
X438014D01*
X439982D02*
Y113153D01*
X440638D01*
Y112497D01*
X439982D01*
X440638Y119713D02*
X436702D01*
Y121681D01*
X437358Y122337D01*
X438670D01*
X439326Y121681D01*
Y119713D01*
X436702Y123649D02*
X440638D01*
X439326Y124961D01*
X440638Y126272D01*
X436702D01*
Y134144D02*
Y131520D01*
X438670D01*
Y132832D01*
Y131520D01*
X440638D01*
Y135456D02*
X436702D01*
Y137424D01*
X437358Y138080D01*
X438670D01*
X439326Y137424D01*
Y135456D01*
Y136768D02*
X440638Y138080D01*
X436702Y141359D02*
Y140048D01*
X437358Y139392D01*
X439982D01*
X440638Y140048D01*
Y141359D01*
X439982Y142016D01*
X437358D01*
X436702Y141359D01*
X440638Y143327D02*
X436702D01*
X438014Y144639D01*
X436702Y145951D01*
X440638D01*
X436702Y151199D02*
X440638D01*
Y153167D01*
X439982Y153823D01*
X437358D01*
X436702Y153167D01*
Y151199D01*
Y155135D02*
X440638D01*
Y157103D01*
X439982Y157758D01*
X439326D01*
X438670Y157103D01*
Y155135D01*
Y157103D01*
X438014Y157758D01*
X437358D01*
X436702Y157103D01*
Y155135D01*
X437358Y161694D02*
X436702Y161038D01*
Y159726D01*
X437358Y159070D01*
X439982D01*
X440638Y159726D01*
Y161038D01*
X439982Y161694D01*
X438670D01*
Y160382D01*
X279332Y270669D02*
X282612D01*
X283268Y271325D01*
Y272637D01*
X282612Y273293D01*
X279332D01*
X283268Y277229D02*
Y274605D01*
X280644Y277229D01*
X279988D01*
X279332Y276573D01*
Y275261D01*
X279988Y274605D01*
X283268Y278541D02*
Y279853D01*
Y279197D01*
X279332D01*
X279988Y278541D01*
X274705Y267815D02*
X270769D01*
Y269783D01*
X271425Y270439D01*
X272737D01*
X273393Y269783D01*
Y267815D01*
Y269127D02*
X274705Y270439D01*
X270769Y271751D02*
Y274375D01*
X271425D01*
X274049Y271751D01*
X274705D01*
X270769Y275686D02*
Y278310D01*
X271425D01*
X274049Y275686D01*
X274705D01*
X264437Y255478D02*
X263781Y254822D01*
Y253510D01*
X264437Y252854D01*
X267061D01*
X267717Y253510D01*
Y254822D01*
X267061Y255478D01*
X267717Y256790D02*
Y258102D01*
Y257446D01*
X263781D01*
X264437Y256790D01*
Y260070D02*
X263781Y260726D01*
Y262038D01*
X264437Y262694D01*
X267061D01*
X267717Y262038D01*
Y260726D01*
X267061Y260070D01*
X264437D01*
X263781Y266629D02*
X264437Y265318D01*
X265749Y264006D01*
X267061D01*
X267717Y264662D01*
Y265973D01*
X267061Y266629D01*
X266405D01*
X265749Y265973D01*
Y264006D01*
X361779Y257447D02*
X361123Y256791D01*
Y255479D01*
X361779Y254823D01*
X364403D01*
X365059Y255479D01*
Y256791D01*
X364403Y257447D01*
X365059Y261382D02*
Y258759D01*
X362435Y261382D01*
X361779D01*
X361123Y260726D01*
Y259415D01*
X361779Y258759D01*
X361123Y265318D02*
X361779Y264006D01*
X363091Y262694D01*
X364403D01*
X365059Y263350D01*
Y264662D01*
X364403Y265318D01*
X363747D01*
X363091Y264662D01*
Y262694D01*
X280021Y199705D02*
X283301D01*
X283957Y200361D01*
Y201673D01*
X283301Y202328D01*
X280021D01*
X283957Y203641D02*
Y204952D01*
Y204296D01*
X280021D01*
X280677Y203641D01*
Y206920D02*
X280021Y207576D01*
Y208888D01*
X280677Y209544D01*
X283301D01*
X283957Y208888D01*
Y207576D01*
X283301Y206920D01*
X280677D01*
X275000Y196358D02*
X271064D01*
Y198326D01*
X271720Y198982D01*
X273032D01*
X273688Y198326D01*
Y196358D01*
Y197670D02*
X275000Y198982D01*
Y200294D02*
Y201606D01*
Y200950D01*
X271064D01*
X271720Y200294D01*
X264929Y186876D02*
X264273Y186220D01*
Y184908D01*
X264929Y184252D01*
X267553D01*
X268209Y184908D01*
Y186220D01*
X267553Y186876D01*
X268209Y190156D02*
X264273D01*
X266241Y188188D01*
Y190812D01*
X268209Y192123D02*
Y193435D01*
Y192779D01*
X264273D01*
X264929Y192123D01*
X362567Y191699D02*
X361911Y191043D01*
Y189731D01*
X362567Y189075D01*
X365191D01*
X365846Y189731D01*
Y191043D01*
X365191Y191699D01*
X362567Y193010D02*
X361911Y193667D01*
Y194978D01*
X362567Y195634D01*
X363223D01*
X363879Y194978D01*
Y194323D01*
Y194978D01*
X364534Y195634D01*
X365191D01*
X365846Y194978D01*
Y193667D01*
X365191Y193010D01*
X361911Y196946D02*
Y199570D01*
X362567D01*
X365191Y196946D01*
X365846D01*
X249803Y337413D02*
Y341349D01*
X251771D01*
X252427Y340693D01*
Y339381D01*
X251771Y338725D01*
X249803D01*
X251115D02*
X252427Y337413D01*
X253739Y340693D02*
X254395Y341349D01*
X255707D01*
X256363Y340693D01*
Y340037D01*
X255707Y339381D01*
X255051D01*
X255707D01*
X256363Y338725D01*
Y338069D01*
X255707Y337413D01*
X254395D01*
X253739Y338069D01*
X257675Y340693D02*
X258331Y341349D01*
X259643D01*
X260298Y340693D01*
Y340037D01*
X259643Y339381D01*
X258986D01*
X259643D01*
X260298Y338725D01*
Y338069D01*
X259643Y337413D01*
X258331D01*
X257675Y338069D01*
X151640Y440878D02*
X150984Y441534D01*
X149672D01*
X149016Y440878D01*
Y438254D01*
X149672Y437598D01*
X150984D01*
X151640Y438254D01*
X152952Y440878D02*
X153607Y441534D01*
X154919D01*
X155575Y440878D01*
Y440222D01*
X154919Y439566D01*
X154263D01*
X154919D01*
X155575Y438910D01*
Y438254D01*
X154919Y437598D01*
X153607D01*
X152952Y438254D01*
X156887Y440878D02*
X157543Y441534D01*
X158855D01*
X159511Y440878D01*
Y440222D01*
X158855Y439566D01*
X159511Y438910D01*
Y438254D01*
X158855Y437598D01*
X157543D01*
X156887Y438254D01*
Y438910D01*
X157543Y439566D01*
X156887Y440222D01*
Y440878D01*
X157543Y439566D02*
X158855D01*
X311963Y180314D02*
Y177034D01*
X312618Y176378D01*
X313931D01*
X314586Y177034D01*
Y180314D01*
X315898Y176378D02*
X317210D01*
X316554D01*
Y180314D01*
X315898Y179658D01*
X321802Y180314D02*
X319178D01*
Y178346D01*
X320490Y179002D01*
X321146D01*
X321802Y178346D01*
Y177034D01*
X321146Y176378D01*
X319834D01*
X319178Y177034D01*
X314764Y245274D02*
Y241995D01*
X315420Y241339D01*
X316732D01*
X317388Y241995D01*
Y245274D01*
X318700Y241339D02*
X320011D01*
X319356D01*
Y245274D01*
X318700Y244618D01*
X509056Y246358D02*
X512336D01*
X512992Y247014D01*
Y248326D01*
X512336Y248982D01*
X509056D01*
X509712Y250294D02*
X509056Y250950D01*
Y252262D01*
X509712Y252918D01*
X510368D01*
X511024Y252262D01*
Y251606D01*
Y252262D01*
X511680Y252918D01*
X512336D01*
X512992Y252262D01*
Y250950D01*
X512336Y250294D01*
X204691Y440288D02*
X204035Y440944D01*
X202723D01*
X202067Y440288D01*
Y437664D01*
X202723Y437008D01*
X204035D01*
X204691Y437664D01*
X207970Y437008D02*
Y440944D01*
X206003Y438976D01*
X208627D01*
X209938Y440288D02*
X210594Y440944D01*
X211906D01*
X212562Y440288D01*
Y437664D01*
X211906Y437008D01*
X210594D01*
X209938Y437664D01*
Y440288D01*
X161433Y471866D02*
X160777Y471210D01*
Y469898D01*
X161433Y469242D01*
X164057D01*
X164713Y469898D01*
Y471210D01*
X164057Y471866D01*
X160777Y475801D02*
X161433Y474489D01*
X162745Y473177D01*
X164057D01*
X164713Y473833D01*
Y475145D01*
X164057Y475801D01*
X163401D01*
X162745Y475145D01*
Y473177D01*
X160777Y477113D02*
Y479737D01*
X161433D01*
X164057Y477113D01*
X164713D01*
X629528Y115058D02*
X630839D01*
X630184D01*
Y111122D01*
X629528D01*
X630839D01*
X635431Y114402D02*
X634775Y115058D01*
X633463D01*
X632807Y114402D01*
Y111778D01*
X633463Y111122D01*
X634775D01*
X635431Y111778D01*
X639367Y115058D02*
X636743D01*
Y113090D01*
X638055Y113746D01*
X638711D01*
X639367Y113090D01*
Y111778D01*
X638711Y111122D01*
X637399D01*
X636743Y111778D01*
X630710Y172638D02*
Y173950D01*
Y173294D01*
X634646D01*
Y172638D01*
Y173950D01*
X631366Y178541D02*
X630710Y177885D01*
Y176574D01*
X631366Y175918D01*
X633990D01*
X634646Y176574D01*
Y177885D01*
X633990Y178541D01*
X634646Y182477D02*
Y179853D01*
X632022Y182477D01*
X631366D01*
X630710Y181821D01*
Y180509D01*
X631366Y179853D01*
X630415Y212697D02*
Y214009D01*
Y213353D01*
X634350D01*
Y212697D01*
Y214009D01*
X631071Y218601D02*
X630415Y217945D01*
Y216633D01*
X631071Y215977D01*
X633694D01*
X634350Y216633D01*
Y217945D01*
X633694Y218601D01*
X634350Y219912D02*
Y221224D01*
Y220568D01*
X630415D01*
X631071Y219912D01*
X317126Y345680D02*
Y342400D01*
X317782Y341744D01*
X319094D01*
X319750Y342400D01*
Y345680D01*
X323686Y341744D02*
X321062D01*
X323686Y344368D01*
Y345024D01*
X323030Y345680D01*
X321718D01*
X321062Y345024D01*
X324997D02*
X325653Y345680D01*
X326965D01*
X327621Y345024D01*
Y342400D01*
X326965Y341744D01*
X325653D01*
X324997Y342400D01*
Y345024D01*
X317224Y309164D02*
Y305884D01*
X317880Y305228D01*
X319192D01*
X319848Y305884D01*
Y309164D01*
X323784Y305228D02*
X321160D01*
X323784Y307852D01*
Y308508D01*
X323128Y309164D01*
X321816D01*
X321160Y308508D01*
X415321Y308496D02*
X414665Y309152D01*
X413353D01*
X412697Y308496D01*
Y305873D01*
X413353Y305217D01*
X414665D01*
X415321Y305873D01*
X416633D02*
X417289Y305217D01*
X418601D01*
X419256Y305873D01*
Y308496D01*
X418601Y309152D01*
X417289D01*
X416633Y308496D01*
Y307840D01*
X417289Y307184D01*
X419256D01*
X422536Y305217D02*
Y309152D01*
X420568Y307184D01*
X423192D01*
X294356Y342453D02*
X293700Y343109D01*
X292388D01*
X291732Y342453D01*
Y339829D01*
X292388Y339173D01*
X293700D01*
X294356Y339829D01*
X295668D02*
X296324Y339173D01*
X297636D01*
X298292Y339829D01*
Y342453D01*
X297636Y343109D01*
X296324D01*
X295668Y342453D01*
Y341797D01*
X296324Y341141D01*
X298292D01*
X299604Y342453D02*
X300260Y343109D01*
X301572D01*
X302228Y342453D01*
Y341797D01*
X301572Y341141D01*
X300916D01*
X301572D01*
X302228Y340485D01*
Y339829D01*
X301572Y339173D01*
X300260D01*
X299604Y339829D01*
X341797Y151705D02*
X341141Y152361D01*
X339829D01*
X339173Y151705D01*
Y149081D01*
X339829Y148425D01*
X341141D01*
X341797Y149081D01*
X343109Y152361D02*
X345733D01*
Y151705D01*
X343109Y149081D01*
Y148425D01*
X347045Y149081D02*
X347701Y148425D01*
X349013D01*
X349669Y149081D01*
Y151705D01*
X349013Y152361D01*
X347701D01*
X347045Y151705D01*
Y151049D01*
X347701Y150393D01*
X349669D01*
X357151Y151902D02*
X356495Y152558D01*
X355184D01*
X354528Y151902D01*
Y149278D01*
X355184Y148622D01*
X356495D01*
X357151Y149278D01*
X358463Y152558D02*
X361087D01*
Y151902D01*
X358463Y149278D01*
Y148622D01*
X362399Y151902D02*
X363055Y152558D01*
X364367D01*
X365023Y151902D01*
Y151246D01*
X364367Y150590D01*
X365023Y149934D01*
Y149278D01*
X364367Y148622D01*
X363055D01*
X362399Y149278D01*
Y149934D01*
X363055Y150590D01*
X362399Y151246D01*
Y151902D01*
X363055Y150590D02*
X364367D01*
X289632Y177591D02*
X288976Y178247D01*
X287664D01*
X287008Y177591D01*
Y174967D01*
X287664Y174311D01*
X288976D01*
X289632Y174967D01*
X290944Y178247D02*
X293567D01*
Y177591D01*
X290944Y174967D01*
Y174311D01*
X294879Y177591D02*
X295535Y178247D01*
X296847D01*
X297503Y177591D01*
Y176935D01*
X296847Y176279D01*
X296191D01*
X296847D01*
X297503Y175623D01*
Y174967D01*
X296847Y174311D01*
X295535D01*
X294879Y174967D01*
X359417Y275864D02*
X358761Y275208D01*
Y273896D01*
X359417Y273240D01*
X362041D01*
X362697Y273896D01*
Y275208D01*
X362041Y275864D01*
X358761Y279800D02*
Y277176D01*
X360729D01*
X360073Y278488D01*
Y279144D01*
X360729Y279800D01*
X362041D01*
X362697Y279144D01*
Y277832D01*
X362041Y277176D01*
X359417Y281112D02*
X358761Y281768D01*
Y283080D01*
X359417Y283735D01*
X362041D01*
X362697Y283080D01*
Y281768D01*
X362041Y281112D01*
X359417D01*
X675394Y469192D02*
Y465256D01*
X677362D01*
X678018Y465912D01*
Y468536D01*
X677362Y469192D01*
X675394D01*
X679329Y465256D02*
X680641D01*
X679985D01*
Y469192D01*
X679329Y468536D01*
X682609Y465256D02*
X683921D01*
X683265D01*
Y469192D01*
X682609Y468536D01*
X591437Y469782D02*
Y465846D01*
X593405D01*
X594061Y466502D01*
Y469126D01*
X593405Y469782D01*
X591437D01*
X595373Y465846D02*
X596685D01*
X596029D01*
Y469782D01*
X595373Y469126D01*
X598653D02*
X599308Y469782D01*
X600620D01*
X601276Y469126D01*
Y466502D01*
X600620Y465846D01*
X599308D01*
X598653Y466502D01*
Y469126D01*
X653543Y184449D02*
Y188385D01*
X655511D01*
X656167Y187729D01*
Y186417D01*
X655511Y185761D01*
X653543D01*
X654855D02*
X656167Y184449D01*
X657479Y187729D02*
X658135Y188385D01*
X659447D01*
X660103Y187729D01*
Y187073D01*
X659447Y186417D01*
X660103Y185761D01*
Y185105D01*
X659447Y184449D01*
X658135D01*
X657479Y185105D01*
Y185761D01*
X658135Y186417D01*
X657479Y187073D01*
Y187729D01*
X658135Y186417D02*
X659447D01*
X661415Y187729D02*
X662071Y188385D01*
X663383D01*
X664039Y187729D01*
Y187073D01*
X663383Y186417D01*
X662727D01*
X663383D01*
X664039Y185761D01*
Y185105D01*
X663383Y184449D01*
X662071D01*
X661415Y185105D01*
X665060Y491600D02*
Y490288D01*
Y490944D01*
X668340D01*
X668996Y490288D01*
Y489632D01*
X668340Y488976D01*
X665060Y495536D02*
X665716Y494224D01*
X667028Y492912D01*
X668340D01*
X668996Y493568D01*
Y494880D01*
X668340Y495536D01*
X667684D01*
X667028Y494880D01*
Y492912D01*
X584549Y491207D02*
Y489895D01*
Y490551D01*
X587828D01*
X588484Y489895D01*
Y489239D01*
X587828Y488583D01*
X584549Y495142D02*
Y492518D01*
X586516D01*
X585860Y493830D01*
Y494486D01*
X586516Y495142D01*
X587828D01*
X588484Y494486D01*
Y493174D01*
X587828Y492518D01*
X503840Y491108D02*
Y489796D01*
Y490452D01*
X507120D01*
X507776Y489796D01*
Y489140D01*
X507120Y488484D01*
X507776Y494388D02*
X503840D01*
X505808Y492420D01*
Y495044D01*
X423230Y491502D02*
Y490190D01*
Y490846D01*
X426509D01*
X427165Y490190D01*
Y489534D01*
X426509Y488878D01*
X423886Y492814D02*
X423230Y493470D01*
Y494782D01*
X423886Y495437D01*
X424542D01*
X425198Y494782D01*
Y494126D01*
Y494782D01*
X425853Y495437D01*
X426509D01*
X427165Y494782D01*
Y493470D01*
X426509Y492814D01*
X660203Y288614D02*
X659547Y289270D01*
X658235D01*
X657579Y288614D01*
Y285991D01*
X658235Y285335D01*
X659547D01*
X660203Y285991D01*
X663482Y285335D02*
Y289270D01*
X661515Y287302D01*
X664138D01*
X665450Y288614D02*
X666106Y289270D01*
X667418D01*
X668074Y288614D01*
Y287959D01*
X667418Y287302D01*
X666762D01*
X667418D01*
X668074Y286647D01*
Y285991D01*
X667418Y285335D01*
X666106D01*
X665450Y285991D01*
X661876Y372177D02*
X661220Y372833D01*
X659908D01*
X659252Y372177D01*
Y369554D01*
X659908Y368898D01*
X661220D01*
X661876Y369554D01*
X665156Y368898D02*
Y372833D01*
X663188Y370866D01*
X665811D01*
X669747Y368898D02*
X667123D01*
X669747Y371521D01*
Y372177D01*
X669091Y372833D01*
X667779D01*
X667123Y372177D01*
X320571Y413386D02*
Y417322D01*
X322539D01*
X323195Y416666D01*
Y415354D01*
X322539Y414698D01*
X320571D01*
X321883D02*
X323195Y413386D01*
X326474D02*
Y417322D01*
X324507Y415354D01*
X327130D01*
X328442Y417322D02*
X331066D01*
Y416666D01*
X328442Y414042D01*
Y413386D01*
X188287Y470766D02*
Y468143D01*
X189599Y466831D01*
X190911Y468143D01*
Y470766D01*
X192223Y466831D02*
Y470766D01*
X194191D01*
X194847Y470111D01*
Y468799D01*
X194191Y468143D01*
X192223D01*
X193535D02*
X194847Y466831D01*
X196159D02*
X197471D01*
X196815D01*
Y470766D01*
X196159Y470111D01*
X608760Y367912D02*
Y364632D01*
X609416Y363976D01*
X610728D01*
X611384Y364632D01*
Y367912D01*
X612696Y363976D02*
X614008D01*
X613351D01*
Y367912D01*
X612696Y367256D01*
X615975Y364632D02*
X616631Y363976D01*
X617943D01*
X618599Y364632D01*
Y367256D01*
X617943Y367912D01*
X616631D01*
X615975Y367256D01*
Y366600D01*
X616631Y365944D01*
X618599D01*
X612108Y286417D02*
X615387D01*
X616043Y287073D01*
Y288385D01*
X615387Y289041D01*
X612108D01*
X616043Y290353D02*
Y291665D01*
Y291009D01*
X612108D01*
X612764Y290353D01*
Y293633D02*
X612108Y294289D01*
Y295601D01*
X612764Y296257D01*
X613419D01*
X614075Y295601D01*
X614731Y296257D01*
X615387D01*
X616043Y295601D01*
Y294289D01*
X615387Y293633D01*
X614731D01*
X614075Y294289D01*
X613419Y293633D01*
X612764D01*
X614075Y294289D02*
Y295601D01*
X657382Y258857D02*
Y255577D01*
X658038Y254921D01*
X659350D01*
X660006Y255577D01*
Y258857D01*
X661318Y254921D02*
X662630D01*
X661974D01*
Y258857D01*
X661318Y258201D01*
X664597Y258857D02*
X667221D01*
Y258201D01*
X664597Y255577D01*
Y254921D01*
X655118Y335137D02*
Y331857D01*
X655774Y331201D01*
X657086D01*
X657742Y331857D01*
Y335137D01*
X659054Y331201D02*
X660366D01*
X659710D01*
Y335137D01*
X659054Y334481D01*
X664957Y335137D02*
X663646Y334481D01*
X662334Y333169D01*
Y331857D01*
X662990Y331201D01*
X664301D01*
X664957Y331857D01*
Y332513D01*
X664301Y333169D01*
X662334D01*
X308171Y415354D02*
X311450D01*
X312106Y416010D01*
Y417322D01*
X311450Y417978D01*
X308171D01*
X312106Y419290D02*
Y420602D01*
Y419946D01*
X308171D01*
X308826Y419290D01*
X312106Y424538D02*
X308171D01*
X310138Y422570D01*
Y425194D01*
X252461Y442322D02*
Y439042D01*
X253117Y438386D01*
X254429D01*
X255084Y439042D01*
Y442322D01*
X256396Y438386D02*
X257708D01*
X257052D01*
Y442322D01*
X256396Y441666D01*
X259676D02*
X260332Y442322D01*
X261644D01*
X262300Y441666D01*
Y441010D01*
X261644Y440354D01*
X260988D01*
X261644D01*
X262300Y439698D01*
Y439042D01*
X261644Y438386D01*
X260332D01*
X259676Y439042D01*
X232972Y376475D02*
Y373195D01*
X233628Y372539D01*
X234940D01*
X235596Y373195D01*
Y376475D01*
X236908Y372539D02*
X238220D01*
X237564D01*
Y376475D01*
X236908Y375819D01*
X242812Y372539D02*
X240188D01*
X242812Y375163D01*
Y375819D01*
X242156Y376475D01*
X240844D01*
X240188Y375819D01*
X317770Y390660D02*
Y387380D01*
X318426Y386724D01*
X319738D01*
X320394Y387380D01*
Y390660D01*
X321706Y386724D02*
X323018D01*
X322362D01*
Y390660D01*
X321706Y390004D01*
X324986Y386724D02*
X326298D01*
X325642D01*
Y390660D01*
X324986Y390004D01*
X512304Y398130D02*
X515584D01*
X516240Y398786D01*
Y400098D01*
X515584Y400754D01*
X512304D01*
X515584Y402066D02*
X516240Y402722D01*
Y404034D01*
X515584Y404690D01*
X512960D01*
X512304Y404034D01*
Y402722D01*
X512960Y402066D01*
X513616D01*
X514272Y402722D01*
Y404690D01*
X596261Y404035D02*
X599541D01*
X600197Y404691D01*
Y406003D01*
X599541Y406659D01*
X596261D01*
X596917Y407971D02*
X596261Y408627D01*
Y409939D01*
X596917Y410595D01*
X597573D01*
X598229Y409939D01*
X598885Y410595D01*
X599541D01*
X600197Y409939D01*
Y408627D01*
X599541Y407971D01*
X598885D01*
X598229Y408627D01*
X597573Y407971D01*
X596917D01*
X598229Y408627D02*
Y409939D01*
X539665Y422440D02*
Y419160D01*
X540321Y418504D01*
X541633D01*
X542289Y419160D01*
Y422440D01*
X543601D02*
X546225D01*
Y421784D01*
X543601Y419160D01*
Y418504D01*
X378545Y399114D02*
X381824D01*
X382480Y399770D01*
Y401082D01*
X381824Y401738D01*
X378545D01*
Y405674D02*
X379201Y404362D01*
X380512Y403050D01*
X381824D01*
X382480Y403706D01*
Y405018D01*
X381824Y405674D01*
X381168D01*
X380512Y405018D01*
Y403050D01*
X408366Y421062D02*
Y417782D01*
X409022Y417126D01*
X410334D01*
X410990Y417782D01*
Y421062D01*
X414926D02*
X412302D01*
Y419094D01*
X413614Y419750D01*
X414270D01*
X414926Y419094D01*
Y417782D01*
X414270Y417126D01*
X412958D01*
X412302Y417782D01*
X464370Y411515D02*
Y408235D01*
X465026Y407579D01*
X466338D01*
X466994Y408235D01*
Y411515D01*
X470274Y407579D02*
Y411515D01*
X468306Y409547D01*
X470930D01*
X651575Y131890D02*
X647639D01*
Y133858D01*
X648295Y134514D01*
X649607D01*
X650263Y133858D01*
Y131890D01*
Y133202D02*
X651575Y134514D01*
X647639Y135826D02*
Y138449D01*
X648295D01*
X650919Y135826D01*
X651575D01*
Y139761D02*
Y141073D01*
Y140417D01*
X647639D01*
X648295Y139761D01*
X627658Y115453D02*
X623722D01*
Y117421D01*
X624378Y118077D01*
X625690D01*
X626346Y117421D01*
Y115453D01*
Y116765D02*
X627658Y118077D01*
X623722Y119388D02*
Y122012D01*
X624378D01*
X627001Y119388D01*
X627658D01*
X624378Y123324D02*
X623722Y123980D01*
Y125292D01*
X624378Y125948D01*
X627001D01*
X627658Y125292D01*
Y123980D01*
X627001Y123324D01*
X624378D01*
X619291Y159547D02*
X615356D01*
Y161515D01*
X616012Y162171D01*
X617323D01*
X617979Y161515D01*
Y159547D01*
Y160859D02*
X619291Y162171D01*
X615356Y166107D02*
X616012Y164795D01*
X617323Y163483D01*
X618635D01*
X619291Y164139D01*
Y165451D01*
X618635Y166107D01*
X617979D01*
X617323Y165451D01*
Y163483D01*
X616012Y167419D02*
X615356Y168075D01*
Y169387D01*
X616012Y170043D01*
X616668D01*
X617323Y169387D01*
X617979Y170043D01*
X618635D01*
X619291Y169387D01*
Y168075D01*
X618635Y167419D01*
X617979D01*
X617323Y168075D01*
X616668Y167419D01*
X616012D01*
X617323Y168075D02*
Y169387D01*
X610827Y148327D02*
Y152262D01*
X612795D01*
X613451Y151607D01*
Y150295D01*
X612795Y149639D01*
X610827D01*
X612139D02*
X613451Y148327D01*
X617386Y152262D02*
X616074Y151607D01*
X614762Y150295D01*
Y148983D01*
X615418Y148327D01*
X616730D01*
X617386Y148983D01*
Y149639D01*
X616730Y150295D01*
X614762D01*
X618698Y152262D02*
X621322D01*
Y151607D01*
X618698Y148983D01*
Y148327D01*
X667717Y271457D02*
X663781D01*
Y273425D01*
X664437Y274080D01*
X665749D01*
X666405Y273425D01*
Y271457D01*
Y272769D02*
X667717Y274080D01*
X663781Y278016D02*
X664437Y276704D01*
X665749Y275392D01*
X667061D01*
X667717Y276048D01*
Y277360D01*
X667061Y278016D01*
X666405D01*
X665749Y277360D01*
Y275392D01*
X664437Y279328D02*
X663781Y279984D01*
Y281296D01*
X664437Y281952D01*
X665093D01*
X665749Y281296D01*
Y280640D01*
Y281296D01*
X666405Y281952D01*
X667061D01*
X667717Y281296D01*
Y279984D01*
X667061Y279328D01*
X609646Y372933D02*
X605710D01*
Y374901D01*
X606366Y375557D01*
X607678D01*
X608334Y374901D01*
Y372933D01*
Y374245D02*
X609646Y375557D01*
X605710Y379493D02*
X606366Y378181D01*
X607678Y376869D01*
X608990D01*
X609646Y377525D01*
Y378837D01*
X608990Y379493D01*
X608334D01*
X607678Y378837D01*
Y376869D01*
X609646Y380805D02*
Y382117D01*
Y381460D01*
X605710D01*
X606366Y380805D01*
X619882Y185925D02*
Y189861D01*
X621850D01*
X622506Y189205D01*
Y187893D01*
X621850Y187237D01*
X619882D01*
X621194D02*
X622506Y185925D01*
X626441Y189861D02*
X623818D01*
Y187893D01*
X625130Y188549D01*
X625785D01*
X626441Y187893D01*
Y186581D01*
X625785Y185925D01*
X624474D01*
X623818Y186581D01*
X627753D02*
X628409Y185925D01*
X629721D01*
X630377Y186581D01*
Y189205D01*
X629721Y189861D01*
X628409D01*
X627753Y189205D01*
Y188549D01*
X628409Y187893D01*
X630377D01*
X659252Y361122D02*
Y365058D01*
X661220D01*
X661876Y364402D01*
Y363090D01*
X661220Y362434D01*
X659252D01*
X660564D02*
X661876Y361122D01*
X665811Y365058D02*
X663188D01*
Y363090D01*
X664500Y363746D01*
X665156D01*
X665811Y363090D01*
Y361778D01*
X665156Y361122D01*
X663844D01*
X663188Y361778D01*
X669747Y365058D02*
X667123D01*
Y363090D01*
X668435Y363746D01*
X669091D01*
X669747Y363090D01*
Y361778D01*
X669091Y361122D01*
X667779D01*
X667123Y361778D01*
X659350Y353642D02*
Y357577D01*
X661318D01*
X661974Y356922D01*
Y355610D01*
X661318Y354954D01*
X659350D01*
X660662D02*
X661974Y353642D01*
X665910Y357577D02*
X663286D01*
Y355610D01*
X664598Y356265D01*
X665254D01*
X665910Y355610D01*
Y354298D01*
X665254Y353642D01*
X663942D01*
X663286Y354298D01*
X669190Y353642D02*
Y357577D01*
X667222Y355610D01*
X669846D01*
X245965Y409547D02*
X242029D01*
Y411515D01*
X242685Y412171D01*
X243997D01*
X244653Y411515D01*
Y409547D01*
Y410859D02*
X245965Y412171D01*
Y415451D02*
X242029D01*
X243997Y413483D01*
Y416107D01*
X245309Y417419D02*
X245965Y418075D01*
Y419387D01*
X245309Y420043D01*
X242685D01*
X242029Y419387D01*
Y418075D01*
X242685Y417419D01*
X243341D01*
X243997Y418075D01*
Y420043D01*
X225984Y411713D02*
Y415648D01*
X227952D01*
X228608Y414992D01*
Y413681D01*
X227952Y413025D01*
X225984D01*
X227296D02*
X228608Y411713D01*
X231888D02*
Y415648D01*
X229920Y413681D01*
X232544D01*
X236480Y415648D02*
X233856D01*
Y413681D01*
X235168Y414336D01*
X235824D01*
X236480Y413681D01*
Y412369D01*
X235824Y411713D01*
X234512D01*
X233856Y412369D01*
X362160Y349224D02*
X358224D01*
Y351192D01*
X358880Y351848D01*
X360192D01*
X360848Y351192D01*
Y349224D01*
Y350536D02*
X362160Y351848D01*
Y355128D02*
X358224D01*
X360192Y353160D01*
Y355784D01*
X362160Y359720D02*
Y357096D01*
X359536Y359720D01*
X358880D01*
X358224Y359064D01*
Y357752D01*
X358880Y357096D01*
X354089Y348929D02*
X350153D01*
Y350897D01*
X350809Y351553D01*
X352121D01*
X352777Y350897D01*
Y348929D01*
Y350241D02*
X354089Y351553D01*
X350809Y352865D02*
X350153Y353521D01*
Y354833D01*
X350809Y355489D01*
X351465D01*
X352121Y354833D01*
Y354177D01*
Y354833D01*
X352777Y355489D01*
X353433D01*
X354089Y354833D01*
Y353521D01*
X353433Y352865D01*
Y356801D02*
X354089Y357457D01*
Y358769D01*
X353433Y359424D01*
X350809D01*
X350153Y358769D01*
Y357457D01*
X350809Y356801D01*
X351465D01*
X352121Y357457D01*
Y359424D01*
X310773Y352350D02*
Y356286D01*
X312741D01*
X313397Y355630D01*
Y354318D01*
X312741Y353662D01*
X310773D01*
X312085D02*
X313397Y352350D01*
X314709Y355630D02*
X315365Y356286D01*
X316677D01*
X317333Y355630D01*
Y354974D01*
X316677Y354318D01*
X316021D01*
X316677D01*
X317333Y353662D01*
Y353006D01*
X316677Y352350D01*
X315365D01*
X314709Y353006D01*
X321269Y356286D02*
X318645D01*
Y354318D01*
X319957Y354974D01*
X320613D01*
X321269Y354318D01*
Y353006D01*
X320613Y352350D01*
X319301D01*
X318645Y353006D01*
X265354Y337894D02*
Y341829D01*
X267322D01*
X267978Y341174D01*
Y339862D01*
X267322Y339206D01*
X265354D01*
X266666D02*
X267978Y337894D01*
X269290Y341174D02*
X269946Y341829D01*
X271258D01*
X271914Y341174D01*
Y340517D01*
X271258Y339862D01*
X270602D01*
X271258D01*
X271914Y339206D01*
Y338550D01*
X271258Y337894D01*
X269946D01*
X269290Y338550D01*
X275194Y337894D02*
Y341829D01*
X273226Y339862D01*
X275850D01*
X263386Y174114D02*
Y178050D01*
X265354D01*
X266010Y177394D01*
Y176082D01*
X265354Y175426D01*
X263386D01*
X264698D02*
X266010Y174114D01*
X267322Y177394D02*
X267977Y178050D01*
X269289D01*
X269945Y177394D01*
Y176738D01*
X269289Y176082D01*
X268634D01*
X269289D01*
X269945Y175426D01*
Y174770D01*
X269289Y174114D01*
X267977D01*
X267322Y174770D01*
X271257Y174114D02*
X272569D01*
X271913D01*
Y178050D01*
X271257Y177394D01*
X246850Y172736D02*
Y176672D01*
X248818D01*
X249474Y176016D01*
Y174704D01*
X248818Y174048D01*
X246850D01*
X248162D02*
X249474Y172736D01*
X250786Y176016D02*
X251442Y176672D01*
X252754D01*
X253410Y176016D01*
Y175360D01*
X252754Y174704D01*
X252098D01*
X252754D01*
X253410Y174048D01*
Y173392D01*
X252754Y172736D01*
X251442D01*
X250786Y173392D01*
X254722Y176016D02*
X255378Y176672D01*
X256690D01*
X257346Y176016D01*
Y173392D01*
X256690Y172736D01*
X255378D01*
X254722Y173392D01*
Y176016D01*
X274114Y239173D02*
X270178D01*
Y241141D01*
X270834Y241797D01*
X272146D01*
X272802Y241141D01*
Y239173D01*
Y240485D02*
X274114Y241797D01*
Y245733D02*
Y243109D01*
X271490Y245733D01*
X270834D01*
X270178Y245077D01*
Y243765D01*
X270834Y243109D01*
X270178Y247045D02*
Y249669D01*
X270834D01*
X273458Y247045D01*
X274114D01*
X251181Y237402D02*
Y241337D01*
X253149D01*
X253805Y240681D01*
Y239369D01*
X253149Y238714D01*
X251181D01*
X252493D02*
X253805Y237402D01*
X257741D02*
X255117D01*
X257741Y240025D01*
Y240681D01*
X257085Y241337D01*
X255773D01*
X255117Y240681D01*
X261676Y241337D02*
X260365Y240681D01*
X259053Y239369D01*
Y238057D01*
X259708Y237402D01*
X261020D01*
X261676Y238057D01*
Y238714D01*
X261020Y239369D01*
X259053D01*
X250689Y301476D02*
Y305412D01*
X252657D01*
X253313Y304756D01*
Y303444D01*
X252657Y302788D01*
X250689D01*
X252001D02*
X253313Y301476D01*
X257248D02*
X254625D01*
X257248Y304100D01*
Y304756D01*
X256593Y305412D01*
X255281D01*
X254625Y304756D01*
X261184Y301476D02*
X258560D01*
X261184Y304100D01*
Y304756D01*
X260528Y305412D01*
X259216D01*
X258560Y304756D01*
X413583Y317126D02*
Y321062D01*
X415551D01*
X416207Y320406D01*
Y319094D01*
X415551Y318438D01*
X413583D01*
X414895D02*
X416207Y317126D01*
X417518D02*
X418830D01*
X418174D01*
Y321062D01*
X417518Y320406D01*
X423422Y321062D02*
X420798D01*
Y319094D01*
X422110Y319750D01*
X422766D01*
X423422Y319094D01*
Y317782D01*
X422766Y317126D01*
X421454D01*
X420798Y317782D01*
X145309Y340124D02*
X142685D01*
X142029Y339468D01*
Y338156D01*
X142685Y337500D01*
X145309D01*
X145965Y338156D01*
Y339468D01*
X144653Y338812D02*
X145965Y340124D01*
Y339468D02*
X145309Y340124D01*
X145965Y343404D02*
X142029D01*
X143997Y341436D01*
Y344060D01*
X214206Y341600D02*
X211582D01*
X210927Y340944D01*
Y339632D01*
X211582Y338976D01*
X214206D01*
X214862Y339632D01*
Y340944D01*
X213550Y340288D02*
X214862Y341600D01*
Y340944D02*
X214206Y341600D01*
X211582Y342912D02*
X210927Y343568D01*
Y344880D01*
X211582Y345536D01*
X212238D01*
X212894Y344880D01*
Y344224D01*
Y344880D01*
X213550Y345536D01*
X214206D01*
X214862Y344880D01*
Y343568D01*
X214206Y342912D01*
X150951Y231022D02*
Y233646D01*
X150295Y234302D01*
X148983D01*
X148327Y233646D01*
Y231022D01*
X148983Y230366D01*
X150295D01*
X149639Y231678D02*
X150951Y230366D01*
X150295D02*
X150951Y231022D01*
X154886Y230366D02*
X152262D01*
X154886Y232990D01*
Y233646D01*
X154230Y234302D01*
X152919D01*
X152262Y233646D01*
X187762Y230873D02*
Y233496D01*
X187106Y234152D01*
X185794D01*
X185138Y233496D01*
Y230873D01*
X185794Y230217D01*
X187106D01*
X186450Y231528D02*
X187762Y230217D01*
X187106D02*
X187762Y230873D01*
X189074Y230217D02*
X190385D01*
X189729D01*
Y234152D01*
X189074Y233496D01*
X331693Y487402D02*
X327757D01*
Y489369D01*
X328413Y490025D01*
X329725D01*
X330381Y489369D01*
Y487402D01*
X331693Y491337D02*
Y492649D01*
Y491993D01*
X327757D01*
X328413Y491337D01*
X331693Y496585D02*
X327757D01*
X329725Y494617D01*
Y497241D01*
X136516Y300590D02*
X132580D01*
Y302558D01*
X133236Y303214D01*
X134548D01*
X135204Y302558D01*
Y300590D01*
X136516Y304526D02*
Y305838D01*
Y305182D01*
X132580D01*
X133236Y304526D01*
Y307806D02*
X132580Y308462D01*
Y309774D01*
X133236Y310430D01*
X133892D01*
X134548Y309774D01*
Y309118D01*
Y309774D01*
X135204Y310430D01*
X135860D01*
X136516Y309774D01*
Y308462D01*
X135860Y307806D01*
X450197Y134547D02*
X446261D01*
Y136515D01*
X446917Y137171D01*
X448229D01*
X448885Y136515D01*
Y134547D01*
X450197Y140451D02*
X446261D01*
X448229Y138483D01*
Y141107D01*
X462008Y134744D02*
X458072D01*
Y136712D01*
X458728Y137368D01*
X460040D01*
X460696Y136712D01*
Y134744D01*
X462008Y141304D02*
Y138680D01*
X459384Y141304D01*
X458728D01*
X458072Y140648D01*
Y139336D01*
X458728Y138680D01*
X486025Y285892D02*
Y283268D01*
X487993D01*
Y284580D01*
Y283268D01*
X489961D01*
X486025Y287204D02*
X489961D01*
Y289171D01*
X489305Y289827D01*
X488649D01*
X487993Y289171D01*
Y287204D01*
Y289171D01*
X487337Y289827D01*
X486681D01*
X486025Y289171D01*
Y287204D01*
X489961Y293107D02*
X486025D01*
X487993Y291139D01*
Y293763D01*
X293505Y460990D02*
Y458366D01*
X295473D01*
Y459678D01*
Y458366D01*
X297441D01*
X293505Y462302D02*
X297441D01*
Y464270D01*
X296785Y464926D01*
X296129D01*
X295473Y464270D01*
Y462302D01*
Y464270D01*
X294817Y464926D01*
X294161D01*
X293505Y464270D01*
Y462302D01*
X294161Y466238D02*
X293505Y466894D01*
Y468205D01*
X294161Y468861D01*
X294817D01*
X295473Y468205D01*
Y467550D01*
Y468205D01*
X296129Y468861D01*
X296785D01*
X297441Y468205D01*
Y466894D01*
X296785Y466238D01*
X289962Y428313D02*
Y425689D01*
X291930D01*
Y427001D01*
Y425689D01*
X293898D01*
X289962Y429625D02*
X293898D01*
Y431593D01*
X293242Y432248D01*
X292586D01*
X291930Y431593D01*
Y429625D01*
Y431593D01*
X291274Y432248D01*
X290618D01*
X289962Y431593D01*
Y429625D01*
X293898Y436184D02*
Y433561D01*
X291274Y436184D01*
X290618D01*
X289962Y435528D01*
Y434216D01*
X290618Y433561D01*
X611187Y333168D02*
X608563D01*
Y331200D01*
X609875D01*
X608563D01*
Y329232D01*
X612499Y333168D02*
Y329232D01*
X614467D01*
X615123Y329888D01*
Y330544D01*
X614467Y331200D01*
X612499D01*
X614467D01*
X615123Y331856D01*
Y332512D01*
X614467Y333168D01*
X612499D01*
X616434Y329232D02*
X617746D01*
X617090D01*
Y333168D01*
X616434Y332512D01*
X351478Y458858D02*
X355413D01*
Y460826D01*
X354757Y461482D01*
X352134D01*
X351478Y460826D01*
Y458858D01*
X354757Y462794D02*
X355413Y463450D01*
Y464762D01*
X354757Y465418D01*
X352134D01*
X351478Y464762D01*
Y463450D01*
X352134Y462794D01*
X352790D01*
X353446Y463450D01*
Y465418D01*
X235925Y314873D02*
Y310937D01*
X237893D01*
X238549Y311593D01*
Y314217D01*
X237893Y314873D01*
X235925D01*
X239861Y314217D02*
X240517Y314873D01*
X241829D01*
X242485Y314217D01*
Y313561D01*
X241829Y312905D01*
X242485Y312249D01*
Y311593D01*
X241829Y310937D01*
X240517D01*
X239861Y311593D01*
Y312249D01*
X240517Y312905D01*
X239861Y313561D01*
Y314217D01*
X240517Y312905D02*
X241829D01*
X238681Y149310D02*
Y145374D01*
X240649D01*
X241305Y146030D01*
Y148654D01*
X240649Y149310D01*
X238681D01*
X242617D02*
X245241D01*
Y148654D01*
X242617Y146030D01*
Y145374D01*
X235335Y218995D02*
Y215059D01*
X237302D01*
X237959Y215715D01*
Y218339D01*
X237302Y218995D01*
X235335D01*
X241894D02*
X240582Y218339D01*
X239270Y217027D01*
Y215715D01*
X239926Y215059D01*
X241238D01*
X241894Y215715D01*
Y216371D01*
X241238Y217027D01*
X239270D01*
X237500Y280719D02*
Y276783D01*
X239468D01*
X240124Y277439D01*
Y280063D01*
X239468Y280719D01*
X237500D01*
X244060D02*
X241436D01*
Y278751D01*
X242748Y279407D01*
X243404D01*
X244060Y278751D01*
Y277439D01*
X243404Y276783D01*
X242092D01*
X241436Y277439D01*
X509941Y470668D02*
Y466732D01*
X511909D01*
X512565Y467388D01*
Y470012D01*
X511909Y470668D01*
X509941D01*
X515844Y466732D02*
Y470668D01*
X513877Y468700D01*
X516501D01*
X431595Y470570D02*
Y466634D01*
X433562D01*
X434218Y467290D01*
Y469914D01*
X433562Y470570D01*
X431595D01*
X435530Y469914D02*
X436186Y470570D01*
X437498D01*
X438154Y469914D01*
Y469258D01*
X437498Y468602D01*
X436842D01*
X437498D01*
X438154Y467946D01*
Y467290D01*
X437498Y466634D01*
X436186D01*
X435530Y467290D01*
X653903Y107315D02*
X653247Y107971D01*
X651935D01*
X651279Y107315D01*
Y104691D01*
X651935Y104035D01*
X653247D01*
X653903Y104691D01*
X655215Y104035D02*
X656527D01*
X655871D01*
Y107971D01*
X655215Y107315D01*
X658495Y104035D02*
X659807D01*
X659151D01*
Y107971D01*
X658495Y107315D01*
X661775Y107971D02*
X664399D01*
Y107315D01*
X661775Y104691D01*
Y104035D01*
X649769Y146095D02*
X649114Y146751D01*
X647802D01*
X647146Y146095D01*
Y143471D01*
X647802Y142815D01*
X649114D01*
X649769Y143471D01*
X651081Y142815D02*
X652393D01*
X651737D01*
Y146751D01*
X651081Y146095D01*
X654361Y142815D02*
X655673D01*
X655017D01*
Y146751D01*
X654361Y146095D01*
X659609Y142815D02*
Y146751D01*
X657641Y144783D01*
X660265D01*
X604496Y164829D02*
X603840Y164173D01*
Y162861D01*
X604496Y162205D01*
X607120D01*
X607776Y162861D01*
Y164173D01*
X607120Y164829D01*
X607776Y166140D02*
Y167452D01*
Y166796D01*
X603840D01*
X604496Y166140D01*
X607776Y169420D02*
Y170732D01*
Y170076D01*
X603840D01*
X604496Y169420D01*
X607776Y172700D02*
Y174012D01*
Y173356D01*
X603840D01*
X604496Y172700D01*
X624870Y239730D02*
X624214Y239074D01*
Y237762D01*
X624870Y237106D01*
X627494D01*
X628150Y237762D01*
Y239074D01*
X627494Y239730D01*
X628150Y241042D02*
Y242354D01*
Y241698D01*
X624214D01*
X624870Y241042D01*
X628150Y244322D02*
Y245634D01*
Y244978D01*
X624214D01*
X624870Y244322D01*
Y247602D02*
X624214Y248258D01*
Y249570D01*
X624870Y250225D01*
X627494D01*
X628150Y249570D01*
Y248258D01*
X627494Y247602D01*
X624870D01*
X644356Y301508D02*
X643700Y302164D01*
X642388D01*
X641732Y301508D01*
Y298884D01*
X642388Y298228D01*
X643700D01*
X644356Y298884D01*
X645668Y298228D02*
X646980D01*
X646324D01*
Y302164D01*
X645668Y301508D01*
X648948D02*
X649604Y302164D01*
X650916D01*
X651572Y301508D01*
Y298884D01*
X650916Y298228D01*
X649604D01*
X648948Y298884D01*
Y301508D01*
X652883Y298884D02*
X653540Y298228D01*
X654851D01*
X655507Y298884D01*
Y301508D01*
X654851Y302164D01*
X653540D01*
X652883Y301508D01*
Y300852D01*
X653540Y300196D01*
X655507D01*
X645931Y239992D02*
X645275Y240648D01*
X643963D01*
X643307Y239992D01*
Y237369D01*
X643963Y236713D01*
X645275D01*
X645931Y237369D01*
X647243Y236713D02*
X648555D01*
X647899D01*
Y240648D01*
X647243Y239992D01*
X650523D02*
X651179Y240648D01*
X652491D01*
X653146Y239992D01*
Y237369D01*
X652491Y236713D01*
X651179D01*
X650523Y237369D01*
Y239992D01*
X657082Y240648D02*
X654458D01*
Y238681D01*
X655770Y239336D01*
X656426D01*
X657082Y238681D01*
Y237369D01*
X656426Y236713D01*
X655114D01*
X654458Y237369D01*
X639240Y254199D02*
X638584Y253543D01*
Y252231D01*
X639240Y251575D01*
X641864D01*
X642520Y252231D01*
Y253543D01*
X641864Y254199D01*
X642520Y255510D02*
Y256822D01*
Y256167D01*
X638584D01*
X639240Y255510D01*
Y258790D02*
X638584Y259446D01*
Y260758D01*
X639240Y261414D01*
X641864D01*
X642520Y260758D01*
Y259446D01*
X641864Y258790D01*
X639240D01*
Y262726D02*
X638584Y263382D01*
Y264694D01*
X639240Y265350D01*
X639896D01*
X640552Y264694D01*
Y264038D01*
Y264694D01*
X641208Y265350D01*
X641864D01*
X642520Y264694D01*
Y263382D01*
X641864Y262726D01*
X605478Y262433D02*
X604822Y263089D01*
X603510D01*
X602854Y262433D01*
Y259809D01*
X603510Y259154D01*
X604822D01*
X605478Y259809D01*
X606790Y259154D02*
X608102D01*
X607446D01*
Y263089D01*
X606790Y262433D01*
X610070D02*
X610726Y263089D01*
X612038D01*
X612694Y262433D01*
Y259809D01*
X612038Y259154D01*
X610726D01*
X610070Y259809D01*
Y262433D01*
X616629Y259154D02*
X614006D01*
X616629Y261777D01*
Y262433D01*
X615974Y263089D01*
X614662D01*
X614006Y262433D01*
X652821Y151705D02*
X652165Y152361D01*
X650853D01*
X650197Y151705D01*
Y149081D01*
X650853Y148425D01*
X652165D01*
X652821Y149081D01*
X654133Y148425D02*
X655444D01*
X654789D01*
Y152361D01*
X654133Y151705D01*
X657412D02*
X658068Y152361D01*
X659380D01*
X660036Y151705D01*
Y149081D01*
X659380Y148425D01*
X658068D01*
X657412Y149081D01*
Y151705D01*
X661348D02*
X662004Y152361D01*
X663316D01*
X663972Y151705D01*
Y149081D01*
X663316Y148425D01*
X662004D01*
X661348Y149081D01*
Y151705D01*
X613649Y206856D02*
X612993Y206200D01*
Y204888D01*
X613649Y204232D01*
X616273D01*
X616929Y204888D01*
Y206200D01*
X616273Y206856D01*
Y208168D02*
X616929Y208824D01*
Y210136D01*
X616273Y210792D01*
X613649D01*
X612993Y210136D01*
Y208824D01*
X613649Y208168D01*
X614305D01*
X614961Y208824D01*
Y210792D01*
X613649Y212104D02*
X612993Y212760D01*
Y214072D01*
X613649Y214728D01*
X614305D01*
X614961Y214072D01*
X615617Y214728D01*
X616273D01*
X616929Y214072D01*
Y212760D01*
X616273Y212104D01*
X615617D01*
X614961Y212760D01*
X614305Y212104D01*
X613649D01*
X614961Y212760D02*
Y214072D01*
X617980Y376049D02*
X617324Y375393D01*
Y374081D01*
X617980Y373425D01*
X620604D01*
X621260Y374081D01*
Y375393D01*
X620604Y376049D01*
Y377361D02*
X621260Y378017D01*
Y379329D01*
X620604Y379985D01*
X617980D01*
X617324Y379329D01*
Y378017D01*
X617980Y377361D01*
X618636D01*
X619292Y378017D01*
Y379985D01*
X617324Y383921D02*
X617980Y382609D01*
X619292Y381297D01*
X620604D01*
X621260Y381953D01*
Y383264D01*
X620604Y383921D01*
X619948D01*
X619292Y383264D01*
Y381297D01*
X638254Y382512D02*
X637598Y383168D01*
X636286D01*
X635630Y382512D01*
Y379888D01*
X636286Y379232D01*
X637598D01*
X638254Y379888D01*
X639566D02*
X640222Y379232D01*
X641534D01*
X642190Y379888D01*
Y382512D01*
X641534Y383168D01*
X640222D01*
X639566Y382512D01*
Y381856D01*
X640222Y381200D01*
X642190D01*
X646125Y383168D02*
X643501D01*
Y381200D01*
X644813Y381856D01*
X645469D01*
X646125Y381200D01*
Y379888D01*
X645469Y379232D01*
X644157D01*
X643501Y379888D01*
X645832Y314697D02*
X645177Y315353D01*
X643865D01*
X643209Y314697D01*
Y312073D01*
X643865Y311417D01*
X645177D01*
X645832Y312073D01*
X647144D02*
X647800Y311417D01*
X649112D01*
X649768Y312073D01*
Y314697D01*
X649112Y315353D01*
X647800D01*
X647144Y314697D01*
Y314041D01*
X647800Y313385D01*
X649768D01*
X653704Y311417D02*
X651080D01*
X653704Y314041D01*
Y314697D01*
X653048Y315353D01*
X651736D01*
X651080Y314697D01*
X661974Y379461D02*
X661318Y380117D01*
X660006D01*
X659350Y379461D01*
Y376837D01*
X660006Y376181D01*
X661318D01*
X661974Y376837D01*
X663286Y379461D02*
X663942Y380117D01*
X665254D01*
X665910Y379461D01*
Y378805D01*
X665254Y378149D01*
X665910Y377493D01*
Y376837D01*
X665254Y376181D01*
X663942D01*
X663286Y376837D01*
Y377493D01*
X663942Y378149D01*
X663286Y378805D01*
Y379461D01*
X663942Y378149D02*
X665254D01*
X667222Y379461D02*
X667878Y380117D01*
X669190D01*
X669846Y379461D01*
Y378805D01*
X669190Y378149D01*
X669846Y377493D01*
Y376837D01*
X669190Y376181D01*
X667878D01*
X667222Y376837D01*
Y377493D01*
X667878Y378149D01*
X667222Y378805D01*
Y379461D01*
X667878Y378149D02*
X669190D01*
X661679Y350327D02*
X661023Y350983D01*
X659711D01*
X659055Y350327D01*
Y347703D01*
X659711Y347047D01*
X661023D01*
X661679Y347703D01*
X662991Y350327D02*
X663647Y350983D01*
X664959D01*
X665615Y350327D01*
Y349671D01*
X664959Y349015D01*
X665615Y348359D01*
Y347703D01*
X664959Y347047D01*
X663647D01*
X662991Y347703D01*
Y348359D01*
X663647Y349015D01*
X662991Y349671D01*
Y350327D01*
X663647Y349015D02*
X664959D01*
X669550Y350983D02*
X668238Y350327D01*
X666927Y349015D01*
Y347703D01*
X667583Y347047D01*
X668894D01*
X669550Y347703D01*
Y348359D01*
X668894Y349015D01*
X666927D01*
X494063Y292486D02*
X493407Y291830D01*
Y290518D01*
X494063Y289862D01*
X496687D01*
X497342Y290518D01*
Y291830D01*
X496687Y292486D01*
X494063Y293798D02*
X493407Y294454D01*
Y295766D01*
X494063Y296422D01*
X494719D01*
X495375Y295766D01*
X496031Y296422D01*
X496687D01*
X497342Y295766D01*
Y294454D01*
X496687Y293798D01*
X496031D01*
X495375Y294454D01*
X494719Y293798D01*
X494063D01*
X495375Y294454D02*
Y295766D01*
X494063Y297734D02*
X493407Y298390D01*
Y299701D01*
X494063Y300358D01*
X496687D01*
X497342Y299701D01*
Y298390D01*
X496687Y297734D01*
X494063D01*
X260399Y408398D02*
X259743Y409054D01*
X258432D01*
X257776Y408398D01*
Y405774D01*
X258432Y405118D01*
X259743D01*
X260399Y405774D01*
X261711Y409054D02*
X264335D01*
Y408398D01*
X261711Y405774D01*
Y405118D01*
X265647D02*
X266959D01*
X266303D01*
Y409054D01*
X265647Y408398D01*
X172901Y461482D02*
X172245Y460826D01*
Y459514D01*
X172901Y458858D01*
X175525D01*
X176181Y459514D01*
Y460826D01*
X175525Y461482D01*
X172245Y465418D02*
X172901Y464106D01*
X174213Y462794D01*
X175525D01*
X176181Y463450D01*
Y464762D01*
X175525Y465418D01*
X174869D01*
X174213Y464762D01*
Y462794D01*
X175525Y466730D02*
X176181Y467386D01*
Y468698D01*
X175525Y469354D01*
X172901D01*
X172245Y468698D01*
Y467386D01*
X172901Y466730D01*
X173557D01*
X174213Y467386D01*
Y469354D01*
X270242Y440977D02*
X269586Y441633D01*
X268274D01*
X267618Y440977D01*
Y438353D01*
X268274Y437697D01*
X269586D01*
X270242Y438353D01*
X274178Y441633D02*
X272866Y440977D01*
X271554Y439665D01*
Y438353D01*
X272210Y437697D01*
X273522D01*
X274178Y438353D01*
Y439009D01*
X273522Y439665D01*
X271554D01*
X278113Y441633D02*
X275490D01*
Y439665D01*
X276801Y440321D01*
X277457D01*
X278113Y439665D01*
Y438353D01*
X277457Y437697D01*
X276146D01*
X275490Y438353D01*
X274080Y408299D02*
X273425Y408955D01*
X272113D01*
X271457Y408299D01*
Y405676D01*
X272113Y405020D01*
X273425D01*
X274080Y405676D01*
X278016Y408955D02*
X276704Y408299D01*
X275392Y406988D01*
Y405676D01*
X276048Y405020D01*
X277360D01*
X278016Y405676D01*
Y406332D01*
X277360Y406988D01*
X275392D01*
X279328Y408299D02*
X279984Y408955D01*
X281296D01*
X281952Y408299D01*
Y407644D01*
X281296Y406988D01*
X280640D01*
X281296D01*
X281952Y406332D01*
Y405676D01*
X281296Y405020D01*
X279984D01*
X279328Y405676D01*
X289830Y414238D02*
X289175Y413582D01*
Y412270D01*
X289830Y411614D01*
X292454D01*
X293110Y412270D01*
Y413582D01*
X292454Y414238D01*
X289175Y418174D02*
X289830Y416862D01*
X291142Y415550D01*
X292454D01*
X293110Y416206D01*
Y417518D01*
X292454Y418174D01*
X291798D01*
X291142Y417518D01*
Y415550D01*
X293110Y422110D02*
Y419486D01*
X290486Y422110D01*
X289830D01*
X289175Y421454D01*
Y420142D01*
X289830Y419486D01*
X355872Y420209D02*
X355216Y420865D01*
X353904D01*
X353248Y420209D01*
Y417585D01*
X353904Y416929D01*
X355216D01*
X355872Y417585D01*
X359808Y420865D02*
X358496Y420209D01*
X357184Y418897D01*
Y417585D01*
X357840Y416929D01*
X359152D01*
X359808Y417585D01*
Y418241D01*
X359152Y418897D01*
X357184D01*
X361120Y416929D02*
X362431D01*
X361775D01*
Y420865D01*
X361120Y420209D01*
X220637Y436876D02*
X219982Y436220D01*
Y434908D01*
X220637Y434252D01*
X223261D01*
X223917Y434908D01*
Y436220D01*
X223261Y436876D01*
X219982Y440811D02*
X220637Y439500D01*
X221949Y438188D01*
X223261D01*
X223917Y438844D01*
Y440156D01*
X223261Y440811D01*
X222605D01*
X221949Y440156D01*
Y438188D01*
X220637Y442124D02*
X219982Y442779D01*
Y444091D01*
X220637Y444747D01*
X223261D01*
X223917Y444091D01*
Y442779D01*
X223261Y442124D01*
X220637D01*
X233433Y437860D02*
X232777Y437204D01*
Y435892D01*
X233433Y435236D01*
X236057D01*
X236713Y435892D01*
Y437204D01*
X236057Y437860D01*
X232777Y441796D02*
Y439172D01*
X234745D01*
X234089Y440484D01*
Y441140D01*
X234745Y441796D01*
X236057D01*
X236713Y441140D01*
Y439828D01*
X236057Y439172D01*
Y443108D02*
X236713Y443764D01*
Y445076D01*
X236057Y445731D01*
X233433D01*
X232777Y445076D01*
Y443764D01*
X233433Y443108D01*
X234089D01*
X234745Y443764D01*
Y445731D01*
X599476Y331364D02*
X598820Y330708D01*
Y329396D01*
X599476Y328740D01*
X602100D01*
X602756Y329396D01*
Y330708D01*
X602100Y331364D01*
X598820Y335300D02*
Y332676D01*
X600788D01*
X600132Y333988D01*
Y334644D01*
X600788Y335300D01*
X602100D01*
X602756Y334644D01*
Y333332D01*
X602100Y332676D01*
X599476Y336612D02*
X598820Y337268D01*
Y338580D01*
X599476Y339235D01*
X600132D01*
X600788Y338580D01*
X601444Y339235D01*
X602100D01*
X602756Y338580D01*
Y337268D01*
X602100Y336612D01*
X601444D01*
X600788Y337268D01*
X600132Y336612D01*
X599476D01*
X600788Y337268D02*
Y338580D01*
X589535Y325360D02*
X588879Y324704D01*
Y323392D01*
X589535Y322736D01*
X592159D01*
X592815Y323392D01*
Y324704D01*
X592159Y325360D01*
X588879Y329296D02*
Y326672D01*
X590847D01*
X590191Y327984D01*
Y328640D01*
X590847Y329296D01*
X592159D01*
X592815Y328640D01*
Y327328D01*
X592159Y326672D01*
X588879Y330608D02*
Y333231D01*
X589535D01*
X592159Y330608D01*
X592815D01*
X588647Y311744D02*
X587992Y312400D01*
X586680D01*
X586024Y311744D01*
Y309120D01*
X586680Y308465D01*
X587992D01*
X588647Y309120D01*
X592583Y312400D02*
X589959D01*
Y310432D01*
X591271Y311088D01*
X591927D01*
X592583Y310432D01*
Y309120D01*
X591927Y308465D01*
X590615D01*
X589959Y309120D01*
X596519Y312400D02*
X595207Y311744D01*
X593895Y310432D01*
Y309120D01*
X594551Y308465D01*
X595863D01*
X596519Y309120D01*
Y309776D01*
X595863Y310432D01*
X593895D01*
X274528Y381441D02*
X273872Y382097D01*
X272560D01*
X271904Y381441D01*
Y378817D01*
X272560Y378161D01*
X273872D01*
X274528Y378817D01*
X278464Y382097D02*
X275840D01*
Y380129D01*
X277152Y380785D01*
X277808D01*
X278464Y380129D01*
Y378817D01*
X277808Y378161D01*
X276496D01*
X275840Y378817D01*
X279776Y378161D02*
X281087D01*
X280431D01*
Y382097D01*
X279776Y381441D01*
X301496Y398567D02*
X300840Y399223D01*
X299529D01*
X298872Y398567D01*
Y395943D01*
X299529Y395287D01*
X300840D01*
X301496Y395943D01*
X304776Y395287D02*
Y399223D01*
X302808Y397255D01*
X305432D01*
X306744Y395943D02*
X307400Y395287D01*
X308712D01*
X309368Y395943D01*
Y398567D01*
X308712Y399223D01*
X307400D01*
X306744Y398567D01*
Y397911D01*
X307400Y397255D01*
X309368D01*
X350317Y391120D02*
X349661Y390464D01*
Y389152D01*
X350317Y388496D01*
X352941D01*
X353597Y389152D01*
Y390464D01*
X352941Y391120D01*
X353597Y394400D02*
X349661D01*
X351629Y392432D01*
Y395056D01*
X349661Y396368D02*
Y398991D01*
X350317D01*
X352941Y396368D01*
X353597D01*
X154045Y386870D02*
X153389Y387526D01*
X152077D01*
X151421Y386870D01*
Y384246D01*
X152077Y383591D01*
X153389D01*
X154045Y384246D01*
X155357Y386870D02*
X156013Y387526D01*
X157325D01*
X157981Y386870D01*
Y386214D01*
X157325Y385558D01*
X156669D01*
X157325D01*
X157981Y384903D01*
Y384246D01*
X157325Y383591D01*
X156013D01*
X155357Y384246D01*
X159293D02*
X159949Y383591D01*
X161261D01*
X161917Y384246D01*
Y386870D01*
X161261Y387526D01*
X159949D01*
X159293Y386870D01*
Y386214D01*
X159949Y385558D01*
X161917D01*
X202132Y175327D02*
X201476Y175983D01*
X200164D01*
X199508Y175327D01*
Y172703D01*
X200164Y172047D01*
X201476D01*
X202132Y172703D01*
X203444Y175327D02*
X204100Y175983D01*
X205412D01*
X206067Y175327D01*
Y174671D01*
X205412Y174015D01*
X204755D01*
X205412D01*
X206067Y173359D01*
Y172703D01*
X205412Y172047D01*
X204100D01*
X203444Y172703D01*
X210003Y175983D02*
X208691Y175327D01*
X207379Y174015D01*
Y172703D01*
X208035Y172047D01*
X209347D01*
X210003Y172703D01*
Y173359D01*
X209347Y174015D01*
X207379D01*
X109514Y201410D02*
X108858Y202066D01*
X107546D01*
X106890Y201410D01*
Y198786D01*
X107546Y198130D01*
X108858D01*
X109514Y198786D01*
X110826Y201410D02*
X111481Y202066D01*
X112793D01*
X113449Y201410D01*
Y200754D01*
X112793Y200098D01*
X112137D01*
X112793D01*
X113449Y199442D01*
Y198786D01*
X112793Y198130D01*
X111481D01*
X110826Y198786D01*
X117385Y202066D02*
X114761D01*
Y200098D01*
X116073Y200754D01*
X116729D01*
X117385Y200098D01*
Y198786D01*
X116729Y198130D01*
X115417D01*
X114761Y198786D01*
X148391Y209874D02*
X147736Y210530D01*
X146424D01*
X145768Y209874D01*
Y207250D01*
X146424Y206594D01*
X147736D01*
X148391Y207250D01*
X149704Y209874D02*
X150359Y210530D01*
X151671D01*
X152327Y209874D01*
Y209218D01*
X151671Y208562D01*
X151015D01*
X151671D01*
X152327Y207906D01*
Y207250D01*
X151671Y206594D01*
X150359D01*
X149704Y207250D01*
X155607Y206594D02*
Y210530D01*
X153639Y208562D01*
X156263D01*
X558628Y360760D02*
X557972Y361416D01*
X556660D01*
X556004Y360760D01*
Y358136D01*
X556660Y357480D01*
X557972D01*
X558628Y358136D01*
X559940Y360760D02*
X560596Y361416D01*
X561907D01*
X562564Y360760D01*
Y360104D01*
X561907Y359448D01*
X561252D01*
X561907D01*
X562564Y358792D01*
Y358136D01*
X561907Y357480D01*
X560596D01*
X559940Y358136D01*
X566499Y357480D02*
X563875D01*
X566499Y360104D01*
Y360760D01*
X565843Y361416D01*
X564531D01*
X563875Y360760D01*
X455773Y359284D02*
X455118Y359940D01*
X453806D01*
X453150Y359284D01*
Y356660D01*
X453806Y356004D01*
X455118D01*
X455773Y356660D01*
X459709Y356004D02*
X457085D01*
X459709Y358628D01*
Y359284D01*
X459053Y359940D01*
X457741D01*
X457085Y359284D01*
X463645Y359940D02*
X461021D01*
Y357972D01*
X462333Y358628D01*
X462989D01*
X463645Y357972D01*
Y356660D01*
X462989Y356004D01*
X461677D01*
X461021Y356660D01*
X430970Y359185D02*
X430314Y359841D01*
X429002D01*
X428346Y359185D01*
Y356561D01*
X429002Y355906D01*
X430314D01*
X430970Y356561D01*
X434906Y355906D02*
X432282D01*
X434906Y358529D01*
Y359185D01*
X434250Y359841D01*
X432938D01*
X432282Y359185D01*
X438186Y355906D02*
Y359841D01*
X436218Y357873D01*
X438842D01*
X344159Y217355D02*
X343503Y218010D01*
X342191D01*
X341535Y217355D01*
Y214731D01*
X342191Y214075D01*
X343503D01*
X344159Y214731D01*
X345471Y214075D02*
X346783D01*
X346127D01*
Y218010D01*
X345471Y217355D01*
X351375Y218010D02*
X348751D01*
Y216043D01*
X350063Y216699D01*
X350719D01*
X351375Y216043D01*
Y214731D01*
X350719Y214075D01*
X349407D01*
X348751Y214731D01*
X353413Y312084D02*
X352757Y311428D01*
Y310117D01*
X353413Y309461D01*
X356037D01*
X356693Y310117D01*
Y311428D01*
X356037Y312084D01*
X356693Y313396D02*
Y314708D01*
Y314052D01*
X352757D01*
X353413Y313396D01*
X356693Y319300D02*
Y316676D01*
X354069Y319300D01*
X353413D01*
X352757Y318644D01*
Y317332D01*
X353413Y316676D01*
X278214Y177689D02*
X277558Y178345D01*
X276247D01*
X275590Y177689D01*
Y175065D01*
X276247Y174409D01*
X277558D01*
X278214Y175065D01*
X279526Y174409D02*
X280838D01*
X280182D01*
Y178345D01*
X279526Y177689D01*
X282806Y174409D02*
X284118D01*
X283462D01*
Y178345D01*
X282806Y177689D01*
X368374Y336384D02*
X367718Y335728D01*
Y334416D01*
X368374Y333760D01*
X370998D01*
X371654Y334416D01*
Y335728D01*
X370998Y336384D01*
X371654Y337696D02*
Y339007D01*
Y338351D01*
X367718D01*
X368374Y337696D01*
Y340975D02*
X367718Y341631D01*
Y342943D01*
X368374Y343599D01*
X370998D01*
X371654Y342943D01*
Y341631D01*
X370998Y340975D01*
X368374D01*
X352330Y279703D02*
X351675Y279047D01*
Y277735D01*
X352330Y277079D01*
X354954D01*
X355610Y277735D01*
Y279047D01*
X354954Y279703D01*
X352330Y281014D02*
X351675Y281670D01*
Y282982D01*
X352330Y283638D01*
X352986D01*
X353642Y282982D01*
X354298Y283638D01*
X354954D01*
X355610Y282982D01*
Y281670D01*
X354954Y281014D01*
X354298D01*
X353642Y281670D01*
X352986Y281014D01*
X352330D01*
X353642Y281670D02*
Y282982D01*
X278905Y241502D02*
X278249Y240846D01*
Y239534D01*
X278905Y238878D01*
X281529D01*
X282185Y239534D01*
Y240846D01*
X281529Y241502D01*
X278249Y242814D02*
Y245438D01*
X278905D01*
X281529Y242814D01*
X282185D01*
X292980Y305195D02*
X292324Y304539D01*
Y303227D01*
X292980Y302571D01*
X295604D01*
X296260Y303227D01*
Y304539D01*
X295604Y305195D01*
X292324Y309130D02*
Y306507D01*
X294292D01*
X293636Y307819D01*
Y308474D01*
X294292Y309130D01*
X295604D01*
X296260Y308474D01*
Y307163D01*
X295604Y306507D01*
X427722Y288516D02*
X427066Y289172D01*
X425754D01*
X425098Y288516D01*
Y285892D01*
X425754Y285236D01*
X427066D01*
X427722Y285892D01*
X431002Y285236D02*
Y289172D01*
X429034Y287204D01*
X431658D01*
X285106Y241699D02*
X284450Y241043D01*
Y239731D01*
X285106Y239075D01*
X287730D01*
X288386Y239731D01*
Y241043D01*
X287730Y241699D01*
X288386Y245634D02*
Y243010D01*
X285762Y245634D01*
X285106D01*
X284450Y244978D01*
Y243667D01*
X285106Y243010D01*
X359612Y218437D02*
X358956Y219093D01*
X357644D01*
X356988Y218437D01*
Y215813D01*
X357644Y215158D01*
X358956D01*
X359612Y215813D01*
X360924Y215158D02*
X362236D01*
X361580D01*
Y219093D01*
X360924Y218437D01*
D16*
X523622Y110433D02*
X525288D01*
X524455D01*
Y115431D01*
X523622Y114598D01*
X600098Y112008D02*
X601410D01*
X600754D01*
Y115944D01*
X600098Y115288D01*
X603378D02*
X604034Y115944D01*
X605346D01*
X606002Y115288D01*
Y114632D01*
X605346Y113976D01*
X604690D01*
X605346D01*
X606002Y113320D01*
Y112664D01*
X605346Y112008D01*
X604034D01*
X603378Y112664D01*
D17*
X274606Y302374D02*
X270671D01*
Y304342D01*
X271326Y304998D01*
X272638D01*
X273294Y304342D01*
Y302374D01*
Y303686D02*
X274606Y304998D01*
Y308934D02*
Y306310D01*
X271983Y308934D01*
X271326D01*
X270671Y308278D01*
Y306966D01*
X271326Y306310D01*
Y310245D02*
X270671Y310901D01*
Y312213D01*
X271326Y312869D01*
X271983D01*
X272638Y312213D01*
Y311557D01*
Y312213D01*
X273294Y312869D01*
X273950D01*
X274606Y312213D01*
Y310901D01*
X273950Y310245D01*
D18*
X419095Y231299D02*
Y233362D01*
X420126D01*
X420469Y233018D01*
Y232330D01*
X420126Y231987D01*
X419095D01*
X419782D02*
X420469Y231299D01*
X421157D02*
X421844D01*
X421500D01*
Y233362D01*
X421157Y233018D01*
X423907Y231299D02*
Y233362D01*
X422875Y232330D01*
X424250D01*
X437205Y298228D02*
Y302164D01*
X439173D01*
X439828Y301508D01*
Y300196D01*
X439173Y299540D01*
X437205D01*
X438517D02*
X439828Y298228D01*
X441141Y301508D02*
X441796Y302164D01*
X443108D01*
X443764Y301508D01*
Y300852D01*
X443108Y300196D01*
X442452D01*
X443108D01*
X443764Y299540D01*
Y298884D01*
X443108Y298228D01*
X441796D01*
X441141Y298884D01*
X421063Y250197D02*
Y252259D01*
X422094D01*
X422438Y251916D01*
Y251228D01*
X422094Y250884D01*
X421063D01*
X421750D02*
X422438Y250197D01*
X424500D02*
X423125D01*
X424500Y251572D01*
Y251916D01*
X424157Y252259D01*
X423469D01*
X423125Y251916D01*
X420469Y226325D02*
X420126Y226669D01*
X419438D01*
X419095Y226325D01*
Y224950D01*
X419438Y224606D01*
X420126D01*
X420469Y224950D01*
X421157Y224606D02*
X421844D01*
X421500D01*
Y226669D01*
X421157Y226325D01*
X422875D02*
X423219Y226669D01*
X423907D01*
X424250Y226325D01*
Y225981D01*
X423907Y225638D01*
X423563D01*
X423907D01*
X424250Y225294D01*
Y224950D01*
X423907Y224606D01*
X423219D01*
X422875Y224950D01*
X422438Y244435D02*
X422094Y244779D01*
X421407D01*
X421063Y244435D01*
Y243060D01*
X421407Y242717D01*
X422094D01*
X422438Y243060D01*
X423125Y244435D02*
X423469Y244779D01*
X424157D01*
X424500Y244435D01*
Y244091D01*
X424157Y243748D01*
X423813D01*
X424157D01*
X424500Y243404D01*
Y243060D01*
X424157Y242717D01*
X423469D01*
X423125Y243060D01*
D19*
X536974Y360366D02*
X536318Y361022D01*
X535006D01*
X534350Y360366D01*
Y357743D01*
X535006Y357087D01*
X536318D01*
X536974Y357743D01*
X538286Y360366D02*
X538942Y361022D01*
X540254D01*
X540910Y360366D01*
Y359710D01*
X540254Y359054D01*
X539598D01*
X540254D01*
X540910Y358399D01*
Y357743D01*
X540254Y357087D01*
X538942D01*
X538286Y357743D01*
X542222Y357087D02*
X543534D01*
X542878D01*
Y361022D01*
X542222Y360366D01*
M02*
