G04*
G04 #@! TF.GenerationSoftware,Altium Limited,Altium Designer,19.1.5 (86)*
G04*
G04 Layer_Color=32768*
%FSLAX25Y25*%
%MOIN*%
G70*
G01*
G75*
%ADD10C,0.00787*%
%ADD11C,0.00500*%
%ADD18C,0.00394*%
%ADD121C,0.00197*%
%ADD122C,0.00200*%
G36*
X102209Y446173D02*
Y497512D01*
X159571D01*
Y446173D01*
X102209D01*
D02*
G37*
G36*
X102224Y101811D02*
Y153150D01*
X159587D01*
Y101811D01*
X102224D01*
D02*
G37*
G36*
X471752Y105118D02*
Y144095D01*
X498524D01*
Y105118D01*
X471752D01*
D02*
G37*
D10*
X175886Y301035D02*
Y347689D01*
X147539D02*
X175886D01*
X147539Y301035D02*
Y347689D01*
Y301035D02*
X175886D01*
X209547D02*
Y347689D01*
X181201D02*
X209547D01*
X181201Y301035D02*
Y347689D01*
Y301035D02*
X209547D01*
X175886Y236764D02*
Y283417D01*
X147539D02*
X175886D01*
X147539Y236764D02*
Y283417D01*
Y236764D02*
X175886D01*
X209547Y236713D02*
Y283366D01*
X181201D02*
X209547D01*
X181201Y236713D02*
Y283366D01*
Y236713D02*
X209547D01*
D11*
X235236Y162402D02*
X266732D01*
Y148622D02*
Y162402D01*
X235236Y148622D02*
X266732D01*
X235236D02*
Y162402D01*
X237894Y230217D02*
X269390D01*
Y216437D02*
Y230217D01*
X237894Y216437D02*
X269390D01*
X237894D02*
Y230217D01*
X239567Y292335D02*
X271063D01*
Y278555D02*
Y292335D01*
X239567Y278555D02*
X271063D01*
X239567D02*
Y292335D01*
X239173Y313791D02*
Y327571D01*
Y313791D02*
X270669D01*
Y327571D01*
X239173D02*
X270669D01*
D18*
X642913Y210236D02*
Y214173D01*
X640945Y212205D02*
X644882D01*
X635039Y219291D02*
X650787D01*
X635039Y205118D02*
X650787D01*
X635039D02*
Y219291D01*
X650787Y205118D02*
Y219291D01*
X643307Y170472D02*
Y174409D01*
X641339Y172441D02*
X645276D01*
X635433Y179528D02*
X651181D01*
X635433Y165354D02*
X651181D01*
X635433D02*
Y179528D01*
X651181Y165354D02*
Y179528D01*
X642913Y120866D02*
Y124803D01*
X640945Y122835D02*
X644882D01*
X635039Y129921D02*
X650787D01*
X635039Y115748D02*
X650787D01*
X635039D02*
Y129921D01*
X650787Y115748D02*
Y129921D01*
X285585Y371567D02*
X289522D01*
X287554Y369598D02*
Y373535D01*
X280467Y363693D02*
Y379441D01*
X294640Y363693D02*
Y379441D01*
X280467Y363693D02*
X294640D01*
X280467Y379441D02*
X294640D01*
X161713Y322394D02*
Y326331D01*
X159744Y324362D02*
X163681D01*
X195374Y322394D02*
Y326331D01*
X193405Y324362D02*
X197343D01*
X161713Y258122D02*
Y262059D01*
X159744Y260090D02*
X163681D01*
X195374Y258071D02*
Y262008D01*
X193405Y260039D02*
X197343D01*
X185291Y446650D02*
Y490350D01*
X250252Y446650D02*
Y490350D01*
X185291D02*
X250252D01*
X185291Y446650D02*
X250252D01*
X215803Y468500D02*
X219740D01*
X217772Y466532D02*
Y470469D01*
X251571Y428520D02*
Y432457D01*
X249602Y430488D02*
X253539D01*
X243697Y423402D02*
X259445D01*
X243697Y437575D02*
X259445D01*
Y423402D02*
Y437575D01*
X243697Y423402D02*
Y437575D01*
X239879Y381543D02*
Y385480D01*
X237911Y383512D02*
X241848D01*
X232006Y376425D02*
X247754D01*
X232006Y390599D02*
X247754D01*
Y376425D02*
Y390599D01*
X232006Y376425D02*
Y390599D01*
D121*
X154248Y418500D02*
G03*
X154248Y418500I-25591J0D01*
G01*
X206090D02*
G03*
X206090Y418500I-25591J0D01*
G01*
X182776Y486352D02*
G03*
X182776Y486352I-10827J0D01*
G01*
X280906Y483858D02*
G03*
X280906Y483858I-10827J0D01*
G01*
X431398Y369193D02*
G03*
X431398Y369193I-10827J0D01*
G01*
X559350Y370965D02*
G03*
X559350Y370965I-10827J0D01*
G01*
X455413Y369587D02*
G03*
X455413Y369587I-10827J0D01*
G01*
X581299Y371260D02*
G03*
X581299Y371260I-10827J0D01*
G01*
X210925Y150295D02*
G03*
X210925Y150295I-25591J0D01*
G01*
X160827Y177854D02*
G03*
X160827Y177854I-25591J0D01*
G01*
X355827Y428500D02*
G03*
X355827Y428500I-10827J0D01*
G01*
X207382Y200886D02*
G03*
X207382Y200886I-25591J0D01*
G01*
X154035Y367126D02*
G03*
X154035Y367126I-25591J0D01*
G01*
X305020Y484252D02*
G03*
X305020Y484252I-10827J0D01*
G01*
X353642Y246063D02*
Y275787D01*
X283366D02*
X353642D01*
X283366Y246063D02*
Y275787D01*
Y246063D02*
X353642D01*
X283760Y251673D02*
Y269390D01*
X274705Y251673D02*
X283760D01*
X274705D02*
Y269390D01*
X283760D01*
X283858Y180709D02*
Y198425D01*
X274803Y180709D02*
X283858D01*
X274803D02*
Y198425D01*
X283858D01*
X353720Y180512D02*
Y210236D01*
X283445D02*
X353720D01*
X283445Y180512D02*
Y210236D01*
Y180512D02*
X353720D01*
X295998Y152362D02*
Y175591D01*
X342691Y152362D02*
Y175591D01*
X295998D02*
X342691D01*
X295998Y152362D02*
X342691D01*
X297835Y217520D02*
Y240748D01*
X344528Y217520D02*
Y240748D01*
X297835D02*
X344528D01*
X297835Y217520D02*
X344528D01*
X553543Y179527D02*
Y195276D01*
X527165Y179527D02*
X553543D01*
X527165D02*
Y195276D01*
X553543D01*
X268799Y237795D02*
X277854D01*
X268799Y220079D02*
Y237795D01*
Y220079D02*
X277854D01*
Y237795D01*
X270177Y301882D02*
X279232D01*
X270177Y284165D02*
Y301882D01*
Y284165D02*
X279232D01*
Y301882D01*
X289262Y319992D02*
Y337709D01*
X280207Y319992D02*
X289262D01*
X280207D02*
Y337709D01*
X289262D01*
X298524Y284165D02*
Y301882D01*
X289469Y284165D02*
X298524D01*
X289469D02*
Y301882D01*
X298524D01*
X285618Y155250D02*
Y172966D01*
X276563Y155250D02*
X285618D01*
X276563D02*
Y172966D01*
X285618D01*
X362202Y154462D02*
Y172179D01*
X353147Y154462D02*
X362202D01*
X353147D02*
Y172179D01*
X362202D01*
X352721Y154463D02*
Y172179D01*
X343666Y154463D02*
X352721D01*
X343666D02*
Y172179D01*
X352721D01*
X365453Y284165D02*
Y301882D01*
X356398Y284165D02*
X365453D01*
X356398D02*
Y301882D01*
X365453D01*
X296752Y220177D02*
Y237894D01*
X287697Y220177D02*
X296752D01*
X287697D02*
Y237894D01*
X296752D01*
X289075Y284165D02*
Y301882D01*
X280020Y284165D02*
X289075D01*
X280020D02*
Y301882D01*
X289075D01*
X345571Y220177D02*
Y237894D01*
X354626D01*
Y220177D02*
Y237894D01*
X345571Y220177D02*
X354626D01*
X298711Y319992D02*
Y337709D01*
X289655Y319992D02*
X298711D01*
X289655D02*
Y337709D01*
X298711D01*
X348130Y319598D02*
Y337315D01*
X357185D01*
Y319598D02*
Y337315D01*
X348130Y319598D02*
X357185D01*
X295066Y155250D02*
Y172966D01*
X286011Y155250D02*
X295066D01*
X286011D02*
Y172966D01*
X295066D01*
X357579Y319598D02*
Y337315D01*
X366634D01*
Y319598D02*
Y337315D01*
X357579Y319598D02*
X366634D01*
X356004Y284165D02*
Y301882D01*
X346949Y284165D02*
X356004D01*
X346949D02*
Y301882D01*
X356004D01*
X287303Y220177D02*
Y237894D01*
X278248Y220177D02*
X287303D01*
X278248D02*
Y237894D01*
X287303D01*
X355020Y220177D02*
Y237894D01*
X364075D01*
Y220177D02*
Y237894D01*
X355020Y220177D02*
X364075D01*
X299971Y317433D02*
X346663D01*
X299971Y340661D02*
X346663D01*
Y317433D02*
Y340661D01*
X299971Y317433D02*
Y340661D01*
X299783Y281213D02*
X346476D01*
X299783Y304441D02*
X346476D01*
Y281213D02*
Y304441D01*
X299783Y281213D02*
Y304441D01*
X538976Y388543D02*
Y417756D01*
X579921Y388543D02*
Y417756D01*
X538976Y388543D02*
X579921D01*
X538976Y417756D02*
X579921D01*
X408287Y387327D02*
Y416539D01*
X449232Y387327D02*
Y416539D01*
X408287Y387327D02*
X449232D01*
X408287Y416539D02*
X449232D01*
X623721Y343169D02*
Y367854D01*
X637697Y343169D02*
Y367854D01*
X623721Y343169D02*
X637697D01*
X623721Y367854D02*
X637697D01*
X624311Y267284D02*
Y291968D01*
X638287Y267284D02*
Y291968D01*
X624311Y267284D02*
X638287D01*
X624311Y291968D02*
X638287D01*
X348833Y360248D02*
Y386035D01*
X302652Y360248D02*
Y386035D01*
Y360248D02*
X348833D01*
X302652Y386035D02*
X348833D01*
X660000Y487638D02*
Y496929D01*
X606024D02*
X660000D01*
X606024Y487638D02*
Y496929D01*
X601024Y487638D02*
X606024D01*
X601024Y480669D02*
Y487638D01*
Y480669D02*
X606024D01*
Y423976D02*
Y480669D01*
Y423976D02*
X660000D01*
Y480669D01*
X665000D01*
Y487638D01*
X660000D02*
X665000D01*
X579685Y487244D02*
Y496535D01*
X525709D02*
X579685D01*
X525709Y487244D02*
Y496535D01*
X520709Y487244D02*
X525709D01*
X520709Y480276D02*
Y487244D01*
Y480276D02*
X525709D01*
Y423583D02*
Y480276D01*
Y423583D02*
X579685D01*
Y480276D01*
X584685D01*
Y487244D01*
X579685D02*
X584685D01*
X498976D02*
Y496535D01*
X445000D02*
X498976D01*
X445000Y487244D02*
Y496535D01*
X440000Y487244D02*
X445000D01*
X440000Y480276D02*
Y487244D01*
Y480276D02*
X445000D01*
Y423583D02*
Y480276D01*
Y423583D02*
X498976D01*
Y480276D01*
X503976D01*
Y487244D01*
X498976D02*
X503976D01*
X417874Y487638D02*
Y496929D01*
X363898D02*
X417874D01*
X363898Y487638D02*
Y496929D01*
X358898Y487638D02*
X363898D01*
X358898Y480669D02*
Y487638D01*
Y480669D02*
X363898D01*
Y423976D02*
Y480669D01*
Y423976D02*
X417874D01*
Y480669D01*
X422874D01*
Y487638D01*
X417874D02*
X422874D01*
X666142Y448228D02*
Y465945D01*
X675197D01*
Y448228D02*
Y465945D01*
X666142Y448228D02*
X675197D01*
X588779D02*
Y465945D01*
X597835D01*
Y448228D02*
Y465945D01*
X588779Y448228D02*
X597835D01*
X508071D02*
X517126D01*
Y465945D01*
X508071D02*
X517126D01*
X508071Y448228D02*
Y465945D01*
X426968Y448228D02*
X436024D01*
Y465945D01*
X426968D02*
X436024D01*
X426968Y448228D02*
Y465945D01*
X257283Y355709D02*
Y373425D01*
X248228Y355709D02*
X257283D01*
X248228D02*
Y373425D01*
X257283D01*
X518150Y392776D02*
Y396949D01*
X517323D02*
X518150D01*
X529882Y405217D02*
Y409390D01*
Y405217D02*
X530709D01*
X518150D02*
Y409390D01*
X517323Y405217D02*
X518150D01*
Y409390D02*
X529882D01*
X517323Y396949D02*
Y405217D01*
X529882Y392776D02*
Y396949D01*
X530709D01*
X518150Y392776D02*
X529882D01*
X530709Y396949D02*
Y405217D01*
X582323Y394941D02*
Y399114D01*
X581496D02*
X582323D01*
X594055Y407382D02*
Y411555D01*
Y407382D02*
X594882D01*
X582323D02*
Y411555D01*
X581496Y407382D02*
X582323D01*
Y411555D02*
X594055D01*
X581496Y399114D02*
Y407382D01*
X594055Y394941D02*
Y399114D01*
X594882D01*
X582323Y394941D02*
X594055D01*
X594882Y399114D02*
Y407382D01*
X451811Y392874D02*
Y397047D01*
X450984D02*
X451811D01*
X463543Y405315D02*
Y409488D01*
Y405315D02*
X464370D01*
X451811D02*
Y409488D01*
X450984Y405315D02*
X451811D01*
Y409488D02*
X463543D01*
X450984Y397047D02*
Y405315D01*
X463543Y392874D02*
Y397047D01*
X464370D01*
X451811Y392874D02*
X463543D01*
X464370Y397047D02*
Y405315D01*
X384488Y393760D02*
Y397933D01*
X383661D02*
X384488D01*
X396220Y406201D02*
Y410374D01*
Y406201D02*
X397047D01*
X384488D02*
Y410374D01*
X383661Y406201D02*
X384488D01*
Y410374D02*
X396220D01*
X383661Y397933D02*
Y406201D01*
X396220Y393760D02*
Y397933D01*
X397047D01*
X384488Y393760D02*
X396220D01*
X397047Y397933D02*
Y406201D01*
X328150Y105512D02*
Y133071D01*
Y105512D02*
X372146D01*
Y133071D01*
X328150D02*
X372146D01*
X374606Y105905D02*
Y133465D01*
Y105905D02*
X418602D01*
Y133465D01*
X374606D02*
X418602D01*
X104232Y257323D02*
X131791D01*
Y311213D01*
X104232D02*
X131791D01*
X104232Y257323D02*
Y311213D01*
X166339Y372638D02*
X175394D01*
X166339Y354921D02*
Y372638D01*
Y354921D02*
X175394D01*
Y372638D01*
X305248Y438776D02*
X307768D01*
X305248D02*
Y465272D01*
X307413D01*
Y471492D01*
X307768Y425744D02*
Y438776D01*
X331232D02*
X333752D01*
Y465272D01*
X331587D02*
X333752D01*
X331587D02*
Y471492D01*
X331232Y425744D02*
Y438776D01*
X307768Y425744D02*
X331232D01*
X307413Y471492D02*
X331587D01*
X341732Y465551D02*
X350787D01*
X341732Y447835D02*
Y465551D01*
Y447835D02*
X350787D01*
Y465551D01*
X266195Y173031D02*
X275250D01*
X266195Y155315D02*
Y173031D01*
Y155315D02*
X275250D01*
Y173031D01*
X270571Y337709D02*
X279626D01*
X270571Y319992D02*
Y337709D01*
Y319992D02*
X279626D01*
Y337709D01*
X670472Y231850D02*
X698032D01*
X670472Y187854D02*
Y231850D01*
Y187854D02*
X698032D01*
Y231850D01*
X670079Y184764D02*
X697638D01*
X670079Y140768D02*
Y184764D01*
Y140768D02*
X697638D01*
Y184764D01*
X670472Y429646D02*
X698032D01*
X670472Y385650D02*
Y429646D01*
Y385650D02*
X698032D01*
Y429646D01*
X697638Y104764D02*
Y138543D01*
X670079Y104764D02*
X697638D01*
X670079D02*
Y138543D01*
X697638D01*
X670374Y235807D02*
Y309134D01*
X697933D01*
Y235807D02*
Y309134D01*
X670374Y235807D02*
X697933D01*
X670472Y311417D02*
Y384744D01*
X698032D01*
Y311417D02*
Y384744D01*
X670472Y311417D02*
X698032D01*
D122*
X268177Y265937D02*
X274342D01*
X268177Y252764D02*
Y265937D01*
Y252764D02*
X274342D01*
Y265937D01*
X354890Y266528D02*
X361055D01*
X354890Y253354D02*
Y266528D01*
Y253354D02*
X361055D01*
Y266528D01*
X268866Y195366D02*
X275031D01*
X268866Y182193D02*
Y195366D01*
Y182193D02*
X275031D01*
Y195366D01*
X355283Y200780D02*
X361449D01*
X355283Y187606D02*
Y200780D01*
Y187606D02*
X361449D01*
Y200780D01*
X261409Y331476D02*
Y337642D01*
X248236D02*
X261409D01*
X248236Y331476D02*
Y337642D01*
Y331476D02*
X261409D01*
X510366Y398335D02*
Y411508D01*
X504201D02*
X510366D01*
X504201Y398335D02*
Y411508D01*
Y398335D02*
X510366D01*
X633201Y397153D02*
Y410327D01*
X627035D02*
X633201D01*
X627035Y397153D02*
Y410327D01*
Y397153D02*
X633201D01*
X601976Y415126D02*
X615150D01*
Y421291D01*
X601976D02*
X615150D01*
X601976Y415126D02*
Y421291D01*
X564575Y423850D02*
X577748D01*
X564575Y417685D02*
Y423850D01*
Y417685D02*
X577748D01*
Y423850D01*
X453453Y417488D02*
X466626D01*
Y423654D01*
X453453D02*
X466626D01*
X453453Y417488D02*
Y423654D01*
X482709Y396760D02*
Y409933D01*
X476543D02*
X482709D01*
X476543Y396760D02*
Y409933D01*
Y396760D02*
X482709D01*
X377098Y404339D02*
Y417512D01*
X370933D02*
X377098D01*
X370933Y404339D02*
Y417512D01*
Y404339D02*
X377098D01*
X424909Y423260D02*
X438083D01*
X424909Y417095D02*
Y423260D01*
Y417095D02*
X438083D01*
Y423260D01*
X533532Y166150D02*
X539697D01*
X533532D02*
Y179323D01*
X539697D01*
Y166150D02*
Y179323D01*
X541012Y166150D02*
X547177D01*
X541012D02*
Y179323D01*
X547177D01*
Y166150D02*
Y179323D01*
X563650Y145366D02*
X569815D01*
X563650Y132193D02*
Y145366D01*
Y132193D02*
X569815D01*
Y145366D01*
X572803Y132193D02*
X578968D01*
Y145366D01*
X572803D02*
X578968D01*
X572803Y132193D02*
Y145366D01*
X524673Y132291D02*
X530839D01*
Y145465D01*
X524673D02*
X530839D01*
X524673Y132291D02*
Y145465D01*
X499870Y133358D02*
X506035D01*
X499870Y120185D02*
Y133358D01*
Y120185D02*
X506035D01*
Y133358D01*
X515913Y136031D02*
X522079D01*
Y149205D01*
X515913D02*
X522079D01*
X515913Y136031D02*
Y149205D01*
X190362Y497177D02*
X203535D01*
Y491012D02*
Y497177D01*
X190362Y491012D02*
X203535D01*
X190362D02*
Y497177D01*
X485441Y152724D02*
Y158890D01*
Y152724D02*
X498614D01*
Y158890D01*
X485441D02*
X498614D01*
X478453Y145638D02*
X491626D01*
Y151803D01*
X478453D02*
X491626D01*
X478453Y145638D02*
Y151803D01*
X508532Y135835D02*
Y149008D01*
X514697D01*
Y135835D02*
Y149008D01*
X508532Y135835D02*
X514697D01*
X500756Y135736D02*
Y148909D01*
X506921D01*
Y135736D02*
Y148909D01*
X500756Y135736D02*
X506921D01*
X551114Y132291D02*
Y145465D01*
X544949D02*
X551114D01*
X544949Y132291D02*
Y145465D01*
Y132291D02*
X551114D01*
X554791D02*
Y145465D01*
X560957D01*
Y132291D02*
Y145465D01*
X554791Y132291D02*
X560957D01*
X291164Y380335D02*
X297329D01*
Y393508D01*
X291164D02*
X297329D01*
X291164Y380335D02*
Y393508D01*
X423236Y310071D02*
X436409D01*
Y303906D02*
Y310071D01*
X423236Y303906D02*
X436409D01*
X423236D02*
Y310071D01*
X611681Y124811D02*
X617846D01*
Y137984D01*
X611681D02*
X617846D01*
X611681Y124811D02*
Y137984D01*
X654240Y121488D02*
X667413D01*
Y115323D02*
Y121488D01*
X654240Y115323D02*
X667413D01*
X654240D02*
Y121488D01*
X652232Y122941D02*
Y136114D01*
X658398D01*
Y122941D02*
Y136114D01*
X652232Y122941D02*
X658398D01*
X610303Y368905D02*
X616468D01*
Y382079D01*
X610303D02*
X616468D01*
X610303Y368905D02*
Y382079D01*
X622016Y327370D02*
X628181D01*
Y340543D01*
X622016D02*
X628181D01*
X622016Y327370D02*
Y340543D01*
X658949Y374969D02*
Y381134D01*
X645776D02*
X658949D01*
X645776Y374969D02*
Y381134D01*
Y374969D02*
X658949D01*
X622350Y369358D02*
Y375524D01*
Y369358D02*
X635524D01*
Y375524D01*
X622350D02*
X635524D01*
X622154Y376839D02*
Y383004D01*
Y376839D02*
X635327D01*
Y383004D01*
X622154D02*
X635327D01*
X615815Y361114D02*
X621980D01*
X615815Y347941D02*
Y361114D01*
Y347941D02*
X621980D01*
Y361114D01*
X646957Y316110D02*
Y322276D01*
Y316110D02*
X660130D01*
Y322276D01*
X646957D02*
X660130D01*
X640248Y316012D02*
Y322177D01*
X627075D02*
X640248D01*
X627075Y316012D02*
Y322177D01*
Y316012D02*
X640248D01*
X628847Y243374D02*
Y249539D01*
Y243374D02*
X642020D01*
Y249539D01*
X628847D02*
X642020D01*
X619161Y308358D02*
X625327D01*
X619161Y295185D02*
Y308358D01*
Y295185D02*
X625327D01*
Y308358D01*
X657079Y291209D02*
Y297374D01*
X643906D02*
X657079D01*
X643906Y291209D02*
Y297374D01*
Y291209D02*
X657079D01*
X617232Y258138D02*
Y264303D01*
Y258138D02*
X630406D01*
Y264303D01*
X617232D02*
X630406D01*
X617587Y285917D02*
X623752D01*
X617587Y272744D02*
Y285917D01*
Y272744D02*
X623752D01*
Y285917D01*
X627272Y303217D02*
Y309382D01*
Y303217D02*
X640445D01*
Y309382D01*
X627272D02*
X640445D01*
X627272Y295216D02*
Y301382D01*
Y295216D02*
X640445D01*
Y301382D01*
X627272D02*
X640445D01*
X657055Y269693D02*
X663221D01*
Y282866D01*
X657055D02*
X663221D01*
X657055Y269693D02*
Y282866D01*
X631858Y251091D02*
X638024D01*
Y264264D01*
X631858D02*
X638024D01*
X631858Y251091D02*
Y264264D01*
X643401Y241213D02*
Y247379D01*
Y241213D02*
X656574D01*
Y247379D01*
X643401D02*
X656574D01*
X667291Y433571D02*
Y446744D01*
X673457D01*
Y433571D02*
Y446744D01*
X667291Y433571D02*
X673457D01*
X590224Y431209D02*
Y444382D01*
X596390D01*
Y431209D02*
Y444382D01*
X590224Y431209D02*
X596390D01*
X509516D02*
Y444382D01*
X515681D01*
Y431209D02*
Y444382D01*
X509516Y431209D02*
X515681D01*
X428020Y431602D02*
Y444776D01*
X434185D01*
Y431602D02*
Y444776D01*
X428020Y431602D02*
X434185D01*
X654634Y176311D02*
X667807D01*
Y170146D02*
Y176311D01*
X654634Y170146D02*
X667807D01*
X654634D02*
Y176311D01*
X652075Y183791D02*
X665248D01*
Y177626D02*
Y183791D01*
X652075Y177626D02*
X665248D01*
X652075D02*
Y183791D01*
X669224Y155717D02*
Y168890D01*
X663059Y155717D02*
X669224D01*
X663059D02*
Y168890D01*
X669224D01*
X637902Y226705D02*
X651075D01*
Y220539D02*
Y226705D01*
X637902Y220539D02*
X651075D01*
X637902D02*
Y226705D01*
X424713Y223295D02*
Y229461D01*
Y223295D02*
X437886D01*
Y229461D01*
X424713D02*
X437886D01*
X423039Y289043D02*
Y295209D01*
Y289043D02*
X436213D01*
Y295209D01*
X423039D02*
X436213D01*
X424909Y238551D02*
Y244717D01*
Y238551D02*
X438083D01*
Y244717D01*
X424909D02*
X438083D01*
X424909Y246130D02*
Y252295D01*
Y246130D02*
X438083D01*
Y252295D01*
X424909D02*
X438083D01*
X423039Y296425D02*
Y302591D01*
Y296425D02*
X436213D01*
Y302591D01*
X423039D02*
X436213D01*
X423236Y311583D02*
Y317748D01*
Y311583D02*
X436409D01*
Y317748D01*
X423236D02*
X436409D01*
X424713Y230776D02*
Y236941D01*
Y230776D02*
X437886D01*
Y236941D01*
X424713D02*
X437886D01*
X601287Y388256D02*
Y394421D01*
Y388256D02*
X614461D01*
Y394421D01*
X601287D02*
X614461D01*
X528413Y390937D02*
X534579D01*
X528413Y377764D02*
Y390937D01*
Y377764D02*
X534579D01*
Y390937D01*
X514535Y377764D02*
X520701D01*
Y390937D01*
X514535D02*
X520701D01*
X514535Y377764D02*
Y390937D01*
X587173Y380421D02*
X593339D01*
Y393595D01*
X587173D02*
X593339D01*
X587173Y380421D02*
Y393595D01*
X554535Y382055D02*
Y388221D01*
Y382055D02*
X567709D01*
Y388221D01*
X554535D02*
X567709D01*
X553142Y382055D02*
Y388221D01*
X539968D02*
X553142D01*
X539968Y382055D02*
Y388221D01*
Y382055D02*
X553142D01*
X535303Y171169D02*
X541468D01*
Y184343D01*
X535303D02*
X541468D01*
X535303Y171169D02*
Y184343D01*
X527921Y171169D02*
X534087D01*
Y184343D01*
X527921D02*
X534087D01*
X527921Y171169D02*
Y184343D01*
X532261Y408752D02*
X538426D01*
Y421925D01*
X532261D02*
X538426D01*
X532261Y408752D02*
Y421925D01*
X469654Y382685D02*
X475819D01*
Y395858D01*
X469654D02*
X475819D01*
X469654Y382685D02*
Y395858D01*
X386189Y378945D02*
X392354D01*
Y392118D01*
X386189D02*
X392354D01*
X386189Y378945D02*
Y392118D01*
X456169Y378453D02*
X462335D01*
Y391626D01*
X456169D02*
X462335D01*
X456169Y378453D02*
Y391626D01*
X397902Y392216D02*
X404067D01*
X397902Y379043D02*
Y392216D01*
Y379043D02*
X404067D01*
Y392216D01*
X402331Y404240D02*
X408496D01*
Y417413D01*
X402331D02*
X408496D01*
X402331Y404240D02*
Y417413D01*
X424909Y380874D02*
Y387039D01*
Y380874D02*
X438083D01*
Y387039D01*
X424909D02*
X438083D01*
X410244Y380874D02*
Y387039D01*
Y380874D02*
X423417D01*
Y387039D01*
X410244D02*
X423417D01*
X288408Y349626D02*
X294573D01*
Y362799D01*
X288408D02*
X294573D01*
X288408Y349626D02*
Y362799D01*
X608630Y174992D02*
X614795D01*
X608630Y161819D02*
Y174992D01*
Y161819D02*
X614795D01*
Y174992D01*
X619654Y171547D02*
X625819D01*
X619654Y158374D02*
Y171547D01*
Y158374D02*
X625819D01*
Y171547D01*
X621957Y150854D02*
Y157020D01*
Y150854D02*
X635130D01*
Y157020D01*
X621957D02*
X635130D01*
X659221Y213098D02*
X665386D01*
Y226272D01*
X659221D02*
X665386D01*
X659221Y213098D02*
Y226272D01*
X649992Y158335D02*
Y164500D01*
X636819D02*
X649992D01*
X636819Y158335D02*
Y164500D01*
Y158335D02*
X649992D01*
X649894Y150854D02*
Y157020D01*
X636721D02*
X649894D01*
X636721Y150854D02*
Y157020D01*
Y150854D02*
X649894D01*
X650854Y166724D02*
X657020D01*
X650854Y153551D02*
Y166724D01*
Y153551D02*
X657020D01*
Y166724D01*
X650386Y190224D02*
Y196390D01*
X637213D02*
X650386D01*
X637213Y190224D02*
Y196390D01*
Y190224D02*
X650386D01*
X613158Y203732D02*
X619323D01*
X613158Y190559D02*
Y203732D01*
Y190559D02*
X619323D01*
Y203732D01*
X650386Y197705D02*
Y203870D01*
X637213D02*
X650386D01*
X637213Y197705D02*
Y203870D01*
Y197705D02*
X650386D01*
X659221Y211705D02*
X665386D01*
X659221Y198531D02*
Y211705D01*
Y198531D02*
X665386D01*
Y211705D01*
X621366Y190323D02*
Y196488D01*
Y190323D02*
X634539D01*
Y196488D01*
X621366D02*
X634539D01*
X628118Y211213D02*
X634283D01*
X628118Y198039D02*
Y211213D01*
Y198039D02*
X634283D01*
Y211213D01*
X651839Y207276D02*
X658004D01*
X651839Y194102D02*
Y207276D01*
Y194102D02*
X658004D01*
Y207276D01*
X646941Y131465D02*
Y137630D01*
X633768D02*
X646941D01*
X633768Y131465D02*
Y137630D01*
Y131465D02*
X646941D01*
X646744Y138847D02*
Y145012D01*
X633571D02*
X646744D01*
X633571Y138847D02*
Y145012D01*
Y138847D02*
X646744D01*
X655307Y108039D02*
Y114205D01*
X642134D02*
X655307D01*
X642134Y108039D02*
Y114205D01*
Y108039D02*
X655307D01*
X625953Y132390D02*
X632118D01*
Y145563D01*
X625953D02*
X632118D01*
X625953Y132390D02*
Y145563D01*
X628118Y129717D02*
X634283D01*
X628118Y116543D02*
Y129717D01*
Y116543D02*
X634283D01*
Y129717D01*
X611425Y139240D02*
Y145405D01*
Y139240D02*
X624598D01*
Y145405D01*
X611425D02*
X624598D01*
X634122Y327075D02*
X640287D01*
Y340248D01*
X634122D02*
X640287D01*
X634122Y327075D02*
Y340248D01*
X643088Y265513D02*
Y271679D01*
Y265513D02*
X656261D01*
Y271679D01*
X643088D02*
X656261D01*
X643020Y272606D02*
Y278772D01*
Y272606D02*
X656193D01*
Y278772D01*
X643020D02*
X656193D01*
X645776Y360008D02*
Y366173D01*
Y360008D02*
X658949D01*
Y366173D01*
X645776D02*
X658949D01*
X645382Y345047D02*
Y351213D01*
Y345047D02*
X658555D01*
Y351213D01*
X645382D02*
X658555D01*
X645579Y352528D02*
Y358693D01*
Y352528D02*
X658752D01*
Y358693D01*
X645579D02*
X658752D01*
X643906Y283728D02*
X657079D01*
X643906D02*
Y289894D01*
X657079D01*
Y283728D02*
Y289894D01*
X645776Y367488D02*
X658949D01*
X645776D02*
Y373654D01*
X658949D01*
Y367488D02*
Y373654D01*
X535008Y132095D02*
X541173D01*
Y145268D01*
X535008D02*
X541173D01*
X535008Y132095D02*
Y145268D01*
X159122Y272843D02*
X165287D01*
Y286016D01*
X159122D02*
X165287D01*
X159122Y272843D02*
Y286016D01*
X349211Y360165D02*
X355376D01*
Y373339D01*
X349211D02*
X355376D01*
X349211Y360165D02*
Y373339D01*
X349432Y374823D02*
X355597D01*
Y387996D01*
X349432D02*
X355597D01*
X349432Y374823D02*
Y387996D01*
X298672Y388488D02*
Y394654D01*
Y388488D02*
X311845D01*
Y394654D01*
X298672D02*
X311845D01*
X276636Y382658D02*
Y388823D01*
Y382658D02*
X289809D01*
Y388823D01*
X276636D02*
X289809D01*
X280928Y362799D02*
X287093D01*
X280928Y349626D02*
Y362799D01*
Y349626D02*
X287093D01*
Y362799D01*
X356912Y360256D02*
X363077D01*
Y373429D01*
X356912D02*
X363077D01*
X356912Y360256D02*
Y373429D01*
X309047Y354299D02*
Y360465D01*
X295874D02*
X309047D01*
X295874Y354299D02*
Y360465D01*
Y354299D02*
X309047D01*
X279180Y357067D02*
Y363232D01*
X266006D02*
X279180D01*
X266006Y357067D02*
Y363232D01*
Y357067D02*
X279180D01*
X258630Y373319D02*
X264795D01*
X258630Y360146D02*
Y373319D01*
Y360146D02*
X264795D01*
Y373319D01*
X265739Y377819D02*
X271904D01*
X265739Y364646D02*
Y377819D01*
Y364646D02*
X271904D01*
Y377819D01*
X273239D02*
X279404D01*
X273239Y364646D02*
Y377819D01*
Y364646D02*
X279404D01*
Y377819D01*
X600854Y315264D02*
X607020D01*
Y328437D01*
X600854D02*
X607020D01*
X600854Y315264D02*
Y328437D01*
X593374Y315264D02*
X599539D01*
Y328437D01*
X593374D02*
X599539D01*
X593374Y315264D02*
Y328437D01*
X608335Y315461D02*
X614500D01*
Y328634D01*
X608335D02*
X614500D01*
X608335Y315461D02*
Y328634D01*
X596957Y307547D02*
Y313713D01*
Y307547D02*
X610130D01*
Y313713D01*
X596957D02*
X610130D01*
X297417Y438587D02*
X303583D01*
X297417Y425413D02*
Y438587D01*
Y425413D02*
X303583D01*
Y438587D01*
X317913Y417917D02*
X331087D01*
X317913D02*
Y424083D01*
X331087D01*
Y417917D02*
Y424083D01*
X506602Y191602D02*
Y197768D01*
Y191602D02*
X519776D01*
Y197768D01*
X506602D02*
X519776D01*
X492429Y191504D02*
Y197669D01*
Y191504D02*
X505602D01*
Y197669D01*
X492429D02*
X505602D01*
X510736Y184614D02*
Y190779D01*
Y184614D02*
X523909D01*
Y190779D01*
X510736D02*
X523909D01*
X513650Y267118D02*
X519815D01*
X513650Y253945D02*
Y267118D01*
Y253945D02*
X519815D01*
Y267118D01*
X582866Y191012D02*
Y197177D01*
X569693D02*
X582866D01*
X569693Y191012D02*
Y197177D01*
Y191012D02*
X582866D01*
X582866Y198000D02*
Y204165D01*
X569693D02*
X582866D01*
X569693Y198000D02*
Y204165D01*
Y198000D02*
X582866D01*
X492291Y289657D02*
X498457D01*
X492291Y276484D02*
Y289657D01*
Y276484D02*
X498457D01*
Y289657D01*
X499772Y282669D02*
X505937D01*
X499772Y269496D02*
Y282669D01*
Y269496D02*
X505937D01*
Y282669D01*
X484909Y282965D02*
X491075D01*
X484909Y269791D02*
Y282965D01*
Y269791D02*
X491075D01*
Y282965D01*
X252917Y463587D02*
X259083D01*
X252917Y450413D02*
Y463587D01*
Y450413D02*
X259083D01*
Y463587D01*
X274303Y447705D02*
Y453870D01*
X261130D02*
X274303D01*
X261130Y447705D02*
Y453870D01*
Y447705D02*
X274303D01*
X286492Y470587D02*
X292657D01*
X286492Y457413D02*
Y470587D01*
Y457413D02*
X292657D01*
Y470587D01*
X277492Y457413D02*
X283658D01*
Y470587D01*
X277492D02*
X283658D01*
X277492Y457413D02*
Y470587D01*
X268598Y457413D02*
X274764D01*
Y470587D01*
X268598D02*
X274764D01*
X268598Y457413D02*
Y470587D01*
X323583Y478417D02*
Y484583D01*
X310409D02*
X323583D01*
X310409Y478417D02*
Y484583D01*
Y478417D02*
X323583D01*
X252913Y464917D02*
Y471083D01*
Y464917D02*
X266087D01*
Y471083D01*
X252913D02*
X266087D01*
X283106Y437315D02*
X289272D01*
X283106Y424142D02*
Y437315D01*
Y424142D02*
X289272D01*
Y437315D01*
X274795Y409146D02*
Y415311D01*
Y409146D02*
X287968D01*
Y415311D01*
X274795D02*
X287968D01*
X274795Y416646D02*
Y422811D01*
Y416646D02*
X287968D01*
Y422811D01*
X274795D02*
X287968D01*
X275606Y424328D02*
X281772D01*
Y437502D01*
X275606D02*
X281772D01*
X275606Y424328D02*
Y437502D01*
X268106Y424328D02*
X274272D01*
Y437502D01*
X268106D02*
X274272D01*
X268106Y424328D02*
Y437502D01*
X246169Y416996D02*
Y423161D01*
Y416996D02*
X259343D01*
Y423161D01*
X246169D02*
X259343D01*
X260606Y409642D02*
X266772D01*
Y422815D01*
X260606D02*
X266772D01*
X260606Y409642D02*
Y422815D01*
Y424142D02*
X266772D01*
Y437315D01*
X260606D02*
X266772D01*
X260606Y424142D02*
Y437315D01*
X228453Y416209D02*
X241626D01*
X228453D02*
Y422374D01*
X241626D01*
Y416209D02*
Y422374D01*
X237075Y424122D02*
X243240D01*
Y437295D01*
X237075D02*
X243240D01*
X237075Y424122D02*
Y437295D01*
X224772Y424122D02*
X230937D01*
Y437295D01*
X224772D02*
X230937D01*
X224772Y424122D02*
Y437295D01*
X249417Y294457D02*
X262591D01*
X249417D02*
Y300622D01*
X262591D01*
Y294457D02*
Y300622D01*
X247055Y231366D02*
X260228D01*
X247055D02*
Y237531D01*
X260228D01*
Y231366D02*
Y237531D01*
X244988Y166701D02*
X258161D01*
X244988D02*
Y172866D01*
X258161D01*
Y166701D02*
Y172866D01*
X192488Y337016D02*
X198653D01*
Y350189D01*
X192488D02*
X198653D01*
X192488Y337016D02*
Y350189D01*
X158630Y336917D02*
X164795D01*
X164795Y350091D01*
X158630D02*
X164795D01*
X158630D02*
X158630Y336917D01*
X192291Y285720D02*
X198457D01*
X192291D02*
X192291Y272547D01*
X198457D01*
X198457Y285720D01*
X252429Y494776D02*
X258594D01*
X252429Y481602D02*
Y494776D01*
Y481602D02*
X258594D01*
Y494776D01*
X177134Y470563D02*
X183299D01*
X177134Y457390D02*
Y470563D01*
Y457390D02*
X183299D01*
Y470563D01*
X249411Y377677D02*
X255576D01*
Y390850D01*
X249411D02*
X255576D01*
X249411Y377677D02*
Y390850D01*
X225461Y377173D02*
X231626D01*
Y390347D01*
X225461D02*
X231626D01*
X225461Y377173D02*
Y390347D01*
X256465Y377764D02*
X262630D01*
Y390937D01*
X256465D02*
X262630D01*
X256465Y377764D02*
Y390937D01*
X235343Y390913D02*
X248516D01*
X235343D02*
Y397079D01*
X248516D01*
Y390913D02*
Y397079D01*
M02*
