G04*
G04 #@! TF.GenerationSoftware,Altium Limited,Altium Designer,19.1.5 (86)*
G04*
G04 Layer_Physical_Order=2*
G04 Layer_Color=36540*
%FSLAX25Y25*%
%MOIN*%
G70*
G01*
G75*
%ADD86C,0.01968*%
%ADD87C,0.01181*%
%ADD91C,0.03937*%
%ADD97C,0.04724*%
%ADD100C,0.05906*%
%ADD103C,0.04331*%
%ADD104C,0.07677*%
%ADD106C,0.04992*%
%ADD107R,0.04992X0.04992*%
%ADD109R,0.04331X0.04331*%
%ADD110C,0.08032*%
%ADD114C,0.03937*%
%ADD115C,0.03150*%
%ADD116C,0.03543*%
G36*
X157136Y494144D02*
X307071D01*
Y488272D01*
X314976D01*
Y494144D01*
X326230D01*
X340455Y479919D01*
X340194Y479431D01*
X339822Y478206D01*
X339697Y476933D01*
X339822Y475660D01*
X340194Y474435D01*
X340797Y473307D01*
X341609Y472317D01*
X342598Y471506D01*
X343726Y470902D01*
X344951Y470531D01*
X346224Y470406D01*
X347498Y470531D01*
X348722Y470902D01*
X349211Y471163D01*
X371752Y448622D01*
X665453Y448622D01*
X680709Y448425D01*
X691831Y437303D01*
Y110531D01*
X685433Y104134D01*
X478445D01*
X469488Y113091D01*
X469488Y239764D01*
X510433Y280709D01*
X522687D01*
X522698Y280623D01*
X522998Y279901D01*
X523473Y279280D01*
X524093Y278805D01*
X524816Y278505D01*
X525591Y278403D01*
X526366Y278505D01*
X526460Y278545D01*
X526843Y278162D01*
X526832Y278137D01*
X526730Y277362D01*
X526832Y276587D01*
X527131Y275865D01*
X527607Y275245D01*
X528227Y274769D01*
X528949Y274470D01*
X529724Y274368D01*
X530499Y274470D01*
X530692Y274550D01*
X531075Y274167D01*
X530966Y273905D01*
X530864Y273130D01*
X530966Y272355D01*
X531265Y271633D01*
X531741Y271013D01*
X532361Y270537D01*
X533083Y270238D01*
X533858Y270136D01*
X534633Y270238D01*
X535355Y270537D01*
X535652Y270765D01*
X536063Y270450D01*
X535986Y270263D01*
X535884Y269488D01*
X535986Y268713D01*
X536285Y267991D01*
X536761Y267371D01*
X537381Y266895D01*
X538103Y266596D01*
X538878Y266494D01*
X539653Y266596D01*
X540005Y266742D01*
X540277Y266532D01*
X540408Y266368D01*
X540313Y265650D01*
X540415Y264875D01*
X540714Y264153D01*
X541190Y263532D01*
X541810Y263057D01*
X542532Y262757D01*
X543307Y262655D01*
X544082Y262757D01*
X544804Y263057D01*
X545424Y263532D01*
X545900Y264153D01*
X546199Y264875D01*
X546301Y265650D01*
X546199Y266424D01*
X545900Y267147D01*
X545424Y267767D01*
X544804Y268243D01*
X544082Y268542D01*
X543307Y268644D01*
X542532Y268542D01*
X542180Y268396D01*
X541908Y268606D01*
X541778Y268770D01*
X541872Y269488D01*
X541770Y270263D01*
X541471Y270985D01*
X540995Y271605D01*
X540500Y271986D01*
Y280709D01*
X568898D01*
X587795Y299606D01*
X587795Y363386D01*
X587599Y363582D01*
X587791Y364044D01*
X588881D01*
X589502Y364167D01*
X590028Y364519D01*
X660305Y434796D01*
X661728D01*
X661958Y434497D01*
X662578Y434021D01*
X663300Y433722D01*
X664075Y433620D01*
X664850Y433722D01*
X665572Y434021D01*
X666192Y434497D01*
X666668Y435117D01*
X666967Y435839D01*
X667069Y436614D01*
X666967Y437389D01*
X666668Y438111D01*
X666192Y438731D01*
X665572Y439207D01*
X664850Y439506D01*
X664075Y439608D01*
X663300Y439506D01*
X662578Y439207D01*
X661958Y438731D01*
X661482Y438111D01*
X661452Y438039D01*
X659633D01*
X659013Y437916D01*
X658486Y437564D01*
X588209Y367287D01*
X584858D01*
X584238Y367164D01*
X583712Y366812D01*
X582451Y365551D01*
X557188D01*
X556996Y366013D01*
X560300Y369317D01*
X560652Y369843D01*
X560775Y370464D01*
Y400214D01*
X587663Y427101D01*
X588014Y427627D01*
X588137Y428248D01*
Y430869D01*
X588633Y431249D01*
X589109Y431869D01*
X589408Y432591D01*
X589510Y433366D01*
X589408Y434141D01*
X589109Y434863D01*
X588633Y435483D01*
X588013Y435959D01*
X587291Y436258D01*
X586516Y436360D01*
X585741Y436258D01*
X585019Y435959D01*
X584399Y435483D01*
X583923Y434863D01*
X583624Y434141D01*
X583522Y433366D01*
X583624Y432591D01*
X583923Y431869D01*
X584399Y431249D01*
X584894Y430869D01*
Y428920D01*
X558007Y402033D01*
X557655Y401506D01*
X557532Y400886D01*
Y371135D01*
X551948Y365551D01*
X508610Y365551D01*
Y425357D01*
X509105Y425737D01*
X509581Y426357D01*
X509880Y427079D01*
X509982Y427854D01*
X509880Y428629D01*
X509581Y429351D01*
X509105Y429972D01*
X508485Y430447D01*
X507763Y430746D01*
X506988Y430848D01*
X506213Y430746D01*
X505491Y430447D01*
X504871Y429972D01*
X504395Y429351D01*
X504096Y428629D01*
X503994Y427854D01*
X504096Y427079D01*
X504395Y426357D01*
X504871Y425737D01*
X505367Y425357D01*
Y365551D01*
X477982D01*
X426622Y416912D01*
Y432345D01*
X427117Y432725D01*
X427593Y433346D01*
X427892Y434068D01*
X427994Y434842D01*
X427892Y435617D01*
X427593Y436340D01*
X427117Y436960D01*
X426497Y437435D01*
X425775Y437735D01*
X425000Y437837D01*
X424225Y437735D01*
X423503Y437435D01*
X422883Y436960D01*
X422407Y436340D01*
X422108Y435617D01*
X422006Y434842D01*
X422108Y434068D01*
X422407Y433346D01*
X422883Y432725D01*
X423378Y432345D01*
Y423288D01*
X422878Y423041D01*
X422462Y423361D01*
X421739Y423660D01*
X420965Y423762D01*
X420190Y423660D01*
X419467Y423361D01*
X418847Y422885D01*
X418372Y422265D01*
X418073Y421543D01*
X417970Y420768D01*
X418073Y419993D01*
X418372Y419271D01*
X418847Y418651D01*
X419467Y418175D01*
X420190Y417876D01*
X420965Y417774D01*
X421739Y417876D01*
X422462Y418175D01*
X422878Y418494D01*
X423378Y418248D01*
Y416240D01*
X423502Y415620D01*
X423853Y415093D01*
X452838Y386109D01*
X452554Y385685D01*
X452076Y385883D01*
X451302Y385985D01*
X450527Y385883D01*
X449804Y385584D01*
X449184Y385108D01*
X448709Y384488D01*
X448410Y383766D01*
X448307Y382991D01*
X448410Y382216D01*
X448709Y381494D01*
X449184Y380874D01*
X449804Y380398D01*
X450527Y380099D01*
X451302Y379997D01*
X452076Y380099D01*
X452799Y380398D01*
X453419Y380874D01*
X453895Y381494D01*
X454194Y382216D01*
X454296Y382991D01*
X454194Y383766D01*
X453996Y384244D01*
X454420Y384527D01*
X472934Y366013D01*
X472742Y365551D01*
X419856Y365551D01*
X419799Y366028D01*
X419799Y366051D01*
Y367833D01*
X419990Y368294D01*
X420109Y369193D01*
X419990Y370092D01*
X419799Y370553D01*
Y372358D01*
X417994D01*
X417533Y372549D01*
X416634Y372668D01*
X415735Y372549D01*
X415274Y372358D01*
X413469D01*
Y370553D01*
X413278Y370092D01*
X413159Y369193D01*
X413278Y368294D01*
X413469Y367833D01*
Y366051D01*
X413412Y365551D01*
X403695D01*
X403448Y366051D01*
X403577Y366219D01*
X403876Y366942D01*
X403978Y367717D01*
X403876Y368492D01*
X403577Y369214D01*
X403101Y369834D01*
X402481Y370309D01*
X401759Y370609D01*
X400984Y370711D01*
X400209Y370609D01*
X399487Y370309D01*
X398867Y369834D01*
X398391Y369214D01*
X398092Y368492D01*
X397990Y367717D01*
X398092Y366942D01*
X398391Y366219D01*
X398520Y366051D01*
X398274Y365551D01*
X395669D01*
X352658Y408563D01*
X292931D01*
X292759Y408977D01*
X292283Y409597D01*
X291663Y410073D01*
X290941Y410372D01*
X290166Y410474D01*
X289391Y410372D01*
X288669Y410073D01*
X288049Y409597D01*
X287573Y408977D01*
X287401Y408563D01*
X191634Y408563D01*
X136221Y353150D01*
X117520D01*
X106004Y364665D01*
X105905Y372638D01*
Y483858D01*
X116339Y494291D01*
X157087D01*
X157136Y494144D01*
D02*
G37*
G36*
X211221Y299362D02*
X211221Y287846D01*
X209252Y285878D01*
X154476D01*
X148028Y279429D01*
X115748Y279429D01*
X113287Y281890D01*
X113287Y286909D01*
X115551Y289173D01*
X117713D01*
X118012Y289134D01*
X118311Y289173D01*
X140095Y289173D01*
X151799Y301528D01*
X209055Y301528D01*
X211221Y299362D01*
D02*
G37*
%LPC*%
G36*
X270079Y491270D02*
X269179Y491152D01*
X268719Y490961D01*
X266913D01*
Y489155D01*
X266722Y488695D01*
X266604Y487795D01*
X266722Y486896D01*
X266913Y486435D01*
Y484630D01*
X268719D01*
X269179Y484439D01*
X270079Y484321D01*
X270978Y484439D01*
X271439Y484630D01*
X273244D01*
Y486435D01*
X273435Y486896D01*
X273553Y487795D01*
X273435Y488695D01*
X273244Y489155D01*
Y490961D01*
X271439D01*
X270978Y491152D01*
X270079Y491270D01*
D02*
G37*
G36*
X171949Y485890D02*
X171049Y485771D01*
X170589Y485580D01*
X168783D01*
Y483775D01*
X168593Y483314D01*
X168474Y482415D01*
X168593Y481516D01*
X168783Y481055D01*
Y479250D01*
X170589D01*
X171049Y479059D01*
X171949Y478940D01*
X172848Y479059D01*
X173309Y479250D01*
X175114D01*
Y481055D01*
X175305Y481516D01*
X175423Y482415D01*
X175305Y483314D01*
X175114Y483775D01*
Y485580D01*
X173309D01*
X172848Y485771D01*
X171949Y485890D01*
D02*
G37*
G36*
X294193Y483790D02*
X293294Y483671D01*
X292833Y483480D01*
X291028D01*
Y481675D01*
X290837Y481214D01*
X290718Y480315D01*
X290837Y479416D01*
X291028Y478955D01*
Y477150D01*
X292833D01*
X293294Y476959D01*
X294193Y476840D01*
X295092Y476959D01*
X295553Y477150D01*
X297358D01*
Y478955D01*
X297549Y479416D01*
X297668Y480315D01*
X297549Y481214D01*
X297358Y481675D01*
Y483480D01*
X295553D01*
X295092Y483671D01*
X294193Y483790D01*
D02*
G37*
G36*
X151500Y471880D02*
X150237Y471714D01*
X149060Y471227D01*
X148049Y470451D01*
X147274Y469440D01*
X146786Y468263D01*
X146620Y467000D01*
X146786Y465737D01*
X147274Y464560D01*
X148049Y463549D01*
X149060Y462774D01*
X150237Y462286D01*
X151500Y462120D01*
X152763Y462286D01*
X153940Y462774D01*
X154951Y463549D01*
X155727Y464560D01*
X156214Y465737D01*
X156380Y467000D01*
X156214Y468263D01*
X155727Y469440D01*
X154951Y470451D01*
X153940Y471227D01*
X152763Y471714D01*
X151500Y471880D01*
D02*
G37*
G36*
X121500D02*
X120237Y471714D01*
X119060Y471227D01*
X118049Y470451D01*
X117273Y469440D01*
X116786Y468263D01*
X116620Y467000D01*
X116786Y465737D01*
X117273Y464560D01*
X118049Y463549D01*
X119060Y462774D01*
X120237Y462286D01*
X121500Y462120D01*
X122763Y462286D01*
X123940Y462774D01*
X124951Y463549D01*
X125726Y464560D01*
X126214Y465737D01*
X126380Y467000D01*
X126214Y468263D01*
X125726Y469440D01*
X124951Y470451D01*
X123940Y471227D01*
X122763Y471714D01*
X121500Y471880D01*
D02*
G37*
G36*
X290846Y443841D02*
X290072Y443739D01*
X289349Y443439D01*
X288729Y442964D01*
X288253Y442344D01*
X287954Y441621D01*
X287852Y440846D01*
X287954Y440071D01*
X288253Y439349D01*
X288729Y438729D01*
X289349Y438253D01*
X290072Y437954D01*
X290846Y437852D01*
X291621Y437954D01*
X292343Y438253D01*
X292964Y438729D01*
X293439Y439349D01*
X293739Y440071D01*
X293841Y440846D01*
X293739Y441621D01*
X293439Y442344D01*
X292964Y442964D01*
X292343Y443439D01*
X291621Y443739D01*
X290846Y443841D01*
D02*
G37*
G36*
X640512Y443487D02*
X639599Y443367D01*
X638749Y443014D01*
X638018Y442454D01*
X637458Y441724D01*
X637106Y440873D01*
X636986Y439961D01*
X637106Y439048D01*
X637458Y438198D01*
X638018Y437467D01*
X638749Y436907D01*
X639599Y436555D01*
X640512Y436434D01*
X641425Y436555D01*
X642275Y436907D01*
X643005Y437467D01*
X643566Y438198D01*
X643918Y439048D01*
X644038Y439961D01*
X643918Y440873D01*
X643566Y441724D01*
X643005Y442454D01*
X642275Y443014D01*
X641425Y443367D01*
X640512Y443487D01*
D02*
G37*
G36*
X620512D02*
X619599Y443367D01*
X618749Y443014D01*
X618018Y442454D01*
X617458Y441724D01*
X617106Y440873D01*
X616986Y439961D01*
X617106Y439048D01*
X617458Y438198D01*
X618018Y437467D01*
X618749Y436907D01*
X619599Y436555D01*
X620512Y436434D01*
X621424Y436555D01*
X622275Y436907D01*
X623005Y437467D01*
X623566Y438198D01*
X623918Y439048D01*
X624038Y439961D01*
X623918Y440873D01*
X623566Y441724D01*
X623005Y442454D01*
X622275Y443014D01*
X621424Y443367D01*
X620512Y443487D01*
D02*
G37*
G36*
X398386D02*
X397473Y443367D01*
X396623Y443014D01*
X395892Y442454D01*
X395332Y441724D01*
X394980Y440873D01*
X394860Y439961D01*
X394980Y439048D01*
X395332Y438198D01*
X395892Y437467D01*
X396623Y436907D01*
X397473Y436555D01*
X398386Y436434D01*
X399299Y436555D01*
X400149Y436907D01*
X400879Y437467D01*
X401440Y438198D01*
X401792Y439048D01*
X401912Y439961D01*
X401792Y440873D01*
X401440Y441724D01*
X400879Y442454D01*
X400149Y443014D01*
X399299Y443367D01*
X398386Y443487D01*
D02*
G37*
G36*
X378386D02*
X377473Y443367D01*
X376623Y443014D01*
X375892Y442454D01*
X375332Y441724D01*
X374980Y440873D01*
X374860Y439961D01*
X374980Y439048D01*
X375332Y438198D01*
X375892Y437467D01*
X376623Y436907D01*
X377473Y436555D01*
X378386Y436434D01*
X379298Y436555D01*
X380149Y436907D01*
X380879Y437467D01*
X381440Y438198D01*
X381792Y439048D01*
X381912Y439961D01*
X381792Y440873D01*
X381440Y441724D01*
X380879Y442454D01*
X380149Y443014D01*
X379298Y443367D01*
X378386Y443487D01*
D02*
G37*
G36*
X560197Y443093D02*
X559284Y442973D01*
X558434Y442621D01*
X557703Y442060D01*
X557143Y441330D01*
X556791Y440480D01*
X556671Y439567D01*
X556791Y438654D01*
X557143Y437804D01*
X557703Y437074D01*
X558434Y436513D01*
X559284Y436161D01*
X560197Y436041D01*
X561109Y436161D01*
X561960Y436513D01*
X562690Y437074D01*
X563251Y437804D01*
X563603Y438654D01*
X563723Y439567D01*
X563603Y440480D01*
X563251Y441330D01*
X562690Y442060D01*
X561960Y442621D01*
X561109Y442973D01*
X560197Y443093D01*
D02*
G37*
G36*
X540197D02*
X539284Y442973D01*
X538434Y442621D01*
X537703Y442060D01*
X537143Y441330D01*
X536791Y440480D01*
X536671Y439567D01*
X536791Y438654D01*
X537143Y437804D01*
X537703Y437074D01*
X538434Y436513D01*
X539284Y436161D01*
X540197Y436041D01*
X541110Y436161D01*
X541960Y436513D01*
X542690Y437074D01*
X543251Y437804D01*
X543603Y438654D01*
X543723Y439567D01*
X543603Y440480D01*
X543251Y441330D01*
X542690Y442060D01*
X541960Y442621D01*
X541110Y442973D01*
X540197Y443093D01*
D02*
G37*
G36*
X479488D02*
X478576Y442973D01*
X477725Y442621D01*
X476995Y442060D01*
X476434Y441330D01*
X476082Y440480D01*
X475962Y439567D01*
X476082Y438654D01*
X476434Y437804D01*
X476995Y437074D01*
X477725Y436513D01*
X478576Y436161D01*
X479488Y436041D01*
X480401Y436161D01*
X481251Y436513D01*
X481982Y437074D01*
X482542Y437804D01*
X482894Y438654D01*
X483014Y439567D01*
X482894Y440480D01*
X482542Y441330D01*
X481982Y442060D01*
X481251Y442621D01*
X480401Y442973D01*
X479488Y443093D01*
D02*
G37*
G36*
X459488D02*
X458575Y442973D01*
X457725Y442621D01*
X456995Y442060D01*
X456434Y441330D01*
X456082Y440480D01*
X455962Y439567D01*
X456082Y438654D01*
X456434Y437804D01*
X456995Y437074D01*
X457725Y436513D01*
X458575Y436161D01*
X459488Y436041D01*
X460401Y436161D01*
X461251Y436513D01*
X461982Y437074D01*
X462542Y437804D01*
X462894Y438654D01*
X463014Y439567D01*
X462894Y440480D01*
X462542Y441330D01*
X461982Y442060D01*
X461251Y442621D01*
X460401Y442973D01*
X459488Y443093D01*
D02*
G37*
G36*
X345000Y435912D02*
X344101Y435793D01*
X343640Y435602D01*
X341835D01*
Y433797D01*
X341644Y433336D01*
X341525Y432437D01*
X341644Y431538D01*
X341835Y431077D01*
Y429272D01*
X343640D01*
X344101Y429081D01*
X345000Y428962D01*
X345899Y429081D01*
X346360Y429272D01*
X348165D01*
Y431077D01*
X348356Y431538D01*
X348475Y432437D01*
X348356Y433336D01*
X348165Y433797D01*
Y435602D01*
X346360D01*
X345899Y435793D01*
X345000Y435912D01*
D02*
G37*
G36*
X635512Y433487D02*
X634599Y433367D01*
X633749Y433014D01*
X633018Y432454D01*
X632458Y431724D01*
X632106Y430873D01*
X631986Y429961D01*
X632106Y429048D01*
X632458Y428197D01*
X633018Y427467D01*
X633749Y426907D01*
X634599Y426555D01*
X635512Y426434D01*
X636424Y426555D01*
X637275Y426907D01*
X638005Y427467D01*
X638566Y428197D01*
X638918Y429048D01*
X639038Y429961D01*
X638918Y430873D01*
X638566Y431724D01*
X638005Y432454D01*
X637275Y433014D01*
X636424Y433367D01*
X635512Y433487D01*
D02*
G37*
G36*
X393386D02*
X392473Y433367D01*
X391623Y433014D01*
X390892Y432454D01*
X390332Y431724D01*
X389980Y430873D01*
X389860Y429961D01*
X389980Y429048D01*
X390332Y428197D01*
X390892Y427467D01*
X391623Y426907D01*
X392473Y426555D01*
X393386Y426434D01*
X394299Y426555D01*
X395149Y426907D01*
X395879Y427467D01*
X396440Y428197D01*
X396792Y429048D01*
X396912Y429961D01*
X396792Y430873D01*
X396440Y431724D01*
X395879Y432454D01*
X395149Y433014D01*
X394299Y433367D01*
X393386Y433487D01*
D02*
G37*
G36*
X555197Y433093D02*
X554284Y432973D01*
X553434Y432621D01*
X552703Y432060D01*
X552143Y431330D01*
X551791Y430480D01*
X551671Y429567D01*
X551791Y428654D01*
X552143Y427804D01*
X552703Y427073D01*
X553434Y426513D01*
X554284Y426161D01*
X555197Y426041D01*
X556110Y426161D01*
X556960Y426513D01*
X557690Y427073D01*
X558251Y427804D01*
X558603Y428654D01*
X558723Y429567D01*
X558603Y430480D01*
X558251Y431330D01*
X557690Y432060D01*
X556960Y432621D01*
X556110Y432973D01*
X555197Y433093D01*
D02*
G37*
G36*
X474488D02*
X473575Y432973D01*
X472725Y432621D01*
X471995Y432060D01*
X471434Y431330D01*
X471082Y430480D01*
X470962Y429567D01*
X471082Y428654D01*
X471434Y427804D01*
X471995Y427073D01*
X472725Y426513D01*
X473575Y426161D01*
X474488Y426041D01*
X475401Y426161D01*
X476251Y426513D01*
X476982Y427073D01*
X477542Y427804D01*
X477894Y428654D01*
X478014Y429567D01*
X477894Y430480D01*
X477542Y431330D01*
X476982Y432060D01*
X476251Y432621D01*
X475401Y432973D01*
X474488Y433093D01*
D02*
G37*
G36*
X575591Y430258D02*
X574816Y430156D01*
X574093Y429857D01*
X573473Y429381D01*
X572998Y428761D01*
X572698Y428039D01*
X572596Y427264D01*
X572698Y426489D01*
X572998Y425767D01*
X573473Y425147D01*
X574093Y424671D01*
X574816Y424372D01*
X575591Y424270D01*
X576366Y424372D01*
X577088Y424671D01*
X577708Y425147D01*
X578184Y425767D01*
X578483Y426489D01*
X578585Y427264D01*
X578483Y428039D01*
X578184Y428761D01*
X577708Y429381D01*
X577088Y429857D01*
X576366Y430156D01*
X575591Y430258D01*
D02*
G37*
G36*
X220472Y429470D02*
X219697Y429368D01*
X218975Y429069D01*
X218355Y428593D01*
X217880Y427973D01*
X217580Y427251D01*
X217478Y426476D01*
X217580Y425701D01*
X217880Y424979D01*
X218355Y424359D01*
X218975Y423883D01*
X219697Y423584D01*
X220472Y423482D01*
X221247Y423584D01*
X221970Y423883D01*
X222590Y424359D01*
X223065Y424979D01*
X223364Y425701D01*
X223467Y426476D01*
X223364Y427251D01*
X223065Y427973D01*
X222590Y428593D01*
X221970Y429069D01*
X221247Y429368D01*
X220472Y429470D01*
D02*
G37*
G36*
X441043Y423368D02*
X440268Y423266D01*
X439546Y422967D01*
X438926Y422491D01*
X438450Y421871D01*
X438151Y421149D01*
X438049Y420374D01*
X438151Y419599D01*
X438450Y418877D01*
X438926Y418257D01*
X439546Y417781D01*
X440268Y417482D01*
X441043Y417380D01*
X441818Y417482D01*
X442540Y417781D01*
X443160Y418257D01*
X443636Y418877D01*
X443935Y419599D01*
X444037Y420374D01*
X443935Y421149D01*
X443636Y421871D01*
X443160Y422491D01*
X442540Y422967D01*
X441818Y423266D01*
X441043Y423368D01*
D02*
G37*
G36*
X395374Y421793D02*
X394599Y421691D01*
X393877Y421392D01*
X393257Y420916D01*
X392781Y420296D01*
X392482Y419574D01*
X392380Y418799D01*
X392482Y418024D01*
X392781Y417302D01*
X393257Y416682D01*
X393877Y416206D01*
X394599Y415907D01*
X395374Y415805D01*
X396149Y415907D01*
X396871Y416206D01*
X397491Y416682D01*
X397967Y417302D01*
X398266Y418024D01*
X398368Y418799D01*
X398266Y419574D01*
X397967Y420296D01*
X397491Y420916D01*
X396871Y421392D01*
X396149Y421691D01*
X395374Y421793D01*
D02*
G37*
G36*
X170658Y422173D02*
X169707Y422048D01*
X169258Y421862D01*
X167295D01*
Y419899D01*
X167110Y419451D01*
X166984Y418500D01*
X167110Y417549D01*
X167295Y417101D01*
Y415138D01*
X169258D01*
X169707Y414952D01*
X170658Y414827D01*
X171608Y414952D01*
X172057Y415138D01*
X174020D01*
Y417101D01*
X174206Y417549D01*
X174331Y418500D01*
X174206Y419451D01*
X174020Y419899D01*
Y421862D01*
X172057D01*
X171608Y422048D01*
X170658Y422173D01*
D02*
G37*
G36*
X138500D02*
X137549Y422048D01*
X137101Y421862D01*
X135138D01*
Y419899D01*
X134952Y419451D01*
X134827Y418500D01*
X134952Y417549D01*
X135138Y417101D01*
Y415138D01*
X137101D01*
X137549Y414952D01*
X138500Y414827D01*
X139451Y414952D01*
X139899Y415138D01*
X141862D01*
Y417101D01*
X142048Y417549D01*
X142173Y418500D01*
X142048Y419451D01*
X141862Y419899D01*
Y421862D01*
X139899D01*
X139451Y422048D01*
X138500Y422173D01*
D02*
G37*
G36*
X584154Y417545D02*
X583383Y417444D01*
X582664Y417146D01*
X582048Y416673D01*
X581574Y416056D01*
X581277Y415338D01*
X581175Y414567D01*
X581277Y413796D01*
X581574Y413078D01*
X582048Y412461D01*
X582664Y411988D01*
X583383Y411690D01*
X584154Y411589D01*
X584924Y411690D01*
X585643Y411988D01*
X586260Y412461D01*
X586733Y413078D01*
X587030Y413796D01*
X587132Y414567D01*
X587030Y415338D01*
X586733Y416056D01*
X586260Y416673D01*
X585643Y417146D01*
X584924Y417444D01*
X584154Y417545D01*
D02*
G37*
G36*
X453346Y417167D02*
X452571Y417065D01*
X451849Y416766D01*
X451229Y416290D01*
X450753Y415670D01*
X450454Y414948D01*
X450352Y414173D01*
X450454Y413398D01*
X450753Y412676D01*
X451229Y412056D01*
X451849Y411580D01*
X452571Y411281D01*
X453346Y411179D01*
X454121Y411281D01*
X454844Y411580D01*
X455464Y412056D01*
X455939Y412676D01*
X456239Y413398D01*
X456341Y414173D01*
X456239Y414948D01*
X455939Y415670D01*
X455464Y416290D01*
X454844Y416766D01*
X454121Y417065D01*
X453346Y417167D01*
D02*
G37*
G36*
X399410Y409687D02*
X398635Y409585D01*
X397912Y409286D01*
X397292Y408810D01*
X396816Y408190D01*
X396517Y407468D01*
X396415Y406693D01*
X396517Y405918D01*
X396816Y405196D01*
X397292Y404576D01*
X397912Y404100D01*
X398635Y403801D01*
X399410Y403699D01*
X400184Y403801D01*
X400907Y404100D01*
X401527Y404576D01*
X402002Y405196D01*
X402302Y405918D01*
X402404Y406693D01*
X402302Y407468D01*
X402002Y408190D01*
X401527Y408810D01*
X400907Y409286D01*
X400184Y409585D01*
X399410Y409687D01*
D02*
G37*
G36*
X534055Y408998D02*
X533280Y408896D01*
X532558Y408597D01*
X531938Y408121D01*
X531462Y407501D01*
X531163Y406779D01*
X531061Y406004D01*
X531163Y405229D01*
X531462Y404507D01*
X531938Y403887D01*
X532558Y403411D01*
X533280Y403112D01*
X534055Y403010D01*
X534830Y403112D01*
X535552Y403411D01*
X536172Y403887D01*
X536648Y404507D01*
X536947Y405229D01*
X537049Y406004D01*
X536947Y406779D01*
X536648Y407501D01*
X536172Y408121D01*
X535552Y408597D01*
X534830Y408896D01*
X534055Y408998D01*
D02*
G37*
G36*
X689268Y427772D02*
X679236D01*
Y417740D01*
X681872D01*
X681971Y417240D01*
X681722Y417137D01*
X680675Y416333D01*
X679871Y415285D01*
X679365Y414065D01*
X679193Y412756D01*
X679365Y411447D01*
X679871Y410226D01*
X680675Y409179D01*
X681722Y408375D01*
X682563Y408027D01*
Y407485D01*
X681722Y407137D01*
X680675Y406333D01*
X679871Y405285D01*
X679365Y404065D01*
X679193Y402756D01*
X679365Y401446D01*
X679871Y400226D01*
X680675Y399179D01*
X681722Y398375D01*
X682943Y397869D01*
X684252Y397697D01*
X685561Y397869D01*
X686782Y398375D01*
X687829Y399179D01*
X688633Y400226D01*
X689139Y401446D01*
X689311Y402756D01*
X689139Y404065D01*
X688633Y405285D01*
X687829Y406333D01*
X686782Y407137D01*
X685941Y407485D01*
Y408027D01*
X686782Y408375D01*
X687829Y409179D01*
X688633Y410226D01*
X689139Y411447D01*
X689311Y412756D01*
X689139Y414065D01*
X688633Y415285D01*
X687829Y416333D01*
X686782Y417137D01*
X686533Y417240D01*
X686632Y417740D01*
X689268D01*
Y427772D01*
D02*
G37*
G36*
X656978Y399155D02*
X656203Y399054D01*
X655481Y398754D01*
X654861Y398279D01*
X654385Y397658D01*
X654086Y396936D01*
X653984Y396161D01*
X654086Y395387D01*
X654385Y394664D01*
X654861Y394044D01*
X655481Y393568D01*
X656203Y393269D01*
X656978Y393167D01*
X657753Y393269D01*
X658475Y393568D01*
X659095Y394044D01*
X659571Y394664D01*
X659870Y395387D01*
X659972Y396161D01*
X659870Y396936D01*
X659571Y397658D01*
X659095Y398279D01*
X658475Y398754D01*
X657753Y399054D01*
X656978Y399155D01*
D02*
G37*
G36*
X597736Y393941D02*
X596910Y393832D01*
X596140Y393513D01*
X595479Y393006D01*
X594971Y392344D01*
X594652Y391574D01*
X594544Y390748D01*
X594652Y389922D01*
X594971Y389152D01*
X595479Y388491D01*
X596140Y387983D01*
X596910Y387664D01*
X597736Y387555D01*
X598562Y387664D01*
X599333Y387983D01*
X599994Y388491D01*
X600501Y389152D01*
X600820Y389922D01*
X600929Y390748D01*
X600820Y391574D01*
X600501Y392344D01*
X599994Y393006D01*
X599333Y393513D01*
X598562Y393832D01*
X597736Y393941D01*
D02*
G37*
G36*
X395079Y391872D02*
X394304Y391770D01*
X393582Y391471D01*
X392962Y390995D01*
X392486Y390375D01*
X392187Y389653D01*
X392085Y388878D01*
X392187Y388103D01*
X392486Y387381D01*
X392962Y386761D01*
X393582Y386285D01*
X394304Y385986D01*
X395079Y385884D01*
X395854Y385986D01*
X396576Y386285D01*
X397196Y386761D01*
X397672Y387381D01*
X397971Y388103D01*
X398073Y388878D01*
X397971Y389653D01*
X397672Y390375D01*
X397196Y390995D01*
X396576Y391471D01*
X395854Y391770D01*
X395079Y391872D01*
D02*
G37*
G36*
X465945Y391675D02*
X465170Y391573D01*
X464448Y391274D01*
X463828Y390798D01*
X463352Y390178D01*
X463053Y389456D01*
X462951Y388681D01*
X463053Y387906D01*
X463352Y387184D01*
X463828Y386564D01*
X464448Y386088D01*
X465170Y385789D01*
X465945Y385687D01*
X466720Y385789D01*
X467442Y386088D01*
X468062Y386564D01*
X468538Y387184D01*
X468837Y387906D01*
X468939Y388681D01*
X468837Y389456D01*
X468538Y390178D01*
X468062Y390798D01*
X467442Y391274D01*
X466720Y391573D01*
X465945Y391675D01*
D02*
G37*
G36*
X524508Y390789D02*
X523733Y390687D01*
X523011Y390388D01*
X522391Y389912D01*
X521915Y389292D01*
X521616Y388570D01*
X521514Y387795D01*
X521616Y387020D01*
X521915Y386298D01*
X522391Y385678D01*
X523011Y385202D01*
X523733Y384903D01*
X524508Y384801D01*
X525283Y384903D01*
X526005Y385202D01*
X526625Y385678D01*
X527101Y386298D01*
X527400Y387020D01*
X527502Y387795D01*
X527400Y388570D01*
X527101Y389292D01*
X526625Y389912D01*
X526005Y390388D01*
X525283Y390687D01*
X524508Y390789D01*
D02*
G37*
G36*
X581328Y387562D02*
X580501Y387453D01*
X579731Y387134D01*
X579070Y386627D01*
X578563Y385965D01*
X578244Y385195D01*
X578135Y384369D01*
X578244Y383543D01*
X578563Y382773D01*
X579070Y382112D01*
X579731Y381604D01*
X580501Y381285D01*
X581328Y381176D01*
X582154Y381285D01*
X582924Y381604D01*
X583585Y382112D01*
X584093Y382773D01*
X584411Y383543D01*
X584520Y384369D01*
X584411Y385195D01*
X584093Y385965D01*
X583585Y386627D01*
X582924Y387134D01*
X582154Y387453D01*
X581328Y387562D01*
D02*
G37*
G36*
X574311Y387445D02*
X573485Y387336D01*
X572715Y387017D01*
X572053Y386509D01*
X571546Y385848D01*
X571227Y385078D01*
X571118Y384252D01*
X571227Y383426D01*
X571546Y382656D01*
X572053Y381994D01*
X572715Y381487D01*
X573485Y381168D01*
X574311Y381059D01*
X575137Y381168D01*
X575907Y381487D01*
X576569Y381994D01*
X577076Y382656D01*
X577395Y383426D01*
X577504Y384252D01*
X577395Y385078D01*
X577076Y385848D01*
X576569Y386509D01*
X575907Y387017D01*
X575137Y387336D01*
X574311Y387445D01*
D02*
G37*
G36*
X444291Y386557D02*
X443516Y386455D01*
X442794Y386156D01*
X442174Y385680D01*
X441698Y385060D01*
X441399Y384338D01*
X441297Y383563D01*
X441399Y382788D01*
X441698Y382066D01*
X442174Y381446D01*
X442794Y380970D01*
X443516Y380671D01*
X444291Y380569D01*
X445066Y380671D01*
X445788Y380970D01*
X446409Y381446D01*
X446884Y382066D01*
X447183Y382788D01*
X447286Y383563D01*
X447183Y384338D01*
X446884Y385060D01*
X446409Y385680D01*
X445788Y386156D01*
X445066Y386455D01*
X444291Y386557D01*
D02*
G37*
G36*
X684252Y383405D02*
X682943Y383233D01*
X681722Y382728D01*
X680675Y381924D01*
X679871Y380876D01*
X679365Y379656D01*
X679193Y378346D01*
X679365Y377037D01*
X679871Y375817D01*
X680675Y374769D01*
X681722Y373965D01*
X682943Y373460D01*
X684252Y373287D01*
X685561Y373460D01*
X686782Y373965D01*
X687829Y374769D01*
X688633Y375817D01*
X689139Y377037D01*
X689311Y378346D01*
X689139Y379656D01*
X688633Y380876D01*
X687829Y381924D01*
X686782Y382728D01*
X685561Y383233D01*
X684252Y383405D01*
D02*
G37*
G36*
X641535Y375238D02*
X640761Y375136D01*
X640038Y374837D01*
X639418Y374361D01*
X638942Y373741D01*
X638643Y373019D01*
X638541Y372244D01*
X638643Y371469D01*
X638942Y370747D01*
X639418Y370127D01*
X640038Y369651D01*
X640761Y369352D01*
X641535Y369250D01*
X642310Y369352D01*
X643033Y369651D01*
X643653Y370127D01*
X644128Y370747D01*
X644427Y371469D01*
X644530Y372244D01*
X644427Y373019D01*
X644128Y373741D01*
X643653Y374361D01*
X643033Y374837D01*
X642310Y375136D01*
X641535Y375238D01*
D02*
G37*
G36*
X574409Y374734D02*
X573510Y374616D01*
X572672Y374269D01*
X571952Y373717D01*
X571400Y372997D01*
X571053Y372159D01*
X570935Y371260D01*
X571053Y370360D01*
X571400Y369523D01*
X571952Y368803D01*
X572672Y368251D01*
X573510Y367904D01*
X574409Y367785D01*
X575309Y367904D01*
X576147Y368251D01*
X576866Y368803D01*
X577419Y369523D01*
X577766Y370360D01*
X577884Y371260D01*
X577766Y372159D01*
X577419Y372997D01*
X576866Y373717D01*
X576147Y374269D01*
X575309Y374616D01*
X574409Y374734D01*
D02*
G37*
G36*
X544587Y374439D02*
X543687Y374321D01*
X543226Y374130D01*
X541421D01*
Y372325D01*
X541230Y371864D01*
X541112Y370965D01*
X541230Y370065D01*
X541421Y369604D01*
Y367799D01*
X543226D01*
X543687Y367608D01*
X544587Y367490D01*
X545486Y367608D01*
X545947Y367799D01*
X547752D01*
Y369604D01*
X547943Y370065D01*
X548061Y370965D01*
X547943Y371864D01*
X547752Y372325D01*
Y374130D01*
X545947D01*
X545486Y374321D01*
X544587Y374439D01*
D02*
G37*
G36*
X448524Y373061D02*
X447624Y372943D01*
X446786Y372596D01*
X446067Y372043D01*
X445514Y371324D01*
X445167Y370486D01*
X445049Y369587D01*
X445167Y368687D01*
X445514Y367849D01*
X446067Y367130D01*
X446786Y366578D01*
X447624Y366230D01*
X448524Y366112D01*
X449423Y366230D01*
X450261Y366578D01*
X450981Y367130D01*
X451533Y367849D01*
X451880Y368687D01*
X451998Y369587D01*
X451880Y370486D01*
X451533Y371324D01*
X450981Y372043D01*
X450261Y372596D01*
X449423Y372943D01*
X448524Y373061D01*
D02*
G37*
G36*
X138287Y370799D02*
X137337Y370674D01*
X136888Y370488D01*
X134925D01*
Y368525D01*
X134739Y368077D01*
X134614Y367126D01*
X134739Y366175D01*
X134925Y365727D01*
Y363764D01*
X136888D01*
X137337Y363578D01*
X138287Y363453D01*
X139238Y363578D01*
X139687Y363764D01*
X141650D01*
Y365727D01*
X141835Y366175D01*
X141961Y367126D01*
X141835Y368077D01*
X141650Y368525D01*
Y370488D01*
X139687D01*
X139238Y370674D01*
X138287Y370799D01*
D02*
G37*
G36*
X622047Y367561D02*
X621272Y367459D01*
X620550Y367160D01*
X619930Y366684D01*
X619454Y366064D01*
X619155Y365342D01*
X619053Y364567D01*
X619155Y363792D01*
X619454Y363070D01*
X619930Y362450D01*
X620550Y361974D01*
X621272Y361675D01*
X622047Y361573D01*
X622822Y361675D01*
X623544Y361974D01*
X624164Y362450D01*
X624640Y363070D01*
X624939Y363792D01*
X625041Y364567D01*
X624939Y365342D01*
X624640Y366064D01*
X624164Y366684D01*
X623544Y367160D01*
X622822Y367459D01*
X622047Y367561D01*
D02*
G37*
G36*
X641437Y366478D02*
X640662Y366376D01*
X639940Y366077D01*
X639320Y365601D01*
X638844Y364981D01*
X638545Y364259D01*
X638443Y363484D01*
X638545Y362709D01*
X638844Y361987D01*
X639320Y361367D01*
X639940Y360891D01*
X640662Y360592D01*
X641437Y360490D01*
X642212Y360592D01*
X642934Y360891D01*
X643554Y361367D01*
X644030Y361987D01*
X644329Y362709D01*
X644431Y363484D01*
X644329Y364259D01*
X644030Y364981D01*
X643554Y365601D01*
X642934Y366077D01*
X642212Y366376D01*
X641437Y366478D01*
D02*
G37*
G36*
X611909Y361459D02*
X611134Y361357D01*
X610412Y361057D01*
X609792Y360582D01*
X609316Y359962D01*
X609017Y359240D01*
X608915Y358465D01*
X609017Y357690D01*
X609316Y356967D01*
X609792Y356347D01*
X610412Y355872D01*
X611134Y355573D01*
X611909Y355470D01*
X612684Y355573D01*
X613407Y355872D01*
X614027Y356347D01*
X614502Y356967D01*
X614802Y357690D01*
X614904Y358465D01*
X614802Y359240D01*
X614502Y359962D01*
X614027Y360582D01*
X613407Y361057D01*
X612684Y361357D01*
X611909Y361459D01*
D02*
G37*
G36*
X642224Y357522D02*
X641449Y357420D01*
X640727Y357120D01*
X640107Y356645D01*
X639631Y356025D01*
X639332Y355303D01*
X639230Y354528D01*
X639332Y353753D01*
X639631Y353030D01*
X640107Y352410D01*
X640727Y351935D01*
X641449Y351636D01*
X642224Y351533D01*
X642999Y351636D01*
X643721Y351935D01*
X644342Y352410D01*
X644817Y353030D01*
X645117Y353753D01*
X645219Y354528D01*
X645117Y355303D01*
X644817Y356025D01*
X644342Y356645D01*
X643721Y357120D01*
X642999Y357420D01*
X642224Y357522D01*
D02*
G37*
G36*
X611811Y354470D02*
X611036Y354368D01*
X610314Y354069D01*
X609694Y353593D01*
X609218Y352973D01*
X608919Y352251D01*
X608817Y351476D01*
X608919Y350701D01*
X609218Y349979D01*
X609694Y349359D01*
X610314Y348883D01*
X611036Y348584D01*
X611811Y348482D01*
X612586Y348584D01*
X613308Y348883D01*
X613928Y349359D01*
X614404Y349979D01*
X614703Y350701D01*
X614805Y351476D01*
X614703Y352251D01*
X614404Y352973D01*
X613928Y353593D01*
X613308Y354069D01*
X612586Y354368D01*
X611811Y354470D01*
D02*
G37*
G36*
X603887Y347629D02*
X603112Y347527D01*
X602390Y347228D01*
X601770Y346752D01*
X601294Y346132D01*
X600995Y345410D01*
X600893Y344635D01*
X600995Y343860D01*
X601294Y343138D01*
X601770Y342518D01*
X602390Y342042D01*
X603112Y341743D01*
X603887Y341641D01*
X604662Y341743D01*
X605384Y342042D01*
X606004Y342518D01*
X606480Y343138D01*
X606779Y343860D01*
X606881Y344635D01*
X606779Y345410D01*
X606480Y346132D01*
X606004Y346752D01*
X605384Y347228D01*
X604662Y347527D01*
X603887Y347629D01*
D02*
G37*
G36*
X618602Y327896D02*
X617827Y327794D01*
X617105Y327495D01*
X616485Y327019D01*
X616009Y326399D01*
X615710Y325676D01*
X615608Y324902D01*
X615710Y324127D01*
X616009Y323405D01*
X616485Y322784D01*
X617105Y322309D01*
X617827Y322009D01*
X618602Y321907D01*
X619377Y322009D01*
X620099Y322309D01*
X620719Y322784D01*
X621195Y323405D01*
X621494Y324127D01*
X621596Y324902D01*
X621494Y325676D01*
X621195Y326399D01*
X620719Y327019D01*
X620099Y327495D01*
X619377Y327794D01*
X618602Y327896D01*
D02*
G37*
G36*
X684252Y363346D02*
X682943Y363174D01*
X681722Y362669D01*
X680675Y361865D01*
X679871Y360817D01*
X679365Y359597D01*
X679193Y358287D01*
X679365Y356978D01*
X679871Y355758D01*
X680675Y354710D01*
X681722Y353906D01*
X682563Y353558D01*
Y353017D01*
X681722Y352669D01*
X680675Y351865D01*
X679871Y350817D01*
X679365Y349597D01*
X679193Y348287D01*
X679365Y346978D01*
X679871Y345758D01*
X680675Y344710D01*
X681722Y343906D01*
X682539Y343568D01*
Y343027D01*
X681722Y342688D01*
X680675Y341884D01*
X679871Y340837D01*
X679365Y339616D01*
X679193Y338307D01*
X679365Y336998D01*
X679871Y335778D01*
X680675Y334730D01*
X681722Y333926D01*
X682563Y333578D01*
Y333036D01*
X681722Y332688D01*
X680675Y331884D01*
X679871Y330837D01*
X679365Y329616D01*
X679193Y328307D01*
X679365Y326998D01*
X679871Y325778D01*
X680675Y324730D01*
X681722Y323926D01*
X681971Y323823D01*
X681872Y323323D01*
X679236D01*
Y313291D01*
X689268D01*
Y323323D01*
X686632D01*
X686533Y323823D01*
X686782Y323926D01*
X687829Y324730D01*
X688633Y325778D01*
X689139Y326998D01*
X689311Y328307D01*
X689139Y329616D01*
X688633Y330837D01*
X687829Y331884D01*
X686782Y332688D01*
X685941Y333036D01*
Y333578D01*
X686782Y333926D01*
X687829Y334730D01*
X688633Y335778D01*
X689139Y336998D01*
X689311Y338307D01*
X689139Y339616D01*
X688633Y340837D01*
X687829Y341884D01*
X686782Y342688D01*
X685965Y343027D01*
Y343568D01*
X686782Y343906D01*
X687829Y344710D01*
X688633Y345758D01*
X689139Y346978D01*
X689311Y348287D01*
X689139Y349597D01*
X688633Y350817D01*
X687829Y351865D01*
X686782Y352669D01*
X685941Y353017D01*
Y353558D01*
X686782Y353906D01*
X687829Y354710D01*
X688633Y355758D01*
X689139Y356978D01*
X689311Y358287D01*
X689139Y359597D01*
X688633Y360817D01*
X687829Y361865D01*
X686782Y362669D01*
X685561Y363174D01*
X684252Y363346D01*
D02*
G37*
G36*
X625098Y315888D02*
X624324Y315786D01*
X623601Y315487D01*
X622981Y315011D01*
X622506Y314391D01*
X622206Y313669D01*
X622104Y312894D01*
X622206Y312119D01*
X622506Y311397D01*
X622981Y310776D01*
X623601Y310301D01*
X624324Y310002D01*
X625098Y309900D01*
X625873Y310002D01*
X626595Y310301D01*
X627216Y310776D01*
X627691Y311397D01*
X627990Y312119D01*
X628093Y312894D01*
X627990Y313669D01*
X627691Y314391D01*
X627216Y315011D01*
X626595Y315487D01*
X625873Y315786D01*
X625098Y315888D01*
D02*
G37*
G36*
X648089Y309492D02*
X647314Y309390D01*
X646592Y309091D01*
X645972Y308615D01*
X645496Y307995D01*
X645197Y307273D01*
X645095Y306498D01*
X645197Y305723D01*
X645496Y305001D01*
X645972Y304380D01*
X646592Y303905D01*
X647314Y303606D01*
X648089Y303503D01*
X648864Y303606D01*
X649586Y303905D01*
X650206Y304380D01*
X650682Y305001D01*
X650981Y305723D01*
X651083Y306498D01*
X650981Y307273D01*
X650682Y307995D01*
X650206Y308615D01*
X649586Y309091D01*
X648864Y309390D01*
X648089Y309492D01*
D02*
G37*
G36*
X616240Y305652D02*
X615465Y305550D01*
X614743Y305251D01*
X614123Y304775D01*
X613647Y304154D01*
X613348Y303432D01*
X613246Y302658D01*
X613348Y301883D01*
X613647Y301160D01*
X614123Y300540D01*
X614743Y300064D01*
X615465Y299765D01*
X616240Y299663D01*
X617015Y299765D01*
X617737Y300064D01*
X618357Y300540D01*
X618833Y301160D01*
X619132Y301883D01*
X619234Y302658D01*
X619132Y303432D01*
X618833Y304154D01*
X618357Y304775D01*
X617737Y305251D01*
X617015Y305550D01*
X616240Y305652D01*
D02*
G37*
G36*
X684154Y307795D02*
X682844Y307623D01*
X681624Y307118D01*
X680576Y306313D01*
X679772Y305266D01*
X679267Y304046D01*
X679095Y302736D01*
X679267Y301427D01*
X679772Y300207D01*
X680576Y299159D01*
X681624Y298355D01*
X682844Y297850D01*
X684154Y297677D01*
X685463Y297850D01*
X686683Y298355D01*
X687731Y299159D01*
X688535Y300207D01*
X689040Y301427D01*
X689213Y302736D01*
X689040Y304046D01*
X688535Y305266D01*
X687731Y306313D01*
X686683Y307118D01*
X685463Y307623D01*
X684154Y307795D01*
D02*
G37*
G36*
X620866Y291675D02*
X620091Y291573D01*
X619369Y291274D01*
X618749Y290798D01*
X618273Y290178D01*
X617974Y289456D01*
X617872Y288681D01*
X617974Y287906D01*
X618273Y287184D01*
X618749Y286564D01*
X619369Y286088D01*
X620091Y285789D01*
X620866Y285687D01*
X621641Y285789D01*
X622363Y286088D01*
X622983Y286564D01*
X623459Y287184D01*
X623758Y287906D01*
X623860Y288681D01*
X623758Y289456D01*
X623459Y290178D01*
X622983Y290798D01*
X622363Y291274D01*
X621641Y291573D01*
X620866Y291675D01*
D02*
G37*
G36*
X641142Y290593D02*
X640367Y290491D01*
X639645Y290191D01*
X639025Y289716D01*
X638549Y289095D01*
X638250Y288373D01*
X638148Y287598D01*
X638250Y286824D01*
X638549Y286101D01*
X639025Y285481D01*
X639645Y285005D01*
X640367Y284706D01*
X641142Y284604D01*
X641917Y284706D01*
X642639Y285005D01*
X643259Y285481D01*
X643735Y286101D01*
X644034Y286824D01*
X644136Y287598D01*
X644034Y288373D01*
X643735Y289095D01*
X643259Y289716D01*
X642639Y290191D01*
X641917Y290491D01*
X641142Y290593D01*
D02*
G37*
G36*
X606693Y287640D02*
X605918Y287538D01*
X605196Y287239D01*
X604576Y286763D01*
X604100Y286143D01*
X603801Y285421D01*
X603699Y284646D01*
X603801Y283871D01*
X604100Y283149D01*
X604576Y282528D01*
X605196Y282053D01*
X605918Y281754D01*
X606693Y281651D01*
X607468Y281754D01*
X608190Y282053D01*
X608810Y282528D01*
X609286Y283149D01*
X609585Y283871D01*
X609687Y284646D01*
X609585Y285421D01*
X609286Y286143D01*
X608810Y286763D01*
X608190Y287239D01*
X607468Y287538D01*
X606693Y287640D01*
D02*
G37*
G36*
X613779Y285081D02*
X613005Y284979D01*
X612283Y284680D01*
X611662Y284204D01*
X611187Y283584D01*
X610887Y282861D01*
X610785Y282087D01*
X610887Y281312D01*
X611187Y280590D01*
X611662Y279970D01*
X612283Y279494D01*
X613005Y279194D01*
X613779Y279093D01*
X614555Y279194D01*
X615277Y279494D01*
X615897Y279970D01*
X616372Y280590D01*
X616672Y281312D01*
X616774Y282087D01*
X616672Y282861D01*
X616372Y283584D01*
X615897Y284204D01*
X615277Y284680D01*
X614555Y284979D01*
X613779Y285081D01*
D02*
G37*
G36*
X667224Y270907D02*
X666449Y270806D01*
X665727Y270506D01*
X665107Y270030D01*
X664631Y269410D01*
X664332Y268688D01*
X664230Y267913D01*
X664332Y267138D01*
X664631Y266416D01*
X665107Y265796D01*
X665727Y265320D01*
X666449Y265021D01*
X667224Y264919D01*
X667999Y265021D01*
X668721Y265320D01*
X669342Y265796D01*
X669817Y266416D01*
X670117Y267138D01*
X670219Y267913D01*
X670117Y268688D01*
X669817Y269410D01*
X669342Y270030D01*
X668721Y270506D01*
X667999Y270806D01*
X667224Y270907D01*
D02*
G37*
G36*
X548524Y264116D02*
X547749Y264014D01*
X547027Y263715D01*
X546407Y263239D01*
X545931Y262619D01*
X545632Y261897D01*
X545530Y261122D01*
X545632Y260347D01*
X545931Y259625D01*
X546407Y259005D01*
X547027Y258529D01*
X547749Y258230D01*
X548524Y258128D01*
X549299Y258230D01*
X550021Y258529D01*
X550641Y259005D01*
X551117Y259625D01*
X551416Y260347D01*
X551518Y261122D01*
X551416Y261897D01*
X551117Y262619D01*
X550641Y263239D01*
X550021Y263715D01*
X549299Y264014D01*
X548524Y264116D01*
D02*
G37*
G36*
X575492Y262935D02*
X574717Y262833D01*
X573995Y262534D01*
X573375Y262058D01*
X572899Y261438D01*
X572600Y260716D01*
X572498Y259941D01*
X572600Y259166D01*
X572899Y258444D01*
X573375Y257824D01*
X573995Y257348D01*
X574717Y257049D01*
X575492Y256947D01*
X576267Y257049D01*
X576989Y257348D01*
X577609Y257824D01*
X578085Y258444D01*
X578384Y259166D01*
X578486Y259941D01*
X578384Y260716D01*
X578085Y261438D01*
X577609Y262058D01*
X576989Y262534D01*
X576267Y262833D01*
X575492Y262935D01*
D02*
G37*
G36*
X583198Y258223D02*
X582423Y258121D01*
X581701Y257822D01*
X581081Y257346D01*
X580605Y256726D01*
X580306Y256004D01*
X580204Y255229D01*
X580306Y254454D01*
X580605Y253732D01*
X581081Y253112D01*
X581701Y252636D01*
X582423Y252337D01*
X583198Y252235D01*
X583973Y252337D01*
X584695Y252636D01*
X585315Y253112D01*
X585791Y253732D01*
X586090Y254454D01*
X586192Y255229D01*
X586090Y256004D01*
X585791Y256726D01*
X585315Y257346D01*
X584695Y257822D01*
X583973Y258121D01*
X583198Y258223D01*
D02*
G37*
G36*
X567753Y252489D02*
X566978Y252387D01*
X566256Y252088D01*
X565635Y251613D01*
X565160Y250992D01*
X564860Y250270D01*
X564758Y249495D01*
X564860Y248721D01*
X565160Y247998D01*
X565635Y247378D01*
X566256Y246902D01*
X566978Y246603D01*
X567753Y246501D01*
X568528Y246603D01*
X569250Y246902D01*
X569870Y247378D01*
X570346Y247998D01*
X570645Y248721D01*
X570747Y249495D01*
X570645Y250270D01*
X570346Y250992D01*
X569870Y251613D01*
X569250Y252088D01*
X568528Y252387D01*
X567753Y252489D01*
D02*
G37*
G36*
X587500Y251715D02*
X586725Y251613D01*
X586003Y251313D01*
X585383Y250838D01*
X584907Y250218D01*
X584608Y249495D01*
X584506Y248721D01*
X584608Y247945D01*
X584907Y247223D01*
X585383Y246603D01*
X586003Y246128D01*
X586725Y245828D01*
X587500Y245726D01*
X588275Y245828D01*
X588997Y246128D01*
X589617Y246603D01*
X590093Y247223D01*
X590392Y247945D01*
X590494Y248721D01*
X590392Y249495D01*
X590093Y250218D01*
X589617Y250838D01*
X588997Y251313D01*
X588275Y251613D01*
X587500Y251715D01*
D02*
G37*
G36*
X579556Y251333D02*
X578781Y251231D01*
X578059Y250932D01*
X577439Y250456D01*
X576963Y249836D01*
X576664Y249114D01*
X576562Y248339D01*
X576664Y247564D01*
X576963Y246842D01*
X577439Y246222D01*
X578059Y245746D01*
X578781Y245447D01*
X579556Y245345D01*
X580331Y245447D01*
X581053Y245746D01*
X581673Y246222D01*
X582149Y246842D01*
X582448Y247564D01*
X582550Y248339D01*
X582448Y249114D01*
X582149Y249836D01*
X581673Y250456D01*
X581053Y250932D01*
X580331Y251231D01*
X579556Y251333D01*
D02*
G37*
G36*
X524360Y247728D02*
X523585Y247626D01*
X522863Y247327D01*
X522243Y246851D01*
X521767Y246231D01*
X521468Y245509D01*
X521366Y244734D01*
X521468Y243959D01*
X521767Y243237D01*
X522243Y242617D01*
X522863Y242141D01*
X523585Y241842D01*
X524360Y241740D01*
X525135Y241842D01*
X525857Y242141D01*
X526477Y242617D01*
X526953Y243237D01*
X527252Y243959D01*
X527354Y244734D01*
X527252Y245509D01*
X526953Y246231D01*
X526477Y246851D01*
X525857Y247327D01*
X525135Y247626D01*
X524360Y247728D01*
D02*
G37*
G36*
X552067Y247482D02*
X551292Y247380D01*
X550570Y247081D01*
X549950Y246605D01*
X549474Y245985D01*
X549175Y245263D01*
X549073Y244488D01*
X549175Y243713D01*
X549474Y242991D01*
X549950Y242371D01*
X550570Y241895D01*
X551292Y241596D01*
X552067Y241494D01*
X552842Y241596D01*
X553564Y241895D01*
X554184Y242371D01*
X554660Y242991D01*
X554959Y243713D01*
X555061Y244488D01*
X554959Y245263D01*
X554660Y245985D01*
X554184Y246605D01*
X553564Y247081D01*
X552842Y247380D01*
X552067Y247482D01*
D02*
G37*
G36*
X684154Y287736D02*
X682844Y287564D01*
X681624Y287058D01*
X680576Y286254D01*
X679772Y285207D01*
X679267Y283986D01*
X679095Y282677D01*
X679267Y281368D01*
X679772Y280148D01*
X680576Y279100D01*
X681624Y278296D01*
X682465Y277948D01*
Y277407D01*
X681624Y277058D01*
X680576Y276254D01*
X679772Y275207D01*
X679267Y273987D01*
X679095Y272677D01*
X679267Y271368D01*
X679772Y270148D01*
X680576Y269100D01*
X681624Y268296D01*
X682441Y267958D01*
Y267416D01*
X681624Y267078D01*
X680576Y266274D01*
X679772Y265226D01*
X679267Y264006D01*
X679095Y262697D01*
X679267Y261387D01*
X679772Y260167D01*
X680576Y259120D01*
X681624Y258316D01*
X682465Y257967D01*
Y257426D01*
X681624Y257078D01*
X680576Y256274D01*
X679772Y255226D01*
X679267Y254006D01*
X679095Y252697D01*
X679267Y251388D01*
X679772Y250167D01*
X680576Y249120D01*
X681624Y248316D01*
X681873Y248213D01*
X681773Y247713D01*
X679138D01*
Y237681D01*
X689169D01*
Y247713D01*
X686534D01*
X686434Y248213D01*
X686683Y248316D01*
X687731Y249120D01*
X688535Y250167D01*
X689040Y251388D01*
X689213Y252697D01*
X689040Y254006D01*
X688535Y255226D01*
X687731Y256274D01*
X686683Y257078D01*
X685843Y257426D01*
Y257967D01*
X686683Y258316D01*
X687731Y259120D01*
X688535Y260167D01*
X689040Y261387D01*
X689213Y262697D01*
X689040Y264006D01*
X688535Y265226D01*
X687731Y266274D01*
X686683Y267078D01*
X685866Y267416D01*
Y267958D01*
X686683Y268296D01*
X687731Y269100D01*
X688535Y270148D01*
X689040Y271368D01*
X689213Y272677D01*
X689040Y273987D01*
X688535Y275207D01*
X687731Y276254D01*
X686683Y277058D01*
X685843Y277407D01*
Y277948D01*
X686683Y278296D01*
X687731Y279100D01*
X688535Y280148D01*
X689040Y281368D01*
X689213Y282677D01*
X689040Y283986D01*
X688535Y285207D01*
X687731Y286254D01*
X686683Y287058D01*
X685463Y287564D01*
X684154Y287736D01*
D02*
G37*
G36*
X578150Y224943D02*
X577375Y224841D01*
X576652Y224542D01*
X576032Y224066D01*
X575557Y223446D01*
X575257Y222724D01*
X575155Y221949D01*
X575257Y221174D01*
X575557Y220452D01*
X576032Y219832D01*
X576652Y219356D01*
X577375Y219057D01*
X578150Y218955D01*
X578925Y219057D01*
X579647Y219356D01*
X580267Y219832D01*
X580743Y220452D01*
X581042Y221174D01*
X581144Y221949D01*
X581042Y222724D01*
X580743Y223446D01*
X580267Y224066D01*
X579647Y224542D01*
X578925Y224841D01*
X578150Y224943D01*
D02*
G37*
G36*
X560335Y220415D02*
X559560Y220313D01*
X558838Y220014D01*
X558217Y219538D01*
X557742Y218918D01*
X557443Y218196D01*
X557340Y217421D01*
X557355Y217314D01*
X557297Y217268D01*
X556614Y217353D01*
X556448Y217570D01*
X555828Y218046D01*
X555106Y218345D01*
X554331Y218447D01*
X553556Y218345D01*
X552834Y218046D01*
X552214Y217570D01*
X551738Y216950D01*
X551439Y216228D01*
X551337Y215453D01*
X551439Y214678D01*
X551738Y213956D01*
X552214Y213336D01*
X552834Y212860D01*
X553556Y212561D01*
X554331Y212459D01*
X555106Y212561D01*
X555828Y212860D01*
X556448Y213336D01*
X556924Y213956D01*
X557223Y214678D01*
X557325Y215453D01*
X557311Y215560D01*
X557369Y215606D01*
X558051Y215521D01*
X558217Y215304D01*
X558838Y214828D01*
X559560Y214529D01*
X560335Y214427D01*
X561110Y214529D01*
X561832Y214828D01*
X562452Y215304D01*
X562928Y215924D01*
X563227Y216646D01*
X563329Y217421D01*
X563227Y218196D01*
X562928Y218918D01*
X562452Y219538D01*
X561832Y220014D01*
X561110Y220313D01*
X560335Y220415D01*
D02*
G37*
G36*
X654823Y214411D02*
X654048Y214309D01*
X653326Y214010D01*
X652706Y213534D01*
X652230Y212914D01*
X651931Y212192D01*
X651829Y211417D01*
X651931Y210642D01*
X652230Y209920D01*
X652706Y209300D01*
X653326Y208824D01*
X654048Y208525D01*
X654823Y208423D01*
X655598Y208525D01*
X656320Y208824D01*
X656940Y209300D01*
X657416Y209920D01*
X657715Y210642D01*
X657817Y211417D01*
X657715Y212192D01*
X657416Y212914D01*
X656940Y213534D01*
X656320Y214010D01*
X655598Y214309D01*
X654823Y214411D01*
D02*
G37*
G36*
X502756Y213427D02*
X501981Y213325D01*
X501259Y213026D01*
X500639Y212550D01*
X500163Y211930D01*
X499864Y211208D01*
X499762Y210433D01*
X499864Y209658D01*
X500163Y208936D01*
X500639Y208316D01*
X501259Y207840D01*
X501981Y207541D01*
X502756Y207439D01*
X503531Y207541D01*
X504253Y207840D01*
X504873Y208316D01*
X505349Y208936D01*
X505648Y209658D01*
X505750Y210433D01*
X505648Y211208D01*
X505349Y211930D01*
X504873Y212550D01*
X504253Y213026D01*
X503531Y213325D01*
X502756Y213427D01*
D02*
G37*
G36*
X560236Y212640D02*
X559461Y212538D01*
X558739Y212239D01*
X558119Y211763D01*
X557643Y211143D01*
X557344Y210421D01*
X557242Y209646D01*
X557344Y208871D01*
X557643Y208149D01*
X558119Y207528D01*
X558739Y207053D01*
X559461Y206754D01*
X560236Y206651D01*
X561011Y206754D01*
X561733Y207053D01*
X562353Y207528D01*
X562829Y208149D01*
X563128Y208871D01*
X563230Y209646D01*
X563128Y210421D01*
X562829Y211143D01*
X562353Y211763D01*
X561733Y212239D01*
X561011Y212538D01*
X560236Y212640D01*
D02*
G37*
G36*
X538779Y211262D02*
X538005Y211160D01*
X537283Y210861D01*
X536662Y210385D01*
X536187Y209765D01*
X535887Y209043D01*
X535785Y208268D01*
X535887Y207493D01*
X536187Y206771D01*
X536662Y206151D01*
X537283Y205675D01*
X538005Y205376D01*
X538779Y205274D01*
X539555Y205376D01*
X540277Y205675D01*
X540897Y206151D01*
X540909Y206166D01*
X541432Y206026D01*
X541498Y205524D01*
X541797Y204802D01*
X542273Y204182D01*
X542893Y203706D01*
X543615Y203407D01*
X544390Y203305D01*
X545165Y203407D01*
X545887Y203706D01*
X546507Y204182D01*
X546983Y204802D01*
X547063Y204997D01*
X547604Y204999D01*
X548080Y204379D01*
X548700Y203903D01*
X549422Y203604D01*
X550197Y203502D01*
X550972Y203604D01*
X551694Y203903D01*
X552314Y204379D01*
X552790Y204999D01*
X553089Y205721D01*
X553191Y206496D01*
X553089Y207271D01*
X552790Y207993D01*
X552314Y208613D01*
X551694Y209089D01*
X550972Y209388D01*
X550197Y209490D01*
X549422Y209388D01*
X548700Y209089D01*
X548080Y208613D01*
X547604Y207993D01*
X547523Y207798D01*
X546983Y207796D01*
X546507Y208416D01*
X545887Y208892D01*
X545165Y209191D01*
X544390Y209293D01*
X543615Y209191D01*
X542893Y208892D01*
X542273Y208416D01*
X542261Y208401D01*
X541738Y208541D01*
X541672Y209043D01*
X541372Y209765D01*
X540897Y210385D01*
X540277Y210861D01*
X539555Y211160D01*
X538779Y211262D01*
D02*
G37*
G36*
X689268Y229976D02*
X679236D01*
Y219945D01*
X681872D01*
X681971Y219445D01*
X681722Y219342D01*
X680675Y218538D01*
X679871Y217490D01*
X679365Y216270D01*
X679193Y214961D01*
X679365Y213651D01*
X679871Y212431D01*
X680675Y211383D01*
X681722Y210579D01*
X682563Y210231D01*
Y209690D01*
X681722Y209342D01*
X680675Y208538D01*
X679871Y207490D01*
X679365Y206270D01*
X679193Y204961D01*
X679365Y203651D01*
X679871Y202431D01*
X680675Y201383D01*
X681722Y200579D01*
X682943Y200074D01*
X684252Y199902D01*
X685561Y200074D01*
X686782Y200579D01*
X687829Y201383D01*
X688633Y202431D01*
X689139Y203651D01*
X689311Y204961D01*
X689139Y206270D01*
X688633Y207490D01*
X687829Y208538D01*
X686782Y209342D01*
X685941Y209690D01*
Y210231D01*
X686782Y210579D01*
X687829Y211383D01*
X688633Y212431D01*
X689139Y213651D01*
X689311Y214961D01*
X689139Y216270D01*
X688633Y217490D01*
X687829Y218538D01*
X686782Y219342D01*
X686533Y219445D01*
X686632Y219945D01*
X689268D01*
Y229976D01*
D02*
G37*
G36*
X488189Y180455D02*
X487414Y180353D01*
X486692Y180054D01*
X486072Y179578D01*
X485596Y178958D01*
X485297Y178236D01*
X485195Y177461D01*
X485297Y176686D01*
X485596Y175964D01*
X486072Y175344D01*
X486692Y174868D01*
X487414Y174568D01*
X488189Y174467D01*
X488964Y174568D01*
X489686Y174868D01*
X490306Y175344D01*
X490782Y175964D01*
X491081Y176686D01*
X491183Y177461D01*
X491081Y178236D01*
X490782Y178958D01*
X490306Y179578D01*
X489686Y180054D01*
X488964Y180353D01*
X488189Y180455D01*
D02*
G37*
G36*
X660138Y164805D02*
X659363Y164703D01*
X658641Y164404D01*
X658021Y163928D01*
X657545Y163308D01*
X657246Y162586D01*
X657144Y161811D01*
X657246Y161036D01*
X657545Y160314D01*
X658021Y159694D01*
X658641Y159218D01*
X659363Y158919D01*
X660138Y158817D01*
X660913Y158919D01*
X661635Y159218D01*
X662255Y159694D01*
X662731Y160314D01*
X663030Y161036D01*
X663132Y161811D01*
X663030Y162586D01*
X662731Y163308D01*
X662255Y163928D01*
X661635Y164404D01*
X660913Y164703D01*
X660138Y164805D01*
D02*
G37*
G36*
X688874Y182890D02*
X678842D01*
Y172858D01*
X681478D01*
X681577Y172358D01*
X681329Y172255D01*
X680281Y171451D01*
X679477Y170404D01*
X678972Y169183D01*
X678799Y167874D01*
X678972Y166565D01*
X679477Y165345D01*
X680281Y164297D01*
X681329Y163493D01*
X682169Y163145D01*
Y162603D01*
X681329Y162255D01*
X680281Y161451D01*
X679477Y160404D01*
X678972Y159183D01*
X678799Y157874D01*
X678972Y156565D01*
X679477Y155344D01*
X680281Y154297D01*
X681329Y153493D01*
X682549Y152987D01*
X683858Y152815D01*
X685168Y152987D01*
X686388Y153493D01*
X687435Y154297D01*
X688239Y155344D01*
X688745Y156565D01*
X688917Y157874D01*
X688745Y159183D01*
X688239Y160404D01*
X687435Y161451D01*
X686388Y162255D01*
X685547Y162603D01*
Y163145D01*
X686388Y163493D01*
X687435Y164297D01*
X688239Y165345D01*
X688745Y166565D01*
X688917Y167874D01*
X688745Y169183D01*
X688239Y170404D01*
X687435Y171451D01*
X686388Y172255D01*
X686139Y172358D01*
X686239Y172858D01*
X688874D01*
Y182890D01*
D02*
G37*
G36*
X511614Y156636D02*
X510839Y156534D01*
X510117Y156235D01*
X509497Y155759D01*
X509021Y155139D01*
X508722Y154417D01*
X508620Y153642D01*
X508722Y152867D01*
X509021Y152145D01*
X509497Y151525D01*
X510117Y151049D01*
X510839Y150750D01*
X511614Y150648D01*
X512389Y150750D01*
X513111Y151049D01*
X513731Y151525D01*
X514207Y152145D01*
X514506Y152867D01*
X514608Y153642D01*
X514506Y154417D01*
X514207Y155139D01*
X513731Y155759D01*
X513111Y156235D01*
X512389Y156534D01*
X511614Y156636D01*
D02*
G37*
G36*
X566535Y151911D02*
X565761Y151809D01*
X565038Y151510D01*
X564418Y151034D01*
X563942Y150414D01*
X563643Y149692D01*
X563541Y148917D01*
X563643Y148142D01*
X563942Y147420D01*
X564418Y146800D01*
X565038Y146324D01*
X565761Y146025D01*
X566535Y145923D01*
X567310Y146025D01*
X568033Y146324D01*
X568653Y146800D01*
X569128Y147420D01*
X569427Y148142D01*
X569530Y148917D01*
X569427Y149692D01*
X569128Y150414D01*
X568653Y151034D01*
X568033Y151510D01*
X567310Y151809D01*
X566535Y151911D01*
D02*
G37*
G36*
X594587Y162555D02*
X592576Y162397D01*
X590616Y161926D01*
X588753Y161155D01*
X587033Y160101D01*
X585500Y158791D01*
X584190Y157258D01*
X583137Y155539D01*
X582365Y153676D01*
X581894Y151715D01*
X581736Y149705D01*
X581894Y147694D01*
X582365Y145734D01*
X583137Y143871D01*
X584190Y142151D01*
X585500Y140618D01*
X587033Y139308D01*
X588753Y138255D01*
X590616Y137483D01*
X592576Y137012D01*
X594587Y136854D01*
X596597Y137012D01*
X598558Y137483D01*
X600421Y138255D01*
X602140Y139308D01*
X603673Y140618D01*
X604983Y142151D01*
X606037Y143871D01*
X606808Y145734D01*
X607279Y147694D01*
X607437Y149705D01*
X607279Y151715D01*
X606808Y153676D01*
X606037Y155539D01*
X604983Y157258D01*
X603673Y158791D01*
X602140Y160101D01*
X600421Y161155D01*
X598558Y161926D01*
X596597Y162397D01*
X594587Y162555D01*
D02*
G37*
G36*
X516551Y133146D02*
X508646D01*
Y125240D01*
X516551D01*
Y133146D01*
D02*
G37*
G36*
X593091Y127412D02*
X592059Y127276D01*
X591097Y126878D01*
X590271Y126244D01*
X589638Y125419D01*
X589240Y124457D01*
X589104Y123425D01*
X589240Y122393D01*
X589638Y121432D01*
X590271Y120606D01*
X591097Y119973D01*
X592059Y119574D01*
X593091Y119438D01*
X594122Y119574D01*
X595084Y119973D01*
X595910Y120606D01*
X596543Y121432D01*
X596942Y122393D01*
X597077Y123425D01*
X596942Y124457D01*
X596543Y125419D01*
X595910Y126244D01*
X595084Y126878D01*
X594122Y127276D01*
X593091Y127412D01*
D02*
G37*
G36*
X583091D02*
X582059Y127276D01*
X581097Y126878D01*
X580271Y126244D01*
X579638Y125419D01*
X579240Y124457D01*
X579104Y123425D01*
X579240Y122393D01*
X579638Y121432D01*
X580271Y120606D01*
X581097Y119973D01*
X582059Y119574D01*
X583091Y119438D01*
X584122Y119574D01*
X585084Y119973D01*
X585910Y120606D01*
X586543Y121432D01*
X586942Y122393D01*
X587077Y123425D01*
X586942Y124457D01*
X586543Y125419D01*
X585910Y126244D01*
X585084Y126878D01*
X584122Y127276D01*
X583091Y127412D01*
D02*
G37*
G36*
X573091D02*
X572059Y127276D01*
X571097Y126878D01*
X570271Y126244D01*
X569638Y125419D01*
X569240Y124457D01*
X569104Y123425D01*
X569240Y122393D01*
X569638Y121432D01*
X570271Y120606D01*
X571097Y119973D01*
X572059Y119574D01*
X573091Y119438D01*
X574122Y119574D01*
X575084Y119973D01*
X575910Y120606D01*
X576543Y121432D01*
X576942Y122393D01*
X577077Y123425D01*
X576942Y124457D01*
X576543Y125419D01*
X575910Y126244D01*
X575084Y126878D01*
X574122Y127276D01*
X573091Y127412D01*
D02*
G37*
G36*
X563091D02*
X562059Y127276D01*
X561097Y126878D01*
X560271Y126244D01*
X559638Y125419D01*
X559239Y124457D01*
X559104Y123425D01*
X559239Y122393D01*
X559638Y121432D01*
X560271Y120606D01*
X561097Y119973D01*
X562059Y119574D01*
X563091Y119438D01*
X564122Y119574D01*
X565084Y119973D01*
X565910Y120606D01*
X566543Y121432D01*
X566942Y122393D01*
X567077Y123425D01*
X566942Y124457D01*
X566543Y125419D01*
X565910Y126244D01*
X565084Y126878D01*
X564122Y127276D01*
X563091Y127412D01*
D02*
G37*
G36*
X553091D02*
X552059Y127276D01*
X551097Y126878D01*
X550271Y126244D01*
X549638Y125419D01*
X549239Y124457D01*
X549104Y123425D01*
X549239Y122393D01*
X549638Y121432D01*
X550271Y120606D01*
X551097Y119973D01*
X552059Y119574D01*
X553091Y119438D01*
X554122Y119574D01*
X555084Y119973D01*
X555910Y120606D01*
X556543Y121432D01*
X556942Y122393D01*
X557077Y123425D01*
X556942Y124457D01*
X556543Y125419D01*
X555910Y126244D01*
X555084Y126878D01*
X554122Y127276D01*
X553091Y127412D01*
D02*
G37*
G36*
X543091D02*
X542059Y127276D01*
X541097Y126878D01*
X540271Y126244D01*
X539638Y125419D01*
X539240Y124457D01*
X539104Y123425D01*
X539240Y122393D01*
X539638Y121432D01*
X540271Y120606D01*
X541097Y119973D01*
X542059Y119574D01*
X543091Y119438D01*
X544122Y119574D01*
X545084Y119973D01*
X545910Y120606D01*
X546543Y121432D01*
X546942Y122393D01*
X547077Y123425D01*
X546942Y124457D01*
X546543Y125419D01*
X545910Y126244D01*
X545084Y126878D01*
X544122Y127276D01*
X543091Y127412D01*
D02*
G37*
G36*
X533091D02*
X532059Y127276D01*
X531097Y126878D01*
X530271Y126244D01*
X529638Y125419D01*
X529240Y124457D01*
X529104Y123425D01*
X529240Y122393D01*
X529638Y121432D01*
X530271Y120606D01*
X531097Y119973D01*
X532059Y119574D01*
X533091Y119438D01*
X534122Y119574D01*
X535084Y119973D01*
X535910Y120606D01*
X536543Y121432D01*
X536942Y122393D01*
X537077Y123425D01*
X536942Y124457D01*
X536543Y125419D01*
X535910Y126244D01*
X535084Y126878D01*
X534122Y127276D01*
X533091Y127412D01*
D02*
G37*
G36*
X688874Y136669D02*
X678842D01*
Y126638D01*
X681478D01*
X681577Y126138D01*
X681329Y126035D01*
X680281Y125231D01*
X679477Y124183D01*
X678972Y122963D01*
X678799Y121653D01*
X678972Y120344D01*
X679477Y119124D01*
X680281Y118076D01*
X681329Y117272D01*
X682549Y116767D01*
X683858Y116595D01*
X685168Y116767D01*
X686388Y117272D01*
X687435Y118076D01*
X688239Y119124D01*
X688745Y120344D01*
X688917Y121653D01*
X688745Y122963D01*
X688239Y124183D01*
X687435Y125231D01*
X686388Y126035D01*
X686139Y126138D01*
X686239Y126638D01*
X688874D01*
Y136669D01*
D02*
G37*
G36*
X512598Y123180D02*
X511567Y123044D01*
X510605Y122646D01*
X509779Y122012D01*
X509146Y121186D01*
X508747Y120225D01*
X508612Y119193D01*
X508747Y118161D01*
X509146Y117200D01*
X509779Y116374D01*
X510605Y115740D01*
X511567Y115342D01*
X512598Y115206D01*
X513630Y115342D01*
X514592Y115740D01*
X515418Y116374D01*
X516051Y117200D01*
X516449Y118161D01*
X516585Y119193D01*
X516449Y120225D01*
X516051Y121186D01*
X515418Y122012D01*
X514592Y122646D01*
X513630Y123044D01*
X512598Y123180D01*
D02*
G37*
G36*
X502953Y120120D02*
X502178Y120018D01*
X501456Y119719D01*
X500836Y119243D01*
X500360Y118623D01*
X500061Y117901D01*
X499959Y117126D01*
X500061Y116351D01*
X500360Y115629D01*
X500836Y115009D01*
X501456Y114533D01*
X502178Y114234D01*
X502953Y114132D01*
X503728Y114234D01*
X504450Y114533D01*
X505070Y115009D01*
X505546Y115629D01*
X505845Y116351D01*
X505947Y117126D01*
X505845Y117901D01*
X505546Y118623D01*
X505070Y119243D01*
X504450Y119719D01*
X503728Y120018D01*
X502953Y120120D01*
D02*
G37*
G36*
X537043Y117378D02*
X529138D01*
Y109473D01*
X537043D01*
Y117378D01*
D02*
G37*
G36*
X593091Y117412D02*
X592059Y117276D01*
X591097Y116878D01*
X590271Y116244D01*
X589638Y115419D01*
X589240Y114457D01*
X589104Y113425D01*
X589240Y112393D01*
X589638Y111432D01*
X590271Y110606D01*
X591097Y109973D01*
X592059Y109574D01*
X593091Y109438D01*
X594122Y109574D01*
X595084Y109973D01*
X595910Y110606D01*
X596543Y111432D01*
X596942Y112393D01*
X597077Y113425D01*
X596942Y114457D01*
X596543Y115419D01*
X595910Y116244D01*
X595084Y116878D01*
X594122Y117276D01*
X593091Y117412D01*
D02*
G37*
G36*
X583091D02*
X582059Y117276D01*
X581097Y116878D01*
X580271Y116244D01*
X579638Y115419D01*
X579240Y114457D01*
X579104Y113425D01*
X579240Y112393D01*
X579638Y111432D01*
X580271Y110606D01*
X581097Y109973D01*
X582059Y109574D01*
X583091Y109438D01*
X584122Y109574D01*
X585084Y109973D01*
X585910Y110606D01*
X586543Y111432D01*
X586942Y112393D01*
X587077Y113425D01*
X586942Y114457D01*
X586543Y115419D01*
X585910Y116244D01*
X585084Y116878D01*
X584122Y117276D01*
X583091Y117412D01*
D02*
G37*
G36*
X563091D02*
X562059Y117276D01*
X561097Y116878D01*
X560271Y116244D01*
X559638Y115419D01*
X559239Y114457D01*
X559104Y113425D01*
X559239Y112393D01*
X559638Y111432D01*
X560271Y110606D01*
X561097Y109973D01*
X562059Y109574D01*
X563091Y109438D01*
X564122Y109574D01*
X565084Y109973D01*
X565910Y110606D01*
X566543Y111432D01*
X566942Y112393D01*
X567077Y113425D01*
X566942Y114457D01*
X566543Y115419D01*
X565910Y116244D01*
X565084Y116878D01*
X564122Y117276D01*
X563091Y117412D01*
D02*
G37*
G36*
X553091D02*
X552059Y117276D01*
X551097Y116878D01*
X550271Y116244D01*
X549638Y115419D01*
X549239Y114457D01*
X549104Y113425D01*
X549239Y112393D01*
X549638Y111432D01*
X550271Y110606D01*
X551097Y109973D01*
X552059Y109574D01*
X553091Y109438D01*
X554122Y109574D01*
X555084Y109973D01*
X555910Y110606D01*
X556543Y111432D01*
X556942Y112393D01*
X557077Y113425D01*
X556942Y114457D01*
X556543Y115419D01*
X555910Y116244D01*
X555084Y116878D01*
X554122Y117276D01*
X553091Y117412D01*
D02*
G37*
G36*
X543091D02*
X542059Y117276D01*
X541097Y116878D01*
X540271Y116244D01*
X539638Y115419D01*
X539240Y114457D01*
X539104Y113425D01*
X539240Y112393D01*
X539638Y111432D01*
X540271Y110606D01*
X541097Y109973D01*
X542059Y109574D01*
X543091Y109438D01*
X544122Y109574D01*
X545084Y109973D01*
X545910Y110606D01*
X546543Y111432D01*
X546942Y112393D01*
X547077Y113425D01*
X546942Y114457D01*
X546543Y115419D01*
X545910Y116244D01*
X545084Y116878D01*
X544122Y117276D01*
X543091Y117412D01*
D02*
G37*
G36*
X659646Y115100D02*
X658871Y114998D01*
X658149Y114699D01*
X657528Y114224D01*
X657053Y113603D01*
X656754Y112881D01*
X656652Y112106D01*
X656754Y111331D01*
X657053Y110609D01*
X657528Y109989D01*
X658149Y109513D01*
X658871Y109214D01*
X659646Y109112D01*
X660421Y109214D01*
X661143Y109513D01*
X661763Y109989D01*
X662239Y110609D01*
X662538Y111331D01*
X662640Y112106D01*
X662538Y112881D01*
X662239Y113603D01*
X661763Y114224D01*
X661143Y114699D01*
X660421Y114998D01*
X659646Y115100D01*
D02*
G37*
%LPD*%
D86*
X265256Y150886D02*
X282283D01*
X298917Y350886D02*
Y365175D01*
X299384Y365642D01*
X350886Y414370D02*
X358661Y406595D01*
Y341339D02*
Y406595D01*
X358366Y341043D02*
X358661Y341339D01*
X358366Y305217D02*
Y341043D01*
X358071Y304921D02*
X358366Y305217D01*
X351673Y305020D02*
X351722Y304971D01*
X358022D02*
X358071Y304921D01*
X357923Y304774D02*
X358071Y304921D01*
X357923Y269636D02*
Y304774D01*
X357776Y269488D02*
X357923Y269636D01*
X354724Y240846D02*
X358366Y237205D01*
Y205512D02*
Y237205D01*
X147441Y268701D02*
X265256Y150886D01*
X143256Y268701D02*
X147441D01*
X177559Y246161D02*
X209646Y214075D01*
X177559Y246161D02*
Y282283D01*
X299384Y365642D02*
Y376254D01*
X314701Y391571D01*
X358661Y341339D02*
X405807D01*
X440158Y306988D01*
X442224Y227461D02*
Y244193D01*
X440453Y283661D02*
X442224Y281890D01*
X440453Y283883D02*
Y284646D01*
X440158Y284941D02*
X440453Y284646D01*
Y283661D02*
Y283883D01*
X442224Y244193D02*
Y281890D01*
X440158Y284941D02*
Y306988D01*
X282152Y382874D02*
X299384Y365642D01*
X267520Y382874D02*
X282152D01*
X253839Y393996D02*
X256398D01*
X267520Y382874D01*
X178051Y344193D02*
X235925D01*
X236122Y344390D01*
X116831Y365354D02*
X118602Y367126D01*
D87*
X659633Y436417D02*
X664567D01*
X584858Y365665D02*
X588881D01*
X538878Y319685D02*
X584858Y365665D01*
X538878Y269488D02*
Y319685D01*
X588881Y365665D02*
X659633Y436417D01*
X533858Y345168D02*
X559154Y370464D01*
X533858Y273130D02*
Y345168D01*
X529724Y277362D02*
Y330118D01*
X506988Y352854D02*
X529724Y330118D01*
X525591Y281398D02*
Y315650D01*
X425000Y416240D02*
X525591Y315650D01*
X425000Y416240D02*
Y434842D01*
X559154Y400886D02*
X586516Y428248D01*
X559154Y370464D02*
Y400886D01*
X586516Y428248D02*
Y433366D01*
X506988Y352854D02*
Y427854D01*
D91*
X153595Y293358D02*
X187303Y293358D01*
X144449Y284213D02*
X153595Y293358D01*
X118012Y284213D02*
X144449D01*
D97*
X118815Y418500D02*
D03*
X190342D02*
D03*
X118602Y367126D02*
D03*
D100*
X573091Y113425D02*
D03*
X512598Y109193D02*
D03*
X321024Y492224D02*
D03*
D103*
X171949Y490289D02*
D03*
X270079Y479921D02*
D03*
X424508Y369193D02*
D03*
X552461Y370965D02*
D03*
X345000Y424563D02*
D03*
X294193Y488189D02*
D03*
D104*
X151500Y486685D02*
D03*
X121500D02*
D03*
D106*
X630512Y439961D02*
D03*
X625512Y429961D02*
D03*
X550197Y439567D02*
D03*
X545197Y429567D02*
D03*
X469488Y439567D02*
D03*
X464488Y429567D02*
D03*
X388386Y439961D02*
D03*
X383386Y429961D02*
D03*
D107*
X645512D02*
D03*
X565197Y429567D02*
D03*
X484488D02*
D03*
X403386Y429961D02*
D03*
D109*
X440650Y369587D02*
D03*
X566535Y371260D02*
D03*
D110*
X118012Y284213D02*
D03*
X684252Y194980D02*
D03*
X683858Y147894D02*
D03*
X684252Y392776D02*
D03*
X683858Y111653D02*
D03*
X684154Y292697D02*
D03*
X684252Y368307D02*
D03*
D114*
X659547Y266437D02*
D03*
X507480Y187795D02*
D03*
X620866Y254429D02*
D03*
X638484Y107874D02*
D03*
X621457Y128051D02*
D03*
X474114Y170177D02*
D03*
X596850Y383661D02*
D03*
X616535Y385433D02*
D03*
X628642Y253839D02*
D03*
X282283Y150591D02*
D03*
X538878Y269488D02*
D03*
X298917Y350886D02*
D03*
X357776Y269488D02*
D03*
X358366Y205512D02*
D03*
X209646Y214075D02*
D03*
X143256Y268701D02*
D03*
X314701Y391571D02*
D03*
X358661Y341339D02*
D03*
X442224Y227461D02*
D03*
X440453Y283883D02*
D03*
X442224Y244193D02*
D03*
X440158Y306988D02*
D03*
X358071Y304921D02*
D03*
X354724Y240846D02*
D03*
X253839Y393996D02*
D03*
X350886Y414370D02*
D03*
X236122Y344390D02*
D03*
X178051Y344193D02*
D03*
X177559Y282283D02*
D03*
X533858Y273130D02*
D03*
X529724Y277362D02*
D03*
X525591Y281398D02*
D03*
X234006Y427362D02*
D03*
X631348Y168848D02*
D03*
X459350Y412697D02*
D03*
X302165Y443209D02*
D03*
X563091Y265256D02*
D03*
X580807Y187992D02*
D03*
X540059Y236910D02*
D03*
X631004Y326279D02*
D03*
X660236Y155512D02*
D03*
X270571Y420177D02*
D03*
X481201Y125787D02*
D03*
X517815Y273425D02*
D03*
X368307Y420768D02*
D03*
X645866Y393110D02*
D03*
X622146Y406791D02*
D03*
X605020Y337205D02*
D03*
X664764Y308465D02*
D03*
X608268Y235827D02*
D03*
X618602Y174803D02*
D03*
X571260Y177657D02*
D03*
X664075Y436614D02*
D03*
X337205Y458858D02*
D03*
X601673Y300394D02*
D03*
X654331Y220866D02*
D03*
X586516Y433366D02*
D03*
X506988Y427854D02*
D03*
X425000Y434842D02*
D03*
X280315Y451968D02*
D03*
X458858Y374606D02*
D03*
X590650Y318209D02*
D03*
X524114Y413976D02*
D03*
X590650Y418405D02*
D03*
X661713Y193701D02*
D03*
X525197Y373671D02*
D03*
X267520Y382874D02*
D03*
X299384Y365642D02*
D03*
X623721Y207972D02*
D03*
X530315Y167126D02*
D03*
X643504Y319587D02*
D03*
X635335Y240059D02*
D03*
X661614Y343307D02*
D03*
X351673Y305020D02*
D03*
X264173Y459842D02*
D03*
X250098Y412697D02*
D03*
D115*
X192421Y293358D02*
D03*
X197539Y293307D02*
D03*
X202559Y293358D02*
D03*
X187303D02*
D03*
X187205Y288189D02*
D03*
X192323D02*
D03*
X197539Y288287D02*
D03*
X202559D02*
D03*
X207579Y288189D02*
D03*
X207677Y293358D02*
D03*
X207776Y298327D02*
D03*
X202658Y298327D02*
D03*
X197539Y298374D02*
D03*
X192520Y298327D02*
D03*
X187402D02*
D03*
D116*
X383268Y413583D02*
D03*
X656398Y139272D02*
D03*
X395374Y375394D02*
D03*
M02*
