M48
;Layer_Color=9474304
;FILE_FORMAT=2:4
INCH,LZ
;TYPE=PLATED
T1F00S00C0.0157
T2F00S00C0.0197
T3F00S00C0.0236
T4F00S00C0.0295
T5F00S00C0.0299
T6F00S00C0.0335
T7F00S00C0.0354
T8F00S00C0.0394
T9F00S00C0.0512
T10F00S00C0.0535
T11F00S00C0.0906
T12F00S00C0.1260
;TYPE=NON_PLATED
T13F00S00C0.1280
%
T01
X01872Y028819
X019232
X019242Y029336
X019252Y029833
X019754Y029837
X019754Y029331
Y028829
X020256
X020256Y029336
X020266Y029833
X020778Y029833
X020768Y029336
X020758Y028819
X01873Y029336
X01874Y029833
X018848Y037618
X01935
X01935Y03814
X018848
X018337
X017825
X017825Y037618
X018337
T02
X028228Y015059
X028848Y015089
X04812Y012579
X050295Y011713
X051161Y015364
X056654Y014892
X062146Y012805
X063848Y010787
X065965Y011211
X06564Y013927
X066024Y015551
X066014Y016181
X066171Y01937
X065482Y021142
X065433Y022087
X063533Y024006
X062864Y025384
X065955Y026644
X066722Y026791
X066476Y030846
X064809Y03065
X064114Y02876
X063135Y016885
X06186Y01748
X062372Y020797
X060827Y023583
X062087Y025443
Y028868
X061378Y028209
X060669Y028465
X060167Y030039
X061624Y030266
X05832Y025523
X057956Y024834
X05875Y024872
X056775Y02495
X057549Y025994
X056309Y026526
X054852Y026112
X054331Y026565
X053888Y026949
X053386Y027313
X052972Y027736
X052559Y02814
X051782Y027343
X049537Y027264
X048789Y026545
X052436Y024473
X054006Y023691
X055207Y024449
X055433Y021545
X056033Y021742
X056024Y020965
X05502Y02065
X054439Y02063
X053878Y020827
X050276Y021043
X050748Y01878
X048819Y017746
X047411Y017018
X053032Y016713
X057126Y017766
X058081Y018799
X057815Y022195
X045896Y023051
X044222Y022746
Y024419
X044045Y028388
X044016Y030699
X035807Y030492
X035167Y030502
X037037Y028406
X035778Y026949
X035472Y024085
X034843Y024094
X035837Y020551
X035197Y017539
X034552Y017525
X036969Y015728
X028799Y021693
X028169Y021703
X028957Y028091
X029626Y0281
X028002Y030679
X017756Y028228
X020965Y021407
X014326Y02687
X017805Y034419
X018809Y035659
X023612Y034439
X028415Y034183
X029892Y035089
X029938Y036564
X026752Y038287
X025384Y0394
X02501Y04127
X027057Y042018
X029017Y040748
X029085Y044085
X030217Y044321
X028031Y045197
X026417Y045984
X023401Y042736
X022047Y042648
X022236Y040254
X022787Y0394
X028799Y031703
X02939Y031673
X037037Y032146
X035866Y034134
X035217
X037893Y03635
X040098Y036772
X039537Y037539
X039508Y038888
X039941Y040669
X039537Y04188
X038327Y041358
X036831Y042077
X035089Y041437
X033484Y039774
X03147Y039157
X03372Y045886
X0425Y043484
X042096Y042077
X044104Y042037
X045335Y041417
X045935Y04127
X046594Y038868
X04513Y038299
X044429Y038356
X045886Y037461
X049951Y035531
X05252Y037367
X052451Y03878
X052411Y041398
X053406Y0406
X050699Y042785
X057559Y042726
X058652Y043337
X059065Y041841
X058415Y041457
X058133Y038437
X057431Y038425
X059685Y038366
X059774Y039075
X061654Y038543
X062205Y036457
X061191Y035846
X061181Y035148
X060389Y034463
X060502Y03372
X06186Y03249
X059065Y031821
X058376Y035807
X062215Y040679
X064587Y039311
X065698Y039616
X064154Y037224
X064144Y036348
X064222Y035453
X066161Y034331
X06435Y031959
X0631Y032628
X06251Y031289
X066407Y043661
T03
X036988Y022254
X04812Y034931
T04
X0345Y042456
Y043244
X041663Y036919
X042451
X044065Y036959
X044852
X054459Y037096
X055246
X056654Y037126
X057441
X029419Y048032
Y048819
X027008Y04878
Y047992
X017195Y048242
Y049029
T05
X038339Y042996
X039339
X040339
X039839Y043996
X038839
X037839
X045949Y043957
X046449Y042957
X047449
X048449
X047949Y043957
X046949
X05402
X05502
X05602
X05552Y042957
X05452
X05652
X062051Y043996
X063051
X064051
X063551Y042996
X062551
X064551
T06
X018533Y014045
Y016014
X019163Y020089
X017195
X014508Y017785
X012539
X01186Y036713
X013829
X01385Y04185
X011882
X017066
X019034
T07
X044823Y011781
Y012781
X046004Y012791
Y011791
X05126Y011919
Y012919
Y010919
X053309Y011343
Y012343
X054309
Y011343
X055309
Y012343
X056309
Y011343
X057309
Y012343
X058309
Y011343
X059309
Y012343
X032102Y049222
X031102
T08
X031309Y018504
X033309
X034309
X034301Y025059
X033301
X031301
X030301
X029301
X029309Y018504
X030309
T09
X012152Y012264
Y014232
X015152
Y012264
X01515Y0467
X01215
Y048668
X01515
T10
X033504Y011929
X034504
X035504
X036502
X03815Y011968
X03915
X04015
X041148
X068386Y012165
Y013165
Y014789
Y011165
Y015787
Y016787
Y017787
X068425Y019498
Y020496
Y021496
Y022496
X068415Y02427
Y02527
Y02627
Y027268
Y028268
Y02927
Y030274
X011801Y030419
Y029419
Y028421
Y027421
Y026421
X068425Y031831
Y032831
Y033831
Y034829
Y035829
Y036831
Y037835
Y039278
Y040276
Y041276
Y042276
T11
X067067Y04752
X059291
X05126Y047717
X04315
X034622Y047693
T12
X020551Y011821
X059459Y01497
X040472Y026969
X020945Y039055
X068661Y048622
T13
X037087Y046496
X041087
X045197Y046457
X049197
X053268
X057268
X061299Y046496
X065299
M30
