G04*
G04 #@! TF.GenerationSoftware,Altium Limited,Altium Designer,19.1.5 (86)*
G04*
G04 Layer_Physical_Order=1*
G04 Layer_Color=255*
%FSLAX25Y25*%
%MOIN*%
G70*
G01*
G75*
%ADD10C,0.00787*%
%ADD13C,0.00984*%
%ADD20R,0.03937X0.04331*%
%ADD21R,0.06890X0.03937*%
%ADD22R,0.04331X0.03937*%
G04:AMPARAMS|DCode=23|XSize=80.71mil|YSize=23.23mil|CornerRadius=2.9mil|HoleSize=0mil|Usage=FLASHONLY|Rotation=180.000|XOffset=0mil|YOffset=0mil|HoleType=Round|Shape=RoundedRectangle|*
%AMROUNDEDRECTD23*
21,1,0.08071,0.01742,0,0,180.0*
21,1,0.07490,0.02323,0,0,180.0*
1,1,0.00581,-0.03745,0.00871*
1,1,0.00581,0.03745,0.00871*
1,1,0.00581,0.03745,-0.00871*
1,1,0.00581,-0.03745,-0.00871*
%
%ADD23ROUNDEDRECTD23*%
%ADD24R,0.01102X0.06142*%
%ADD25R,0.06142X0.01102*%
%ADD26R,0.05118X0.06102*%
%ADD27R,0.10433X0.06890*%
%ADD28R,0.04331X0.02559*%
%ADD29R,0.02559X0.04331*%
%ADD30R,0.27559X0.27559*%
%ADD31R,0.05906X0.09843*%
G04:AMPARAMS|DCode=32|XSize=77.56mil|YSize=23.62mil|CornerRadius=2.95mil|HoleSize=0mil|Usage=FLASHONLY|Rotation=90.000|XOffset=0mil|YOffset=0mil|HoleType=Round|Shape=RoundedRectangle|*
%AMROUNDEDRECTD32*
21,1,0.07756,0.01772,0,0,90.0*
21,1,0.07165,0.02362,0,0,90.0*
1,1,0.00591,0.00886,0.03583*
1,1,0.00591,0.00886,-0.03583*
1,1,0.00591,-0.00886,-0.03583*
1,1,0.00591,-0.00886,0.03583*
%
%ADD32ROUNDEDRECTD32*%
G04:AMPARAMS|DCode=33|XSize=57.87mil|YSize=11.02mil|CornerRadius=1.38mil|HoleSize=0mil|Usage=FLASHONLY|Rotation=90.000|XOffset=0mil|YOffset=0mil|HoleType=Round|Shape=RoundedRectangle|*
%AMROUNDEDRECTD33*
21,1,0.05787,0.00827,0,0,90.0*
21,1,0.05512,0.01102,0,0,90.0*
1,1,0.00276,0.00413,0.02756*
1,1,0.00276,0.00413,-0.02756*
1,1,0.00276,-0.00413,-0.02756*
1,1,0.00276,-0.00413,0.02756*
%
%ADD33ROUNDEDRECTD33*%
%ADD34R,0.02000X0.05200*%
G04:AMPARAMS|DCode=35|XSize=61.02mil|YSize=23.62mil|CornerRadius=2.95mil|HoleSize=0mil|Usage=FLASHONLY|Rotation=0.000|XOffset=0mil|YOffset=0mil|HoleType=Round|Shape=RoundedRectangle|*
%AMROUNDEDRECTD35*
21,1,0.06102,0.01772,0,0,0.0*
21,1,0.05512,0.02362,0,0,0.0*
1,1,0.00591,0.02756,-0.00886*
1,1,0.00591,-0.02756,-0.00886*
1,1,0.00591,-0.02756,0.00886*
1,1,0.00591,0.02756,0.00886*
%
%ADD35ROUNDEDRECTD35*%
%ADD36R,0.04300X0.07500*%
G04:AMPARAMS|DCode=37|XSize=47.64mil|YSize=22.84mil|CornerRadius=2.85mil|HoleSize=0mil|Usage=FLASHONLY|Rotation=270.000|XOffset=0mil|YOffset=0mil|HoleType=Round|Shape=RoundedRectangle|*
%AMROUNDEDRECTD37*
21,1,0.04764,0.01713,0,0,270.0*
21,1,0.04193,0.02284,0,0,270.0*
1,1,0.00571,-0.00856,-0.02097*
1,1,0.00571,-0.00856,0.02097*
1,1,0.00571,0.00856,0.02097*
1,1,0.00571,0.00856,-0.02097*
%
%ADD37ROUNDEDRECTD37*%
G04:AMPARAMS|DCode=38|XSize=111.42mil|YSize=35.43mil|CornerRadius=4.08mil|HoleSize=0mil|Usage=FLASHONLY|Rotation=90.000|XOffset=0mil|YOffset=0mil|HoleType=Round|Shape=RoundedRectangle|*
%AMROUNDEDRECTD38*
21,1,0.11142,0.02728,0,0,90.0*
21,1,0.10327,0.03543,0,0,90.0*
1,1,0.00815,0.01364,0.05163*
1,1,0.00815,0.01364,-0.05163*
1,1,0.00815,-0.01364,-0.05163*
1,1,0.00815,-0.01364,0.05163*
%
%ADD38ROUNDEDRECTD38*%
%ADD39R,0.09449X0.04134*%
%ADD40R,0.35039X0.41929*%
G04:AMPARAMS|DCode=84|XSize=221.65mil|YSize=240.16mil|CornerRadius=25.49mil|HoleSize=0mil|Usage=FLASHONLY|Rotation=0.000|XOffset=0mil|YOffset=0mil|HoleType=Round|Shape=RoundedRectangle|*
%AMROUNDEDRECTD84*
21,1,0.22165,0.18918,0,0,0.0*
21,1,0.17067,0.24016,0,0,0.0*
1,1,0.05098,0.08534,-0.09459*
1,1,0.05098,-0.08534,-0.09459*
1,1,0.05098,-0.08534,0.09459*
1,1,0.05098,0.08534,0.09459*
%
%ADD84ROUNDEDRECTD84*%
%ADD85C,0.00591*%
%ADD86C,0.01968*%
%ADD87C,0.01181*%
%ADD88C,0.01575*%
%ADD89C,0.03150*%
%ADD90C,0.02165*%
%ADD91C,0.03937*%
%ADD92C,0.01811*%
%ADD93C,0.03543*%
%ADD94C,0.23622*%
%ADD95R,0.05937X0.05937*%
%ADD96C,0.05937*%
%ADD97C,0.04724*%
%ADD98R,0.04724X0.04724*%
%ADD99R,0.05906X0.05906*%
%ADD100C,0.05906*%
%ADD101R,0.05906X0.05906*%
%ADD102R,0.04331X0.04331*%
%ADD103C,0.04331*%
%ADD104C,0.07677*%
%ADD105C,0.12795*%
%ADD106C,0.04992*%
%ADD107R,0.04992X0.04992*%
%ADD108C,0.09055*%
%ADD109R,0.04331X0.04331*%
%ADD110C,0.08032*%
%ADD111R,0.08032X0.08032*%
%ADD112R,0.08032X0.08032*%
%ADD113R,0.04724X0.04724*%
%ADD114C,0.03937*%
%ADD115C,0.03150*%
%ADD116C,0.03543*%
G36*
X307071Y488272D02*
X310288D01*
Y482931D01*
X297358D01*
Y483480D01*
X295553D01*
X295092Y483671D01*
X294193Y483790D01*
X293294Y483671D01*
X292833Y483480D01*
X291028D01*
Y481675D01*
X290837Y481214D01*
X290748Y480543D01*
X287537Y477332D01*
X287124Y476794D01*
X286865Y476168D01*
X286777Y475496D01*
Y470512D01*
X286606D01*
Y470270D01*
X283543D01*
Y470512D01*
X277606D01*
Y470270D01*
X274650D01*
Y470512D01*
X268713D01*
Y470270D01*
X266012D01*
Y470968D01*
X265443D01*
Y477508D01*
X265355Y478180D01*
X265096Y478806D01*
X264683Y479344D01*
X258480Y485547D01*
Y488008D01*
X259601Y489512D01*
X264931D01*
X265205Y489387D01*
X266604Y487795D01*
X266722Y486896D01*
X266913Y486435D01*
Y484630D01*
X268719D01*
X269179Y484439D01*
X270079Y484321D01*
X270978Y484439D01*
X271439Y484630D01*
X273244D01*
Y486435D01*
X273435Y486896D01*
X273553Y487795D01*
X273435Y488695D01*
X273244Y489155D01*
Y490961D01*
X271439D01*
X270978Y491152D01*
X270888Y491163D01*
X269964Y492458D01*
X270802Y494291D01*
X307071D01*
Y488272D01*
D02*
G37*
G36*
X176575Y483111D02*
X176575Y465945D01*
X177248Y465272D01*
Y464157D01*
X178362D01*
X178642Y463878D01*
X196162Y463878D01*
X197933Y462107D01*
X197933Y438189D01*
X143209Y383465D01*
X143209Y364173D01*
X140945Y361909D01*
X135433Y361910D01*
X133366Y363976D01*
X133366Y444291D01*
X114665Y462992D01*
X114665Y470374D01*
X118012Y473721D01*
X156496Y473721D01*
X166240Y483464D01*
X176221Y483465D01*
X176575Y483111D01*
D02*
G37*
G36*
X340455Y479919D02*
X340194Y479431D01*
X339822Y478206D01*
X339697Y476933D01*
X339822Y475660D01*
X340194Y474435D01*
X340797Y473307D01*
X341609Y472317D01*
X342598Y471506D01*
X343726Y470902D01*
X344951Y470531D01*
X346224Y470406D01*
X347498Y470531D01*
X348722Y470902D01*
X349211Y471163D01*
X371752Y448622D01*
X427051D01*
Y448213D01*
X429481D01*
Y444701D01*
X428134D01*
Y439976D01*
X428134Y438661D01*
X427058Y437770D01*
X426165Y437573D01*
X425775Y437735D01*
X425000Y437837D01*
X424225Y437735D01*
X423503Y437435D01*
X422883Y436960D01*
X422407Y436340D01*
X422108Y435617D01*
X422006Y434842D01*
X422099Y434137D01*
X421985Y433995D01*
X420397Y433055D01*
X412060Y441391D01*
X411404Y441830D01*
X410630Y441984D01*
X401240D01*
X400879Y442454D01*
X400149Y443014D01*
X399299Y443367D01*
X398386Y443487D01*
X397473Y443367D01*
X396623Y443014D01*
X395892Y442454D01*
X395332Y441724D01*
X394980Y440873D01*
X394860Y439961D01*
X394980Y439048D01*
X395332Y438198D01*
X395892Y437467D01*
X396623Y436907D01*
X397473Y436555D01*
X398386Y436434D01*
X399299Y436555D01*
X400149Y436907D01*
X400879Y437467D01*
X401240Y437937D01*
X409792D01*
X422141Y425588D01*
X420820Y424167D01*
X420164Y424605D01*
X419390Y424759D01*
X401448D01*
X396835Y429373D01*
X396912Y429961D01*
X396792Y430873D01*
X396440Y431724D01*
X395879Y432454D01*
X395149Y433014D01*
X394299Y433367D01*
X393386Y433487D01*
X392473Y433367D01*
X391623Y433014D01*
X390892Y432454D01*
X390332Y431724D01*
X389980Y430873D01*
X389860Y429961D01*
X389980Y429048D01*
X390332Y428197D01*
X390892Y427467D01*
X391623Y426907D01*
X392473Y426555D01*
X393386Y426434D01*
X393974Y426512D01*
X396632Y423853D01*
X396145Y421855D01*
X395989Y421712D01*
X395374Y421793D01*
X394599Y421691D01*
X393877Y421392D01*
X393257Y420916D01*
X393185Y420822D01*
X385681D01*
X380409Y426094D01*
Y437106D01*
X380879Y437467D01*
X381440Y438198D01*
X381792Y439048D01*
X381912Y439961D01*
X381792Y440873D01*
X381440Y441724D01*
X380879Y442454D01*
X380149Y443014D01*
X379298Y443367D01*
X378386Y443487D01*
X377473Y443367D01*
X376623Y443014D01*
X375892Y442454D01*
X375608Y442084D01*
X352524D01*
X351711Y441923D01*
X351022Y441462D01*
X345417Y435857D01*
X345000Y435912D01*
X344101Y435793D01*
X343640Y435602D01*
X341835D01*
Y434342D01*
X331276D01*
Y437482D01*
X331166Y438031D01*
X330855Y438497D01*
X330390Y438808D01*
X329840Y438917D01*
X327112D01*
X326563Y438808D01*
X326232Y438587D01*
X325902Y438808D01*
X325352Y438917D01*
X322624D01*
X322075Y438808D01*
X321609Y438497D01*
X321298Y438031D01*
X321189Y437482D01*
Y427155D01*
X320333Y425437D01*
X319997Y425031D01*
X319821Y424997D01*
X317786Y427032D01*
X317811Y427155D01*
Y437482D01*
X317702Y438031D01*
X317391Y438497D01*
X316925Y438808D01*
X316376Y438917D01*
X313648D01*
X313099Y438808D01*
X312768Y438587D01*
X312437Y438808D01*
X311888Y438917D01*
X309159D01*
X308610Y438808D01*
X308145Y438497D01*
X307834Y438031D01*
X307724Y437482D01*
Y434006D01*
X305563Y431845D01*
X300500D01*
X300305Y431819D01*
X297532D01*
Y429045D01*
X297506Y428850D01*
Y410259D01*
X295810Y408563D01*
X292931D01*
X292759Y408977D01*
X292283Y409597D01*
X291663Y410073D01*
X290941Y410372D01*
X290166Y410474D01*
X289969Y410449D01*
X287894Y412523D01*
Y415197D01*
X287894D01*
Y416760D01*
X287894D01*
Y422697D01*
X288977Y424217D01*
X289158D01*
Y428941D01*
X289158Y430547D01*
X289158Y432516D01*
Y436202D01*
X289329Y436532D01*
X290835Y437843D01*
X290871Y437856D01*
X291621Y437954D01*
X292343Y438253D01*
X292964Y438729D01*
X293439Y439349D01*
X293739Y440071D01*
X293841Y440846D01*
X293739Y441621D01*
X293443Y442334D01*
Y459382D01*
X293355Y460054D01*
X293096Y460680D01*
X292683Y461218D01*
X292543Y461358D01*
X292543Y463819D01*
X292543Y465787D01*
Y470512D01*
X291971D01*
Y474420D01*
X294421Y476870D01*
X295092Y476959D01*
X295553Y477150D01*
X297358D01*
Y478884D01*
X310484D01*
Y478532D01*
X315209D01*
X316815Y478532D01*
X318783Y478532D01*
X323508D01*
Y478532D01*
X323851Y478674D01*
X341707Y460818D01*
X341815Y460746D01*
Y459630D01*
X350705D01*
Y465567D01*
X342680D01*
X325316Y482931D01*
X324660Y483369D01*
X323886Y483523D01*
X323508D01*
Y484469D01*
X318783D01*
X317177Y484469D01*
X314334Y484469D01*
Y488272D01*
X314976D01*
Y494291D01*
X326083D01*
X340455Y479919D01*
D02*
G37*
G36*
X197130Y491126D02*
X198567D01*
Y486271D01*
X193863Y481567D01*
X185276D01*
Y475433D01*
X189722D01*
X189917Y475394D01*
X190113Y475433D01*
X196724D01*
Y478706D01*
X202021Y484002D01*
X202460Y484659D01*
X202614Y485433D01*
Y491126D01*
X203461D01*
Y492071D01*
X212355D01*
X213228Y490464D01*
Y446535D01*
X250268D01*
Y482245D01*
X252543D01*
Y481677D01*
X255004D01*
X260249Y476432D01*
Y470968D01*
X259681D01*
Y465031D01*
X266012D01*
Y465076D01*
X268713D01*
Y464181D01*
X274650D01*
Y465076D01*
X277606D01*
Y464181D01*
X283543D01*
Y464240D01*
X284971Y464624D01*
X286606Y463317D01*
X286606Y462213D01*
Y457488D01*
X288249D01*
Y443443D01*
X258888D01*
X258597Y443776D01*
Y448463D01*
X258957Y448757D01*
X260706Y449159D01*
X261205Y448674D01*
Y447819D01*
X267535D01*
Y453756D01*
X265074D01*
X263537Y455293D01*
X262999Y455706D01*
X262373Y455965D01*
X261701Y456054D01*
X258968D01*
Y456819D01*
X253031D01*
Y450488D01*
X253403D01*
Y444851D01*
X251235Y442683D01*
X245109Y436557D01*
X243225Y436782D01*
X243126Y437220D01*
X237189D01*
Y435598D01*
X230823D01*
Y437220D01*
X224886D01*
Y435523D01*
X219042Y429679D01*
X218603Y429022D01*
X218547Y428741D01*
X218355Y428593D01*
X217880Y427973D01*
X217580Y427251D01*
X217478Y426476D01*
X217580Y425701D01*
X217880Y424979D01*
X218355Y424359D01*
X218975Y423883D01*
X219697Y423584D01*
X220472Y423482D01*
X220590Y423498D01*
X225636Y418451D01*
X226293Y418013D01*
X227067Y417859D01*
X228528D01*
Y416323D01*
X233252D01*
X234858Y416323D01*
X236827Y416323D01*
X241551D01*
Y418576D01*
X241953Y418845D01*
X246997Y423889D01*
X247385Y424469D01*
X249618D01*
Y429028D01*
X244972D01*
X243933Y430996D01*
X244533Y431872D01*
X244635Y431949D01*
X245228D01*
X245781Y431720D01*
X246453Y431631D01*
X247125Y431720D01*
X247678Y431949D01*
X249618D01*
Y433721D01*
X251555Y435658D01*
X253524Y434843D01*
Y431949D01*
X258380D01*
X259396Y430380D01*
X258860Y429405D01*
X258768D01*
X257994Y429251D01*
X257717Y429066D01*
X256984D01*
X256789Y429028D01*
X253524D01*
Y424469D01*
X253524Y424469D01*
X252937Y423047D01*
X252937D01*
X252937Y422743D01*
Y417110D01*
X259268D01*
X260720Y416409D01*
Y416409D01*
X266657D01*
Y422740D01*
X266657D01*
Y424217D01*
X266657D01*
Y428941D01*
X266657Y430117D01*
X268040Y430983D01*
X268399Y431096D01*
X274158D01*
Y431096D01*
X275721D01*
Y431096D01*
X281479D01*
X281838Y430983D01*
X283221Y430117D01*
X283221Y428941D01*
Y424217D01*
X282137Y422697D01*
X281563D01*
Y416760D01*
X281563D01*
Y415197D01*
X281563D01*
Y410532D01*
X279883Y408563D01*
X220573Y408563D01*
X217275Y411861D01*
X216655Y412337D01*
X215932Y412636D01*
X215158Y412738D01*
X180654D01*
X177289Y416103D01*
X198654Y437468D01*
X198875Y437799D01*
X198953Y438189D01*
X198953Y462107D01*
X198875Y462497D01*
X198654Y462828D01*
X196883Y464599D01*
X196552Y464820D01*
X196162Y464898D01*
X180120Y464897D01*
X178323Y465260D01*
X178230Y465461D01*
X178190Y465662D01*
X178014Y465925D01*
X177594Y466828D01*
X177594Y483084D01*
X177594Y483111D01*
X177594Y483111D01*
X177517Y483501D01*
X177296Y483832D01*
X176942Y484186D01*
X176611Y484407D01*
X176598Y484409D01*
X175114Y485580D01*
Y485580D01*
X173170Y485638D01*
X172848Y485771D01*
X171949Y485890D01*
X171049Y485771D01*
X170589Y485580D01*
X168783D01*
Y484484D01*
X166240Y484484D01*
X165850Y484407D01*
X165519Y484186D01*
X156074Y474740D01*
X118012Y474740D01*
X117622Y474662D01*
X117291Y474441D01*
X113944Y471095D01*
X113723Y470764D01*
X113646Y470374D01*
X113646Y462992D01*
X113723Y462602D01*
X113944Y462271D01*
X132347Y443869D01*
X132346Y363977D01*
X132424Y363586D01*
X132645Y363256D01*
X134712Y361189D01*
X135043Y360967D01*
X135433Y360890D01*
X140945Y360890D01*
X141234Y360947D01*
X141358Y360863D01*
X142218Y359147D01*
X136221Y353150D01*
X117520D01*
X106004Y364665D01*
Y483957D01*
X116339Y494291D01*
X197130D01*
Y491126D01*
D02*
G37*
G36*
X691831Y437303D02*
Y110531D01*
X685433Y104134D01*
X578665D01*
X577911Y105953D01*
X581687Y109728D01*
X582059Y109574D01*
X583091Y109438D01*
X584122Y109574D01*
X585084Y109973D01*
X585910Y110606D01*
X586543Y111432D01*
X586942Y112393D01*
X587077Y113425D01*
X586942Y114457D01*
X586543Y115419D01*
X585910Y116244D01*
X585084Y116878D01*
X584122Y117276D01*
X583091Y117412D01*
X582059Y117276D01*
X581097Y116878D01*
X580271Y116244D01*
X579638Y115419D01*
X579240Y114457D01*
X579104Y113425D01*
X579240Y112393D01*
X579393Y112022D01*
X573226Y105854D01*
X531479D01*
X529829Y107504D01*
X530467Y109473D01*
X537043D01*
Y113644D01*
X537155Y113703D01*
X537541Y113648D01*
X539216Y112573D01*
X539240Y112393D01*
X539638Y111432D01*
X540271Y110606D01*
X541097Y109973D01*
X542059Y109574D01*
X543091Y109438D01*
X544122Y109574D01*
X545084Y109973D01*
X545910Y110606D01*
X546543Y111432D01*
X546942Y112393D01*
X547077Y113425D01*
X547049Y113640D01*
X547156Y113710D01*
X547630Y113640D01*
X549199Y112697D01*
X549239Y112393D01*
X549638Y111432D01*
X550271Y110606D01*
X551097Y109973D01*
X552059Y109574D01*
X553091Y109438D01*
X554122Y109574D01*
X555084Y109973D01*
X555910Y110606D01*
X556543Y111432D01*
X556942Y112393D01*
X557077Y113425D01*
X557049Y113640D01*
X557156Y113710D01*
X557630Y113640D01*
X559199Y112697D01*
X559239Y112393D01*
X559638Y111432D01*
X560271Y110606D01*
X561097Y109973D01*
X562059Y109574D01*
X563091Y109438D01*
X564122Y109574D01*
X565084Y109973D01*
X565910Y110606D01*
X566543Y111432D01*
X566942Y112393D01*
X567077Y113425D01*
X566942Y114457D01*
X566788Y114829D01*
X569300Y117341D01*
X569652Y117868D01*
X569775Y118488D01*
Y118506D01*
X570130Y118900D01*
X571744Y119705D01*
X572059Y119574D01*
X573091Y119438D01*
X574122Y119574D01*
X575084Y119973D01*
X575910Y120606D01*
X576543Y121432D01*
X576942Y122393D01*
X577077Y123425D01*
X576942Y124457D01*
X576543Y125419D01*
X575910Y126244D01*
X575084Y126878D01*
X574122Y127276D01*
X573133Y127406D01*
X573032Y127538D01*
X572227Y129284D01*
X575211Y132268D01*
X578854D01*
Y138598D01*
X578854D01*
Y138961D01*
X578854D01*
Y145291D01*
X577307D01*
Y183839D01*
X577199Y184382D01*
X576891Y184843D01*
X572427Y189307D01*
X573180Y191126D01*
X576098D01*
Y197063D01*
X576098D01*
X576098Y198114D01*
X576098D01*
Y204051D01*
X575539D01*
Y207616D01*
X575906Y207928D01*
X577393Y208546D01*
X596215Y189724D01*
Y169882D01*
X596331Y169300D01*
X596661Y168806D01*
X613144Y152323D01*
Y145291D01*
X611500D01*
Y139756D01*
X611500Y139354D01*
X611500Y139354D01*
X611795Y137909D01*
X611795D01*
Y131579D01*
X617732D01*
Y137577D01*
X617855Y138049D01*
X618996Y139354D01*
X619799Y139354D01*
X624524D01*
Y139354D01*
X626067Y139157D01*
Y139157D01*
X626411Y139157D01*
X632004D01*
Y139157D01*
X633646Y138961D01*
X633843Y137516D01*
X633843D01*
Y131579D01*
X633843D01*
X633767Y129642D01*
X628232D01*
Y123311D01*
X634169D01*
X634630Y124295D01*
X640961D01*
X641392Y122505D01*
Y122398D01*
X641508Y121816D01*
X641838Y121322D01*
X644353Y118806D01*
X644353Y118806D01*
X644847Y118476D01*
X644866Y118473D01*
Y116815D01*
X650168D01*
Y114091D01*
X648902D01*
Y108153D01*
X655232D01*
Y109601D01*
X658035D01*
X658149Y109513D01*
X658871Y109214D01*
X659646Y109112D01*
X660421Y109214D01*
X661143Y109513D01*
X661763Y109989D01*
X662239Y110609D01*
X662538Y111331D01*
X662640Y112106D01*
X662538Y112881D01*
X662239Y113603D01*
X663298Y115437D01*
X667339D01*
Y116382D01*
X680610D01*
X681385Y116536D01*
X682041Y116975D01*
X682043Y116977D01*
X682549Y116767D01*
X683858Y116595D01*
X685168Y116767D01*
X686388Y117272D01*
X687435Y118076D01*
X688239Y119124D01*
X688745Y120344D01*
X688917Y121653D01*
X688745Y122963D01*
X688239Y124183D01*
X687866Y124669D01*
X688571Y126471D01*
X688723Y126638D01*
X688874D01*
Y136669D01*
X678842D01*
Y126638D01*
X678993D01*
X679146Y126471D01*
X679850Y124669D01*
X679477Y124183D01*
X678972Y122963D01*
X678799Y121654D01*
X677725Y120429D01*
X667339D01*
Y121374D01*
X662614D01*
X661008Y121374D01*
X658814Y121374D01*
Y124705D01*
X658661Y125479D01*
X658284Y126043D01*
Y129347D01*
X652961D01*
X652347Y129347D01*
X652347Y129347D01*
X651197Y128854D01*
X651197Y128854D01*
X646547D01*
X645497Y130823D01*
X646004Y131579D01*
X646866D01*
Y137074D01*
X646866Y137516D01*
X646866D01*
X646669Y138961D01*
X646669D01*
Y144898D01*
X643735D01*
X643304Y145524D01*
X644339Y147493D01*
X644390D01*
X645010Y147616D01*
X645537Y147968D01*
X647800Y150231D01*
X648152Y150757D01*
X648194Y150969D01*
X649819D01*
Y156905D01*
X649819D01*
X649917Y158449D01*
X650789Y160056D01*
X650969Y160319D01*
X655504D01*
X655617Y160243D01*
X656392Y160089D01*
X657717D01*
X658021Y159694D01*
X658641Y159218D01*
X659363Y158919D01*
X660138Y158817D01*
X660913Y158919D01*
X661635Y159218D01*
X662255Y159694D01*
X662731Y160314D01*
X663030Y161036D01*
X663030Y161036D01*
X663132Y161811D01*
X665029Y162484D01*
X669110D01*
Y166977D01*
X671079Y167792D01*
X679181Y159690D01*
X678972Y159183D01*
X678799Y157874D01*
X678972Y156565D01*
X679477Y155344D01*
X680281Y154297D01*
X681329Y153493D01*
X682549Y152987D01*
X683858Y152815D01*
X685168Y152987D01*
X686388Y153493D01*
X687435Y154297D01*
X688239Y155344D01*
X688745Y156565D01*
X688917Y157874D01*
X688745Y159183D01*
X688239Y160404D01*
X687435Y161451D01*
X687143Y161676D01*
X687011Y161993D01*
Y163755D01*
X687143Y164072D01*
X687435Y164297D01*
X688239Y165345D01*
X688745Y166565D01*
X688917Y167874D01*
X688745Y169183D01*
X688239Y170404D01*
X687866Y170890D01*
X688571Y172692D01*
X688723Y172858D01*
X688874D01*
Y182890D01*
X678842D01*
Y175606D01*
X677024Y174853D01*
X669738Y182139D01*
X669081Y182578D01*
X668307Y182732D01*
X665173D01*
Y183677D01*
X660449D01*
X658843Y183677D01*
X656874Y183677D01*
X652150D01*
Y182732D01*
X643602D01*
X642828Y182578D01*
X642172Y182139D01*
X638493Y178461D01*
X635024D01*
Y173902D01*
X639203D01*
X640703Y172401D01*
Y164386D01*
X636894D01*
Y158449D01*
X636894D01*
X636795Y156905D01*
X635055D01*
Y156905D01*
X632580D01*
X632227Y156976D01*
X626442Y162761D01*
X625916Y163112D01*
X625705Y163154D01*
Y164779D01*
X619768D01*
Y158449D01*
X619959D01*
X621205Y156563D01*
X620775Y155559D01*
X618880D01*
X614514Y159925D01*
X614681Y161894D01*
X614681D01*
Y168224D01*
X610502D01*
X604474Y174252D01*
Y193602D01*
X604358Y194185D01*
X604029Y194678D01*
X580883Y217823D01*
X580586Y218793D01*
X580553Y220061D01*
X580614Y220284D01*
X580743Y220452D01*
X581042Y221174D01*
X581144Y221949D01*
X581042Y222724D01*
X581028Y222757D01*
X581938Y224558D01*
X582148Y224754D01*
X583239Y224932D01*
X583311Y224916D01*
X613272Y194955D01*
Y190634D01*
X619209D01*
Y191382D01*
X621441D01*
Y190437D01*
X626165D01*
X627552Y190437D01*
X628416Y190224D01*
X629503Y189865D01*
X629869Y189318D01*
X633215Y185971D01*
X633872Y185532D01*
X634646Y185379D01*
X643110D01*
X643885Y185532D01*
X644541Y185971D01*
X648576Y190006D01*
X648798Y190339D01*
X650311D01*
Y196276D01*
X650311D01*
Y197819D01*
X650311D01*
Y200081D01*
X651953Y200870D01*
X657366D01*
X657890Y200870D01*
X659335Y199606D01*
Y198606D01*
X665272D01*
Y199945D01*
X679528D01*
X680302Y200099D01*
X680958Y200538D01*
X681313Y200893D01*
X681722Y200579D01*
X682943Y200074D01*
X684252Y199902D01*
X685561Y200074D01*
X686782Y200579D01*
X687829Y201383D01*
X688633Y202431D01*
X689139Y203651D01*
X689311Y204961D01*
X689139Y206270D01*
X688633Y207490D01*
X687829Y208538D01*
X687537Y208763D01*
X687405Y209080D01*
Y210842D01*
X687537Y211159D01*
X687829Y211383D01*
X688633Y212431D01*
X689139Y213651D01*
X689311Y214961D01*
X689139Y216270D01*
X688633Y217490D01*
X688260Y217976D01*
X688965Y219778D01*
X689117Y219945D01*
X689268D01*
Y229976D01*
X679236D01*
Y222275D01*
X677268Y221460D01*
X667277Y231450D01*
X666621Y231889D01*
X665846Y232043D01*
X652067D01*
X651293Y231889D01*
X650636Y231450D01*
X646601Y227415D01*
X646189Y226799D01*
X644440Y226605D01*
X644275Y226591D01*
X642701Y226591D01*
X637976D01*
Y223318D01*
X636365Y221706D01*
X635926Y221050D01*
X635772Y220276D01*
Y218224D01*
X634630D01*
Y213665D01*
X638985D01*
X640595Y212056D01*
Y203791D01*
X640560Y203756D01*
X637287D01*
Y197819D01*
X637287D01*
Y196276D01*
X637287D01*
Y191192D01*
X635393Y190159D01*
X634465Y190804D01*
Y196268D01*
X634465Y196374D01*
X634465Y196374D01*
X634169Y198114D01*
X634169D01*
Y204445D01*
X628232D01*
Y198152D01*
X628179Y197946D01*
X627681Y196374D01*
X626165Y196374D01*
X621441D01*
Y195429D01*
X619209D01*
Y196965D01*
X615281D01*
X584371Y227875D01*
X583910Y228183D01*
X583366Y228291D01*
X571807D01*
Y233122D01*
X575492D01*
X576113Y233246D01*
X576639Y233597D01*
X588647Y245605D01*
X588995Y246127D01*
X588997Y246128D01*
X589617Y246603D01*
X589997Y247099D01*
X590650D01*
X591270Y247222D01*
X591796Y247574D01*
X613467Y269244D01*
X625789D01*
Y268406D01*
X625877Y267962D01*
X626128Y267585D01*
X626505Y267334D01*
X626949Y267245D01*
X627776D01*
X628185Y265956D01*
X626646Y264189D01*
X624000D01*
Y258252D01*
X630167D01*
X631972Y257858D01*
X631973Y257858D01*
X631973Y257858D01*
X637910D01*
Y260979D01*
X643887D01*
Y258296D01*
X650387D01*
Y258296D01*
X651487D01*
Y258296D01*
X655487D01*
Y259873D01*
X679998D01*
X680576Y259120D01*
X680869Y258895D01*
X681001Y258578D01*
Y256816D01*
X680869Y256499D01*
X680576Y256274D01*
X679772Y255226D01*
X679563Y254720D01*
X655487D01*
Y255496D01*
X649856D01*
X648437Y255496D01*
X647019Y255496D01*
X643887D01*
Y252484D01*
X643483D01*
X642901Y252368D01*
X642407Y252039D01*
X639793Y249425D01*
X635614D01*
Y243488D01*
X641945D01*
Y247274D01*
X643237Y248566D01*
X643887Y248296D01*
Y248296D01*
X647019D01*
X647843Y248296D01*
X648269Y248154D01*
X649593Y247661D01*
X649698Y247133D01*
X650027Y246640D01*
X650169Y246499D01*
Y241328D01*
X656499D01*
Y242273D01*
X679138D01*
Y237681D01*
X689169D01*
Y247713D01*
X689018D01*
X688866Y247879D01*
X688162Y249681D01*
X688535Y250167D01*
X689040Y251388D01*
X689213Y252697D01*
X689040Y254006D01*
X688535Y255226D01*
X687731Y256274D01*
X687438Y256499D01*
X687306Y256816D01*
Y258578D01*
X687438Y258895D01*
X687731Y259120D01*
X688535Y260167D01*
X689040Y261387D01*
X689213Y262697D01*
X689040Y264006D01*
X688535Y265226D01*
X687731Y266274D01*
X687449Y266490D01*
X687325Y266782D01*
Y268592D01*
X687449Y268884D01*
X687731Y269100D01*
X688535Y270148D01*
X689040Y271368D01*
X689213Y272677D01*
X689040Y273987D01*
X688535Y275207D01*
X687731Y276254D01*
X687438Y276479D01*
X687306Y276796D01*
Y278558D01*
X687438Y278875D01*
X687731Y279100D01*
X688535Y280148D01*
X689040Y281368D01*
X689213Y282677D01*
X689040Y283986D01*
X688535Y285207D01*
X687731Y286254D01*
X686683Y287058D01*
X685463Y287564D01*
X684154Y287736D01*
X682844Y287564D01*
X681624Y287058D01*
X680576Y286254D01*
X679772Y285207D01*
X679563Y284700D01*
X665405D01*
X662848Y287257D01*
X662191Y287696D01*
X661417Y287850D01*
X657098D01*
X657004Y289779D01*
Y291323D01*
X657004D01*
Y297260D01*
X650673D01*
Y297260D01*
X650311D01*
Y297260D01*
X643980D01*
Y291643D01*
X643311Y290919D01*
X642463Y290282D01*
X642249Y290353D01*
X641917Y290491D01*
X641142Y290593D01*
X640367Y290491D01*
X639645Y290191D01*
X638810Y290272D01*
X638116Y290488D01*
X638090Y290503D01*
X637546Y290962D01*
X637504Y291615D01*
X637620Y292197D01*
X637620Y292197D01*
Y295331D01*
X640370D01*
Y301268D01*
X639228D01*
Y303331D01*
X640370D01*
Y304375D01*
X645978D01*
X646592Y303905D01*
X647314Y303606D01*
X648089Y303503D01*
X648864Y303606D01*
X649586Y303905D01*
X650206Y304380D01*
X650682Y305001D01*
X650981Y305723D01*
X651083Y306498D01*
X650981Y307273D01*
X650682Y307995D01*
X650206Y308615D01*
X649586Y309091D01*
X648864Y309390D01*
X648089Y309492D01*
X647314Y309390D01*
X646592Y309091D01*
X645972Y308615D01*
X645823Y308421D01*
X640370D01*
Y309268D01*
X634039D01*
Y309268D01*
X633677D01*
Y309268D01*
X628444D01*
X628092Y309701D01*
X627568Y311236D01*
X627691Y311397D01*
X627990Y312119D01*
X628093Y312894D01*
X627990Y313669D01*
X627788Y314158D01*
X628118Y315034D01*
X628841Y316126D01*
X633480D01*
Y319912D01*
X637244Y323675D01*
X641776D01*
X642359Y323791D01*
X642852Y324121D01*
X643596Y324865D01*
X645265Y324865D01*
X645681Y324750D01*
X647084Y324072D01*
X647139Y323799D01*
X647468Y323306D01*
X648622Y322153D01*
X649115Y321823D01*
X649697Y321707D01*
X653724D01*
Y316224D01*
X660055D01*
Y317170D01*
X679236D01*
Y313291D01*
X689268D01*
Y323323D01*
X689117D01*
X688965Y323489D01*
X688260Y325291D01*
X688633Y325778D01*
X689139Y326998D01*
X689311Y328307D01*
X689139Y329616D01*
X688633Y330837D01*
X687829Y331884D01*
X687537Y332109D01*
X687405Y332426D01*
Y334188D01*
X687537Y334505D01*
X687829Y334730D01*
X688633Y335778D01*
X689139Y336998D01*
X689311Y338307D01*
X689139Y339616D01*
X688633Y340837D01*
X687829Y341884D01*
X687548Y342100D01*
X687424Y342392D01*
Y344202D01*
X687548Y344494D01*
X687829Y344710D01*
X688633Y345758D01*
X689139Y346978D01*
X689311Y348287D01*
X689139Y349597D01*
X688633Y350817D01*
X687829Y351865D01*
X687537Y352089D01*
X687405Y352406D01*
Y354169D01*
X687537Y354486D01*
X687829Y354710D01*
X688633Y355758D01*
X689139Y356978D01*
X689311Y358287D01*
X689139Y359597D01*
X688633Y360817D01*
X687829Y361865D01*
X686782Y362669D01*
X685561Y363174D01*
X684252Y363346D01*
X682943Y363174D01*
X681722Y362669D01*
X680675Y361865D01*
X679871Y360817D01*
X679653Y360291D01*
X673082D01*
X661372Y372001D01*
X660715Y372440D01*
X660412Y372500D01*
X658874Y373539D01*
Y375083D01*
X658874D01*
Y381020D01*
X657078D01*
X651234Y386864D01*
X650577Y387302D01*
X649803Y387456D01*
X628937D01*
X628163Y387302D01*
X627506Y386864D01*
X623963Y383320D01*
X623675Y382890D01*
X622228D01*
Y377296D01*
X622228Y376953D01*
X622228D01*
X622358Y375940D01*
X621172Y374004D01*
X621143Y373972D01*
X616354D01*
Y375311D01*
X610417D01*
Y368980D01*
X616354D01*
Y369926D01*
X620630D01*
X621086Y369420D01*
X621126Y368997D01*
X620553Y367168D01*
X620505Y367125D01*
X619930Y366684D01*
X619454Y366064D01*
X619155Y365342D01*
X619053Y364567D01*
X619155Y363792D01*
X619454Y363070D01*
X619502Y363008D01*
X618804Y361214D01*
X618644Y361039D01*
X615929D01*
X615929Y361039D01*
X614679Y360739D01*
X613961Y360632D01*
X613407Y361057D01*
X612684Y361357D01*
X611909Y361459D01*
X611134Y361357D01*
X610412Y361057D01*
X609792Y360582D01*
X609316Y359962D01*
X609017Y359240D01*
X608915Y358465D01*
X609017Y357690D01*
X609316Y356967D01*
X609792Y356347D01*
X610100Y356111D01*
X610234Y354833D01*
X610071Y353883D01*
X609694Y353593D01*
X609218Y352973D01*
X608919Y352251D01*
X608817Y351476D01*
X608919Y350701D01*
X609109Y350242D01*
X608742Y349286D01*
X608046Y348273D01*
X606004D01*
X606004Y348273D01*
X605422Y348158D01*
X604928Y347828D01*
X604928Y347828D01*
X604631Y347531D01*
X603887Y347629D01*
X603112Y347527D01*
X602390Y347228D01*
X601770Y346752D01*
X601294Y346132D01*
X600995Y345410D01*
X600893Y344635D01*
X600991Y343890D01*
X589614Y332513D01*
X587795Y333267D01*
Y353459D01*
X601371Y367035D01*
X601371Y367035D01*
X601701Y367528D01*
X601817Y368110D01*
X601817Y368110D01*
Y379980D01*
X610207Y388370D01*
X614386D01*
Y394307D01*
X610207D01*
X605131Y399383D01*
X604637Y399713D01*
X604055Y399828D01*
X594096D01*
Y400403D01*
X593996Y400905D01*
X593712Y401330D01*
X593287Y401614D01*
X593056Y401660D01*
X592607Y402431D01*
X592295Y403683D01*
X593076Y404463D01*
X593410Y404964D01*
X593712Y405166D01*
X593996Y405591D01*
X594096Y406093D01*
Y410285D01*
X593996Y410787D01*
X593712Y411212D01*
X593287Y411496D01*
X592785Y411596D01*
X591073D01*
X590571Y411496D01*
X590146Y411212D01*
X589862Y410787D01*
X589762Y410285D01*
Y406093D01*
X588253Y404870D01*
X588227D01*
X588215Y404875D01*
X586616Y406093D01*
Y410285D01*
X586516Y410787D01*
X586232Y411212D01*
X586733Y413078D01*
X587030Y413796D01*
X587132Y414567D01*
X587030Y415338D01*
X586733Y416056D01*
X586260Y416673D01*
X585643Y417146D01*
X584924Y417444D01*
X584763Y417465D01*
X584027Y419011D01*
X583987Y419473D01*
X587787Y423272D01*
X592523D01*
X593297Y423426D01*
X593954Y423865D01*
X603007Y432918D01*
X630895D01*
X631209Y432678D01*
X632137Y430949D01*
X632106Y430873D01*
X631986Y429961D01*
X632106Y429048D01*
X632458Y428197D01*
X633018Y427467D01*
X633749Y426907D01*
X634599Y426555D01*
X635512Y426434D01*
X636424Y426555D01*
X637275Y426907D01*
X638005Y427467D01*
X638566Y428197D01*
X638918Y429048D01*
X639038Y429961D01*
X638918Y430873D01*
X638566Y431724D01*
X638005Y432454D01*
X638089Y434630D01*
X638137Y434725D01*
X639924Y436512D01*
X640512Y436434D01*
X641425Y436555D01*
X642275Y436907D01*
X643005Y437467D01*
X643566Y438198D01*
X643918Y439048D01*
X644038Y439961D01*
X643918Y440873D01*
X643566Y441724D01*
X643005Y442454D01*
X642275Y443014D01*
X641425Y443367D01*
X640512Y443487D01*
X639599Y443367D01*
X638749Y443014D01*
X638018Y442454D01*
X637458Y441724D01*
X637106Y440873D01*
X636986Y439961D01*
X637063Y439373D01*
X634654Y436964D01*
X625100D01*
X624761Y437237D01*
X623870Y438933D01*
X623918Y439048D01*
X624038Y439961D01*
X623918Y440873D01*
X623566Y441724D01*
X623005Y442454D01*
X622275Y443014D01*
X621424Y443367D01*
X620512Y443487D01*
X619599Y443367D01*
X618749Y443014D01*
X618018Y442454D01*
X617458Y441724D01*
X617106Y440873D01*
X616986Y439961D01*
X617106Y439048D01*
X617154Y438933D01*
X616263Y437237D01*
X615923Y436964D01*
X602169D01*
X601394Y436810D01*
X600738Y436372D01*
X598094Y433728D01*
X596276Y434481D01*
Y437614D01*
X596276D01*
Y437976D01*
X596276D01*
Y444307D01*
X594929D01*
Y448213D01*
X597752D01*
Y448622D01*
X666224D01*
Y448213D01*
X666379D01*
X667406Y446669D01*
Y441945D01*
X667406Y439976D01*
X665572Y439207D01*
X664850Y439506D01*
X664075Y439608D01*
X663300Y439506D01*
X662578Y439207D01*
X661958Y438731D01*
X661482Y438111D01*
X661183Y437389D01*
X661081Y436614D01*
X661183Y435839D01*
X661482Y435117D01*
X661958Y434497D01*
X662578Y434021D01*
X663300Y433722D01*
X664075Y433620D01*
X664850Y433722D01*
X665572Y434021D01*
X667406Y433646D01*
Y433646D01*
X673343D01*
Y438370D01*
X673343Y439976D01*
X673343Y441945D01*
Y446669D01*
X674369Y448213D01*
X675114D01*
Y448622D01*
X680512D01*
X691831Y437303D01*
D02*
G37*
G36*
X375892Y437467D02*
X376363Y437106D01*
Y425256D01*
X376517Y424482D01*
X376955Y423825D01*
X383412Y417369D01*
X384068Y416930D01*
X384842Y416776D01*
X393185D01*
X393257Y416682D01*
X393877Y416206D01*
X394599Y415907D01*
X395374Y415805D01*
X396149Y415907D01*
X396871Y416206D01*
X397491Y416682D01*
X397563Y416776D01*
X399753D01*
X402445Y414084D01*
Y411008D01*
X408382D01*
X409053Y409317D01*
Y408095D01*
X409154Y407589D01*
X409440Y407161D01*
X409869Y406874D01*
X410374Y406774D01*
X412146D01*
X412651Y406874D01*
X413080Y407161D01*
X413366Y407589D01*
X413466Y408095D01*
Y415260D01*
X413366Y415765D01*
X413080Y416194D01*
X412651Y416480D01*
X412146Y416580D01*
X410374D01*
X410350Y416576D01*
X408382Y417339D01*
Y417339D01*
X404912D01*
X403506Y418745D01*
X404322Y420713D01*
X417978D01*
X418073Y419993D01*
X418372Y419271D01*
X418847Y418651D01*
X419237Y418352D01*
Y415889D01*
X419154Y415765D01*
X419053Y415260D01*
Y408095D01*
X419154Y407589D01*
X419440Y407161D01*
X419860Y405489D01*
X419856Y404870D01*
X418872Y403886D01*
X403478D01*
X403092Y404229D01*
X402275Y405854D01*
X402302Y405918D01*
X402404Y406693D01*
X402302Y407468D01*
X402002Y408190D01*
X401527Y408810D01*
X400907Y409286D01*
X400184Y409585D01*
X399410Y409687D01*
X398635Y409585D01*
X398173Y409394D01*
X397381Y409478D01*
X395901Y410010D01*
X395878Y410031D01*
X395452Y410315D01*
X394951Y410415D01*
X393238D01*
X392737Y410315D01*
X392312Y410031D01*
X392027Y409606D01*
X391928Y409104D01*
Y404911D01*
X391700Y404519D01*
X390675Y404343D01*
X390365Y404436D01*
X388781Y405859D01*
Y409104D01*
X388681Y409606D01*
X388397Y410031D01*
X387972Y410315D01*
X387471Y410415D01*
X385758D01*
X385256Y410315D01*
X384831Y410031D01*
X384547Y409606D01*
X384447Y409104D01*
Y404911D01*
X384547Y404410D01*
X384831Y403985D01*
X385252Y403704D01*
X385468Y403381D01*
X386347Y402502D01*
X385912Y401047D01*
X385569Y400495D01*
X385256Y400433D01*
X384831Y400149D01*
X384547Y399724D01*
X384447Y399222D01*
Y396323D01*
X382487Y394363D01*
X382157Y393870D01*
X382042Y393287D01*
Y381569D01*
X380073Y380754D01*
X352264Y408563D01*
X303494D01*
Y425856D01*
X306803D01*
X307578Y425958D01*
X308117Y426182D01*
X308145Y426141D01*
X308610Y425830D01*
X309159Y425721D01*
X311888D01*
X312437Y425830D01*
X312768Y426051D01*
X313099Y425830D01*
X313509Y425748D01*
X313833Y425262D01*
X317988Y421107D01*
Y418032D01*
X324319D01*
Y423969D01*
X324319D01*
X324664Y425125D01*
X326563Y425830D01*
X327112Y425721D01*
X329840D01*
X330390Y425830D01*
X330855Y426141D01*
X331166Y426606D01*
X331276Y427155D01*
Y430296D01*
X341835D01*
Y429272D01*
X343640D01*
X344101Y429081D01*
X345000Y428962D01*
X345899Y429081D01*
X346360Y429272D01*
X348165D01*
Y431077D01*
X348356Y431538D01*
X348475Y432437D01*
X348420Y432854D01*
X353403Y437837D01*
X375608D01*
X375892Y437467D01*
D02*
G37*
G36*
X588862Y448213D02*
X591685D01*
Y444307D01*
X590339D01*
Y437976D01*
X590339D01*
Y437614D01*
X589873Y436719D01*
X588013Y435959D01*
X587291Y436258D01*
X586516Y436360D01*
X585741Y436258D01*
X585019Y435959D01*
X584399Y435483D01*
X583923Y434863D01*
X583624Y434141D01*
X583522Y433366D01*
X583624Y432591D01*
X583923Y431869D01*
X584399Y431249D01*
X585019Y430773D01*
X585741Y430474D01*
X586516Y430372D01*
X587291Y430474D01*
X588013Y430773D01*
X588444Y431104D01*
X590339Y431284D01*
Y431284D01*
X593078D01*
X593831Y429465D01*
X591685Y427318D01*
X586949D01*
X586175Y427164D01*
X585518Y426726D01*
X576589Y417797D01*
X576063D01*
X575558Y417697D01*
X574956Y417410D01*
X573942D01*
X573340Y417697D01*
X572835Y417797D01*
X571300D01*
X570863Y418353D01*
X570389Y419670D01*
X575058Y424340D01*
X575591Y424270D01*
X576366Y424372D01*
X577088Y424671D01*
X577708Y425147D01*
X578184Y425767D01*
X578483Y426489D01*
X578585Y427264D01*
X578483Y428039D01*
X578184Y428761D01*
X577708Y429381D01*
X577088Y429857D01*
X576366Y430156D01*
X575591Y430258D01*
X574816Y430156D01*
X574093Y429857D01*
X573473Y429381D01*
X572998Y428761D01*
X572698Y428039D01*
X572596Y427264D01*
X572689Y426558D01*
X565880Y419748D01*
X565349Y419752D01*
X563818Y420026D01*
X563379Y420682D01*
X562220Y421842D01*
Y436713D01*
X562690Y437074D01*
X563251Y437804D01*
X563603Y438654D01*
X563723Y439567D01*
X563603Y440480D01*
X563251Y441330D01*
X562690Y442060D01*
X561960Y442621D01*
X561109Y442973D01*
X560197Y443093D01*
X559284Y442973D01*
X558434Y442621D01*
X557703Y442060D01*
X557143Y441330D01*
X556791Y440480D01*
X556671Y439567D01*
X556791Y438654D01*
X557143Y437804D01*
X557703Y437074D01*
X558174Y436713D01*
Y434171D01*
X557917Y433842D01*
X556205Y432933D01*
X556110Y432973D01*
X555197Y433093D01*
X554284Y432973D01*
X553434Y432621D01*
X552703Y432060D01*
X552143Y431330D01*
X551791Y430480D01*
X551671Y429567D01*
X551748Y428979D01*
X550518Y427749D01*
X550080Y427093D01*
X549926Y426319D01*
Y417106D01*
X549843Y416982D01*
X549742Y416476D01*
Y409311D01*
X549843Y408806D01*
X550129Y408377D01*
X550168Y408351D01*
X550627Y406758D01*
X550663Y406063D01*
X548779Y404179D01*
X538643D01*
X538260Y404416D01*
X537049Y406004D01*
X536947Y406779D01*
X536648Y407501D01*
X536172Y408121D01*
X535552Y408597D01*
X534830Y408896D01*
X534055Y408998D01*
X533280Y408896D01*
X532558Y408597D01*
X531938Y408121D01*
X531891Y408060D01*
X530834Y408092D01*
X529874Y408367D01*
X529823Y408622D01*
X529539Y409047D01*
X529114Y409331D01*
X528612Y409431D01*
X526900D01*
X526398Y409331D01*
X525973Y409047D01*
X525689Y408622D01*
X525589Y408120D01*
Y403927D01*
X525574Y403906D01*
X523910Y402814D01*
X522446Y404278D01*
Y405374D01*
X522442Y405394D01*
Y408120D01*
X522343Y408622D01*
X522059Y409047D01*
X521633Y409331D01*
X521132Y409431D01*
X519419D01*
X518918Y409331D01*
X518493Y409047D01*
X518208Y408622D01*
X518109Y408120D01*
Y403927D01*
X518208Y403426D01*
X518493Y403000D01*
X518918Y402716D01*
X519419Y402617D01*
X519431D01*
X520395Y401390D01*
X519582Y399549D01*
X519419D01*
X518918Y399449D01*
X518493Y399165D01*
X518208Y398740D01*
X518109Y398238D01*
Y396895D01*
X506496D01*
X505914Y396780D01*
X505420Y396450D01*
X505420Y396450D01*
X498432Y389462D01*
X498102Y388968D01*
X497987Y388386D01*
Y365551D01*
X482622Y365551D01*
Y384646D01*
X482514Y385190D01*
X482206Y385650D01*
X475705Y392151D01*
Y395783D01*
X471777D01*
X470316Y397245D01*
X469855Y397553D01*
X469311Y397661D01*
X463584D01*
Y398337D01*
X463484Y398838D01*
X463200Y399263D01*
X462775Y399548D01*
X462431Y399616D01*
X461997Y400433D01*
X461619Y401506D01*
X462498Y402760D01*
X462775Y402815D01*
X463200Y403099D01*
X463484Y403524D01*
X463584Y404026D01*
Y408218D01*
X463484Y408720D01*
X463200Y409145D01*
X462775Y409429D01*
X462274Y409529D01*
X460561D01*
X460059Y409429D01*
X459634Y409145D01*
X459350Y408720D01*
X459250Y408218D01*
Y404383D01*
X457966Y403098D01*
X457907D01*
X456104Y404026D01*
Y408218D01*
X456004Y408720D01*
X455720Y409145D01*
X455295Y409429D01*
X454968Y409494D01*
Y411676D01*
X455464Y412056D01*
X455939Y412676D01*
X456239Y413398D01*
X456341Y414173D01*
X456239Y414948D01*
X455939Y415670D01*
X455464Y416290D01*
X454844Y416766D01*
X454121Y417065D01*
X453346Y417167D01*
X452571Y417065D01*
X451849Y416766D01*
X451229Y416290D01*
X450753Y415670D01*
X450454Y414948D01*
X450435Y414800D01*
X448466Y414929D01*
Y415260D01*
X448366Y415765D01*
X448336Y415810D01*
Y418506D01*
X462452Y432622D01*
X469945D01*
X470320Y432297D01*
X471154Y430654D01*
X471082Y430480D01*
X470962Y429567D01*
X471082Y428654D01*
X471434Y427804D01*
X471995Y427073D01*
X472725Y426513D01*
X473575Y426161D01*
X474488Y426041D01*
X475401Y426161D01*
X476251Y426513D01*
X476982Y427073D01*
X477542Y427804D01*
X477894Y428654D01*
X478014Y429567D01*
X477894Y430480D01*
X477542Y431330D01*
X476982Y432060D01*
X477065Y434236D01*
X477113Y434331D01*
X478900Y436118D01*
X479488Y436041D01*
X480401Y436161D01*
X481251Y436513D01*
X481982Y437074D01*
X482542Y437804D01*
X482894Y438654D01*
X483014Y439567D01*
X482894Y440480D01*
X482542Y441330D01*
X481982Y442060D01*
X481251Y442621D01*
X480401Y442973D01*
X479488Y443093D01*
X478576Y442973D01*
X477725Y442621D01*
X476995Y442060D01*
X476434Y441330D01*
X476082Y440480D01*
X475962Y439567D01*
X476039Y438979D01*
X473729Y436669D01*
X464121D01*
X463885Y436838D01*
X462887Y438637D01*
X462894Y438654D01*
X463014Y439567D01*
X462894Y440480D01*
X462542Y441330D01*
X461982Y442060D01*
X461251Y442621D01*
X460401Y442973D01*
X459488Y443093D01*
X458575Y442973D01*
X457725Y442621D01*
X456995Y442060D01*
X456434Y441330D01*
X456082Y440480D01*
X455962Y439567D01*
X456082Y438654D01*
X456434Y437804D01*
X456995Y437074D01*
X457725Y436513D01*
X457804Y436481D01*
X458370Y434606D01*
X458317Y434210D01*
X445754Y421647D01*
X444145Y421817D01*
X443462Y422098D01*
X443160Y422491D01*
X442540Y422967D01*
X441818Y423266D01*
X441043Y423368D01*
X440268Y423266D01*
X439546Y422967D01*
X438926Y422491D01*
X438450Y421871D01*
X438151Y421149D01*
X438049Y420374D01*
X438131Y419755D01*
X435252Y416876D01*
X434564Y416944D01*
X434027Y417146D01*
X433283Y417735D01*
Y419331D01*
X433129Y420105D01*
X432690Y420761D01*
X423212Y430239D01*
X424152Y431828D01*
X424294Y431941D01*
X425000Y431848D01*
X425775Y431950D01*
X426165Y432112D01*
X428134Y431677D01*
X428134Y431677D01*
X434071D01*
Y436402D01*
X434071Y438008D01*
X434071Y439976D01*
Y444701D01*
X432724D01*
Y448213D01*
X435941D01*
Y448622D01*
X508153D01*
Y448213D01*
X510977D01*
Y444307D01*
X509630D01*
Y439583D01*
X509630Y437976D01*
X509630Y436008D01*
Y433577D01*
X506888Y430835D01*
X506213Y430746D01*
X505491Y430447D01*
X504871Y429972D01*
X504395Y429351D01*
X504096Y428629D01*
X503994Y427854D01*
X504096Y427079D01*
X504395Y426357D01*
X504871Y425737D01*
X505491Y425261D01*
X506213Y424962D01*
X506988Y424860D01*
X507763Y424962D01*
X508485Y425261D01*
X509105Y425737D01*
X509581Y426357D01*
X509880Y427079D01*
X509982Y427854D01*
X509880Y428629D01*
X509701Y429061D01*
X511923Y431284D01*
X515567D01*
Y436008D01*
X515567Y437614D01*
X515567Y439583D01*
Y444307D01*
X514220D01*
Y448213D01*
X517043D01*
Y448622D01*
X588862D01*
Y448213D01*
D02*
G37*
G36*
X237189Y430890D02*
X243031D01*
X243279Y429091D01*
X243287Y428988D01*
Y425901D01*
X239685Y422299D01*
X239370D01*
X239175Y422260D01*
X235221Y422260D01*
X233252Y422260D01*
X228528D01*
Y422260D01*
X226849Y422961D01*
X223585Y426225D01*
X223386Y428300D01*
X225975Y430890D01*
X230823D01*
Y431552D01*
X237189D01*
Y430890D01*
D02*
G37*
G36*
X396693Y385982D02*
X397272Y385619D01*
X398016Y384909D01*
Y379118D01*
X399363D01*
Y370214D01*
X398867Y369834D01*
X398391Y369214D01*
X398342Y369094D01*
X396697Y368525D01*
X396113Y368539D01*
X385084Y379567D01*
Y384249D01*
X386303Y385713D01*
X392240D01*
Y385713D01*
X394209Y386025D01*
X394304Y385986D01*
X395079Y385884D01*
X395854Y385986D01*
X396047Y386066D01*
X396693Y385982D01*
D02*
G37*
G36*
X468878Y386164D02*
X469768Y385728D01*
Y382760D01*
X475705D01*
Y385560D01*
X477523Y386314D01*
X479780Y384057D01*
Y365551D01*
X456482D01*
X456480Y365553D01*
Y383333D01*
X456480Y384506D01*
X456480Y384506D01*
X458345Y385221D01*
X462220D01*
Y385425D01*
X462907Y385911D01*
X464189Y386287D01*
X464448Y386088D01*
X465170Y385789D01*
X465945Y385687D01*
X466720Y385789D01*
X467442Y386088D01*
X467933Y386465D01*
X468878Y386164D01*
D02*
G37*
G36*
X579012Y382187D02*
X579070Y382112D01*
X579731Y381604D01*
X580501Y381285D01*
X581328Y381176D01*
X581648Y381219D01*
X583003Y380400D01*
X583616Y379760D01*
Y365551D01*
X547095D01*
X546373Y367520D01*
X546702Y367799D01*
X547752D01*
Y369604D01*
X547943Y370065D01*
X548061Y370965D01*
X547943Y371864D01*
X547752Y372325D01*
Y374130D01*
X545947D01*
X545486Y374321D01*
X544587Y374439D01*
X544435Y374572D01*
Y377559D01*
X544319Y378141D01*
X543989Y378635D01*
X542273Y380351D01*
X543027Y382169D01*
X546374Y382169D01*
X548343Y382169D01*
X552642D01*
X553067Y382169D01*
X554610D01*
X555035Y382169D01*
X559335D01*
X560941Y382169D01*
X562910Y382169D01*
X567634D01*
X567967Y380339D01*
Y376181D01*
X568083Y375599D01*
X568412Y375105D01*
X571143Y372375D01*
X571053Y372159D01*
X570935Y371260D01*
X571053Y370360D01*
X571400Y369523D01*
X571952Y368803D01*
X572672Y368251D01*
X573510Y367904D01*
X574409Y367785D01*
X575309Y367904D01*
X576147Y368251D01*
X576866Y368803D01*
X577419Y369523D01*
X577766Y370360D01*
X577884Y371260D01*
X577766Y372159D01*
X577419Y372997D01*
X576866Y373717D01*
X576147Y374269D01*
X575309Y374616D01*
X574409Y374734D01*
X573510Y374616D01*
X573294Y374527D01*
X571009Y376811D01*
Y380314D01*
X572020Y381009D01*
X572978Y381378D01*
X573485Y381168D01*
X574311Y381059D01*
X575137Y381168D01*
X575907Y381487D01*
X576569Y381994D01*
X576689Y382152D01*
X577177Y382313D01*
X578356Y382346D01*
X579012Y382187D01*
D02*
G37*
G36*
X431315Y380988D02*
X431677D01*
Y380988D01*
X433284Y380988D01*
X438008D01*
X438516Y379230D01*
Y377772D01*
X438516Y377772D01*
X438655Y377074D01*
X439050Y376483D01*
X445153Y370380D01*
X445049Y369587D01*
X445167Y368687D01*
X445514Y367849D01*
X445767Y367520D01*
X445355Y366174D01*
X444890Y365551D01*
X421570D01*
X419849Y366014D01*
X419812Y367863D01*
X419990Y368294D01*
X420109Y369193D01*
X419990Y370092D01*
X419799Y370553D01*
Y372358D01*
X417994D01*
X417533Y372549D01*
X416634Y372668D01*
X415735Y372549D01*
X415619Y372501D01*
X409594Y378526D01*
Y379320D01*
X410319Y380988D01*
X415043D01*
X416650Y380988D01*
X418618Y380988D01*
X423016D01*
X423343Y380988D01*
X424984D01*
X425311Y380988D01*
X431315D01*
Y380988D01*
D02*
G37*
G36*
X193799Y385138D02*
X196653Y382283D01*
Y368701D01*
X195259Y367306D01*
X167212Y366942D01*
X165846Y368307D01*
X165847Y373819D01*
X177165Y385138D01*
X193799Y385138D01*
D02*
G37*
G36*
X518310Y392831D02*
X517448Y390862D01*
X514650D01*
Y384531D01*
X520587D01*
Y385166D01*
X522555Y385552D01*
X523011Y385202D01*
X523733Y384903D01*
X524508Y384801D01*
X525283Y384903D01*
X526005Y385202D01*
X526023Y385216D01*
X528181Y384799D01*
X528528Y384169D01*
Y377839D01*
X529975D01*
Y365551D01*
X501029D01*
Y387756D01*
X507126Y393853D01*
X517421D01*
X518310Y392831D01*
D02*
G37*
G36*
X595479Y388491D02*
X596140Y387983D01*
X596910Y387664D01*
X597736Y387555D01*
X598562Y387664D01*
X599333Y387983D01*
X599501Y388112D01*
X601362Y388370D01*
X601362Y388370D01*
X603332D01*
X604085Y386551D01*
X599220Y381686D01*
X598890Y381192D01*
X598774Y380610D01*
Y368740D01*
X589614Y359580D01*
X587795Y360334D01*
Y363189D01*
X586659Y364325D01*
Y385481D01*
X587287Y387189D01*
X593224D01*
Y388725D01*
X595299D01*
X595479Y388491D01*
D02*
G37*
G36*
X625198Y344291D02*
X625286Y343847D01*
X625538Y343471D01*
X625914Y343220D01*
X626358Y343131D01*
X627065D01*
X627360Y342462D01*
X627468Y341941D01*
X626359Y340469D01*
X622130D01*
Y334138D01*
X628067D01*
Y336644D01*
X631784Y340361D01*
X632114Y340855D01*
X632230Y341437D01*
Y342073D01*
X634199Y343138D01*
X634232Y343131D01*
X635059D01*
X635503Y343220D01*
X635879Y343471D01*
X637646Y343454D01*
X637891Y343390D01*
X638924Y341925D01*
X638132Y340173D01*
X634236D01*
Y333842D01*
X640173D01*
Y333842D01*
X641444Y334865D01*
X647944D01*
Y334865D01*
X649044D01*
Y334865D01*
X653044D01*
Y336685D01*
X679495D01*
X679871Y335778D01*
X680675Y334730D01*
X680967Y334505D01*
X681099Y334188D01*
Y332426D01*
X680967Y332109D01*
X680675Y331884D01*
X679871Y330837D01*
X679365Y329616D01*
X679308Y329181D01*
X653044D01*
Y332065D01*
X647413D01*
X645994Y332065D01*
X644576Y332065D01*
X641444D01*
Y327016D01*
X641146Y326718D01*
X636614D01*
X636032Y326602D01*
X635538Y326273D01*
X631329Y322063D01*
X627150D01*
Y317388D01*
X626726Y316856D01*
X625290Y315863D01*
X625098Y315888D01*
X624324Y315786D01*
X623601Y315487D01*
X622981Y315011D01*
X622506Y314391D01*
X622206Y313669D01*
X622104Y312894D01*
X622120Y312776D01*
X620814Y311470D01*
X620375Y310814D01*
X620221Y310039D01*
Y308283D01*
X619276D01*
Y306551D01*
X618625Y306001D01*
X617307Y305429D01*
X617015Y305550D01*
X616240Y305652D01*
X616123Y305636D01*
X611522Y310236D01*
X612848Y311562D01*
X613286Y312218D01*
X613440Y312992D01*
Y315535D01*
X614386D01*
Y320260D01*
X614386Y321508D01*
X615254Y322337D01*
X616485Y322784D01*
X617105Y322309D01*
X617827Y322009D01*
X618602Y321907D01*
X619377Y322009D01*
X620099Y322309D01*
X620719Y322784D01*
X621195Y323405D01*
X621494Y324127D01*
X621596Y324902D01*
X621494Y325676D01*
X621195Y326399D01*
X620719Y327019D01*
X620099Y327495D01*
X619377Y327794D01*
X618602Y327896D01*
X617827Y327794D01*
X617105Y327495D01*
X616683Y327171D01*
X614386D01*
Y328559D01*
X608792D01*
X608449Y328559D01*
Y328559D01*
X606906Y328362D01*
Y328362D01*
X600969D01*
Y328362D01*
X599425D01*
Y328362D01*
X593488D01*
Y322031D01*
X599425D01*
Y322031D01*
X600969D01*
Y322031D01*
X606549D01*
X606959Y321996D01*
X608449Y321005D01*
X608449Y320260D01*
Y315535D01*
X608449D01*
X608279Y313637D01*
X608071D01*
X607875Y313598D01*
X603724D01*
Y307661D01*
X608375D01*
X613262Y302775D01*
X613246Y302658D01*
X613348Y301883D01*
X613647Y301160D01*
X614123Y300540D01*
X614743Y300064D01*
X615465Y299765D01*
X616240Y299663D01*
X617015Y299765D01*
X617737Y300064D01*
X618209Y300426D01*
X618357Y300540D01*
X618912Y301199D01*
X620434Y301933D01*
X620951Y301953D01*
X625213D01*
Y301972D01*
X625688Y302016D01*
X627347Y300192D01*
Y295331D01*
X627670D01*
X628906Y293507D01*
X627773Y292006D01*
X626949D01*
X626505Y291918D01*
X626128Y291667D01*
X625877Y291290D01*
X625789Y290846D01*
Y290202D01*
X623441D01*
X622983Y290798D01*
X622363Y291274D01*
X621641Y291573D01*
X620866Y291675D01*
X620091Y291573D01*
X619369Y291274D01*
X618749Y290798D01*
X618273Y290178D01*
X617974Y289456D01*
X617872Y288681D01*
X617974Y287906D01*
X618013Y287811D01*
X617701Y285842D01*
X616321Y284446D01*
X615732Y284330D01*
X615277Y284680D01*
X614555Y284979D01*
X613779Y285081D01*
X613005Y284979D01*
X612283Y284680D01*
X611662Y284204D01*
X611604Y284128D01*
X610164Y284517D01*
X609663Y284831D01*
X609585Y285421D01*
X609286Y286143D01*
X608810Y286763D01*
X608190Y287239D01*
X607468Y287538D01*
X606693Y287640D01*
X605918Y287538D01*
X605196Y287239D01*
X604576Y286763D01*
X604100Y286143D01*
X603801Y285421D01*
X603699Y284646D01*
X603801Y283871D01*
X604100Y283149D01*
X604576Y282528D01*
X604670Y282456D01*
Y279232D01*
X604824Y278458D01*
X605262Y277802D01*
X609199Y273865D01*
X609856Y273426D01*
X610208Y273356D01*
X610794Y272225D01*
X610939Y271304D01*
X590421Y250785D01*
X590372Y250788D01*
X588710Y251858D01*
Y327307D01*
X603142Y341739D01*
X603887Y341641D01*
X604662Y341743D01*
X605384Y342042D01*
X606004Y342518D01*
X606480Y343138D01*
X606779Y343860D01*
X606881Y344635D01*
X607403Y345231D01*
X625198D01*
Y344291D01*
D02*
G37*
G36*
X660610Y367041D02*
X670814Y356837D01*
X671470Y356399D01*
X672244Y356245D01*
X679669D01*
X679871Y355758D01*
X680675Y354710D01*
X680967Y354486D01*
X681099Y354169D01*
Y352406D01*
X680967Y352089D01*
X680675Y351865D01*
X679871Y350817D01*
X679365Y349597D01*
X679193Y348287D01*
X679365Y346978D01*
X679871Y345758D01*
X680675Y344710D01*
X680956Y344494D01*
X681080Y344202D01*
Y342392D01*
X680956Y342100D01*
X680675Y341884D01*
X679871Y340837D01*
X679495Y339929D01*
X653044D01*
Y342065D01*
X649044D01*
X647465Y343006D01*
Y345019D01*
X647608Y345161D01*
X651787D01*
Y351098D01*
X651787D01*
X651984Y352642D01*
X651984D01*
X651984Y352985D01*
Y357412D01*
X654695Y360122D01*
X658874D01*
Y365889D01*
X660377Y367116D01*
X660610Y367041D01*
D02*
G37*
G36*
X191240Y357677D02*
X191240Y337894D01*
X189862Y336516D01*
X182874D01*
X182579Y336811D01*
X182579Y351673D01*
X181201Y353051D01*
X160630Y353051D01*
X156595Y349016D01*
X156595Y337598D01*
X155217Y336221D01*
X149902Y336122D01*
X148425Y337598D01*
Y352362D01*
X156496Y360433D01*
X188484D01*
X191240Y357677D01*
D02*
G37*
G36*
X366634Y337402D02*
Y332283D01*
X365945Y331594D01*
X351575D01*
X349311Y329331D01*
X336893D01*
X336516Y329626D01*
Y337992D01*
X343996Y345472D01*
X358563D01*
X366634Y337402D01*
D02*
G37*
G36*
X299902Y323425D02*
X309154D01*
X310138Y322441D01*
Y320472D01*
X308760Y319094D01*
X301279D01*
X296358Y314173D01*
X284547D01*
X280118Y318602D01*
Y322342D01*
X282087Y324311D01*
X299016D01*
X299902Y323425D01*
D02*
G37*
G36*
X365453Y301969D02*
Y297835D01*
X363681Y296063D01*
X348524D01*
X345669Y293209D01*
X337500D01*
X336614Y294094D01*
Y304823D01*
X341339Y309547D01*
X357874D01*
X365453Y301969D01*
D02*
G37*
G36*
X299311Y287106D02*
X309350D01*
X309744Y286713D01*
Y283957D01*
X308858Y283071D01*
X304626D01*
X299705Y278150D01*
X286811D01*
X280315Y284646D01*
Y287795D01*
X281398Y288878D01*
X281398D01*
X281398Y288878D01*
X297539D01*
X299311Y287106D01*
D02*
G37*
G36*
X522698Y280623D02*
X522998Y279901D01*
X523473Y279280D01*
X523969Y278900D01*
Y267547D01*
X524092Y266926D01*
X524444Y266400D01*
X532770Y258074D01*
X532016Y256256D01*
X527091D01*
X525597Y257401D01*
X524737Y258261D01*
X524244Y258591D01*
X523661Y258706D01*
X519701D01*
Y260350D01*
X513764D01*
Y259208D01*
X511370D01*
X504878Y265700D01*
Y269571D01*
X505823D01*
Y275902D01*
X505823Y275902D01*
X505823D01*
X507076Y277351D01*
X510433Y280709D01*
X522687D01*
X522698Y280623D01*
D02*
G37*
G36*
X210827Y329283D02*
X210827Y288189D01*
X208563Y285925D01*
X193307Y285925D01*
X190551Y283169D01*
X190551Y273228D01*
X189469Y272146D01*
X183169Y272146D01*
X181004Y274311D01*
X181004Y329382D01*
X182677Y331055D01*
X209055D01*
X210827Y329283D01*
D02*
G37*
G36*
X176969D02*
Y299559D01*
X173917Y296508D01*
X164126Y296508D01*
X157087Y289469D01*
Y272638D01*
X156004Y271555D01*
X149114D01*
X147736Y272933D01*
Y284154D01*
X142421Y289469D01*
X134894Y289469D01*
X115354Y289469D01*
X112500Y292323D01*
Y296161D01*
X115256Y298917D01*
X139567Y298917D01*
X145669Y303494D01*
Y330071D01*
X147343Y331744D01*
X174508D01*
X176969Y329283D01*
D02*
G37*
G36*
X657169Y276098D02*
X657169Y274492D01*
Y269768D01*
X661623D01*
X664389Y267002D01*
X664631Y266416D01*
X665037Y265888D01*
X664970Y265469D01*
X664320Y263919D01*
X655487D01*
Y265496D01*
X651955D01*
X651257Y265635D01*
X649912Y266445D01*
X649909Y266462D01*
X649579Y266956D01*
X649579Y266956D01*
X649494Y267041D01*
Y270780D01*
X649494Y271565D01*
X649494D01*
X649425Y272721D01*
X649425D01*
Y276506D01*
X650433Y277514D01*
X655835D01*
X657169Y276098D01*
D02*
G37*
G36*
X585668Y294907D02*
Y259444D01*
X585642Y259402D01*
X584272Y258351D01*
X583699Y258157D01*
X583198Y258223D01*
X582423Y258121D01*
X581701Y257822D01*
X581081Y257346D01*
X580605Y256726D01*
X580306Y256004D01*
X580204Y255229D01*
X580306Y254454D01*
X580605Y253732D01*
X580155Y251748D01*
X579973Y251480D01*
X579708Y251313D01*
X579556Y251333D01*
X578781Y251231D01*
X578059Y250932D01*
X577903Y250812D01*
X576354Y251344D01*
X575935Y251688D01*
Y257005D01*
X576267Y257049D01*
X576989Y257348D01*
X577609Y257824D01*
X578085Y258444D01*
X578384Y259166D01*
X578486Y259941D01*
X578384Y260716D01*
X578085Y261438D01*
X577609Y262058D01*
X576989Y262534D01*
X576267Y262833D01*
X575492Y262935D01*
X574717Y262833D01*
X573995Y262534D01*
X573375Y262058D01*
X572899Y261438D01*
X572600Y260716D01*
X572498Y259941D01*
X572600Y259166D01*
X572899Y258444D01*
X573293Y257930D01*
Y249083D01*
X571683Y247760D01*
X570645Y248721D01*
X570747Y249495D01*
X570645Y250270D01*
X570346Y250992D01*
X569870Y251613D01*
X569250Y252088D01*
X568528Y252387D01*
X567753Y252489D01*
X566978Y252387D01*
X566256Y252088D01*
X565635Y251613D01*
X565160Y250992D01*
X564860Y250270D01*
X564758Y249495D01*
X564860Y248721D01*
X565160Y247998D01*
X564147Y246138D01*
X563665D01*
Y243035D01*
Y239098D01*
Y235161D01*
Y231224D01*
Y227287D01*
Y222973D01*
X561809Y222602D01*
X558860D01*
X558240Y222479D01*
X557714Y222127D01*
X553989Y218402D01*
X553556Y218345D01*
X552834Y218046D01*
X552214Y217570D01*
X551738Y216950D01*
X551439Y216228D01*
X551337Y215453D01*
X551439Y214678D01*
X551738Y213956D01*
X552214Y213336D01*
X552834Y212860D01*
X553556Y212561D01*
X554331Y212459D01*
X555106Y212561D01*
X555828Y212860D01*
X556448Y213336D01*
X556921Y213952D01*
X556925Y213956D01*
X557587Y214258D01*
X557966Y214038D01*
X558112Y213698D01*
X558119Y211780D01*
X558071Y211700D01*
X557643Y211143D01*
X557344Y210421D01*
X557242Y209646D01*
X557344Y208871D01*
X557643Y208149D01*
X558119Y207528D01*
X558739Y207053D01*
X559461Y206754D01*
X560236Y206651D01*
X561011Y206754D01*
X561733Y207053D01*
X562353Y207528D01*
X562386Y207571D01*
X567538D01*
X567736Y207532D01*
X571868D01*
X572296Y207104D01*
Y204051D01*
X569768D01*
Y198114D01*
X569768D01*
X569768Y197063D01*
X569768D01*
Y194538D01*
X567949Y193785D01*
X561689Y200045D01*
Y203658D01*
X554242D01*
X553835Y204033D01*
X553050Y205626D01*
X553089Y205721D01*
X553191Y206496D01*
X553089Y207271D01*
X552790Y207993D01*
X552314Y208613D01*
X551694Y209089D01*
X550972Y209388D01*
X550197Y209490D01*
X549422Y209388D01*
X548700Y209089D01*
X548452Y208899D01*
X548070Y208612D01*
X546735Y208445D01*
X545912Y208873D01*
X545887Y208892D01*
X545165Y209191D01*
X544390Y209293D01*
X543615Y209191D01*
X542518Y209107D01*
X541372Y209765D01*
X540897Y210385D01*
X540277Y210861D01*
X539555Y211160D01*
X538779Y211262D01*
X538005Y211160D01*
X537283Y210861D01*
X536662Y210385D01*
X536187Y209765D01*
X535887Y209043D01*
X535785Y208268D01*
X535839Y207864D01*
X534630Y206210D01*
X532873Y206089D01*
X530702Y208261D01*
X530208Y208591D01*
X529626Y208706D01*
X519209D01*
Y213508D01*
Y217445D01*
Y221382D01*
Y225319D01*
Y229256D01*
Y233193D01*
Y237130D01*
Y241067D01*
Y246138D01*
X511067D01*
Y244240D01*
X490731D01*
X482347Y252623D01*
X486058Y256334D01*
X491570Y250822D01*
X492096Y250470D01*
X492717Y250347D01*
X521185D01*
Y248114D01*
X521185D01*
X521767Y246231D01*
X521468Y245509D01*
X521366Y244734D01*
X521468Y243959D01*
X521767Y243237D01*
X522243Y242617D01*
X522863Y242141D01*
X523585Y241842D01*
X524360Y241740D01*
X525135Y241842D01*
X525857Y242141D01*
X526477Y242617D01*
X526953Y243237D01*
X527252Y243959D01*
X527354Y244734D01*
X527252Y245509D01*
X526953Y246231D01*
X527928Y248114D01*
X548721D01*
X549073Y247681D01*
X549597Y246146D01*
X549474Y245985D01*
X549175Y245263D01*
X549073Y244488D01*
X549175Y243713D01*
X549474Y242991D01*
X549950Y242371D01*
X550570Y241895D01*
X551292Y241596D01*
X552067Y241494D01*
X552842Y241596D01*
X553564Y241895D01*
X554184Y242371D01*
X554660Y242991D01*
X554959Y243713D01*
X555061Y244488D01*
X554959Y245263D01*
X554660Y245985D01*
X554537Y246146D01*
X555060Y247681D01*
X555413Y248114D01*
X559721D01*
Y256256D01*
X559691D01*
Y280709D01*
X568898D01*
X583849Y295660D01*
X585668Y294907D01*
D02*
G37*
G36*
X364173Y237500D02*
Y233169D01*
X363090Y232087D01*
X347638D01*
X345133Y229582D01*
X343268D01*
X342993Y229528D01*
X335335D01*
X334744Y230118D01*
Y238287D01*
X334744Y238287D01*
X334744D01*
X335077Y238620D01*
X339862Y243406D01*
X358268D01*
X364173Y237500D01*
D02*
G37*
G36*
X679374Y213632D02*
X679871Y212431D01*
X680675Y211383D01*
X680967Y211159D01*
X681099Y210842D01*
Y209080D01*
X680967Y208763D01*
X680675Y208538D01*
X679871Y207490D01*
X679365Y206270D01*
X679193Y204961D01*
X677469Y203992D01*
X666699D01*
X665272Y205299D01*
X665272Y206906D01*
Y211630D01*
X665272D01*
Y213173D01*
X665272D01*
Y219504D01*
X659335D01*
Y217968D01*
X651197D01*
Y218224D01*
X644866D01*
Y216291D01*
X642898Y215475D01*
X641778Y216595D01*
X640961Y218224D01*
X641778Y219854D01*
X642451Y220654D01*
X644307Y220654D01*
X646276Y220654D01*
X651000D01*
Y226092D01*
X652905Y227997D01*
X665008D01*
X679374Y213632D01*
D02*
G37*
G36*
X298524Y223721D02*
X307185D01*
X307677Y223228D01*
Y219882D01*
X306988Y219193D01*
X294980D01*
X289961Y214173D01*
X279528D01*
X278248Y215453D01*
Y223031D01*
X279724Y224508D01*
X297736D01*
X298524Y223721D01*
D02*
G37*
G36*
X574465Y183250D02*
Y145291D01*
X572917D01*
Y138961D01*
X572917D01*
Y138598D01*
X572917D01*
Y134637D01*
X571424Y133415D01*
X569701Y134128D01*
Y136992D01*
X569701Y138598D01*
X569701Y140567D01*
Y145291D01*
X569671D01*
X569005Y147260D01*
X569128Y147420D01*
X569427Y148142D01*
X569530Y148917D01*
X569427Y149692D01*
X569128Y150414D01*
X568653Y151034D01*
X568033Y151510D01*
X567310Y151809D01*
X566535Y151911D01*
X565761Y151809D01*
X565038Y151510D01*
X564418Y151034D01*
X563942Y150414D01*
X563643Y149692D01*
X563541Y148917D01*
X563643Y148142D01*
X563942Y147420D01*
X564066Y147260D01*
X563764Y145291D01*
X563764D01*
Y140567D01*
X563764Y138961D01*
X563764Y136992D01*
Y135228D01*
X562811Y134495D01*
X560843Y135447D01*
Y138697D01*
X560843D01*
Y139059D01*
X560843D01*
Y145390D01*
X559590D01*
Y195516D01*
X561689D01*
Y195516D01*
X562050Y195665D01*
X574465Y183250D01*
D02*
G37*
G36*
X527156Y205626D02*
X526103Y203658D01*
X521185D01*
Y200187D01*
X519593Y198595D01*
X519264Y198102D01*
X519148Y197520D01*
Y190665D01*
X517504D01*
Y184728D01*
X517504D01*
X517681Y184301D01*
X515315Y181935D01*
X507998D01*
X503884Y186049D01*
Y190835D01*
X505528Y191618D01*
X506677Y191717D01*
Y191717D01*
X513008D01*
Y197653D01*
X511069D01*
Y200925D01*
X515777Y205634D01*
X519209D01*
Y205664D01*
X527130D01*
X527156Y205626D01*
D02*
G37*
G36*
X361614Y173425D02*
Y173031D01*
X362598Y172047D01*
Y167815D01*
X360827Y166043D01*
X345177D01*
X343504Y164370D01*
X333858D01*
X332087Y166142D01*
Y173425D01*
X337992Y179331D01*
X355709D01*
X361614Y173425D01*
D02*
G37*
G36*
X294559Y159758D02*
X294699Y159731D01*
X295866Y158563D01*
X305217Y158563D01*
X306299Y157480D01*
Y155610D01*
X305020Y154331D01*
X297539D01*
X290945Y147736D01*
X279823D01*
X276870Y150689D01*
X276870Y159252D01*
X277461Y159843D01*
X294433D01*
X294559Y159758D01*
D02*
G37*
G36*
X499522Y212755D02*
X500013Y211569D01*
X499864Y211208D01*
X499762Y210433D01*
X499864Y209658D01*
X500163Y208936D01*
X500639Y208316D01*
X501235Y207859D01*
Y197555D01*
X499197D01*
Y191618D01*
X500841D01*
Y185419D01*
X500957Y184837D01*
X501286Y184343D01*
X504679Y180950D01*
X503864Y178982D01*
X490763D01*
X490306Y179578D01*
X489686Y180054D01*
X488964Y180353D01*
X488189Y180455D01*
X487414Y180353D01*
X486692Y180054D01*
X486072Y179578D01*
X485596Y178958D01*
X485297Y178236D01*
X485195Y177461D01*
X485297Y176686D01*
X485596Y175964D01*
X486072Y175344D01*
X486692Y174868D01*
X487414Y174568D01*
X488189Y174467D01*
X488964Y174568D01*
X489686Y174868D01*
X490306Y175344D01*
X490763Y175939D01*
X516831D01*
X517413Y176055D01*
X517907Y176385D01*
X525203Y183681D01*
X526067Y183973D01*
X527957Y182861D01*
X528035Y182753D01*
Y177937D01*
X533972D01*
Y177937D01*
X535417D01*
Y177937D01*
X541354D01*
Y184264D01*
X542830D01*
Y193764D01*
X542830D01*
X543354Y195516D01*
X550843D01*
Y167518D01*
X528715Y145390D01*
X526742D01*
X525092Y147040D01*
X524598Y147370D01*
X524016Y147486D01*
X521965D01*
Y149130D01*
X516470D01*
X516028Y149130D01*
Y149130D01*
X515204Y149018D01*
X514343Y149558D01*
X514114Y150294D01*
X513996Y151870D01*
X514207Y152145D01*
X514506Y152867D01*
X514608Y153642D01*
X514506Y154417D01*
X514207Y155139D01*
X513731Y155759D01*
X513111Y156235D01*
X512389Y156534D01*
X511614Y156636D01*
X510839Y156534D01*
X510117Y156235D01*
X509497Y155759D01*
X509117Y155263D01*
X498539D01*
Y158776D01*
X492209D01*
Y158776D01*
X491846D01*
Y158776D01*
X485516D01*
Y152839D01*
X485516D01*
X485220Y151689D01*
X485220Y151689D01*
X485220Y150992D01*
Y145752D01*
X487059D01*
Y145571D01*
X487183Y144950D01*
X487534Y144424D01*
X490437Y141522D01*
Y136205D01*
X491973D01*
Y113008D01*
X490437D01*
Y104905D01*
X488788Y104134D01*
X478346D01*
X469488Y112992D01*
X469488Y213538D01*
X498915D01*
X499522Y212755D01*
D02*
G37*
G36*
X209350Y265846D02*
X210728Y264469D01*
X210728Y236614D01*
X177559Y203445D01*
X177559Y192618D01*
X158514Y173573D01*
X188779Y143307D01*
X188779Y137598D01*
X167126Y115945D01*
X120571D01*
X115256Y121260D01*
Y126181D01*
X118110Y129035D01*
X154232D01*
X164961Y129035D01*
X173622Y137697D01*
X173622Y142421D01*
X139764Y176279D01*
X139764Y179724D01*
X143405Y183366D01*
X154724D01*
X167323Y195965D01*
Y200098D01*
X143012Y224410D01*
X143012Y261024D01*
X147835Y265846D01*
X209350Y265846D01*
D02*
G37*
G36*
X500870Y142504D02*
Y142504D01*
X504656D01*
X507290Y139869D01*
X507290Y139869D01*
X507784Y139539D01*
X508366Y139424D01*
X508646Y137514D01*
Y135909D01*
X514141D01*
X514583Y135909D01*
Y135909D01*
X515506Y136035D01*
X516593Y135378D01*
X516741Y135036D01*
X515540Y133146D01*
X508646D01*
Y132141D01*
X505921D01*
Y133283D01*
X499984D01*
Y128559D01*
X499984Y126953D01*
X499984Y124984D01*
Y120260D01*
X499984D01*
X500222Y118291D01*
X500061Y117901D01*
X499959Y117126D01*
X500061Y116351D01*
X500360Y115629D01*
X500836Y115009D01*
X501456Y114533D01*
X502178Y114234D01*
X502953Y114132D01*
X503728Y114234D01*
X504450Y114533D01*
X505070Y115009D01*
X505546Y115629D01*
X505845Y116351D01*
X505947Y117126D01*
X505845Y117901D01*
X505683Y118291D01*
X505921Y120260D01*
X505921D01*
X505921Y125877D01*
X507581Y127337D01*
X508646Y127019D01*
Y125240D01*
X511801D01*
X512729Y123272D01*
X512648Y123173D01*
X512598Y123180D01*
X511567Y123044D01*
X510605Y122646D01*
X509779Y122012D01*
X509146Y121186D01*
X508747Y120225D01*
X508612Y119193D01*
X508747Y118161D01*
X509146Y117200D01*
X509779Y116374D01*
X510605Y115740D01*
X511567Y115342D01*
X512598Y115206D01*
X513630Y115342D01*
X514592Y115740D01*
X515418Y116374D01*
X516051Y117200D01*
X516449Y118161D01*
X516585Y119193D01*
X516449Y120225D01*
X516254Y120697D01*
X520072Y124515D01*
X520072Y124515D01*
X520402Y125008D01*
X520517Y125591D01*
X520517Y125591D01*
Y136106D01*
X521965D01*
Y141871D01*
X523210Y142712D01*
X523905Y142866D01*
X524787Y142193D01*
Y139059D01*
X524787D01*
Y138697D01*
X524787D01*
Y132366D01*
X526134D01*
Y107283D01*
X526258Y106663D01*
X526609Y106137D01*
X526793Y105953D01*
X526040Y104134D01*
X499204D01*
X497555Y104905D01*
Y113008D01*
X496019D01*
Y136205D01*
X497555D01*
Y141522D01*
X498902Y142868D01*
X500870Y142504D01*
D02*
G37*
%LPC*%
G36*
X689268Y427772D02*
X679236D01*
Y421280D01*
X657096Y399140D01*
X656978Y399155D01*
X656203Y399054D01*
X655481Y398754D01*
X654861Y398279D01*
X654385Y397658D01*
X654086Y396936D01*
X653984Y396161D01*
X654086Y395387D01*
X654385Y394664D01*
X654861Y394044D01*
X655481Y393568D01*
X656203Y393269D01*
X656978Y393167D01*
X657753Y393269D01*
X658475Y393568D01*
X659095Y394044D01*
X659571Y394664D01*
X659870Y395387D01*
X659972Y396161D01*
X659957Y396279D01*
X677325Y413647D01*
X679128Y412787D01*
X679196Y412734D01*
X679365Y411447D01*
X679871Y410226D01*
X680675Y409179D01*
X680967Y408954D01*
X681099Y408637D01*
Y406875D01*
X680967Y406558D01*
X680675Y406333D01*
X679871Y405285D01*
X679365Y404065D01*
X679193Y402756D01*
X679365Y401446D01*
X679871Y400226D01*
X680675Y399179D01*
X681722Y398375D01*
X682943Y397869D01*
X684252Y397697D01*
X685561Y397869D01*
X686782Y398375D01*
X687829Y399179D01*
X688633Y400226D01*
X689139Y401446D01*
X689311Y402756D01*
X689139Y404065D01*
X688633Y405285D01*
X687829Y406333D01*
X687537Y406558D01*
X687405Y406875D01*
Y408637D01*
X687537Y408954D01*
X687829Y409179D01*
X688633Y410226D01*
X689139Y411447D01*
X689311Y412756D01*
X689139Y414065D01*
X688633Y415285D01*
X688260Y415772D01*
X688965Y417574D01*
X689117Y417740D01*
X689268D01*
Y427772D01*
D02*
G37*
G36*
X684252Y383405D02*
X682943Y383233D01*
X681722Y382728D01*
X680675Y381924D01*
X679871Y380876D01*
X679365Y379656D01*
X679193Y378346D01*
X679365Y377037D01*
X679871Y375817D01*
X680675Y374769D01*
X681722Y373965D01*
X682943Y373460D01*
X684252Y373287D01*
X685561Y373460D01*
X686782Y373965D01*
X687829Y374769D01*
X688633Y375817D01*
X689139Y377037D01*
X689311Y378346D01*
X689139Y379656D01*
X688633Y380876D01*
X687829Y381924D01*
X686782Y382728D01*
X685561Y383233D01*
X684252Y383405D01*
D02*
G37*
G36*
X684154Y307795D02*
X682844Y307623D01*
X681624Y307118D01*
X680576Y306313D01*
X679772Y305266D01*
X679267Y304046D01*
X679095Y302736D01*
X679267Y301427D01*
X679772Y300207D01*
X680576Y299159D01*
X681624Y298355D01*
X682844Y297850D01*
X684154Y297677D01*
X685463Y297850D01*
X686683Y298355D01*
X687731Y299159D01*
X688535Y300207D01*
X689040Y301427D01*
X689213Y302736D01*
X689040Y304046D01*
X688535Y305266D01*
X687731Y306313D01*
X686683Y307118D01*
X685463Y307623D01*
X684154Y307795D01*
D02*
G37*
G36*
X594587Y162555D02*
X592576Y162397D01*
X590616Y161926D01*
X588753Y161155D01*
X587033Y160101D01*
X585500Y158791D01*
X584190Y157258D01*
X583137Y155539D01*
X582365Y153676D01*
X581894Y151715D01*
X581736Y149705D01*
X581894Y147694D01*
X582365Y145734D01*
X583137Y143871D01*
X584190Y142151D01*
X585500Y140618D01*
X587033Y139308D01*
X588753Y138255D01*
X590616Y137483D01*
X592576Y137012D01*
X594587Y136854D01*
X596597Y137012D01*
X598558Y137483D01*
X600421Y138255D01*
X602140Y139308D01*
X603673Y140618D01*
X604983Y142151D01*
X606037Y143871D01*
X606808Y145734D01*
X607279Y147694D01*
X607437Y149705D01*
X607279Y151715D01*
X606808Y153676D01*
X606037Y155539D01*
X604983Y157258D01*
X603673Y158791D01*
X602140Y160101D01*
X600421Y161155D01*
X598558Y161926D01*
X596597Y162397D01*
X594587Y162555D01*
D02*
G37*
G36*
X593091Y127412D02*
X592059Y127276D01*
X591097Y126878D01*
X590271Y126244D01*
X589638Y125419D01*
X589240Y124457D01*
X589104Y123425D01*
X589240Y122393D01*
X589638Y121432D01*
X590271Y120606D01*
X591097Y119973D01*
X592059Y119574D01*
X593091Y119438D01*
X594122Y119574D01*
X595084Y119973D01*
X595910Y120606D01*
X596543Y121432D01*
X596942Y122393D01*
X597077Y123425D01*
X596942Y124457D01*
X596543Y125419D01*
X595910Y126244D01*
X595084Y126878D01*
X594122Y127276D01*
X593091Y127412D01*
D02*
G37*
G36*
X583091D02*
X582059Y127276D01*
X581097Y126878D01*
X580271Y126244D01*
X579638Y125419D01*
X579240Y124457D01*
X579104Y123425D01*
X579240Y122393D01*
X579638Y121432D01*
X580271Y120606D01*
X581097Y119973D01*
X582059Y119574D01*
X583091Y119438D01*
X584122Y119574D01*
X585084Y119973D01*
X585910Y120606D01*
X586543Y121432D01*
X586942Y122393D01*
X587077Y123425D01*
X586942Y124457D01*
X586543Y125419D01*
X585910Y126244D01*
X585084Y126878D01*
X584122Y127276D01*
X583091Y127412D01*
D02*
G37*
G36*
X593091Y117412D02*
X592059Y117276D01*
X591097Y116878D01*
X590271Y116244D01*
X589638Y115419D01*
X589240Y114457D01*
X589104Y113425D01*
X589240Y112393D01*
X589638Y111432D01*
X590271Y110606D01*
X591097Y109973D01*
X592059Y109574D01*
X593091Y109438D01*
X594122Y109574D01*
X595084Y109973D01*
X595910Y110606D01*
X596543Y111432D01*
X596942Y112393D01*
X597077Y113425D01*
X596942Y114457D01*
X596543Y115419D01*
X595910Y116244D01*
X595084Y116878D01*
X594122Y117276D01*
X593091Y117412D01*
D02*
G37*
G36*
X540197Y443093D02*
X539284Y442973D01*
X538434Y442621D01*
X537703Y442060D01*
X537143Y441330D01*
X536791Y440480D01*
X536671Y439567D01*
X536748Y438979D01*
X533806Y436037D01*
X533367Y435381D01*
X533213Y434606D01*
Y421850D01*
X532375D01*
Y415520D01*
X538312D01*
X539742Y414220D01*
Y409311D01*
X539843Y408806D01*
X540129Y408377D01*
X540558Y408091D01*
X541063Y407990D01*
X542835D01*
X543340Y408091D01*
X543769Y408377D01*
X544055Y408806D01*
X544155Y409311D01*
Y416476D01*
X544055Y416982D01*
X543769Y417410D01*
X543340Y417697D01*
X542835Y417797D01*
X542603D01*
X540663Y419738D01*
X540006Y420176D01*
X539232Y420330D01*
X538312D01*
Y421850D01*
X537259D01*
Y433768D01*
X539609Y436118D01*
X540197Y436041D01*
X541110Y436161D01*
X541960Y436513D01*
X542690Y437074D01*
X543251Y437804D01*
X543603Y438654D01*
X543723Y439567D01*
X543603Y440480D01*
X543251Y441330D01*
X542690Y442060D01*
X541960Y442621D01*
X541110Y442973D01*
X540197Y443093D01*
D02*
G37*
%LPD*%
D10*
X583366Y226870D02*
X616240Y193996D01*
X567736Y226870D02*
X583366D01*
X540453Y199587D02*
Y206594D01*
X538779Y208268D02*
X540453Y206594D01*
X469311Y396240D02*
X472736Y392815D01*
X461417Y396240D02*
X469311D01*
X472736Y392618D02*
Y392815D01*
X473228Y392618D02*
X481201Y384646D01*
Y349311D02*
Y384646D01*
X629724Y351181D02*
X630709Y350197D01*
Y347047D02*
Y350197D01*
X618898Y351181D02*
X629724D01*
X542433Y204342D02*
X544390Y206299D01*
X542433Y199598D02*
Y204342D01*
X558169Y142520D02*
Y199587D01*
X554232Y158366D02*
Y199587D01*
X538091Y142224D02*
X554232Y158366D01*
X556201Y155118D02*
Y199587D01*
X548032Y146949D02*
X556201Y155118D01*
X548032Y142224D02*
Y146949D01*
X542421Y199587D02*
X542433Y199598D01*
X539680Y182594D02*
Y189014D01*
X538386Y181299D02*
X539680Y182594D01*
X530080Y182223D02*
X531004Y181299D01*
X530080Y182223D02*
Y189014D01*
X539680D02*
Y192013D01*
X536516Y195177D02*
X539680Y192013D01*
X536516Y195177D02*
Y199587D01*
X530080Y190614D02*
X534547Y195081D01*
X530080Y189014D02*
Y190614D01*
X534547Y195081D02*
Y199587D01*
X550295D02*
Y206398D01*
X552264Y166929D02*
Y199587D01*
X527756Y142421D02*
X552264Y166929D01*
X527756Y142224D02*
Y142421D01*
X538091Y142028D02*
Y142224D01*
X575886Y142126D02*
Y183839D01*
X560138Y199587D02*
X575886Y183839D01*
X557874Y142224D02*
X558169Y142520D01*
D13*
X653021Y268596D02*
X655180Y266437D01*
X659547D01*
X620472Y254823D02*
Y261221D01*
Y254823D02*
X620866Y254429D01*
X614272Y128347D02*
X615256Y127362D01*
X614272Y128347D02*
X614370Y128445D01*
X648503Y247322D02*
Y253071D01*
X661221Y222539D02*
X661516Y222244D01*
X590354Y383760D02*
X590748Y383366D01*
X625591Y329035D02*
X626378Y329823D01*
X614961Y127067D02*
X615158Y126870D01*
X520669Y197520D02*
X522736Y199587D01*
X520669Y187697D02*
Y197520D01*
X516831Y177461D02*
X524705Y185335D01*
Y199587D01*
X520669Y185138D02*
Y187697D01*
X515945Y180413D02*
X520669Y185138D01*
X507368Y180413D02*
X515945D01*
X502362Y185419D02*
X507368Y180413D01*
X502362Y185419D02*
Y194587D01*
X502756Y194980D01*
Y210433D01*
X487894Y265453D02*
Y272933D01*
X487992Y273031D01*
X488189Y177461D02*
X516831D01*
X573032Y215059D02*
X597736Y190354D01*
X567736Y215059D02*
X573032D01*
X658661Y111122D02*
X659646Y112106D01*
X652264Y111122D02*
X658661D01*
X651689Y111500D02*
X652067Y111122D01*
X651689Y111500D02*
Y121047D01*
X656693Y319193D02*
Y321850D01*
X653150Y245669D02*
X653346D01*
X651103Y247716D02*
Y253071D01*
X649902Y122835D02*
X651689Y121047D01*
X648032Y122835D02*
X649902D01*
X600295Y380610D02*
X611024Y391339D01*
X600295Y368110D02*
Y380610D01*
X558169Y325984D02*
X600295Y368110D01*
X669980Y436614D02*
X670177Y436417D01*
X583760Y358071D02*
X585138Y359449D01*
Y397618D01*
X584449Y398307D02*
X585138Y397618D01*
X628642Y253839D02*
X634547D01*
X628642D02*
X629823Y252658D01*
Y247933D02*
Y252658D01*
Y247933D02*
X631299Y246457D01*
X614961Y127067D02*
X615256Y127362D01*
X543307Y260827D02*
X548327Y255807D01*
X543307Y260827D02*
Y265650D01*
X620571Y261221D02*
X621457Y260335D01*
X404626Y413484D02*
Y414764D01*
X435138Y249508D02*
X476181D01*
X434842Y249213D02*
X435138Y249508D01*
X476181D02*
X485039Y240650D01*
X463051Y234606D02*
X515000D01*
X458957Y230512D02*
X463051Y234606D01*
X399252Y406850D02*
X399410Y406693D01*
X394252Y406850D02*
X399252D01*
X394094Y407008D02*
X394252Y406850D01*
X597736Y169882D02*
Y190354D01*
Y169882D02*
X614665Y152953D01*
Y142323D02*
Y152953D01*
X359995Y363496D02*
X378925D01*
X359904Y363405D02*
X359995Y363496D01*
X352294Y363405D02*
X359904D01*
X434842Y233858D02*
X439665Y238681D01*
X479035D01*
X515000Y234606D02*
X515138Y234744D01*
X434646Y233858D02*
X434842D01*
X620079Y282087D02*
X620669Y282677D01*
X613779Y282087D02*
X620079D01*
X567753Y244649D02*
X567815Y244587D01*
X570256D01*
X567753Y244649D02*
Y249495D01*
X579556Y247174D02*
Y248339D01*
X573091Y240709D02*
X579556Y247174D01*
X567795Y240709D02*
X573091D01*
X574902Y238681D02*
X583198Y246977D01*
Y255229D01*
X567736Y238681D02*
X574902D01*
X587189Y249031D02*
X587500Y248721D01*
X587189Y249031D02*
Y327937D01*
X603887Y344635D01*
X567736Y240650D02*
X567795Y240709D01*
X577559Y221949D02*
X578150D01*
X574606Y224902D02*
X577559Y221949D01*
X567736Y224902D02*
X574606D01*
X622047Y364567D02*
X626713D01*
X626772Y364508D01*
Y363976D02*
Y364508D01*
X620866Y288681D02*
X627303D01*
X627362Y288622D01*
Y288090D02*
Y288622D01*
X620965Y276279D02*
X629921D01*
X524360Y244734D02*
X524705Y245079D01*
Y252185D01*
X476181Y340059D02*
X554232Y262008D01*
X422441Y340059D02*
X476181D01*
X554232Y252185D02*
Y262008D01*
X283814Y374870D02*
Y376685D01*
Y374870D02*
X287357Y371327D01*
X645989Y268394D02*
X648503Y265880D01*
X645571Y161417D02*
X648425Y164272D01*
X611713Y165059D02*
X612598D01*
X611516D02*
X611713D01*
X602953Y173622D02*
X611516Y165059D01*
X602953Y173622D02*
Y193602D01*
X645541Y268843D02*
X645989Y268394D01*
X649803Y279035D02*
X660630D01*
X646457Y275689D02*
X649803Y279035D01*
X652953Y268665D02*
X653021Y268596D01*
X652953Y268665D02*
Y275689D01*
X646260Y268665D02*
Y275689D01*
Y268665D02*
X646328Y268596D01*
X458022Y411368D02*
X459350Y412697D01*
X626630Y341732D02*
X628740Y343842D01*
X609547Y341732D02*
X626630D01*
X605020Y337205D02*
X609547Y341732D01*
X628740Y343842D02*
Y347047D01*
X630709Y341437D02*
Y347047D01*
X626575Y337303D02*
X630709Y341437D01*
X625098Y337303D02*
X626575D01*
X549409Y402658D02*
X556949Y410197D01*
X530079Y402658D02*
X549409D01*
X527756Y404980D02*
X530079Y402658D01*
X606004Y346752D02*
X626575D01*
X603887Y344635D02*
X606004Y346752D01*
X631299Y288779D02*
Y293406D01*
X513976Y187697D02*
X515650Y189370D01*
Y193799D01*
X516535Y194685D01*
X542913Y372638D02*
Y377559D01*
X537402Y383071D02*
X542913Y377559D01*
X537402Y383071D02*
Y396949D01*
X644745Y332874D02*
X645936Y331683D01*
X639567Y332874D02*
X644745D01*
X637205Y330512D02*
X639567Y332874D01*
X626575Y330315D02*
X637205D01*
X637008Y319094D02*
X637500Y319587D01*
X640059Y161417D02*
X640256D01*
X645374D02*
X645571D01*
X664075Y436614D02*
X669980D01*
X670177Y436417D02*
X670374Y436614D01*
X509547Y201555D02*
X515158Y207165D01*
X509547Y194685D02*
Y201555D01*
X537992Y204232D02*
X538484Y203740D01*
Y199587D02*
Y203740D01*
X529626Y207185D02*
X532579Y204232D01*
X537992D01*
X532579Y199587D02*
Y204232D01*
X509547Y194685D02*
X509842D01*
X509547Y201555D02*
Y210963D01*
X631299Y265354D02*
Y271161D01*
X627165Y261221D02*
X631299Y265354D01*
X637500Y319587D02*
X643504D01*
X631299Y271161D02*
Y274902D01*
X629921Y276279D02*
X631299Y274902D01*
X620669Y275984D02*
X620965Y276279D01*
X612500Y357874D02*
X618898D01*
X611909Y358465D02*
X612500Y357874D01*
X454959Y364923D02*
Y384506D01*
X453937Y385528D02*
X454959Y384506D01*
X453937Y385528D02*
Y396240D01*
X454959Y364923D02*
X556079Y263803D01*
X531496Y352658D02*
X558169Y325984D01*
X531496Y352658D02*
Y381004D01*
X548327Y252185D02*
Y255807D01*
X509547Y210963D02*
X511616Y213032D01*
X515079D01*
X515138Y213090D01*
X518996Y125591D02*
Y139272D01*
X512598Y119193D02*
X518996Y125591D01*
X632677Y372244D02*
X634646Y370276D01*
Y363976D02*
Y370276D01*
X630693Y355331D02*
X630709Y355346D01*
Y363976D01*
X630693Y355331D02*
X632677Y353346D01*
Y347047D02*
Y353346D01*
X628740Y360138D02*
Y363976D01*
X626476Y357874D02*
X628740Y360138D01*
X618898Y357874D02*
X626476D01*
X458022Y406466D02*
Y411368D01*
X457677Y406122D02*
X458022Y406466D01*
X552264Y244685D02*
Y252185D01*
X552067Y244488D02*
X552264Y244685D01*
X670374Y436614D02*
Y436811D01*
X586516Y433366D02*
X592224D01*
X593307Y434449D01*
X499508Y355315D02*
Y388386D01*
X506496Y395374D01*
X425000Y434842D02*
X431102D01*
X450807Y215059D02*
X515138D01*
X355039Y119291D02*
X450807Y215059D01*
X345039Y119291D02*
X442776Y217028D01*
X515138D01*
X503839Y145472D02*
Y145669D01*
Y145472D02*
X508366Y140945D01*
X509941D01*
X511614Y139272D01*
X513287Y140945D01*
X514173D01*
X518996Y145768D01*
Y145965D01*
X556079Y252307D02*
Y263803D01*
X558169Y252185D02*
Y325984D01*
X515138Y207185D02*
X529626D01*
X515138D02*
X515158Y207165D01*
X458858Y374606D02*
Y381299D01*
X459252Y381693D01*
X526673Y252185D02*
Y259154D01*
X521949Y263878D02*
X526673Y259154D01*
X516732Y263878D02*
X521949D01*
X523661Y257185D02*
X524705Y256142D01*
X516732Y257185D02*
X523661D01*
X524705Y252185D02*
Y256142D01*
X556079Y252307D02*
X556201Y252185D01*
X383563Y393287D02*
X387106Y396831D01*
X383563Y378937D02*
Y393287D01*
Y378937D02*
X422441Y340059D01*
X579528Y217028D02*
X602953Y193602D01*
X567736Y217028D02*
X579528D01*
X588189Y414744D02*
X590650Y417205D01*
Y418405D01*
X574311Y384252D02*
Y384678D01*
X571949Y387040D02*
X574311Y384678D01*
X571949Y387040D02*
Y393406D01*
X566949Y390709D02*
X569488Y388169D01*
Y376181D02*
Y388169D01*
Y376181D02*
X574409Y371260D01*
X405709Y387205D02*
Y391732D01*
X400984Y382480D02*
X405709Y387205D01*
X402215Y395226D02*
X405709Y391732D01*
X395236Y395226D02*
X402215D01*
X400984Y382283D02*
Y382480D01*
X524016Y145965D02*
X527756Y142224D01*
X518996Y145965D02*
X524016D01*
X576949Y415295D02*
X577638Y415984D01*
X597736Y390748D02*
X603937D01*
X604528Y391339D01*
X611024D02*
X611221D01*
X604055Y398307D02*
X611024Y391339D01*
X591929Y398307D02*
X604055D01*
X506496Y395374D02*
X519626D01*
X520276Y396024D01*
Y396142D01*
X525197Y373671D02*
Y373721D01*
X588189Y408189D02*
Y414744D01*
X590256Y390354D02*
X590650Y390748D01*
X561949Y390118D02*
Y393406D01*
Y390118D02*
X562992Y389075D01*
Y386417D02*
Y389075D01*
Y386417D02*
X564272Y385138D01*
X534957Y382988D02*
Y390480D01*
X532972Y381004D02*
X534957Y382988D01*
X531496Y381004D02*
X532972D01*
X530900Y394537D02*
X534957Y390480D01*
X528406Y394537D02*
X530900D01*
X527756Y395187D02*
X528406Y394537D01*
X527756Y395187D02*
Y396142D01*
X517323Y387894D02*
X517421Y387795D01*
X566949Y390709D02*
Y393406D01*
X564272Y385138D02*
X564468D01*
X556949Y385965D02*
Y393406D01*
Y385965D02*
X557776Y385138D01*
X551575Y393032D02*
X551949Y393406D01*
X551575Y386614D02*
Y393032D01*
X550098Y385138D02*
X551575Y386614D01*
X549902Y385138D02*
X550098D01*
X541949Y386398D02*
X543209Y385138D01*
X541949Y386398D02*
Y393406D01*
X539228Y398776D02*
X544276D01*
X546949Y396102D01*
X537402Y396949D02*
X539228Y398776D01*
X546949Y393406D02*
Y396102D01*
X542913Y372638D02*
X544587Y370965D01*
X520276Y406024D02*
X520925Y405374D01*
Y403648D02*
Y405374D01*
Y403648D02*
X523813Y400760D01*
X572291D02*
X576949Y396102D01*
X523813Y400760D02*
X572291D01*
X527756Y404980D02*
Y406024D01*
X556949Y410197D02*
Y412894D01*
X576949Y393406D02*
Y396102D01*
X584449Y408173D02*
Y408189D01*
X400886Y388878D02*
X400984Y388976D01*
X394587Y395876D02*
X395236Y395226D01*
X394587Y395876D02*
Y396831D01*
X352514Y384559D02*
Y384756D01*
X276321Y367886D02*
X277758Y366449D01*
X283814D01*
X287357Y363102D02*
Y371327D01*
X284010Y359756D02*
X287357Y363102D01*
X284010Y359559D02*
Y359756D01*
X661516Y222244D02*
X662303Y223031D01*
X631201Y207972D02*
X631693Y208465D01*
X661909Y215945D02*
X662303Y216339D01*
X637795Y215945D02*
X639567D01*
X639075Y176181D02*
X642224Y173031D01*
Y163386D02*
Y173031D01*
X640256Y161417D02*
X642224Y163386D01*
X638189Y176181D02*
X639075D01*
X648425Y164272D02*
Y168701D01*
X643504Y141929D02*
X643701Y141732D01*
Y134547D02*
Y141732D01*
X629036Y142323D02*
Y142520D01*
X631906Y145390D01*
X639847D01*
X643307Y141929D01*
X643504D01*
X636811D02*
X637008Y141732D01*
Y134547D02*
Y141732D01*
X628937Y142421D02*
X629036Y142323D01*
X621457Y142421D02*
X628937D01*
X621358Y142323D02*
X621457Y142421D01*
X614665Y142323D02*
X614764Y142224D01*
Y134744D02*
Y142224D01*
X614370Y128445D02*
X614764Y128051D01*
X621457D02*
X627362Y133957D01*
X627559D01*
X629036Y135433D01*
Y135630D01*
X614764Y128051D02*
X621457D01*
X637795Y119095D02*
X638681D01*
X637008Y134547D02*
X637795Y133760D01*
Y126575D02*
Y133760D01*
X631201Y126476D02*
X631299Y126575D01*
X637795D01*
X642913Y133760D02*
X643701Y134547D01*
X642913Y122398D02*
Y133760D01*
Y122398D02*
X645429Y119882D01*
X647244D01*
X648032Y119095D01*
X654921Y126575D02*
X655315Y126181D01*
X634547Y253839D02*
X634941Y254232D01*
X631299Y246457D02*
X632087D01*
X634941Y254232D02*
Y254331D01*
X620768Y260335D02*
X621457D01*
X626722Y371604D02*
X630709Y367618D01*
Y363976D02*
Y367618D01*
X641437Y362106D02*
Y363484D01*
X636024Y356693D02*
X641437Y362106D01*
X634055Y356693D02*
X636024D01*
X641437Y363484D02*
X641732D01*
X648819Y370571D02*
X649016D01*
X632677Y358071D02*
Y363976D01*
X648622Y355413D02*
X648819Y355610D01*
X648622Y348130D02*
Y355413D01*
X648425Y342126D02*
X649508Y343209D01*
X648425Y339469D02*
Y342126D01*
Y348130D02*
X648622D01*
X645944Y345649D02*
X648425Y348130D01*
X645944Y338465D02*
Y345649D01*
X649508Y343209D02*
X661516D01*
X661614Y343307D01*
X632677Y358071D02*
X634055Y356693D01*
X637205Y330315D02*
Y330512D01*
X645936Y328472D02*
Y331683D01*
Y328472D02*
X645944Y328465D01*
X641776Y325197D02*
X643444Y326865D01*
X636614Y325197D02*
X641776D01*
X630512Y319094D02*
X636614Y325197D01*
X630315Y319094D02*
X630512D01*
X643444Y326865D02*
Y328465D01*
X643504Y319587D02*
X645944Y322027D01*
Y328465D01*
X643504Y319587D02*
X649803D01*
X650197Y319193D01*
X655315Y323228D02*
X656693Y321850D01*
Y319193D02*
X656890D01*
X649697Y323228D02*
X655315D01*
X648544Y324381D02*
X649697Y323228D01*
X648544Y324381D02*
Y328465D01*
X637205Y337008D02*
X638661Y338465D01*
X643444D01*
X634721Y347047D02*
X636461D01*
X643444Y340065D01*
Y338465D02*
Y340065D01*
X652824Y268596D02*
X653021D01*
X650987Y266759D02*
X652824Y268596D01*
X650987Y261896D02*
Y266759D01*
X648503Y263071D02*
Y265880D01*
X635236Y261024D02*
X635236Y261024D01*
X635583Y261370D02*
X636713Y262500D01*
X635236Y291335D02*
X636098Y292197D01*
X635236Y288090D02*
Y291335D01*
X636098Y292197D02*
Y297193D01*
X637205Y298299D01*
X630512Y294193D02*
X631299Y293406D01*
X630512Y294193D02*
Y298299D01*
X632087Y243307D02*
Y246457D01*
Y243307D02*
X635335Y240059D01*
X641543D01*
X646063Y244579D01*
X655315Y348130D02*
X655512Y348327D01*
X648819Y356398D02*
X655512Y363090D01*
X648819Y355610D02*
Y356398D01*
X655512Y363090D02*
X655709D01*
X653487Y251896D02*
Y252189D01*
X653995Y252697D01*
X646063Y245079D02*
X646654Y245669D01*
X636713Y262500D02*
X645495D01*
X646003Y263008D01*
Y263071D01*
Y251471D02*
Y253071D01*
X645495Y250963D02*
X646003Y251471D01*
X643483Y250963D02*
X645495D01*
X638976Y246457D02*
X643483Y250963D01*
X638779Y246457D02*
X638976D01*
X646654Y245669D02*
X646850D01*
X648503Y247322D01*
X651103Y247716D02*
X653150Y245669D01*
D20*
X271260Y256004D02*
D03*
Y262697D02*
D03*
X357972Y256594D02*
D03*
Y263287D02*
D03*
X271949Y185433D02*
D03*
Y192126D02*
D03*
X358366Y190847D02*
D03*
Y197539D02*
D03*
X566732Y135433D02*
D03*
Y142126D02*
D03*
X575886D02*
D03*
Y135433D02*
D03*
X527756Y142224D02*
D03*
Y135531D02*
D03*
X502953Y123425D02*
D03*
Y130118D02*
D03*
X518996Y145965D02*
D03*
Y139272D02*
D03*
X511614Y139075D02*
D03*
Y145768D02*
D03*
X503839Y138976D02*
D03*
Y145669D02*
D03*
X548032Y135531D02*
D03*
Y142224D02*
D03*
X557874Y135531D02*
D03*
Y142224D02*
D03*
X294247Y390268D02*
D03*
Y383575D02*
D03*
X614764Y134744D02*
D03*
Y128051D02*
D03*
X655315Y126181D02*
D03*
Y132874D02*
D03*
X613386Y378839D02*
D03*
Y372146D02*
D03*
X625098Y337303D02*
D03*
Y330610D02*
D03*
X618898Y351181D02*
D03*
Y357874D02*
D03*
X622244Y298425D02*
D03*
Y305118D02*
D03*
X620669Y275984D02*
D03*
Y282677D02*
D03*
X660138Y279626D02*
D03*
Y272933D02*
D03*
X634941Y261024D02*
D03*
Y254331D02*
D03*
X670374Y436811D02*
D03*
Y443504D02*
D03*
X593307Y434449D02*
D03*
Y441142D02*
D03*
X512598Y434449D02*
D03*
Y441142D02*
D03*
X431102Y434842D02*
D03*
Y441535D02*
D03*
X666142Y165650D02*
D03*
Y158957D02*
D03*
X531496Y381004D02*
D03*
Y387697D02*
D03*
X517618D02*
D03*
Y381004D02*
D03*
X590256Y390354D02*
D03*
Y383661D02*
D03*
X538386Y181102D02*
D03*
Y174409D02*
D03*
X531004Y181102D02*
D03*
Y174409D02*
D03*
X535344Y418685D02*
D03*
Y411992D02*
D03*
X472736Y392618D02*
D03*
Y385925D02*
D03*
X389272Y388878D02*
D03*
Y382185D02*
D03*
X459252Y388386D02*
D03*
Y381693D02*
D03*
X400984Y382283D02*
D03*
Y388976D02*
D03*
X405413Y414173D02*
D03*
Y407480D02*
D03*
X291491Y359559D02*
D03*
Y352866D02*
D03*
X611713Y165059D02*
D03*
Y171752D02*
D03*
X622736Y161614D02*
D03*
Y168307D02*
D03*
X662303Y223031D02*
D03*
Y216339D02*
D03*
X653937Y156791D02*
D03*
Y163484D02*
D03*
X616240Y193799D02*
D03*
Y200492D02*
D03*
X662303Y201772D02*
D03*
Y208465D02*
D03*
X631201Y201279D02*
D03*
Y207972D02*
D03*
X654921Y197343D02*
D03*
Y204035D02*
D03*
X629036Y142323D02*
D03*
Y135630D02*
D03*
X631201Y119783D02*
D03*
Y126476D02*
D03*
X637205Y337008D02*
D03*
Y330315D02*
D03*
X538091Y142028D02*
D03*
Y135335D02*
D03*
X162205Y282776D02*
D03*
Y276083D02*
D03*
X352294Y370098D02*
D03*
Y363405D02*
D03*
X352514Y384756D02*
D03*
Y378063D02*
D03*
X284010Y352866D02*
D03*
Y359559D02*
D03*
X359995Y370189D02*
D03*
Y363496D02*
D03*
X261713Y363386D02*
D03*
Y370079D02*
D03*
X268821Y367886D02*
D03*
Y374579D02*
D03*
X276321Y367886D02*
D03*
Y374579D02*
D03*
X603937Y325197D02*
D03*
Y318504D02*
D03*
X596457Y325197D02*
D03*
Y318504D02*
D03*
X611417Y325394D02*
D03*
Y318701D02*
D03*
X300500Y428653D02*
D03*
Y435347D02*
D03*
X516732Y257185D02*
D03*
Y263878D02*
D03*
X495374Y279724D02*
D03*
Y286417D02*
D03*
X502854Y272736D02*
D03*
Y279429D02*
D03*
X487992Y273031D02*
D03*
Y279724D02*
D03*
X256000Y453653D02*
D03*
Y460347D02*
D03*
X289575Y460653D02*
D03*
Y467346D02*
D03*
X280575D02*
D03*
Y460653D02*
D03*
X271681Y467346D02*
D03*
Y460653D02*
D03*
X286189Y427382D02*
D03*
Y434075D02*
D03*
X278689Y434261D02*
D03*
Y427568D02*
D03*
X271189Y434261D02*
D03*
Y427568D02*
D03*
X263689Y419575D02*
D03*
Y412882D02*
D03*
Y434075D02*
D03*
Y427382D02*
D03*
X240158Y434055D02*
D03*
Y427362D02*
D03*
X227854Y434055D02*
D03*
Y427362D02*
D03*
X195571Y346949D02*
D03*
Y340256D02*
D03*
X161713Y346850D02*
D03*
Y340158D02*
D03*
X195374Y275787D02*
D03*
Y282480D02*
D03*
X255512Y484842D02*
D03*
Y491535D02*
D03*
X180217Y460630D02*
D03*
Y467323D02*
D03*
X252494Y387610D02*
D03*
Y380917D02*
D03*
X228543Y387106D02*
D03*
Y380413D02*
D03*
X259547Y387697D02*
D03*
Y381004D02*
D03*
D21*
X279232Y266437D02*
D03*
Y254626D02*
D03*
X279331Y195473D02*
D03*
Y183661D02*
D03*
X273327Y223031D02*
D03*
Y234842D02*
D03*
X274705Y287118D02*
D03*
Y298929D02*
D03*
X284734Y334756D02*
D03*
Y322945D02*
D03*
X293996Y298929D02*
D03*
Y287118D02*
D03*
X281090Y170013D02*
D03*
Y158202D02*
D03*
X357675Y169226D02*
D03*
Y157415D02*
D03*
X348193Y169226D02*
D03*
Y157415D02*
D03*
X360925Y298929D02*
D03*
Y287118D02*
D03*
X292224Y234941D02*
D03*
Y223130D02*
D03*
X284547Y298929D02*
D03*
Y287118D02*
D03*
X350098Y223130D02*
D03*
Y234941D02*
D03*
X294183Y334756D02*
D03*
Y322945D02*
D03*
X352658Y322551D02*
D03*
Y334362D02*
D03*
X290539Y170013D02*
D03*
Y158202D02*
D03*
X362106Y322551D02*
D03*
Y334362D02*
D03*
X351476Y298929D02*
D03*
Y287118D02*
D03*
X282776Y234941D02*
D03*
Y223130D02*
D03*
X359547D02*
D03*
Y234941D02*
D03*
X670669Y451181D02*
D03*
Y462992D02*
D03*
X593307Y451181D02*
D03*
Y462992D02*
D03*
X512598D02*
D03*
Y451181D02*
D03*
X431496Y462992D02*
D03*
Y451181D02*
D03*
X252756Y370472D02*
D03*
Y358661D02*
D03*
X170866Y357874D02*
D03*
Y369685D02*
D03*
X346260Y450787D02*
D03*
Y462598D02*
D03*
X270722Y158268D02*
D03*
Y170079D02*
D03*
X275098Y322945D02*
D03*
Y334756D02*
D03*
D22*
X251476Y334559D02*
D03*
X258169D02*
D03*
X193602Y494095D02*
D03*
X200295D02*
D03*
X495374Y155807D02*
D03*
X488681D02*
D03*
X481693Y148721D02*
D03*
X488386D02*
D03*
X426476Y306988D02*
D03*
X433169D02*
D03*
X657480Y118405D02*
D03*
X664173D02*
D03*
X649016Y378051D02*
D03*
X655709D02*
D03*
X632283Y372441D02*
D03*
X625591D02*
D03*
X632087Y379921D02*
D03*
X625394D02*
D03*
X656890Y319193D02*
D03*
X650197D02*
D03*
X630315Y319094D02*
D03*
X637008D02*
D03*
X638779Y246457D02*
D03*
X632087D02*
D03*
X647146Y294291D02*
D03*
X653839D02*
D03*
X627165Y261221D02*
D03*
X620472D02*
D03*
X637205Y306299D02*
D03*
X630512D02*
D03*
X637205Y298299D02*
D03*
X630512D02*
D03*
X653334Y244296D02*
D03*
X646641D02*
D03*
X657874Y173228D02*
D03*
X664567D02*
D03*
X655315Y180709D02*
D03*
X662008D02*
D03*
X641142Y223622D02*
D03*
X647835D02*
D03*
X434646Y226378D02*
D03*
X427953D02*
D03*
X432972Y292126D02*
D03*
X426279D02*
D03*
X434842Y241634D02*
D03*
X428150D02*
D03*
X434842Y249213D02*
D03*
X428150D02*
D03*
X432972Y299508D02*
D03*
X426279D02*
D03*
X433169Y314665D02*
D03*
X426476D02*
D03*
X434646Y233858D02*
D03*
X427953D02*
D03*
X611221Y391339D02*
D03*
X604528D02*
D03*
X564468Y385138D02*
D03*
X557776D02*
D03*
X543209D02*
D03*
X549902D02*
D03*
X434842Y383957D02*
D03*
X428150D02*
D03*
X420177D02*
D03*
X413484D02*
D03*
X631890Y153937D02*
D03*
X625197D02*
D03*
X640059Y161417D02*
D03*
X646752D02*
D03*
X639961Y153937D02*
D03*
X646654D02*
D03*
X640453Y193307D02*
D03*
X647146D02*
D03*
X640453Y200787D02*
D03*
X647146D02*
D03*
X631299Y193405D02*
D03*
X624606D02*
D03*
X637008Y134547D02*
D03*
X643701D02*
D03*
X636811Y141929D02*
D03*
X643504D02*
D03*
X645374Y111122D02*
D03*
X652067D02*
D03*
X621358Y142323D02*
D03*
X614665D02*
D03*
X653021Y268596D02*
D03*
X646328D02*
D03*
X652953Y275689D02*
D03*
X646260D02*
D03*
X655709Y363090D02*
D03*
X649016D02*
D03*
X655315Y348130D02*
D03*
X648622D02*
D03*
X655512Y355610D02*
D03*
X648819D02*
D03*
X653839Y286811D02*
D03*
X647146D02*
D03*
X655709Y370571D02*
D03*
X649016D02*
D03*
X308605Y391571D02*
D03*
X301912D02*
D03*
X286569Y385740D02*
D03*
X279876D02*
D03*
X299114Y357382D02*
D03*
X305807D02*
D03*
X269247Y360150D02*
D03*
X275939D02*
D03*
X606890Y310630D02*
D03*
X600197D02*
D03*
X327847Y421000D02*
D03*
X321153D02*
D03*
X516535Y194685D02*
D03*
X509842D02*
D03*
X502362Y194587D02*
D03*
X495669D02*
D03*
X520669Y187697D02*
D03*
X513976D02*
D03*
X572933Y194095D02*
D03*
X579626D02*
D03*
X572933Y201083D02*
D03*
X579626D02*
D03*
X264370Y450787D02*
D03*
X271063D02*
D03*
X313650Y481500D02*
D03*
X320342D02*
D03*
X262846Y468000D02*
D03*
X256153D02*
D03*
X284728Y412228D02*
D03*
X278035D02*
D03*
X284728Y419728D02*
D03*
X278035D02*
D03*
X256102Y420079D02*
D03*
X249410D02*
D03*
X238386Y419291D02*
D03*
X231693D02*
D03*
X259350Y297539D02*
D03*
X252658D02*
D03*
X256988Y234449D02*
D03*
X250295D02*
D03*
X254921Y169783D02*
D03*
X248228D02*
D03*
X245276Y393996D02*
D03*
X238583D02*
D03*
D23*
X301018Y156516D02*
D03*
Y161516D02*
D03*
Y166516D02*
D03*
Y171516D02*
D03*
X337671D02*
D03*
Y166516D02*
D03*
Y161516D02*
D03*
Y156516D02*
D03*
X302854Y221673D02*
D03*
Y226673D02*
D03*
Y231673D02*
D03*
Y236673D02*
D03*
X339508D02*
D03*
Y231673D02*
D03*
Y226673D02*
D03*
Y221673D02*
D03*
X341644Y321587D02*
D03*
Y326587D02*
D03*
Y331587D02*
D03*
Y336587D02*
D03*
X304990D02*
D03*
Y331587D02*
D03*
Y326587D02*
D03*
Y321587D02*
D03*
X341457Y285366D02*
D03*
Y290366D02*
D03*
Y295366D02*
D03*
Y300366D02*
D03*
X304803D02*
D03*
Y295366D02*
D03*
Y290366D02*
D03*
Y285366D02*
D03*
D24*
X522736Y252185D02*
D03*
X524705D02*
D03*
X526673D02*
D03*
X528642D02*
D03*
X530610D02*
D03*
X532579D02*
D03*
X534547D02*
D03*
X536516D02*
D03*
X538484D02*
D03*
X540453D02*
D03*
X542421D02*
D03*
X544390D02*
D03*
X546358D02*
D03*
X548327D02*
D03*
X550295D02*
D03*
X552264D02*
D03*
X554232D02*
D03*
X556201D02*
D03*
X558169D02*
D03*
X560138D02*
D03*
Y199587D02*
D03*
X558169D02*
D03*
X556201D02*
D03*
X554232D02*
D03*
X552264D02*
D03*
X550295D02*
D03*
X548327D02*
D03*
X546358D02*
D03*
X544390D02*
D03*
X542421D02*
D03*
X540453D02*
D03*
X538484D02*
D03*
X536516D02*
D03*
X534547D02*
D03*
X532579D02*
D03*
X530610D02*
D03*
X528642D02*
D03*
X526673D02*
D03*
X524705D02*
D03*
X522736D02*
D03*
D25*
X515138Y207185D02*
D03*
Y209154D02*
D03*
Y211122D02*
D03*
Y213090D02*
D03*
Y215059D02*
D03*
Y217028D02*
D03*
Y218996D02*
D03*
Y220965D02*
D03*
Y222933D02*
D03*
Y224902D02*
D03*
Y226870D02*
D03*
Y228839D02*
D03*
Y230807D02*
D03*
Y232776D02*
D03*
Y234744D02*
D03*
Y236713D02*
D03*
Y238681D02*
D03*
Y240650D02*
D03*
Y242618D02*
D03*
Y244587D02*
D03*
X567736D02*
D03*
Y242618D02*
D03*
Y240650D02*
D03*
Y238681D02*
D03*
Y236713D02*
D03*
Y234744D02*
D03*
Y232776D02*
D03*
Y230807D02*
D03*
Y228839D02*
D03*
Y226870D02*
D03*
Y224902D02*
D03*
Y222933D02*
D03*
Y220965D02*
D03*
Y218996D02*
D03*
Y217028D02*
D03*
Y215059D02*
D03*
Y213090D02*
D03*
Y211122D02*
D03*
Y209154D02*
D03*
Y207185D02*
D03*
D26*
X493996Y140256D02*
D03*
Y108957D02*
D03*
X476279Y140256D02*
D03*
Y108957D02*
D03*
D27*
X242520Y155512D02*
D03*
X259449D02*
D03*
X245177Y223327D02*
D03*
X262106D02*
D03*
X246850Y285445D02*
D03*
X263779D02*
D03*
X263386Y320681D02*
D03*
X246457D02*
D03*
D28*
X637795Y208465D02*
D03*
Y215945D02*
D03*
X648032D02*
D03*
Y212205D02*
D03*
Y208465D02*
D03*
X638189Y168701D02*
D03*
Y176181D02*
D03*
X648425D02*
D03*
Y172441D02*
D03*
Y168701D02*
D03*
X637795Y119095D02*
D03*
Y126575D02*
D03*
X648032D02*
D03*
Y122835D02*
D03*
Y119095D02*
D03*
X256689Y434228D02*
D03*
Y426748D02*
D03*
X246453D02*
D03*
Y430488D02*
D03*
Y434228D02*
D03*
X244998Y387252D02*
D03*
Y379772D02*
D03*
X234761D02*
D03*
Y383512D02*
D03*
Y387252D02*
D03*
D29*
X291294Y366449D02*
D03*
X283814D02*
D03*
Y376685D02*
D03*
X287554D02*
D03*
X291294D02*
D03*
D30*
X161713Y315209D02*
D03*
X195374D02*
D03*
X161713Y250937D02*
D03*
X195374Y250886D02*
D03*
D31*
X152657Y342374D02*
D03*
X170768D02*
D03*
X186319D02*
D03*
X204429D02*
D03*
X152657Y278102D02*
D03*
X170768D02*
D03*
X186319Y278051D02*
D03*
X204429D02*
D03*
D32*
X541949Y393406D02*
D03*
X546949D02*
D03*
X551949D02*
D03*
X556949D02*
D03*
X561949D02*
D03*
X566949D02*
D03*
X571949D02*
D03*
X576949D02*
D03*
Y412894D02*
D03*
X571949D02*
D03*
X566949D02*
D03*
X561949D02*
D03*
X556949D02*
D03*
X551949D02*
D03*
X546949D02*
D03*
X541949D02*
D03*
X411260Y392189D02*
D03*
X416260D02*
D03*
X421260D02*
D03*
X426260D02*
D03*
X431260D02*
D03*
X436260D02*
D03*
X441260D02*
D03*
X446260D02*
D03*
Y411677D02*
D03*
X441260D02*
D03*
X436260D02*
D03*
X431260D02*
D03*
X426260D02*
D03*
X421260D02*
D03*
X416260D02*
D03*
X411260D02*
D03*
D33*
X626772Y347047D02*
D03*
X628740D02*
D03*
X630709D02*
D03*
X632677D02*
D03*
X634646D02*
D03*
Y363976D02*
D03*
X632677D02*
D03*
X630709D02*
D03*
X628740D02*
D03*
X626772D02*
D03*
X627362Y271161D02*
D03*
X629331D02*
D03*
X631299D02*
D03*
X633268D02*
D03*
X635236D02*
D03*
Y288090D02*
D03*
X633268D02*
D03*
X631299D02*
D03*
X629331D02*
D03*
X627362D02*
D03*
D34*
X653487Y251896D02*
D03*
X650987D02*
D03*
X648387D02*
D03*
X645887D02*
D03*
Y261896D02*
D03*
X648387D02*
D03*
X650987D02*
D03*
X653487D02*
D03*
X651044Y328465D02*
D03*
X648544D02*
D03*
X645944D02*
D03*
X643444D02*
D03*
Y338465D02*
D03*
X645944D02*
D03*
X648544D02*
D03*
X651044D02*
D03*
D35*
X344798Y380642D02*
D03*
Y375642D02*
D03*
Y370642D02*
D03*
Y365642D02*
D03*
X306687D02*
D03*
Y370642D02*
D03*
Y375642D02*
D03*
Y380642D02*
D03*
D36*
X539680Y189014D02*
D03*
X530080D02*
D03*
D37*
X520276Y396142D02*
D03*
X524016D02*
D03*
X527756D02*
D03*
X520276Y406024D02*
D03*
X524016D02*
D03*
X527756D02*
D03*
X584449Y398307D02*
D03*
X588189D02*
D03*
X591929D02*
D03*
X584449Y408189D02*
D03*
X588189D02*
D03*
X591929D02*
D03*
X453937Y396240D02*
D03*
X457677D02*
D03*
X461417D02*
D03*
X453937Y406122D02*
D03*
X457677D02*
D03*
X461417D02*
D03*
X386614Y397126D02*
D03*
X390354D02*
D03*
X394094D02*
D03*
X386614Y407008D02*
D03*
X390354D02*
D03*
X394094D02*
D03*
D38*
X310524Y432319D02*
D03*
X315012D02*
D03*
X323988D02*
D03*
X328476D02*
D03*
D39*
X191000Y478500D02*
D03*
Y458500D02*
D03*
D40*
X231748Y468500D02*
D03*
D84*
X319500Y458500D02*
D03*
D85*
X646660Y286522D02*
Y287297D01*
X620472Y261221D02*
X624409Y265158D01*
X627461D01*
X531004Y174606D02*
X538386D01*
X627461Y265158D02*
X629331Y267028D01*
Y271161D01*
X535236Y418307D02*
Y418504D01*
X574614Y246311D02*
Y259063D01*
X570921Y242618D02*
X574614Y246311D01*
X567736Y242618D02*
X570921D01*
X574614Y259063D02*
X575492Y259941D01*
X620669Y282677D02*
X627953D01*
X629331Y284055D01*
X634012Y283705D02*
X643843D01*
X646660Y286522D01*
X646260Y275689D02*
X646457D01*
X513484Y188189D02*
X513976Y187697D01*
X459252Y388386D02*
X459547Y388681D01*
X472736Y392618D02*
X473228D01*
X256000Y453457D02*
Y453653D01*
X632480Y372441D02*
X632677Y372244D01*
X632283Y372441D02*
X632480D01*
X584301Y408337D02*
X584449Y408189D01*
X488681Y148622D02*
Y149016D01*
X511614Y139075D02*
Y139272D01*
X495374Y279724D02*
X495374Y279724D01*
X616240Y193799D02*
Y193996D01*
X527756Y406024D02*
X528228Y406496D01*
X635236Y261024D02*
Y271161D01*
X631299Y288090D02*
Y288779D01*
Y281988D02*
Y288090D01*
Y281988D02*
X633465Y279823D01*
Y279429D02*
Y279823D01*
X633366Y271260D02*
X633465Y279429D01*
X629331Y271161D02*
Y271752D01*
X633268Y284449D02*
X634012Y283705D01*
X633268Y284449D02*
Y288090D01*
X629331Y284055D02*
Y287396D01*
D86*
X596555Y325295D02*
X611319D01*
X653759Y261896D02*
X683353D01*
X684154Y262697D01*
X357776Y263090D02*
Y263287D01*
Y269488D01*
X263283Y412697D02*
X263579Y412992D01*
X270472Y426852D02*
X270571Y426754D01*
X180315Y467224D02*
Y485925D01*
X389370Y382283D02*
X395374Y376279D01*
X643012Y110925D02*
Y114764D01*
X653937Y156890D02*
X654921Y155905D01*
X661516Y222244D02*
X661516Y222244D01*
X517717Y381201D02*
X525197Y373721D01*
X600197Y301969D02*
X603740Y298425D01*
X293898Y316732D02*
X298752Y321587D01*
X639961Y107874D02*
X643012Y110925D01*
X638484Y107874D02*
X639961D01*
X286614Y286528D02*
X298512D01*
X296260Y281004D02*
X300445Y285189D01*
X304626D01*
X304803Y285366D01*
X159941Y357283D02*
X179528D01*
X468307Y170177D02*
X474114D01*
X417815Y119685D02*
X468307Y170177D01*
X365020Y119291D02*
X415906Y170177D01*
X468307D01*
X654086Y164418D02*
X656392Y162112D01*
X347626Y384953D02*
X352514D01*
X349857Y384559D02*
X352514D01*
X240547Y434055D02*
Y434228D01*
X240189Y433575D02*
X240547Y433933D01*
X228335Y433575D02*
X240189D01*
X357972Y222539D02*
X369882D01*
X337606Y156450D02*
X337783Y156628D01*
X638681Y119095D02*
X643012Y114764D01*
X656791Y119095D02*
Y124705D01*
X655315Y126181D02*
X656791Y124705D01*
X664173Y118405D02*
X680610D01*
X495374Y279724D02*
X502559D01*
X502854Y279429D01*
X284328Y411828D02*
X285728D01*
X517421Y387795D02*
X524508D01*
X297018Y321587D02*
X298752D01*
X293702Y156516D02*
X294114D01*
X288484Y150886D02*
X294114Y156516D01*
X153642Y276279D02*
X162205D01*
X294114Y156516D02*
X298144D01*
X301018D01*
X281090Y158202D02*
X281299D01*
X282283Y150591D02*
Y157218D01*
X281299Y158202D02*
X282283Y157218D01*
X298752Y321587D02*
X304990D01*
X286211Y322945D02*
X294183D01*
X287615Y317404D02*
X287992Y317028D01*
X287615Y317404D02*
Y320064D01*
X287195Y320484D02*
X287615Y320064D01*
X287195Y320484D02*
Y321961D01*
X286211Y322945D02*
X287195Y321961D01*
X284734Y322945D02*
X286211D01*
X286614Y286528D02*
X287008Y286134D01*
X286024Y287118D02*
X286614Y286528D01*
X289567Y280906D02*
Y281438D01*
X287008Y283997D02*
X289567Y281438D01*
X287008Y283997D02*
Y286134D01*
X284547Y287118D02*
X286024D01*
X591043Y383661D02*
X596850D01*
X590748Y383366D02*
X591043Y383661D01*
X580430Y188369D02*
X580807Y187992D01*
X580430Y188369D02*
Y193290D01*
X579626Y194095D02*
X580430Y193290D01*
X345145Y175623D02*
X345522Y175246D01*
X342507Y175623D02*
X345145D01*
X333091Y185039D02*
X342507Y175623D01*
X281299Y158202D02*
X290539D01*
X292015D01*
X293702Y156516D01*
X292224Y223130D02*
X293701D01*
X295158Y221673D01*
X302854D01*
X188583Y282283D02*
X195374D01*
X291486Y220423D02*
Y222392D01*
X287992Y216929D02*
X291486Y220423D01*
X287943Y216978D02*
X287992Y216929D01*
X281742Y216978D02*
X287943D01*
X281693Y217028D02*
X281742Y216978D01*
X282776Y223130D02*
X290748D01*
X296937Y359559D02*
X299114Y357382D01*
X291491Y359559D02*
X296937D01*
X305906Y357283D02*
X309491D01*
X305807Y357382D02*
X305906Y357283D01*
X305664Y350939D02*
Y357239D01*
X305807Y357382D01*
X291097Y390071D02*
X294247D01*
X258864Y387252D02*
X258998Y387118D01*
X244998Y387252D02*
X258864D01*
X286372Y385740D02*
Y386719D01*
X309491Y357283D02*
X312258Y360051D01*
X310054Y370642D02*
X312062Y372650D01*
X286766Y385740D02*
X291097Y390071D01*
X240601Y427559D02*
X243235Y430193D01*
X240158Y427362D02*
X240158Y427362D01*
X243235Y430193D02*
X246158D01*
X650936Y172441D02*
X654086Y169291D01*
X648425Y172441D02*
X650936D01*
X656392Y162112D02*
X659836D01*
X654086Y164418D02*
Y169291D01*
X659836Y162112D02*
X660138Y161811D01*
X240547Y434228D02*
X246453D01*
X293344Y350886D02*
X298917D01*
X291491Y352739D02*
X293344Y350886D01*
X301658Y346933D02*
X305664Y350939D01*
X283304Y346933D02*
X301658D01*
X275939Y354298D02*
X283304Y346933D01*
X298512Y286528D02*
X299496Y285543D01*
X304626D01*
X304803Y285366D01*
X535236Y418307D02*
X539232D01*
X535236Y418504D02*
Y434606D01*
X404626Y413484D02*
X405512Y414370D01*
X539232Y418307D02*
X541949Y415591D01*
X660039Y155709D02*
X660236Y155512D01*
X655315Y155709D02*
X660039D01*
X655118Y155905D02*
X655315Y155709D01*
X654921Y155905D02*
X655118D01*
X653937Y156890D02*
Y157087D01*
X660236Y155512D02*
X660613Y155888D01*
X662975D01*
X665748Y158661D01*
Y158858D01*
X352165Y341339D02*
X358661D01*
X358022Y304971D02*
X358071Y304921D01*
X351722Y304971D02*
X358022D01*
X351673Y305020D02*
X351722Y304971D01*
X351821Y175246D02*
X351969Y175394D01*
X345522Y175246D02*
X351821D01*
X357776Y263090D02*
X357972Y263287D01*
X333012Y250590D02*
X342657Y240945D01*
X348425D01*
X354675Y240896D02*
X354724Y240846D01*
X348474Y240896D02*
X354675D01*
X348425Y240945D02*
X348474Y240896D01*
X358366Y197539D02*
Y205512D01*
X333091Y190961D02*
X339669Y197539D01*
X358366D01*
X333091Y185039D02*
Y190961D01*
X248031Y169783D02*
X248327Y170079D01*
X300775Y161627D02*
X300952Y161450D01*
X209646Y214075D02*
X248327Y175394D01*
Y170079D02*
Y175394D01*
X143256Y268701D02*
X152657Y278102D01*
X253937Y372835D02*
X263976Y382874D01*
X250096Y383512D02*
X252604Y381004D01*
X253937Y371457D02*
Y372835D01*
X253051Y370571D02*
X253937Y371457D01*
X252953Y370571D02*
X253051D01*
X268821Y360575D02*
Y367886D01*
Y360575D02*
X269247Y360150D01*
X252756Y358661D02*
X252953D01*
X263976Y382874D02*
X267520D01*
X205413Y277067D02*
X206102Y277756D01*
X250098Y234449D02*
X250295D01*
X241732D02*
X250098D01*
X237402Y238779D02*
X241732Y234449D01*
X237402Y238779D02*
Y257283D01*
X216929Y277756D02*
X237402Y257283D01*
X219291Y270669D02*
X234350Y255610D01*
Y221358D02*
Y255610D01*
Y221358D02*
X238681Y217028D01*
X281693D01*
X191732Y270669D02*
X219291D01*
X186319Y276083D02*
X191732Y270669D01*
X186319Y276083D02*
Y278051D01*
X308605Y391571D02*
X314701D01*
X441697Y226933D02*
X442224Y227461D01*
X435201Y226933D02*
X441697D01*
X434646Y226378D02*
X435201Y226933D01*
X441479Y244193D02*
X442224D01*
X439904Y242618D02*
X441479Y244193D01*
X435827Y242618D02*
X439904D01*
X434842Y241634D02*
X435827Y242618D01*
X432972Y291363D02*
Y292126D01*
Y291363D02*
X440453Y283883D01*
X433169Y306988D02*
X440158D01*
X291491Y352739D02*
Y352866D01*
X259547Y387697D02*
Y387894D01*
X286372Y385740D02*
X286569D01*
X286766D01*
X267520Y382874D02*
X270386Y385740D01*
X279876D01*
X267520Y382874D02*
X267896Y382497D01*
Y375504D02*
Y382497D01*
Y375504D02*
X268821Y374579D01*
X252604Y381004D02*
X259547D01*
X245276Y393996D02*
X253839D01*
X290539Y170013D02*
X292015D01*
X293000Y170998D01*
Y184948D01*
X293091Y185039D01*
X292224Y234941D02*
X293012Y235728D01*
Y250590D01*
X241646Y344390D02*
X251476Y334559D01*
X236122Y344390D02*
X241646D01*
X176232Y342374D02*
X178051Y344193D01*
X170768Y342374D02*
X176232D01*
X179528Y357283D02*
X186319Y350492D01*
X154626Y351969D02*
X159941Y357283D01*
X186319Y342374D02*
Y350492D01*
X275098Y298929D02*
X279429Y294598D01*
X259350Y297539D02*
X260045Y298234D01*
X274404D01*
X282048Y391043D02*
X286372Y386719D01*
X262697Y391043D02*
X282048D01*
X259547Y387894D02*
X262697Y391043D01*
X275939Y354298D02*
Y360150D01*
X305605Y380642D02*
X306687D01*
X301912Y384335D02*
X305605Y380642D01*
X301912Y384335D02*
Y391571D01*
X268821Y374579D02*
X276321D01*
X234761Y383512D02*
X250096D01*
X400591Y418799D02*
X404626Y414764D01*
X395374Y418799D02*
X400591D01*
X408567Y414370D02*
X411260Y411677D01*
X405512Y414370D02*
X408567D01*
X334842Y397736D02*
X347626Y384953D01*
X352514Y384756D02*
Y384953D01*
X357806Y157283D02*
X369685D01*
X357675Y157415D02*
X357806Y157283D01*
X357972Y222539D02*
X358563Y223130D01*
X290076Y407480D02*
X290166D01*
X285728Y411828D02*
X290076Y407480D01*
X195374Y282283D02*
Y282480D01*
X204429Y277756D02*
Y278051D01*
X202461Y275787D02*
X204429Y277756D01*
X195374Y275787D02*
X202461D01*
X152657Y277264D02*
Y278102D01*
X162205Y276083D02*
Y276279D01*
Y282776D02*
X162941Y282039D01*
X168799D01*
X170768Y280071D01*
X154626Y340158D02*
X161713D01*
X152657Y342126D02*
X154626Y340158D01*
X152657Y342126D02*
Y342374D01*
X161713Y346850D02*
X162252Y346311D01*
X168799D01*
X170768Y344342D01*
Y342374D02*
Y344342D01*
X186319Y342224D02*
Y342374D01*
Y342224D02*
X188287Y340256D01*
X195571D01*
X204429Y340406D02*
X209594D01*
X204429Y342374D02*
Y344342D01*
X202461Y346311D02*
X204429Y344342D01*
X196209Y346311D02*
X202461D01*
X195571Y346949D02*
X196209Y346311D01*
X369280Y322551D02*
X370374Y321457D01*
X362106Y322551D02*
X369280D01*
X366565Y287118D02*
X369628Y284055D01*
X360925Y287118D02*
X366565D01*
X369628Y284055D02*
X370374D01*
X343268Y227559D02*
X408366D01*
X339508Y226673D02*
X342382D01*
X408366Y227559D02*
X422441Y241634D01*
X342382Y226673D02*
X343268Y227559D01*
X422441Y241634D02*
X428150D01*
X337606Y156450D02*
X337671Y156385D01*
Y121923D02*
Y156385D01*
X335039Y119291D02*
X337671Y121923D01*
X352756Y185039D02*
X358366Y190650D01*
Y190847D01*
X343091Y185039D02*
X352756D01*
X352165Y250590D02*
X357972Y256398D01*
Y256594D01*
X343012Y250590D02*
X352165D01*
X619980Y275295D02*
X620669Y275984D01*
X610630Y275295D02*
X619980D01*
X606693Y279232D02*
X610630Y275295D01*
X606693Y279232D02*
Y284646D01*
X425197Y291043D02*
X426279Y292126D01*
X345008Y291043D02*
X425197D01*
X344331Y290366D02*
X345008Y291043D01*
X242520Y164272D02*
X248031Y169783D01*
X297165Y266437D02*
X313012Y250590D01*
X279232Y266437D02*
X297165D01*
X274803D02*
X279232D01*
X271260Y262894D02*
X274803Y266437D01*
X271260Y262697D02*
Y262894D01*
Y256004D02*
X271949Y255315D01*
X278543D01*
X279232Y254626D01*
X288673D02*
X292709Y250590D01*
X293012D01*
X279232Y254626D02*
X288673D01*
X263779Y285445D02*
X265551D01*
X267224Y287118D01*
X274705D01*
X206102Y277756D02*
X216929D01*
X246457Y224606D02*
X250394Y228543D01*
X246457Y230807D02*
X250098Y234449D01*
X246457Y224606D02*
Y230807D01*
X245177Y223327D02*
X246457Y224606D01*
X177315Y282039D02*
X177559Y282283D01*
X172736Y282039D02*
X177315D01*
X170768Y280071D02*
X172736Y282039D01*
X170768Y278102D02*
Y280071D01*
X242520Y155512D02*
Y164272D01*
X209594Y340406D02*
X252461Y297539D01*
X204429Y340406D02*
Y342374D01*
X252461Y297539D02*
X252658D01*
X271949Y185236D02*
X276279D01*
X277854Y183661D02*
X279331D01*
X276279Y185236D02*
X277854Y183661D01*
X271949Y185236D02*
Y185433D01*
X275098Y195473D02*
X279331D01*
X271949Y192323D02*
X275098Y195473D01*
X271949Y192126D02*
Y192323D01*
X279331Y183661D02*
X280807D01*
X282185Y185039D01*
X293091D01*
X279331Y195473D02*
X302658D01*
X313090Y185039D01*
X341644Y326587D02*
X379438D01*
X391359Y314665D01*
X426476D01*
X337671Y161516D02*
X362894D01*
X427756Y226378D01*
X427953D01*
X647146Y286811D02*
Y294291D01*
X390354Y396339D02*
Y397126D01*
X390256Y396240D02*
X390354Y396339D01*
X390256Y389862D02*
Y396240D01*
X389272Y388878D02*
X390256Y389862D01*
X343137Y462249D02*
X344237D01*
X323886Y481500D02*
X343137Y462249D01*
X344587Y462598D02*
X346260D01*
X344237Y462249D02*
X344587Y462598D01*
X275000Y334658D02*
X275098Y334756D01*
X258268Y334658D02*
X275000D01*
X258169Y334559D02*
X258268Y334658D01*
X251476Y334559D02*
X251673D01*
X251279D02*
X251476D01*
X258420Y327669D02*
X298072D01*
X254232Y331857D02*
X258420Y327669D01*
X254232Y331857D02*
Y332000D01*
X251673Y334559D02*
X254232Y332000D01*
X273620Y322945D02*
X274556Y322009D01*
X265650Y322945D02*
X273620D01*
X263386Y320681D02*
X265650Y322945D01*
X246457Y320681D02*
Y329736D01*
X251279Y334559D01*
X251083Y296161D02*
X252461Y297539D01*
X251083Y287906D02*
Y296161D01*
X248622Y285445D02*
X251083Y287906D01*
X246850Y285445D02*
X248622D01*
X257283Y291449D02*
X299902D01*
X252559Y296173D02*
X257283Y291449D01*
X248031Y169783D02*
X248228D01*
X259449Y155512D02*
X261909Y157972D01*
X270427D01*
X270722Y158268D01*
X254921Y169783D02*
X255069Y169931D01*
X270575D01*
X270722Y170079D01*
X248228Y168307D02*
X254315Y162221D01*
X248228Y168307D02*
Y169783D01*
X254315Y162221D02*
X294740D01*
X257480Y233957D02*
X272342D01*
X256988Y234449D02*
X257480Y233957D01*
X250394Y228543D02*
X275790D01*
X276479Y227854D02*
X296113D01*
X275790Y228543D02*
X276479Y227854D01*
X262106Y223327D02*
X262303Y223130D01*
X272933D01*
X345939Y380642D02*
X349857Y384559D01*
X298072Y327669D02*
X298977Y326764D01*
X154626Y344342D02*
Y351969D01*
X152657Y342374D02*
X154626Y344342D01*
X234006Y427362D02*
X240158D01*
X227854D02*
X234006D01*
X666339Y267913D02*
X667224D01*
X661713Y272539D02*
X666339Y267913D01*
X660630Y272539D02*
X661713D01*
X227854Y434055D02*
X228335Y433575D01*
X226526Y434301D02*
X227608D01*
X220472Y428248D02*
X226526Y434301D01*
X220472Y426476D02*
Y428248D01*
Y426476D02*
X227067Y419882D01*
X231102D01*
X175951Y490289D02*
X180315Y485925D01*
X503150Y117323D02*
Y123228D01*
X502953Y117126D02*
X503150Y117323D01*
X311156Y380642D02*
X312062Y379736D01*
Y372650D02*
Y379736D01*
X311313Y370642D02*
X312258Y369697D01*
Y360051D02*
Y369697D01*
X310054Y370642D02*
X311313D01*
X306687D02*
X310054D01*
X306687Y380642D02*
X311156D01*
X608268Y310630D02*
X616240Y302658D01*
X607087Y310630D02*
X608268D01*
X622244Y310039D02*
X625098Y312894D01*
X622244Y305118D02*
Y310039D01*
X465945Y388681D02*
X469980D01*
X470866Y387795D01*
X471063D01*
X472736Y386122D01*
Y385925D02*
Y386122D01*
X459547Y388681D02*
X465945D01*
X299384Y365642D02*
X306687D01*
X292101D02*
X299384D01*
X291294Y366449D02*
X292101Y365642D01*
X579626Y201083D02*
X579626Y201083D01*
X579626Y194095D02*
Y201083D01*
X161647Y490289D02*
X171949D01*
X175951D01*
X411476Y119685D02*
X417815D01*
X509547Y286417D02*
X517815Y278150D01*
X495374Y286417D02*
X509547D01*
X517815Y273425D02*
Y278150D01*
X666142Y462992D02*
X670669D01*
X645512Y442362D02*
X666142Y462992D01*
X645512Y429961D02*
Y442362D01*
X566634Y442618D02*
X587008Y462992D01*
X566634Y431004D02*
Y442618D01*
X565197Y429567D02*
X566634Y431004D01*
X587008Y462992D02*
X593307D01*
X485433Y440551D02*
X507874Y462992D01*
X485433Y430512D02*
Y440551D01*
X484488Y429567D02*
X485433Y430512D01*
X507874Y462992D02*
X512598D01*
X399486Y451061D02*
X418088D01*
X388386Y439961D02*
X399486Y451061D01*
X430020Y462992D02*
X431496D01*
X418088Y451061D02*
X430020Y462992D01*
X175951Y490289D02*
X189600D01*
X193405Y494095D01*
X193602D01*
X158043Y486685D02*
X161647Y490289D01*
X151500Y486685D02*
X158043D01*
X631890Y153937D02*
Y155020D01*
X656978Y396161D02*
X683573Y422756D01*
X684252D01*
X336846Y458500D02*
X337205Y458858D01*
X319500Y458500D02*
X336846D01*
X337205Y456496D02*
Y458858D01*
Y456496D02*
X341136Y452565D01*
X312311Y482839D02*
Y491500D01*
Y482839D02*
X313650Y481500D01*
X662303Y208465D02*
Y216339D01*
X603740Y298425D02*
X622244D01*
X600197Y301969D02*
Y310630D01*
X450850Y383443D02*
X451302Y382991D01*
X450850Y383443D02*
Y384902D01*
X446260Y389492D02*
X450850Y384902D01*
X446260Y389492D02*
Y392189D01*
X295333Y161627D02*
X300775D01*
X295018Y166273D02*
X300775D01*
X300952Y166450D01*
X294740Y162221D02*
X295333Y161627D01*
X294806Y166061D02*
X295018Y166273D01*
X296113Y227854D02*
X297117Y226850D01*
X302677D01*
X302854Y226673D01*
X502953Y130118D02*
X511673D01*
X502953Y123425D02*
X503150Y123228D01*
X511673Y130118D02*
X512598Y129193D01*
X680610Y118405D02*
X683858Y121653D01*
X341644Y326587D02*
X341821Y326764D01*
X351476Y287118D02*
X360925D01*
X425575Y300213D02*
X426279Y299508D01*
X632677Y372244D02*
X641535D01*
X654331Y220866D02*
X659547D01*
X661221Y222539D01*
X577638Y415984D02*
X586949Y425295D01*
X592523D01*
X653334Y244296D02*
X682554D01*
X683150Y319193D02*
X684055Y318287D01*
X656890Y319193D02*
X683150D01*
X279134Y450787D02*
X280315Y451968D01*
Y460394D01*
X280575Y460653D01*
X271063Y450787D02*
X279134D01*
X680905Y214961D02*
X684252D01*
X502854Y264862D02*
Y272736D01*
Y264862D02*
X510532Y257185D01*
X516732D01*
X495374Y272638D02*
Y279724D01*
X487992Y279724D02*
X495374D01*
X296339Y322266D02*
X297018Y321587D01*
X294183Y322945D02*
X294862Y322266D01*
X296339D01*
X590945Y318504D02*
X596457D01*
X590650Y318209D02*
X590945Y318504D01*
X541949Y412894D02*
Y415591D01*
X535236Y434606D02*
X540197Y439567D01*
X421260Y411677D02*
Y420866D01*
X419390Y422736D02*
X421260Y420866D01*
X444291Y383563D02*
Y386461D01*
X441260Y389492D02*
X444291Y386461D01*
X441260Y389492D02*
Y392189D01*
X395079Y388878D02*
X400886D01*
X389272D02*
X395079D01*
X413287Y383957D02*
X413484D01*
X411457Y385787D02*
X413287Y383957D01*
X411457Y385787D02*
Y391992D01*
X550197Y206496D02*
X550295Y206398D01*
X566535Y148917D02*
X566634Y148819D01*
Y142224D02*
Y148819D01*
Y142224D02*
X566732Y142126D01*
X493996Y108957D02*
Y140256D01*
X313057Y480907D02*
X313650Y481500D01*
X294193Y480315D02*
X294785Y480907D01*
X313057D01*
X320342Y481500D02*
X323886D01*
X267402Y491535D02*
X271000Y487937D01*
X200591Y485433D02*
Y494095D01*
X252953D01*
X200295D02*
X200591D01*
X193658Y478500D02*
X200591Y485433D01*
X654823Y211417D02*
X654872Y211368D01*
Y204085D02*
Y211368D01*
Y204085D02*
X654921Y204035D01*
X648032Y212205D02*
X653396D01*
X661261Y194153D02*
X661713Y193701D01*
X657914Y194153D02*
X661261D01*
X654921Y197146D02*
X657914Y194153D01*
X654921Y197146D02*
Y197343D01*
X357675Y157415D02*
X357675Y157415D01*
X348193Y157415D02*
X357675D01*
X347405Y156628D02*
X348193Y157415D01*
X337783Y156628D02*
X347405D01*
X434646Y383957D02*
Y384941D01*
X431260Y388327D02*
X434646Y384941D01*
X431260Y388327D02*
Y392189D01*
X434646Y383957D02*
X434842D01*
X427953D02*
X428150D01*
X426457Y385453D02*
X427953Y383957D01*
X426457Y385453D02*
Y391992D01*
X426260Y392189D02*
X426457Y391992D01*
X420177Y383957D02*
X421063Y384842D01*
Y391992D01*
X421260Y392189D01*
X411260D02*
X411457Y391992D01*
X252953Y494095D02*
X255512Y491535D01*
X191000Y478500D02*
X193658D01*
X255512Y491535D02*
X267402D01*
X592523Y425295D02*
X602169Y434941D01*
X635492D01*
X640512Y439961D01*
X576949Y412894D02*
Y415295D01*
X590650Y390748D02*
X597736D01*
X561949Y412894D02*
Y419252D01*
X560197Y421004D02*
X561949Y419252D01*
X560197Y421004D02*
Y439567D01*
X551949Y426319D02*
X555197Y429567D01*
X551949Y412894D02*
Y426319D01*
X461614Y434646D02*
X474567D01*
X446313Y419344D02*
X461614Y434646D01*
X446313Y411730D02*
Y419344D01*
X474567Y434646D02*
X479488Y439567D01*
X446260Y411677D02*
X446313Y411730D01*
X378386Y425256D02*
Y439961D01*
Y425256D02*
X384842Y418799D01*
X395374D01*
X400610Y422736D02*
X419390D01*
X393386Y429961D02*
X400610Y422736D01*
X410630Y439961D02*
X431260Y419331D01*
Y411677D02*
Y419331D01*
X398386Y439961D02*
X410630D01*
X256000Y460347D02*
X263669D01*
X264173Y459842D01*
X270571Y420177D02*
X271161D01*
X271610Y419728D01*
X270571Y420177D02*
Y426754D01*
X270472Y426852D02*
X271189Y427568D01*
X588189Y392421D02*
Y398307D01*
Y392421D02*
X590256Y390354D01*
X457677Y389961D02*
Y396240D01*
Y389961D02*
X459252Y388386D01*
X395374Y375394D02*
Y376279D01*
X590256Y383661D02*
X590354Y383760D01*
X523868Y388435D02*
X524508Y387795D01*
X523868Y388435D02*
Y395010D01*
X524508Y387795D02*
X531398D01*
X531496Y387697D01*
X389272Y382185D02*
X389370Y382283D01*
X351750Y370642D02*
X352294Y370098D01*
X344798Y370642D02*
X351750D01*
X344798Y380642D02*
X345939D01*
X268821Y367886D02*
X276321D01*
X287554Y376685D02*
Y384756D01*
X294247Y383378D02*
Y383575D01*
X291294Y380425D02*
X294247Y383378D01*
X291294Y376685D02*
Y380425D01*
X284010Y352866D02*
X291491D01*
X291294Y376429D02*
Y376685D01*
Y376429D02*
X292081Y375642D01*
X306687D01*
X284010Y359559D02*
X291491D01*
X616240Y193799D02*
X616634Y193405D01*
X624606D01*
X623524Y207972D02*
X623721D01*
X616240Y200689D02*
X623524Y207972D01*
X616240Y200492D02*
Y200689D01*
X623721Y207972D02*
X631201D01*
X631693Y208465D02*
X637795D01*
X648032Y215945D02*
X661909D01*
X662303Y201969D02*
X679528D01*
X682520Y204961D01*
X684252D01*
X662303Y201772D02*
Y201969D01*
X631201Y201279D02*
X631299Y201181D01*
Y193405D02*
Y201181D01*
X634646Y187402D02*
X643110D01*
X631299Y190748D02*
X634646Y187402D01*
X631299Y190748D02*
Y193405D01*
X647146Y191437D02*
Y193307D01*
X643110Y187402D02*
X647146Y191437D01*
X640453Y193307D02*
Y200787D01*
X647146Y193307D02*
Y200787D01*
X648032Y201673D01*
Y208465D01*
X642618Y202953D02*
Y212894D01*
X639567Y215945D02*
X642618Y212894D01*
X640453Y200787D02*
X642618Y202953D01*
X637795Y220276D02*
X641142Y223622D01*
X637795Y215945D02*
Y220276D01*
X665846Y230020D02*
X680905Y214961D01*
X652067Y230020D02*
X665846D01*
X648032Y225984D02*
X652067Y230020D01*
X648032Y223622D02*
Y225984D01*
X654724Y176181D02*
X657776Y173130D01*
X662697Y165551D02*
X665748D01*
X657874Y170374D02*
X662697Y165551D01*
X657874Y170374D02*
Y173228D01*
X664567D02*
X668504D01*
X683858Y157874D01*
X648425Y176181D02*
X654724D01*
X643602Y180709D02*
X655315D01*
X639075Y176181D02*
X643602Y180709D01*
X681013Y168003D02*
X683729D01*
X668307Y180709D02*
X681013Y168003D01*
X662008Y180709D02*
X668307D01*
X683729Y168003D02*
X683858Y167874D01*
X631201Y119783D02*
X631890Y119095D01*
X637795D01*
X656791D02*
X657382Y118504D01*
X613878Y371949D02*
X625098D01*
X625591Y372441D01*
X655709Y378051D02*
Y379527D01*
X649803Y385433D02*
X655709Y379527D01*
X628937Y385433D02*
X649803D01*
X625394Y381890D02*
X628937Y385433D01*
X625394Y379921D02*
Y381890D01*
X632283Y372441D02*
Y379724D01*
X649016Y370571D02*
Y378051D01*
X655709Y370571D02*
Y378051D01*
X611417Y312992D02*
Y318701D01*
X610039Y311614D02*
X611417Y312992D01*
X608071Y311614D02*
X610039D01*
X606890Y310630D02*
X607087D01*
X608071Y311614D01*
X600197Y310630D02*
Y314567D01*
X603937Y318307D01*
Y318504D01*
X596457D02*
X603937D01*
X596457Y325197D02*
X596555Y325295D01*
X611319D02*
X611417Y325394D01*
X618356Y325148D02*
X618602Y324902D01*
X611663Y325148D02*
X618356D01*
X611417Y325394D02*
X611663Y325148D01*
X641142Y287598D02*
X641443Y287297D01*
X646660D01*
X647146Y286811D01*
X653839D02*
X654823Y285827D01*
X661417D01*
X672244Y358268D02*
X684055D01*
X659941Y370571D02*
X672244Y358268D01*
X655709Y370571D02*
X659941D01*
X655512Y348130D02*
X660335Y343307D01*
X661614D01*
X655315Y348130D02*
X655512D01*
X655512Y348327D02*
Y355610D01*
X284328Y411828D02*
X284728Y412228D01*
X682554Y244296D02*
X684154Y242697D01*
X653995Y252697D02*
X684154D01*
X661417Y285827D02*
X664567Y282677D01*
X684154D01*
X629331Y305118D02*
X630512Y306299D01*
X622244Y305118D02*
X629331D01*
X630512Y298299D02*
Y306299D01*
X647990Y306398D02*
X648089Y306498D01*
X637304Y306398D02*
X647990D01*
X637205Y306299D02*
X637304Y306398D01*
X637205Y298299D02*
Y306299D01*
X653839Y286811D02*
Y294291D01*
X321024Y492224D02*
X321061Y492262D01*
X284154Y234941D02*
X285138Y235925D01*
X345492Y221673D02*
X346949Y223130D01*
X339508Y221673D02*
X345492D01*
X346949Y223130D02*
X350098D01*
X349508Y287118D02*
X351476D01*
X347756Y285366D02*
X349508Y287118D01*
X341457Y285366D02*
X347756D01*
X350098Y223130D02*
X358563D01*
X359547D01*
X360728Y322551D02*
X362106D01*
X240425Y434055D02*
X240547D01*
X426476Y306988D02*
Y314665D01*
X426279Y292126D02*
Y299508D01*
X428150Y241634D02*
Y249213D01*
X427953Y226378D02*
Y233858D01*
X341457Y290366D02*
X344331D01*
X294183Y334756D02*
X295659D01*
X272342Y233957D02*
X273327Y234941D01*
X277279Y230988D02*
X296885D01*
X273327Y234941D02*
X277279Y230988D01*
X296885D02*
X297393Y231496D01*
X298844Y330803D02*
X299450Y331409D01*
X304813D01*
X276515Y334756D02*
X280468Y330803D01*
X275098Y334756D02*
X276515D01*
X280468Y330803D02*
X298844D01*
X279429Y294598D02*
X298279D01*
X299046Y295366D01*
X304803D01*
X299902Y291449D02*
X300807Y290543D01*
X304626D01*
X270722Y170079D02*
X272199D01*
X276217Y166061D01*
X294806D01*
X297393Y231496D02*
X302677D01*
X302854Y231673D01*
X274404Y298234D02*
X275098Y298929D01*
X304626Y290543D02*
X304803Y290366D01*
X298977Y326764D02*
X304813D01*
X304990Y326587D01*
X304813Y331409D02*
X304990Y331587D01*
X328728Y432319D02*
X344882D01*
X344888Y424563D02*
X345000D01*
X341325Y421000D02*
X344888Y424563D01*
X327847Y421000D02*
X341325D01*
X315264Y426693D02*
Y432319D01*
Y426693D02*
X320957Y421000D01*
X321153D01*
X300447Y435400D02*
X300500Y435347D01*
X341136Y452565D02*
X346156D01*
X346260Y452461D01*
X189917Y477417D02*
X191000Y478500D01*
X262846Y468000D02*
X263173Y467673D01*
X271681Y460653D02*
X280575D01*
X264173Y459842D02*
X264984Y460653D01*
X271681D01*
X256077Y467923D02*
X256153Y468000D01*
X256077Y460423D02*
Y467923D01*
X256000Y460347D02*
X256077Y460423D01*
X250098Y412697D02*
Y419390D01*
X249410Y420079D02*
X250098Y419390D01*
Y412697D02*
X263283D01*
X263579Y412992D02*
X263689Y412882D01*
X284728Y412228D02*
Y419728D01*
X285459Y420459D01*
Y426652D01*
X286189Y427382D01*
X271610Y419728D02*
X278035D01*
Y412228D02*
Y419728D01*
X277709Y412555D02*
X278035Y412228D01*
X264016Y412555D02*
X277709D01*
X263689Y412882D02*
X264016Y412555D01*
X271189Y427568D02*
X278689D01*
X246158Y430193D02*
X246453Y430488D01*
X258429Y427043D02*
X258768Y427382D01*
X256984Y427043D02*
X258429D01*
X256689Y426748D02*
X256984Y427043D01*
X258768Y427382D02*
X263689D01*
X263437Y419827D02*
X263689Y419575D01*
X256354Y419827D02*
X263437D01*
X256102Y420079D02*
X256354Y419827D01*
X256705Y434245D02*
X278672D01*
X286096Y434168D02*
X286189Y434075D01*
X278782Y434168D02*
X286096D01*
X278689Y434261D02*
X278782Y434168D01*
X278672Y434245D02*
X278689Y434261D01*
X256689Y434228D02*
X256705Y434245D01*
X256396Y426455D02*
X256689Y426748D01*
X256396Y420372D02*
Y426455D01*
X256102Y420079D02*
X256396Y420372D01*
X245567Y425320D02*
Y426748D01*
X240523Y420276D02*
X245567Y425320D01*
X238386Y419291D02*
X239370Y420276D01*
X240523D01*
X245567Y426748D02*
X246453D01*
X231102Y419882D02*
X231693Y419291D01*
D87*
X507480Y187795D02*
X512500D01*
X512697Y187598D01*
X513386Y188287D01*
X560689Y209193D02*
X567697D01*
X560236Y209646D02*
X560689Y209193D01*
X252953Y358661D02*
Y361319D01*
X656398Y133957D02*
Y139272D01*
X554331Y216451D02*
X558860Y220980D01*
X554331Y215453D02*
Y216451D01*
X560335Y217421D02*
X560665D01*
X561825Y220965D02*
X567736D01*
X561809Y220980D02*
X561825Y220965D01*
X558860Y220980D02*
X561809D01*
X560665Y217421D02*
X562240Y218996D01*
X567736D01*
X548524Y261122D02*
X550295Y259350D01*
X538878Y262611D02*
Y269488D01*
Y262611D02*
X542421Y259068D01*
X247342Y364961D02*
X252953Y370571D01*
X264524Y360575D02*
X268821D01*
X261713Y363386D02*
X264524Y360575D01*
X252953Y361319D02*
X261713Y370079D01*
X247441Y362795D02*
X251575Y358661D01*
X173721Y364961D02*
X247342D01*
X170866Y367815D02*
X173721Y364961D01*
X170866Y367815D02*
Y369685D01*
X173819Y362795D02*
X247441D01*
X170866Y359842D02*
X173819Y362795D01*
X170866Y357874D02*
Y359842D01*
X442520Y314665D02*
X462205Y294980D01*
X433169Y314665D02*
X442520D01*
X462205Y282480D02*
Y294980D01*
X433169Y299508D02*
X490059Y242618D01*
X515138D01*
X432972Y299508D02*
X433169D01*
X462205Y282480D02*
X492717Y251969D01*
X587500Y246752D02*
Y248721D01*
X575492Y234744D02*
X587500Y246752D01*
X567736Y234744D02*
X575492D01*
X590650Y248721D02*
X612795Y270866D01*
X587500Y248721D02*
X590650D01*
X612795Y270866D02*
X626968D01*
X533858Y264847D02*
Y273130D01*
Y264847D02*
X540453Y258253D01*
X529724Y266197D02*
X538484Y257437D01*
X529724Y266197D02*
Y277362D01*
X525591Y267547D02*
X536476Y256661D01*
X525591Y267547D02*
Y281398D01*
X536476Y252224D02*
Y256661D01*
X538484Y252185D02*
Y257437D01*
X540453Y252185D02*
Y258253D01*
X542421Y252185D02*
Y259068D01*
X419543Y402264D02*
X426260Y408980D01*
X397884Y402264D02*
X419543D01*
X394094Y406053D02*
X397884Y402264D01*
X394094Y406053D02*
Y407008D01*
X426260Y408980D02*
Y411677D01*
X386614Y404528D02*
Y407008D01*
Y404528D02*
X389795Y401346D01*
X395179D02*
X396230Y400295D01*
X389795Y401346D02*
X395179D01*
X396230Y400295D02*
X440850D01*
X625295Y161614D02*
X631890Y155020D01*
X623622Y161614D02*
X625295D01*
X612598Y159547D02*
Y165059D01*
X631348Y168848D02*
X638041D01*
X513386Y188287D02*
X513484Y188189D01*
X528228Y406496D02*
X528721Y406004D01*
X534055D01*
X644390Y149114D02*
X646654Y151378D01*
X634252Y149114D02*
X644390D01*
X631890Y151476D02*
X634252Y149114D01*
X631890Y151476D02*
Y153937D01*
X646654Y151378D02*
Y153937D01*
X612598Y159547D02*
X618209Y153937D01*
X625197D01*
X639961D02*
X640059Y154035D01*
Y161417D01*
X646654Y153937D02*
X646752Y154035D01*
Y161417D01*
X611811Y351476D02*
X618602D01*
X618898Y351181D01*
X580725Y384972D02*
X581328Y384369D01*
X580725Y384972D02*
Y386932D01*
X576949Y390709D02*
X580725Y386932D01*
X576949Y390709D02*
Y393406D01*
X536476Y252224D02*
X536516Y252185D01*
X550295D02*
Y259350D01*
X655315Y132874D02*
X656398Y133957D01*
X591929Y405610D02*
Y408189D01*
X589567Y403248D02*
X591929Y405610D01*
X573898Y403248D02*
X589567D01*
X566949Y410197D02*
X573898Y403248D01*
X583264Y406988D02*
X584449Y408173D01*
X575157Y406988D02*
X583264D01*
X571949Y410197D02*
X575157Y406988D01*
X431102Y450787D02*
X431496Y451181D01*
X431102Y441535D02*
Y450787D01*
X512598Y441142D02*
Y451181D01*
X593307Y441142D02*
Y451181D01*
X669980D02*
X670374Y450787D01*
Y443504D02*
Y450787D01*
X584154Y414567D02*
X584301Y414419D01*
Y408337D02*
Y414419D01*
X506988Y427854D02*
Y428642D01*
X512598Y434252D01*
Y434449D01*
X488681Y145571D02*
Y148622D01*
Y145571D02*
X493996Y140256D01*
X488681Y149016D02*
Y155807D01*
X495374D02*
X497539Y153642D01*
X511614D01*
X493996Y140256D02*
X499409Y145669D01*
X503839D01*
X511614Y145768D02*
Y153642D01*
X572933Y194095D02*
Y201083D01*
X572933Y194095D02*
X572933Y194095D01*
X567697Y209193D02*
X567736Y209154D01*
X651202Y338307D02*
X684252D01*
X651044Y338465D02*
X651202Y338307D01*
X492717Y251969D02*
X522697D01*
X522736Y252008D01*
Y252185D01*
X485039Y240650D02*
X515138D01*
X479035Y238681D02*
X515138D01*
X572539Y209154D02*
X573917Y207776D01*
Y202067D02*
Y207776D01*
X572933Y201083D02*
X573917Y202067D01*
X567736Y209154D02*
X572539D01*
X575591Y427165D02*
Y427264D01*
X566949Y418524D02*
X575591Y427165D01*
X566949Y412894D02*
Y418524D01*
X436260Y415591D02*
X441043Y420374D01*
X436260Y411677D02*
Y415591D01*
X453346Y406713D02*
Y414173D01*
Y406713D02*
X453937Y406122D01*
X407972Y377854D02*
Y396037D01*
Y377854D02*
X416634Y369193D01*
X566732Y135236D02*
Y135433D01*
X563091Y131595D02*
X566732Y135236D01*
X563091Y123425D02*
Y131595D01*
X575886Y135236D02*
Y135433D01*
X568153Y127504D02*
X575886Y135236D01*
X568153Y118488D02*
Y127504D01*
X563091Y113425D02*
X568153Y118488D01*
X557874Y135531D02*
X558028Y135378D01*
Y118362D02*
Y135378D01*
X553091Y113425D02*
X558028Y118362D01*
X548032Y118366D02*
Y135531D01*
X543091Y113425D02*
X548032Y118366D01*
X538091Y118425D02*
Y135335D01*
X533091Y113425D02*
X538091Y118425D01*
X527756Y107283D02*
Y135531D01*
Y107283D02*
X530807Y104232D01*
X573898D01*
X583091Y113425D01*
X407972Y396037D02*
X409593Y397657D01*
X414646D01*
X416260Y392189D02*
Y396043D01*
X414646Y397657D02*
X416260Y396043D01*
X453130Y405315D02*
X453937Y406122D01*
X444925Y405315D02*
X453130D01*
X441260Y408980D02*
X444925Y405315D01*
X458637Y401476D02*
X461417Y404256D01*
X443764Y401476D02*
X458637D01*
X436260Y408980D02*
X443764Y401476D01*
X461417Y404256D02*
Y406122D01*
X440850Y400295D02*
X446260Y394886D01*
X566949Y410197D02*
Y412894D01*
X571949Y410197D02*
Y412894D01*
X400984Y367717D02*
Y382283D01*
X436260Y408980D02*
Y411677D01*
X441260Y408980D02*
Y411677D01*
X446260Y392189D02*
Y394886D01*
X638041Y168848D02*
X638189Y168701D01*
X651950Y327559D02*
X683327D01*
X651044Y328465D02*
X651950Y327559D01*
X683327D02*
X684055Y328287D01*
D88*
X404626Y406988D02*
Y408427D01*
Y406988D02*
X406102Y405512D01*
X533268Y413976D02*
X540453Y406791D01*
X544193D01*
X524114Y413976D02*
X533268D01*
X357776Y263287D02*
X357972D01*
X345709D02*
X357776D01*
X342928Y375642D02*
X344798D01*
X340172Y372886D02*
X342928Y375642D01*
X340172Y368398D02*
Y372886D01*
Y368398D02*
X342928Y365642D01*
X344798D01*
X359995Y370386D02*
X368307Y378698D01*
X359995Y370189D02*
Y370386D01*
X368307Y378698D02*
Y420768D01*
X358813Y371370D02*
X359995Y370189D01*
X358813Y371370D02*
Y371567D01*
X352514Y377866D02*
X358813Y371567D01*
X352514Y377866D02*
Y378063D01*
X350290Y375642D02*
X352514Y377866D01*
X344798Y375642D02*
X350290D01*
X333012Y250590D02*
X345709Y263287D01*
X350098Y234941D02*
X359547D01*
X345728Y232047D02*
X348622Y234941D01*
X339882Y232047D02*
X345728D01*
X339508Y231673D02*
X339882Y232047D01*
X346890Y236673D02*
X348622Y234941D01*
X339508Y236673D02*
X346890D01*
X350000Y298929D02*
X351476D01*
X346811Y295740D02*
X350000Y298929D01*
X341831Y295740D02*
X346811D01*
X341457Y295366D02*
X341831Y295740D01*
X351476Y298929D02*
X360925D01*
X348937Y299992D02*
X350000Y298929D01*
X341831Y299992D02*
X348937D01*
X341457Y300366D02*
X341831Y299992D01*
X352658Y334362D02*
X362106D01*
X390256Y408169D02*
Y411909D01*
Y408169D02*
X390846Y407579D01*
X390256Y411909D02*
X401144D01*
X383268Y413583D02*
X388583D01*
X390256Y411909D01*
X401144D02*
X404626Y408427D01*
X412693Y405512D02*
X416260Y409079D01*
X406102Y405512D02*
X412693D01*
X416260Y409079D02*
Y411677D01*
X349882Y331587D02*
X352658Y334362D01*
X341644Y331587D02*
X349882D01*
X350433Y336587D02*
X352658Y334362D01*
X341644Y336587D02*
X350433D01*
X546949Y409547D02*
Y412894D01*
X544193Y406791D02*
X546949Y409547D01*
X524065Y413927D02*
X524114Y413976D01*
X524065Y406073D02*
Y413927D01*
X524016Y406024D02*
X524065Y406073D01*
X436260Y389492D02*
X440339Y385413D01*
Y377772D02*
Y385413D01*
Y377772D02*
X448524Y369587D01*
X436260Y389492D02*
Y392189D01*
D89*
X256000Y453457D02*
X261701D01*
X301715Y391571D02*
X301912D01*
X300939Y390795D02*
X301715Y391571D01*
X294640Y390795D02*
X300939D01*
X294247Y390402D02*
X294640Y390795D01*
X294247Y390268D02*
Y390402D01*
X253071Y440846D02*
X256000Y443776D01*
X246453Y434228D02*
X253071Y440846D01*
X263173Y467673D02*
X289374D01*
X253071Y440846D02*
X290846D01*
X289575Y460653D02*
X290846Y459382D01*
Y440846D02*
Y459382D01*
X256000Y443776D02*
Y453457D01*
X261701D02*
X264370Y450787D01*
X348193Y157415D02*
X348193Y157415D01*
X289374Y475496D02*
X294193Y480315D01*
X289374Y467673D02*
Y475496D01*
X255512Y484842D02*
X262846Y477508D01*
Y468000D02*
Y477508D01*
X294247Y390071D02*
Y390268D01*
X352658Y322551D02*
X360728D01*
X231748Y468500D02*
X248091Y484842D01*
X255512D01*
D90*
X648032Y126575D02*
X654921D01*
X642224Y356496D02*
X648819Y363090D01*
X642224Y354528D02*
Y356496D01*
X352524Y439961D02*
X378386D01*
X345000Y432437D02*
X352524Y439961D01*
X648819Y363090D02*
X649016D01*
X641732Y363484D02*
X648819Y370571D01*
X625394Y372638D02*
Y379921D01*
D91*
X300500Y428850D02*
X306803D01*
X215158Y409744D02*
X222358Y402543D01*
X179413Y409744D02*
X215158D01*
X170658Y418500D02*
X179413Y409744D01*
X187303Y293358D02*
Y310583D01*
Y284547D02*
Y293358D01*
X173060Y193828D02*
Y239590D01*
X284154Y334756D02*
Y341831D01*
X283071Y298929D02*
Y303740D01*
X153698Y171893D02*
X185531Y140059D01*
X284154Y334756D02*
X284734D01*
X280020Y306791D02*
X283071Y303740D01*
Y298929D02*
X284547D01*
X293000Y170998D02*
X293452Y171450D01*
X227871Y393996D02*
X238386D01*
X284734Y334756D02*
X294183D01*
X168110Y122638D02*
X185531Y140059D01*
X151139Y171893D02*
X153698D01*
X151516Y122638D02*
X168110D01*
X222358Y402543D02*
X295063D01*
X300500Y407980D01*
Y428653D01*
X186319Y278051D02*
Y280020D01*
X188583Y282283D01*
X152657Y277264D02*
X153642Y276279D01*
X151476Y294193D02*
X152657Y293012D01*
Y278102D02*
Y293012D01*
X161713Y304429D02*
Y315209D01*
X151476Y294193D02*
X161713Y304429D01*
X118012Y294193D02*
X151476D01*
X187106Y284350D02*
X187303Y284547D01*
Y310583D02*
X192028Y315307D01*
X187106Y281890D02*
Y284350D01*
X161713Y250937D02*
X173060Y239590D01*
X157087Y177854D02*
X173060Y193828D01*
X145177Y177854D02*
X157087D01*
X145177D02*
X151139Y171893D01*
X121516Y122638D02*
X151516D01*
X292224Y234941D02*
X293701D01*
X282337Y170013D02*
X290539D01*
X293452Y171450D02*
X300952D01*
X293701Y234941D02*
X295433Y236673D01*
X302854D01*
X284154Y234941D02*
X292224D01*
X284547Y298929D02*
X293996D01*
X295472D01*
X296909Y300366D01*
X304803D01*
X295659Y334756D02*
X297490Y336587D01*
X304990D01*
X344882Y432319D02*
X345000Y432437D01*
X300500Y428653D02*
Y428850D01*
X306803D02*
X310272Y432319D01*
D92*
X234441Y380093D02*
X234761Y379772D01*
X228864Y380093D02*
X234441D01*
X228543Y380413D02*
X228864Y380093D01*
X234689Y387179D02*
X234761Y387252D01*
X228616Y387179D02*
X234689D01*
X228543Y387106D02*
X228616Y387179D01*
X235638Y391248D02*
X238386Y393996D01*
X235638Y387626D02*
Y391248D01*
X235264Y387252D02*
X235638Y387626D01*
X234761Y387252D02*
X235264D01*
D93*
X351870Y321764D02*
X352658Y322551D01*
X341821Y321764D02*
X351870D01*
X341644Y321587D02*
X341821Y321764D01*
D94*
X404724Y269685D02*
D03*
X594587Y149705D02*
D03*
X686614Y486221D02*
D03*
X205512Y118209D02*
D03*
X209449Y390551D02*
D03*
D95*
X343012Y250590D02*
D03*
X343091Y185039D02*
D03*
D96*
X333012Y250590D02*
D03*
X313012D02*
D03*
X303012D02*
D03*
X293012D02*
D03*
X333091Y185039D02*
D03*
X313090D02*
D03*
X303091D02*
D03*
X293091D02*
D03*
D97*
X118815Y418500D02*
D03*
X190342D02*
D03*
X185335Y160138D02*
D03*
X125394Y177854D02*
D03*
X191634Y200886D02*
D03*
X118602Y367126D02*
D03*
X369882Y222539D02*
D03*
X481201Y349311D02*
D03*
D98*
X138500Y418500D02*
D03*
X170658D02*
D03*
X145079Y177854D02*
D03*
X171949Y200886D02*
D03*
X138287Y367126D02*
D03*
D99*
X533091Y113425D02*
D03*
X311024Y492224D02*
D03*
D100*
X533091Y123425D02*
D03*
X543091Y113425D02*
D03*
Y123425D02*
D03*
X553091Y113425D02*
D03*
Y123425D02*
D03*
X563091Y113425D02*
D03*
Y123425D02*
D03*
X573091Y113425D02*
D03*
Y123425D02*
D03*
X583091Y113425D02*
D03*
Y123425D02*
D03*
X593091Y113425D02*
D03*
Y123425D02*
D03*
X512598Y119193D02*
D03*
Y109193D02*
D03*
X448228Y117815D02*
D03*
X460039Y127913D02*
D03*
X321024Y492224D02*
D03*
D101*
X512598Y129193D02*
D03*
X448228Y127815D02*
D03*
X460039Y117913D02*
D03*
D102*
X171949Y482415D02*
D03*
X270079Y487795D02*
D03*
X345000Y432437D02*
D03*
X294193Y480315D02*
D03*
D103*
X171949Y490289D02*
D03*
X270079Y479921D02*
D03*
X424508Y369193D02*
D03*
X552461Y370965D02*
D03*
X448524Y369587D02*
D03*
X574409Y371260D02*
D03*
X345000Y424563D02*
D03*
X294193Y488189D02*
D03*
X581328Y384369D02*
D03*
X574311Y384252D02*
D03*
X597736Y390748D02*
D03*
D104*
X151516Y122638D02*
D03*
X121516D02*
D03*
X151516Y142323D02*
D03*
X121516D02*
D03*
X151500Y467000D02*
D03*
X121500D02*
D03*
X151500Y486685D02*
D03*
X121500D02*
D03*
D105*
X652992Y464961D02*
D03*
X612992D02*
D03*
X572677Y464567D02*
D03*
X532677D02*
D03*
X491968D02*
D03*
X451968D02*
D03*
X410866Y464961D02*
D03*
X370866D02*
D03*
D106*
X620512Y439961D02*
D03*
X630512D02*
D03*
X640512D02*
D03*
X625512Y429961D02*
D03*
X635512D02*
D03*
X540197Y439567D02*
D03*
X550197D02*
D03*
X560197D02*
D03*
X545197Y429567D02*
D03*
X555197D02*
D03*
X459488Y439567D02*
D03*
X469488D02*
D03*
X479488D02*
D03*
X464488Y429567D02*
D03*
X474488D02*
D03*
X378386Y439961D02*
D03*
X388386D02*
D03*
X398386D02*
D03*
X383386Y429961D02*
D03*
X393386D02*
D03*
D107*
X645512D02*
D03*
X565197Y429567D02*
D03*
X484488D02*
D03*
X403386Y429961D02*
D03*
D108*
X670669Y475197D02*
D03*
X592913D02*
D03*
X512598Y477165D02*
D03*
X431496D02*
D03*
X346224Y476933D02*
D03*
D109*
X416634Y369193D02*
D03*
X544587Y370965D02*
D03*
X440650Y369587D02*
D03*
X566535Y371260D02*
D03*
D110*
X365020Y119291D02*
D03*
X355039D02*
D03*
X345039D02*
D03*
X411476Y119685D02*
D03*
X401496D02*
D03*
X391496D02*
D03*
X118012Y294193D02*
D03*
Y304193D02*
D03*
Y284213D02*
D03*
Y274213D02*
D03*
X684252Y194980D02*
D03*
Y204961D02*
D03*
Y214961D02*
D03*
X683858Y147894D02*
D03*
Y157874D02*
D03*
Y167874D02*
D03*
X684252Y392776D02*
D03*
Y402756D02*
D03*
Y412756D02*
D03*
X683858Y121653D02*
D03*
Y111653D02*
D03*
X684154Y292697D02*
D03*
Y252697D02*
D03*
Y262697D02*
D03*
Y282677D02*
D03*
Y272677D02*
D03*
Y302736D02*
D03*
X684252Y368307D02*
D03*
Y328307D02*
D03*
Y338307D02*
D03*
Y358287D02*
D03*
Y348287D02*
D03*
Y378346D02*
D03*
D111*
X335039Y119291D02*
D03*
X381496Y119685D02*
D03*
D112*
X118012Y264213D02*
D03*
X684252Y224961D02*
D03*
X683858Y177874D02*
D03*
X684252Y422756D02*
D03*
X683858Y131653D02*
D03*
X684154Y242697D02*
D03*
X684252Y318307D02*
D03*
D113*
X185335Y140453D02*
D03*
D114*
X659547Y266437D02*
D03*
X507480Y187795D02*
D03*
X620866Y254429D02*
D03*
X293898Y316732D02*
D03*
X638484Y107874D02*
D03*
X621457Y128051D02*
D03*
X560236Y209646D02*
D03*
X188091Y356594D02*
D03*
X474114Y170177D02*
D03*
X488189Y177461D02*
D03*
X659646Y112106D02*
D03*
X296260Y281004D02*
D03*
X583760Y358071D02*
D03*
X596850Y383661D02*
D03*
X616535Y385433D02*
D03*
X628642Y253839D02*
D03*
X554331Y215453D02*
D03*
X560335Y217421D02*
D03*
X345522Y175246D02*
D03*
X282283Y150591D02*
D03*
X287992Y216929D02*
D03*
X289567Y280906D02*
D03*
X548524Y261122D02*
D03*
X543307Y265650D02*
D03*
X538878Y269488D02*
D03*
X660138Y161811D02*
D03*
X298917Y350886D02*
D03*
X357776Y269488D02*
D03*
X358366Y205512D02*
D03*
X209646Y214075D02*
D03*
X143256Y268701D02*
D03*
X287992Y317028D02*
D03*
X314701Y391571D02*
D03*
X358661Y341339D02*
D03*
X442224Y227461D02*
D03*
X440453Y283883D02*
D03*
X442224Y244193D02*
D03*
X440158Y306988D02*
D03*
X358071Y304921D02*
D03*
X354724Y240846D02*
D03*
X348425Y240945D02*
D03*
X253839Y393996D02*
D03*
X284154Y341831D02*
D03*
X280020Y306791D02*
D03*
X350886Y414370D02*
D03*
X351969Y175394D02*
D03*
X236122Y344390D02*
D03*
X178051Y344193D02*
D03*
X227871Y393996D02*
D03*
X458957Y230512D02*
D03*
X395374Y418799D02*
D03*
X334842Y397736D02*
D03*
X369685Y157283D02*
D03*
X222358Y402543D02*
D03*
X290166Y407480D02*
D03*
X378925Y363496D02*
D03*
X370374Y321457D02*
D03*
Y284055D02*
D03*
X606693Y284646D02*
D03*
X613779Y282087D02*
D03*
X567753Y249495D02*
D03*
X575492Y259941D02*
D03*
X583198Y255229D02*
D03*
X579556Y248339D02*
D03*
X587500Y248721D02*
D03*
X578150Y221949D02*
D03*
X622047Y364567D02*
D03*
X620866Y288681D02*
D03*
X288484Y150886D02*
D03*
X281693Y217028D02*
D03*
X524360Y244734D02*
D03*
X177559Y282283D02*
D03*
X533858Y273130D02*
D03*
X529724Y277362D02*
D03*
X525591Y281398D02*
D03*
X399410Y406693D02*
D03*
X667224Y267913D02*
D03*
X234006Y427362D02*
D03*
X631348Y168848D02*
D03*
X220472Y426476D02*
D03*
X459350Y412697D02*
D03*
X538779Y208268D02*
D03*
X502953Y117126D02*
D03*
X534055Y406004D02*
D03*
X302165Y443209D02*
D03*
X563091Y265256D02*
D03*
X616240Y302658D02*
D03*
X603887Y344635D02*
D03*
X580807Y187992D02*
D03*
X540059Y236910D02*
D03*
X625098Y312894D02*
D03*
X631004Y326279D02*
D03*
X660236Y155512D02*
D03*
X465945Y388681D02*
D03*
X270571Y420177D02*
D03*
X481201Y125787D02*
D03*
X517815Y273425D02*
D03*
X368307Y420768D02*
D03*
X645866Y393110D02*
D03*
X622146Y406791D02*
D03*
X605020Y337205D02*
D03*
X664764Y308465D02*
D03*
X608268Y235827D02*
D03*
X618602Y174803D02*
D03*
X571260Y177657D02*
D03*
X664075Y436614D02*
D03*
X656978Y396161D02*
D03*
X642224Y354528D02*
D03*
X337205Y458858D02*
D03*
X290846Y440846D02*
D03*
X611811Y351476D02*
D03*
X601673Y300394D02*
D03*
X611909Y358465D02*
D03*
X451302Y382991D02*
D03*
X502756Y210433D02*
D03*
X654331Y220866D02*
D03*
X586516Y433366D02*
D03*
X499508Y355315D02*
D03*
X506988Y427854D02*
D03*
X425000Y434842D02*
D03*
X511614Y153642D02*
D03*
X280315Y451968D02*
D03*
X544390Y206299D02*
D03*
X487894Y265453D02*
D03*
X458858Y374606D02*
D03*
X495374Y272638D02*
D03*
X552067Y244488D02*
D03*
X400984Y367717D02*
D03*
X590650Y318209D02*
D03*
X524114Y413976D02*
D03*
X590650Y418405D02*
D03*
X575591Y427264D02*
D03*
X441043Y420374D02*
D03*
X420965Y420768D02*
D03*
X453346Y414173D02*
D03*
X395079Y388878D02*
D03*
X444291Y383563D02*
D03*
X550197Y206496D02*
D03*
X566535Y148917D02*
D03*
X661713Y193701D02*
D03*
X654823Y211417D02*
D03*
X525197Y373671D02*
D03*
X524508Y387795D02*
D03*
X267520Y382874D02*
D03*
X299384Y365642D02*
D03*
X623721Y207972D02*
D03*
X530315Y167126D02*
D03*
X641535Y372244D02*
D03*
X641437Y363484D02*
D03*
X618602Y324902D02*
D03*
X641142Y287598D02*
D03*
X643504Y319587D02*
D03*
X635335Y240059D02*
D03*
X661614Y343307D02*
D03*
X648089Y306498D02*
D03*
X352165Y341339D02*
D03*
X351673Y305020D02*
D03*
X264173Y459842D02*
D03*
X250098Y412697D02*
D03*
D115*
X192421Y293358D02*
D03*
X197539Y293307D02*
D03*
X202559Y293358D02*
D03*
X193504Y376181D02*
D03*
X188484D02*
D03*
X183366D02*
D03*
X178248D02*
D03*
X178248Y381398D02*
D03*
X183366D02*
D03*
X188484D02*
D03*
X193504D02*
D03*
X187303Y293358D02*
D03*
X187205Y288189D02*
D03*
X192323D02*
D03*
X197539Y288287D02*
D03*
X202559D02*
D03*
X207579Y288189D02*
D03*
X207677Y293358D02*
D03*
X207776Y298327D02*
D03*
X202658Y298327D02*
D03*
X197539Y298374D02*
D03*
X192520Y298327D02*
D03*
X187402D02*
D03*
D116*
X383268Y413583D02*
D03*
X656398Y139272D02*
D03*
X584154Y414567D02*
D03*
X395374Y375394D02*
D03*
M02*
