G04*
G04 #@! TF.GenerationSoftware,Altium Limited,Altium Designer,19.1.5 (86)*
G04*
G04 Layer_Color=12632256*
%FSLAX25Y25*%
%MOIN*%
G70*
G01*
G75*
%ADD94C,0.23622*%
%ADD95R,0.05937X0.05937*%
%ADD96C,0.05937*%
%ADD97C,0.04724*%
%ADD98R,0.04724X0.04724*%
%ADD99R,0.05906X0.05906*%
%ADD100C,0.05906*%
%ADD101R,0.05906X0.05906*%
%ADD102R,0.04331X0.04331*%
%ADD103C,0.04331*%
%ADD104C,0.07677*%
%ADD105C,0.12795*%
%ADD106C,0.04992*%
%ADD107R,0.04992X0.04992*%
%ADD108C,0.09055*%
%ADD109R,0.04331X0.04331*%
%ADD110C,0.08032*%
%ADD111R,0.08032X0.08032*%
%ADD112R,0.08032X0.08032*%
%ADD113R,0.04724X0.04724*%
D94*
X404724Y269685D02*
D03*
X594587Y149705D02*
D03*
X686614Y486221D02*
D03*
X205512Y118209D02*
D03*
X209449Y390551D02*
D03*
D95*
X343012Y250590D02*
D03*
X343091Y185039D02*
D03*
D96*
X333012Y250590D02*
D03*
X313012D02*
D03*
X303012D02*
D03*
X293012D02*
D03*
X333091Y185039D02*
D03*
X313090D02*
D03*
X303091D02*
D03*
X293091D02*
D03*
D97*
X118815Y418500D02*
D03*
X190342D02*
D03*
X185335Y160138D02*
D03*
X125394Y177854D02*
D03*
X191634Y200886D02*
D03*
X118602Y367126D02*
D03*
D98*
X138500Y418500D02*
D03*
X170658D02*
D03*
X145079Y177854D02*
D03*
X171949Y200886D02*
D03*
X138287Y367126D02*
D03*
D99*
X533091Y113425D02*
D03*
X311024Y492224D02*
D03*
D100*
X533091Y123425D02*
D03*
X543091Y113425D02*
D03*
Y123425D02*
D03*
X553091Y113425D02*
D03*
Y123425D02*
D03*
X563091Y113425D02*
D03*
Y123425D02*
D03*
X573091Y113425D02*
D03*
Y123425D02*
D03*
X583091Y113425D02*
D03*
Y123425D02*
D03*
X593091Y113425D02*
D03*
Y123425D02*
D03*
X512598Y119193D02*
D03*
Y109193D02*
D03*
X448228Y117815D02*
D03*
X460039Y127913D02*
D03*
X321024Y492224D02*
D03*
D101*
X512598Y129193D02*
D03*
X448228Y127815D02*
D03*
X460039Y117913D02*
D03*
D102*
X171949Y482415D02*
D03*
X270079Y487795D02*
D03*
X345000Y432437D02*
D03*
X294193Y480315D02*
D03*
D103*
X171949Y490289D02*
D03*
X270079Y479921D02*
D03*
X424508Y369193D02*
D03*
X552461Y370965D02*
D03*
X448524Y369587D02*
D03*
X574409Y371260D02*
D03*
X345000Y424563D02*
D03*
X294193Y488189D02*
D03*
D104*
X151516Y122638D02*
D03*
X121516D02*
D03*
X151516Y142323D02*
D03*
X121516D02*
D03*
X151500Y467000D02*
D03*
X121500D02*
D03*
X151500Y486685D02*
D03*
X121500D02*
D03*
D105*
X652992Y464961D02*
D03*
X612992D02*
D03*
X572677Y464567D02*
D03*
X532677D02*
D03*
X491968D02*
D03*
X451968D02*
D03*
X410866Y464961D02*
D03*
X370866D02*
D03*
D106*
X620512Y439961D02*
D03*
X630512D02*
D03*
X640512D02*
D03*
X625512Y429961D02*
D03*
X635512D02*
D03*
X540197Y439567D02*
D03*
X550197D02*
D03*
X560197D02*
D03*
X545197Y429567D02*
D03*
X555197D02*
D03*
X459488Y439567D02*
D03*
X469488D02*
D03*
X479488D02*
D03*
X464488Y429567D02*
D03*
X474488D02*
D03*
X378386Y439961D02*
D03*
X388386D02*
D03*
X398386D02*
D03*
X383386Y429961D02*
D03*
X393386D02*
D03*
D107*
X645512D02*
D03*
X565197Y429567D02*
D03*
X484488D02*
D03*
X403386Y429961D02*
D03*
D108*
X670669Y475197D02*
D03*
X592913D02*
D03*
X512598Y477165D02*
D03*
X431496D02*
D03*
X346224Y476933D02*
D03*
D109*
X416634Y369193D02*
D03*
X544587Y370965D02*
D03*
X440650Y369587D02*
D03*
X566535Y371260D02*
D03*
D110*
X365020Y119291D02*
D03*
X355039D02*
D03*
X345039D02*
D03*
X411476Y119685D02*
D03*
X401496D02*
D03*
X391496D02*
D03*
X118012Y294193D02*
D03*
Y304193D02*
D03*
Y284213D02*
D03*
Y274213D02*
D03*
X684252Y194980D02*
D03*
Y204961D02*
D03*
Y214961D02*
D03*
X683858Y147894D02*
D03*
Y157874D02*
D03*
Y167874D02*
D03*
X684252Y392776D02*
D03*
Y402756D02*
D03*
Y412756D02*
D03*
X683858Y121653D02*
D03*
Y111653D02*
D03*
X684154Y292697D02*
D03*
Y252697D02*
D03*
Y262697D02*
D03*
Y282677D02*
D03*
Y272677D02*
D03*
Y302736D02*
D03*
X684252Y368307D02*
D03*
Y328307D02*
D03*
Y338307D02*
D03*
Y358287D02*
D03*
Y348287D02*
D03*
Y378346D02*
D03*
D111*
X335039Y119291D02*
D03*
X381496Y119685D02*
D03*
D112*
X118012Y264213D02*
D03*
X684252Y224961D02*
D03*
X683858Y177874D02*
D03*
X684252Y422756D02*
D03*
X683858Y131653D02*
D03*
X684154Y242697D02*
D03*
X684252Y318307D02*
D03*
D113*
X185335Y140453D02*
D03*
M02*
