G04*
G04 #@! TF.GenerationSoftware,Altium Limited,Altium Designer,19.1.5 (86)*
G04*
G04 Layer_Physical_Order=4*
G04 Layer_Color=16711680*
%FSLAX25Y25*%
%MOIN*%
G70*
G01*
G75*
%ADD10C,0.00787*%
%ADD13C,0.00984*%
%ADD20R,0.03937X0.04331*%
%ADD22R,0.04331X0.03937*%
%ADD86C,0.01968*%
%ADD87C,0.01181*%
%ADD88C,0.01575*%
%ADD90C,0.02165*%
%ADD91C,0.03937*%
%ADD94C,0.23622*%
%ADD95R,0.05937X0.05937*%
%ADD96C,0.05937*%
%ADD97C,0.04724*%
%ADD98R,0.04724X0.04724*%
%ADD99R,0.05906X0.05906*%
%ADD100C,0.05906*%
%ADD101R,0.05906X0.05906*%
%ADD102R,0.04331X0.04331*%
%ADD103C,0.04331*%
%ADD104C,0.07677*%
%ADD105C,0.12795*%
%ADD106C,0.04992*%
%ADD107R,0.04992X0.04992*%
%ADD108C,0.09055*%
%ADD109R,0.04331X0.04331*%
%ADD110C,0.08032*%
%ADD111R,0.08032X0.08032*%
%ADD112R,0.08032X0.08032*%
%ADD113R,0.04724X0.04724*%
%ADD114C,0.03937*%
%ADD115C,0.03150*%
%ADD116C,0.03543*%
%ADD117R,0.07480X0.10236*%
G36*
X636018Y425943D02*
X637903Y424114D01*
X638489Y423148D01*
Y418318D01*
X630422Y410252D01*
X627150D01*
Y403921D01*
X623836Y402417D01*
X616279D01*
X615448Y403634D01*
X614766Y406354D01*
X625190Y416778D01*
X634552Y426139D01*
X636018Y425943D01*
D02*
G37*
G36*
X157185Y493996D02*
X264737Y493996D01*
X266913Y490961D01*
X266604Y487795D01*
X266687Y486950D01*
X266913Y484630D01*
X270079Y484321D01*
X273244Y484630D01*
X273376Y485980D01*
X273376D01*
X273553Y487795D01*
X273319Y490194D01*
X275421Y493996D01*
X307071Y493996D01*
Y488272D01*
X314976D01*
Y493996D01*
X326279D01*
X340421Y479855D01*
X340194Y479431D01*
X339822Y478206D01*
X339697Y476933D01*
X339822Y475660D01*
X340194Y474435D01*
X340797Y473307D01*
X341609Y472317D01*
X342598Y471506D01*
X343726Y470902D01*
X344951Y470531D01*
X346224Y470406D01*
X347498Y470531D01*
X348722Y470902D01*
X349147Y471129D01*
X371654Y448622D01*
X659941Y448622D01*
X680217Y448524D01*
X691831Y436909D01*
Y430647D01*
X689268Y427772D01*
X687894Y427772D01*
X679236D01*
Y417740D01*
X679236D01*
X679331Y413803D01*
X679193Y412756D01*
X679365Y411447D01*
X679871Y410226D01*
X680675Y408885D01*
Y406627D01*
X679871Y405285D01*
X679365Y404065D01*
X679193Y402756D01*
X679365Y401446D01*
X679871Y400226D01*
X680675Y399179D01*
X681722Y398375D01*
X682943Y397869D01*
X684252Y397697D01*
X685561Y397869D01*
X686782Y398375D01*
X687829Y399179D01*
X687894Y399263D01*
X691831Y398106D01*
Y382996D01*
X687894Y381840D01*
X687829Y381924D01*
X686782Y382728D01*
X685561Y383233D01*
X684252Y383405D01*
X682943Y383233D01*
X681722Y382728D01*
X680675Y381924D01*
X679871Y380876D01*
X679365Y379656D01*
X679193Y378346D01*
X679365Y377037D01*
X679871Y375817D01*
X680675Y374769D01*
X681722Y373965D01*
X682943Y373460D01*
X684252Y373287D01*
X685561Y373460D01*
X686782Y373965D01*
X687829Y374769D01*
X687894Y374853D01*
X691831Y373697D01*
Y362937D01*
X687894Y361781D01*
X687829Y361865D01*
X686782Y362669D01*
X685561Y363174D01*
X684252Y363346D01*
X682943Y363174D01*
X681722Y362669D01*
X680675Y361865D01*
X679871Y360817D01*
X679365Y359597D01*
X679193Y358287D01*
X679365Y356978D01*
X679871Y355758D01*
X680675Y354417D01*
Y353805D01*
X677511Y350291D01*
X666645D01*
X644505Y372431D01*
X644427Y373019D01*
X644128Y373741D01*
X643653Y374361D01*
X643033Y374837D01*
X642310Y375136D01*
X641535Y375238D01*
X640761Y375136D01*
X640038Y374837D01*
X639418Y374361D01*
X638942Y373741D01*
X638643Y373019D01*
X638541Y372244D01*
X638643Y371469D01*
X638942Y370747D01*
X639418Y370127D01*
X639566Y370014D01*
X639774Y367826D01*
X639467Y365715D01*
X639320Y365601D01*
X638844Y364981D01*
X638545Y364259D01*
X638443Y363484D01*
X638443Y363484D01*
X638458Y363367D01*
X634002Y358911D01*
X633564Y358255D01*
X633410Y357480D01*
Y342570D01*
X618720Y327880D01*
X618602Y327896D01*
X618602Y327896D01*
X617827Y327794D01*
X617105Y327495D01*
X616787Y327250D01*
X615383Y327516D01*
X612850Y328661D01*
Y340599D01*
X623478Y351227D01*
X623916Y351883D01*
X624070Y352658D01*
Y362378D01*
X624164Y362450D01*
X624640Y363070D01*
X624939Y363792D01*
X625041Y364567D01*
X624939Y365342D01*
X624640Y366064D01*
X624164Y366684D01*
X623544Y367160D01*
X622822Y367459D01*
X622047Y367561D01*
X621272Y367459D01*
X620550Y367160D01*
X619930Y366684D01*
X619454Y366064D01*
X619155Y365342D01*
X619053Y364567D01*
X619155Y363792D01*
X619454Y363070D01*
X619930Y362450D01*
X620024Y362378D01*
Y355543D01*
X619283Y354713D01*
X615227Y355276D01*
X614624Y355762D01*
X614320Y356524D01*
X614502Y356967D01*
X614690Y357420D01*
X614802Y357690D01*
X614802Y357690D01*
X614904Y358465D01*
X614904Y358465D01*
X614802Y359240D01*
X614502Y359962D01*
X614027Y360582D01*
X613407Y361057D01*
X613407Y361058D01*
X612684Y361357D01*
X612684Y361357D01*
X612395Y361395D01*
X611909Y361459D01*
X611134Y361357D01*
X608490Y362481D01*
X607228Y363415D01*
Y383279D01*
X607074Y384053D01*
X606636Y384710D01*
X600890Y390455D01*
X600929Y390748D01*
X600929Y390748D01*
X600820Y391574D01*
X600501Y392344D01*
X599994Y393006D01*
X599333Y393513D01*
X600248Y397277D01*
X600629Y397961D01*
X601227Y398348D01*
X601295Y398371D01*
X627150D01*
Y397228D01*
X633087D01*
Y403559D01*
X633087Y403559D01*
X633300Y407408D01*
X641942Y416050D01*
X642381Y416706D01*
X642535Y417480D01*
Y437106D01*
X643005Y437467D01*
X643566Y438198D01*
X643918Y439048D01*
X644038Y439961D01*
X643918Y440873D01*
X643566Y441724D01*
X643005Y442454D01*
X642275Y443014D01*
X641425Y443367D01*
X640512Y443487D01*
X639599Y443367D01*
X638749Y443014D01*
X638018Y442454D01*
X637458Y441724D01*
X637106Y440873D01*
X636986Y439961D01*
X637106Y439048D01*
X637458Y438198D01*
X638018Y437467D01*
X636054Y434012D01*
X635512Y433487D01*
X634599Y433367D01*
X633749Y433014D01*
X633018Y432454D01*
X632458Y431724D01*
X632106Y430873D01*
X631986Y429961D01*
X632063Y429373D01*
X622922Y420232D01*
X615075D01*
Y421177D01*
X612319D01*
X608744Y421177D01*
X604807Y421177D01*
X602051D01*
Y418101D01*
X600229Y416279D01*
X586562D01*
X586260Y416673D01*
X586259Y416673D01*
X585889Y416957D01*
X585643Y417146D01*
X585643Y417146D01*
X584939Y417438D01*
X584924Y417444D01*
X584924Y417444D01*
X584154Y417545D01*
X584154Y417545D01*
X583383Y417444D01*
X583383Y417444D01*
X582952Y417265D01*
X582664Y417146D01*
X582048Y416673D01*
X582048Y416673D01*
X581858Y416426D01*
X581574Y416056D01*
Y416056D01*
X581396Y415625D01*
X581396Y415625D01*
X581277Y415338D01*
X581277Y415338D01*
X581175Y414567D01*
X581216Y414259D01*
X581277Y413796D01*
X581277Y413796D01*
X581574Y413078D01*
Y413078D01*
X581858Y412708D01*
X582048Y412461D01*
X582048D01*
X582664Y411988D01*
X582664Y411988D01*
X582664Y411988D01*
X583383Y411690D01*
X583383Y411690D01*
X584154Y411589D01*
X584154Y411589D01*
X584462Y411629D01*
X584462D01*
X584924Y411690D01*
X584924Y411690D01*
X584939Y411696D01*
X585643Y411988D01*
X585643Y411988D01*
X585962Y412233D01*
X594202D01*
X595418Y409246D01*
X595494Y408296D01*
X574604Y387406D01*
X574311Y387445D01*
X574311Y387445D01*
X573485Y387336D01*
X573485Y387336D01*
X572715Y387017D01*
X572053Y386509D01*
X571546Y385848D01*
X571246Y385124D01*
X571227Y385078D01*
X571227Y385078D01*
X571221Y385029D01*
X571125Y384301D01*
Y384301D01*
X571118Y384252D01*
X571125Y384203D01*
X571227Y383426D01*
X571546Y382656D01*
X572053Y381994D01*
X572715Y381487D01*
X572715D01*
X573485Y381168D01*
X573485Y381168D01*
X573534Y381162D01*
X574311Y381059D01*
X575137Y381168D01*
X575137D01*
X575137Y381168D01*
X575875Y381474D01*
X575907Y381487D01*
X579731Y381604D01*
X579731D01*
X580000Y381493D01*
X580455Y381304D01*
X580501Y381285D01*
X580501Y381285D01*
X581328Y381176D01*
X581328Y381176D01*
X582154Y381285D01*
X582154Y381285D01*
X582924Y381604D01*
X583585Y382112D01*
X584093Y382773D01*
X584093Y382773D01*
X584411Y383543D01*
X584411Y383543D01*
X584418Y383592D01*
X584520Y384369D01*
X584520Y384369D01*
X584514Y384419D01*
X584482Y384662D01*
X590733Y390914D01*
X591362Y390886D01*
X592304Y390610D01*
X594845Y389457D01*
X594971Y389152D01*
X595479Y388491D01*
X596140Y387983D01*
X596910Y387664D01*
X597736Y387555D01*
X597736Y387555D01*
X597786Y387562D01*
X598029Y387594D01*
X603182Y382441D01*
Y358575D01*
X603336Y357800D01*
X603774Y357144D01*
X608890Y352029D01*
X608817Y351476D01*
X608817Y351476D01*
X608919Y350701D01*
X609218Y349979D01*
X609694Y349359D01*
X608712Y347304D01*
X606004Y346752D01*
X606004D01*
X605384Y347228D01*
X604662Y347527D01*
X603887Y347629D01*
X603112Y347527D01*
X603112Y347527D01*
X602390Y347228D01*
X602390D01*
X601876Y346834D01*
X601770Y346752D01*
Y346752D01*
X601294Y346132D01*
Y346132D01*
X600995Y345410D01*
X600893Y344635D01*
X600893Y344635D01*
X600910Y344502D01*
X600995Y343860D01*
X600995Y343860D01*
X601182Y343407D01*
X601294Y343138D01*
X601294Y343138D01*
X601770Y342518D01*
X602390Y342042D01*
X603112Y341743D01*
X603112D01*
X603887Y341641D01*
X604176Y341679D01*
X604662Y341743D01*
X604662Y341743D01*
X604876Y341788D01*
X605191Y341853D01*
X607248Y340979D01*
X608804Y337686D01*
Y297835D01*
X608958Y297060D01*
X609396Y296404D01*
X615665Y290135D01*
X615732Y288615D01*
X615601Y288211D01*
X615521Y288045D01*
X614573Y286983D01*
X612183Y285417D01*
X610452Y285781D01*
X610383Y285801D01*
X608190Y287239D01*
X607468Y287538D01*
X607468Y287538D01*
X607468Y287538D01*
X606693Y287640D01*
X606693Y287640D01*
X606693Y287640D01*
X605918Y287538D01*
X605196Y287239D01*
X605196Y287239D01*
X605196Y287239D01*
X604576Y286763D01*
X604100Y286143D01*
X604100Y286143D01*
X603801Y285421D01*
X603801Y285421D01*
X603699Y284646D01*
X603699Y284646D01*
X603801Y283871D01*
X604100Y283149D01*
X604576Y282528D01*
X605196Y282053D01*
X605918Y281754D01*
X606693Y281651D01*
X606911Y281680D01*
X607292Y281720D01*
X607979Y281642D01*
X608792Y281465D01*
X610064Y281000D01*
X611270Y280322D01*
X611659Y279974D01*
X611662Y279970D01*
X612283Y279494D01*
X613005Y279194D01*
X613779Y279093D01*
X614555Y279194D01*
X614906Y279340D01*
X617804Y278292D01*
X617964Y278216D01*
X618843Y277470D01*
Y266488D01*
X577070Y224715D01*
X576652Y224542D01*
X576032Y224066D01*
X575557Y223446D01*
X575257Y222724D01*
X575155Y221949D01*
X575257Y221174D01*
X575557Y220452D01*
X576032Y219832D01*
X576652Y219356D01*
X577375Y219057D01*
X578150Y218955D01*
X578925Y219057D01*
X579647Y219356D01*
X580267Y219832D01*
X580743Y220452D01*
X581042Y221174D01*
X581144Y221949D01*
X581042Y222724D01*
X580971Y222894D01*
X622297Y264219D01*
X622735Y264875D01*
X622889Y265650D01*
Y286492D01*
X622983Y286564D01*
Y286564D01*
X623459Y287184D01*
X623647Y287637D01*
X623758Y287906D01*
X623758Y287906D01*
X623860Y288681D01*
X623860Y288681D01*
X623758Y289456D01*
X623758Y289456D01*
X623459Y290178D01*
Y290178D01*
X622983Y290798D01*
X622363Y291274D01*
Y291274D01*
X621641Y291573D01*
X621641Y291573D01*
X621352Y291611D01*
X620866Y291675D01*
X620866Y291675D01*
X620091Y291573D01*
X619991Y291532D01*
X615755Y295768D01*
X615955Y297376D01*
X617015Y299765D01*
X617737Y300064D01*
X618357Y300540D01*
X618833Y301160D01*
X618926Y301385D01*
X621601Y302585D01*
X622358Y302801D01*
X623047Y302832D01*
X638163Y287716D01*
X638148Y287598D01*
X638148Y287598D01*
X638250Y286824D01*
X638437Y286371D01*
X638549Y286101D01*
X638549D01*
X638847Y285713D01*
X639025Y285481D01*
X639025D01*
X639645Y285005D01*
X640097Y284818D01*
X640367Y284706D01*
X640367Y284706D01*
X640656Y284668D01*
X641142Y284604D01*
X641917Y284706D01*
X641917Y284706D01*
X642639Y285005D01*
X642639D01*
X643259Y285481D01*
X643735Y286101D01*
X644034Y286824D01*
X644136Y287598D01*
X644136Y287598D01*
X644034Y288373D01*
X644034Y288373D01*
X644023Y288400D01*
X643735Y289095D01*
X643259Y289716D01*
Y289716D01*
X642639Y290191D01*
X641917Y290491D01*
X641917Y290491D01*
X641628Y290529D01*
X641142Y290593D01*
X641142Y290593D01*
X641024Y290577D01*
X625602Y305999D01*
X625722Y307770D01*
X626574Y310238D01*
X626750Y310419D01*
X627216Y310776D01*
X627288Y310871D01*
X642740D01*
X643877Y309684D01*
X645067Y307509D01*
X645152Y306934D01*
X645095Y306498D01*
X645095Y306498D01*
X645197Y305723D01*
X645197Y305723D01*
X645496Y305001D01*
X645972Y304380D01*
X646592Y303905D01*
X647314Y303606D01*
X647314Y303606D01*
X647603Y303568D01*
X648089Y303503D01*
X648089Y303503D01*
X648207Y303519D01*
X679102Y272624D01*
X679267Y271368D01*
X679772Y270148D01*
X680532Y266486D01*
X679772Y265226D01*
X679267Y264006D01*
X679095Y262697D01*
X679267Y261387D01*
X679772Y260167D01*
X680282Y257697D01*
X679772Y255226D01*
X679267Y254006D01*
X679095Y252697D01*
X679232Y251650D01*
X679138Y247713D01*
X679138Y247713D01*
Y237681D01*
X687894D01*
X689169Y237681D01*
X691831Y234846D01*
Y232852D01*
X689268Y229976D01*
X687894Y229976D01*
X679236D01*
Y219945D01*
X679236D01*
X679331Y216008D01*
X679193Y214961D01*
X679365Y213651D01*
X679871Y212431D01*
X680675Y211090D01*
Y208831D01*
X679871Y207490D01*
X679365Y206270D01*
X679193Y204961D01*
X679365Y203651D01*
X679871Y202431D01*
X680675Y201383D01*
X681722Y200579D01*
X682943Y200074D01*
X684252Y199902D01*
X685561Y200074D01*
X686782Y200579D01*
X687829Y201383D01*
X687894Y201467D01*
X691831Y200311D01*
Y185256D01*
X688874Y182890D01*
X687894Y182890D01*
X678842D01*
Y172858D01*
X678842D01*
X678937Y168921D01*
X678799Y167874D01*
X678972Y166565D01*
X679477Y165345D01*
X679987Y162874D01*
X679477Y160404D01*
X678972Y159183D01*
X678799Y157874D01*
X678972Y156565D01*
X679477Y155344D01*
X680281Y154297D01*
X681329Y153493D01*
X682549Y152987D01*
X683858Y152815D01*
X685168Y152987D01*
X686388Y153493D01*
X687435Y154297D01*
X687894Y154894D01*
X689467Y154814D01*
X691831Y153792D01*
Y139036D01*
X688874Y136669D01*
X687894Y136669D01*
X678842D01*
Y126638D01*
X678842D01*
X678937Y122701D01*
X678799Y121653D01*
X678972Y120344D01*
X679477Y119124D01*
X680281Y118076D01*
X681329Y117272D01*
X682549Y116767D01*
X683858Y116595D01*
X685168Y116767D01*
X686388Y117272D01*
X687435Y118076D01*
X687894Y118673D01*
X689467Y118593D01*
X691831Y117571D01*
Y110531D01*
X685433Y104134D01*
X621949D01*
X478543Y104134D01*
X469685Y112992D01*
X469685Y185581D01*
X481498Y197394D01*
X510335D01*
X510955Y197518D01*
X511481Y197869D01*
X527443Y213831D01*
X534686D01*
X535825Y211844D01*
X536286Y209894D01*
X536187Y209765D01*
X535887Y209043D01*
X535785Y208268D01*
X535785Y208268D01*
X535887Y207493D01*
X535895Y207393D01*
X531545Y203043D01*
X530885Y202383D01*
X530577Y201922D01*
X530469Y201378D01*
Y200436D01*
Y193520D01*
X527150D01*
Y181283D01*
X530469Y180807D01*
X530577Y180263D01*
X530885Y179802D01*
X533646Y177042D01*
X533646Y176062D01*
Y172917D01*
X539583D01*
Y172917D01*
X541126D01*
Y172917D01*
X547063D01*
Y176143D01*
X547063Y177238D01*
X549824Y179999D01*
X550132Y180460D01*
X550240Y181004D01*
X553559Y181283D01*
Y193520D01*
X550240D01*
Y200923D01*
Y201870D01*
X550677Y202907D01*
X552269Y204344D01*
X552314Y204379D01*
X552314Y204379D01*
X552329Y204399D01*
X553078Y205075D01*
X555426D01*
X558582Y203188D01*
X560571Y201199D01*
X565114Y196655D01*
X565114Y194755D01*
Y152939D01*
Y151576D01*
X565038Y151510D01*
X564418Y151034D01*
X564243Y150806D01*
X564243Y150806D01*
X563942Y150414D01*
X563877Y150338D01*
X553552D01*
X551601Y150338D01*
X551057Y150230D01*
X550596Y149922D01*
X548878Y148204D01*
X534570Y133896D01*
X531644Y130970D01*
X528860Y128186D01*
X525546Y124872D01*
X522514Y121840D01*
X517404Y121890D01*
X516226Y123069D01*
X516551Y125240D01*
X516551Y125830D01*
Y133146D01*
X508646D01*
Y125886D01*
X508646Y125240D01*
X509235Y121303D01*
X509146Y121186D01*
X508847Y120466D01*
X508683Y120374D01*
X507276Y119908D01*
X504771Y119473D01*
X504450Y119719D01*
X504450D01*
X503728Y120018D01*
X503728Y120018D01*
X502953Y120120D01*
X502953Y120120D01*
X502953Y120120D01*
X502664Y120082D01*
X502178Y120018D01*
X502178Y120018D01*
X501725Y119831D01*
X501456Y119719D01*
Y119719D01*
X501067Y119421D01*
X500836Y119243D01*
Y119243D01*
X500537Y118854D01*
Y118854D01*
X500360Y118623D01*
X500061Y117901D01*
X500023Y117612D01*
X499959Y117126D01*
X499959Y117126D01*
X499997Y116837D01*
X500061Y116351D01*
X500061Y116351D01*
X500356Y115637D01*
X500360Y115629D01*
Y115629D01*
X500658Y115240D01*
X500658Y115240D01*
X500836Y115009D01*
X500836D01*
X501456Y114533D01*
X501456Y114533D01*
X502178Y114234D01*
X502178Y114234D01*
X502953Y114132D01*
X502953Y114132D01*
X503728Y114234D01*
X503728Y114234D01*
X505901Y113251D01*
X506362Y112943D01*
X506906Y112835D01*
X508462D01*
X512505Y112835D01*
X516939Y112835D01*
X517483Y112943D01*
X517944Y113251D01*
X520616Y115923D01*
X521790Y117097D01*
X525602Y120909D01*
X525687Y120920D01*
X526330Y120434D01*
X528861Y118520D01*
X529234Y118019D01*
X529138Y117378D01*
X529138Y116788D01*
Y109473D01*
X536397D01*
X537043Y109473D01*
X540980Y110062D01*
X541097Y109973D01*
X542059Y109574D01*
X543091Y109438D01*
X544122Y109574D01*
X545084Y109973D01*
X545910Y110606D01*
X546711Y110784D01*
X549470D01*
X550271Y110606D01*
X551097Y109973D01*
X552059Y109574D01*
X553091Y109438D01*
X554122Y109574D01*
X555084Y109973D01*
X555910Y110606D01*
X556711Y110784D01*
X559470D01*
X560271Y110606D01*
X561097Y109973D01*
X562059Y109574D01*
X563091Y109438D01*
X564122Y109574D01*
X565084Y109973D01*
X565910Y110606D01*
X566543Y111432D01*
X566942Y112393D01*
X567077Y113425D01*
X566942Y114457D01*
X566543Y115419D01*
X565910Y116244D01*
X565812Y116687D01*
X566634Y119881D01*
X569829Y120704D01*
X570271Y120606D01*
X571097Y119973D01*
X572059Y119574D01*
X573091Y119438D01*
X574122Y119574D01*
X575084Y119973D01*
X575910Y120606D01*
X576605Y120760D01*
X576982Y120719D01*
X580449Y117252D01*
Y117046D01*
X580271Y116244D01*
X579638Y115419D01*
X579240Y114457D01*
X579104Y113425D01*
X579240Y112393D01*
X579638Y111432D01*
X580271Y110606D01*
X581097Y109973D01*
X582059Y109574D01*
X583091Y109438D01*
X584122Y109574D01*
X585084Y109973D01*
X585910Y110606D01*
X586711Y110784D01*
X589470D01*
X590271Y110606D01*
X591097Y109973D01*
X592059Y109574D01*
X593091Y109438D01*
X594122Y109574D01*
X595084Y109973D01*
X595910Y110606D01*
X596543Y111432D01*
X596942Y112393D01*
X597077Y113425D01*
X596942Y114457D01*
X596543Y115419D01*
X595910Y116244D01*
X595732Y117046D01*
Y119805D01*
X595910Y120606D01*
X596543Y121432D01*
X596942Y122393D01*
X597077Y123425D01*
X596942Y124457D01*
X596543Y125419D01*
X595910Y126244D01*
X595084Y126878D01*
X594122Y127276D01*
X593091Y127412D01*
X592059Y127276D01*
X591097Y126878D01*
X590271Y126244D01*
X589470Y126067D01*
X586711D01*
X585910Y126244D01*
X585084Y126878D01*
X584122Y127276D01*
X583091Y127412D01*
X582059Y127276D01*
X581097Y126878D01*
X580271Y126244D01*
X579470Y126067D01*
X576711D01*
X575910Y126244D01*
X575084Y126878D01*
X574122Y127276D01*
X573091Y127412D01*
X572059Y127276D01*
X571097Y126878D01*
X570271Y126244D01*
X569470Y126067D01*
X566711D01*
X565910Y126244D01*
X565084Y126878D01*
X564122Y127276D01*
X563091Y127412D01*
X562059Y127276D01*
X561097Y126878D01*
X560271Y126244D01*
X559470Y126067D01*
X556711D01*
X555910Y126244D01*
X555084Y126878D01*
X554122Y127276D01*
X553091Y127412D01*
X552059Y127276D01*
X551097Y126878D01*
X550271Y126244D01*
X549470Y126067D01*
X546711D01*
X545910Y126244D01*
X545084Y126878D01*
X544122Y127276D01*
X543091Y127412D01*
X542059Y127276D01*
X541097Y126878D01*
X540271Y126244D01*
X539627Y126102D01*
X537523Y126359D01*
X535520Y130242D01*
X535606Y130913D01*
X537539Y132846D01*
X550821Y146128D01*
X552189Y147496D01*
X553871Y147496D01*
X563877D01*
X563942Y147420D01*
X564418Y146800D01*
X564418Y146800D01*
X565038Y146324D01*
X565761Y146025D01*
X566535Y145923D01*
X566536Y145923D01*
X567310Y146025D01*
X567310Y146025D01*
X568033Y146324D01*
X568033D01*
X568043Y146333D01*
X568653Y146800D01*
X568987Y147236D01*
X569128Y147420D01*
X569128Y147420D01*
X569427Y148142D01*
X569427Y148142D01*
X569530Y148917D01*
X569530Y148917D01*
X569427Y149692D01*
X569128Y150414D01*
X568830Y150803D01*
X568653Y151034D01*
X568653Y151034D01*
X568033Y151510D01*
X567956Y151576D01*
Y152943D01*
Y194827D01*
X567956Y197244D01*
X567848Y197788D01*
X567540Y198249D01*
X562628Y203162D01*
X562343Y204400D01*
X562345Y204993D01*
X562353Y207528D01*
X562829Y208149D01*
X563128Y208871D01*
X563230Y209646D01*
X563230Y209646D01*
X563128Y210421D01*
X562593Y213569D01*
X563227Y216646D01*
X563329Y217421D01*
X563329Y217421D01*
X563227Y218196D01*
X562928Y218918D01*
X562452Y219538D01*
X562452Y219538D01*
X561832Y220014D01*
X561563Y220126D01*
X561110Y220313D01*
X560366Y220576D01*
X559439Y220903D01*
X559403Y220927D01*
X559328Y220942D01*
X559328Y220942D01*
X558782Y221051D01*
X554464Y221051D01*
X554464Y221051D01*
X554464Y221051D01*
X526057D01*
X525437Y220927D01*
X524911Y220575D01*
X508221Y203886D01*
X504474D01*
X503531Y207541D01*
X503984Y207729D01*
X504253Y207840D01*
X504253Y207840D01*
X504767Y208234D01*
X504873Y208316D01*
Y208316D01*
X505349Y208936D01*
Y208936D01*
X505648Y209658D01*
X505750Y210433D01*
X505648Y211208D01*
X505349Y211930D01*
X505349Y211930D01*
X504873Y212550D01*
X504873Y212550D01*
X504253Y213026D01*
X503531Y213325D01*
X502756Y213427D01*
X502756Y213427D01*
X502756Y213427D01*
X502467Y213389D01*
X502011Y213329D01*
X489701Y225640D01*
X489415Y225925D01*
Y226334D01*
X489415Y257134D01*
Y258017D01*
X512008Y280610D01*
X522704D01*
X522886Y280170D01*
X522886Y280170D01*
X522998Y279901D01*
X522998Y279901D01*
X523296Y279512D01*
X523473Y279280D01*
X523473D01*
X524093Y278805D01*
X524816Y278505D01*
X524816Y278505D01*
X527131Y275865D01*
X527131Y275865D01*
X527132Y275865D01*
X527607Y275245D01*
X527607D01*
X528133Y274841D01*
X528227Y274769D01*
X528227Y274769D01*
X528227Y274769D01*
X529931Y273267D01*
X531265Y271633D01*
X531741Y271013D01*
X532079Y270753D01*
X532361Y270537D01*
X532361Y270537D01*
X532361D01*
X532577Y270448D01*
X533416Y270021D01*
X533416Y270021D01*
X533416Y270021D01*
X534763Y269142D01*
X535634Y268483D01*
X536525Y267654D01*
X536761Y267371D01*
X537015Y267176D01*
X537381Y266895D01*
X540415Y264875D01*
X540714Y264153D01*
X541190Y263532D01*
Y263532D01*
X541810Y263057D01*
X542235Y262880D01*
X542770Y262595D01*
X543902Y261822D01*
X544530Y261287D01*
X545235Y260497D01*
X545931Y259625D01*
X546142Y259349D01*
X546407Y259005D01*
X546749Y258742D01*
X549651Y256244D01*
X550546Y254593D01*
X550546Y254593D01*
X550546Y253236D01*
Y247063D01*
X549950Y246605D01*
X549950Y246605D01*
X549474Y245985D01*
X549175Y245263D01*
X549073Y244488D01*
X549175Y243713D01*
X549175Y243713D01*
X549474Y242991D01*
X549474Y242991D01*
X549474Y242991D01*
X549950Y242371D01*
X550386Y242037D01*
X550570Y241895D01*
X550570D01*
X551292Y241596D01*
X552067Y241494D01*
X552842Y241596D01*
X552842Y241596D01*
X553295Y241784D01*
X553564Y241895D01*
Y241895D01*
X553953Y242194D01*
X554184Y242371D01*
Y242371D01*
X554519Y242807D01*
X554660Y242991D01*
Y242991D01*
X554959Y243713D01*
X554959Y243713D01*
X555061Y244488D01*
X554959Y245263D01*
X554959Y245263D01*
X554660Y245985D01*
X554660Y245985D01*
X554354Y246384D01*
X554184Y246605D01*
X554184D01*
X553588Y247063D01*
Y253948D01*
Y257332D01*
X553588Y261269D01*
X553588Y277356D01*
Y278445D01*
X553588Y278445D01*
X556618Y280495D01*
X556866Y280610D01*
X568996D01*
X570529Y282143D01*
X578034Y274637D01*
Y266362D01*
X577590Y265474D01*
X575492Y262935D01*
X574717Y262833D01*
X573995Y262534D01*
X573375Y262058D01*
X572899Y261438D01*
X572600Y260716D01*
X572498Y259941D01*
X572600Y259166D01*
X572899Y258444D01*
X573375Y257824D01*
X573995Y257348D01*
X574717Y257049D01*
X575492Y256947D01*
X577487Y254532D01*
X577561Y252821D01*
X577439Y250456D01*
X577104Y250020D01*
X576963Y249836D01*
Y249836D01*
X576664Y249114D01*
X576664Y249114D01*
X576562Y248339D01*
X576664Y247564D01*
X576664Y247564D01*
X576664Y247564D01*
X576963Y246842D01*
X576963Y246842D01*
X576963Y246842D01*
X577104Y246658D01*
X577439Y246222D01*
X577439D01*
X578059Y245746D01*
X578781Y245447D01*
X578781Y245447D01*
X579556Y245345D01*
X579556Y245345D01*
X580331Y245447D01*
X581053Y245746D01*
X581053Y245746D01*
X581208Y245865D01*
X582366Y246290D01*
X584694Y246186D01*
X585898Y246130D01*
X586085Y246093D01*
X586725Y245828D01*
X587500Y245726D01*
X587500Y245726D01*
X587500Y245726D01*
X588275Y245828D01*
X588275Y245828D01*
X588275Y245828D01*
X588997Y246128D01*
X588997D01*
X588997Y246128D01*
X589617Y246603D01*
X589617Y246603D01*
X589617Y246603D01*
X590093Y247223D01*
X590280Y247676D01*
X590392Y247945D01*
X590392Y247945D01*
X590392Y247945D01*
X590494Y248720D01*
X590494Y248721D01*
X590392Y249495D01*
X590392Y249495D01*
X590392Y249495D01*
X590093Y250218D01*
Y250218D01*
X590093Y250218D01*
X589617Y250838D01*
X587701Y252702D01*
X587124Y253674D01*
X586090Y256004D01*
X585791Y256726D01*
X585791Y256726D01*
X585424Y257204D01*
X584719Y258855D01*
Y296333D01*
X587697Y299311D01*
X587697Y360925D01*
X587697Y363484D01*
X585827Y365354D01*
X578839D01*
X577699Y367348D01*
X577241Y369291D01*
X577419Y369523D01*
X577766Y370360D01*
X577884Y371260D01*
X577766Y372159D01*
X577419Y372997D01*
X576866Y373717D01*
X576147Y374269D01*
X575309Y374616D01*
X574409Y374734D01*
X573510Y374616D01*
X572672Y374269D01*
X571952Y373717D01*
X571400Y372997D01*
X571053Y372159D01*
X570935Y371260D01*
X571053Y370360D01*
X571400Y369523D01*
X571578Y369291D01*
X571120Y367348D01*
X569980Y365354D01*
X550676D01*
X547881Y369118D01*
X548061Y370965D01*
X547752Y374130D01*
X544587Y374439D01*
X541421Y374130D01*
X541289Y372780D01*
Y372780D01*
X541112Y370965D01*
X541421Y367799D01*
X538497Y365354D01*
X454581Y365354D01*
X453663Y366106D01*
X452603Y367640D01*
X451959Y369291D01*
X451998Y369587D01*
X451880Y370486D01*
X451533Y371324D01*
X450981Y372043D01*
X450261Y372596D01*
X449423Y372943D01*
X448524Y373061D01*
X447624Y372943D01*
X446786Y372596D01*
X446067Y372043D01*
X445514Y371324D01*
X445167Y370486D01*
X445049Y369587D01*
X445088Y369291D01*
X444444Y367640D01*
X443385Y366106D01*
X442466Y365354D01*
X423457D01*
X421792Y366482D01*
X420109Y369193D01*
X419799Y372358D01*
X416634Y372668D01*
X413469Y372358D01*
X413159Y369193D01*
X410899Y365555D01*
X409810Y365354D01*
X407147D01*
X403978Y367717D01*
X403876Y368492D01*
X403876Y368492D01*
X403689Y368944D01*
X403577Y369214D01*
X403577D01*
X403279Y369602D01*
X403101Y369834D01*
X403101D01*
X402713Y370132D01*
X402481Y370309D01*
X402481D01*
X401759Y370609D01*
X401759Y370609D01*
X401759Y370609D01*
X401470Y370647D01*
X400984Y370711D01*
X400984Y370711D01*
X400695Y370673D01*
X400209Y370609D01*
X400209Y370609D01*
X399487Y370309D01*
X399487Y370309D01*
X398867Y369834D01*
X398867Y369834D01*
X398421Y369253D01*
X398421Y369253D01*
X398390Y369213D01*
X395744Y368163D01*
X394164Y367942D01*
X353543Y408563D01*
X325991D01*
X293825Y440729D01*
X293841Y440846D01*
X293841Y440846D01*
X293739Y441621D01*
X293739Y441621D01*
X293551Y442074D01*
X293439Y442344D01*
X293439D01*
X292964Y442964D01*
X292343Y443439D01*
X291891Y443627D01*
X291621Y443739D01*
X291621Y443739D01*
X291332Y443777D01*
X290846Y443841D01*
X290557Y443802D01*
X290072Y443739D01*
X289619Y443551D01*
X289619Y443551D01*
X289349Y443439D01*
X289349Y443439D01*
X288729Y442964D01*
X288253Y442344D01*
X287954Y441621D01*
X287954Y441621D01*
X287852Y440846D01*
X287852Y440846D01*
X287954Y440071D01*
X287954Y440071D01*
X288253Y439349D01*
Y439349D01*
X288729Y438729D01*
Y438729D01*
X289349Y438253D01*
X290072Y437954D01*
X290072Y437954D01*
X290361Y437916D01*
X290846Y437852D01*
X290846Y437852D01*
X290964Y437868D01*
X316632Y412200D01*
X315125Y408563D01*
X292931Y408563D01*
X292759Y408977D01*
X292759Y408977D01*
X292460Y409366D01*
X292283Y409597D01*
X292283D01*
X291663Y410073D01*
X290941Y410372D01*
X290166Y410474D01*
X289391Y410372D01*
X289391Y410372D01*
X288669Y410073D01*
X288669Y410073D01*
X288049Y409597D01*
X287573Y408977D01*
X287401Y408563D01*
X191634Y408563D01*
X144704Y361633D01*
X141929Y363917D01*
X141927Y366766D01*
X141961Y367126D01*
X141650Y370488D01*
X138287Y370799D01*
X134925Y370488D01*
X134845Y369620D01*
D01*
X134614Y367126D01*
X134844Y364644D01*
X134844D01*
X134925Y363764D01*
X138287Y363453D01*
X138288Y363453D01*
X141337Y363678D01*
X143780Y360709D01*
X136221Y353150D01*
X117323D01*
X106082Y364390D01*
X105905Y373031D01*
Y483858D01*
X116339Y494291D01*
X157087D01*
X157185Y493996D01*
D02*
G37*
G36*
X664376Y346837D02*
X665033Y346399D01*
X665807Y346245D01*
X679669D01*
X679871Y345758D01*
X680675Y344425D01*
Y342169D01*
X679871Y340837D01*
X679365Y339616D01*
X679193Y338307D01*
X679365Y336998D01*
X679871Y335778D01*
X680675Y334436D01*
Y332178D01*
X679871Y330837D01*
X679365Y329616D01*
X679193Y328307D01*
X679331Y327260D01*
X679236Y323323D01*
X679236Y323323D01*
Y313291D01*
X687894D01*
X689268Y313291D01*
X691540Y310742D01*
X691540Y310038D01*
X691155Y307985D01*
X690073Y307457D01*
X687243Y306688D01*
X686683Y307118D01*
X685463Y307623D01*
X684154Y307795D01*
X682844Y307623D01*
X681624Y307118D01*
X680576Y306313D01*
X679772Y305266D01*
X679267Y304046D01*
X679095Y302736D01*
X679267Y301427D01*
X679772Y300207D01*
X680576Y299159D01*
X681624Y298355D01*
X682844Y297850D01*
X684154Y297677D01*
X685463Y297850D01*
X686683Y298355D01*
X687731Y299159D01*
X687894Y299371D01*
X691540Y298521D01*
X691831Y298359D01*
Y287055D01*
X691540Y286892D01*
X687894Y286042D01*
X687731Y286254D01*
X686683Y287058D01*
X685463Y287564D01*
X684154Y287736D01*
X682844Y287564D01*
X681674Y287079D01*
X654429Y314324D01*
X653773Y314763D01*
X652999Y314917D01*
X627288D01*
X627216Y315011D01*
X626595Y315487D01*
X625873Y315786D01*
X625098Y315888D01*
X624563Y315817D01*
X624224Y315836D01*
X621919Y317001D01*
X620625Y318166D01*
Y322712D01*
X620719Y322784D01*
X621195Y323405D01*
X621494Y324127D01*
X621596Y324902D01*
X621581Y325019D01*
X636864Y340302D01*
X637302Y340958D01*
X637456Y341732D01*
Y349728D01*
X638698Y350566D01*
X641393Y351659D01*
X641449Y351635D01*
X641449Y351636D01*
X642224Y351533D01*
X642224Y351533D01*
X642999Y351636D01*
X643721Y351935D01*
X644342Y352410D01*
X644817Y353030D01*
X644817Y353030D01*
X644929Y353300D01*
X645117Y353753D01*
X645117Y353753D01*
X645155Y354042D01*
X645219Y354528D01*
X645117Y355303D01*
X645117Y355303D01*
X644817Y356025D01*
Y356025D01*
X644342Y356645D01*
Y356645D01*
X643721Y357120D01*
X643268Y359291D01*
X643258Y359442D01*
X643499Y361325D01*
X643554Y361367D01*
X643869Y361777D01*
X644165Y362030D01*
X646608Y362812D01*
X648324Y362890D01*
X664376Y346837D01*
D02*
G37*
G36*
X193996Y384842D02*
X196752Y382087D01*
X196752Y368602D01*
X193307Y365158D01*
X174311D01*
X173501Y365147D01*
X173501Y236886D01*
X195843Y214544D01*
X195843Y199629D01*
X181947Y185410D01*
X136591Y185410D01*
X131571Y180390D01*
X131571Y177339D01*
X137700Y171211D01*
X183763D01*
X191315Y163658D01*
X191315Y158441D01*
X169439Y136565D01*
X118875D01*
X114741Y140699D01*
Y143848D01*
X117841Y146949D01*
X166535D01*
X179997Y160410D01*
Y161690D01*
X178645Y163041D01*
X131571D01*
X118087Y176526D01*
Y181742D01*
X130712Y194367D01*
X179603Y194367D01*
X188067Y202831D01*
X188067Y210312D01*
X163363Y235016D01*
X163363Y366657D01*
X163287Y366732D01*
Y372835D01*
X175295Y384842D01*
X193996Y384842D01*
D02*
G37*
%LPC*%
G36*
X171949Y485890D02*
X168783Y485580D01*
X168652Y484231D01*
Y484231D01*
X168474Y482415D01*
X168557Y481570D01*
X168783Y479250D01*
X171949Y478940D01*
X175114Y479250D01*
X175246Y480599D01*
Y480599D01*
X175424Y482415D01*
X175341Y483259D01*
X175114Y485580D01*
X175114Y485580D01*
X171949Y485890D01*
D02*
G37*
G36*
X294193Y483790D02*
X291027Y483480D01*
X290896Y482131D01*
Y482130D01*
X290718Y480315D01*
X290801Y479470D01*
X291027Y477150D01*
X294193Y476840D01*
X297358Y477150D01*
X297490Y478499D01*
Y478500D01*
X297668Y480315D01*
X297585Y481159D01*
X297358Y483480D01*
X297358Y483480D01*
X294193Y483790D01*
D02*
G37*
G36*
X151500Y471880D02*
X150237Y471714D01*
X149060Y471227D01*
X148049Y470451D01*
X147274Y469440D01*
X146786Y468263D01*
X146620Y467000D01*
X146786Y465737D01*
X147274Y464560D01*
X148049Y463549D01*
X149060Y462774D01*
X150237Y462286D01*
X151500Y462120D01*
X152763Y462286D01*
X153940Y462774D01*
X154951Y463549D01*
X155727Y464560D01*
X156214Y465737D01*
X156380Y467000D01*
X156214Y468263D01*
X155727Y469440D01*
X154951Y470451D01*
X153940Y471227D01*
X152763Y471714D01*
X151500Y471880D01*
D02*
G37*
G36*
X121500D02*
X120237Y471714D01*
X119060Y471227D01*
X118049Y470451D01*
X117273Y469440D01*
X116786Y468263D01*
X116620Y467000D01*
X116786Y465737D01*
X117273Y464560D01*
X118049Y463549D01*
X119060Y462774D01*
X120237Y462286D01*
X121500Y462120D01*
X122763Y462286D01*
X123940Y462774D01*
X124951Y463549D01*
X125726Y464560D01*
X126214Y465737D01*
X126380Y467000D01*
X126214Y468263D01*
X125726Y469440D01*
X124951Y470451D01*
X123940Y471227D01*
X122763Y471714D01*
X121500Y471880D01*
D02*
G37*
G36*
X620512Y443487D02*
X619599Y443367D01*
X618749Y443014D01*
X618018Y442454D01*
X617458Y441724D01*
X617106Y440873D01*
X616986Y439961D01*
X617106Y439048D01*
X617458Y438198D01*
X618018Y437467D01*
X618749Y436907D01*
X619599Y436555D01*
X620512Y436434D01*
X621424Y436555D01*
X622275Y436907D01*
X623005Y437467D01*
X623566Y438198D01*
X623918Y439048D01*
X624038Y439961D01*
X623918Y440873D01*
X623566Y441724D01*
X623005Y442454D01*
X622275Y443014D01*
X621424Y443367D01*
X620512Y443487D01*
D02*
G37*
G36*
X378386D02*
X377473Y443367D01*
X376623Y443014D01*
X375892Y442454D01*
X375332Y441724D01*
X374980Y440873D01*
X374860Y439961D01*
X374980Y439048D01*
X375332Y438198D01*
X375892Y437467D01*
X376623Y436907D01*
X377473Y436555D01*
X378386Y436434D01*
X379298Y436555D01*
X380149Y436907D01*
X380879Y437467D01*
X381440Y438198D01*
X381792Y439048D01*
X381912Y439961D01*
X381792Y440873D01*
X381440Y441724D01*
X380879Y442454D01*
X380149Y443014D01*
X379298Y443367D01*
X378386Y443487D01*
D02*
G37*
G36*
X560197Y443093D02*
X559284Y442973D01*
X558434Y442621D01*
X557703Y442060D01*
X557143Y441330D01*
X556791Y440480D01*
X556671Y439567D01*
X556736Y439070D01*
X556634Y438960D01*
X556634Y438960D01*
X556204Y438494D01*
X556204Y438494D01*
X553228Y436173D01*
X549083Y436173D01*
X546764D01*
X545749Y436969D01*
X543723Y439567D01*
X543603Y440480D01*
X543251Y441330D01*
X542690Y442060D01*
X541960Y442621D01*
X541110Y442973D01*
X540197Y443093D01*
X539284Y442973D01*
X538434Y442621D01*
X537703Y442060D01*
X537143Y441330D01*
X536791Y440480D01*
X536671Y439567D01*
X534645Y436969D01*
X534002Y436465D01*
X533630Y436173D01*
X529429D01*
X528732Y436034D01*
X528732Y436034D01*
X528140Y435639D01*
X528140Y435639D01*
X528105Y435604D01*
X528105D01*
X526426Y433924D01*
X509821Y417320D01*
X508419Y415917D01*
X508419D01*
X506830Y414328D01*
X506030Y413528D01*
X506030Y413528D01*
X506010Y413508D01*
X506010Y413508D01*
X505995Y413493D01*
X504315Y411433D01*
X504315Y411433D01*
Y408677D01*
X504315Y405102D01*
X504315Y401165D01*
Y398410D01*
X509397D01*
X510252Y398409D01*
X514189Y399752D01*
X514781D01*
X526356D01*
X528395Y399752D01*
X528395Y399752D01*
X528445D01*
X528445Y399752D01*
X529142Y399891D01*
X529143Y399891D01*
X529734Y400286D01*
X529769Y400321D01*
X529769Y400321D01*
Y400321D01*
X529769Y400321D01*
D01*
X532770Y403323D01*
X533280Y403112D01*
X533280Y403112D01*
X534055Y403010D01*
X534055Y403010D01*
X534830Y403112D01*
X534830Y403112D01*
X535283Y403299D01*
X535552Y403411D01*
Y403411D01*
X535941Y403709D01*
X536172Y403887D01*
Y403887D01*
X536471Y404276D01*
X536648Y404507D01*
X536648Y404507D01*
X536947Y405229D01*
X536947Y405229D01*
X536985Y405518D01*
X537049Y406004D01*
X537049Y406004D01*
X537011Y406293D01*
X536947Y406779D01*
X536947Y406779D01*
X536648Y407501D01*
X536648Y407501D01*
X536172Y408121D01*
X536172Y408121D01*
X535552Y408597D01*
X535552D01*
X534830Y408896D01*
X534830Y408896D01*
X534055Y408998D01*
X534055Y408998D01*
X533505Y408926D01*
X533280Y408896D01*
X532558Y408597D01*
X532558D01*
X532375Y408457D01*
X531938Y408121D01*
X531938Y408121D01*
X531462Y407501D01*
X531126Y407020D01*
X530692Y406399D01*
Y406399D01*
X530692Y406399D01*
Y406399D01*
X527690Y403397D01*
X526111Y403397D01*
X514855D01*
X513483D01*
X510252Y405102D01*
X510252Y408677D01*
Y410034D01*
X511517Y413447D01*
X512214Y414558D01*
X512666Y415010D01*
X529031Y431375D01*
X530184Y432528D01*
X534335Y432528D01*
X538272Y432528D01*
X539961D01*
X542121D01*
X546058Y432528D01*
X548378D01*
X549336Y431953D01*
X551671Y429567D01*
X551791Y428654D01*
X552143Y427804D01*
X552703Y427073D01*
X553434Y426513D01*
X554284Y426161D01*
X555197Y426041D01*
X555785Y426118D01*
X562566Y419337D01*
X563222Y418899D01*
X563996Y418745D01*
X564650D01*
Y417799D01*
X567406D01*
X570980Y417799D01*
X574917Y417799D01*
X577673D01*
Y423736D01*
X577673Y423736D01*
X578482Y426488D01*
X578483Y426489D01*
X578585Y427264D01*
X578483Y428039D01*
X578184Y428761D01*
X577708Y429381D01*
X577088Y429857D01*
X576366Y430156D01*
X575591Y430258D01*
X574816Y430156D01*
X574093Y429857D01*
X573473Y429381D01*
X572998Y428761D01*
X572698Y428039D01*
X572596Y427264D01*
X572387Y426675D01*
X570751Y424584D01*
X570080Y423928D01*
X569776Y423736D01*
X568587Y423736D01*
X564650Y423736D01*
X561643Y425982D01*
X558646Y428979D01*
X558723Y429567D01*
X558603Y430480D01*
X558251Y431330D01*
X557690Y432060D01*
X559037Y435830D01*
X559358Y436151D01*
X559635Y436115D01*
X560197Y436041D01*
X561109Y436161D01*
X561960Y436513D01*
X562690Y437074D01*
X563251Y437804D01*
X563603Y438654D01*
X563723Y439567D01*
X563603Y440480D01*
X563251Y441330D01*
X562690Y442060D01*
X561960Y442621D01*
X561109Y442973D01*
X560197Y443093D01*
D02*
G37*
G36*
X459488D02*
X458575Y442973D01*
X457725Y442621D01*
X456995Y442060D01*
X456434Y441330D01*
X456082Y440480D01*
X455962Y439567D01*
X456082Y438654D01*
X456434Y437804D01*
X456995Y437074D01*
X457725Y436513D01*
X458575Y436161D01*
X459488Y436041D01*
X460401Y436161D01*
X461251Y436513D01*
X461982Y437074D01*
X462542Y437804D01*
X462894Y438654D01*
X463014Y439567D01*
X462894Y440480D01*
X462542Y441330D01*
X461982Y442060D01*
X461251Y442621D01*
X460401Y442973D01*
X459488Y443093D01*
D02*
G37*
G36*
X664075Y439608D02*
X663300Y439506D01*
X662578Y439207D01*
X661958Y438731D01*
X661482Y438111D01*
X661183Y437389D01*
X661081Y436614D01*
X661183Y435839D01*
X661482Y435117D01*
X661958Y434497D01*
X662578Y434021D01*
X663300Y433722D01*
X664075Y433620D01*
X664850Y433722D01*
X665572Y434021D01*
X666192Y434497D01*
X666668Y435117D01*
X666967Y435839D01*
X667069Y436614D01*
X666967Y437389D01*
X666668Y438111D01*
X666192Y438731D01*
X665572Y439207D01*
X664850Y439506D01*
X664075Y439608D01*
D02*
G37*
G36*
X425000Y437837D02*
X424225Y437735D01*
X423503Y437435D01*
X422883Y436960D01*
X422407Y436340D01*
X422108Y435617D01*
X422006Y434842D01*
X422108Y434068D01*
X422407Y433346D01*
X422883Y432725D01*
X423503Y432249D01*
X424225Y431950D01*
X425000Y431848D01*
X425775Y431950D01*
X426497Y432249D01*
X427117Y432725D01*
X427593Y433346D01*
X427892Y434068D01*
X427994Y434842D01*
X427892Y435617D01*
X427593Y436340D01*
X427117Y436960D01*
X426497Y437435D01*
X425775Y437735D01*
X425000Y437837D01*
D02*
G37*
G36*
X586516Y436360D02*
X585741Y436258D01*
X585019Y435959D01*
X584399Y435483D01*
X583923Y434863D01*
X583624Y434141D01*
X583522Y433366D01*
X583624Y432591D01*
X583923Y431869D01*
X584399Y431249D01*
X585019Y430773D01*
X585741Y430474D01*
X586516Y430372D01*
X587291Y430474D01*
X588013Y430773D01*
X588633Y431249D01*
X589109Y431869D01*
X589408Y432591D01*
X589510Y433366D01*
X589408Y434141D01*
X589109Y434863D01*
X588633Y435483D01*
X588013Y435959D01*
X587291Y436258D01*
X586516Y436360D01*
D02*
G37*
G36*
X345000Y435912D02*
X341835Y435602D01*
X341703Y434253D01*
X341703D01*
X341525Y432437D01*
X341835Y429272D01*
X345000Y428962D01*
X346816Y429140D01*
D01*
X348165Y429272D01*
X348475Y432437D01*
X348392Y433282D01*
X348297Y434253D01*
X348165Y435602D01*
X348165Y435602D01*
X345000Y435912D01*
D02*
G37*
G36*
X506988Y430848D02*
X506213Y430746D01*
X505491Y430447D01*
X504871Y429972D01*
X504395Y429351D01*
X504096Y428629D01*
X503994Y427854D01*
X504096Y427079D01*
X504395Y426357D01*
X504871Y425737D01*
X505491Y425261D01*
X506213Y424962D01*
X506988Y424860D01*
X507763Y424962D01*
X508485Y425261D01*
X509105Y425737D01*
X509581Y426357D01*
X509880Y427079D01*
X509982Y427854D01*
X509880Y428629D01*
X509581Y429351D01*
X509105Y429972D01*
X508485Y430447D01*
X507763Y430746D01*
X506988Y430848D01*
D02*
G37*
G36*
X479488Y443093D02*
X478576Y442973D01*
X477725Y442621D01*
X476995Y442060D01*
X476434Y441330D01*
X476082Y440480D01*
X475962Y439567D01*
X476082Y438654D01*
X476434Y437804D01*
X476995Y437074D01*
X475030Y433619D01*
X474488Y433093D01*
X473575Y432973D01*
X472725Y432621D01*
X471995Y432060D01*
X471434Y431330D01*
X471082Y430480D01*
X470962Y429567D01*
X471039Y428979D01*
X465599Y423539D01*
X463795D01*
X460220Y423539D01*
X456284Y423539D01*
X453528D01*
Y420464D01*
X451916Y418852D01*
X451477Y418195D01*
X451323Y417421D01*
Y416363D01*
X451229Y416290D01*
X450753Y415670D01*
X450454Y414948D01*
X450352Y414173D01*
X450454Y413398D01*
X450454D01*
X450753Y412676D01*
X450753Y412676D01*
X451229Y412056D01*
X451849Y411580D01*
X452571Y411281D01*
X453346Y411179D01*
X453346Y411179D01*
X454121Y411281D01*
X454844Y411580D01*
X455464Y412056D01*
X455939Y412676D01*
X456239Y413398D01*
X456239Y413398D01*
X456277Y413687D01*
X456341Y414173D01*
X458381Y416900D01*
X459084Y417541D01*
X459153Y417582D01*
X460220Y417602D01*
X463795Y417602D01*
X466551D01*
Y418178D01*
X468633Y419791D01*
X472465Y418071D01*
Y414598D01*
X444409Y386542D01*
X444291Y386557D01*
X444291Y386557D01*
X443516Y386455D01*
X443064Y386268D01*
X442794Y386156D01*
Y386156D01*
X442406Y385858D01*
X442174Y385680D01*
Y385680D01*
X441698Y385060D01*
X441511Y384607D01*
X441399Y384338D01*
X441399Y384338D01*
X441361Y384049D01*
X441297Y383563D01*
X441297Y383563D01*
X441399Y382788D01*
X441399Y382788D01*
X441698Y382066D01*
X441698Y382066D01*
X442174Y381446D01*
X442174Y381446D01*
X442794Y380970D01*
X442794Y380970D01*
X443516Y380671D01*
X443516Y380671D01*
X443516Y380671D01*
X444291Y380569D01*
X447149Y380794D01*
X447609Y380718D01*
X450527Y380099D01*
X451301Y379997D01*
X451302Y379997D01*
X451302Y379997D01*
X451472Y380019D01*
X452076Y380099D01*
X452799Y380398D01*
X453419Y380874D01*
X453895Y381494D01*
X454194Y382216D01*
X454194Y382216D01*
X454215Y382375D01*
X454294Y382981D01*
X459098Y387784D01*
X460582Y387830D01*
X462581Y387364D01*
X463662Y386780D01*
X463828Y386564D01*
X463828D01*
X464448Y386088D01*
X465170Y385789D01*
X465945Y385687D01*
X466720Y385789D01*
X467442Y386088D01*
X467442Y386088D01*
X468062Y386564D01*
X468538Y387184D01*
X468837Y387906D01*
X468837Y387906D01*
X468939Y388681D01*
X468939Y388681D01*
X468837Y389456D01*
X468538Y390178D01*
X468062Y390798D01*
X467442Y391274D01*
X467178Y391383D01*
X465954Y394077D01*
X465774Y394662D01*
X465768Y394768D01*
X468666Y397778D01*
X476657D01*
Y396835D01*
X482594D01*
Y399590D01*
X482594Y403165D01*
X482594Y407102D01*
Y409858D01*
X481511D01*
Y436713D01*
X481982Y437074D01*
X482542Y437804D01*
X482894Y438654D01*
X483014Y439567D01*
X482894Y440480D01*
X482542Y441330D01*
X481982Y442060D01*
X481251Y442621D01*
X480401Y442973D01*
X479488Y443093D01*
D02*
G37*
G36*
X220472Y429470D02*
X219697Y429368D01*
X218975Y429069D01*
X218355Y428593D01*
X217880Y427973D01*
X217580Y427251D01*
X217478Y426476D01*
X217580Y425701D01*
X217880Y424979D01*
X218355Y424359D01*
X218975Y423883D01*
X219697Y423584D01*
X220472Y423482D01*
X221247Y423584D01*
X221970Y423883D01*
X222590Y424359D01*
X223065Y424979D01*
X223364Y425701D01*
X223467Y426476D01*
X223364Y427251D01*
X223065Y427973D01*
X222590Y428593D01*
X221970Y429069D01*
X221247Y429368D01*
X220472Y429470D01*
D02*
G37*
G36*
X420965Y423762D02*
X420190Y423660D01*
X419467Y423361D01*
X418847Y422885D01*
X418372Y422265D01*
X418073Y421543D01*
X417970Y420768D01*
X418073Y419993D01*
X418372Y419271D01*
X418847Y418651D01*
X419467Y418175D01*
X420190Y417876D01*
X420965Y417774D01*
X421047Y417785D01*
X424984Y417209D01*
Y417209D01*
X428921Y417209D01*
X431315D01*
X435252Y417209D01*
X438008D01*
Y417209D01*
X441043Y417380D01*
X441588Y417452D01*
X441818Y417482D01*
X441818Y417482D01*
X442540Y417781D01*
X442540Y417781D01*
X443160Y418257D01*
X443636Y418877D01*
X443935Y419599D01*
X444037Y420374D01*
X444037Y420374D01*
X443935Y421149D01*
X443636Y421871D01*
X443160Y422491D01*
X442540Y422967D01*
X441818Y423266D01*
X441818Y423266D01*
X441529Y423304D01*
X441043Y423368D01*
X438008Y423146D01*
X438008D01*
Y423146D01*
X435252D01*
X431677Y423146D01*
X427740Y423146D01*
X424984D01*
X424984Y423146D01*
X421739Y423660D01*
X420965Y423762D01*
D02*
G37*
G36*
X395374Y421793D02*
X394599Y421691D01*
X393877Y421392D01*
X393257Y420916D01*
X392781Y420296D01*
X392482Y419574D01*
X392380Y418799D01*
X392482Y418024D01*
X392781Y417302D01*
X393257Y416682D01*
X393877Y416206D01*
X394599Y415907D01*
X395374Y415805D01*
X396149Y415907D01*
X396871Y416206D01*
X397491Y416682D01*
X397967Y417302D01*
X398266Y418024D01*
X398368Y418799D01*
X398266Y419574D01*
X397967Y420296D01*
X397491Y420916D01*
X396871Y421392D01*
X396149Y421691D01*
X395374Y421793D01*
D02*
G37*
G36*
X170658Y422173D02*
X167295Y421862D01*
X167089Y419627D01*
X166984Y418500D01*
X167114Y417099D01*
X167295Y415138D01*
X169256Y414956D01*
X170658Y414827D01*
X171785Y414931D01*
X174020Y415138D01*
X174331Y418500D01*
X174226Y419627D01*
X174020Y421862D01*
X174020Y421862D01*
X170658Y422173D01*
D02*
G37*
G36*
X138500D02*
X135138Y421862D01*
X134931Y419627D01*
X134827Y418500D01*
X134956Y417099D01*
X135138Y415138D01*
X137099Y414956D01*
X138500Y414827D01*
X139627Y414931D01*
X141862Y415138D01*
X142173Y418500D01*
X142069Y419627D01*
X141862Y421862D01*
X141862Y421862D01*
X138500Y422173D01*
D02*
G37*
G36*
X398386Y443487D02*
X397473Y443367D01*
X396623Y443014D01*
X395892Y442454D01*
X395332Y441724D01*
X395193Y441388D01*
X386735Y432930D01*
X386296Y432274D01*
X386142Y431499D01*
Y426799D01*
X376781Y417437D01*
X371047D01*
Y414681D01*
X371047Y411106D01*
X371047Y407169D01*
Y404413D01*
X376984D01*
Y404670D01*
X397220D01*
X397292Y404576D01*
X397912Y404100D01*
X398635Y403801D01*
X399410Y403699D01*
X400184Y403801D01*
X400907Y404100D01*
X401527Y404576D01*
X402002Y405196D01*
X402302Y405918D01*
X402404Y406693D01*
X402302Y407468D01*
X402002Y408190D01*
X401527Y408810D01*
X400907Y409286D01*
X400184Y409585D01*
X399410Y409687D01*
X398635Y409585D01*
X397912Y409286D01*
X397292Y408810D01*
X397220Y408716D01*
X380880D01*
X379013Y411023D01*
X379007Y413941D01*
X389596Y424530D01*
X390267Y425317D01*
X391855Y426207D01*
X393386Y426434D01*
X394299Y426555D01*
X395149Y426907D01*
X395879Y427467D01*
X396440Y428197D01*
X396792Y429048D01*
X396912Y429961D01*
X396792Y430873D01*
X396440Y431724D01*
X395879Y432454D01*
X395901Y432944D01*
X396190Y433608D01*
X398386Y436434D01*
X399299Y436555D01*
X400149Y436907D01*
X400879Y437467D01*
X401440Y438198D01*
X401792Y439048D01*
X401912Y439961D01*
X401792Y440873D01*
X401440Y441724D01*
X400879Y442454D01*
X400149Y443014D01*
X399299Y443367D01*
X398386Y443487D01*
D02*
G37*
G36*
X656978Y399155D02*
X656203Y399054D01*
X655481Y398754D01*
X654861Y398279D01*
X654385Y397658D01*
X654086Y396936D01*
X653984Y396161D01*
X654086Y395387D01*
X654385Y394664D01*
X654861Y394044D01*
X655481Y393568D01*
X656203Y393269D01*
X656978Y393167D01*
X657753Y393269D01*
X658475Y393568D01*
X659095Y394044D01*
X659571Y394664D01*
X659870Y395387D01*
X659972Y396161D01*
X659870Y396936D01*
X659571Y397658D01*
X659095Y398279D01*
X658475Y398754D01*
X657753Y399054D01*
X656978Y399155D01*
D02*
G37*
G36*
X395079Y391872D02*
X394304Y391770D01*
X393582Y391471D01*
X392962Y390995D01*
X392486Y390375D01*
X392187Y389653D01*
X392085Y388878D01*
X392187Y388103D01*
X392486Y387381D01*
X392962Y386761D01*
X393582Y386285D01*
X394304Y385986D01*
X395079Y385884D01*
X395854Y385986D01*
X396576Y386285D01*
X397196Y386761D01*
X397672Y387381D01*
X397971Y388103D01*
X398073Y388878D01*
X397971Y389653D01*
X397672Y390375D01*
X397196Y390995D01*
X396576Y391471D01*
X395854Y391770D01*
X395079Y391872D01*
D02*
G37*
G36*
X524508Y390789D02*
X523733Y390687D01*
X523011Y390388D01*
X522391Y389912D01*
X521915Y389292D01*
X521616Y388570D01*
X521514Y387795D01*
X521616Y387020D01*
X521915Y386298D01*
X522391Y385678D01*
X523011Y385202D01*
X523733Y384903D01*
X524508Y384801D01*
X525283Y384903D01*
X526005Y385202D01*
X526625Y385678D01*
X527101Y386298D01*
X527400Y387020D01*
X527502Y387795D01*
X527400Y388570D01*
X527101Y389292D01*
X526625Y389912D01*
X526005Y390388D01*
X525283Y390687D01*
X524508Y390789D01*
D02*
G37*
G36*
X667224Y270907D02*
X666449Y270806D01*
X665727Y270506D01*
X665107Y270030D01*
X664631Y269410D01*
X664332Y268688D01*
X664230Y267913D01*
X664332Y267138D01*
X664631Y266416D01*
X665107Y265796D01*
X665727Y265320D01*
X666449Y265021D01*
X667224Y264919D01*
X667999Y265021D01*
X668721Y265320D01*
X669342Y265796D01*
X669817Y266416D01*
X670117Y267138D01*
X670219Y267913D01*
X670117Y268688D01*
X669817Y269410D01*
X669342Y270030D01*
X668721Y270506D01*
X667999Y270806D01*
X667224Y270907D01*
D02*
G37*
G36*
X567753Y252489D02*
X566978Y252387D01*
X566256Y252088D01*
X565635Y251613D01*
X565160Y250992D01*
X564860Y250270D01*
X564758Y249495D01*
X564860Y248721D01*
X565160Y247998D01*
X565635Y247378D01*
X566256Y246902D01*
X566978Y246603D01*
X567753Y246501D01*
X568528Y246603D01*
X569250Y246902D01*
X569870Y247378D01*
X570346Y247998D01*
X570645Y248721D01*
X570747Y249495D01*
X570645Y250270D01*
X570346Y250992D01*
X569870Y251613D01*
X569250Y252088D01*
X568528Y252387D01*
X567753Y252489D01*
D02*
G37*
G36*
X524360Y247728D02*
X523585Y247626D01*
X522863Y247327D01*
X522243Y246851D01*
X521767Y246231D01*
X521468Y245509D01*
X521366Y244734D01*
X521468Y243959D01*
X521767Y243237D01*
X522243Y242617D01*
X522863Y242141D01*
X523585Y241842D01*
X524360Y241740D01*
X525135Y241842D01*
X525857Y242141D01*
X526477Y242617D01*
X526953Y243237D01*
X527252Y243959D01*
X527354Y244734D01*
X527252Y245509D01*
X526953Y246231D01*
X526477Y246851D01*
X525857Y247327D01*
X525135Y247626D01*
X524360Y247728D01*
D02*
G37*
G36*
X654823Y214411D02*
X654048Y214309D01*
X653326Y214010D01*
X652706Y213534D01*
X652230Y212914D01*
X651931Y212192D01*
X651829Y211417D01*
X651931Y210642D01*
X652230Y209920D01*
X652706Y209300D01*
X653326Y208824D01*
X654048Y208525D01*
X654823Y208423D01*
X655598Y208525D01*
X656320Y208824D01*
X656940Y209300D01*
X657416Y209920D01*
X657715Y210642D01*
X657817Y211417D01*
X657715Y212192D01*
X657416Y212914D01*
X656940Y213534D01*
X656320Y214010D01*
X655598Y214309D01*
X654823Y214411D01*
D02*
G37*
G36*
X488189Y180455D02*
X487414Y180353D01*
X486692Y180054D01*
X486072Y179578D01*
X485596Y178958D01*
X485297Y178236D01*
X485195Y177461D01*
X485297Y176686D01*
X485596Y175964D01*
X486072Y175344D01*
X486692Y174868D01*
X487414Y174568D01*
X488189Y174467D01*
X488964Y174568D01*
X489686Y174868D01*
X490306Y175344D01*
X490782Y175964D01*
X491081Y176686D01*
X491183Y177461D01*
X491081Y178236D01*
X490782Y178958D01*
X490306Y179578D01*
X489686Y180054D01*
X488964Y180353D01*
X488189Y180455D01*
D02*
G37*
G36*
X660138Y164805D02*
X659363Y164703D01*
X658641Y164404D01*
X658021Y163928D01*
X657545Y163308D01*
X657246Y162586D01*
X657144Y161811D01*
X657246Y161036D01*
X657545Y160314D01*
X658021Y159694D01*
X658641Y159218D01*
X659363Y158919D01*
X660138Y158817D01*
X660913Y158919D01*
X661635Y159218D01*
X662255Y159694D01*
X662731Y160314D01*
X663030Y161036D01*
X663132Y161811D01*
X663030Y162586D01*
X662731Y163308D01*
X662255Y163928D01*
X661635Y164404D01*
X660913Y164703D01*
X660138Y164805D01*
D02*
G37*
G36*
X511614Y156636D02*
X510839Y156534D01*
X510117Y156235D01*
X509497Y155759D01*
X509021Y155139D01*
X508722Y154417D01*
X508620Y153642D01*
X508722Y152867D01*
X509021Y152145D01*
X509497Y151525D01*
X510117Y151049D01*
X510839Y150750D01*
X511614Y150648D01*
X512389Y150750D01*
X513111Y151049D01*
X513731Y151525D01*
X514207Y152145D01*
X514506Y152867D01*
X514608Y153642D01*
X514506Y154417D01*
X514207Y155139D01*
X513731Y155759D01*
X513111Y156235D01*
X512389Y156534D01*
X511614Y156636D01*
D02*
G37*
G36*
X594587Y162555D02*
X592576Y162397D01*
X590616Y161926D01*
X588753Y161155D01*
X587033Y160101D01*
X585500Y158791D01*
X584190Y157258D01*
X583137Y155539D01*
X582365Y153676D01*
X581894Y151715D01*
X581736Y149705D01*
X581894Y147694D01*
X582365Y145734D01*
X583137Y143871D01*
X584190Y142151D01*
X585500Y140618D01*
X587033Y139308D01*
X588753Y138255D01*
X590616Y137483D01*
X592576Y137012D01*
X594587Y136854D01*
X596597Y137012D01*
X598558Y137483D01*
X600421Y138255D01*
X602140Y139308D01*
X603673Y140618D01*
X604983Y142151D01*
X606037Y143871D01*
X606808Y145734D01*
X607279Y147694D01*
X607437Y149705D01*
X607279Y151715D01*
X606808Y153676D01*
X606037Y155539D01*
X604983Y157258D01*
X603673Y158791D01*
X602140Y160101D01*
X600421Y161155D01*
X598558Y161926D01*
X596597Y162397D01*
X594587Y162555D01*
D02*
G37*
G36*
X659646Y115100D02*
X658871Y114998D01*
X658149Y114699D01*
X657528Y114224D01*
X657053Y113603D01*
X656754Y112881D01*
X656652Y112106D01*
X656754Y111331D01*
X657053Y110609D01*
X657528Y109989D01*
X658149Y109513D01*
X658871Y109214D01*
X659646Y109112D01*
X660421Y109214D01*
X661143Y109513D01*
X661763Y109989D01*
X662239Y110609D01*
X662538Y111331D01*
X662640Y112106D01*
X662538Y112881D01*
X662239Y113603D01*
X661763Y114224D01*
X661143Y114699D01*
X660421Y114998D01*
X659646Y115100D01*
D02*
G37*
%LPD*%
D10*
X531890Y201378D02*
X538779Y208268D01*
X531890Y187402D02*
Y201378D01*
X502953Y117126D02*
X504035D01*
X506906Y114256D01*
X516939D01*
X551601Y148917D01*
X544390Y206299D02*
X548819Y201870D01*
Y187402D02*
Y201870D01*
X531890Y180807D02*
X536614Y176083D01*
X531890Y180807D02*
Y187402D01*
X566535Y148917D02*
Y197244D01*
X544095Y176279D02*
X548819Y181004D01*
X544095Y176083D02*
Y176279D01*
X548819Y181004D02*
Y187402D01*
X557283Y206496D02*
X566535Y197244D01*
X550197Y206496D02*
X557283D01*
X551601Y148917D02*
X566535D01*
D13*
X487894Y225295D02*
X502756Y210433D01*
X487894Y225295D02*
Y265453D01*
X583198Y357509D02*
X583760Y358071D01*
X583198Y255229D02*
Y357509D01*
X458957Y230512D02*
Y248327D01*
X378925Y328358D02*
X458957Y248327D01*
X378925Y328358D02*
Y363496D01*
X499508Y355315D02*
X579556Y275267D01*
Y248339D02*
Y275267D01*
X552067Y244488D02*
Y278445D01*
X481201Y349311D02*
X552067Y278445D01*
X419390Y349311D02*
X481201D01*
X400984Y367717D02*
X419390Y349311D01*
D20*
X507283Y401575D02*
D03*
Y408268D02*
D03*
X630118Y400394D02*
D03*
Y407087D02*
D03*
X479626Y400000D02*
D03*
Y406693D02*
D03*
X374016Y407579D02*
D03*
Y414272D02*
D03*
X536614Y176083D02*
D03*
Y169390D02*
D03*
X544095Y176083D02*
D03*
Y169390D02*
D03*
D22*
X605217Y418209D02*
D03*
X611909D02*
D03*
X574508Y420768D02*
D03*
X567815D02*
D03*
X456693Y420571D02*
D03*
X463386D02*
D03*
X434842Y420177D02*
D03*
X428150D02*
D03*
D86*
X635433Y341732D02*
Y357480D01*
X618602Y324902D02*
X635433Y341732D01*
Y357480D02*
X641437Y363484D01*
X578150Y222933D02*
X620866Y265650D01*
Y288681D01*
X578150Y221949D02*
Y222933D01*
X263976Y280709D02*
X289567D01*
X188091Y356594D02*
X263976Y280709D01*
X188091Y356594D02*
X236024D01*
X275590Y317028D01*
X287992D01*
X370374Y321457D02*
Y372342D01*
X344980Y397736D02*
X370374Y372342D01*
X333957Y397736D02*
X334842D01*
X290846Y440846D02*
X333957Y397736D01*
X334842D02*
X344980D01*
X311713Y250590D02*
X313012D01*
X304232Y243110D02*
X311713Y250590D01*
X264279Y243110D02*
X304232D01*
X222054Y200886D02*
X264279Y243110D01*
X222054Y200886D02*
X297244D01*
X191929D02*
X222054D01*
X191634D02*
X191929D01*
X297244D02*
X313090Y185039D01*
X369882Y222539D02*
X370128Y222785D01*
X369783Y222441D02*
X369882Y222539D01*
X369783Y157382D02*
Y222441D01*
X369685Y157283D02*
X369783Y157382D01*
X370128Y283809D02*
X370374Y284055D01*
X370128Y222785D02*
Y283809D01*
X370374Y284055D02*
Y321457D01*
X622047Y352658D02*
Y364567D01*
X610827Y341437D02*
X622047Y352658D01*
X619980Y288681D02*
X620866D01*
X610827Y297835D02*
X619980Y288681D01*
X610827Y297835D02*
Y341437D01*
X375079Y406516D02*
X375256Y406693D01*
X399410D01*
X625098Y312894D02*
X652999D01*
X683215Y282677D01*
X684154D01*
X374016Y407579D02*
X375079Y406516D01*
X611811Y351476D02*
Y351969D01*
X605205Y358575D02*
X611811Y351969D01*
X597736Y390748D02*
X605205Y383279D01*
Y358575D02*
Y383279D01*
X581328Y384369D02*
X597352Y400394D01*
X630118D01*
X641683Y372392D02*
X665807Y348268D01*
X612638Y407087D02*
X623760Y418209D01*
X597146Y407087D02*
X612638D01*
X574311Y384252D02*
X597146Y407087D01*
X584154Y414567D02*
X584465Y414256D01*
X601067D01*
X605020Y418209D02*
X605217D01*
X601067Y414256D02*
X605020Y418209D01*
X388165Y431499D02*
X396627Y439961D01*
X388165Y425961D02*
Y431499D01*
X376476Y414272D02*
X388165Y425961D01*
X396627Y439961D02*
X398386D01*
X374016Y414272D02*
X376476D01*
X623760Y418209D02*
X635512Y429961D01*
X611909Y418209D02*
X623760D01*
X640512Y417480D02*
Y439961D01*
X630118Y407087D02*
X640512Y417480D01*
X555197Y429567D02*
X563996Y420768D01*
X567815D01*
X574508D02*
X575591Y421850D01*
Y427264D01*
X435039Y420374D02*
X441043D01*
X434842Y420177D02*
X435039Y420374D01*
X427559Y420768D02*
X428150Y420177D01*
X420965Y420768D02*
X427559D01*
X453346Y417421D02*
X456496Y420571D01*
X453346Y414173D02*
Y417421D01*
X465492Y420571D02*
X474488Y429567D01*
X463386Y420571D02*
X465492D01*
X456496D02*
X456693D01*
X474488Y413760D02*
Y429567D01*
X444291Y383563D02*
X474488Y413760D01*
X479488Y407323D02*
Y439567D01*
X618602Y310138D02*
X641142Y287598D01*
X618602Y310138D02*
Y324902D01*
X684016Y271201D02*
X684449D01*
X665807Y348268D02*
X684055D01*
X681909Y272677D02*
X684154D01*
X648089Y306498D02*
X681909Y272677D01*
X648089Y306498D02*
X648522D01*
D87*
X510335Y199016D02*
X526772Y215453D01*
X554331D01*
X558782Y219429D02*
X560335Y217876D01*
Y217421D02*
Y217876D01*
X526057Y219429D02*
X558782D01*
X508892Y202264D02*
X526057Y219429D01*
X480827Y199016D02*
X510335D01*
X474075Y202264D02*
X508892D01*
X391496Y119685D02*
X474075Y202264D01*
X401496Y119685D02*
X480827Y199016D01*
D88*
X532874Y406004D02*
X534055D01*
X528445Y401575D02*
X532874Y406004D01*
X507283Y401575D02*
X528445D01*
X554980Y434350D02*
X560197Y439567D01*
X529429Y434350D02*
X554980D01*
X507283Y412205D02*
X529429Y434350D01*
X507283Y408268D02*
Y412205D01*
D90*
X459421Y392196D02*
X467126Y399902D01*
X459421Y391110D02*
Y392196D01*
X451302Y382991D02*
X459421Y391110D01*
X467126Y399902D02*
X479429D01*
D91*
X180807Y189764D02*
X191929Y200886D01*
X125492Y177854D02*
Y180217D01*
X151516Y142323D02*
X168602D01*
X180217Y167126D02*
X185335Y162008D01*
X136221Y167126D02*
X180217D01*
X125492Y177854D02*
X136221Y167126D01*
X185335Y159055D02*
Y160138D01*
X168602Y142323D02*
X185335Y159055D01*
Y160138D02*
Y162008D01*
X135039Y189764D02*
X180807D01*
X125492Y180217D02*
X135039Y189764D01*
X121516Y142323D02*
X151516D01*
D94*
X404724Y269685D02*
D03*
X594587Y149705D02*
D03*
X686614Y486221D02*
D03*
X205512Y118209D02*
D03*
X209449Y390551D02*
D03*
D95*
X343012Y250590D02*
D03*
X343091Y185039D02*
D03*
D96*
X333012Y250590D02*
D03*
X313012D02*
D03*
X303012D02*
D03*
X293012D02*
D03*
X333091Y185039D02*
D03*
X313090D02*
D03*
X303091D02*
D03*
X293091D02*
D03*
D97*
X118815Y418500D02*
D03*
X190342D02*
D03*
X185335Y160138D02*
D03*
X125394Y177854D02*
D03*
X191634Y200886D02*
D03*
X118602Y367126D02*
D03*
X369882Y222539D02*
D03*
X481201Y349311D02*
D03*
D98*
X138500Y418500D02*
D03*
X170658D02*
D03*
X145079Y177854D02*
D03*
X171949Y200886D02*
D03*
X138287Y367126D02*
D03*
D99*
X533091Y113425D02*
D03*
X311024Y492224D02*
D03*
D100*
X533091Y123425D02*
D03*
X543091Y113425D02*
D03*
Y123425D02*
D03*
X553091Y113425D02*
D03*
Y123425D02*
D03*
X563091Y113425D02*
D03*
Y123425D02*
D03*
X573091Y113425D02*
D03*
Y123425D02*
D03*
X583091Y113425D02*
D03*
Y123425D02*
D03*
X593091Y113425D02*
D03*
Y123425D02*
D03*
X512598Y119193D02*
D03*
Y109193D02*
D03*
X448228Y117815D02*
D03*
X460039Y127913D02*
D03*
X321024Y492224D02*
D03*
D101*
X512598Y129193D02*
D03*
X448228Y127815D02*
D03*
X460039Y117913D02*
D03*
D102*
X171949Y482415D02*
D03*
X270079Y487795D02*
D03*
X345000Y432437D02*
D03*
X294193Y480315D02*
D03*
D103*
X171949Y490289D02*
D03*
X270079Y479921D02*
D03*
X424508Y369193D02*
D03*
X552461Y370965D02*
D03*
X448524Y369587D02*
D03*
X574409Y371260D02*
D03*
X345000Y424563D02*
D03*
X294193Y488189D02*
D03*
X581328Y384369D02*
D03*
X574311Y384252D02*
D03*
X597736Y390748D02*
D03*
D104*
X151516Y122638D02*
D03*
X121516D02*
D03*
X151516Y142323D02*
D03*
X121516D02*
D03*
X151500Y467000D02*
D03*
X121500D02*
D03*
X151500Y486685D02*
D03*
X121500D02*
D03*
D105*
X652992Y464961D02*
D03*
X612992D02*
D03*
X572677Y464567D02*
D03*
X532677D02*
D03*
X491968D02*
D03*
X451968D02*
D03*
X410866Y464961D02*
D03*
X370866D02*
D03*
D106*
X620512Y439961D02*
D03*
X630512D02*
D03*
X640512D02*
D03*
X625512Y429961D02*
D03*
X635512D02*
D03*
X540197Y439567D02*
D03*
X550197D02*
D03*
X560197D02*
D03*
X545197Y429567D02*
D03*
X555197D02*
D03*
X459488Y439567D02*
D03*
X469488D02*
D03*
X479488D02*
D03*
X464488Y429567D02*
D03*
X474488D02*
D03*
X378386Y439961D02*
D03*
X388386D02*
D03*
X398386D02*
D03*
X383386Y429961D02*
D03*
X393386D02*
D03*
D107*
X645512D02*
D03*
X565197Y429567D02*
D03*
X484488D02*
D03*
X403386Y429961D02*
D03*
D108*
X670669Y475197D02*
D03*
X592913D02*
D03*
X512598Y477165D02*
D03*
X431496D02*
D03*
X346224Y476933D02*
D03*
D109*
X416634Y369193D02*
D03*
X544587Y370965D02*
D03*
X440650Y369587D02*
D03*
X566535Y371260D02*
D03*
D110*
X365020Y119291D02*
D03*
X355039D02*
D03*
X345039D02*
D03*
X411476Y119685D02*
D03*
X401496D02*
D03*
X391496D02*
D03*
X118012Y294193D02*
D03*
Y304193D02*
D03*
Y284213D02*
D03*
Y274213D02*
D03*
X684252Y194980D02*
D03*
Y204961D02*
D03*
Y214961D02*
D03*
X683858Y147894D02*
D03*
Y157874D02*
D03*
Y167874D02*
D03*
X684252Y392776D02*
D03*
Y402756D02*
D03*
Y412756D02*
D03*
X683858Y121653D02*
D03*
Y111653D02*
D03*
X684154Y292697D02*
D03*
Y252697D02*
D03*
Y262697D02*
D03*
Y282677D02*
D03*
Y272677D02*
D03*
Y302736D02*
D03*
X684252Y368307D02*
D03*
Y328307D02*
D03*
Y338307D02*
D03*
Y358287D02*
D03*
Y348287D02*
D03*
Y378346D02*
D03*
D111*
X335039Y119291D02*
D03*
X381496Y119685D02*
D03*
D112*
X118012Y264213D02*
D03*
X684252Y224961D02*
D03*
X683858Y177874D02*
D03*
X684252Y422756D02*
D03*
X683858Y131653D02*
D03*
X684154Y242697D02*
D03*
X684252Y318307D02*
D03*
D113*
X185335Y140453D02*
D03*
D114*
X659547Y266437D02*
D03*
X507480Y187795D02*
D03*
X620866Y254429D02*
D03*
X293898Y316732D02*
D03*
X638484Y107874D02*
D03*
X621457Y128051D02*
D03*
X560236Y209646D02*
D03*
X188091Y356594D02*
D03*
X474114Y170177D02*
D03*
X488189Y177461D02*
D03*
X659646Y112106D02*
D03*
X296260Y281004D02*
D03*
X583760Y358071D02*
D03*
X596850Y383661D02*
D03*
X616535Y385433D02*
D03*
X628642Y253839D02*
D03*
X554331Y215453D02*
D03*
X560335Y217421D02*
D03*
X345522Y175246D02*
D03*
X282283Y150591D02*
D03*
X287992Y216929D02*
D03*
X289567Y280906D02*
D03*
X548524Y261122D02*
D03*
X543307Y265650D02*
D03*
X538878Y269488D02*
D03*
X660138Y161811D02*
D03*
X298917Y350886D02*
D03*
X357776Y269488D02*
D03*
X358366Y205512D02*
D03*
X209646Y214075D02*
D03*
X143256Y268701D02*
D03*
X287992Y317028D02*
D03*
X314701Y391571D02*
D03*
X358661Y341339D02*
D03*
X442224Y227461D02*
D03*
X440453Y283883D02*
D03*
X442224Y244193D02*
D03*
X440158Y306988D02*
D03*
X358071Y304921D02*
D03*
X354724Y240846D02*
D03*
X348425Y240945D02*
D03*
X253839Y393996D02*
D03*
X284154Y341831D02*
D03*
X280020Y306791D02*
D03*
X350886Y414370D02*
D03*
X351969Y175394D02*
D03*
X236122Y344390D02*
D03*
X178051Y344193D02*
D03*
X227871Y393996D02*
D03*
X458957Y230512D02*
D03*
X395374Y418799D02*
D03*
X334842Y397736D02*
D03*
X369685Y157283D02*
D03*
X222358Y402543D02*
D03*
X290166Y407480D02*
D03*
X378925Y363496D02*
D03*
X370374Y321457D02*
D03*
Y284055D02*
D03*
X606693Y284646D02*
D03*
X613779Y282087D02*
D03*
X567753Y249495D02*
D03*
X575492Y259941D02*
D03*
X583198Y255229D02*
D03*
X579556Y248339D02*
D03*
X587500Y248721D02*
D03*
X578150Y221949D02*
D03*
X622047Y364567D02*
D03*
X620866Y288681D02*
D03*
X288484Y150886D02*
D03*
X281693Y217028D02*
D03*
X524360Y244734D02*
D03*
X177559Y282283D02*
D03*
X533858Y273130D02*
D03*
X529724Y277362D02*
D03*
X525591Y281398D02*
D03*
X399410Y406693D02*
D03*
X667224Y267913D02*
D03*
X234006Y427362D02*
D03*
X631348Y168848D02*
D03*
X220472Y426476D02*
D03*
X459350Y412697D02*
D03*
X538779Y208268D02*
D03*
X502953Y117126D02*
D03*
X534055Y406004D02*
D03*
X302165Y443209D02*
D03*
X563091Y265256D02*
D03*
X616240Y302658D02*
D03*
X603887Y344635D02*
D03*
X580807Y187992D02*
D03*
X540059Y236910D02*
D03*
X625098Y312894D02*
D03*
X631004Y326279D02*
D03*
X660236Y155512D02*
D03*
X465945Y388681D02*
D03*
X270571Y420177D02*
D03*
X481201Y125787D02*
D03*
X517815Y273425D02*
D03*
X368307Y420768D02*
D03*
X645866Y393110D02*
D03*
X622146Y406791D02*
D03*
X605020Y337205D02*
D03*
X664764Y308465D02*
D03*
X608268Y235827D02*
D03*
X618602Y174803D02*
D03*
X571260Y177657D02*
D03*
X664075Y436614D02*
D03*
X656978Y396161D02*
D03*
X642224Y354528D02*
D03*
X337205Y458858D02*
D03*
X290846Y440846D02*
D03*
X611811Y351476D02*
D03*
X601673Y300394D02*
D03*
X611909Y358465D02*
D03*
X451302Y382991D02*
D03*
X502756Y210433D02*
D03*
X654331Y220866D02*
D03*
X586516Y433366D02*
D03*
X499508Y355315D02*
D03*
X506988Y427854D02*
D03*
X425000Y434842D02*
D03*
X511614Y153642D02*
D03*
X280315Y451968D02*
D03*
X544390Y206299D02*
D03*
X487894Y265453D02*
D03*
X458858Y374606D02*
D03*
X495374Y272638D02*
D03*
X552067Y244488D02*
D03*
X400984Y367717D02*
D03*
X590650Y318209D02*
D03*
X524114Y413976D02*
D03*
X590650Y418405D02*
D03*
X575591Y427264D02*
D03*
X441043Y420374D02*
D03*
X420965Y420768D02*
D03*
X453346Y414173D02*
D03*
X395079Y388878D02*
D03*
X444291Y383563D02*
D03*
X550197Y206496D02*
D03*
X566535Y148917D02*
D03*
X661713Y193701D02*
D03*
X654823Y211417D02*
D03*
X525197Y373671D02*
D03*
X524508Y387795D02*
D03*
X267520Y382874D02*
D03*
X299384Y365642D02*
D03*
X623721Y207972D02*
D03*
X530315Y167126D02*
D03*
X641535Y372244D02*
D03*
X641437Y363484D02*
D03*
X618602Y324902D02*
D03*
X641142Y287598D02*
D03*
X643504Y319587D02*
D03*
X635335Y240059D02*
D03*
X661614Y343307D02*
D03*
X648089Y306498D02*
D03*
X352165Y341339D02*
D03*
X351673Y305020D02*
D03*
X264173Y459842D02*
D03*
X250098Y412697D02*
D03*
D115*
X192421Y293358D02*
D03*
X197539Y293307D02*
D03*
X202559Y293358D02*
D03*
X193504Y376181D02*
D03*
X188484D02*
D03*
X183366D02*
D03*
X178248D02*
D03*
X178248Y381398D02*
D03*
X183366D02*
D03*
X188484D02*
D03*
X193504D02*
D03*
X187303Y293358D02*
D03*
X187205Y288189D02*
D03*
X192323D02*
D03*
X197539Y288287D02*
D03*
X202559D02*
D03*
X207579Y288189D02*
D03*
X207677Y293358D02*
D03*
X207776Y298327D02*
D03*
X202658Y298327D02*
D03*
X197539Y298374D02*
D03*
X192520Y298327D02*
D03*
X187402D02*
D03*
D116*
X383268Y413583D02*
D03*
X656398Y139272D02*
D03*
X584154Y414567D02*
D03*
X395374Y375394D02*
D03*
D117*
X531890Y187402D02*
D03*
X548819D02*
D03*
M02*
