G04*
G04 #@! TF.GenerationSoftware,Altium Limited,Altium Designer,19.1.5 (86)*
G04*
G04 Layer_Color=128*
%FSLAX25Y25*%
%MOIN*%
G70*
G01*
G75*
%ADD122C,0.00200*%
D122*
X398425Y269685D02*
X411024D01*
X404724Y263386D02*
Y275984D01*
X588287Y149705D02*
X600886D01*
X594587Y143405D02*
Y156004D01*
X341043Y250590D02*
X344980D01*
X343012Y248622D02*
Y252559D01*
X331043Y250590D02*
X334980D01*
X333012Y248622D02*
Y252559D01*
X311043Y250590D02*
X314980D01*
X313012Y248622D02*
Y252559D01*
X301043Y250590D02*
X304980D01*
X303012Y248622D02*
Y252559D01*
X291043Y250590D02*
X294980D01*
X293012Y248622D02*
Y252559D01*
X341122Y185039D02*
X345059D01*
X343091Y183071D02*
Y187008D01*
X331122Y185039D02*
X335059D01*
X333091Y183071D02*
Y187008D01*
X311122Y185039D02*
X315059D01*
X313090Y183071D02*
Y187008D01*
X301122Y185039D02*
X305059D01*
X303091Y183071D02*
Y187008D01*
X291122Y185039D02*
X295059D01*
X293091Y183071D02*
Y187008D01*
X117142Y418500D02*
X120488D01*
X118815Y416827D02*
Y420173D01*
X136827Y418500D02*
X140173D01*
X138500Y416827D02*
Y420173D01*
X680315Y486221D02*
X692913D01*
X686614Y479921D02*
Y492520D01*
X199213Y118209D02*
X211811D01*
X205512Y111909D02*
Y124508D01*
X203150Y390551D02*
X215748D01*
X209449Y384252D02*
Y396850D01*
X531319Y113425D02*
X534862D01*
X533091Y111654D02*
Y115197D01*
X531319Y123425D02*
X534862D01*
X533091Y121654D02*
Y125197D01*
X541319Y113425D02*
X544862D01*
X543091Y111654D02*
Y115197D01*
X541319Y123425D02*
X544862D01*
X543091Y121654D02*
Y125197D01*
X551319Y113425D02*
X554862D01*
X553091Y111654D02*
Y115197D01*
X551319Y123425D02*
X554862D01*
X553091Y121654D02*
Y125197D01*
X561319Y113425D02*
X564862D01*
X563091Y111654D02*
Y115197D01*
X561319Y123425D02*
X564862D01*
X563091Y121654D02*
Y125197D01*
X571319Y113425D02*
X574862D01*
X573091Y111654D02*
Y115197D01*
X571319Y123425D02*
X574862D01*
X573091Y121654D02*
Y125197D01*
X581319Y113425D02*
X584862D01*
X583091Y111654D02*
Y115197D01*
X581319Y123425D02*
X584862D01*
X583091Y121654D02*
Y125197D01*
X591319Y113425D02*
X594862D01*
X593091Y111654D02*
Y115197D01*
X591319Y123425D02*
X594862D01*
X593091Y121654D02*
Y125197D01*
X510827Y129193D02*
X514370D01*
X512598Y127421D02*
Y130965D01*
X510827Y119193D02*
X514370D01*
X512598Y117421D02*
Y120965D01*
X510827Y109193D02*
X514370D01*
X512598Y107421D02*
Y110965D01*
X188669Y418500D02*
X192016D01*
X190342Y416827D02*
Y420173D01*
X168984Y418500D02*
X172331D01*
X170658Y416827D02*
Y420173D01*
X170472Y482415D02*
X173425D01*
X171949Y480939D02*
Y483891D01*
X170472Y490289D02*
X173425D01*
X171949Y488813D02*
Y491765D01*
X268602Y487795D02*
X271555D01*
X270079Y486319D02*
Y489272D01*
X268602Y479921D02*
X271555D01*
X270079Y478445D02*
Y481398D01*
X148957Y122638D02*
X154075D01*
X151516Y120079D02*
Y125197D01*
X118957Y122638D02*
X124075D01*
X121516Y120079D02*
Y125197D01*
X148957Y142323D02*
X154075D01*
X151516Y139764D02*
Y144882D01*
X118957Y142323D02*
X124075D01*
X121516Y139764D02*
Y144882D01*
X148941Y467000D02*
X154059D01*
X151500Y464441D02*
Y469559D01*
X118941Y467000D02*
X124059D01*
X121500Y464441D02*
Y469559D01*
X148941Y486685D02*
X154059D01*
X151500Y484126D02*
Y489244D01*
X118941Y486685D02*
X124059D01*
X121500Y484126D02*
Y489244D01*
X646594Y464961D02*
X659390D01*
X652992Y458563D02*
Y471358D01*
X606595Y464961D02*
X619390D01*
X612992Y458563D02*
Y471358D01*
X619016Y439961D02*
X622008D01*
X620512Y438465D02*
Y441457D01*
X629016Y439961D02*
X632008D01*
X630512Y438465D02*
Y441457D01*
X639016Y439961D02*
X642008D01*
X640512Y438465D02*
Y441457D01*
X624016Y429961D02*
X627008D01*
X625512Y428465D02*
Y431457D01*
X634016Y429961D02*
X637008D01*
X635512Y428465D02*
Y431457D01*
X644016Y429961D02*
X647008D01*
X645512Y428465D02*
Y431457D01*
X566280Y464567D02*
X579075D01*
X572677Y458169D02*
Y470965D01*
X526279Y464567D02*
X539075D01*
X532677Y458169D02*
Y470965D01*
X538701Y439567D02*
X541693D01*
X540197Y438071D02*
Y441063D01*
X548701Y439567D02*
X551693D01*
X550197Y438071D02*
Y441063D01*
X558701Y439567D02*
X561693D01*
X560197Y438071D02*
Y441063D01*
X543701Y429567D02*
X546693D01*
X545197Y428071D02*
Y431063D01*
X553701Y429567D02*
X556693D01*
X555197Y428071D02*
Y431063D01*
X563701Y429567D02*
X566693D01*
X565197Y428071D02*
Y431063D01*
X485571Y464567D02*
X498366D01*
X491968Y458169D02*
Y470965D01*
X445571Y464567D02*
X458366D01*
X451968Y458169D02*
Y470965D01*
X457992Y439567D02*
X460984D01*
X459488Y438071D02*
Y441063D01*
X467992Y439567D02*
X470984D01*
X469488Y438071D02*
Y441063D01*
X477992Y439567D02*
X480984D01*
X479488Y438071D02*
Y441063D01*
X462992Y429567D02*
X465984D01*
X464488Y428071D02*
Y431063D01*
X472992Y429567D02*
X475984D01*
X474488Y428071D02*
Y431063D01*
X482992Y429567D02*
X485984D01*
X484488Y428071D02*
Y431063D01*
X404468Y464961D02*
X417264D01*
X410866Y458563D02*
Y471358D01*
X364469Y464961D02*
X377264D01*
X370866Y458563D02*
Y471358D01*
X376890Y439961D02*
X379882D01*
X378386Y438465D02*
Y441457D01*
X386890Y439961D02*
X389882D01*
X388386Y438465D02*
Y441457D01*
X396890Y439961D02*
X399882D01*
X398386Y438465D02*
Y441457D01*
X381890Y429961D02*
X384882D01*
X383386Y428465D02*
Y431457D01*
X391890Y429961D02*
X394882D01*
X393386Y428465D02*
Y431457D01*
X401890Y429961D02*
X404882D01*
X403386Y428465D02*
Y431457D01*
X666142Y475197D02*
X675197D01*
X670669Y470669D02*
Y479724D01*
X588386Y475197D02*
X597441D01*
X592913Y470669D02*
Y479724D01*
X508071Y477165D02*
X517126D01*
X512598Y472638D02*
Y481693D01*
X423032Y369193D02*
X425984D01*
X424508Y367717D02*
Y370669D01*
X415158Y369193D02*
X418110D01*
X416634Y367717D02*
Y370669D01*
X426968Y477165D02*
X436024D01*
X431496Y472638D02*
Y481693D01*
X550984Y370965D02*
X553937D01*
X552461Y369488D02*
Y372441D01*
X543110Y370965D02*
X546063D01*
X544587Y369488D02*
Y372441D01*
X447047Y369587D02*
X450000D01*
X448524Y368110D02*
Y371063D01*
X439173Y369587D02*
X442126D01*
X440650Y368110D02*
Y371063D01*
X341697Y476933D02*
X350752D01*
X346224Y472405D02*
Y481461D01*
X572933Y371260D02*
X575886D01*
X574409Y369783D02*
Y372736D01*
X565059Y371260D02*
X568012D01*
X566535Y369783D02*
Y372736D01*
X362343Y119291D02*
X367697D01*
X365020Y116614D02*
Y121968D01*
X352362Y119291D02*
X357716D01*
X355039Y116614D02*
Y121968D01*
X342362Y119291D02*
X347716D01*
X345039Y116614D02*
Y121968D01*
X332362Y119291D02*
X337717D01*
X335039Y116614D02*
Y121968D01*
X408799Y119685D02*
X414153D01*
X411476Y117008D02*
Y122362D01*
X398819Y119685D02*
X404173D01*
X401496Y117008D02*
Y122362D01*
X388819Y119685D02*
X394173D01*
X391496Y117008D02*
Y122362D01*
X378819Y119685D02*
X384173D01*
X381496Y117008D02*
Y122362D01*
X115335Y294193D02*
X120689D01*
X118012Y291516D02*
Y296870D01*
X115335Y304193D02*
X120689D01*
X118012Y301516D02*
Y306870D01*
X115335Y284213D02*
X120689D01*
X118012Y281535D02*
Y286890D01*
X115335Y274213D02*
X120689D01*
X118012Y271535D02*
Y276890D01*
X115335Y264213D02*
X120689D01*
X118012Y261535D02*
Y266890D01*
X446457Y117815D02*
X450000D01*
X448228Y116043D02*
Y119587D01*
X446457Y127815D02*
X450000D01*
X448228Y126043D02*
Y129587D01*
X458268Y127913D02*
X461811D01*
X460039Y126142D02*
Y129685D01*
X458268Y117913D02*
X461811D01*
X460039Y116142D02*
Y119685D01*
X183661Y140453D02*
X187008D01*
X185335Y138779D02*
Y142126D01*
X183661Y160138D02*
X187008D01*
X185335Y158465D02*
Y161811D01*
X143405Y177854D02*
X146752D01*
X145079Y176181D02*
Y179528D01*
X123721Y177854D02*
X127067D01*
X125394Y176181D02*
Y179528D01*
X343524Y424563D02*
X346476D01*
X345000Y423087D02*
Y426039D01*
X343524Y432437D02*
X346476D01*
X345000Y430961D02*
Y433913D01*
X170276Y200886D02*
X173622D01*
X171949Y199213D02*
Y202559D01*
X189961Y200886D02*
X193307D01*
X191634Y199213D02*
Y202559D01*
X136614Y367126D02*
X139961D01*
X138287Y365453D02*
Y368799D01*
X116929Y367126D02*
X120276D01*
X118602Y365453D02*
Y368799D01*
X292717Y488189D02*
X295669D01*
X294193Y486713D02*
Y489665D01*
X292717Y480315D02*
X295669D01*
X294193Y478839D02*
Y481791D01*
X319252Y492224D02*
X322795D01*
X321024Y490453D02*
Y493996D01*
X309252Y492224D02*
X312795D01*
X311024Y490453D02*
Y493996D01*
X681575Y194980D02*
X686929D01*
X684252Y192303D02*
Y197658D01*
X681575Y204961D02*
X686929D01*
X684252Y202284D02*
Y207638D01*
X681575Y214961D02*
X686929D01*
X684252Y212283D02*
Y217638D01*
X681575Y224961D02*
X686929D01*
X684252Y222284D02*
Y227638D01*
X681181Y147894D02*
X686535D01*
X683858Y145217D02*
Y150571D01*
X681181Y157874D02*
X686535D01*
X683858Y155197D02*
Y160551D01*
X681181Y167874D02*
X686535D01*
X683858Y165197D02*
Y170551D01*
X681181Y177874D02*
X686535D01*
X683858Y175197D02*
Y180551D01*
X681575Y392776D02*
X686929D01*
X684252Y390098D02*
Y395453D01*
X681575Y402756D02*
X686929D01*
X684252Y400079D02*
Y405433D01*
X681575Y412756D02*
X686929D01*
X684252Y410079D02*
Y415433D01*
X681575Y422756D02*
X686929D01*
X684252Y420079D02*
Y425433D01*
X681181Y131653D02*
X686535D01*
X683858Y128976D02*
Y134331D01*
X681181Y121653D02*
X686535D01*
X683858Y118976D02*
Y124331D01*
X681181Y111653D02*
X686535D01*
X683858Y108976D02*
Y114331D01*
X681476Y292697D02*
X686831D01*
X684154Y290020D02*
Y295374D01*
X681476Y242697D02*
X686831D01*
X684154Y240020D02*
Y245374D01*
X681476Y252697D02*
X686831D01*
X684154Y250020D02*
Y255374D01*
X681476Y262697D02*
X686831D01*
X684154Y260020D02*
Y265374D01*
X681476Y282677D02*
X686831D01*
X684154Y280000D02*
Y285354D01*
X681476Y272677D02*
X686831D01*
X684154Y270000D02*
Y275354D01*
X681476Y302736D02*
X686831D01*
X684154Y300059D02*
Y305413D01*
X681575Y368307D02*
X686929D01*
X684252Y365630D02*
Y370984D01*
X681575Y318307D02*
X686929D01*
X684252Y315630D02*
Y320984D01*
X681575Y328307D02*
X686929D01*
X684252Y325630D02*
Y330984D01*
X681575Y338307D02*
X686929D01*
X684252Y335630D02*
Y340984D01*
X681575Y358287D02*
X686929D01*
X684252Y355610D02*
Y360965D01*
X681575Y348287D02*
X686929D01*
X684252Y345610D02*
Y350965D01*
X681575Y378346D02*
X686929D01*
X684252Y375669D02*
Y381024D01*
X658563Y266437D02*
X660532D01*
X659547Y265453D02*
Y267421D01*
X506496Y187795D02*
X508465D01*
X507480Y186811D02*
Y188779D01*
X619882Y254429D02*
X621850D01*
X620866Y253445D02*
Y255413D01*
X292913Y316732D02*
X294882D01*
X293898Y315748D02*
Y317717D01*
X637500Y107874D02*
X639468D01*
X638484Y106890D02*
Y108858D01*
X620472Y128051D02*
X622441D01*
X621457Y127067D02*
Y129035D01*
X559252Y209646D02*
X561221D01*
X560236Y208661D02*
Y210630D01*
X187106Y356594D02*
X189075D01*
X188091Y355610D02*
Y357579D01*
X473130Y170177D02*
X475098D01*
X474114Y169193D02*
Y171161D01*
X487205Y177461D02*
X489173D01*
X488189Y176476D02*
Y178445D01*
X658661Y112106D02*
X660630D01*
X659646Y111122D02*
Y113091D01*
X295276Y281004D02*
X297244D01*
X296260Y280020D02*
Y281988D01*
X582776Y358071D02*
X584744D01*
X583760Y357087D02*
Y359055D01*
X595866Y383661D02*
X597835D01*
X596850Y382677D02*
Y384646D01*
X615551Y385433D02*
X617520D01*
X616535Y384449D02*
Y386417D01*
X627658Y253839D02*
X629626D01*
X628642Y252854D02*
Y254823D01*
X553346Y215453D02*
X555315D01*
X554331Y214469D02*
Y216437D01*
X559350Y217421D02*
X561319D01*
X560335Y216437D02*
Y218406D01*
X344537Y175246D02*
X346506D01*
X345522Y174262D02*
Y176230D01*
X281299Y150591D02*
X283268D01*
X282283Y149606D02*
Y151575D01*
X287008Y216929D02*
X288976D01*
X287992Y215945D02*
Y217913D01*
X288583Y280906D02*
X290551D01*
X289567Y279921D02*
Y281890D01*
X547539Y261122D02*
X549508D01*
X548524Y260138D02*
Y262106D01*
X542323Y265650D02*
X544291D01*
X543307Y264665D02*
Y266634D01*
X537894Y269488D02*
X539862D01*
X538878Y268504D02*
Y270472D01*
X659154Y161811D02*
X661122D01*
X660138Y160827D02*
Y162795D01*
X297933Y350886D02*
X299902D01*
X298917Y349902D02*
Y351870D01*
X356791Y269488D02*
X358760D01*
X357776Y268504D02*
Y270472D01*
X357382Y205512D02*
X359350D01*
X358366Y204528D02*
Y206496D01*
X208661Y214075D02*
X210630D01*
X209646Y213090D02*
Y215059D01*
X142272Y268701D02*
X144240D01*
X143256Y267717D02*
Y269685D01*
X287008Y317028D02*
X288976D01*
X287992Y316043D02*
Y318012D01*
X313717Y391571D02*
X315685D01*
X314701Y390587D02*
Y392555D01*
X357677Y341339D02*
X359646D01*
X358661Y340354D02*
Y342323D01*
X441240Y227461D02*
X443209D01*
X442224Y226476D02*
Y228445D01*
X439468Y283883D02*
X441437D01*
X440453Y282899D02*
Y284867D01*
X441240Y244193D02*
X443209D01*
X442224Y243209D02*
Y245177D01*
X439173Y306988D02*
X441142D01*
X440158Y306004D02*
Y307972D01*
X357087Y304921D02*
X359055D01*
X358071Y303937D02*
Y305906D01*
X353740Y240846D02*
X355709D01*
X354724Y239862D02*
Y241831D01*
X347441Y240945D02*
X349410D01*
X348425Y239961D02*
Y241929D01*
X252854Y393996D02*
X254823D01*
X253839Y393012D02*
Y394980D01*
X283169Y341831D02*
X285138D01*
X284154Y340846D02*
Y342815D01*
X279035Y306791D02*
X281004D01*
X280020Y305807D02*
Y307776D01*
X349902Y414370D02*
X351870D01*
X350886Y413386D02*
Y415354D01*
X350984Y175394D02*
X352953D01*
X351969Y174409D02*
Y176378D01*
X235138Y344390D02*
X237106D01*
X236122Y343406D02*
Y345374D01*
X177067Y344193D02*
X179035D01*
X178051Y343209D02*
Y345177D01*
X226886Y393996D02*
X228855D01*
X227871Y393012D02*
Y394980D01*
X457972Y230512D02*
X459941D01*
X458957Y229528D02*
Y231496D01*
X394390Y418799D02*
X396358D01*
X395374Y417815D02*
Y419783D01*
X333858Y397736D02*
X335827D01*
X334842Y396752D02*
Y398721D01*
X368701Y157283D02*
X370669D01*
X369685Y156299D02*
Y158268D01*
X368701Y222539D02*
X371063D01*
X369882Y221358D02*
Y223721D01*
X221374Y402543D02*
X223342D01*
X222358Y401559D02*
Y403527D01*
X289182Y407480D02*
X291150D01*
X290166Y406496D02*
Y408465D01*
X377941Y363496D02*
X379909D01*
X378925Y362512D02*
Y364480D01*
X369390Y321457D02*
X371358D01*
X370374Y320472D02*
Y322441D01*
X369390Y284055D02*
X371358D01*
X370374Y283071D02*
Y285039D01*
X605709Y284646D02*
X607677D01*
X606693Y283661D02*
Y285630D01*
X612795Y282087D02*
X614764D01*
X613779Y281102D02*
Y283071D01*
X566768Y249495D02*
X568737D01*
X567753Y248511D02*
Y250480D01*
X574508Y259941D02*
X576476D01*
X575492Y258957D02*
Y260925D01*
X582213Y255229D02*
X584182D01*
X583198Y254245D02*
Y256213D01*
X578572Y248339D02*
X580540D01*
X579556Y247355D02*
Y249323D01*
X586516Y248721D02*
X588484D01*
X587500Y247736D02*
Y249705D01*
X577165Y221949D02*
X579134D01*
X578150Y220965D02*
Y222933D01*
X621063Y364567D02*
X623032D01*
X622047Y363583D02*
Y365551D01*
X619882Y288681D02*
X621850D01*
X620866Y287697D02*
Y289665D01*
X287500Y150886D02*
X289469D01*
X288484Y149902D02*
Y151870D01*
X280709Y217028D02*
X282677D01*
X281693Y216043D02*
Y218012D01*
X191634Y293358D02*
X193209D01*
X192421Y292571D02*
Y294146D01*
X196752Y293307D02*
X198327D01*
X197539Y292520D02*
Y294094D01*
X201772Y293358D02*
X203346D01*
X202559Y292571D02*
Y294146D01*
X523376Y244734D02*
X525345D01*
X524360Y243750D02*
Y245719D01*
X192717Y376181D02*
X194291D01*
X193504Y375394D02*
Y376969D01*
X187697Y376181D02*
X189272D01*
X188484Y375394D02*
Y376969D01*
X176575Y282283D02*
X178543D01*
X177559Y281299D02*
Y283268D01*
X532874Y273130D02*
X534842D01*
X533858Y272146D02*
Y274114D01*
X528740Y277362D02*
X530709D01*
X529724Y276378D02*
Y278346D01*
X524606Y281398D02*
X526575D01*
X525591Y280413D02*
Y282382D01*
X398425Y406693D02*
X400394D01*
X399410Y405709D02*
Y407677D01*
X382283Y413583D02*
X384252D01*
X383268Y412598D02*
Y414567D01*
X182579Y376181D02*
X184153D01*
X183366Y375394D02*
Y376969D01*
X177461Y376181D02*
X179035D01*
X178248Y375394D02*
Y376969D01*
X177461Y381398D02*
X179035D01*
X178248Y380610D02*
Y382185D01*
X182579Y381398D02*
X184153D01*
X183366Y380610D02*
Y382185D01*
X187697Y381398D02*
X189272D01*
X188484Y380610D02*
Y382185D01*
X192717Y381398D02*
X194291D01*
X193504Y380610D02*
Y382185D01*
X186516Y293358D02*
X188091D01*
X187303Y292571D02*
Y294146D01*
X186417Y288189D02*
X187992D01*
X187205Y287402D02*
Y288976D01*
X191535Y288189D02*
X193110D01*
X192323Y287402D02*
Y288976D01*
X196752Y288287D02*
X198327D01*
X197539Y287500D02*
Y289075D01*
X201772Y288287D02*
X203346D01*
X202559Y287500D02*
Y289075D01*
X206791Y288189D02*
X208366D01*
X207579Y287402D02*
Y288976D01*
X206890Y293358D02*
X208465D01*
X207677Y292571D02*
Y294146D01*
X206988Y298327D02*
X208563D01*
X207776Y297539D02*
Y299114D01*
X201870Y298327D02*
X203445D01*
X202658Y297539D02*
Y299114D01*
X196752Y298374D02*
X198327D01*
X197539Y297587D02*
Y299162D01*
X191732Y298327D02*
X193307D01*
X192520Y297539D02*
Y299114D01*
X186614Y298327D02*
X188189D01*
X187402Y297539D02*
Y299114D01*
X666240Y267913D02*
X668209D01*
X667224Y266929D02*
Y268898D01*
X233022Y427362D02*
X234990D01*
X234006Y426378D02*
Y428346D01*
X630364Y168848D02*
X632333D01*
X631348Y167864D02*
Y169833D01*
X219488Y426476D02*
X221457D01*
X220472Y425492D02*
Y427461D01*
X458366Y412697D02*
X460335D01*
X459350Y411713D02*
Y413681D01*
X537795Y208268D02*
X539764D01*
X538779Y207283D02*
Y209252D01*
X501968Y117126D02*
X503937D01*
X502953Y116142D02*
Y118110D01*
X533071Y406004D02*
X535039D01*
X534055Y405020D02*
Y406988D01*
X301181Y443209D02*
X303150D01*
X302165Y442224D02*
Y444193D01*
X562106Y265256D02*
X564075D01*
X563091Y264272D02*
Y266240D01*
X615256Y302658D02*
X617224D01*
X616240Y301673D02*
Y303642D01*
X602903Y344635D02*
X604871D01*
X603887Y343651D02*
Y345619D01*
X579823Y187992D02*
X581791D01*
X580807Y187008D02*
Y188976D01*
X539075Y236910D02*
X541043D01*
X540059Y235925D02*
Y237894D01*
X624114Y312894D02*
X626083D01*
X625098Y311910D02*
Y313878D01*
X630020Y326279D02*
X631988D01*
X631004Y325295D02*
Y327264D01*
X659252Y155512D02*
X661221D01*
X660236Y154528D02*
Y156496D01*
X464961Y388681D02*
X466929D01*
X465945Y387697D02*
Y389665D01*
X269587Y420177D02*
X271555D01*
X270571Y419193D02*
Y421161D01*
X480217Y125787D02*
X482185D01*
X481201Y124803D02*
Y126772D01*
X516831Y273425D02*
X518799D01*
X517815Y272441D02*
Y274410D01*
X367323Y420768D02*
X369291D01*
X368307Y419783D02*
Y421752D01*
X644882Y393110D02*
X646850D01*
X645866Y392126D02*
Y394094D01*
X621161Y406791D02*
X623130D01*
X622146Y405807D02*
Y407776D01*
X604035Y337205D02*
X606004D01*
X605020Y336221D02*
Y338189D01*
X663779Y308465D02*
X665748D01*
X664764Y307480D02*
Y309449D01*
X607283Y235827D02*
X609252D01*
X608268Y234842D02*
Y236811D01*
X617618Y174803D02*
X619587D01*
X618602Y173819D02*
Y175787D01*
X570276Y177657D02*
X572244D01*
X571260Y176673D02*
Y178642D01*
X663091Y436614D02*
X665059D01*
X664075Y435630D02*
Y437598D01*
X655994Y396161D02*
X657963D01*
X656978Y395177D02*
Y397146D01*
X641240Y354528D02*
X643209D01*
X642224Y353543D02*
Y355512D01*
X336221Y458858D02*
X338189D01*
X337205Y457874D02*
Y459842D01*
X289862Y440846D02*
X291831D01*
X290846Y439862D02*
Y441831D01*
X610827Y351476D02*
X612795D01*
X611811Y350492D02*
Y352461D01*
X600689Y300394D02*
X602658D01*
X601673Y299410D02*
Y301378D01*
X610925Y358465D02*
X612894D01*
X611909Y357480D02*
Y359449D01*
X450317Y382991D02*
X452286D01*
X451302Y382007D02*
Y383975D01*
X580343Y384369D02*
X582312D01*
X581328Y383385D02*
Y385353D01*
X501772Y210433D02*
X503740D01*
X502756Y209449D02*
Y211417D01*
X655413Y139272D02*
X657382D01*
X656398Y138287D02*
Y140256D01*
X653346Y220866D02*
X655315D01*
X654331Y219882D02*
Y221850D01*
X585532Y433366D02*
X587500D01*
X586516Y432382D02*
Y434350D01*
X583169Y414567D02*
X585138D01*
X584154Y413583D02*
Y415551D01*
X498524Y355315D02*
X500492D01*
X499508Y354331D02*
Y356299D01*
X506004Y427854D02*
X507972D01*
X506988Y426870D02*
Y428839D01*
X424016Y434842D02*
X425984D01*
X425000Y433858D02*
Y435827D01*
X510630Y153642D02*
X512598D01*
X511614Y152657D02*
Y154626D01*
X279331Y451968D02*
X281299D01*
X280315Y450984D02*
Y452953D01*
X543405Y206299D02*
X545374D01*
X544390Y205315D02*
Y207283D01*
X486909Y265453D02*
X488878D01*
X487894Y264469D02*
Y266437D01*
X457874Y374606D02*
X459842D01*
X458858Y373622D02*
Y375590D01*
X494390Y272638D02*
X496358D01*
X495374Y271654D02*
Y273622D01*
X551083Y244488D02*
X553051D01*
X552067Y243504D02*
Y245472D01*
X400000Y367717D02*
X401968D01*
X400984Y366732D02*
Y368701D01*
X480020Y349311D02*
X482382D01*
X481201Y348130D02*
Y350492D01*
X589665Y318209D02*
X591634D01*
X590650Y317224D02*
Y319193D01*
X523130Y413976D02*
X525098D01*
X524114Y412992D02*
Y414961D01*
X589665Y418405D02*
X591634D01*
X590650Y417421D02*
Y419390D01*
X573327Y384252D02*
X575295D01*
X574311Y383268D02*
Y385236D01*
X574606Y427264D02*
X576575D01*
X575591Y426279D02*
Y428248D01*
X440059Y420374D02*
X442028D01*
X441043Y419390D02*
Y421358D01*
X419980Y420768D02*
X421949D01*
X420965Y419783D02*
Y421752D01*
X452362Y414173D02*
X454331D01*
X453346Y413189D02*
Y415158D01*
X394094Y388878D02*
X396063D01*
X395079Y387894D02*
Y389862D01*
X443307Y383563D02*
X445276D01*
X444291Y382579D02*
Y384547D01*
X549213Y206496D02*
X551181D01*
X550197Y205512D02*
Y207480D01*
X565551Y148917D02*
X567520D01*
X566535Y147933D02*
Y149902D01*
X660728Y193701D02*
X662697D01*
X661713Y192717D02*
Y194685D01*
X653839Y211417D02*
X655807D01*
X654823Y210433D02*
Y212402D01*
X596752Y390748D02*
X598721D01*
X597736Y389764D02*
Y391732D01*
X524213Y373671D02*
X526181D01*
X525197Y372687D02*
Y374656D01*
X394390Y375394D02*
X396358D01*
X395374Y374410D02*
Y376378D01*
X523524Y387795D02*
X525492D01*
X524508Y386811D02*
Y388779D01*
X266535Y382874D02*
X268504D01*
X267520Y381890D02*
Y383858D01*
X298400Y365642D02*
X300369D01*
X299384Y364657D02*
Y366626D01*
X622736Y207972D02*
X624705D01*
X623721Y206988D02*
Y208957D01*
X529331Y167126D02*
X531299D01*
X530315Y166142D02*
Y168110D01*
X640551Y372244D02*
X642520D01*
X641535Y371260D02*
Y373228D01*
X640453Y363484D02*
X642421D01*
X641437Y362500D02*
Y364469D01*
X617618Y324902D02*
X619587D01*
X618602Y323917D02*
Y325886D01*
X640158Y287598D02*
X642126D01*
X641142Y286614D02*
Y288583D01*
X642520Y319587D02*
X644488D01*
X643504Y318602D02*
Y320571D01*
X634350Y240059D02*
X636319D01*
X635335Y239075D02*
Y241043D01*
X660630Y343307D02*
X662598D01*
X661614Y342323D02*
Y344291D01*
X647105Y306498D02*
X649073D01*
X648089Y305513D02*
Y307482D01*
X351181Y341339D02*
X353150D01*
X352165Y340354D02*
Y342323D01*
X350689Y305020D02*
X352658D01*
X351673Y304035D02*
Y306004D01*
X263189Y459842D02*
X265158D01*
X264173Y458858D02*
Y460827D01*
X249114Y412697D02*
X251083D01*
X250098Y411713D02*
Y413681D01*
M02*
