G04*
G04 #@! TF.GenerationSoftware,Altium Limited,Altium Designer,19.1.5 (86)*
G04*
G04 Layer_Color=16711935*
%FSLAX25Y25*%
%MOIN*%
G70*
G01*
G75*
%ADD10C,0.00787*%
%ADD11C,0.00500*%
%ADD12C,0.01000*%
%ADD18C,0.00394*%
%ADD119C,0.00000*%
%ADD120C,0.00400*%
G36*
X195618Y492244D02*
X193647D01*
Y495985D01*
X195618D01*
Y492244D01*
D02*
G37*
G36*
X200218Y492241D02*
X198251D01*
Y495985D01*
X200218D01*
Y492241D01*
D02*
G37*
G36*
X257402Y489520D02*
X253661D01*
Y491491D01*
X257402D01*
Y489520D01*
D02*
G37*
G36*
Y484920D02*
X253658D01*
Y486886D01*
X257402D01*
Y484920D01*
D02*
G37*
G36*
X320298Y479610D02*
X318327D01*
Y483351D01*
X320298D01*
Y479610D01*
D02*
G37*
G36*
X315693D02*
X313727D01*
Y483354D01*
X315693D01*
Y479610D01*
D02*
G37*
G36*
X258169Y466149D02*
X256198D01*
Y469890D01*
X258169D01*
Y466149D01*
D02*
G37*
G36*
X262769Y466146D02*
X260803D01*
Y469890D01*
X262769D01*
Y466146D01*
D02*
G37*
G36*
X291465Y465331D02*
X287724D01*
Y467302D01*
X291465D01*
Y465331D01*
D02*
G37*
G36*
X182107Y465308D02*
X178366D01*
Y467278D01*
X182107D01*
Y465308D01*
D02*
G37*
G36*
X282429Y465303D02*
X278685D01*
Y467269D01*
X282429D01*
Y465303D01*
D02*
G37*
G36*
X273535D02*
X269791D01*
Y467269D01*
X273535D01*
Y465303D01*
D02*
G37*
G36*
X291465Y460731D02*
X287721D01*
Y462697D01*
X291465D01*
Y460731D01*
D02*
G37*
G36*
X182107Y460708D02*
X178363D01*
Y462674D01*
X182107D01*
Y460708D01*
D02*
G37*
G36*
X282426Y460698D02*
X278685D01*
Y462669D01*
X282426D01*
Y460698D01*
D02*
G37*
G36*
X273532D02*
X269791D01*
Y462669D01*
X273532D01*
Y460698D01*
D02*
G37*
G36*
X257890Y458331D02*
X254149D01*
Y460302D01*
X257890D01*
Y458331D01*
D02*
G37*
G36*
Y453731D02*
X254146D01*
Y455697D01*
X257890D01*
Y453731D01*
D02*
G37*
G36*
X271018Y448897D02*
X269048D01*
Y452638D01*
X271018D01*
Y448897D01*
D02*
G37*
G36*
X266414D02*
X264448D01*
Y452641D01*
X266414D01*
Y448897D01*
D02*
G37*
G36*
X672228Y441460D02*
X668484D01*
Y443426D01*
X672228D01*
Y441460D01*
D02*
G37*
G36*
X432956Y439492D02*
X429212D01*
Y441458D01*
X432956D01*
Y439492D01*
D02*
G37*
G36*
X595161Y439098D02*
X591417D01*
Y441064D01*
X595161D01*
Y439098D01*
D02*
G37*
G36*
X514452D02*
X510708D01*
Y441064D01*
X514452D01*
Y439098D01*
D02*
G37*
G36*
X672225Y436856D02*
X668484D01*
Y438826D01*
X672225D01*
Y436856D01*
D02*
G37*
G36*
X432953Y434887D02*
X429212D01*
Y436858D01*
X432953D01*
Y434887D01*
D02*
G37*
G36*
X595158Y434494D02*
X591417D01*
Y436464D01*
X595158D01*
Y434494D01*
D02*
G37*
G36*
X514449D02*
X510708D01*
Y436464D01*
X514449D01*
Y434494D01*
D02*
G37*
G36*
X302390Y433331D02*
X298649D01*
Y435302D01*
X302390D01*
Y433331D01*
D02*
G37*
G36*
X280543Y432218D02*
X276799D01*
Y434184D01*
X280543D01*
Y432218D01*
D02*
G37*
G36*
X273043D02*
X269299D01*
Y434184D01*
X273043D01*
Y432218D01*
D02*
G37*
G36*
X288079Y432059D02*
X284338D01*
Y434030D01*
X288079D01*
Y432059D01*
D02*
G37*
G36*
X265543Y432031D02*
X261799D01*
Y433997D01*
X265543D01*
Y432031D01*
D02*
G37*
G36*
X229708Y432011D02*
X225964D01*
Y433978D01*
X229708D01*
Y432011D01*
D02*
G37*
G36*
X242011Y432011D02*
X238267D01*
Y433978D01*
X242011D01*
Y432011D01*
D02*
G37*
G36*
X302390Y428731D02*
X298646D01*
Y430697D01*
X302390D01*
Y428731D01*
D02*
G37*
G36*
X280540Y427613D02*
X276799D01*
Y429584D01*
X280540D01*
Y427613D01*
D02*
G37*
G36*
X273040D02*
X269299D01*
Y429584D01*
X273040D01*
Y427613D01*
D02*
G37*
G36*
X288079Y427459D02*
X284335D01*
Y429426D01*
X288079D01*
Y427459D01*
D02*
G37*
G36*
X265540Y427427D02*
X261799D01*
Y429397D01*
X265540D01*
Y427427D01*
D02*
G37*
G36*
X229705Y427407D02*
X225964D01*
Y429378D01*
X229705D01*
Y427407D01*
D02*
G37*
G36*
X242008Y427407D02*
X238267D01*
Y429378D01*
X242008D01*
Y427407D01*
D02*
G37*
G36*
X327802Y419110D02*
X325831D01*
Y422851D01*
X327802D01*
Y419110D01*
D02*
G37*
G36*
X323197D02*
X321231D01*
Y422854D01*
X323197D01*
Y419110D01*
D02*
G37*
G36*
X574463Y418917D02*
X572493D01*
Y422658D01*
X574463D01*
Y418917D01*
D02*
G37*
G36*
X569859Y418914D02*
X567893D01*
Y422658D01*
X569859D01*
Y418914D01*
D02*
G37*
G36*
X463308Y418681D02*
X461342D01*
Y422425D01*
X463308D01*
Y418681D01*
D02*
G37*
G36*
X458708D02*
X456738D01*
Y422422D01*
X458708D01*
Y418681D01*
D02*
G37*
G36*
X434798Y418326D02*
X432827D01*
Y422067D01*
X434798D01*
Y418326D01*
D02*
G37*
G36*
X430193Y418323D02*
X428227D01*
Y422067D01*
X430193D01*
Y418323D01*
D02*
G37*
G36*
X251425Y418228D02*
X249454D01*
Y421969D01*
X251425D01*
Y418228D01*
D02*
G37*
G36*
X256025Y418225D02*
X254059D01*
Y421969D01*
X256025D01*
Y418225D01*
D02*
G37*
G36*
X280051Y417877D02*
X278080D01*
Y421619D01*
X280051D01*
Y417877D01*
D02*
G37*
G36*
X284651Y417874D02*
X282685D01*
Y421619D01*
X284651D01*
Y417874D01*
D02*
G37*
G36*
X265543Y417531D02*
X261799D01*
Y419497D01*
X265543D01*
Y417531D01*
D02*
G37*
G36*
X238341Y417401D02*
X236370D01*
Y421142D01*
X238341D01*
Y417401D01*
D02*
G37*
G36*
X233737D02*
X231770D01*
Y421145D01*
X233737D01*
Y417401D01*
D02*
G37*
G36*
X537197Y416641D02*
X533453D01*
Y418608D01*
X537197D01*
Y416641D01*
D02*
G37*
G36*
X611832Y416319D02*
X609866D01*
Y420062D01*
X611832D01*
Y416319D01*
D02*
G37*
G36*
X607232D02*
X605261D01*
Y420060D01*
X607232D01*
Y416319D01*
D02*
G37*
G36*
X265540Y412927D02*
X261799D01*
Y414897D01*
X265540D01*
Y412927D01*
D02*
G37*
G36*
X375906Y412228D02*
X372162D01*
Y414194D01*
X375906D01*
Y412228D01*
D02*
G37*
G36*
X407267Y412129D02*
X403523D01*
Y414096D01*
X407267D01*
Y412129D01*
D02*
G37*
G36*
X537194Y412037D02*
X533453D01*
Y414008D01*
X537194D01*
Y412037D01*
D02*
G37*
G36*
X280051Y410377D02*
X278080D01*
Y414118D01*
X280051D01*
Y410377D01*
D02*
G37*
G36*
X284651Y410374D02*
X282685D01*
Y414118D01*
X284651D01*
Y410374D01*
D02*
G37*
G36*
X375906Y407624D02*
X372165D01*
Y409594D01*
X375906D01*
Y407624D01*
D02*
G37*
G36*
X407264Y407525D02*
X403523D01*
Y409496D01*
X407264D01*
Y407525D01*
D02*
G37*
G36*
X509174Y406224D02*
X505430D01*
Y408190D01*
X509174D01*
Y406224D01*
D02*
G37*
G36*
X632008Y405043D02*
X628264D01*
Y407009D01*
X632008D01*
Y405043D01*
D02*
G37*
G36*
X481516Y404649D02*
X477772D01*
Y406615D01*
X481516D01*
Y404649D01*
D02*
G37*
G36*
X509174Y401620D02*
X505433D01*
Y403590D01*
X509174D01*
Y401620D01*
D02*
G37*
G36*
X632008Y400439D02*
X628267D01*
Y402409D01*
X632008D01*
Y400439D01*
D02*
G37*
G36*
X481516Y400045D02*
X477775D01*
Y402015D01*
X481516D01*
Y400045D01*
D02*
G37*
G36*
X245231Y392106D02*
X243260D01*
X243260Y395847D01*
X245231Y395847D01*
Y392106D01*
D02*
G37*
G36*
X240627D02*
X238660D01*
X238660Y395850D01*
X240627D01*
Y392106D01*
D02*
G37*
G36*
X474590Y390574D02*
X470846D01*
Y392541D01*
X474590D01*
Y390574D01*
D02*
G37*
G36*
X303927Y389720D02*
X301957D01*
Y393461D01*
X303927D01*
Y389720D01*
D02*
G37*
G36*
X308527Y389717D02*
X306561D01*
Y393461D01*
X308527D01*
Y389717D01*
D02*
G37*
G36*
X606543Y389488D02*
X604572D01*
Y393229D01*
X606543D01*
Y389488D01*
D02*
G37*
G36*
X611143Y389485D02*
X609177D01*
Y393229D01*
X611143D01*
Y389485D01*
D02*
G37*
G36*
X592110Y388311D02*
X588366D01*
Y390277D01*
X592110D01*
Y388311D01*
D02*
G37*
G36*
X296100Y388224D02*
X292356D01*
Y390190D01*
X296100D01*
Y388224D01*
D02*
G37*
G36*
X402874Y386961D02*
X399133D01*
Y388931D01*
X402874D01*
Y386961D01*
D02*
G37*
G36*
X391125Y386834D02*
X387382D01*
Y388800D01*
X391125D01*
Y386834D01*
D02*
G37*
G36*
X461106Y386342D02*
X457362D01*
Y388308D01*
X461106D01*
Y386342D01*
D02*
G37*
G36*
X474587Y385970D02*
X470846D01*
Y387941D01*
X474587D01*
Y385970D01*
D02*
G37*
G36*
X533386Y385682D02*
X529645D01*
Y387652D01*
X533386D01*
Y385682D01*
D02*
G37*
G36*
X519472Y385653D02*
X515728D01*
Y387619D01*
X519472D01*
Y385653D01*
D02*
G37*
G36*
X261401D02*
X257657D01*
Y387619D01*
X261401D01*
Y385653D01*
D02*
G37*
G36*
X254347Y385566D02*
X250604D01*
Y387533D01*
X254347D01*
Y385566D01*
D02*
G37*
G36*
X230397Y385063D02*
X226653D01*
Y387029D01*
X230397D01*
Y385063D01*
D02*
G37*
G36*
X281892Y383889D02*
X279921D01*
Y387630D01*
X281892D01*
Y383889D01*
D02*
G37*
G36*
X286492Y383886D02*
X284526D01*
Y387630D01*
X286492D01*
Y383886D01*
D02*
G37*
G36*
X592107Y383706D02*
X588366D01*
Y385677D01*
X592107D01*
Y383706D01*
D02*
G37*
G36*
X296097Y383620D02*
X292356D01*
Y385590D01*
X296097D01*
Y383620D01*
D02*
G37*
G36*
X559791Y383287D02*
X557821D01*
Y387028D01*
X559791D01*
Y383287D01*
D02*
G37*
G36*
X564391Y383284D02*
X562425D01*
Y387028D01*
X564391D01*
Y383284D01*
D02*
G37*
G36*
X549857Y383248D02*
X547886D01*
Y386989D01*
X549857D01*
Y383248D01*
D02*
G37*
G36*
X545253D02*
X543286D01*
Y386992D01*
X545253D01*
Y383248D01*
D02*
G37*
G36*
X354368Y382712D02*
X350624D01*
Y384678D01*
X354368D01*
Y382712D01*
D02*
G37*
G36*
X402874Y382361D02*
X399131D01*
Y384327D01*
X402874D01*
Y382361D01*
D02*
G37*
G36*
X391123Y382230D02*
X387382D01*
Y384200D01*
X391123D01*
Y382230D01*
D02*
G37*
G36*
X430165Y382106D02*
X428195D01*
Y385847D01*
X430165D01*
Y382106D01*
D02*
G37*
G36*
X415500D02*
X413529D01*
Y385847D01*
X415500D01*
Y382106D01*
D02*
G37*
G36*
X434765Y382103D02*
X432799D01*
Y385847D01*
X434765D01*
Y382103D01*
D02*
G37*
G36*
X420100D02*
X418133D01*
Y385847D01*
X420100D01*
Y382103D01*
D02*
G37*
G36*
X461103Y381738D02*
X457362D01*
Y383708D01*
X461103D01*
Y381738D01*
D02*
G37*
G36*
X533386Y381082D02*
X529642D01*
Y383048D01*
X533386D01*
Y381082D01*
D02*
G37*
G36*
X519469Y381049D02*
X515728D01*
Y383019D01*
X519469D01*
Y381049D01*
D02*
G37*
G36*
X261398D02*
X257657D01*
Y383019D01*
X261398D01*
Y381049D01*
D02*
G37*
G36*
X254345Y380962D02*
X250604D01*
Y382933D01*
X254345D01*
Y380962D01*
D02*
G37*
G36*
X230394Y380458D02*
X226653D01*
Y382429D01*
X230394D01*
Y380458D01*
D02*
G37*
G36*
X354365Y378108D02*
X350624D01*
Y380078D01*
X354365D01*
Y378108D01*
D02*
G37*
G36*
X627409Y378070D02*
X625439D01*
Y381811D01*
X627409D01*
Y378070D01*
D02*
G37*
G36*
X632009Y378067D02*
X630043D01*
Y381811D01*
X632009D01*
Y378067D01*
D02*
G37*
G36*
X615240Y376795D02*
X611496D01*
Y378761D01*
X615240D01*
Y376795D01*
D02*
G37*
G36*
X655664Y376161D02*
X653693D01*
Y379902D01*
X655664D01*
Y376161D01*
D02*
G37*
G36*
X651059D02*
X649093D01*
Y379905D01*
X651059D01*
Y376161D01*
D02*
G37*
G36*
X278211Y372563D02*
X274470D01*
Y374534D01*
X278211D01*
Y372563D01*
D02*
G37*
G36*
X270711D02*
X266970D01*
Y374534D01*
X270711D01*
Y372563D01*
D02*
G37*
G36*
X615237Y372190D02*
X611496D01*
Y374161D01*
X615237D01*
Y372190D01*
D02*
G37*
G36*
X627606Y370590D02*
X625635D01*
Y374331D01*
X627606D01*
Y370590D01*
D02*
G37*
G36*
X632206Y370587D02*
X630240D01*
Y374331D01*
X632206D01*
Y370587D01*
D02*
G37*
G36*
X655664Y368681D02*
X653693D01*
Y372422D01*
X655664D01*
Y368681D01*
D02*
G37*
G36*
X651059D02*
X649093D01*
Y372425D01*
X651059D01*
Y368681D01*
D02*
G37*
G36*
X361848Y368145D02*
X358104D01*
Y370111D01*
X361848D01*
Y368145D01*
D02*
G37*
G36*
X263603Y368063D02*
X259862D01*
Y370034D01*
X263603D01*
Y368063D01*
D02*
G37*
G36*
X354148Y368055D02*
X350404D01*
Y370021D01*
X354148D01*
Y368055D01*
D02*
G37*
G36*
X278211Y367963D02*
X274467D01*
Y369930D01*
X278211D01*
Y367963D01*
D02*
G37*
G36*
X270711D02*
X266968D01*
Y369930D01*
X270711D01*
Y367963D01*
D02*
G37*
G36*
X361845Y363541D02*
X358104D01*
Y365511D01*
X361845D01*
Y363541D01*
D02*
G37*
G36*
X263603Y363463D02*
X259859D01*
Y365430D01*
X263603D01*
Y363463D01*
D02*
G37*
G36*
X354145Y363450D02*
X350404D01*
Y365421D01*
X354145D01*
Y363450D01*
D02*
G37*
G36*
X651031Y361240D02*
X649061D01*
Y364981D01*
X651031D01*
Y361240D01*
D02*
G37*
G36*
X655631Y361237D02*
X653665D01*
Y364981D01*
X655631D01*
Y361237D01*
D02*
G37*
G36*
X275895Y358260D02*
X273924D01*
Y362000D01*
X275895D01*
Y358260D01*
D02*
G37*
G36*
X271290D02*
X269324D01*
Y362003D01*
X271290D01*
Y358260D01*
D02*
G37*
G36*
X285900Y357544D02*
X282159D01*
Y359514D01*
X285900D01*
Y357544D01*
D02*
G37*
G36*
X293344Y357515D02*
X289600D01*
Y359482D01*
X293344D01*
Y357515D01*
D02*
G37*
G36*
X620788Y355859D02*
X617047D01*
Y357829D01*
X620788D01*
Y355859D01*
D02*
G37*
G36*
X305762Y355492D02*
X303792D01*
Y359233D01*
X305762D01*
Y355492D01*
D02*
G37*
G36*
X301158D02*
X299192D01*
Y359236D01*
X301158D01*
Y355492D01*
D02*
G37*
G36*
X650834Y353759D02*
X648864D01*
Y357500D01*
X650834D01*
Y353759D01*
D02*
G37*
G36*
X655434Y353756D02*
X653468D01*
Y357500D01*
X655434D01*
Y353756D01*
D02*
G37*
G36*
X285900Y352944D02*
X282156D01*
Y354910D01*
X285900D01*
Y352944D01*
D02*
G37*
G36*
X293341Y352911D02*
X289600D01*
Y354882D01*
X293341D01*
Y352911D01*
D02*
G37*
G36*
X620788Y351259D02*
X617044D01*
Y353225D01*
X620788D01*
Y351259D01*
D02*
G37*
G36*
X650637Y346279D02*
X648667D01*
Y350020D01*
X650637D01*
Y346279D01*
D02*
G37*
G36*
X655237Y346276D02*
X653271D01*
Y350020D01*
X655237D01*
Y346276D01*
D02*
G37*
G36*
X197425Y346871D02*
Y344905D01*
X193681D01*
Y346871D01*
X197425Y346871D01*
D02*
G37*
G36*
X163566Y344807D02*
X159822Y344807D01*
Y346773D01*
X163566D01*
Y344807D01*
D02*
G37*
G36*
X197422Y342271D02*
X197422Y340301D01*
X193681D01*
Y342271D01*
X197422Y342271D01*
D02*
G37*
G36*
X163564Y340202D02*
X159822D01*
Y342173D01*
X163564D01*
Y340202D01*
D02*
G37*
G36*
X626952Y335259D02*
X623208D01*
Y337226D01*
X626952D01*
Y335259D01*
D02*
G37*
G36*
X639058Y334964D02*
X635315D01*
Y336930D01*
X639058D01*
Y334964D01*
D02*
G37*
G36*
X258124Y332669D02*
X256154D01*
X256154Y336410D01*
X258124Y336410D01*
Y332669D01*
D02*
G37*
G36*
X253520D02*
X251554D01*
X251554Y336413D01*
X253520D01*
Y332669D01*
D02*
G37*
G36*
X626949Y330655D02*
X623208D01*
Y332626D01*
X626949D01*
Y330655D01*
D02*
G37*
G36*
X639056Y330360D02*
X635315D01*
Y332330D01*
X639056D01*
Y330360D01*
D02*
G37*
G36*
X613271Y323350D02*
X609527D01*
Y325316D01*
X613271D01*
Y323350D01*
D02*
G37*
G36*
X605791Y323153D02*
X602047D01*
Y325119D01*
X605791D01*
Y323153D01*
D02*
G37*
G36*
X598311D02*
X594566D01*
Y325119D01*
X598311D01*
Y323153D01*
D02*
G37*
G36*
X613268Y318746D02*
X609527D01*
Y320716D01*
X613268D01*
Y318746D01*
D02*
G37*
G36*
X605788Y318549D02*
X602047D01*
Y320519D01*
X605788D01*
Y318549D01*
D02*
G37*
G36*
X598308D02*
X594566D01*
Y320519D01*
X598308D01*
Y318549D01*
D02*
G37*
G36*
X652212Y317342D02*
X650242D01*
Y321083D01*
X652212D01*
Y317342D01*
D02*
G37*
G36*
X656812Y317339D02*
X654846D01*
Y321083D01*
X656812D01*
Y317339D01*
D02*
G37*
G36*
X636963Y317204D02*
X634993D01*
Y320945D01*
X636963D01*
Y317204D01*
D02*
G37*
G36*
X632359D02*
X630393D01*
Y320948D01*
X632359D01*
Y317204D01*
D02*
G37*
G36*
X428492Y312814D02*
X426521D01*
Y316556D01*
X428492D01*
Y312814D01*
D02*
G37*
G36*
X433092Y312811D02*
X431125D01*
Y316556D01*
X433092D01*
Y312811D01*
D02*
G37*
G36*
X602212Y308779D02*
X600242D01*
Y312520D01*
X602212D01*
Y308779D01*
D02*
G37*
G36*
X606812Y308776D02*
X604846D01*
Y312520D01*
X606812D01*
Y308776D01*
D02*
G37*
G36*
X428492Y305137D02*
X426521D01*
Y308878D01*
X428492D01*
Y305137D01*
D02*
G37*
G36*
X433092Y305134D02*
X431125D01*
Y308878D01*
X433092D01*
Y305134D01*
D02*
G37*
G36*
X632527Y304448D02*
X630557D01*
Y308189D01*
X632527D01*
Y304448D01*
D02*
G37*
G36*
X637127Y304445D02*
X635161D01*
Y308189D01*
X637127D01*
Y304445D01*
D02*
G37*
G36*
X624134Y303103D02*
X620393D01*
Y305073D01*
X624134D01*
Y303103D01*
D02*
G37*
G36*
Y298503D02*
X620390D01*
Y300469D01*
X624134D01*
Y298503D01*
D02*
G37*
G36*
X428295Y297657D02*
X426324D01*
Y301398D01*
X428295D01*
Y297657D01*
D02*
G37*
G36*
X432895Y297654D02*
X430929D01*
Y301398D01*
X432895D01*
Y297654D01*
D02*
G37*
G36*
X632527Y296448D02*
X630557D01*
Y300189D01*
X632527D01*
Y296448D01*
D02*
G37*
G36*
X637127Y296445D02*
X635161D01*
Y300189D01*
X637127D01*
Y296445D01*
D02*
G37*
G36*
X259306Y295649D02*
X257335D01*
X257335Y299390D01*
X259306Y299390D01*
Y295649D01*
D02*
G37*
G36*
X254701D02*
X252735D01*
X252735Y299393D01*
X254701D01*
Y295649D01*
D02*
G37*
G36*
X653794Y292401D02*
X651823D01*
Y296142D01*
X653794D01*
Y292401D01*
D02*
G37*
G36*
X649190D02*
X647223D01*
Y296145D01*
X649190D01*
Y292401D01*
D02*
G37*
G36*
X428295Y290275D02*
X426324D01*
Y294016D01*
X428295D01*
Y290275D01*
D02*
G37*
G36*
X432895Y290272D02*
X430929D01*
Y294016D01*
X432895D01*
Y290272D01*
D02*
G37*
G36*
X653794Y284921D02*
X651823D01*
Y288662D01*
X653794D01*
Y284921D01*
D02*
G37*
G36*
X649190D02*
X647223D01*
Y288665D01*
X649190D01*
Y284921D01*
D02*
G37*
G36*
X497264Y284402D02*
X493523D01*
Y286372D01*
X497264D01*
Y284402D01*
D02*
G37*
G36*
X164058Y282698D02*
Y280732D01*
X160315D01*
Y282698D01*
X164058Y282698D01*
D02*
G37*
G36*
X622559Y280662D02*
X618818D01*
Y282632D01*
X622559D01*
Y280662D01*
D02*
G37*
G36*
X197264Y280465D02*
X193523D01*
X193523Y282435D01*
X197264D01*
Y280465D01*
D02*
G37*
G36*
X497264Y279802D02*
X493520D01*
Y281768D01*
X497264D01*
Y279802D01*
D02*
G37*
G36*
X489882Y277709D02*
X486141D01*
Y279680D01*
X489882D01*
Y277709D01*
D02*
G37*
G36*
X661992Y277582D02*
X658248D01*
Y279548D01*
X661992D01*
Y277582D01*
D02*
G37*
G36*
X504744Y277414D02*
X501003D01*
Y279384D01*
X504744D01*
Y277414D01*
D02*
G37*
G36*
X164056Y278098D02*
X164056Y276128D01*
X160315D01*
Y278098D01*
X164056Y278098D01*
D02*
G37*
G36*
X622559Y276062D02*
X618816D01*
Y278028D01*
X622559D01*
Y276062D01*
D02*
G37*
G36*
X197264Y275865D02*
X193520Y275865D01*
Y277831D01*
X197264D01*
Y275865D01*
D02*
G37*
G36*
X648275Y273838D02*
X646305D01*
Y277579D01*
X648275D01*
Y273838D01*
D02*
G37*
G36*
X652875Y273835D02*
X650909D01*
Y277579D01*
X652875D01*
Y273835D01*
D02*
G37*
G36*
X489882Y273109D02*
X486138D01*
Y275075D01*
X489882D01*
Y273109D01*
D02*
G37*
G36*
X661989Y272978D02*
X658248D01*
Y274948D01*
X661989D01*
Y272978D01*
D02*
G37*
G36*
X504744Y272814D02*
X501000D01*
Y274780D01*
X504744D01*
Y272814D01*
D02*
G37*
G36*
X648344Y266745D02*
X646373D01*
Y270486D01*
X648344D01*
Y266745D01*
D02*
G37*
G36*
X652944Y266742D02*
X650978D01*
Y270486D01*
X652944D01*
Y266742D01*
D02*
G37*
G36*
X518622Y261863D02*
X514881D01*
Y263833D01*
X518622D01*
Y261863D01*
D02*
G37*
G36*
X359863Y261272D02*
X356121Y261272D01*
X356121Y263243D01*
X359863D01*
Y261272D01*
D02*
G37*
G36*
X273150Y260682D02*
X269409Y260682D01*
X269409Y262652D01*
X273150D01*
Y260682D01*
D02*
G37*
G36*
X622488Y259370D02*
X620517D01*
Y263111D01*
X622488D01*
Y259370D01*
D02*
G37*
G36*
X627088Y259367D02*
X625122D01*
Y263111D01*
X627088D01*
Y259367D01*
D02*
G37*
G36*
X636795Y258980D02*
X633051D01*
Y260946D01*
X636795D01*
Y258980D01*
D02*
G37*
G36*
X518622Y257263D02*
X514879D01*
Y259229D01*
X518622D01*
Y257263D01*
D02*
G37*
G36*
X359863Y256672D02*
X356119Y256672D01*
Y258638D01*
X359863D01*
Y256672D01*
D02*
G37*
G36*
X273150Y256082D02*
X269406Y256082D01*
Y258048D01*
X273150D01*
Y256082D01*
D02*
G37*
G36*
X636792Y254376D02*
X633051D01*
Y256346D01*
X636792D01*
Y254376D01*
D02*
G37*
G36*
X430165Y247362D02*
X428195D01*
Y251103D01*
X430165D01*
Y247362D01*
D02*
G37*
G36*
X434765Y247359D02*
X432799D01*
Y251103D01*
X434765D01*
Y247359D01*
D02*
G37*
G36*
X634102Y244606D02*
X632131D01*
Y248347D01*
X634102D01*
Y244606D01*
D02*
G37*
G36*
X638702Y244603D02*
X636736D01*
Y248347D01*
X638702D01*
Y244603D01*
D02*
G37*
G36*
X648656Y242445D02*
X646686D01*
Y246186D01*
X648656D01*
Y242445D01*
D02*
G37*
G36*
X653256Y242442D02*
X651290D01*
Y246186D01*
X653256D01*
Y242442D01*
D02*
G37*
G36*
X430165Y239783D02*
X428195D01*
Y243524D01*
X430165D01*
Y239783D01*
D02*
G37*
G36*
X434765Y239780D02*
X432799D01*
Y243524D01*
X434765D01*
Y239780D01*
D02*
G37*
G36*
X256943Y232559D02*
X254973D01*
X254973Y236300D01*
X256943Y236300D01*
Y232559D01*
D02*
G37*
G36*
X252339D02*
X250373D01*
X250373Y236303D01*
X252339D01*
Y232559D01*
D02*
G37*
G36*
X429968Y232007D02*
X427998D01*
Y235748D01*
X429968D01*
Y232007D01*
D02*
G37*
G36*
X434568Y232004D02*
X432602D01*
Y235748D01*
X434568D01*
Y232004D01*
D02*
G37*
G36*
X429968Y224527D02*
X427998D01*
Y228268D01*
X429968D01*
Y224527D01*
D02*
G37*
G36*
X434568Y224524D02*
X432602D01*
Y228268D01*
X434568D01*
Y224524D01*
D02*
G37*
G36*
X643157Y221771D02*
X641187D01*
Y225512D01*
X643157D01*
Y221771D01*
D02*
G37*
G36*
X647757Y221768D02*
X645791D01*
Y225512D01*
X647757D01*
Y221768D01*
D02*
G37*
G36*
X664157Y220988D02*
X660413D01*
Y222954D01*
X664157D01*
Y220988D01*
D02*
G37*
G36*
X664154Y216383D02*
X660413D01*
Y218354D01*
X664154D01*
Y216383D01*
D02*
G37*
G36*
X664193Y206449D02*
X660452D01*
Y208420D01*
X664193D01*
Y206449D01*
D02*
G37*
G36*
X633091Y205957D02*
X629350D01*
Y207928D01*
X633091D01*
Y205957D01*
D02*
G37*
G36*
X656811Y202020D02*
X653070D01*
Y203991D01*
X656811D01*
Y202020D01*
D02*
G37*
G36*
X664193Y201849D02*
X660449D01*
Y203815D01*
X664193D01*
Y201849D01*
D02*
G37*
G36*
X633091Y201357D02*
X629347D01*
Y203323D01*
X633091D01*
Y201357D01*
D02*
G37*
G36*
X579581Y199193D02*
X577611D01*
Y202934D01*
X579581D01*
Y199193D01*
D02*
G37*
G36*
X574977D02*
X573011D01*
Y202937D01*
X574977D01*
Y199193D01*
D02*
G37*
G36*
X647101Y198897D02*
X645130D01*
Y202638D01*
X647101D01*
Y198897D01*
D02*
G37*
G36*
X642497D02*
X640530D01*
Y202641D01*
X642497D01*
Y198897D01*
D02*
G37*
G36*
X618130Y198477D02*
X614389D01*
Y200447D01*
X618130D01*
Y198477D01*
D02*
G37*
G36*
X656811Y197420D02*
X653067D01*
Y199386D01*
X656811D01*
Y197420D01*
D02*
G37*
G36*
X360256Y195524D02*
X356515Y195524D01*
X356515Y197494D01*
X360256D01*
Y195524D01*
D02*
G37*
G36*
X618130Y193877D02*
X614386D01*
Y195843D01*
X618130D01*
Y193877D01*
D02*
G37*
G36*
X511858Y192834D02*
X509887D01*
Y196575D01*
X511858D01*
Y192834D01*
D02*
G37*
G36*
X516458Y192831D02*
X514492D01*
Y196575D01*
X516458D01*
Y192831D01*
D02*
G37*
G36*
X497685Y192736D02*
X495714D01*
Y196477D01*
X497685D01*
Y192736D01*
D02*
G37*
G36*
X502285Y192733D02*
X500318D01*
Y196477D01*
X502285D01*
Y192733D01*
D02*
G37*
G36*
X579581Y192204D02*
X577611D01*
Y195945D01*
X579581D01*
Y192204D01*
D02*
G37*
G36*
X574977D02*
X573011D01*
Y195948D01*
X574977D01*
Y192204D01*
D02*
G37*
G36*
X626622Y191555D02*
X624651D01*
Y195296D01*
X626622D01*
Y191555D01*
D02*
G37*
G36*
X631222Y191552D02*
X629255D01*
Y195296D01*
X631222D01*
Y191552D01*
D02*
G37*
G36*
X647101Y191417D02*
X645130D01*
Y195158D01*
X647101D01*
Y191417D01*
D02*
G37*
G36*
X642497D02*
X640530D01*
Y195161D01*
X642497D01*
Y191417D01*
D02*
G37*
G36*
X360256Y190924D02*
X356512Y190924D01*
Y192890D01*
X360256D01*
Y190924D01*
D02*
G37*
G36*
X273839Y190111D02*
X270098D01*
Y192081D01*
X273839D01*
Y190111D01*
D02*
G37*
G36*
X515992Y185846D02*
X514021D01*
Y189587D01*
X515992D01*
Y185846D01*
D02*
G37*
G36*
X520592Y185843D02*
X518625D01*
Y189587D01*
X520592D01*
Y185843D01*
D02*
G37*
G36*
X273839Y185511D02*
X270095Y185511D01*
Y187477D01*
X273839D01*
Y185511D01*
D02*
G37*
G36*
X540240Y179059D02*
X536496D01*
Y181025D01*
X540240D01*
Y179059D01*
D02*
G37*
G36*
X532858D02*
X529114D01*
Y181025D01*
X532858D01*
Y179059D01*
D02*
G37*
G36*
X657330Y178858D02*
X655360D01*
Y182599D01*
X657330D01*
Y178858D01*
D02*
G37*
G36*
X661930Y178855D02*
X659964D01*
Y182599D01*
X661930D01*
Y178855D01*
D02*
G37*
G36*
X532855Y174454D02*
X529114D01*
Y176425D01*
X532855D01*
Y174454D01*
D02*
G37*
G36*
X545985Y174039D02*
X542241D01*
Y176005D01*
X545985D01*
Y174039D01*
D02*
G37*
G36*
X540237Y174454D02*
X538504D01*
Y174039D01*
X534760D01*
Y176005D01*
X536496D01*
Y176425D01*
X540237D01*
Y174454D01*
D02*
G37*
G36*
X659889Y171378D02*
X657919D01*
Y175119D01*
X659889D01*
Y171378D01*
D02*
G37*
G36*
X664489Y171374D02*
X662523D01*
Y175119D01*
X664489D01*
Y171374D01*
D02*
G37*
G36*
X613603Y169737D02*
X609862D01*
Y171707D01*
X613603D01*
Y169737D01*
D02*
G37*
G36*
X545985Y169435D02*
X542244D01*
Y171405D01*
X545985D01*
Y169435D01*
D02*
G37*
G36*
X538504D02*
X534763D01*
Y171405D01*
X538504D01*
Y169435D01*
D02*
G37*
G36*
X254876Y167893D02*
X252906D01*
X252906Y171634D01*
X254876Y171634D01*
Y167893D01*
D02*
G37*
G36*
X250272D02*
X248306D01*
X248306Y171637D01*
X250272D01*
Y167893D01*
D02*
G37*
G36*
X624626Y166292D02*
X620885D01*
Y168262D01*
X624626D01*
Y166292D01*
D02*
G37*
G36*
X613603Y165137D02*
X609859D01*
Y167103D01*
X613603D01*
Y165137D01*
D02*
G37*
G36*
X668032Y163634D02*
X664291D01*
Y165605D01*
X668032D01*
Y163634D01*
D02*
G37*
G36*
X624626Y161692D02*
X620882D01*
Y163658D01*
X624626D01*
Y161692D01*
D02*
G37*
G36*
X655827Y161469D02*
X652086D01*
Y163439D01*
X655827D01*
Y161469D01*
D02*
G37*
G36*
X646707Y159527D02*
X644737D01*
Y163268D01*
X646707D01*
Y159527D01*
D02*
G37*
G36*
X642103D02*
X640137D01*
Y163271D01*
X642103D01*
Y159527D01*
D02*
G37*
G36*
X668032Y159034D02*
X664288D01*
Y161001D01*
X668032D01*
Y159034D01*
D02*
G37*
G36*
X655827Y156869D02*
X652083D01*
Y158835D01*
X655827D01*
Y156869D01*
D02*
G37*
G36*
X490696Y153956D02*
X488726D01*
Y157697D01*
X490696D01*
Y153956D01*
D02*
G37*
G36*
X495296Y153953D02*
X493330D01*
Y157697D01*
X495296D01*
Y153953D01*
D02*
G37*
G36*
X627212Y152086D02*
X625242D01*
Y155827D01*
X627212D01*
Y152086D01*
D02*
G37*
G36*
X631812Y152083D02*
X629846D01*
Y155827D01*
X631812D01*
Y152083D01*
D02*
G37*
G36*
X646609Y152047D02*
X644638D01*
Y155788D01*
X646609D01*
Y152047D01*
D02*
G37*
G36*
X642004D02*
X640038D01*
Y155791D01*
X642004D01*
Y152047D01*
D02*
G37*
G36*
X488308Y146830D02*
X486342D01*
Y150574D01*
X488308D01*
Y146830D01*
D02*
G37*
G36*
X483708D02*
X481738D01*
Y150571D01*
X483708D01*
Y146830D01*
D02*
G37*
G36*
X520850Y143921D02*
X517106D01*
Y145887D01*
X520850D01*
Y143921D01*
D02*
G37*
G36*
X513468Y143724D02*
X509724D01*
Y145690D01*
X513468D01*
Y143724D01*
D02*
G37*
G36*
X505692Y143625D02*
X501948D01*
Y145592D01*
X505692D01*
Y143625D01*
D02*
G37*
G36*
X616681Y140472D02*
X614710D01*
Y144213D01*
X616681D01*
Y140472D01*
D02*
G37*
G36*
X621281Y140469D02*
X619314D01*
Y144213D01*
X621281D01*
Y140469D01*
D02*
G37*
G36*
X630889Y140279D02*
X627145D01*
Y142245D01*
X630889D01*
Y140279D01*
D02*
G37*
G36*
X559728Y140181D02*
X555984D01*
Y142147D01*
X559728D01*
Y140181D01*
D02*
G37*
G36*
X549922D02*
X546178D01*
Y142147D01*
X549922D01*
Y140181D01*
D02*
G37*
G36*
X529610D02*
X525866D01*
Y142147D01*
X529610D01*
Y140181D01*
D02*
G37*
G36*
X568622Y140111D02*
X564881D01*
Y142081D01*
X568622D01*
Y140111D01*
D02*
G37*
G36*
X577740Y140082D02*
X573996D01*
Y142048D01*
X577740D01*
Y140082D01*
D02*
G37*
G36*
X643459Y140039D02*
X641489D01*
Y143780D01*
X643459D01*
Y140039D01*
D02*
G37*
G36*
X638855D02*
X636889D01*
Y143783D01*
X638855D01*
Y140039D01*
D02*
G37*
G36*
X539944Y139984D02*
X536200D01*
Y141950D01*
X539944D01*
Y139984D01*
D02*
G37*
G36*
X520847Y139316D02*
X517106D01*
Y141287D01*
X520847D01*
Y139316D01*
D02*
G37*
G36*
X513465Y139120D02*
X509724D01*
Y141090D01*
X513465D01*
Y139120D01*
D02*
G37*
G36*
X505689Y139021D02*
X501948D01*
Y140992D01*
X505689D01*
Y139021D01*
D02*
G37*
G36*
X630886Y135675D02*
X627145D01*
Y137645D01*
X630886D01*
Y135675D01*
D02*
G37*
G36*
X559725Y135576D02*
X555984D01*
Y137547D01*
X559725D01*
Y135576D01*
D02*
G37*
G36*
X549922D02*
X546181D01*
Y137547D01*
X549922D01*
Y135576D01*
D02*
G37*
G36*
X529607D02*
X525866D01*
Y137547D01*
X529607D01*
Y135576D01*
D02*
G37*
G36*
X568622Y135511D02*
X564879D01*
Y137477D01*
X568622D01*
Y135511D01*
D02*
G37*
G36*
X577737Y135478D02*
X573996D01*
Y137448D01*
X577737D01*
Y135478D01*
D02*
G37*
G36*
X539941Y135380D02*
X536200D01*
Y137350D01*
X539941D01*
Y135380D01*
D02*
G37*
G36*
X616618Y132700D02*
X612874D01*
Y134667D01*
X616618D01*
Y132700D01*
D02*
G37*
G36*
X643656Y132657D02*
X641685D01*
Y136398D01*
X643656D01*
Y132657D01*
D02*
G37*
G36*
X639052D02*
X637085D01*
Y136401D01*
X639052D01*
Y132657D01*
D02*
G37*
G36*
X657169Y130830D02*
X653425D01*
Y132797D01*
X657169D01*
Y130830D01*
D02*
G37*
G36*
X504843Y128103D02*
X501102D01*
Y130073D01*
X504843D01*
Y128103D01*
D02*
G37*
G36*
X616615Y128096D02*
X612874D01*
Y130067D01*
X616615D01*
Y128096D01*
D02*
G37*
G36*
X657166Y126226D02*
X653425D01*
Y128197D01*
X657166D01*
Y126226D01*
D02*
G37*
G36*
X633091Y124461D02*
X629350D01*
Y126432D01*
X633091D01*
Y124461D01*
D02*
G37*
G36*
X504843Y123503D02*
X501099D01*
Y125469D01*
X504843D01*
Y123503D01*
D02*
G37*
G36*
X633091Y119861D02*
X629347D01*
Y121827D01*
X633091D01*
Y119861D01*
D02*
G37*
G36*
X659496Y116555D02*
X657525D01*
Y120296D01*
X659496D01*
Y116555D01*
D02*
G37*
G36*
X664096Y116552D02*
X662129D01*
Y120296D01*
X664096D01*
Y116552D01*
D02*
G37*
G36*
X652022Y109232D02*
X650052D01*
Y112973D01*
X652022D01*
Y109232D01*
D02*
G37*
G36*
X647418D02*
X645452D01*
Y112976D01*
X647418D01*
Y109232D01*
D02*
G37*
D10*
X345965Y244587D02*
G03*
X345965Y244587I-394J0D01*
G01*
X346043Y179035D02*
G03*
X346043Y179035I-394J0D01*
G01*
X156610Y418500D02*
G03*
X156610Y418500I-394J0D01*
G01*
X346136Y154193D02*
G03*
X346136Y154193I-394J0D01*
G01*
X347972Y219350D02*
G03*
X347972Y219350I-394J0D01*
G01*
X153335Y418500D02*
G03*
X153335Y418500I-394J0D01*
G01*
X172343Y473557D02*
G03*
X172343Y473557I-394J0D01*
G01*
X270472Y496654D02*
G03*
X270472Y496654I-394J0D01*
G01*
X350108Y319264D02*
G03*
X350108Y319264I-394J0D01*
G01*
X349921Y283043D02*
G03*
X349921Y283043I-394J0D01*
G01*
X540374Y386831D02*
G03*
X540374Y386831I-394J0D01*
G01*
X409685Y385614D02*
G03*
X409685Y385614I-394J0D01*
G01*
X626063Y341260D02*
G03*
X626063Y341260I-394J0D01*
G01*
X626653Y265374D02*
G03*
X626653Y265374I-394J0D01*
G01*
X300979Y383004D02*
G03*
X300979Y383004I-394J0D01*
G01*
X408169Y369193D02*
G03*
X408169Y369193I-394J0D01*
G01*
X528150Y410925D02*
G03*
X528150Y410925I-394J0D01*
G01*
X592323Y413091D02*
G03*
X592323Y413091I-394J0D01*
G01*
X536122Y370965D02*
G03*
X536122Y370965I-394J0D01*
G01*
X432185Y369587D02*
G03*
X432185Y369587I-394J0D01*
G01*
X461811Y411024D02*
G03*
X461811Y411024I-394J0D01*
G01*
X394488Y411909D02*
G03*
X394488Y411909I-394J0D01*
G01*
X558071Y371260D02*
G03*
X558071Y371260I-394J0D01*
G01*
X327433Y119291D02*
G03*
X327433Y119291I-394J0D01*
G01*
X373890Y119685D02*
G03*
X373890Y119685I-394J0D01*
G01*
X118405Y256213D02*
G03*
X118405Y256213I-394J0D01*
G01*
X185728Y122736D02*
G03*
X185728Y122736I-394J0D01*
G01*
X163189Y177854D02*
G03*
X163189Y177854I-394J0D01*
G01*
X306508Y428146D02*
G03*
X306508Y428146I-394J0D01*
G01*
X345394Y441295D02*
G03*
X345394Y441295I-394J0D01*
G01*
X154626Y200886D02*
G03*
X154626Y200886I-394J0D01*
G01*
X156398Y367126D02*
G03*
X156398Y367126I-394J0D01*
G01*
X294587Y471457D02*
G03*
X294587Y471457I-394J0D01*
G01*
X684646Y232961D02*
G03*
X684646Y232961I-394J0D01*
G01*
X684252Y185874D02*
G03*
X684252Y185874I-394J0D01*
G01*
X684646Y430756D02*
G03*
X684646Y430756I-394J0D01*
G01*
X684252Y139654D02*
G03*
X684252Y139654I-394J0D01*
G01*
X684547Y234697D02*
G03*
X684547Y234697I-394J0D01*
G01*
X684646Y310307D02*
G03*
X684646Y310307I-394J0D01*
G01*
D11*
X153264Y418500D02*
G03*
X153264Y418500I-24606J0D01*
G01*
X205106D02*
G03*
X205106Y418500I-24606J0D01*
G01*
X181791Y486352D02*
G03*
X181791Y486352I-9843J0D01*
G01*
X279921Y483858D02*
G03*
X279921Y483858I-9843J0D01*
G01*
X430413Y369193D02*
G03*
X430413Y369193I-9843J0D01*
G01*
X558366Y370965D02*
G03*
X558366Y370965I-9843J0D01*
G01*
X454429Y369587D02*
G03*
X454429Y369587I-9843J0D01*
G01*
X580315Y371260D02*
G03*
X580315Y371260I-9843J0D01*
G01*
X209941Y150295D02*
G03*
X209941Y150295I-24606J0D01*
G01*
X159843Y177854D02*
G03*
X159843Y177854I-24606J0D01*
G01*
X354842Y428500D02*
G03*
X354842Y428500I-9843J0D01*
G01*
X206398Y200886D02*
G03*
X206398Y200886I-24606J0D01*
G01*
X153051Y367126D02*
G03*
X153051Y367126I-24606J0D01*
G01*
X304035Y484252D02*
G03*
X304035Y484252I-9843J0D01*
G01*
X352362Y247047D02*
Y274803D01*
X284350D02*
X352362D01*
X284350Y247047D02*
Y274803D01*
Y247047D02*
X352362D01*
X352441Y181496D02*
Y209252D01*
X284429D02*
X352441D01*
X284429Y181496D02*
Y209252D01*
Y181496D02*
X352441D01*
X304384Y153346D02*
Y174409D01*
X334305Y153346D02*
Y174409D01*
X304384D02*
X334305D01*
X304384Y153346D02*
X334305D01*
X306221Y218504D02*
Y239567D01*
X336142Y218504D02*
Y239567D01*
X306221D02*
X336142D01*
X306221Y218504D02*
X336142D01*
X552165Y180512D02*
Y194291D01*
X528543Y180512D02*
X552165D01*
X528543D02*
Y194291D01*
X552165D01*
X242323Y150197D02*
Y160827D01*
X259646Y150197D02*
Y160827D01*
X244980Y218012D02*
Y228642D01*
X262303Y218012D02*
Y228642D01*
X246654Y280130D02*
Y290760D01*
X263976Y280130D02*
Y290760D01*
X308356Y318417D02*
X338278D01*
X308356Y339480D02*
X338278D01*
Y318417D02*
Y339480D01*
X308356Y318417D02*
Y339480D01*
X308169Y282197D02*
X338090D01*
X308169Y303260D02*
X338090D01*
Y282197D02*
Y303260D01*
X308169Y282197D02*
Y303260D01*
X539961Y395472D02*
Y410827D01*
X578937Y395472D02*
Y410827D01*
X539961Y395472D02*
X578937D01*
X539961Y410827D02*
X578937D01*
X409272Y394256D02*
Y409610D01*
X448248Y394256D02*
Y409610D01*
X409272Y394256D02*
X448248D01*
X409272Y409610D02*
X448248D01*
X624705Y349508D02*
Y361516D01*
X636713Y349508D02*
Y361516D01*
X624705Y349508D02*
X636713D01*
X624705Y361516D02*
X636713D01*
X625295Y273622D02*
Y285630D01*
X637303Y273622D02*
Y285630D01*
X625295Y273622D02*
X637303D01*
X625295Y285630D02*
X637303D01*
X340703Y361232D02*
Y385051D01*
X310782Y361232D02*
Y385051D01*
Y361232D02*
X340703D01*
X310782Y385051D02*
X340703D01*
X610512Y486654D02*
X655512D01*
X602008D02*
X607008D01*
X602008Y481653D02*
Y486654D01*
Y481653D02*
X607008D01*
X659016D02*
X664016D01*
Y486654D01*
X659016D02*
X664016D01*
X607008Y495945D02*
X659016D01*
X607008Y486654D02*
Y495945D01*
Y481653D02*
Y486654D01*
Y424961D02*
Y481653D01*
Y424961D02*
X659016D01*
Y481653D01*
Y486654D01*
Y495945D01*
X530197Y486260D02*
X575197D01*
X521693D02*
X526693D01*
X521693Y481260D02*
Y486260D01*
Y481260D02*
X526693D01*
X578701D02*
X583701D01*
Y486260D01*
X578701D02*
X583701D01*
X526693Y495551D02*
X578701D01*
X526693Y486260D02*
Y495551D01*
Y481260D02*
Y486260D01*
Y424567D02*
Y481260D01*
Y424567D02*
X578701D01*
Y481260D01*
Y486260D01*
Y495551D01*
X449488Y486260D02*
X494488D01*
X440984D02*
X445984D01*
X440984Y481260D02*
Y486260D01*
Y481260D02*
X445984D01*
X497992D02*
X502992D01*
Y486260D01*
X497992D02*
X502992D01*
X445984Y495551D02*
X497992D01*
X445984Y486260D02*
Y495551D01*
Y481260D02*
Y486260D01*
Y424567D02*
Y481260D01*
Y424567D02*
X497992D01*
Y481260D01*
Y486260D01*
Y495551D01*
X368386Y486654D02*
X413386D01*
X359882D02*
X364882D01*
X359882Y481653D02*
Y486654D01*
Y481653D02*
X364882D01*
X416890D02*
X421890D01*
Y486654D01*
X416890D02*
X421890D01*
X364882Y495945D02*
X416890D01*
X364882Y486654D02*
Y495945D01*
Y481653D02*
Y486654D01*
Y424961D02*
Y481653D01*
Y424961D02*
X416890D01*
Y481653D01*
Y486654D01*
Y495945D01*
X518307Y397933D02*
X529724D01*
X518307D02*
Y404232D01*
X529724D01*
Y397933D02*
Y404232D01*
X582480Y400098D02*
X593898D01*
X582480D02*
Y406398D01*
X593898D01*
Y400098D02*
Y406398D01*
X451968Y398031D02*
X463386D01*
X451968D02*
Y404331D01*
X463386D01*
Y398031D02*
Y404331D01*
X384646Y398917D02*
X396063D01*
X384646D02*
Y405217D01*
X396063D01*
Y398917D02*
Y405217D01*
X371161Y106496D02*
Y132087D01*
X329134Y106496D02*
Y132087D01*
Y106496D02*
X371161D01*
X329134Y132087D02*
X371161D01*
X417618Y106890D02*
Y132480D01*
X375590Y106890D02*
Y132480D01*
Y106890D02*
X417618D01*
X375590Y132480D02*
X417618D01*
X105217Y258307D02*
X130807D01*
Y310213D01*
X105217D02*
X130807D01*
X105217Y258307D02*
Y310213D01*
X306232Y439787D02*
Y464280D01*
X332768D01*
Y439787D02*
Y464280D01*
X306232Y439787D02*
X332768D01*
X263583Y315366D02*
Y325996D01*
X246260Y315366D02*
Y325996D01*
X671457Y188839D02*
X697047D01*
X671457Y230866D02*
X697047D01*
X671457Y188839D02*
Y230866D01*
X697047Y188839D02*
Y230866D01*
X671063Y141752D02*
X696654D01*
X671063Y183780D02*
X696654D01*
X671063Y141752D02*
Y183780D01*
X696654Y141752D02*
Y183780D01*
X671457Y386634D02*
X697047D01*
X671457Y428661D02*
X697047D01*
X671457Y386634D02*
Y428661D01*
X697047Y386634D02*
Y428661D01*
X696654Y105748D02*
Y137559D01*
X671063Y105748D02*
X696654D01*
X671063D02*
Y137559D01*
X696654D01*
X671358Y236791D02*
Y308248D01*
X696949D01*
Y236791D02*
Y308248D01*
X671358Y236791D02*
X696949D01*
X671457Y312402D02*
Y383858D01*
X697047D01*
Y312402D02*
Y383858D01*
X671457Y312402D02*
X697047D01*
D12*
X136122Y143909D02*
Y142242D01*
Y143076D01*
X141125D01*
X140291Y143909D01*
X136106Y488272D02*
Y486604D01*
Y487438D01*
X141110D01*
X140276Y488272D01*
X625483Y488076D02*
X627454D01*
Y487090D01*
X627125Y486762D01*
X626468D01*
X626140Y487090D01*
Y488076D01*
X627125Y484791D02*
X627454Y485119D01*
Y485776D01*
X627125Y486105D01*
X625811D01*
X625483Y485776D01*
Y485119D01*
X625811Y484791D01*
X627454Y484134D02*
X625483D01*
Y483149D01*
X625811Y482820D01*
X626140D01*
X626468Y483149D01*
Y484134D01*
Y483149D01*
X626797Y482820D01*
X627125D01*
X627454Y483149D01*
Y484134D01*
Y478879D02*
Y480193D01*
X625483D01*
Y478879D01*
X626468Y480193D02*
Y479536D01*
X627454Y478222D02*
X625483D01*
Y477237D01*
X625811Y476908D01*
X627125D01*
X627454Y477237D01*
Y478222D01*
X627125Y474938D02*
X627454Y475266D01*
Y475923D01*
X627125Y476251D01*
X625811D01*
X625483Y475923D01*
Y475266D01*
X625811Y474938D01*
X626468D01*
Y475595D01*
X627454Y472967D02*
Y474281D01*
X625483D01*
Y472967D01*
X626468Y474281D02*
Y473624D01*
X545168Y487682D02*
X547139D01*
Y486696D01*
X546810Y486368D01*
X546153D01*
X545825Y486696D01*
Y487682D01*
X546810Y484397D02*
X547139Y484726D01*
Y485383D01*
X546810Y485711D01*
X545497D01*
X545168Y485383D01*
Y484726D01*
X545497Y484397D01*
X547139Y483741D02*
X545168D01*
Y482755D01*
X545497Y482427D01*
X545825D01*
X546153Y482755D01*
Y483741D01*
Y482755D01*
X546482Y482427D01*
X546810D01*
X547139Y482755D01*
Y483741D01*
Y478485D02*
Y479799D01*
X545168D01*
Y478485D01*
X546153Y479799D02*
Y479142D01*
X547139Y477828D02*
X545168D01*
Y476843D01*
X545497Y476515D01*
X546810D01*
X547139Y476843D01*
Y477828D01*
X546810Y474544D02*
X547139Y474872D01*
Y475529D01*
X546810Y475858D01*
X545497D01*
X545168Y475529D01*
Y474872D01*
X545497Y474544D01*
X546153D01*
Y475201D01*
X547139Y472573D02*
Y473887D01*
X545168D01*
Y472573D01*
X546153Y473887D02*
Y473230D01*
X464459Y487682D02*
X466430D01*
Y486696D01*
X466102Y486368D01*
X465445D01*
X465116Y486696D01*
Y487682D01*
X466102Y484397D02*
X466430Y484726D01*
Y485383D01*
X466102Y485711D01*
X464788D01*
X464459Y485383D01*
Y484726D01*
X464788Y484397D01*
X466430Y483741D02*
X464459D01*
Y482755D01*
X464788Y482427D01*
X465116D01*
X465445Y482755D01*
Y483741D01*
Y482755D01*
X465773Y482427D01*
X466102D01*
X466430Y482755D01*
Y483741D01*
Y478485D02*
Y479799D01*
X464459D01*
Y478485D01*
X465445Y479799D02*
Y479142D01*
X466430Y477828D02*
X464459D01*
Y476843D01*
X464788Y476515D01*
X466102D01*
X466430Y476843D01*
Y477828D01*
X466102Y474544D02*
X466430Y474872D01*
Y475529D01*
X466102Y475858D01*
X464788D01*
X464459Y475529D01*
Y474872D01*
X464788Y474544D01*
X465445D01*
Y475201D01*
X466430Y472573D02*
Y473887D01*
X464459D01*
Y472573D01*
X465445Y473887D02*
Y473230D01*
X383357Y488076D02*
X385328D01*
Y487090D01*
X384999Y486762D01*
X384342D01*
X384014Y487090D01*
Y488076D01*
X384999Y484791D02*
X385328Y485119D01*
Y485776D01*
X384999Y486105D01*
X383685D01*
X383357Y485776D01*
Y485119D01*
X383685Y484791D01*
X385328Y484134D02*
X383357D01*
Y483149D01*
X383685Y482820D01*
X384014D01*
X384342Y483149D01*
Y484134D01*
Y483149D01*
X384671Y482820D01*
X384999D01*
X385328Y483149D01*
Y484134D01*
Y478879D02*
Y480193D01*
X383357D01*
Y478879D01*
X384342Y480193D02*
Y479536D01*
X385328Y478222D02*
X383357D01*
Y477237D01*
X383685Y476908D01*
X384999D01*
X385328Y477237D01*
Y478222D01*
X384999Y474938D02*
X385328Y475266D01*
Y475923D01*
X384999Y476251D01*
X383685D01*
X383357Y475923D01*
Y475266D01*
X383685Y474938D01*
X384342D01*
Y475595D01*
X385328Y472967D02*
Y474281D01*
X383357D01*
Y472967D01*
X384342Y474281D02*
Y473624D01*
D18*
X282382Y254429D02*
Y266634D01*
X276083Y254429D02*
X282382D01*
X276083D02*
Y266634D01*
X282382D01*
X282480Y183465D02*
Y195669D01*
X276181Y183465D02*
X282480D01*
X276181D02*
Y195669D01*
X282480D01*
X472933Y136811D02*
X497342D01*
X472933Y112402D02*
Y136811D01*
Y112402D02*
X497342D01*
Y136811D01*
X270177Y235039D02*
X276476D01*
X270177Y222835D02*
Y235039D01*
Y222835D02*
X276476D01*
Y235039D01*
X271555Y299126D02*
X277854D01*
X271555Y286921D02*
Y299126D01*
Y286921D02*
X277854D01*
Y299126D01*
X639370Y218307D02*
X646457D01*
X639370Y206102D02*
X646457D01*
X639370D02*
Y218307D01*
X646457Y206102D02*
Y218307D01*
X639764Y178543D02*
X646850D01*
X639764Y166339D02*
X646850D01*
X639764D02*
Y178543D01*
X646850Y166339D02*
Y178543D01*
X639370Y128937D02*
X646457D01*
X639370Y116732D02*
X646457D01*
X639370D02*
Y128937D01*
X646457Y116732D02*
Y128937D01*
X281451Y368024D02*
Y375110D01*
X293656Y368024D02*
Y375110D01*
X281451Y368024D02*
X293656D01*
X281451Y375110D02*
X293656D01*
X287884Y322748D02*
Y334953D01*
X281585Y322748D02*
X287884D01*
X281585D02*
Y334953D01*
X287884D01*
X297146Y286921D02*
Y299126D01*
X290846Y286921D02*
X297146D01*
X290846D02*
Y299126D01*
X297146D01*
X284240Y158005D02*
Y170210D01*
X277941Y158005D02*
X284240D01*
X277941D02*
Y170210D01*
X284240D01*
X360824Y157218D02*
Y169423D01*
X354525Y157218D02*
X360824D01*
X354525D02*
Y169423D01*
X360824D01*
X351343Y157218D02*
Y169423D01*
X345043Y157218D02*
X351343D01*
X345043D02*
Y169423D01*
X351343D01*
X364075Y286921D02*
Y299126D01*
X357776Y286921D02*
X364075D01*
X357776D02*
Y299126D01*
X364075D01*
X295374Y222933D02*
Y235138D01*
X289075Y222933D02*
X295374D01*
X289075D02*
Y235138D01*
X295374D01*
X287697Y286921D02*
Y299126D01*
X281398Y286921D02*
X287697D01*
X281398D02*
Y299126D01*
X287697D01*
X346949Y222933D02*
Y235138D01*
X353248D01*
Y222933D02*
Y235138D01*
X346949Y222933D02*
X353248D01*
X297333Y322748D02*
Y334953D01*
X291034Y322748D02*
X297333D01*
X291034D02*
Y334953D01*
X297333D01*
X349508Y322354D02*
Y334559D01*
X355807D01*
Y322354D02*
Y334559D01*
X349508Y322354D02*
X355807D01*
X293689Y158005D02*
Y170210D01*
X287389Y158005D02*
X293689D01*
X287389D02*
Y170210D01*
X293689D01*
X358957Y322354D02*
Y334559D01*
X365256D01*
Y322354D02*
Y334559D01*
X358957Y322354D02*
X365256D01*
X354626Y286921D02*
Y299126D01*
X348327Y286921D02*
X354626D01*
X348327D02*
Y299126D01*
X354626D01*
X285925Y222933D02*
Y235138D01*
X279626Y222933D02*
X285925D01*
X279626D02*
Y235138D01*
X285925D01*
X356398Y222933D02*
Y235138D01*
X362697D01*
Y222933D02*
Y235138D01*
X356398Y222933D02*
X362697D01*
X667520Y450984D02*
Y463189D01*
X673819D01*
Y450984D02*
Y463189D01*
X667520Y450984D02*
X673819D01*
X590158D02*
Y463189D01*
X596457D01*
Y450984D02*
Y463189D01*
X590158Y450984D02*
X596457D01*
X509449D02*
X515748D01*
Y463189D01*
X509449D02*
X515748D01*
X509449Y450984D02*
Y463189D01*
X428346Y450984D02*
X434646D01*
Y463189D01*
X428346D02*
X434646D01*
X428346Y450984D02*
Y463189D01*
X255906Y358465D02*
Y370669D01*
X249606Y358465D02*
X255906D01*
X249606D02*
Y370669D01*
X255906D01*
X167717Y369882D02*
X174016D01*
X167717Y357677D02*
Y369882D01*
Y357677D02*
X174016D01*
Y369882D01*
X343110Y462795D02*
X349410D01*
X343110Y450591D02*
Y462795D01*
Y450591D02*
X349410D01*
Y462795D01*
X207142Y447732D02*
Y489268D01*
X242575Y447732D02*
Y489268D01*
X207142D02*
X242575D01*
X207142Y447732D02*
X242575D01*
X248028Y424386D02*
X255114D01*
X248028Y436590D02*
X255114D01*
Y424386D02*
Y436590D01*
X248028Y424386D02*
Y436590D01*
X267573Y170276D02*
X273872D01*
X267573Y158071D02*
Y170276D01*
Y158071D02*
X273872D01*
Y170276D01*
X271949Y334953D02*
X278248D01*
X271949Y322748D02*
Y334953D01*
Y322748D02*
X278248D01*
Y334953D01*
X236336Y377410D02*
X243423D01*
X236336Y389614D02*
X243423D01*
Y377410D02*
Y389614D01*
X236336Y377410D02*
Y389614D01*
D119*
X655587Y258096D02*
G03*
X655587Y255696I0J-1200D01*
G01*
X653144Y334665D02*
G03*
X653144Y332265I0J-1200D01*
G01*
X654387Y250996D02*
Y253496D01*
X652687Y250996D02*
X654387D01*
X652687D02*
Y253496D01*
X654387D01*
X655587D01*
X651887Y250996D02*
Y253496D01*
X650087Y250996D02*
X651887D01*
X650087D02*
Y253496D01*
X649287Y250996D02*
Y253496D01*
X647487Y250996D02*
X649287D01*
X647487D02*
Y253496D01*
X646687Y250996D02*
Y253496D01*
X644987Y250996D02*
X646687D01*
X644987D02*
Y253496D01*
Y260296D02*
Y262796D01*
X646687D01*
Y260296D02*
Y262796D01*
X644987Y260296D02*
X646687D01*
X643787D02*
X644987D01*
X647487D02*
Y262796D01*
X649287D01*
Y260296D02*
Y262796D01*
X650087Y260296D02*
Y262796D01*
X651887D01*
Y260296D02*
Y262796D01*
X652687Y260296D02*
Y262796D01*
X654387D01*
Y260296D02*
Y262796D01*
X646687Y260296D02*
X647487D01*
X649287D01*
X650087D01*
X651887D01*
X652687D01*
X654387D01*
X655587D01*
Y258096D02*
Y260296D01*
Y255696D02*
Y258096D01*
Y253496D02*
Y255696D01*
X651887Y253496D02*
X652687D01*
X650087D02*
X651887D01*
X649287D02*
X650087D01*
X647487D02*
X649287D01*
X646687D02*
X647487D01*
X644987D02*
X646687D01*
X643787D02*
X644987D01*
X643787D02*
Y260296D01*
X651944Y327565D02*
Y330065D01*
X650244Y327565D02*
X651944D01*
X650244D02*
Y330065D01*
X651944D01*
X653144D01*
X649444Y327565D02*
Y330065D01*
X647644Y327565D02*
X649444D01*
X647644D02*
Y330065D01*
X646844Y327565D02*
Y330065D01*
X645044Y327565D02*
X646844D01*
X645044D02*
Y330065D01*
X644244Y327565D02*
Y330065D01*
X642544Y327565D02*
X644244D01*
X642544D02*
Y330065D01*
Y336865D02*
Y339365D01*
X644244D01*
Y336865D02*
Y339365D01*
X642544Y336865D02*
X644244D01*
X641344D02*
X642544D01*
X645044D02*
Y339365D01*
X646844D01*
Y336865D02*
Y339365D01*
X647644Y336865D02*
Y339365D01*
X649444D01*
Y336865D02*
Y339365D01*
X650244Y336865D02*
Y339365D01*
X651944D01*
Y336865D02*
Y339365D01*
X644244Y336865D02*
X645044D01*
X646844D01*
X647644D01*
X649444D01*
X650244D01*
X651944D01*
X653144D01*
Y334665D02*
Y336865D01*
Y332265D02*
Y334665D01*
Y330065D02*
Y332265D01*
X649444Y330065D02*
X650244D01*
X647644D02*
X649444D01*
X646844D02*
X647644D01*
X645044D02*
X646844D01*
X644244D02*
X645044D01*
X642544D02*
X644244D01*
X641344D02*
X642544D01*
X641344D02*
Y336865D01*
D120*
X269610Y257949D02*
Y260752D01*
X272961Y257949D02*
Y260752D01*
X356323Y258539D02*
Y261343D01*
X359673Y258539D02*
Y261343D01*
X270299Y187378D02*
X270299Y190181D01*
X273650D02*
X273650Y187378D01*
X356716Y192791D02*
Y195595D01*
X360067Y192791D02*
Y195595D01*
X253421Y336209D02*
X256224D01*
X253421Y332858D02*
X256224D01*
X508984Y403520D02*
Y406323D01*
X505634Y403520D02*
Y406323D01*
X631819Y402339D02*
Y405142D01*
X628469Y402339D02*
Y405142D01*
X607161Y416508D02*
X609965D01*
X607161Y419858D02*
X609965D01*
X569760Y422469D02*
X572563D01*
X569760Y419118D02*
X572563D01*
X458638Y418870D02*
X461441D01*
X458638Y422221D02*
X461441D01*
X481327Y401945D02*
Y404748D01*
X477976Y401945D02*
Y404748D01*
X375716Y409524D02*
Y412327D01*
X372366Y409524D02*
Y412327D01*
X430094Y421878D02*
X432898D01*
X430094Y418528D02*
X432898D01*
X534965Y171335D02*
Y174138D01*
X538315Y171335D02*
Y174138D01*
X542445Y171335D02*
Y174138D01*
X545795Y171335D02*
Y174138D01*
X565083Y137378D02*
Y140181D01*
X568433Y137378D02*
Y140181D01*
X577535Y137378D02*
Y140181D01*
X574185Y137378D02*
Y140181D01*
X529405Y137476D02*
Y140279D01*
X526055Y137476D02*
Y140279D01*
X501303Y125370D02*
Y128173D01*
X504654Y125370D02*
Y128173D01*
X520646Y141217D02*
Y144020D01*
X517295Y141217D02*
Y144020D01*
X195547Y495795D02*
X198350D01*
X195547Y492445D02*
X198350D01*
X490626Y154157D02*
X493429D01*
X490626Y157508D02*
X493429D01*
X483638Y147020D02*
X486441D01*
X483638Y150370D02*
X486441D01*
X509913Y141020D02*
Y143823D01*
X513264Y141020D02*
Y143823D01*
X502138Y140921D02*
Y143724D01*
X505488Y140921D02*
Y143724D01*
X549732Y137476D02*
Y140279D01*
X546382Y137476D02*
Y140279D01*
X556173Y137476D02*
Y140279D01*
X559524Y137476D02*
Y140279D01*
X295896Y385520D02*
Y388323D01*
X292546Y385520D02*
Y388323D01*
X428421Y308689D02*
X431224D01*
X428421Y305339D02*
X431224D01*
X616413Y129996D02*
Y132799D01*
X613063Y129996D02*
Y132799D01*
X659425Y120106D02*
X662228D01*
X659425Y116756D02*
X662228D01*
X653614Y128126D02*
Y130929D01*
X656965Y128126D02*
Y130929D01*
X615035Y374091D02*
Y376894D01*
X611685Y374091D02*
Y376894D01*
X626748Y332555D02*
Y335358D01*
X623398Y332555D02*
Y335358D01*
X650961Y379701D02*
X653764D01*
X650961Y376350D02*
X653764D01*
X627535Y370791D02*
X630339D01*
X627535Y374142D02*
X630339D01*
X627339Y378272D02*
X630142D01*
X627339Y381622D02*
X630142D01*
X617248Y353126D02*
Y355929D01*
X620598Y353126D02*
Y355929D01*
X652142Y317543D02*
X654945D01*
X652142Y320894D02*
X654945D01*
X632260Y320744D02*
X635063D01*
X632260Y317394D02*
X635063D01*
X634031Y244807D02*
X636835D01*
X634031Y248158D02*
X636835D01*
X620595Y300370D02*
Y303173D01*
X623945Y300370D02*
Y303173D01*
X649091Y295941D02*
X651894D01*
X649091Y292591D02*
X651894D01*
X622417Y259571D02*
X625220D01*
X622417Y262921D02*
X625220D01*
X619020Y277929D02*
Y280732D01*
X622370Y277929D02*
Y280732D01*
X632457Y304650D02*
X635260D01*
X632457Y308000D02*
X635260D01*
X632457Y296650D02*
X635260D01*
X632457Y300000D02*
X635260D01*
X661787Y274878D02*
Y277681D01*
X658437Y274878D02*
Y277681D01*
X636591Y256276D02*
Y259079D01*
X633240Y256276D02*
Y259079D01*
X648586Y242647D02*
X651389D01*
X648586Y245997D02*
X651389D01*
X668673Y438756D02*
Y441559D01*
X672024Y438756D02*
Y441559D01*
X591606Y436394D02*
Y439197D01*
X594957Y436394D02*
Y439197D01*
X510898Y436394D02*
Y439197D01*
X514248Y436394D02*
Y439197D01*
X429402Y436787D02*
Y439591D01*
X432752Y436787D02*
Y439591D01*
X659819Y174929D02*
X662622D01*
X659819Y171579D02*
X662622D01*
X657260Y182410D02*
X660063D01*
X657260Y179059D02*
X660063D01*
X667842Y160902D02*
Y163705D01*
X664492Y160902D02*
Y163705D01*
X643087Y225323D02*
X645890D01*
X643087Y221972D02*
X645890D01*
X429898Y224728D02*
X432701D01*
X429898Y228079D02*
X432701D01*
X428224Y290476D02*
X431028D01*
X428224Y293827D02*
X431028D01*
X430094Y239984D02*
X432898D01*
X430094Y243335D02*
X432898D01*
X430094Y247563D02*
X432898D01*
X430094Y250913D02*
X432898D01*
X428224Y297858D02*
X431028D01*
X428224Y301209D02*
X431028D01*
X428421Y313016D02*
X431224D01*
X428421Y316366D02*
X431224D01*
X429898Y232209D02*
X432701D01*
X429898Y235559D02*
X432701D01*
X606472Y389689D02*
X609276D01*
X606472Y393039D02*
X609276D01*
X529846Y382949D02*
Y385752D01*
X533197Y382949D02*
Y385752D01*
X519268Y382949D02*
Y385752D01*
X515917Y382949D02*
Y385752D01*
X591905Y385606D02*
Y388409D01*
X588555Y385606D02*
Y388409D01*
X559721Y383488D02*
X562524D01*
X559721Y386839D02*
X562524D01*
X545154Y386787D02*
X547957D01*
X545154Y383437D02*
X547957D01*
X540035Y176354D02*
Y179157D01*
X536685Y176354D02*
Y179157D01*
X532654Y176354D02*
Y179157D01*
X529303Y176354D02*
Y179157D01*
X536993Y413937D02*
Y416740D01*
X533643Y413937D02*
Y416740D01*
X474386Y387870D02*
Y390673D01*
X471035Y387870D02*
Y390673D01*
X390921Y384130D02*
Y386933D01*
X387571Y384130D02*
Y386933D01*
X460902Y383638D02*
Y386441D01*
X457551Y383638D02*
Y386441D01*
X399335Y384228D02*
Y387032D01*
X402685Y384228D02*
Y387032D01*
X407063Y409425D02*
Y412228D01*
X403713Y409425D02*
Y412228D01*
X430094Y382307D02*
X432898D01*
X430094Y385658D02*
X432898D01*
X415429Y382307D02*
X418232D01*
X415429Y385658D02*
X418232D01*
X293140Y354811D02*
Y357614D01*
X289790Y354811D02*
Y357614D01*
X610063Y167004D02*
Y169807D01*
X613413Y167004D02*
Y169807D01*
X621087Y163559D02*
Y166362D01*
X624437Y163559D02*
Y166362D01*
X627142Y152287D02*
X629945D01*
X627142Y155638D02*
X629945D01*
X663953Y218284D02*
Y221087D01*
X660602Y218284D02*
Y221087D01*
X642004Y163067D02*
X644807D01*
X642004Y159716D02*
X644807D01*
X641905Y155587D02*
X644709D01*
X641905Y152236D02*
X644709D01*
X652287Y158736D02*
Y161539D01*
X655638Y158736D02*
Y161539D01*
X642398Y194957D02*
X645201D01*
X642398Y191606D02*
X645201D01*
X614591Y195744D02*
Y198547D01*
X617941Y195744D02*
Y198547D01*
X642398Y202437D02*
X645201D01*
X642398Y199087D02*
X645201D01*
X660653Y203717D02*
Y206520D01*
X664004Y203717D02*
Y206520D01*
X626551Y191756D02*
X629354D01*
X626551Y195106D02*
X629354D01*
X629551Y203224D02*
Y206028D01*
X632902Y203224D02*
Y206028D01*
X653272Y199287D02*
Y202091D01*
X656622Y199287D02*
Y202091D01*
X638953Y136197D02*
X641756D01*
X638953Y132846D02*
X641756D01*
X638756Y143579D02*
X641559D01*
X638756Y140228D02*
X641559D01*
X647319Y112772D02*
X650122D01*
X647319Y109421D02*
X650122D01*
X630685Y137575D02*
Y140378D01*
X627335Y137575D02*
Y140378D01*
X629551Y121728D02*
Y124531D01*
X632902Y121728D02*
Y124531D01*
X616610Y140673D02*
X619413D01*
X616610Y144024D02*
X619413D01*
X638854Y332260D02*
Y335063D01*
X635504Y332260D02*
Y335063D01*
X648273Y266947D02*
X651076D01*
X648273Y270297D02*
X651076D01*
X648205Y274039D02*
X651008D01*
X648205Y277390D02*
X651008D01*
X650961Y361441D02*
X653764D01*
X650961Y364791D02*
X653764D01*
X650567Y346480D02*
X653370D01*
X650567Y349831D02*
X653370D01*
X650764Y353961D02*
X653567D01*
X650764Y357311D02*
X653567D01*
X649091Y285110D02*
X651894D01*
X649091Y288461D02*
X651894D01*
X650961Y368870D02*
X653764D01*
X650961Y372220D02*
X653764D01*
X539740Y137279D02*
Y140083D01*
X536390Y137279D02*
Y140083D01*
X163854Y278028D02*
Y280831D01*
X160504Y278028D02*
Y280831D01*
X353943Y365350D02*
Y368154D01*
X350593Y365350D02*
Y368154D01*
X354164Y380008D02*
Y382811D01*
X350814Y380008D02*
Y382811D01*
X303857Y389921D02*
X306660D01*
X303857Y393272D02*
X306660D01*
X281821Y384090D02*
X284625D01*
X281821Y387441D02*
X284625D01*
X282361Y354811D02*
Y357614D01*
X285711Y354811D02*
Y357614D01*
X361644Y365441D02*
Y368244D01*
X358294Y365441D02*
Y368244D01*
X301059Y359032D02*
X303862D01*
X301059Y355681D02*
X303862D01*
X271191Y361799D02*
X273994D01*
X271191Y358449D02*
X273994D01*
X260063Y365331D02*
Y368134D01*
X263413Y365331D02*
Y368134D01*
X267172Y369831D02*
Y372634D01*
X270522Y369831D02*
Y372634D01*
X274672Y369831D02*
Y372634D01*
X278022Y369831D02*
Y372634D01*
X605587Y320449D02*
Y323252D01*
X602236Y320449D02*
Y323252D01*
X598106Y320449D02*
Y323252D01*
X594756Y320449D02*
Y323252D01*
X613067Y320646D02*
Y323449D01*
X609717Y320646D02*
Y323449D01*
X602142Y308980D02*
X604945D01*
X602142Y312331D02*
X604945D01*
X298850Y430598D02*
Y433402D01*
X302201Y430598D02*
Y433402D01*
X323098Y419299D02*
X325902D01*
X323098Y422650D02*
X325902D01*
X511787Y193035D02*
X514591D01*
X511787Y196386D02*
X514591D01*
X497614Y192937D02*
X500417D01*
X497614Y196287D02*
X500417D01*
X515921Y186047D02*
X518724D01*
X515921Y189398D02*
X518724D01*
X515083Y259130D02*
Y261933D01*
X518433Y259130D02*
Y261933D01*
X574878Y195744D02*
X577681D01*
X574878Y192394D02*
X577681D01*
X574878Y202732D02*
X577681D01*
X574878Y199382D02*
X577681D01*
X493724Y281669D02*
Y284472D01*
X497075Y281669D02*
Y284472D01*
X501205Y274681D02*
Y277484D01*
X504555Y274681D02*
Y277484D01*
X486342Y274976D02*
Y277780D01*
X489693Y274976D02*
Y277780D01*
X254350Y455598D02*
Y458402D01*
X257701Y455598D02*
Y458402D01*
X266315Y452437D02*
X269118D01*
X266315Y449087D02*
X269118D01*
X287925Y462598D02*
Y465402D01*
X291276Y462598D02*
Y465402D01*
X282224Y462598D02*
Y465402D01*
X278874Y462598D02*
Y465402D01*
X273331Y462598D02*
Y465402D01*
X269980Y462598D02*
Y465402D01*
X315595Y483150D02*
X318398D01*
X315595Y479799D02*
X318398D01*
X258098Y466350D02*
X260902D01*
X258098Y469701D02*
X260902D01*
X284539Y429327D02*
Y432130D01*
X287890Y429327D02*
Y432130D01*
X279980Y410579D02*
X282784D01*
X279980Y413929D02*
X282784D01*
X279980Y418079D02*
X282784D01*
X279980Y421429D02*
X282784D01*
X280339Y429513D02*
Y432316D01*
X276988Y429513D02*
Y432316D01*
X272839Y429513D02*
Y432316D01*
X269488Y429513D02*
Y432316D01*
X251354Y418429D02*
X254157D01*
X251354Y421779D02*
X254157D01*
X265339Y414827D02*
Y417630D01*
X261988Y414827D02*
Y417630D01*
X265339Y429327D02*
Y432130D01*
X261988Y429327D02*
Y432130D01*
X233638Y417591D02*
X236441D01*
X233638Y420941D02*
X236441D01*
X241807Y429307D02*
Y432110D01*
X238457Y429307D02*
Y432110D01*
X229504Y429307D02*
Y432110D01*
X226153Y429307D02*
Y432110D01*
X254602Y295839D02*
X257405D01*
X254602Y299189D02*
X257405D01*
X252240Y232748D02*
X255043D01*
X252240Y236098D02*
X255043D01*
X250173Y168083D02*
X252976D01*
X250173Y171433D02*
X252976D01*
X197221Y342201D02*
Y345004D01*
X193870Y342201D02*
Y345004D01*
X163362Y342102D02*
Y344905D01*
X160012Y342102D02*
Y344905D01*
X193724Y277732D02*
Y280535D01*
X197075Y277732D02*
Y280535D01*
X253862Y486787D02*
Y489591D01*
X257213Y486787D02*
Y489591D01*
X178567Y462575D02*
Y465378D01*
X181917Y462575D02*
Y465378D01*
X254143Y382862D02*
Y385665D01*
X250793Y382862D02*
Y385665D01*
X230193Y382358D02*
Y385161D01*
X226842Y382358D02*
Y385161D01*
X261197Y382949D02*
Y385752D01*
X257846Y382949D02*
Y385752D01*
X240528Y392295D02*
X243331D01*
X240528Y395646D02*
X243331D01*
M02*
